<svg xmlns="http://www.w3.org/2000/svg" width="150" height="50" viewBox="0,0,150,50"><path fill="#333" d="M46.78 41.53L46.89 41.63L46.74 41.48Q44.75 41.21 42.58 41.06L42.54 41.01L42.47 40.94Q41.04 39.52 38.38 35.67L38.45 35.75L38.48 35.77Q36.15 38.73 33.75 41.17L33.78 41.21L31.73 41.63L31.70 41.60Q30.76 41.91 29.77 42.18L29.75 42.16L29.72 42.13Q33.92 38.02 36.92 33.91L36.93 33.92L36.79 33.78Q33.52 29.59 28.11 24.80L28.17 24.86L28.14 24.83Q30.51 25.71 33.21 26.13L33.08 26.00L33.13 26.05Q36.56 29.13 38.46 31.84L38.51 31.88L38.51 31.88Q40.56 28.76 43.30 26.25L43.42 26.36L43.27 26.22Q46.48 26.03 48.31 25.54L48.16 25.39L48.30 25.53Q43.75 29.17 40.06 33.74L40.08 33.75L39.97 33.65Q43.31 38.28 46.77 41.52ZM49.74 24.76L49.64 24.66L49.66 24.69Q46.78 25.53 43.24 25.87L43.18 25.82L43.33 25.96Q40.42 28.62 38.71 31.09L38.65 31.03L38.67 31.06Q37.66 29.89 36.02 27.91L36.15 28.03L35.85 27.93L35.97 28.05Q35.85 28.04 35.74 28.04L35.61 27.91L35.66 27.96Q34.98 27.22 33.35 25.77L33.19 25.61L33.35 25.77Q29.72 25.18 26.86 23.97L26.78 23.88L26.91 24.01Q32.30 28.68 36.34 33.82L36.47 33.95L36.36 33.85Q33.11 38.59 28.69 42.89L28.63 42.82L28.58 42.78Q28.84 42.69 32.34 41.86L32.34 41.86L32.41 41.92Q30.87 43.24 29.23 44.57L29.11 44.45L29.11 44.45Q32.34 43.57 35.50 43.38L35.54 43.42L35.61 43.49Q37.97 41.21 39.88 38.47L39.76 38.35L39.89 38.48Q41.35 40.28 42.56 41.46L42.40 41.29L42.49 41.38Q42.50 41.28 42.58 41.36L42.71 41.49L42.87 41.46L42.86 41.45Q44.13 42.57 45.47 43.64L45.48 43.65L45.37 43.54Q49.05 44.17 51.94 45.20L51.94 45.20L51.94 45.20Q45.73 40.70 42.04 35.52L42.01 35.50L42.04 35.53Q45.79 30.60 50.36 26.52L50.24 26.40L50.26 26.42Q49.28 26.74 48.29 26.97L48.29 26.97L46.38 27.53L46.41 27.57Q47.43 26.49 49.60 24.63Z"/><path fill="#444" d="M23.22 28.65L23.16 28.60L23.16 28.60Q20.27 28.53 19.51 30.77L19.59 30.86L19.62 30.88Q19.44 31.66 19.33 32.30L19.16 32.14L19.32 32.30Q21.75 32.33 23.39 32.33L23.39 32.33L23.43 32.37Q25.17 32.48 27.76 32.36L27.77 32.37L27.75 32.35Q27.69 30.69 26.28 29.63L26.31 29.65L26.17 29.52Q24.89 28.54 23.10 28.54ZM23.24 41.17L23.19 41.11L23.18 41.11Q18.97 41.12 17.68 39.71L17.77 39.81L17.75 39.78Q16.80 38.34 16.65 35.07L16.72 35.14L16.64 35.06Q16.66 34.85 16.58 33.48L16.54 33.44L16.57 33.47Q16.40 31.13 16.40 30.40L16.40 30.40L16.42 30.43Q16.38 28.52 17.10 27.41L17.05 27.37L17.13 27.44Q18.58 26.07 21.55 26.07L21.44 25.96L22.98 25.95L22.99 25.95Q25.21 26.12 26.73 26.42L26.61 26.30L26.62 26.31Q28.62 26.71 29.61 27.93L29.79 28.11L29.73 28.05Q30.27 29.05 30.35 31.14L30.44 31.23L30.41 31.20Q30.42 32.35 30.46 34.52L30.49 34.56L30.49 34.55Q27.62 34.58 24.84 34.58L24.73 34.47L19.13 34.47L19.17 34.51Q19.42 39.02 23.49 38.79L23.33 38.63L23.34 38.64Q27.17 38.51 28.39 36.68L28.39 36.69L28.48 36.77Q29.17 37.12 30.77 38.30L30.81 38.34L30.90 38.44Q29.48 40.78 25.33 41.04L25.41 41.13L25.34 41.06Q24.67 41.15 23.30 41.23ZM25.64 43.60L25.62 43.59L25.54 43.50Q26.66 43.48 27.87 43.55L27.82 43.49L27.89 43.56Q32.92 43.81 33.84 41.03L33.72 40.90L33.75 40.94Q32.17 39.74 31.07 38.98L31.09 39.00L31.03 38.94Q31.17 38.51 31.36 38.28L31.38 38.30L31.44 38.37Q30.77 37.96 29.40 37.01L29.24 36.85L29.33 36.94Q30.47 37.05 32.53 37.36L32.49 37.32L32.53 37.36Q32.32 35.97 32.24 35.28L32.13 35.17L32.06 33.31L32.05 33.30Q31.90 30.95 31.26 29.46L31.29 29.50L31.31 29.52Q31.04 29.17 30.47 28.56L30.44 28.53L30.39 28.49Q30.30 28.24 30.07 27.67L29.98 27.58L30.00 27.60Q28.11 25.55 23.04 25.55L23.07 25.58L21.47 25.65L21.33 25.51Q18.21 25.62 16.76 27.11L16.71 27.06L16.80 27.15Q16.02 28.16 16.06 30.21L16.06 30.21L16.09 30.24Q16.23 31.30 16.34 33.54L16.27 33.47L16.18 33.38Q16.36 35.08 16.47 37.14L16.48 37.15L16.42 37.09Q16.78 39.43 17.66 40.50L17.65 40.48L17.56 40.39Q17.68 40.52 17.87 40.63L17.84 40.60L18.31 41.41L18.24 41.34Q19.08 43.25 25.67 43.63ZM23.54 38.42L23.43 38.31L23.54 38.42Q22.32 38.45 21.40 38.00L21.42 38.01L21.41 38.00Q21.40 37.65 21.21 36.97L21.12 36.88L21.19 36.95Q22.73 36.69 24.32 36.69L24.38 36.75L24.44 36.81Q26.06 36.75 27.74 36.87L27.65 36.79L27.75 36.88Q26.55 38.31 23.54 38.42ZM25.03 30.93L24.99 30.89L25.01 30.90Q25.76 31.05 27.10 31.43L27.08 31.42L27.20 31.72L27.28 32.00L27.23 31.94Q25.90 32.10 24.99 32.06L24.93 32.01L24.94 32.01Q22.74 32.06 22.71 32.06L22.67 32.03L22.65 32.01Q23.46 31.14 25.13 31.03Z"/><path fill="#444" d="M77.92 19.68L77.80 19.56L76.24 19.67L76.38 19.81Q74.03 19.83 73.80 21.84L73.91 21.96L73.76 21.80Q73.75 22.59 73.79 23.58L73.73 23.53L73.84 23.64Q73.78 25.48 75.04 26.81L75.08 26.85L75.02 26.80Q76.31 28.15 78.21 28.00L78.32 28.11L78.24 28.03Q80.28 27.86 81.04 26.95L81.11 27.02L81.08 26.99Q82.07 26.00 82.34 23.76L82.32 23.74L82.46 23.88Q82.63 21.53 81.37 20.70L81.41 20.74L81.46 20.78Q80.61 20.01 77.95 19.71ZM83.90 28.85L83.94 28.90L82.58 31.11L82.73 31.26Q79.87 35.91 76.10 39.98L76.23 40.11L76.16 40.04Q74.56 40.23 71.86 41.03L71.89 41.06L71.76 40.93Q77.20 34.76 80.36 29.97L80.26 29.87L80.39 29.99Q79.37 30.65 77.74 30.73L77.62 30.61L77.59 30.58Q74.65 30.80 73.13 28.82L73.19 28.88L73.02 28.71Q71.91 27.22 70.80 22.65L70.72 22.57L70.72 22.57Q70.85 22.24 70.70 21.31L70.62 21.23L70.69 21.30Q70.57 20.40 70.57 19.94L70.39 19.76L70.48 19.85Q70.58 18.16 71.64 17.55L71.55 17.46L71.61 17.52Q72.79 16.72 74.66 16.72L74.69 16.75L74.56 16.63Q77.84 16.71 77.84 16.71L77.86 16.73L77.90 16.77Q79.97 16.71 81.23 16.90L81.34 17.01L81.31 16.98Q83.40 17.20 84.31 17.69L84.37 17.75L84.29 17.67Q85.64 18.42 85.83 20.17L85.90 20.23L85.91 20.25Q85.83 20.40 85.64 23.06L85.75 23.17L85.77 23.19Q85.28 25.22 85.05 26.05L84.99 25.98L85.14 26.13Q84.77 27.56 84.01 28.96ZM85.81 31.26L85.76 31.21L85.76 31.21Q86.88 29.13 87.41 24.83L87.37 24.79L87.40 24.82Q87.70 22.65 87.67 21.78L87.51 21.62L87.64 21.75Q87.46 19.74 86.28 18.82L86.33 18.87L86.13 18.87L86.07 18.80Q85.86 18.10 84.94 17.45L84.83 17.34L84.78 17.29Q82.61 16.42 77.82 16.26L77.72 16.16L77.79 16.23Q76.80 16.20 74.36 16.20L74.45 16.29L74.43 16.26Q72.71 16.30 71.23 16.98L71.23 16.99L71.15 16.90Q69.99 17.69 70.07 19.52L70.03 19.48L70.16 19.61Q70.23 20.40 70.42 22.42L70.47 22.47L70.39 22.40Q71.02 25.04 71.29 25.88L71.31 25.90L71.30 25.89Q71.99 27.87 72.94 29.16L72.97 29.19L72.95 29.18Q73.17 29.48 73.55 29.86L73.58 29.88L73.54 29.85Q73.71 30.20 74.35 31.11L74.41 31.17L74.46 31.22Q75.97 32.61 77.91 32.80L77.83 32.72L77.95 32.84Q75.90 35.36 74.34 37.26L74.36 37.28L70.79 41.71L70.83 41.75Q73.09 41.00 74.73 40.66L74.69 40.62L74.72 40.65Q73.97 41.54 72.41 43.25L72.32 43.16L72.29 43.14Q75.39 42.23 78.51 42.20L78.58 42.27L78.60 42.29Q80.90 39.68 85.24 32.45L85.15 32.35L85.20 32.48L85.14 32.42Q85.44 31.73 85.79 31.24ZM79.75 21.96L79.77 21.99L79.81 22.02Q80.49 21.98 80.95 22.10L80.97 22.12L80.85 22.00Q81.60 22.22 81.99 22.34L81.89 22.24L81.86 22.22Q82.04 22.65 82.11 23.07L82.11 23.07L82.07 23.03Q82.09 23.39 81.97 23.77L82.01 23.80L81.97 23.77Q81.96 25.51 80.78 26.61L80.86 26.69L80.85 26.68Q79.96 27.78 78.33 27.74L78.35 27.76L78.29 27.70Q77.85 27.68 76.32 27.37L76.38 27.43L76.32 27.36Q76.06 26.46 76.06 25.74L76.11 25.79L76.09 25.77Q76.10 25.59 76.10 25.36L75.96 25.22L75.97 25.23Q76.07 23.12 78.35 22.32L78.31 22.28L78.22 22.19Q78.99 22.04 79.82 22.04Z"/><path fill="#333" d="M51.05 41.16L51.02 41.12L49.36 41.17L49.38 41.20Q46.01 41.21 45.06 39.08L45.02 39.04L44.98 39.01Q46.09 37.91 47.54 36.81L47.57 36.83L47.61 36.88Q48.21 39.07 51.07 38.92L51.07 38.92L50.96 38.81Q51.74 38.76 52.77 38.53L52.93 38.69L52.97 38.73Q53.72 38.03 53.64 37.08L53.76 37.21L53.73 37.17Q53.69 36.11 51.91 35.42L51.89 35.41L48.02 33.82L48.00 33.80Q45.63 32.42 45.29 28.88L45.43 29.02L45.36 28.95Q45.23 26.88 47.40 26.31L47.27 26.18L47.36 26.27Q48.35 26.08 51.32 26.08L51.24 26.00L51.18 25.94Q56.11 25.99 57.02 28.51L57.14 28.63L57.04 28.53Q56.46 29.12 55.73 29.58L55.69 29.54L54.21 30.41L54.32 30.53Q53.72 28.52 50.49 28.29L50.61 28.41L50.57 28.37Q49.98 28.39 48.95 28.81L49.03 28.89L48.97 28.83Q48.40 29.18 48.40 30.28L48.28 30.16L48.37 30.25Q48.81 31.42 50.64 32.10L50.51 31.97L50.46 31.92Q51.53 32.30 54.19 33.41L54.27 33.48L54.19 33.41Q56.14 34.37 56.33 36.92L56.21 36.80L56.33 36.91Q56.33 37.48 56.25 38.47L56.30 38.52L56.27 38.49Q56.19 39.33 55.62 39.98L55.65 40.00L55.75 40.11Q54.14 41.20 51.10 41.20ZM55.71 43.64L55.82 43.75L55.86 43.80Q56.67 43.73 58.04 43.43L58.17 43.55L58.01 43.39Q59.07 42.70 58.88 41.48L59.05 41.65L59.03 41.63Q58.95 41.06 58.65 39.46L58.51 39.32L58.63 39.44Q57.99 36.40 56.20 35.19L56.20 35.19L56.32 35.31Q55.75 33.86 54.49 33.14L54.45 33.09L54.55 33.19Q53.17 32.65 50.69 31.70L50.80 31.81L50.75 31.76Q50.97 31.37 51.24 31.26L51.16 31.17L51.06 31.07Q51.72 30.67 52.37 30.63L52.40 30.66L52.51 30.77Q53.24 30.66 54.00 30.93L54.04 30.97L54.06 31.07L54.02 30.91L54.40 31.10L54.33 31.07L54.39 31.13Q55.48 31.61 55.67 32.86L55.57 32.77L55.59 32.79Q56.86 31.97 58.77 30.29L58.79 30.32L58.79 30.32Q58.42 29.49 57.43 28.31L57.48 28.35L57.42 28.30Q56.45 25.76 51.35 25.65L51.17 25.47L51.22 25.52Q48.15 25.58 46.17 26.15L46.16 26.14L46.22 26.19Q44.65 26.60 44.88 28.70L44.98 28.80L44.97 28.79Q45.04 30.00 45.95 32.10L45.99 32.14L45.99 32.13Q46.58 33.29 47.60 34.01L47.55 33.96L47.56 33.97Q48.25 35.46 49.55 36.15L49.57 36.17L49.55 36.15Q50.44 36.35 51.39 36.73L51.39 36.73L53.33 37.54L53.27 37.47Q53.06 38.71 51.12 38.60L50.97 38.44L50.95 38.42Q50.59 38.56 49.38 38.26L49.34 38.23L49.39 38.12L49.17 38.13L49.21 38.17Q48.46 37.91 47.81 36.43L47.72 36.33L47.69 36.31Q45.59 37.90 44.49 39.04L44.44 39.00L44.41 38.96Q44.70 39.87 45.73 40.67L45.74 40.67L45.69 40.93L45.64 40.89Q47.14 43.07 51.37 43.45L51.21 43.29L51.35 43.43Q52.57 43.51 55.81 43.74Z"/><path fill="#222" d="M9.84 29.84L9.88 29.88L9.90 29.89Q9.56 29.78 9.25 29.78L9.39 29.92L9.31 29.84Q7.90 29.76 6.45 30.60L6.57 30.72L6.61 30.76Q5.17 31.75 5.17 33.65L5.18 33.66L5.18 33.67Q5.17 37.08 6.69 38.41L6.63 38.36L6.76 38.48Q7.73 39.68 10.01 39.68L10.03 39.70L9.96 39.63Q10.29 39.73 10.60 39.73L10.47 39.61L10.61 39.75Q12.23 39.65 13.38 38.02L13.41 38.06L13.39 38.03Q14.33 36.42 14.25 34.63L14.25 34.63L14.23 34.61Q14.44 34.28 14.44 33.86L14.48 33.91L14.33 33.76Q14.41 32.04 13.03 30.88L13.10 30.95L12.94 30.79Q11.70 29.75 9.91 29.91ZM14.28 39.95L14.27 39.94L14.46 40.13Q13.29 41.89 9.55 42.00L9.70 42.14L9.72 42.16Q6.24 42.19 4.64 40.59L4.55 40.50L4.62 40.56Q3.12 38.76 2.32 33.96L2.44 34.08L2.46 34.11Q2.10 32.30 2.10 31.05L2.10 31.04L2.13 31.07Q2.02 29.17 2.74 28.11L2.77 28.14L2.81 28.17Q4.22 26.85 7.19 26.85L7.12 26.77L7.10 26.76Q13.38 26.72 15.29 29.31L15.40 29.42L15.27 29.29Q15.59 28.62 16.01 27.02L16.04 27.05L16.04 27.05Q17.16 26.61 19.60 25.81L19.57 25.78L19.69 25.91Q17.20 31.48 16.97 37.80L17.09 37.93L16.97 37.81Q16.82 44.05 18.95 49.87L18.89 49.81L18.90 49.83Q17.26 49.29 15.47 49.02L15.33 48.88L15.40 48.95Q14.55 45.06 14.44 40.11ZM15.09 49.21L15.05 49.17L15.04 49.16Q15.76 49.31 17.17 49.61L17.33 49.78L17.16 49.61Q17.41 50.35 17.98 51.76L18.03 51.81L17.98 51.76Q20.71 52.63 23.00 53.92L22.93 53.86L22.84 53.77Q18.86 47.23 18.86 38.71L18.93 38.77L18.99 38.83Q18.96 32.45 21.43 26.66L21.45 26.67L21.30 26.53Q20.75 26.96 19.38 27.61L19.38 27.61L19.35 27.58Q19.63 26.76 20.28 25.20L20.28 25.20L20.28 25.20Q18.84 25.85 15.64 26.73L15.53 26.61L15.51 26.60Q15.48 27.25 15.18 28.43L15.11 28.37L15.11 28.36Q13.16 26.53 7.03 26.38L7.05 26.40L6.91 26.26Q3.76 26.24 2.39 27.72L2.47 27.79L2.32 27.65Q1.67 28.90 1.71 30.80L1.71 30.80L1.63 30.73Q1.76 33.75 2.75 37.52L2.85 37.62L2.87 37.64Q3.53 40.05 4.45 41.00L4.27 40.83L4.64 41.20L4.68 41.23Q5.99 44.14 11.43 44.37L11.38 44.32L11.26 44.20Q12.32 44.27 14.14 43.96L14.16 43.98L14.17 43.99Q14.46 46.90 15.07 49.19ZM11.84 32.25L11.66 32.08L11.64 32.06Q12.93 32.28 13.77 32.58L13.61 32.43L13.59 32.41Q13.91 33.07 14.02 33.68L13.96 33.61L14.03 33.69Q13.97 34.08 13.89 34.69L13.90 34.70L14.05 34.84Q13.98 36.68 12.95 37.98L12.91 37.93L12.89 37.91Q11.77 39.38 9.91 39.19L9.94 39.23L10.04 39.33Q8.72 39.30 7.77 38.88L7.74 38.85L7.67 38.78Q7.32 37.98 7.32 36.76L7.31 36.75L7.34 36.78Q7.23 36.37 7.23 36.06L7.34 36.17L7.40 36.23Q7.26 34.34 8.60 33.18L8.75 33.34L8.63 33.21Q9.98 32.07 11.73 32.14Z"/><path fill="#333" d="M106.39 40.27L106.26 40.15L106.23 40.12Q104.39 40.07 102.72 40.64L102.72 40.64L102.67 40.59Q103.28 37.05 103.39 33.93L103.34 33.88L103.38 33.92Q103.54 30.92 103.31 27.26L103.20 27.15L103.31 27.26Q101.80 26.78 101.04 26.40L101.05 26.41L100.82 23.55L100.76 23.49Q101.54 24.16 103.14 24.73L103.21 24.79L103.07 24.66Q102.82 22.51 102.40 19.77L102.46 19.82L102.54 19.91Q104.80 20.56 106.44 20.41L106.34 20.31L106.17 24.87L106.19 24.89Q107.63 24.85 108.97 24.35L109.01 24.39L108.93 24.31Q109.04 25.38 108.82 27.13L108.83 27.14L108.81 27.12Q107.18 27.36 106.15 27.36L106.15 27.36L106.21 27.42Q106.16 29.54 106.16 33.80L106.23 33.87L106.16 33.80Q106.13 37.92 106.21 40.09ZM109.34 23.74L109.43 23.83L109.39 23.78Q109.14 23.92 108.53 24.14L108.46 24.08L109.03 21.48L109.01 21.46Q108.21 21.77 106.80 22.00L106.73 21.92L106.79 21.98Q106.70 21.21 106.85 19.83L106.83 19.81L106.78 19.77Q106.25 19.92 105.68 19.92L105.77 20.01L105.72 19.96Q103.48 19.85 101.84 19.13L101.95 19.24L101.99 19.28Q102.42 21.69 102.69 24.16L102.67 24.15L102.69 24.16Q101.71 23.72 100.19 22.69L100.21 22.72L100.33 22.83Q100.69 24.14 100.92 26.85L100.87 26.80L100.93 26.85Q101.22 26.92 102.40 27.34L102.46 27.40L102.42 27.36Q102.51 28.06 102.55 29.47L102.54 29.46L102.87 29.44L103.01 29.51L103.16 29.66Q103.01 30.69 103.01 31.87L103.18 32.04L103.03 31.90Q103.16 36.97 102.36 41.31L102.27 41.22L102.28 41.22Q102.53 41.18 104.48 40.65L104.51 40.68L104.40 40.57Q104.54 41.36 104.43 42.73L104.28 42.59L104.42 42.73Q105.07 42.50 105.87 42.50L106.00 42.63L105.95 42.58Q107.70 42.62 109.34 43.19L109.30 43.15L109.41 43.26Q108.01 37.48 108.20 29.56L108.13 29.49L110.62 29.20L110.50 29.08Q110.72 28.31 110.79 27.28L110.75 27.23L110.85 25.13L110.98 25.26Q110.27 25.38 109.09 25.84L109.15 25.91L109.23 25.99Q109.49 24.61 109.41 24.26L109.38 24.23L109.41 24.26Q109.35 24.01 109.43 23.82Z"/><path fill="#111" d="M100.21 23.35L100.08 23.23L100.21 23.36Q98.46 19.24 92.25 19.43L92.30 19.48L92.17 19.35Q87.76 19.47 85.78 20.92L85.92 21.06L85.79 20.93Q83.33 22.62 83.33 26.73L83.34 26.74L83.38 28.65L83.43 28.69Q83.47 37.57 92.49 37.57L92.40 37.48L92.47 37.54Q94.52 37.54 96.00 36.74L96.00 36.73L96.07 36.80Q97.74 35.62 97.58 33.75L97.70 33.86L97.68 33.85Q97.53 31.79 93.83 30.87L93.73 30.77L91.91 30.89L91.81 30.80Q90.81 30.74 89.85 30.78L89.93 30.86L89.91 30.84Q89.84 29.81 89.80 27.91L89.92 28.03L89.95 28.05Q97.54 27.99 101.72 27.65L101.77 27.69L101.70 27.63Q101.63 28.44 101.63 29.24L101.67 29.27L101.76 29.36Q101.77 30.17 101.80 30.97L101.64 30.80L101.75 30.91Q100.58 30.85 100.58 30.85L100.56 30.82L100.67 30.94Q99.15 30.78 99.53 30.78L99.54 30.80L99.52 30.77Q100.75 32.54 101.13 34.52L101.03 34.42L101.16 34.55Q101.26 35.26 101.26 35.71L101.18 35.63L101.11 35.57Q101.18 40.28 92.39 40.28L92.46 40.35L92.35 40.25Q85.31 40.32 82.72 38.23L82.72 38.22L82.78 38.29Q80.79 35.91 80.79 30.85L80.75 30.82L80.71 30.78Q80.74 29.73 80.58 27.03L80.49 26.94L80.48 26.93Q80.32 24.56 80.36 23.19L80.44 23.27L80.55 23.38Q80.63 20.49 82.00 18.89L81.99 18.88L81.88 18.77Q84.59 16.87 89.46 16.68L89.44 16.66L92.03 16.51L92.12 16.60Q95.13 16.41 98.55 16.83L98.62 16.90L98.58 16.85Q102.21 17.21 103.16 20.45L103.20 20.48L103.31 20.60Q102.24 21.47 100.15 23.30ZM101.47 25.42L101.58 25.41L101.66 25.49Q102.82 24.37 104.69 22.39L104.78 22.48L104.65 22.35Q104.32 21.37 103.33 19.66L103.41 19.74L103.32 19.65Q102.27 17.12 98.46 16.47L98.50 16.51L98.50 16.51Q96.42 16.45 92.12 16.14L92.06 16.09L89.24 16.08L89.23 16.07Q84.07 16.28 81.48 18.26L81.51 18.28L81.53 18.31Q80.09 19.88 79.98 22.96L80.01 22.99L80.13 23.11Q80.14 22.67 80.37 28.15L80.43 28.21L80.27 28.05Q80.31 29.42 80.38 32.16L80.32 32.10L80.37 32.14Q80.52 36.56 82.27 38.50L82.27 38.50L82.34 38.57Q82.66 39.35 83.54 40.22L83.53 40.22L83.71 40.39Q86.50 42.16 92.02 42.50L92.12 42.60L95.02 42.80L95.01 42.79Q96.44 42.73 98.46 42.62L98.45 42.61L98.57 42.73Q100.03 42.67 102.12 42.13L102.01 42.02L102.11 42.12Q104.06 41.64 104.02 39.31L104.08 39.38L103.89 39.19Q104.04 38.07 102.97 35.29L102.92 35.24L103.02 35.34Q102.57 34.28 102.03 33.48L102.07 33.51L102.00 33.44Q102.62 33.50 103.80 33.69L103.88 33.77L103.91 33.80Q103.62 30.19 103.66 29.51L103.60 29.45L103.64 29.49Q103.27 29.50 102.85 29.46L102.77 29.38L102.88 29.49Q102.38 29.33 102.00 29.41L102.11 29.52L101.96 29.37Q102.12 28.43 102.19 27.36L102.15 27.32L102.07 27.24Q95.86 27.80 89.58 27.69L89.57 27.68L89.61 27.72Q89.69 28.68 89.69 29.59L89.54 29.44L89.59 31.23L89.56 31.21Q90.09 31.36 90.51 31.32L90.44 31.25L90.46 31.27Q90.85 31.24 91.31 31.24L91.28 31.22L91.30 31.24Q91.22 31.61 91.26 32.11L91.38 32.22L91.21 32.06Q91.34 32.65 91.30 33.14L91.28 33.12L91.25 33.09Q92.27 33.04 93.30 33.01L93.32 33.03L93.35 33.06Q94.42 33.10 95.45 33.14L95.51 33.20L95.47 33.16Q96.40 33.29 97.27 33.67L97.37 33.77L97.41 33.84L97.39 33.82Q97.51 35.31 95.83 36.23L95.81 36.20L95.90 36.29Q94.23 37.21 92.51 37.21L92.46 37.16L92.38 37.07Q88.64 37.18 86.20 35.42L86.15 35.37L86.08 35.31Q85.16 33.32 85.31 30.76L85.46 30.92L85.31 30.76Q85.75 26.11 87.60 24.11L87.55 24.06L87.57 24.08Q89.32 21.98 94.00 21.68L93.98 21.66L94.05 21.73Q97.76 21.56 99.70 23.34L99.67 23.31L99.67 23.32Q99.71 23.39 99.83 23.58L99.88 23.64L99.96 23.60L99.89 23.53Q100.51 24.26 101.08 25.37L101.14 25.43L101.49 25.44Z"/><path fill="#222" d="M115.96 14.85L115.87 14.76L115.99 14.87Q116.99 17.02 118.94 17.02L119.08 17.17L118.94 17.03Q119.41 17.00 119.83 16.85L119.97 16.99L119.92 16.94Q119.64 21.99 119.61 28.39L119.72 28.50L119.58 28.36Q119.74 34.81 119.93 40.06L119.83 39.95L119.82 39.95Q119.44 39.80 119.06 39.80L119.12 39.86L119.15 39.89Q117.67 39.78 116.26 41.64L116.39 41.77L116.37 41.75Q116.91 34.91 116.87 28.21L116.90 28.23L116.85 28.18Q116.84 21.51 115.92 14.81ZM115.71 42.69L115.82 42.80L115.72 42.70Q116.70 41.24 117.88 40.52L117.90 40.54L117.96 40.60Q117.80 41.43 117.72 42.49L117.82 42.59L117.72 42.49Q118.65 42.16 119.41 42.28L119.34 42.21L119.48 42.34Q121.44 42.48 122.81 45.25L122.82 45.27L122.80 45.25Q121.70 37.98 121.70 30.71L121.66 30.67L121.64 30.65Q121.64 23.11 122.44 15.99L122.45 16.00L122.40 15.96Q121.28 17.69 120.21 18.34L120.30 18.42L120.32 18.45Q120.26 17.66 120.37 16.29L120.38 16.30L120.38 16.29Q119.65 16.78 118.89 16.67L118.92 16.70L118.84 16.62Q116.41 16.28 115.38 13.39L115.37 13.38L115.54 13.55Q116.52 20.92 116.63 28.08L116.58 28.02L116.77 28.22Q116.70 35.19 115.71 42.69Z"/><path d="M20 28 C57 6,94 19,137 5" stroke="#666" fill="none"/><path fill="#222" d="M60.98 40.25L61.12 40.39L61.01 40.29Q59.61 40.37 58.05 39.95L58.19 40.09L58.10 40.00Q56.97 39.18 56.82 37.54L56.79 37.51L56.67 37.39Q56.78 37.35 56.97 34.72L56.81 34.56L56.87 34.62Q57.83 34.36 59.85 33.98L59.97 34.10L59.80 34.88L59.74 34.83Q59.55 36.65 60.96 37.23L60.95 37.22L60.90 37.16Q61.68 37.49 63.77 37.49L63.70 37.42L63.68 37.40Q65.45 37.41 65.64 37.34L65.47 37.17L65.64 37.34Q66.41 37.04 67.13 36.54L67.25 36.67L67.11 36.53Q68.57 35.62 68.38 33.53L68.37 33.52L68.48 33.63Q68.26 31.17 66.53 29.61L66.49 29.57L66.48 29.56Q64.74 27.99 62.27 27.99L62.34 28.07L62.26 27.75L62.31 27.81Q62.73 27.81 63.61 27.73L63.50 27.62L63.63 27.75Q65.46 27.57 66.83 26.33L66.74 26.24L66.78 26.28Q68.25 25.14 68.40 23.27L68.24 23.11L68.41 23.28Q68.41 22.86 68.41 22.52L68.51 22.62L68.35 22.46Q68.34 20.93 66.97 20.02L67.11 20.16L67.11 20.16Q65.80 19.26 64.20 19.37L64.32 19.50L64.13 19.31Q62.95 19.27 61.73 19.69L61.69 19.65L61.71 19.66Q60.21 20.14 59.90 21.29L60.04 21.43L59.95 21.33Q59.81 22.14 59.88 22.90L59.86 22.88L59.88 22.90Q58.80 22.62 56.75 21.90L56.79 21.94L56.70 21.85Q56.61 20.32 56.65 19.48L56.49 19.32L56.60 19.43Q56.60 17.80 57.67 17.11L57.66 17.10L57.68 17.12Q59.07 16.50 60.67 16.50L60.69 16.52L60.73 16.55Q63.86 16.48 67.02 16.75L67.14 16.87L67.00 16.73Q72.18 17.26 71.87 21.03L71.79 20.95L71.84 21.00Q71.82 22.54 71.32 24.10L71.23 24.01L71.28 24.06Q70.42 27.20 68.06 28.11L67.90 27.95L68.09 28.14Q70.57 28.53 71.18 31.88L71.30 31.99L71.28 31.97Q71.51 33.12 71.59 35.14L71.56 35.11L71.46 35.01Q71.71 39.57 67.11 40.03L67.17 40.09L67.10 40.02Q66.43 40.15 61.14 40.41ZM66.26 42.56L66.37 42.68L66.32 42.63Q66.94 42.67 69.80 42.75L69.75 42.71L69.81 42.76Q71.51 42.79 73.15 42.14L73.15 42.15L73.04 42.04Q74.23 41.10 74.04 39.34L74.05 39.36L74.09 39.40Q74.04 38.13 73.74 36.37L73.80 36.44L73.79 36.42Q72.97 31.84 71.03 30.21L71.05 30.23L70.87 29.85L70.87 29.81L70.84 29.79Q72.59 28.34 73.35 23.96L73.40 24.01L73.36 23.97Q73.40 23.51 73.51 22.56L73.52 22.57L73.44 22.48Q73.54 21.75 73.46 21.06L73.45 21.05L73.56 21.16Q73.33 19.41 72.03 18.72L72.09 18.78L71.91 18.67L72.00 18.76Q71.56 17.63 70.41 17.10L70.45 17.14L70.48 17.16Q68.93 16.46 63.80 16.15L63.94 16.30L63.77 16.13Q62.19 16.15 60.59 16.15L60.63 16.19L60.62 16.18Q58.88 16.03 57.35 16.68L57.48 16.81L57.51 16.83Q56.20 17.50 56.20 19.25L56.28 19.34L56.13 19.19Q56.19 18.83 56.45 22.18L56.50 22.22L56.56 22.28Q56.73 22.22 58.37 22.83L58.50 22.97L58.44 22.91Q58.47 23.47 58.43 23.96L58.44 23.97L58.37 23.91Q58.43 24.46 58.47 24.99L58.45 24.97L58.39 24.91Q60.21 25.32 62.22 25.43L62.25 25.46L62.17 25.38Q62.13 23.40 63.23 22.56L63.29 22.61L63.18 22.50Q64.10 21.94 66.12 21.71L66.17 21.76L66.14 21.73Q67.34 21.80 67.92 21.99L67.93 22.01L67.84 21.91Q67.78 21.93 67.82 22.05L67.84 22.06L67.85 22.27L68.13 23.00L67.93 22.81Q68.08 23.14 68.04 23.29L67.96 23.21L67.99 23.25Q67.88 24.92 66.35 26.10L66.43 26.17L66.46 26.20Q65.48 27.05 63.46 27.24L63.37 27.15L63.49 27.27Q62.65 27.31 61.78 27.31L61.90 27.43L61.85 27.38Q61.96 27.80 62.12 28.49L62.07 28.43L61.98 28.35Q63.87 28.48 65.31 29.21L65.22 29.11L65.23 29.24L63.52 29.28L63.51 29.27Q63.55 29.61 63.66 30.22L63.76 30.31L63.67 30.23Q65.89 30.24 67.60 31.57L67.66 31.63L67.54 31.51Q67.89 32.01 68.19 33.65L68.16 33.61L68.04 33.50Q68.38 36.58 65.45 37.00L65.30 36.85L65.31 36.86Q63.36 37.27 62.79 37.23L62.62 37.06L62.72 37.16Q62.18 36.96 61.64 36.88L61.73 36.97L61.80 36.59L61.90 36.11L61.96 35.75L61.97 35.42L61.89 35.34Q60.93 35.41 60.13 35.60L60.20 35.67L60.23 35.70Q60.21 35.49 60.21 35.30L60.18 35.26L60.18 35.26Q60.15 35.01 60.15 34.78L60.24 34.87L60.07 34.70Q60.10 34.27 60.25 33.55L60.28 33.58L60.33 33.62Q58.51 33.90 56.64 34.24L56.53 34.13L56.62 34.22Q56.60 34.69 56.48 35.81L56.47 35.80L56.52 35.85Q56.29 36.86 56.29 37.46L56.33 37.50L56.40 37.58Q56.55 39.70 57.92 40.46L57.92 40.47L57.80 40.35Q59.34 42.69 64.06 42.50L64.13 42.56L64.08 42.52Q64.84 42.51 66.36 42.66Z"/><path fill="#444" d="M138.31 28.75L138.18 28.62L132.44 28.85L132.32 28.73Q129.36 28.75 126.43 28.67L126.55 28.78L126.56 28.80Q126.66 35.49 124.61 41.01L124.50 40.89L124.64 41.03Q122.76 41.48 121.01 42.16L120.90 42.05L121.05 42.20Q123.84 36.51 123.84 29.85L123.84 29.84L123.71 29.71Q123.81 21.33 119.70 14.29L119.61 14.19L119.67 14.25Q121.13 14.99 123.61 15.79L123.56 15.75L123.67 15.86Q125.72 20.84 126.25 25.71L126.30 25.76L126.21 25.67Q129.56 26.24 132.42 26.20L132.27 26.06L132.46 26.24Q134.92 26.04 138.23 25.78L138.38 25.92L138.34 25.88Q138.72 21.39 140.47 16.29L140.63 16.44L140.58 16.40Q142.40 15.85 144.64 15.02L144.77 15.14L144.75 15.13Q141.06 21.79 141.06 29.74L141.03 29.71L141.03 29.72Q141.16 36.05 143.52 41.37L143.51 41.37L143.46 41.32Q141.97 40.82 139.91 40.51L139.86 40.46L139.91 40.51Q138.12 35.37 138.23 28.67ZM139.50 40.71L139.50 40.71L139.60 40.81Q140.59 40.92 141.69 41.19L141.78 41.27L141.59 41.08Q141.95 41.83 142.60 43.32L142.72 43.43L142.62 43.34Q146.00 44.32 147.79 45.23L147.81 45.25L147.76 45.20Q143.28 39.01 142.98 30.75L143.14 30.92L143.12 30.89Q142.74 22.79 146.40 15.97L146.41 15.98L145.34 16.43L145.35 16.44Q144.90 16.72 144.29 16.87L144.17 16.75L144.32 16.90Q144.56 15.93 145.40 14.37L145.40 14.36L145.43 14.39Q142.76 15.42 140.13 15.91L140.15 15.92L140.24 16.02Q138.46 20.75 138.01 25.43L138.03 25.46L138.14 25.57Q135.59 25.72 133.15 25.72L133.24 25.80L133.06 25.63Q130.84 25.81 128.33 25.65L128.28 25.61L128.15 25.48Q127.96 22.24 126.86 18.17L126.92 18.23L126.90 18.21Q126.29 18.17 124.84 17.79L124.73 17.67L124.75 17.70Q124.32 16.44 123.87 15.41L123.85 15.39L123.91 15.45Q121.13 14.65 118.84 13.39L118.87 13.42L118.94 13.49Q123.52 20.93 123.52 29.72L123.45 29.65L123.55 29.75Q123.47 36.63 120.35 42.76L120.35 42.77L120.36 42.77Q121.13 42.56 122.46 41.99L122.35 41.87L122.35 41.87Q121.98 42.68 121.18 44.20L121.28 44.30L121.21 44.23Q124.07 43.29 126.32 42.87L126.39 42.94L126.40 42.95Q128.18 37.30 128.37 31.14L128.45 31.22L128.47 31.24Q129.92 31.01 133.12 30.97L133.27 31.13L133.28 31.14Q136.08 31.05 137.99 31.13L138.02 31.16L138.01 31.15Q138.19 36.81 139.52 40.73Z"/></svg>