<svg xmlns="http://www.w3.org/2000/svg" width="150" height="50" viewBox="0,0,150,50"><path fill="#222" d="M131.35 29.70L131.30 29.65L131.36 29.72Q127.22 29.58 126.65 32.62L126.63 32.60L126.70 32.67Q126.50 33.72 126.69 34.60L126.65 34.56L126.52 34.43Q126.53 35.20 126.98 36.60L126.97 36.59L127.08 36.71Q128.13 39.85 131.44 39.69L131.45 39.70L131.44 39.69Q133.48 39.79 134.81 38.23L134.80 38.22L134.78 38.19Q136.03 36.75 136.03 34.69L136.10 34.76L136.01 34.67Q136.27 34.20 136.12 33.14L136.10 33.12L136.02 33.04Q135.99 32.17 135.57 31.49L135.64 31.56L135.56 31.48Q133.95 29.83 131.37 29.72ZM136.32 48.30L136.27 48.25L136.32 48.30Q134.31 48.69 126.24 49.07L126.27 49.10L126.30 49.13Q124.63 49.22 123.00 48.38L122.92 48.30L123.01 48.40Q123.74 47.33 125.56 45.54L125.65 45.63L125.70 45.68Q127.99 46.60 130.09 46.41L130.18 46.50L130.24 46.56Q133.05 46.22 133.89 45.95L133.86 45.92L133.93 45.99Q136.17 45.30 136.17 43.51L136.03 43.37L136.05 43.39Q136.05 43.16 135.97 42.93L136.15 43.10L135.94 41.42L135.94 41.41Q135.93 40.64 135.93 39.84L135.91 39.83L136.00 39.91Q134.60 42.13 131.21 42.13L131.13 42.05L131.26 42.17Q127.24 42.04 125.61 39.83L125.69 39.92L125.69 39.92Q124.49 38.30 123.69 33.89L123.79 33.98L123.71 33.91Q123.47 32.44 123.47 31.03L123.46 31.03L123.49 31.06Q123.50 29.28 124.41 28.29L124.29 28.16L124.36 28.23Q126.02 26.81 130.66 26.81L130.59 26.74L132.43 27.02L132.34 26.93Q135.67 27.40 137.01 29.35L136.92 29.26L136.99 29.33Q137.20 28.51 137.62 26.87L137.63 26.89L137.61 26.86Q139.50 26.54 141.25 25.82L141.12 25.69L141.18 25.75Q138.41 31.74 138.41 38.97L138.43 39.00L138.40 38.96Q138.54 41.76 138.92 44.39L138.85 44.32L138.81 44.28Q139.14 45.11 139.07 45.80L138.98 45.71L138.94 45.67Q138.83 47.12 137.61 47.88L137.53 47.80L137.65 47.92Q137.14 48.17 136.30 48.29ZM139.26 51.21L139.13 51.07L139.26 51.20Q140.60 51.14 141.36 50.19L141.37 50.19L141.45 50.27Q141.76 49.29 141.65 48.56L141.69 48.61L141.67 48.59Q141.52 47.91 141.33 47.15L141.38 47.19L141.45 47.27Q140.26 42.07 140.60 36.82L140.57 36.79L140.58 36.80Q140.90 31.33 143.03 26.50L142.92 26.39L140.97 27.49L140.79 27.30Q141.19 26.87 141.42 26.30L141.39 26.27L141.90 25.14L141.76 25.00Q139.49 26.05 137.29 26.47L137.22 26.40L137.21 26.39Q136.94 27.30 136.78 28.32L136.89 28.43L136.79 28.33Q134.59 26.32 130.55 26.32L130.71 26.48L128.91 26.42L128.89 26.40Q125.69 26.44 124.01 27.85L123.90 27.74L123.95 27.79Q122.98 28.72 123.01 30.62L123.18 30.79L123.02 30.63Q123.12 33.16 124.15 37.42L124.21 37.49L124.26 37.54Q124.75 39.47 125.97 40.88L125.86 40.77L126.17 41.09L126.30 41.21L126.23 41.14Q127.34 43.44 129.93 43.97L129.99 44.03L129.86 43.90Q131.27 44.20 132.72 44.24L132.81 44.34L132.74 44.26Q134.50 44.31 135.57 43.93L135.56 43.93L135.61 43.98Q135.02 45.56 132.36 45.90L132.33 45.87L132.41 45.96Q131.32 46.08 130.64 46.08L130.68 46.13L130.14 45.97L130.25 46.08Q127.42 46.07 125.75 45.11L125.80 45.17L124.02 46.82L124.01 46.80Q123.18 47.65 122.34 48.60L122.26 48.52L122.35 48.61Q123.27 49.07 124.26 49.26L124.42 49.42L123.50 50.26L123.52 50.27Q126.25 51.36 131.88 51.36L131.82 51.30L132.06 51.31L131.93 51.18Q135.54 51.18 139.12 51.06ZM133.25 32.02L133.21 31.99L133.25 32.02Q134.48 31.88 135.40 32.30L135.47 32.38L135.50 32.41Q135.74 32.95 135.81 33.64L135.70 33.52L135.77 33.59Q135.76 33.85 135.73 34.77L135.69 34.73L135.80 34.84Q135.58 36.60 134.48 37.89L134.50 37.91L134.52 37.94Q133.38 39.39 131.48 39.35L131.42 39.29L131.56 39.43Q129.94 39.18 129.10 38.77L129.12 38.78L129.16 38.82Q128.89 37.79 128.85 36.76L128.74 36.65L128.77 36.68Q128.56 32.25 133.17 31.94Z"/><path fill="#333" d="M77.11 29.84L77.14 29.87L77.22 29.95Q76.94 29.90 76.64 29.90L76.57 29.83L76.67 29.93Q75.31 29.90 73.86 30.74L73.83 30.71L73.76 30.63Q72.51 31.82 72.51 33.72L72.49 33.70L72.48 33.69Q72.56 37.20 74.09 38.54L74.01 38.46L73.91 38.36Q74.96 39.64 77.25 39.64L77.20 39.59L77.26 39.66Q77.43 39.59 77.73 39.59L77.79 39.65L77.85 39.71Q79.51 39.66 80.65 38.02L80.68 38.05L80.74 38.11Q81.62 36.44 81.54 34.65L81.64 34.74L81.69 34.80Q81.70 34.27 81.70 33.85L81.58 33.73L81.66 33.81Q81.67 32.03 80.30 30.87L80.29 30.86L80.28 30.85Q79.02 29.80 77.23 29.96ZM81.74 40.14L81.55 39.95L81.61 40.01Q80.60 41.93 76.87 42.05L76.91 42.08L76.97 42.15Q73.45 42.12 71.85 40.53L71.85 40.52L71.92 40.59Q70.52 38.89 69.72 34.10L69.69 34.06L69.56 33.93Q69.33 32.26 69.33 31.00L69.34 31.01L69.26 30.93Q69.29 29.17 70.01 28.11L70.01 28.10L70.08 28.17Q71.38 26.73 74.35 26.73L74.49 26.87L74.48 26.86Q80.80 26.86 82.70 29.45L82.54 29.29L82.70 29.44Q82.78 28.54 83.20 26.94L83.32 27.06L83.27 27.01Q84.51 26.69 86.95 25.89L86.91 25.85L87.03 25.97Q84.47 31.49 84.24 37.81L84.26 37.82L84.27 37.84Q83.97 43.93 86.10 49.75L86.08 49.73L86.24 49.89Q84.51 49.27 82.72 49.00L82.58 48.85L82.63 48.91Q81.85 45.08 81.74 40.14ZM82.40 49.25L82.36 49.21L82.38 49.23Q83.19 49.47 84.60 49.77L84.52 49.69L84.59 49.77Q84.67 50.34 85.24 51.74L85.34 51.84L85.28 51.78Q87.90 52.54 90.18 53.83L90.26 53.91L90.24 53.89Q86.14 47.24 86.14 38.71L86.09 38.67L86.17 38.74Q86.14 32.35 88.61 26.57L88.59 26.54L88.72 26.68Q87.87 26.82 86.50 27.46L86.67 27.63L86.61 27.57Q86.99 26.85 87.64 25.28L87.61 25.26L87.57 25.22Q85.96 25.70 82.76 26.58L82.89 26.71L82.73 26.55Q82.80 27.30 82.49 28.48L82.40 28.38L82.35 28.34Q80.47 26.57 74.34 26.42L74.27 26.34L74.31 26.39Q71.09 26.29 69.72 27.78L69.72 27.77L69.66 27.71Q68.99 28.95 69.03 30.85L69.00 30.82L68.88 30.70Q68.98 33.70 69.97 37.47L70.15 37.65L69.97 37.46Q70.63 39.88 71.54 40.83L71.64 40.92L72.10 41.38L72.01 41.30Q73.25 44.14 78.70 44.37L78.68 44.35L78.72 44.39Q79.58 44.26 81.40 43.95L81.45 43.99L81.56 44.11Q81.87 47.04 82.48 49.33ZM79.09 32.23L79.10 32.24L78.97 32.12Q80.05 32.13 80.89 32.43L80.90 32.44L80.93 32.48Q81.11 33.00 81.23 33.61L81.25 33.63L81.19 33.57Q81.43 34.26 81.35 34.87L81.26 34.78L81.21 34.73Q81.22 36.65 80.19 37.94L80.21 37.96L80.29 38.04Q79.08 39.42 77.22 39.23L77.24 39.26L77.20 39.21Q75.86 39.17 74.91 38.75L75.02 38.86L75.07 38.91Q74.62 38.00 74.62 36.78L74.69 36.86L74.60 36.76Q74.53 36.39 74.53 36.08L74.62 36.17L74.67 36.23Q74.59 34.39 75.92 33.23L75.93 33.24L76.02 33.33Q77.30 32.12 79.05 32.20Z"/><path fill="#333" d="M62.08 14.78L62.12 14.82L62.04 14.74Q63.34 17.18 65.28 17.18L65.23 17.14L65.23 17.13Q65.65 17.06 66.07 16.91L66.11 16.94L66.17 17.00Q65.82 21.98 65.78 28.38L65.85 28.45L65.89 28.49Q65.91 34.80 66.11 40.05L65.95 39.90L65.93 39.88Q65.58 39.76 65.20 39.76L65.21 39.76L65.23 39.79Q63.81 39.74 62.40 41.60L62.46 41.66L62.42 41.62Q63.16 34.97 63.12 28.27L63.06 28.21L63.16 28.31Q63.07 21.56 62.15 14.86ZM62.07 42.86L61.97 42.76L62.00 42.80Q62.80 41.16 63.98 40.44L64.12 40.58L64.17 40.63Q64.13 41.58 64.06 42.65L64.10 42.69L63.98 42.57Q64.72 42.05 65.48 42.16L65.56 42.25L65.53 42.22Q67.62 42.48 68.99 45.25L69.01 45.28L68.91 45.18Q67.75 37.85 67.75 30.58L67.87 30.70L67.85 30.68Q67.85 23.14 68.65 16.02L68.55 15.92L68.53 15.90Q67.44 17.67 66.37 18.31L66.57 18.51L66.54 18.48Q66.48 17.70 66.60 16.33L66.68 16.41L66.52 16.26Q65.88 16.84 65.12 16.72L65.03 16.63L65.09 16.69Q62.57 16.27 61.55 13.37L61.66 13.49L61.56 13.38Q62.78 21.00 62.89 28.16L62.86 28.12L62.87 28.13Q62.91 35.22 61.92 42.72Z"/><path fill="#111" d="M49.84 39.93L49.91 39.99L49.83 39.92Q45.73 39.43 43.91 37.99L43.90 37.98L43.74 37.82Q41.99 36.45 41.57 33.44L41.54 33.42L41.65 33.52Q41.62 33.15 41.28 28.39L41.29 28.40L41.22 28.34Q41.21 27.11 41.14 25.85L41.11 25.82L41.23 25.95Q41.00 20.84 43.21 19.09L43.16 19.04L43.14 19.02Q45.89 17.02 53.66 16.33L53.55 16.23L53.66 16.34Q54.92 16.11 56.56 16.15L56.57 16.16L56.59 16.18Q56.66 16.25 59.63 16.25L59.49 16.11L59.49 16.11Q60.36 16.14 62.07 16.29L62.16 16.38L62.20 16.42Q61.69 17.36 60.67 20.45L60.68 20.46L60.70 20.48Q58.60 19.26 55.59 19.26L55.48 19.15L55.56 19.23Q54.80 19.22 54.00 19.30L54.05 19.35L53.86 19.16Q48.91 19.77 46.40 21.75L46.33 21.68L46.42 21.77Q44.39 23.36 44.24 26.71L44.10 26.57L44.27 26.74Q44.07 27.18 44.10 28.44L44.25 28.59L44.21 28.55Q44.24 33.29 46.64 35.39L46.76 35.51L46.68 35.43Q48.89 37.41 53.87 37.71L53.88 37.72L53.78 37.62Q56.95 37.82 59.96 36.03L59.98 36.05L60.06 36.14Q60.65 38.86 61.26 40.23L61.14 40.11L61.24 40.20Q59.00 40.33 57.36 40.29L57.44 40.37L57.55 40.47Q52.98 40.32 49.86 39.94ZM65.04 43.74L64.90 43.60L65.05 43.75Q63.23 40.71 62.54 38.12L62.39 37.97L62.57 38.15Q62.01 38.27 61.02 38.65L61.11 38.74L61.11 38.74Q60.64 37.82 60.45 36.98L60.52 37.05L60.16 35.36L60.11 35.31Q56.90 37.43 53.78 37.31L53.85 37.39L53.67 37.21Q49.57 37.18 47.25 35.43L47.26 35.44L47.19 35.37Q45.96 33.45 46.03 30.52L46.17 30.66L46.11 30.59Q46.20 26.04 48.67 23.91L48.77 24.01L48.83 24.06Q50.91 22.11 55.59 21.50L55.52 21.43L55.61 21.52Q56.42 21.41 57.14 21.41L57.09 21.36L57.08 21.35Q59.79 21.28 61.88 22.80L61.91 22.83L61.95 22.87Q62.46 20.75 63.67 17.52L63.75 17.59L63.68 17.52Q63.41 17.52 62.86 17.46L62.74 17.35L62.93 17.53Q62.34 17.44 62.07 17.44L62.00 17.36L62.02 17.39Q62.16 16.80 62.62 15.81L62.61 15.81L62.59 15.78Q62.38 15.80 59.89 15.73L59.88 15.72L59.95 15.79Q57.40 15.66 56.75 15.70L56.90 15.84L56.85 15.79Q46.36 16.15 42.89 18.74L42.89 18.74L42.78 18.63Q40.77 20.46 40.77 24.38L40.84 24.45L40.77 24.38Q40.73 25.44 40.84 28.15L41.00 28.31L40.91 28.21Q41.04 31.77 41.27 33.49L41.28 33.49L41.34 33.55Q41.58 36.54 43.18 38.06L43.28 38.16L43.27 38.15Q43.80 38.87 45.05 40.01L45.01 39.96L44.92 39.88Q48.37 41.84 53.63 42.61L53.60 42.58L53.48 42.46Q60.01 43.51 65.00 43.70Z"/><path fill="#444" d="M88.50 19.34L88.52 19.36L88.55 19.38Q89.30 23.52 89.45 27.10L89.59 27.24L89.55 27.20Q90.64 27.27 91.71 27.27L91.78 27.34L93.87 27.22L93.88 27.23Q94.95 27.23 95.82 25.82L95.78 25.78L95.84 25.84Q96.43 24.53 96.55 23.35L96.56 23.37L96.69 23.49Q96.99 20.40 92.76 19.91L92.72 19.87L92.85 19.99Q91.07 19.85 88.44 19.28ZM89.51 29.90L89.64 30.03L89.58 29.97Q89.40 36.07 88.26 40.49L88.25 40.48L88.32 40.55Q86.94 41.04 84.62 42.10L84.64 42.12L84.62 42.10Q86.89 35.35 86.62 28.08L86.68 28.14L86.67 28.13Q86.39 20.77 83.61 14.33L83.51 14.23L83.60 14.32Q87.73 17.08 93.97 17.08L93.98 17.09L94.02 17.13Q100.06 17.12 100.22 20.58L100.23 20.60L100.27 20.63Q100.27 23.00 99.28 25.66L99.27 25.65L99.34 25.72Q98.91 26.81 97.96 28.03L97.82 27.90L97.95 28.03Q96.54 29.54 93.98 29.81L94.13 29.95L94.07 29.90Q91.75 29.85 89.50 29.89ZM95.78 32.29L95.72 32.23L95.78 32.29Q99.89 32.47 101.14 27.68L101.09 27.63L101.01 27.54Q102.02 23.95 101.86 21.93L101.82 21.88L101.82 21.88Q101.75 20.41 100.99 19.42L101.10 19.53L101.01 19.44Q100.62 19.05 100.13 18.82L100.17 18.87L100.25 18.94Q100.27 18.81 99.66 18.05L99.54 17.93L99.50 17.89Q97.99 16.60 94.03 16.60L94.01 16.58L94.00 16.57Q87.15 16.62 82.93 13.46L82.91 13.45L82.84 13.37Q86.14 20.59 86.40 28.05L86.43 28.08L86.28 27.93Q86.73 35.77 84.07 42.85L84.09 42.87L83.99 42.77Q85.13 42.19 86.12 41.81L85.99 41.68L85.74 42.96L85.58 42.80Q85.58 43.56 85.31 44.13L85.17 43.98L85.15 43.97Q87.68 43.03 90.57 42.50L90.59 42.52L90.51 42.44Q91.33 36.90 91.41 32.18L91.42 32.20L91.37 32.14Q92.57 32.16 93.56 32.16L93.47 32.08L93.64 32.25Q94.86 32.14 95.66 32.17ZM94.67 22.20L94.73 22.26L94.75 22.28Q95.26 22.29 96.25 22.52L96.13 22.39L96.26 22.52Q96.40 22.79 96.44 23.09L96.37 23.02L96.35 23.00Q96.33 23.21 96.25 23.47L96.42 23.64L96.30 23.52Q96.27 24.82 95.54 25.69L95.51 25.67L95.58 25.73Q94.88 26.67 93.85 26.86L93.83 26.84L93.95 26.96Q93.09 26.82 91.45 26.82L91.59 26.95L91.49 26.86Q91.45 24.57 91.22 22.21L91.27 22.26L93.03 22.35L92.92 22.23Q93.80 22.28 94.68 22.20Z"/><path fill="#333" d="M30.39 14.25L30.49 14.35L30.50 14.35Q33.04 16.05 34.79 16.47L34.79 16.47L34.85 16.53Q36.00 22.86 36.00 29.45L36.09 29.54L36.02 29.47Q36.16 33.60 35.62 37.60L35.61 37.59L35.62 37.60Q37.78 37.06 40.26 37.13L40.23 37.11L40.22 37.09Q42.65 37.13 44.79 37.85L44.77 37.84L44.86 37.93Q45.09 39.38 45.55 40.94L45.54 40.93L45.69 41.08Q42.16 39.57 38.32 39.84L38.32 39.84L38.29 39.81Q34.58 40.21 31.35 42.12L31.19 41.96L31.28 42.05Q33.55 35.26 33.28 28.26L33.22 28.19L33.19 28.17Q32.90 21.06 30.47 14.32ZM30.80 42.83L30.66 42.69L30.70 42.72Q31.36 42.32 32.73 41.60L32.71 41.58L32.81 41.68Q32.72 42.50 32.19 43.99L32.19 43.99L32.11 43.91Q35.65 42.23 39.49 42.23L39.49 42.23L39.61 42.34Q45.22 42.33 49.33 45.37L49.26 45.30L49.18 45.22Q48.47 43.67 47.45 40.71L47.55 40.81L47.62 40.88Q46.48 40.16 45.61 39.78L45.51 39.68L45.65 39.82Q45.36 38.96 45.06 37.55L45.07 37.57L45.09 37.58Q42.45 36.66 39.44 36.66L39.46 36.68L39.54 36.76Q38.83 36.81 38.03 36.85L37.93 36.75L38.04 36.86Q38.24 31.88 38.16 27.77L38.22 27.83L38.18 27.79Q37.99 23.56 37.65 18.57L37.72 18.65L37.77 18.69Q36.24 18.46 35.44 18.27L35.51 18.34L35.40 18.22Q35.42 17.64 35.19 16.23L35.18 16.22L35.14 16.18Q32.05 15.37 29.80 13.43L29.75 13.37L29.80 13.42Q32.65 20.62 32.92 28.12L32.81 28.01L32.90 28.10Q33.15 35.62 30.75 42.78Z"/><path fill="#333" d="M27.76 27.11L27.89 27.23L27.82 27.17Q28.55 27.10 29.96 26.95L29.98 26.97L30.11 27.10Q29.99 27.66 29.99 28.31L30.09 28.41L29.99 29.57L30.06 29.63Q29.15 29.56 28.31 29.64L28.25 29.58L28.30 29.63Q27.49 29.69 26.65 29.65L26.61 29.61L26.59 29.59Q23.83 35.86 20.41 40.47L20.46 40.51L20.29 40.35Q17.82 41.04 16.53 41.65L16.53 41.65L16.46 41.58Q20.62 35.92 23.67 29.64L23.68 29.65L21.13 29.73L21.14 29.74Q21.15 28.41 21.03 27.08L20.90 26.95L21.05 27.10Q22.83 27.13 24.89 27.13L24.97 27.21L26.81 23.46L26.78 23.42Q27.80 21.55 29.02 19.95L28.96 19.89L29.01 19.94Q27.41 20.05 25.81 20.05L25.88 20.12L25.92 20.16Q19.73 20.07 15.96 17.86L15.98 17.88L15.47 16.30L15.47 16.30Q14.98 15.31 14.60 14.44L14.74 14.58L14.60 14.45Q19.03 17.16 24.74 17.39L24.67 17.32L24.61 17.26Q29.83 17.57 34.97 15.59L35.00 15.62L35.06 15.68Q34.73 15.96 34.24 16.83L34.24 16.84L34.24 16.83Q30.63 21.60 27.78 27.12ZM35.90 18.27L35.96 18.33L36.95 16.31L36.87 16.23Q35.86 16.66 34.18 17.39L34.28 17.49L34.45 17.16L34.52 17.23Q34.66 17.10 34.77 16.99L34.65 16.87L34.69 16.91Q35.01 16.16 35.73 14.83L35.77 14.87L35.71 14.80Q30.45 17.16 24.70 16.93L24.66 16.89L24.67 16.89Q18.60 16.58 13.84 13.61L14.01 13.78L13.94 13.71Q15.00 15.60 15.83 18.26L15.71 18.14L15.73 18.16Q16.89 18.87 17.69 19.17L17.65 19.13L17.77 19.25Q17.90 19.57 18.36 21.44L18.40 21.48L18.33 21.41Q21.42 22.60 26.94 22.44L27.04 22.54L27.05 22.55Q26.77 23.14 24.79 26.91L24.70 26.83L24.78 26.91Q22.66 26.84 20.68 26.65L20.61 26.58L20.71 26.69Q20.74 27.48 20.74 28.35L20.70 28.31L20.66 29.98L22.35 30.00L22.35 31.40L22.45 31.51Q18.58 38.94 15.80 42.52L15.66 42.38L15.65 42.37Q17.23 41.59 18.87 41.09L18.92 41.15L18.92 41.15Q18.30 42.13 16.93 43.84L16.98 43.89L16.88 43.79Q20.00 42.64 22.43 42.41L22.46 42.44L22.53 42.51Q25.50 38.78 28.62 32.00L28.63 32.01L32.02 32.16L31.91 32.06Q31.83 31.14 31.83 30.22L31.83 30.22L31.81 28.42L31.95 28.56Q31.55 28.42 31.00 28.46L31.01 28.47L31.01 28.47Q30.44 28.49 30.17 28.49L30.35 28.67L30.20 28.52Q30.26 28.47 30.30 28.32L30.25 28.26L30.21 27.96L30.22 27.96Q32.81 22.90 35.89 18.26Z"/><path fill="#222" d="M126.10 37.90L126.19 38.00L126.02 37.83Q126.41 38.91 126.95 40.92L126.96 40.94L126.89 40.87Q122.76 39.63 118.15 39.90L118.01 39.76L118.03 39.77Q113.53 40.11 109.53 42.09L109.61 42.17L109.48 42.04Q109.75 41.40 109.79 41.47L109.78 41.46L109.84 41.52Q113.49 37.49 117.42 33.07L117.49 33.15L117.55 33.20Q121.83 28.08 123.01 23.40L122.95 23.34L122.98 23.37Q123.55 21.73 122.28 20.55L122.27 20.55L122.24 20.51Q120.98 19.35 119.19 19.51L119.26 19.57L119.16 19.47Q118.87 19.49 118.53 19.49L118.50 19.46L118.53 19.49Q116.98 19.46 115.72 20.38L115.65 20.30L115.80 20.45Q114.49 21.81 114.72 24.47L114.56 24.32L114.69 24.45Q112.84 24.04 111.62 23.58L111.62 23.58L111.70 23.66Q111.49 22.23 111.41 20.79L111.42 20.79L111.35 20.73Q111.27 19.09 111.88 17.94L111.96 18.02L111.92 17.98Q113.77 16.67 117.12 16.67L116.96 16.51L118.72 16.52L118.80 16.59Q121.04 16.59 121.99 16.71L122.08 16.80L122.12 16.84Q126.37 17.16 126.63 19.60L126.58 19.55L126.68 19.65Q126.72 20.18 126.65 20.98L126.72 21.06L126.68 21.02Q126.66 21.68 126.51 22.37L126.50 22.36L126.43 22.29Q124.88 30.49 117.31 37.34L117.31 37.34L117.23 37.27Q118.66 37.13 120.03 37.13L120.01 37.11L120.05 37.15Q123.30 37.16 126.16 37.96ZM125.56 17.12L125.58 17.13L125.61 17.17Q123.99 16.50 122.28 16.42L122.21 16.35L118.87 16.25L118.80 16.18Q114.35 15.92 112.14 17.02L112.22 17.09L112.14 17.02Q111.14 18.45 111.14 20.51L111.05 20.43L111.06 20.43Q111.14 21.20 111.45 24.02L111.37 23.94L111.48 24.05Q111.93 24.20 113.11 24.50L113.16 24.55L113.12 25.54L113.15 25.57Q113.16 26.08 113.24 26.61L113.20 26.57L113.19 26.55Q114.46 26.68 116.93 26.91L116.96 26.94L116.85 26.83Q116.79 26.43 116.79 26.09L116.90 26.20L116.90 26.19Q116.83 24.30 118.05 22.95L117.98 22.88L118.12 23.02Q119.22 21.55 121.01 21.67L121.17 21.82L121.05 21.71Q121.87 21.80 122.63 21.95L122.54 21.86L122.59 21.91Q122.76 22.35 122.84 22.77L122.71 22.64L122.85 22.78Q122.89 23.20 122.81 23.54L122.65 23.38L122.79 23.52Q121.53 28.27 117.11 33.11L117.06 33.06L117.05 33.05Q114.85 35.22 109.41 41.28L109.42 41.30L109.41 41.28Q109.38 42.28 109.04 42.85L109.04 42.85L108.87 42.69Q110.58 41.92 112.11 41.39L112.12 41.41L112.12 41.41Q111.42 42.00 110.47 43.48L110.34 43.35L110.38 43.39Q110.29 43.76 110.17 44.10L110.22 44.15L110.13 44.06Q114.99 41.99 120.47 42.18L120.53 42.24L120.48 42.18Q126.24 42.43 130.81 44.79L130.77 44.75L129.86 42.69L129.85 42.68Q129.20 41.35 128.94 40.55L128.96 40.57L128.93 40.54Q128.07 40.00 126.86 39.58L126.92 39.64L126.88 39.60Q126.85 39.01 126.47 37.64L126.38 37.54L126.48 37.64Q124.19 36.99 121.91 36.80L121.89 36.79L122.01 36.90Q126.56 32.20 128.08 23.94L128.21 24.07L128.32 21.09L128.25 21.02Q128.28 19.34 127.06 18.65L126.91 18.51L126.90 18.53L127.04 18.67Q126.88 18.47 126.80 18.47L126.86 18.53L126.92 18.59Q126.58 17.64 125.48 17.03Z"/><path fill="#444" d="M9.75 28.64L9.77 28.66L9.71 28.60Q7.00 28.71 6.24 30.95L6.09 30.81L6.17 30.88Q5.97 31.64 5.85 32.28L5.73 32.16L5.86 32.29Q8.47 32.51 10.11 32.51L9.94 32.33L10.03 32.42Q11.66 32.42 14.25 32.30L14.29 32.35L14.29 32.35Q14.09 30.54 12.68 29.48L12.72 29.52L12.82 29.62Q11.46 28.57 9.67 28.57ZM9.82 41.20L9.79 41.17L9.81 41.19Q5.53 41.14 4.24 39.73L4.27 39.76L4.32 39.81Q3.27 38.27 3.12 34.99L3.22 35.09L3.18 35.05Q3.23 34.88 3.15 33.51L3.07 33.42L3.09 33.44Q2.99 31.17 2.99 30.45L3.03 30.49L2.99 30.44Q2.95 28.54 3.67 27.44L3.58 27.35L3.76 27.52Q5.07 26.01 8.04 26.01L7.99 25.97L9.56 25.98L9.55 25.96Q11.71 26.07 13.23 26.37L13.10 26.25L13.22 26.36Q15.15 26.70 16.14 27.91L16.26 28.03L16.31 28.08Q16.81 29.04 16.89 31.13L16.94 31.19L17.05 31.30Q16.91 32.30 16.95 34.47L16.93 34.45L17.01 34.53Q14.02 34.43 11.24 34.43L11.28 34.48L5.76 34.55L5.71 34.50Q5.95 39.00 10.02 38.77L9.91 38.66L9.99 38.74Q13.72 38.51 14.94 36.69L14.97 36.72L14.85 36.59Q15.89 37.30 17.49 38.48L17.39 38.38L17.35 38.34Q16.04 40.79 11.89 41.06L11.79 40.97L11.87 41.05Q11.19 41.12 9.82 41.20ZM12.08 43.50L12.19 43.61L12.21 43.62Q13.29 43.56 14.51 43.64L14.48 43.61L14.34 43.47Q19.31 43.65 20.23 40.87L20.25 40.89L20.39 41.04Q18.67 39.70 17.57 38.94L17.51 38.88L17.65 39.01Q17.75 38.54 17.94 38.31L17.99 38.37L18.03 38.40Q17.16 37.81 15.79 36.86L15.86 36.93L15.77 36.83Q16.96 36.99 19.01 37.30L19.00 37.28L19.04 37.33Q18.92 36.02 18.84 35.34L18.74 35.23L18.68 33.38L18.53 33.24Q18.39 30.89 17.74 29.40L17.74 29.40L17.71 29.37Q17.47 29.05 16.90 28.44L17.05 28.59L16.99 28.54Q16.84 28.23 16.61 27.66L16.53 27.58L16.48 27.53Q14.71 25.61 9.64 25.61L9.51 25.47L7.84 25.47L7.92 25.56Q4.72 25.59 3.27 27.08L3.28 27.08L3.26 27.06Q2.66 28.25 2.70 30.31L2.58 30.19L2.53 30.14Q2.77 31.29 2.88 33.54L2.79 33.44L2.78 33.44Q2.84 35.02 2.96 37.08L3.02 37.14L2.92 37.04Q3.34 39.44 4.22 40.51L4.14 40.43L4.18 40.47Q4.34 40.63 4.53 40.75L4.51 40.73L4.72 41.28L4.68 41.24Q5.44 43.06 12.02 43.44ZM10.06 38.40L9.91 38.24L10.05 38.38Q8.78 38.37 7.86 37.91L7.87 37.91L7.93 37.98Q7.94 37.65 7.75 36.96L7.72 36.93L7.62 36.83Q9.30 36.72 10.90 36.72L10.88 36.70L10.88 36.70Q12.52 36.67 14.19 36.78L14.39 36.98L14.37 36.96Q13.01 38.22 10.00 38.34ZM11.65 31.00L11.55 30.90L11.54 30.89Q12.21 30.95 13.54 31.33L13.58 31.37L13.82 31.80L13.75 31.92L13.86 32.03Q12.48 32.13 11.56 32.09L11.47 32.00L11.53 32.06Q9.23 32.00 9.19 32.00L9.19 32.00L9.17 31.98Q9.99 31.13 11.67 31.02Z"/><path fill="#333" d="M111.62 21.54L111.61 21.53L111.49 21.41Q110.04 20.26 108.40 19.88L108.31 19.79L108.24 19.72Q107.22 19.54 104.44 19.50L104.46 19.52L104.43 19.49Q99.32 19.52 97.26 21.53L97.19 21.46L97.15 21.43Q95.58 23.05 95.70 26.75L95.65 26.70L95.73 26.78Q95.69 30.40 95.85 31.35L95.96 31.47L95.89 31.39Q96.99 37.52 104.72 37.52L104.81 37.61L104.82 37.62Q109.34 37.45 111.43 35.06L111.41 35.04L111.42 35.04Q113.49 33.04 113.72 28.28L113.58 28.14L113.57 28.14Q113.81 23.31 111.49 21.41ZM104.61 40.41L104.75 40.56L104.61 40.42Q98.21 40.68 95.24 38.32L95.23 38.31L95.15 38.23Q93.17 36.17 93.06 31.11L93.04 31.10L93.01 31.07Q92.91 30.46 92.75 27.19L92.90 27.33L92.88 27.32Q92.63 24.59 92.67 23.53L92.77 23.63L92.67 23.53Q92.81 20.66 94.22 18.95L94.33 19.06L94.21 18.94Q96.90 16.79 101.77 16.64L101.62 16.49L101.73 16.60Q103.37 16.42 104.25 16.45L104.33 16.54L104.30 16.50Q114.35 16.69 116.10 21.03L116.11 21.04L116.08 21.01Q116.79 22.94 116.64 25.68L116.71 25.75L116.63 25.67Q116.58 27.34 116.39 30.61L116.46 30.69L116.49 30.71Q116.20 33.43 115.29 35.49L115.37 35.57L115.37 35.57Q113.35 40.33 104.71 40.52ZM117.00 40.44L117.00 40.44L117.13 40.56Q118.44 38.72 118.56 35.63L118.51 35.59L118.57 35.65Q118.49 34.47 118.45 32.87L118.54 32.95L118.55 32.96Q118.60 32.29 118.56 30.46L118.60 30.50L118.54 30.44Q118.50 23.32 116.56 20.85L116.39 20.68L116.58 20.87Q116.04 19.72 114.94 18.62L115.02 18.69L114.98 18.65Q111.82 16.30 104.36 16.15L104.34 16.13L104.24 16.03Q96.90 15.96 93.85 18.55L93.88 18.57L93.87 18.57Q92.40 20.41 92.40 23.34L92.43 23.37L92.35 23.28Q92.33 24.56 92.48 25.89L92.49 25.90L92.52 25.93Q92.55 27.02 92.59 28.47L92.61 28.49L92.62 28.51Q92.60 32.29 92.75 33.47L92.77 33.49L92.91 33.63Q93.19 36.46 94.52 38.25L94.62 38.35L94.48 38.21Q94.98 39.54 96.04 40.30L96.02 40.28L96.01 40.27Q99.29 42.63 107.05 42.82L107.02 42.79L106.99 42.76Q114.35 43.01 117.02 40.45ZM113.35 28.18L113.35 28.18L113.30 28.13Q113.19 32.78 111.28 34.87L111.18 34.76L111.24 34.83Q109.18 37.11 104.72 37.14L104.66 37.08L104.63 37.05Q100.37 37.17 98.24 35.27L98.33 35.36L98.24 35.27Q97.55 33.66 97.63 30.77L97.60 30.75L97.66 30.81Q97.62 26.05 99.64 23.88L99.73 23.96L99.67 23.91Q101.80 21.84 106.40 21.84L106.23 21.67L106.39 21.83Q110.58 21.84 112.68 23.70L112.59 23.62L112.61 23.63Q113.45 25.39 113.34 28.17Z"/><path d="M17 26 C65 30,55 8,139 34" stroke="#666" fill="none"/></svg>