<svg xmlns="http://www.w3.org/2000/svg" width="150" height="50" viewBox="0,0,150,50"><path fill="#222" d="M24.94 30.46L24.94 30.45L24.89 30.41Q21.48 36.81 18.05 40.77L18.03 40.75L18.09 40.81Q16.20 41.21 13.77 42.08L13.77 42.09L13.64 41.95Q18.69 36.50 23.45 28.09L23.44 28.07L23.42 28.06Q18.79 21.06 12.81 14.67L12.72 14.58L12.83 14.69Q15.73 15.88 18.02 16.37L17.97 16.33L17.95 16.30Q22.69 21.62 25.13 25.58L25.00 25.45L25.17 25.62Q27.58 21.10 31.50 16.69L31.43 16.62L31.56 16.75Q33.20 16.48 36.40 15.72L36.30 15.63L36.31 15.64Q30.13 21.98 26.66 27.92L26.82 28.07L26.70 27.95Q31.97 36.72 36.35 41.29L36.22 41.16L36.25 41.19Q33.68 40.41 31.59 40.19L31.53 40.13L31.67 40.26Q28.78 37.18 24.85 30.37ZM31.46 40.47L31.56 40.58L31.51 40.53Q31.96 40.71 32.41 40.82L32.41 40.81L32.39 40.80Q33.20 41.57 34.72 43.17L34.62 43.06L34.68 43.13Q38.04 43.93 41.08 45.30L41.01 45.23L41.05 45.27Q33.85 38.60 28.75 29.85L28.81 29.91L28.87 29.97Q32.64 23.34 38.54 16.49L38.42 16.37L38.49 16.44Q37.04 17.09 34.87 17.62L34.90 17.65L34.88 17.63Q35.65 16.61 37.40 14.82L37.49 14.91L37.45 14.87Q35.08 15.77 31.39 16.34L31.33 16.28L31.46 16.41Q27.98 20.17 25.39 24.47L25.40 24.48L25.27 24.35Q24.42 22.81 23.24 21.33L23.24 21.34L21.07 18.51L20.51 18.34L20.56 18.39Q20.51 18.49 20.28 18.41L20.18 18.31L20.25 18.38Q19.58 17.55 18.09 15.99L18.03 15.93L18.06 15.96Q14.16 14.99 11.57 13.62L11.68 13.73L11.68 13.73Q18.36 20.94 22.93 27.98L23.01 28.07L22.94 28.00Q18.41 36.14 12.66 42.73L12.69 42.76L12.67 42.73Q14.04 42.12 16.17 41.55L16.20 41.59L14.82 42.94L14.87 43.00Q14.95 43.08 13.62 44.41L13.55 44.34L13.45 44.24Q16.60 43.32 19.76 42.82L19.79 42.86L19.79 42.85Q23.75 38.28 26.33 33.52L26.20 33.39L26.25 33.44Q28.79 37.66 31.50 40.51Z"/><path fill="#222" d="M14.86 29.56L14.78 29.48L14.82 29.53Q13.63 28.76 12.99 28.80L13.01 28.82L12.97 28.78Q11.65 28.91 10.61 29.92L10.47 29.78L10.51 29.82Q9.43 30.80 9.55 32.17L9.62 32.24L9.65 32.27Q9.97 36.63 9.10 41.16L8.99 41.05L9.10 41.17Q6.78 41.51 5.68 42.04L5.70 42.07L5.63 42.00Q7.30 37.99 7.07 33.54L7.00 33.47L6.91 33.38Q6.78 28.98 5.06 24.91L5.04 24.89L5.00 24.85Q6.26 25.65 8.55 26.30L8.46 26.22L8.96 28.85L9.08 28.96Q9.71 26.01 13.97 26.01L13.93 25.97L13.94 25.98Q14.33 25.92 14.64 25.92L14.61 25.89L14.65 25.93Q15.96 25.94 17.21 26.63L17.26 26.67L17.27 26.69Q15.87 27.95 14.72 29.43ZM16.32 31.40L16.47 31.41L16.42 31.35Q17.29 30.16 18.96 27.73L19.13 27.90L18.98 27.75Q18.63 27.51 17.10 27.24L17.16 27.30L17.05 27.19Q17.43 26.92 17.88 26.31L17.92 26.35L17.96 26.38Q16.02 25.44 14.08 25.63L14.12 25.67L13.94 25.49Q12.08 25.76 11.36 26.03L11.26 25.93L11.34 26.00Q9.92 26.42 9.12 27.52L9.22 27.62L9.00 26.75L8.77 25.87L8.85 25.95Q6.44 25.53 4.46 24.19L4.39 24.12L4.30 24.03Q6.46 28.44 6.69 33.31L6.69 33.31L6.76 33.39Q7.05 38.35 5.30 42.88L5.28 42.86L5.16 42.75Q6.35 42.37 7.22 42.07L7.16 42.00L7.08 41.92Q6.86 43.08 6.37 44.14L6.40 44.17L6.47 44.24Q9.26 43.35 11.40 43.23L11.36 43.20L11.69 38.80L11.49 38.61Q11.68 36.44 11.68 34.19L11.65 34.16L11.65 34.15Q11.65 32.98 12.56 32.01L12.53 31.97L12.55 31.99Q13.47 31.04 14.62 30.96L14.63 30.97L14.59 30.94Q15.32 30.90 16.04 31.58L16.03 31.57L16.33 31.42ZM11.35 29.63L11.43 29.64L11.33 29.65L11.30 29.58Z"/><path fill="#111" d="M122.48 30.90L122.51 30.93L122.40 30.82Q122.54 29.44 121.72 28.52L121.65 28.45L121.64 28.45Q120.95 27.66 119.50 27.70L119.55 27.74L119.50 27.69Q117.24 27.83 116.40 29.96L116.37 29.93L116.37 29.93Q116.08 30.70 116.04 31.39L116.04 31.39L116.08 31.43Q115.83 36.24 114.91 40.58L114.79 40.45L114.95 40.62Q113.20 41.08 111.34 42.07L111.31 42.04L111.29 42.01Q113.56 35.04 113.29 27.73L113.29 27.73L113.25 27.69Q112.98 20.33 110.43 13.52L110.42 13.51L110.50 13.59Q112.18 14.81 114.20 15.50L114.30 15.60L114.31 15.61Q115.76 21.40 115.95 27.27L115.94 27.26L115.94 27.26Q117.37 25.22 120.08 25.30L120.14 25.36L120.07 25.29Q125.03 25.27 125.14 30.63L125.29 30.78L125.24 30.73Q125.42 36.47 126.79 41.11L126.75 41.08L126.68 41.00Q124.90 40.25 123.15 40.06L123.13 40.04L123.07 39.98Q122.69 36.86 122.58 31.00ZM122.70 40.25L122.74 40.30L122.83 40.39Q123.88 40.52 124.99 40.79L124.94 40.74L124.95 40.75Q124.95 40.87 125.49 42.85L125.53 42.90L125.56 42.93Q128.57 43.92 130.59 45.36L130.49 45.26L130.52 45.30Q127.87 39.56 127.33 33.24L127.30 33.21L127.34 33.25Q126.92 29.44 125.51 27.88L125.55 27.92L125.54 27.91Q125.56 27.85 124.91 27.39L124.81 27.29L124.95 27.44Q124.60 26.82 123.96 26.06L124.03 26.13L124.07 26.10L124.13 26.15Q123.19 25.22 120.07 24.95L120.07 24.94L119.95 24.83Q119.28 24.89 117.87 25.23L117.99 25.35L117.96 25.31Q117.64 20.35 117.29 17.83L117.27 17.81L117.26 17.79Q116.57 17.76 115.09 17.45L115.09 17.46L115.07 17.44Q114.85 16.65 114.59 15.17L114.72 15.30L114.58 15.16Q111.61 14.17 109.74 12.61L109.77 12.63L109.77 12.63Q112.71 19.76 112.98 27.57L113.09 27.68L113.04 27.62Q113.27 35.36 110.72 42.70L110.75 42.74L110.70 42.69Q111.64 42.11 112.79 41.61L112.92 41.75L112.16 43.99L112.08 43.91Q115.27 42.65 117.25 42.46L117.24 42.45L117.23 42.44Q117.73 36.96 117.92 33.00L118.09 33.17L118.00 33.08Q118.08 31.23 120.03 30.12L119.95 30.05L120.13 30.23Q120.54 29.88 121.07 29.91L121.16 30.00L121.14 29.97Q121.16 29.85 121.50 29.88L121.50 29.88L121.93 29.97L122.08 30.12Q122.07 30.49 122.19 30.95L122.15 30.91L122.23 30.99Q122.26 36.88 122.75 40.31Z"/><path fill="#333" d="M67.27 39.82L67.29 39.85L67.29 39.85Q65.31 39.77 63.29 39.96L63.31 39.97L63.29 39.96Q63.98 34.75 63.98 29.91L64.05 29.98L64.02 29.95Q64.01 25.03 63.37 19.82L63.38 19.83L63.30 19.75Q58.81 19.45 55.61 17.77L55.63 17.79L54.74 15.88L54.86 16.00Q54.65 15.48 54.04 14.26L54.07 14.29L53.98 14.20Q59.18 17.00 65.20 17.20L65.12 17.12L65.04 17.04Q71.01 17.30 76.46 15.25L76.43 15.22L76.50 15.29Q75.72 16.64 75.07 18.47L75.14 18.54L75.02 18.42Q71.45 19.76 67.19 19.95L67.19 19.95L67.26 20.02Q67.00 24.97 67.00 29.92L66.93 29.85L67.01 29.93Q67.05 34.92 67.35 39.90ZM77.03 14.45L77.13 14.55L77.02 14.44Q71.36 16.88 65.15 16.69L65.04 16.58L65.03 16.57Q58.49 16.50 53.39 13.53L53.26 13.40L53.31 13.45Q54.13 14.81 55.43 18.09L55.42 18.08L55.38 18.04Q56.00 18.31 57.25 18.88L57.28 18.91L57.38 19.01Q57.47 19.55 57.81 21.07L57.89 21.15L57.85 21.11Q60.15 21.97 63.20 22.20L63.19 22.19L63.29 22.30Q63.57 25.89 63.57 29.66L63.59 29.68L63.67 29.75Q63.61 35.07 62.81 40.43L62.90 40.52L62.87 40.49Q64.55 40.38 65.09 40.38L64.94 40.23L65.05 40.35Q64.92 40.52 64.86 41.19L64.92 41.24L65.03 41.35Q64.86 41.91 64.86 42.25L64.97 42.36L64.82 42.21Q66.08 42.21 67.60 42.29L67.55 42.24L67.56 42.25Q68.46 42.27 70.29 42.43L70.35 42.48L70.39 42.52Q69.03 37.47 68.91 32.29L69.07 32.45L69.04 32.42Q68.84 27.05 69.38 22.14L69.39 22.15L69.46 22.22Q73.35 21.61 76.51 20.40L76.53 20.42L76.43 20.32Q77.23 18.04 78.26 15.98L78.15 15.87L78.24 15.96Q76.90 16.64 76.10 16.94L76.05 16.89L76.03 16.87Q76.45 15.58 77.02 14.44Z"/><path fill="#111" d="M124.72 14.40L124.75 14.43L124.72 14.39Q127.22 16.06 128.97 16.48L129.01 16.52L128.98 16.48Q130.29 22.97 130.29 29.56L130.36 29.62L130.26 29.53Q130.22 33.48 129.69 37.48L129.72 37.51L129.66 37.46Q131.93 37.02 134.40 37.10L134.51 37.20L134.39 37.08Q136.90 37.19 139.03 37.91L138.92 37.81L138.97 37.86Q139.37 39.48 139.83 41.04L139.75 40.96L139.82 41.03Q136.36 39.59 132.52 39.86L132.59 39.93L132.42 39.76Q128.77 40.22 125.54 42.13L125.55 42.14L125.53 42.12Q127.58 35.11 127.31 28.11L127.31 28.10L127.27 28.06Q127.15 21.13 124.71 14.39ZM125.02 42.87L124.97 42.82L124.93 42.78Q125.64 42.42 127.02 41.70L127.03 41.71L126.97 41.66Q126.86 42.46 126.32 43.94L126.37 43.99L126.24 43.86Q129.94 42.34 133.78 42.34L133.72 42.28L133.61 42.16Q139.36 42.28 143.47 45.33L143.47 45.32L143.52 45.37Q142.78 43.80 141.75 40.83L141.81 40.89L141.69 40.77Q140.60 40.09 139.72 39.71L139.80 39.79L139.82 39.81Q139.68 39.10 139.38 37.69L139.33 37.64L139.27 37.58Q136.62 36.65 133.61 36.65L133.74 36.77L133.69 36.73Q132.85 36.65 132.05 36.69L132.08 36.72L132.21 36.85Q132.46 31.92 132.39 27.81L132.40 27.82L132.26 27.68Q132.19 23.58 131.85 18.59L131.83 18.57L131.88 18.62Q130.53 18.57 129.73 18.38L129.59 18.23L129.71 18.35Q129.50 17.54 129.27 16.13L129.22 16.07L129.36 16.22Q126.24 15.39 124.00 13.44L124.07 13.52L123.97 13.42Q126.84 20.63 127.11 28.13L126.98 28.00L127.11 28.13Q127.32 35.61 124.92 42.76Z"/><path d="M20 29 C73 25,94 14,138 10" stroke="#777" fill="none"/><path fill="#333" d="M108.98 29.50L108.91 29.43L109.06 29.58Q107.76 28.70 107.11 28.74L107.24 28.87L107.12 28.75Q105.69 28.76 104.64 29.77L104.67 29.80L104.63 29.76Q103.69 30.87 103.80 32.24L103.87 32.31L103.73 32.18Q104.05 36.52 103.17 41.05L103.27 41.15L103.20 41.08Q100.93 41.48 99.83 42.01L99.99 42.18L99.99 42.17Q101.30 37.81 101.07 33.36L101.12 33.40L101.23 33.52Q101.00 29.02 99.29 24.95L99.31 24.98L99.29 24.95Q100.44 25.64 102.72 26.29L102.69 26.26L103.13 28.83L103.26 28.97Q103.88 26.00 108.14 26.00L108.16 26.02L108.21 26.07Q108.61 26.02 108.92 26.02L108.87 25.96L108.95 26.05Q110.17 25.97 111.43 26.66L111.36 26.59L111.46 26.69Q110.04 27.93 108.90 29.42ZM110.52 31.42L110.70 31.46L110.74 31.49Q111.64 30.34 113.32 27.90L113.29 27.88L113.32 27.90Q112.76 27.46 111.24 27.19L111.27 27.23L111.29 27.25Q111.54 26.85 112.00 26.24L111.95 26.20L112.12 26.36Q110.12 25.35 108.18 25.54L108.14 25.51L108.17 25.54Q106.30 25.79 105.57 26.06L105.60 26.09L105.54 26.03Q104.05 26.36 103.25 27.46L103.25 27.47L103.06 26.63L103.00 25.92L103.04 25.96Q100.47 25.37 98.49 24.04L98.61 24.16L98.54 24.09Q100.67 28.46 100.90 33.34L100.87 33.31L100.97 33.41Q101.23 38.35 99.48 42.88L99.51 42.92L99.45 42.86Q100.44 42.29 101.32 41.98L101.30 41.96L101.34 42.00Q101.09 43.12 100.59 44.19L100.63 44.22L100.69 44.28Q103.47 43.37 105.60 43.26L105.56 43.21L105.77 38.71L105.87 38.80Q105.79 36.37 105.79 34.12L105.86 34.19L105.95 34.28Q105.94 33.09 106.86 32.12L106.81 32.08L106.89 32.15Q107.68 31.06 108.82 30.98L108.94 31.10L108.79 30.95Q109.54 30.94 110.27 31.63L110.18 31.54L110.64 31.54ZM105.48 29.58L105.64 29.67L105.61 29.75L105.66 29.76Z"/><path fill="#444" d="M50.98 29.26L50.87 29.15L50.81 29.09Q49.06 29.21 47.84 30.54L47.91 30.60L47.83 30.53Q46.50 31.75 46.35 33.66L46.48 33.79L46.49 33.79Q46.21 35.83 47.43 36.84L47.39 36.80L47.39 36.81Q48.80 38.00 50.93 37.93L50.90 37.89L50.83 37.83Q53.20 37.72 54.15 36.77L54.18 36.80L54.19 36.81Q55.14 35.29 55.03 33.46L55.01 33.45L55.02 33.45Q54.91 31.60 53.83 30.40L53.91 30.48L53.85 30.42Q52.78 29.23 50.95 29.23ZM50.94 19.81L50.79 19.67L50.87 19.74Q49.36 19.54 48.03 20.03L48.19 20.19L48.16 20.17Q46.86 20.95 47.09 22.82L47.12 22.85L47.03 22.76Q47.56 26.52 50.91 26.52L50.95 26.57L51.00 26.61Q52.54 26.79 53.53 25.65L53.52 25.64L53.36 25.47Q54.39 24.38 54.43 22.82L54.42 22.80L54.49 22.87Q54.52 21.08 53.80 20.47L53.93 20.60L53.80 20.47Q52.18 19.68 50.88 19.76ZM50.69 40.40L50.57 40.27L47.58 40.33L47.47 40.22Q45.98 40.25 44.65 39.38L44.77 39.50L44.78 39.51Q43.27 38.23 43.42 35.37L43.57 35.52L43.55 35.50Q43.94 28.58 47.56 27.59L47.57 27.60L47.49 27.52Q45.24 26.64 43.91 21.27L43.84 21.21L43.95 21.32Q43.63 19.94 43.71 19.14L43.72 19.15L43.61 19.04Q43.92 16.91 47.61 16.87L47.61 16.87L47.76 17.02Q51.83 16.79 53.28 16.98L53.30 17.00L53.42 17.12Q57.28 17.67 57.73 19.68L57.72 19.67L57.63 19.58Q57.69 20.14 57.69 20.52L57.67 20.49L57.77 20.60Q57.74 21.25 57.55 21.86L57.53 21.84L57.49 21.80Q56.95 26.10 54.02 27.62L53.93 27.53L54.07 27.67Q57.62 28.51 58.11 33.81L58.11 33.80L57.94 33.64Q58.04 33.88 58.08 35.18L58.11 35.21L58.13 35.23Q58.08 37.84 56.48 38.91L56.53 38.96L56.51 38.94Q55.25 39.93 50.68 40.38ZM52.86 42.60L52.89 42.63L56.14 42.61L56.17 42.63Q58.03 42.86 59.55 42.14L59.52 42.10L59.46 42.04Q60.60 41.32 60.68 39.46L60.75 39.53L60.65 39.42Q60.75 38.39 60.37 36.44L60.40 36.48L60.26 36.34Q59.40 31.75 57.31 29.88L57.27 29.84L57.25 29.63L57.00 29.31L56.91 29.10L56.89 29.08Q58.50 27.68 59.41 23.53L59.40 23.52L59.36 23.48Q59.31 23.05 59.39 22.22L59.47 22.30L59.46 22.29Q59.42 21.48 59.34 20.87L59.43 20.96L59.52 21.06Q59.20 19.44 58.02 18.94L58.04 18.96L58.18 19.07L57.99 18.95L57.88 18.84Q57.69 18.19 56.51 17.39L56.48 17.36L56.52 17.36L56.48 17.33Q54.48 16.62 50.41 16.43L50.47 16.49L50.39 16.42Q48.87 16.34 47.50 16.45L47.51 16.47L47.65 16.60Q46.78 16.57 45.48 16.72L45.37 16.60L45.39 16.63Q43.45 17.01 43.22 18.64L43.21 18.64L43.29 18.71Q43.34 19.30 43.38 20.10L43.33 20.05L43.22 19.94Q43.36 20.50 43.93 22.86L43.95 22.88L43.94 22.87Q44.83 26.20 46.58 27.53L46.44 27.39L46.63 27.58L46.70 27.65Q43.92 28.94 43.38 34.11L43.31 34.04L43.28 34.01Q43.12 36.25 43.12 37.16L43.16 37.20L43.02 37.06Q43.24 38.99 44.42 39.91L44.42 39.91L44.33 39.82Q44.54 39.99 44.80 40.18L44.79 40.17L44.64 40.02Q45.80 42.43 52.92 42.66ZM52.53 31.53L52.47 31.47L52.52 31.52Q53.49 31.51 54.37 31.96L54.25 31.85L54.24 31.84Q54.79 32.99 54.75 33.53L54.72 33.49L54.62 33.40Q54.80 33.84 54.80 34.15L54.68 34.03L54.72 34.07Q54.62 36.33 52.34 37.17L52.42 37.24L52.47 37.30Q51.55 37.48 50.75 37.37L50.86 37.48L50.89 37.51Q49.75 37.59 48.61 37.13L48.50 37.02L48.57 37.09Q48.23 36.37 48.31 35.38L48.38 35.45L48.44 35.52Q48.48 33.80 49.68 32.58L49.71 32.62L49.80 32.70Q50.86 31.35 52.46 31.46ZM52.78 22.08L52.69 21.99L52.83 22.13Q53.54 21.92 54.07 22.07L54.09 22.10L54.08 22.89L54.17 22.97Q54.18 24.39 53.26 25.40L53.22 25.36L53.26 25.40Q52.33 26.38 50.96 26.19L50.83 26.06L50.82 26.06Q49.98 26.21 49.57 25.98L49.51 25.92L49.50 25.92Q49.48 25.67 49.37 24.98L49.43 25.05L49.28 24.90Q49.12 23.60 50.34 22.76L50.21 22.63L50.20 22.62Q51.46 22.13 52.87 22.17Z"/><path fill="#333" d="M37.30 29.03L37.39 29.12L37.39 29.12Q35.59 29.04 34.35 30.47L34.40 30.51L34.21 30.33Q32.98 31.76 32.79 33.66L32.96 33.83L32.90 33.78Q32.57 35.72 33.65 36.69L33.78 36.83L33.78 36.82Q34.77 37.70 36.87 37.59L36.86 37.58L36.89 37.62Q38.98 37.45 40.08 36.77L40.03 36.72L40.19 36.88Q41.17 35.61 41.17 34.05L41.20 34.08L41.22 34.10Q41.18 33.68 41.11 33.30L41.14 33.34L41.28 33.47Q41.23 31.67 40.12 30.32L40.23 30.43L40.12 30.31Q38.98 28.93 37.31 29.04ZM37.05 40.32L36.94 40.21L36.93 40.21Q32.50 40.15 31.09 39.39L31.20 39.49L31.27 39.56Q30.08 38.65 29.89 36.93L30.05 37.09L29.89 36.93Q29.88 36.28 29.92 35.55L30.03 35.66L29.85 35.49Q29.98 34.50 29.98 34.05L30.01 34.08L30.09 34.16Q30.59 31.35 30.74 30.66L30.74 30.66L30.62 30.54Q31.20 28.73 32.04 27.32L31.89 27.17L32.02 27.30Q34.68 22.92 40.62 16.56L40.60 16.54L40.64 16.57Q43.27 16.24 45.48 15.44L45.49 15.45L45.37 15.33Q38.56 22.84 35.37 27.06L35.43 27.12L35.42 27.12Q36.45 26.66 37.75 26.66L37.64 26.56L37.69 26.61Q41.02 26.63 42.55 28.57L42.51 28.53L42.52 28.55Q43.76 30.09 44.11 33.63L44.22 33.75L44.19 33.72Q44.23 34.40 44.23 35.01L44.18 34.97L44.21 34.99Q44.17 38.08 41.96 39.14L42.02 39.20L42.09 39.27Q40.77 39.78 36.89 40.16ZM39.23 42.62L39.29 42.67L39.34 42.72Q40.50 42.55 42.47 42.62L42.53 42.68L42.57 42.72Q44.08 42.67 45.65 41.95L45.63 41.93L45.74 42.04Q46.85 41.25 46.85 39.46L46.80 39.41L46.72 39.33Q46.80 38.92 46.63 37.93L46.59 37.89L46.59 37.89Q46.44 36.92 46.44 36.47L46.49 36.52L46.49 36.51Q45.62 31.80 44.02 29.89L44.01 29.88L44.02 29.89Q43.90 29.74 43.75 29.51L43.76 29.52L43.47 29.30L43.44 29.31L43.35 29.22Q43.08 28.80 42.47 27.85L42.48 27.86L42.47 27.85Q41.56 26.90 39.58 26.44L39.46 26.32L39.46 26.32Q40.84 24.89 43.81 21.19L43.81 21.19L48.02 15.89L47.93 15.79Q46.47 16.77 44.07 17.54L43.99 17.45L44.05 17.52Q44.91 16.47 46.70 14.49L46.68 14.47L46.73 14.52Q44.24 15.49 40.35 16.06L40.50 16.21L40.34 16.05Q34.71 22.03 31.74 26.98L31.76 27.00L31.68 26.92Q30.19 29.46 29.62 35.71L29.67 35.76L29.56 35.65Q29.48 36.21 29.55 37.16L29.64 37.25L29.74 37.35Q29.82 39.10 30.92 40.02L30.90 40.00L30.92 40.02Q31.21 40.08 31.18 40.12L31.13 40.08L31.11 40.05Q31.56 41.04 32.36 41.45L32.43 41.53L32.40 41.50Q33.70 42.04 35.64 42.23L35.78 42.36L35.81 42.39Q35.69 42.27 39.19 42.58ZM39.10 31.49L39.03 31.42L38.96 31.35Q39.61 31.31 40.57 31.81L40.46 31.70L40.55 31.79Q40.93 32.78 40.93 33.43L40.95 33.45L40.85 33.35Q41.11 35.29 40.16 36.28L40.14 36.26L40.11 36.22Q39.04 36.94 36.95 37.25L37.01 37.32L36.96 37.26Q35.53 37.28 35.00 37.01L34.90 36.92L34.98 37.00Q34.75 36.50 34.75 36.20L34.72 36.16L34.75 36.19Q34.49 32.89 37.42 31.60L37.54 31.72L37.44 31.61Q38.26 31.33 39.02 31.40Z"/><path fill="#222" d="M91.43 19.73L91.40 19.71L89.83 19.81L89.81 19.79Q87.58 19.92 87.35 21.93L87.32 21.91L87.36 21.95Q87.20 22.58 87.23 23.57L87.34 23.68L87.19 23.52Q87.21 25.46 88.47 26.79L88.59 26.91L88.51 26.82Q89.89 28.28 91.79 28.13L91.62 27.95L91.70 28.04Q93.83 27.96 94.59 27.05L94.62 27.08L94.59 27.04Q95.51 25.99 95.78 23.74L95.93 23.89L95.94 23.91Q96.04 21.49 94.78 20.65L94.91 20.78L94.93 20.80Q94.05 19.99 91.38 19.69ZM97.34 28.84L97.32 28.83L96.14 31.22L96.08 31.16Q93.30 35.88 89.53 39.95L89.58 40.00L89.71 40.13Q87.96 40.17 85.25 40.97L85.26 40.98L85.20 40.91Q90.62 34.72 93.78 29.93L93.71 29.85L93.83 29.98Q92.69 30.51 91.05 30.59L91.10 30.64L91.12 30.66Q88.01 30.71 86.49 28.73L86.66 28.89L86.49 28.73Q85.33 27.19 84.22 22.62L84.17 22.57L84.31 22.71Q84.17 22.11 84.02 21.17L84.00 21.15L84.09 21.25Q83.88 20.26 83.88 19.80L83.85 19.77L83.86 19.78Q83.91 18.04 84.98 17.43L85.05 17.51L84.99 17.44Q86.21 16.69 88.08 16.69L88.19 16.80L88.17 16.78Q91.32 16.73 91.32 16.73L91.27 16.68L91.38 16.80Q93.56 16.84 94.81 17.03L94.73 16.95L94.77 16.98Q96.92 17.27 97.83 17.76L97.70 17.63L97.81 17.74Q99.09 18.42 99.29 20.17L99.31 20.19L99.27 20.15Q99.31 20.42 99.12 23.09L99.15 23.11L99.17 23.14Q98.67 25.14 98.44 25.98L98.50 26.05L98.52 26.06Q98.14 27.47 97.38 28.88ZM99.25 31.25L99.27 31.27L99.22 31.21Q100.28 29.08 100.82 24.78L100.75 24.71L100.81 24.78Q101.02 22.51 100.98 21.63L101.13 21.78L101.09 21.75Q100.95 19.78 99.77 18.86L99.75 18.85L99.52 18.80L99.43 18.72Q99.34 18.12 98.42 17.48L98.39 17.45L98.28 17.33Q96.03 16.37 91.23 16.22L91.34 16.33L91.24 16.23Q90.33 16.27 87.89 16.27L87.85 16.23L87.77 16.15Q86.17 16.30 84.68 16.98L84.66 16.97L84.72 17.02Q83.58 17.82 83.65 19.65L83.49 19.49L83.51 19.51Q83.75 20.46 83.94 22.48L83.89 22.44L83.97 22.52Q84.51 25.07 84.77 25.91L84.75 25.89L84.91 26.04Q85.31 27.74 86.27 29.04L86.28 29.05L86.44 29.21Q86.69 29.54 87.07 29.92L86.93 29.78L86.93 29.78Q87.23 30.27 87.87 31.18L87.80 31.11L87.88 31.18Q89.42 32.61 91.36 32.80L91.38 32.82L91.26 32.70Q89.40 35.40 87.84 37.31L87.80 37.27L84.34 41.81L84.15 41.62Q86.43 40.89 88.07 40.55L88.17 40.65L88.10 40.58Q87.42 41.54 85.86 43.25L85.74 43.13L85.90 43.29Q88.89 42.29 92.01 42.25L92.08 42.31L91.97 42.21Q94.24 39.57 98.58 32.33L98.68 32.43L98.76 32.58L98.60 32.43Q98.88 31.71 99.22 31.22ZM93.18 21.94L93.36 22.12L93.29 22.05Q93.79 21.83 94.25 21.95L94.36 22.05L94.29 21.99Q95.00 22.17 95.38 22.28L95.43 22.33L95.32 22.21Q95.42 22.58 95.50 23.00L95.49 22.99L95.46 22.97Q95.72 23.57 95.61 23.95L95.42 23.77L95.55 23.89Q95.53 25.62 94.35 26.73L94.34 26.72L94.27 26.65Q93.43 27.79 91.80 27.75L91.67 27.63L91.64 27.59Q91.26 27.63 89.73 27.33L89.84 27.43L89.78 27.37Q89.52 26.47 89.52 25.74L89.58 25.80L89.62 25.85Q89.46 25.50 89.46 25.27L89.43 25.24L89.43 25.23Q89.41 23.00 91.69 22.20L91.67 22.18L91.76 22.27Q92.37 21.97 93.21 21.97Z"/><path fill="#333" d="M77.99 19.64L78.02 19.67L78.04 19.69Q75.98 19.72 75.02 19.87L75.18 20.02L75.10 19.94Q73.48 20.18 72.26 20.72L72.23 20.69L72.17 20.63Q68.74 22.15 68.62 26.83L68.62 26.82L68.61 26.82Q68.63 29.57 69.27 32.51L69.10 32.33L69.12 32.35Q70.05 36.44 73.67 37.62L73.61 37.56L73.61 37.56Q75.63 38.25 77.07 38.10L76.97 37.99L77.49 38.06L77.50 38.07Q77.64 38.02 77.83 38.05L77.76 37.99L77.85 38.07Q78.01 38.08 78.16 38.04L78.22 38.10L78.14 38.02Q80.74 37.73 82.11 37.16L82.10 37.15L78.47 33.55L78.65 33.73Q78.82 33.26 79.43 32.65L79.58 32.80L80.50 31.89L80.46 31.85Q82.24 33.86 84.22 35.92L84.22 35.91L84.28 35.98Q86.56 34.10 86.82 28.74L86.73 28.65L86.88 28.79Q86.82 27.74 86.82 26.83L86.89 26.90L86.89 26.90Q86.81 21.15 81.75 20.04L81.88 20.17L81.76 20.06Q80.52 19.81 78.01 19.66ZM90.88 41.81L90.77 41.70L90.76 41.70Q90.21 42.17 89.03 43.05L89.09 43.11L84.62 39.36L84.51 39.26Q82.06 40.49 77.79 40.53L77.82 40.56L77.78 40.51Q71.24 40.63 68.42 38.39L68.59 38.56L68.58 38.55Q66.72 36.69 66.26 33.72L66.20 33.66L66.32 33.78Q65.97 31.83 65.59 28.25L65.60 28.26L65.74 28.40Q65.72 27.65 65.60 25.90L65.55 25.85L65.59 25.89Q65.44 24.33 65.48 23.46L65.55 23.53L65.42 23.40Q65.53 20.35 67.28 18.79L67.36 18.86L67.42 18.93Q68.90 17.56 72.10 17.06L72.03 16.99L72.02 16.98Q74.44 16.55 77.34 16.62L77.45 16.74L77.40 16.68Q84.93 16.83 88.06 19.20L87.99 19.13L88.08 19.22Q90.11 21.21 89.84 26.12L90.00 26.28L89.87 26.15Q89.84 29.96 89.65 31.29L89.64 31.28L89.59 31.24Q88.84 35.62 86.51 37.94L86.63 38.06L86.56 37.99Q87.95 39.15 90.69 41.62ZM85.88 17.40L85.93 17.45L85.95 17.47Q84.02 16.84 77.51 16.34L77.41 16.24L77.41 16.23Q76.12 16.36 73.34 16.47L73.27 16.40L73.23 16.36Q69.02 16.60 66.77 18.58L66.88 18.69L66.86 18.67Q65.18 20.11 65.18 23.27L65.17 23.26L65.07 23.16Q65.02 23.95 65.18 25.67L65.34 25.83L65.33 25.82Q65.51 27.56 65.51 28.44L65.49 28.41L65.38 28.30Q65.64 30.16 66.02 33.74L65.93 33.65L66.03 33.75Q66.31 36.55 67.91 38.60L67.81 38.50L67.89 38.58Q68.32 39.51 69.54 40.65L69.53 40.64L69.36 40.47Q72.25 42.63 77.42 42.90L77.37 42.85L77.47 42.95Q77.70 42.83 80.09 42.94L80.06 42.91L80.09 42.94Q84.98 43.19 87.27 42.12L87.26 42.12L87.29 42.15Q88.16 42.83 92.88 46.40L92.80 46.32L92.76 46.28Q93.42 45.80 94.71 44.81L94.70 44.79L94.62 44.72Q93.79 44.07 92.99 43.39L92.98 43.38L91.25 41.84L91.41 41.85L91.39 41.83Q90.81 41.37 89.59 40.34L89.70 40.44L89.59 40.33Q91.49 37.82 91.49 33.29L91.54 33.34L91.62 33.42Q91.50 32.87 91.53 32.04L91.68 32.19L91.60 32.11Q91.58 31.21 91.58 30.79L91.63 30.84L91.71 30.92Q91.69 25.38 90.96 23.02L90.93 22.98L90.92 22.97Q90.49 21.63 89.62 20.56L89.59 20.54L89.66 20.61Q88.77 18.39 85.84 17.36ZM79.97 22.07L79.93 22.03L79.92 22.02Q83.95 21.91 85.78 23.51L85.88 23.61L85.75 23.48Q86.49 24.86 86.60 26.19L86.53 26.13L86.43 26.02Q86.67 27.44 86.60 28.81L86.46 28.68L86.57 28.79Q86.09 33.60 84.15 35.31L84.29 35.46L84.24 35.41Q83.02 34.18 80.50 31.44L80.41 31.35L80.47 31.41Q79.61 32.07 78.05 33.63L78.13 33.71L78.00 33.58Q78.64 34.26 79.78 35.44L79.73 35.38L79.79 35.56L79.76 35.53Q80.23 35.96 81.26 37.03L81.34 37.11L81.36 37.13Q80.25 37.27 77.92 37.58L78.01 37.66L77.49 37.67L77.00 37.60L77.08 37.72L77.02 37.66Q73.57 37.68 71.59 36.04L71.67 36.12L71.53 35.98Q70.52 33.91 70.56 30.79L70.59 30.81L70.57 30.80Q70.72 22.08 79.90 22.00Z"/></svg>