<svg xmlns="http://www.w3.org/2000/svg" width="150" height="50" viewBox="0,0,150,50"><path fill="#111" d="M119.39 18.48L119.43 18.52L119.29 18.38Q118.67 18.87 118.52 19.66L118.53 19.68L118.46 24.75L118.53 24.82Q119.70 24.84 121.90 24.58L121.88 24.55L121.87 24.55Q121.70 24.83 121.66 25.67L121.71 25.72L121.79 25.79Q121.82 26.62 121.82 27.08L121.66 26.92L120.15 27.09L120.18 27.11Q119.30 27.11 118.42 27.11L118.58 27.27L118.42 27.10Q118.44 31.31 118.36 39.69L118.49 39.82L118.50 39.82Q116.10 39.71 114.62 40.40L114.70 40.48L114.62 40.40Q115.83 34.37 115.71 27.14L115.65 27.08L115.67 27.09Q114.99 27.02 113.69 26.76L113.69 26.75L113.78 26.85Q113.72 25.79 113.53 23.85L113.46 23.78L113.60 23.92Q114.55 24.26 115.50 24.45L115.66 24.61L115.52 24.47Q115.55 23.90 115.25 21.42L115.26 21.44L115.16 21.33Q114.97 19.31 114.97 18.36L115.09 18.49L114.97 18.37Q114.93 16.65 116.34 16.08L116.44 16.18L116.48 16.22Q117.27 15.83 122.10 14.99L122.10 14.99L122.02 14.91Q122.91 14.84 123.74 14.73L123.71 14.69L123.76 14.74Q123.57 15.55 123.42 16.42L123.40 16.41L123.07 17.93L122.99 17.86Q122.34 17.70 121.85 17.82L121.90 17.87L121.99 17.96Q121.19 17.77 119.29 18.38ZM124.70 19.49L124.72 19.52L124.90 19.69Q125.15 17.39 125.76 14.84L125.85 14.93L125.79 14.87Q125.24 15.27 123.95 15.88L123.87 15.81L124.20 14.04L124.20 14.05Q123.07 14.32 120.59 14.85L120.46 14.72L120.61 14.86Q119.43 14.95 116.23 15.86L116.10 15.73L116.22 15.84Q114.53 16.13 114.53 18.00L114.59 18.06L114.57 18.04Q114.59 18.36 114.66 18.70L114.59 18.63L114.75 18.79Q114.87 20.02 114.98 21.35L115.03 21.40L115.30 24.14L115.18 24.02Q113.85 23.68 113.20 23.22L113.16 23.18L113.13 23.15Q113.39 24.25 113.43 25.28L113.40 25.25L113.52 27.24L113.48 27.20Q114.19 27.37 114.99 27.44L115.06 27.51L115.02 29.57L115.26 29.43L115.27 29.44Q115.33 35.74 114.34 41.18L114.17 41.01L114.25 41.10Q115.30 40.66 116.48 40.40L116.45 40.36L116.28 42.44L116.28 42.44Q117.53 42.17 118.83 42.13L118.81 42.11L118.72 42.02Q119.92 41.97 121.18 42.23L121.16 42.22L121.22 42.28Q120.50 37.41 120.50 29.45L120.48 29.43L120.43 29.38Q121.61 29.46 123.70 29.53L123.55 29.39L123.54 27.51L123.62 27.59Q123.53 26.54 123.57 25.59L123.69 25.72L123.69 25.71Q123.24 25.83 122.17 26.10L122.08 26.00L122.12 26.05Q122.03 25.27 122.15 23.94L122.26 24.06L122.27 24.07Q121.41 24.27 120.61 24.34L120.62 24.36L120.51 24.25Q120.55 22.88 120.66 21.47L120.66 21.46L120.76 21.56Q120.86 20.87 121.39 20.52L121.34 20.47L121.45 20.59Q122.28 19.77 123.10 19.70L123.19 19.79L123.09 19.69Q123.99 19.70 124.83 19.62Z"/><path fill="#333" d="M37.23 40.28L37.14 40.18L37.14 40.19Q33.72 40.34 32.09 39.81L32.11 39.83L32.05 39.78Q30.07 39.12 29.76 35.74L29.87 35.84L31.25 34.71L31.16 34.63Q31.90 34.11 32.67 33.62L32.68 33.63L32.82 33.77Q32.47 35.59 34.07 36.81L34.02 36.76L34.10 36.84Q35.31 37.78 37.44 37.59L37.49 37.64L37.44 37.58Q41.92 37.28 41.73 33.74L41.75 33.76L41.59 33.59Q41.53 31.44 38.90 30.22L38.91 30.23L38.98 30.30Q36.03 29.14 33.67 27.92L33.65 27.90L33.68 27.93Q31.13 26.60 30.14 21.92L30.07 21.85L30.07 21.84Q30.10 21.54 29.99 20.77L29.90 20.68L29.83 20.62Q29.85 19.95 29.93 19.38L29.86 19.32L29.98 19.43Q30.04 17.74 31.29 17.28L31.23 17.21L31.33 17.32Q33.78 16.49 37.77 16.68L37.67 16.58L37.66 16.57Q39.61 16.80 40.41 16.88L40.40 16.87L40.29 16.76Q41.90 17.07 42.96 17.53L42.84 17.41L42.94 17.51Q45.01 17.94 45.24 20.42L45.24 20.42L45.22 20.40Q44.20 21.13 41.99 22.46L42.06 22.52L41.94 22.40Q41.54 19.42 37.16 19.42L37.24 19.50L37.12 19.37Q35.25 19.41 34.26 20.09L34.23 20.07L34.20 20.04Q33.15 20.66 33.37 22.45L33.33 22.41L33.28 22.36Q33.57 24.58 36.54 26.10L36.52 26.09L36.62 26.18Q37.18 26.44 41.67 28.08L41.64 28.04L41.62 28.02Q44.15 29.42 44.57 33.80L44.73 33.96L44.60 33.82Q44.72 34.10 44.80 35.35L44.72 35.27L44.77 35.32Q44.84 38.10 43.28 39.20L43.22 39.14L43.23 39.16Q41.46 40.20 37.28 40.32ZM39.46 42.57L39.49 42.61L39.58 42.70Q40.86 42.60 42.84 42.60L43.02 42.78L42.93 42.69Q44.97 42.64 46.22 42.22L46.31 42.31L46.25 42.25Q47.59 41.54 47.52 39.75L47.50 39.73L47.36 39.59Q47.29 38.57 46.91 36.52L47.07 36.67L46.93 36.54Q46.06 31.89 43.96 30.03L43.91 29.97L44.01 30.07Q43.20 28.46 41.87 27.74L41.95 27.83L36.51 25.62L36.61 25.72Q36.22 25.48 35.76 25.25L35.88 25.37L35.79 25.01L35.59 24.47L35.60 24.48Q35.42 23.04 36.56 22.43L36.67 22.55L36.60 22.48Q37.33 21.88 39.05 21.69L39.05 21.69L39.07 21.71Q40.20 21.58 41.34 22.04L41.40 22.10L41.42 22.11Q41.39 22.12 41.58 22.96L41.58 22.96L41.70 23.08Q41.92 22.96 42.42 22.73L42.38 22.70L42.45 22.77Q43.12 23.63 43.24 24.77L43.25 24.79L43.19 24.72Q43.22 24.64 46.87 22.05L46.92 22.09L46.90 22.08Q46.57 19.38 45.12 18.70L45.23 18.81L45.23 18.80Q44.71 17.60 43.26 17.07L43.22 17.03L43.29 17.09Q40.91 16.20 37.71 16.20L37.68 16.17L37.71 16.20Q32.77 16.17 30.91 16.86L30.88 16.83L30.94 16.89Q29.62 17.36 29.51 19.04L29.47 19.00L29.45 18.98Q29.53 19.63 29.95 21.84L29.81 21.70L29.87 21.76Q30.60 25.57 32.77 27.82L32.78 27.83L32.75 27.80Q33.49 29.45 34.99 30.14L34.99 30.13L35.01 30.15Q36.50 30.82 40.42 32.38L40.44 32.41L40.33 32.34L41.09 32.79L41.21 32.94L41.10 32.83Q41.29 33.29 41.33 33.63L41.37 33.68L41.38 33.68Q41.51 37.20 37.59 37.35L37.49 37.25L37.43 37.20Q36.25 37.20 34.96 36.82L35.00 36.86L34.92 36.78Q34.71 36.08 34.71 35.35L34.78 35.42L34.66 35.31Q34.71 35.09 34.75 34.82L34.67 34.74L34.76 34.83Q34.42 35.14 33.62 35.64L33.46 35.48L33.44 35.46Q33.10 34.51 33.26 33.14L33.12 33.01L33.17 33.05Q31.17 34.33 29.57 35.74L29.58 35.75L29.40 35.57Q29.51 36.44 29.59 37.47L29.52 37.40L29.71 37.58Q29.95 39.24 31.25 40.00L31.27 40.02L31.26 40.02Q32.38 41.74 34.93 42.12L34.94 42.13L35.04 42.23Q36.57 42.43 39.50 42.62Z"/><path fill="#111" d="M10.82 19.74L10.73 19.64L10.82 19.73Q8.87 19.88 7.92 20.04L7.74 19.86L7.85 19.97Q6.12 20.10 4.90 20.63L5.00 20.73L4.93 20.66Q1.36 22.05 1.25 26.73L1.39 26.87L1.32 26.79Q1.30 29.52 1.95 32.45L1.95 32.46L1.98 32.48Q2.86 36.52 6.47 37.70L6.39 37.62L6.42 37.65Q8.31 38.21 9.76 38.05L9.67 37.96L10.21 38.05L10.16 38.00Q10.43 38.08 10.62 38.11L10.48 37.98L10.48 37.98Q10.74 38.08 10.89 38.04L10.92 38.07L10.84 38.00Q13.45 37.71 14.82 37.14L14.82 37.14L11.22 33.58L11.29 33.65Q11.66 33.37 12.27 32.76L12.25 32.74L13.25 31.91L13.21 31.87Q14.92 33.81 16.90 35.87L16.88 35.85L17.00 35.97Q19.31 34.13 19.57 28.76L19.47 28.66L19.47 28.66Q19.54 27.73 19.54 26.82L19.65 26.93L19.59 26.87Q19.62 21.22 14.55 20.12L14.49 20.06L14.58 20.15Q13.34 19.90 10.83 19.75ZM23.56 41.77L23.55 41.76L23.56 41.77Q22.93 42.17 21.75 43.04L21.82 43.11L17.28 39.30L17.33 39.35Q14.88 40.59 10.62 40.62L10.63 40.64L10.51 40.52Q4.07 40.75 1.26 38.50L1.30 38.54L1.27 38.51Q-0.59 36.65-1.05 33.68L-1.09 33.64L-1.08 33.65Q-1.14 31.99-1.53 28.41L-1.67 28.26L-1.64 28.29Q-1.55 27.66-1.66 25.91L-1.68 25.90L-1.66 25.91Q-1.79 24.37-1.75 23.50L-1.75 23.50L-1.81 23.45Q-1.73 20.36 0.02 18.80L0.04 18.82L0.05 18.83Q1.59 17.51 4.79 17.02L4.83 17.06L4.84 17.07Q7.31 16.68 10.20 16.76L10.18 16.74L10.09 16.65Q17.67 16.85 20.80 19.21L20.83 19.24L20.80 19.21Q22.96 21.33 22.69 26.24L22.59 26.14L22.65 26.20Q22.56 29.96 22.37 31.29L22.26 31.17L22.38 31.30Q21.63 35.69 19.31 38.01L19.35 38.05L19.31 38.01Q20.78 39.26 23.52 41.73ZM18.59 17.38L18.69 17.49L18.60 17.39Q16.67 16.75 10.16 16.26L10.12 16.22L10.23 16.33Q8.87 16.38 6.09 16.49L5.93 16.33L5.99 16.39Q1.79 16.64-0.46 18.62L-0.39 18.70L-0.46 18.62Q-2.12 20.09-2.12 23.25L-2.14 23.23L-2.07 23.29Q-2.09 24.11-1.94 25.83L-2.01 25.75L-1.99 25.77Q-1.89 27.43-1.89 28.31L-1.81 28.39L-1.92 28.28Q-1.63 30.17-1.25 33.75L-1.40 33.59L-1.32 33.67Q-1.03 36.48 0.57 38.53L0.67 38.64L0.63 38.60Q0.90 39.36 2.12 40.50L2.26 40.65L2.25 40.64Q4.91 42.57 10.09 42.84L10.14 42.89L10.10 42.85Q10.53 42.94 12.93 43.05L12.90 43.02L12.95 43.07Q17.55 43.03 19.83 41.96L19.92 42.05L19.99 42.12Q20.76 42.70 25.49 46.28L25.46 46.25L25.59 46.38Q26.14 45.79 27.43 44.80L27.42 44.79L27.36 44.73Q26.46 44.02 25.66 43.34L25.72 43.39L24.11 41.97L24.21 41.93L24.13 41.85Q23.55 41.37 22.33 40.34L22.30 40.32L22.37 40.39Q24.26 37.86 24.26 33.33L24.39 33.47L24.24 33.31Q24.40 33.05 24.43 32.21L24.30 32.08L24.43 32.20Q24.30 31.20 24.30 30.78L24.34 30.82L24.31 30.79Q24.41 25.37 23.69 23.01L23.62 22.95L23.76 23.08Q23.36 21.77 22.48 20.70L22.32 20.54L22.37 20.59Q21.68 18.57 18.75 17.54ZM12.57 21.94L12.62 21.99L12.63 22.00Q16.74 21.96 18.57 23.56L18.63 23.63L18.53 23.53Q19.09 24.74 19.21 26.07L19.29 26.15L19.27 26.13Q19.38 27.42 19.30 28.79L19.17 28.66L19.17 28.66Q18.83 33.61 16.89 35.32L16.95 35.38L17.05 35.48Q15.62 34.05 13.10 31.31L13.09 31.30L13.13 31.34Q12.36 32.09 10.80 33.65L10.81 33.66L10.70 33.55Q11.41 34.30 12.55 35.48L12.47 35.40L12.49 35.53L12.47 35.51Q13.05 36.05 14.07 37.12L14.10 37.15L14.08 37.12Q13.01 37.31 10.69 37.61L10.66 37.59L10.21 37.67L9.75 37.63L9.80 37.71L9.67 37.58Q6.26 37.63 4.28 36.00L4.40 36.13L4.24 35.97Q3.30 33.96 3.34 30.84L3.23 30.73L3.40 30.90Q3.39 22.02 12.57 21.94Z"/><path fill="#333" d="M47.06 33.03L47.04 33.01L46.98 32.95Q50.14 32.65 53.34 32.76L53.20 32.63L53.18 32.60Q53.31 30.22 53.31 27.82L53.21 27.73L53.17 27.69Q53.19 25.23 53.38 22.68L53.36 22.66L53.44 22.73Q52.24 24.47 47.03 33.00ZM56.94 40.36L56.86 40.28L56.79 40.21Q55.25 40.04 53.46 39.96L53.41 39.92L53.35 39.85Q53.20 37.53 53.08 35.06L53.20 35.17L53.04 35.02Q47.88 34.99 43.16 36.40L43.14 36.38L42.99 36.24Q43.19 35.82 43.38 34.83L43.33 34.78L43.41 34.87Q45.09 31.59 48.67 25.31L48.74 25.38L48.82 25.46Q51.55 20.43 54.98 16.55L55.04 16.61L54.99 16.56Q56.00 16.51 57.68 16.24L57.61 16.17L57.65 16.21Q55.65 22.54 55.65 29.59L55.65 29.59L55.77 29.71Q55.67 31.09 55.74 32.58L55.87 32.70L57.10 32.76L57.04 32.69Q57.72 32.81 58.33 32.92L58.26 32.85L58.31 32.90Q58.35 33.81 58.61 35.75L58.76 35.90L58.66 35.80Q57.39 35.48 55.91 35.29L56.02 35.40L55.93 35.32Q56.26 37.43 56.94 40.36ZM58.65 32.59L58.63 32.57L58.66 32.60Q58.33 32.38 58.14 32.38L58.15 32.40L57.83 32.46L57.75 32.38Q57.74 31.00 57.74 29.59L57.65 29.50L57.77 29.62Q57.76 23.22 59.82 17.20L59.71 17.10L59.79 17.17Q58.90 17.31 57.45 17.69L57.47 17.71L57.44 17.68Q57.76 17.01 58.22 15.60L58.24 15.62L58.23 15.61Q56.82 15.88 54.77 16.11L54.95 16.29L54.92 16.26Q50.99 20.59 45.77 29.96L45.69 29.87L47.84 26.28L47.91 26.35Q47.30 27.18 47.04 27.76L47.13 27.85L42.60 36.79L42.78 36.97Q43.39 36.79 44.54 36.41L44.42 36.29L44.28 36.53L44.32 36.57Q44.19 37.25 43.89 38.50L43.98 38.60L43.99 38.60Q48.10 37.27 52.93 37.46L52.78 37.31L52.82 37.34Q52.91 38.35 53.10 40.33L53.12 40.35L53.06 40.29Q54.10 40.26 55.17 40.38L55.26 40.47L55.19 40.40Q55.36 41.11 55.63 42.48L55.69 42.53L55.69 42.53Q57.48 42.66 60.49 43.57L60.46 43.54L60.57 43.64Q59.56 41.50 58.65 38.22L58.72 38.29L60.10 38.69L59.98 38.57Q60.85 38.98 61.53 39.32L61.36 39.15L61.49 39.27Q60.67 36.75 60.52 35.07L60.60 35.15L60.46 35.01Q59.90 34.87 58.76 34.64L58.79 34.68L58.80 34.68Q58.58 33.40 58.58 32.52ZM50.49 32.27L50.59 32.38L50.65 32.43Q51.42 31.15 52.98 28.60L52.94 28.56L52.96 28.58Q52.85 29.41 52.81 30.37L52.81 30.37L52.88 30.44Q52.91 31.46 52.95 32.41L52.94 32.40L52.89 32.36Q52.24 32.23 51.67 32.23L51.82 32.39L51.66 32.23Q51.13 32.30 50.52 32.30Z"/><path d="M1 9 C74 2,61 13,138 39" stroke="#888" fill="none"/><path fill="#444" d="M67.61 39.93L67.44 39.77L65.62 39.89L65.60 39.87Q64.54 39.76 63.59 39.88L63.74 40.02L63.72 40.01Q64.17 33.68 64.17 29.68L64.34 29.85L64.29 29.80Q60.33 23.14 52.68 14.46L52.69 14.47L52.69 14.47Q54.38 15.36 57.73 16.16L57.78 16.21L57.73 16.16Q62.84 21.81 65.85 27.02L65.86 27.03L65.89 27.06Q68.91 21.52 73.29 16.49L73.17 16.38L73.27 16.47Q75.65 16.03 78.16 15.24L78.12 15.19L78.09 15.17Q72.07 21.29 67.20 29.71L67.16 29.67L67.14 29.64Q67.21 36.75 67.51 39.84ZM76.56 17.22L79.24 14.34L79.26 14.35Q76.30 15.66 73.18 16.11L73.16 16.09L73.16 16.10Q68.90 20.79 66.09 25.89L66.05 25.85L65.98 25.78Q63.94 22.22 60.75 18.34L60.75 18.35L60.83 18.43Q60.48 18.34 59.98 18.26L59.91 18.19L59.95 18.23Q59.38 17.55 57.86 15.87L57.79 15.80L57.85 15.86Q54.38 15.02 51.41 13.46L51.39 13.44L51.36 13.41Q59.24 22.05 64.00 29.97L63.90 29.87L63.85 29.82Q63.72 36.12 63.11 40.27L63.21 40.37L63.14 40.30Q63.86 40.26 65.31 40.15L65.40 40.24L65.37 41.24L65.46 41.33Q65.31 41.64 65.24 42.17L65.27 42.20L65.28 42.22Q68.91 42.30 70.66 42.49L70.56 42.39L70.64 42.47Q69.40 37.81 69.29 31.83L69.30 31.84L69.32 31.86Q73.58 23.29 80.13 15.95L80.09 15.91L76.58 17.23Z"/><path fill="#333" d="M23.21 28.99L23.16 28.94L23.17 28.95Q20.52 28.85 19.49 30.03L19.58 30.12L19.64 30.18Q18.50 31.25 18.50 33.87L18.54 33.92L18.55 33.93Q18.52 38.99 23.12 38.80L23.11 38.79L23.16 38.83Q25.26 39.03 26.61 37.47L26.62 37.48L26.57 37.44Q28.00 35.95 27.77 33.90L27.80 33.93L27.66 33.78Q27.80 31.38 26.93 30.35L26.77 30.19L26.89 30.31Q25.26 28.84 23.05 28.84ZM28.12 38.66L28.19 38.73L28.25 38.79Q27.07 41.27 22.39 41.27L22.22 41.10L20.79 41.11L20.95 41.27Q18.41 41.10 17.31 39.95L17.37 40.01L17.30 39.94Q16.27 38.91 16.00 36.52L16.19 36.71L16.03 36.55Q15.86 35.04 15.79 33.25L15.82 33.29L15.81 33.28Q15.82 32.34 15.67 30.39L15.76 30.49L15.73 30.46Q15.53 26.07 20.71 26.07L20.83 26.19L22.39 26.19L22.40 26.20Q25.16 26.07 27.25 27.36L27.32 27.43L27.33 27.44Q28.12 27.93 28.62 28.61L28.51 28.51L28.52 28.51Q28.77 27.70 29.31 26.06L29.33 26.09L29.37 26.13Q30.54 25.89 32.86 25.28L32.99 25.41L33.01 25.43Q30.29 29.52 30.29 34.78L30.27 34.76L30.33 34.82Q30.41 38.63 31.78 41.71L31.80 41.73L31.61 41.54Q30.53 41.29 28.62 41.07L28.60 41.04L28.66 41.10Q28.40 40.20 28.10 38.64ZM31.44 43.88L31.41 43.85L33.70 44.51L33.69 44.50Q35.00 44.89 35.99 45.35L35.81 45.17L35.99 45.35Q32.24 40.91 32.24 34.82L32.33 34.91L32.15 34.74Q32.25 30.31 34.38 26.50L34.28 26.39L34.28 26.39Q33.69 26.67 32.35 27.06L32.30 27.00L32.47 27.17Q32.72 26.32 33.59 24.79L33.63 24.83L33.56 24.76Q33.02 24.99 29.03 25.82L28.95 25.75L28.44 27.64L28.42 27.62Q26.69 25.92 22.27 25.69L22.16 25.59L22.20 25.62Q21.18 25.75 18.94 25.90L18.96 25.92L18.83 25.79Q15.30 26.29 15.41 30.33L15.31 30.22L15.41 30.33Q15.36 33.48 15.94 37.93L16.09 38.09L16.05 38.47L16.14 38.56Q16.19 39.34 16.99 40.44L16.96 40.40L17.03 40.48Q17.16 40.61 17.35 40.72L17.38 40.75L17.28 40.65Q17.63 41.23 18.01 41.80L17.99 41.78L17.99 41.78Q19.40 43.31 22.79 43.50L22.84 43.55L22.70 43.41Q24.41 43.59 24.56 43.59L24.48 43.51L26.07 43.54L26.12 43.59Q29.29 43.56 30.50 42.00L30.51 42.01L30.59 42.08Q30.91 42.66 31.51 43.96ZM24.99 31.22L24.95 31.18L24.99 31.22Q26.35 31.26 27.19 31.71L27.14 31.67L27.20 31.72Q27.46 32.48 27.46 33.93L27.35 33.81L27.46 33.93Q27.66 35.84 26.39 37.27L26.40 37.28L26.26 37.14Q25.13 38.72 23.23 38.53L23.15 38.45L23.06 38.36Q21.76 38.51 20.74 38.09L20.62 37.97L20.61 37.96Q20.55 37.25 20.55 36.03L20.45 35.94L20.47 35.96Q20.66 32.50 23.29 31.54L23.28 31.53L23.17 31.42Q24.15 31.19 24.95 31.19Z"/><path fill="#333" d="M88.57 36.84L88.71 36.98L88.59 36.86Q89.87 37.92 91.28 37.77L91.28 37.76L91.24 37.72Q94.15 37.89 94.79 34.54L94.83 34.58L94.71 34.45Q95.31 31.29 95.31 27.90L95.48 28.07L95.45 25.45L95.36 25.36Q95.42 24.17 95.08 22.91L94.96 22.79L94.96 22.79Q93.91 25.28 91.93 30.04L91.80 29.91L91.91 30.02Q89.80 34.64 88.58 36.85ZM93.69 20.46L93.71 20.48L93.72 20.48Q92.54 19.65 91.21 19.65L91.25 19.69L91.21 19.65Q89.66 19.43 88.55 20.34L88.56 20.35L88.61 20.39Q87.46 21.27 87.27 22.76L87.37 22.86L87.28 22.76Q86.98 24.18 86.95 25.66L87.00 25.72L86.87 25.59Q86.93 25.65 86.93 28.50L86.95 28.53L86.88 28.45Q86.87 30.80 87.33 34.42L87.38 34.47L87.37 34.46Q89.36 29.79 93.73 20.50ZM95.29 39.30L95.23 39.24L95.28 39.29Q93.45 40.13 91.13 40.13L91.12 40.12L89.53 40.16L89.58 40.21Q86.31 40.18 85.17 38.47L85.17 38.47L85.08 38.38Q84.41 36.34 84.33 33.41L84.36 33.43L84.31 33.38Q84.27 31.63 84.19 28.16L84.05 28.02L84.12 28.09Q84.09 26.88 83.94 23.83L83.92 23.82L83.94 23.84Q83.86 21.55 84.16 19.57L84.17 19.57L84.09 19.50Q84.64 16.62 88.98 16.39L89.03 16.44L88.95 16.36Q89.77 16.38 91.10 16.42L91.21 16.52L91.10 16.42Q96.73 16.52 97.79 19.99L97.89 20.08L97.84 20.03Q98.43 21.92 98.40 23.79L98.42 23.81L98.45 23.85Q98.35 28.81 98.28 30.03L98.31 30.07L98.32 30.07Q98.08 33.83 97.78 35.12L97.87 35.22L97.76 35.10Q97.07 38.19 95.17 39.17ZM100.19 39.02L100.14 38.97L100.22 39.05Q100.45 36.28 100.41 34.49L100.46 34.54L100.26 29.80L100.22 29.77Q100.16 26.77 99.63 21.25L99.75 21.37L99.70 21.32Q99.22 19.55 97.92 18.79L97.95 18.81L97.77 18.64Q96.28 16.15 91.10 16.00L91.19 16.09L91.12 16.02Q90.17 15.90 88.84 15.94L88.95 16.06L88.84 15.95Q84.33 16.04 83.84 19.17L83.84 19.17L83.88 19.20Q83.59 21.63 83.71 23.72L83.66 23.67L83.52 23.53Q83.98 28.03 83.95 31.38L83.92 31.35L83.86 31.29Q83.85 35.02 83.96 36.04L84.02 36.10L83.97 36.05Q84.30 39.08 85.82 39.88L85.89 39.95L85.89 39.95Q87.37 42.15 91.36 42.41L91.34 42.39L91.36 42.41Q95.00 42.70 95.65 42.66L95.60 42.61L95.67 42.68Q98.44 42.44 99.58 40.85L99.53 40.80L99.57 40.84Q100.16 40.25 100.24 39.07ZM91.58 37.30L91.50 37.22L91.62 37.35Q92.34 35.93 93.41 33.23L93.42 33.25L95.08 28.96L95.01 28.89Q95.01 30.57 94.63 33.92L94.61 33.90L94.68 33.97Q93.96 36.79 91.56 37.28ZM89.55 24.96L89.56 24.96L89.56 24.97Q90.08 23.24 90.77 22.67L90.73 22.64L90.68 22.58Q91.23 22.26 92.53 22.07L92.41 21.95L92.47 22.01Q90.74 25.65 88.87 30.29L88.93 30.35L88.84 30.26Q88.98 27.70 89.66 25.07Z"/><path fill="#222" d="M112.63 37.89L112.71 37.98L112.72 37.98Q112.90 38.85 113.44 40.87L113.50 40.93L113.54 40.98Q109.16 39.49 104.55 39.75L104.73 39.93L104.74 39.94Q100.03 40.06 96.03 42.04L96.11 42.12L95.99 42.00Q96.22 41.32 96.26 41.40L96.44 41.57L96.37 41.50Q100.02 37.46 103.94 33.05L104.10 33.21L103.98 33.09Q108.43 28.13 109.61 23.45L109.63 23.47L109.63 23.47Q110.09 21.72 108.81 20.54L108.74 20.47L108.88 20.61Q107.51 19.33 105.72 19.49L105.68 19.44L105.64 19.41Q105.34 19.41 105.00 19.41L105.00 19.41L105.06 19.47Q103.54 19.48 102.29 20.39L102.23 20.33L102.18 20.29Q100.97 21.74 101.20 24.41L101.22 24.42L101.26 24.47Q99.45 24.10 98.23 23.64L98.21 23.62L98.17 23.59Q98.07 22.27 98.00 20.82L97.97 20.79L97.81 20.64Q97.78 19.04 98.39 17.90L98.48 17.99L98.46 17.97Q100.18 16.54 103.53 16.54L103.59 16.59L105.29 16.54L105.35 16.61Q107.68 16.69 108.63 16.80L108.58 16.75L108.64 16.81Q112.84 17.09 113.11 19.53L113.25 19.67L113.14 19.56Q113.29 20.21 113.22 21.01L113.24 21.03L113.09 20.88Q113.21 21.68 113.06 22.37L112.94 22.26L112.98 22.29Q111.34 30.40 103.76 37.25L103.68 37.16L103.86 37.34Q105.27 37.19 106.64 37.19L106.57 37.13L106.64 37.19Q109.75 37.07 112.61 37.87ZM112.08 17.09L112.04 17.05L112.10 17.11Q110.55 16.51 108.84 16.44L108.80 16.40L105.43 16.27L105.27 16.10Q100.86 15.89 98.66 16.99L98.66 17.00L98.58 16.92Q97.60 18.37 97.60 20.42L97.70 20.52L97.55 20.38Q97.61 21.12 97.92 23.94L98.02 24.04L97.94 23.96Q98.53 24.25 99.71 24.56L99.70 24.54L99.61 25.49L99.67 25.55Q99.72 26.09 99.79 26.62L99.68 26.51L99.65 26.48Q100.93 26.61 103.40 26.84L103.48 26.92L103.38 26.82Q103.47 26.57 103.47 26.22L103.46 26.21L103.36 26.11Q103.42 24.34 104.64 22.99L104.59 22.94L104.67 23.02Q105.73 21.52 107.52 21.63L107.71 21.81L107.62 21.73Q108.41 21.79 109.17 21.95L109.06 21.83L109.24 22.01Q109.20 22.25 109.28 22.67L109.28 22.66L109.36 22.75Q109.28 23.04 109.20 23.39L109.26 23.45L109.34 23.52Q107.97 28.17 103.55 33.01L103.67 33.12L103.59 33.04Q101.44 35.27 95.99 41.32L96.07 41.40L96.05 41.38Q95.83 42.19 95.49 42.76L95.51 42.78L95.53 42.79Q97.02 41.82 98.55 41.28L98.69 41.43L98.66 41.40Q97.95 41.98 97.00 43.47L97.05 43.52L96.99 43.45Q96.75 43.68 96.64 44.02L96.73 44.11L96.74 44.12Q101.61 42.07 107.09 42.26L107.06 42.22L107.01 42.18Q112.84 42.48 117.41 44.84L117.37 44.81L116.32 42.61L116.39 42.68Q115.74 41.35 115.48 40.55L115.40 40.48L115.40 40.48Q114.69 40.07 113.47 39.65L113.55 39.73L113.43 39.61Q113.24 38.85 112.86 37.48L112.92 37.53L112.99 37.60Q110.70 36.95 108.41 36.76L108.41 36.76L108.55 36.89Q113.17 32.27 114.70 24.01L114.76 24.07L114.84 21.06L114.78 21.00Q114.79 19.30 113.57 18.62L113.66 18.70L113.56 18.65L113.43 18.51Q113.57 18.62 113.50 18.62L113.48 18.60L113.46 18.58Q113.18 17.69 112.07 17.08Z"/><path fill="#222" d="M79.34 40.13L79.37 40.16L79.49 40.29Q77.45 40.03 75.77 40.60L75.94 40.77L75.78 40.61Q76.31 36.99 76.42 33.87L76.53 33.97L76.58 34.03Q76.66 30.95 76.44 27.29L76.38 27.24L76.48 27.34Q75.08 26.96 74.31 26.58L74.13 26.40L73.79 23.43L73.82 23.46Q74.55 24.08 76.15 24.65L76.28 24.78L76.17 24.66Q75.91 22.51 75.50 19.77L75.62 19.89L75.52 19.79Q77.87 20.55 79.51 20.39L79.38 20.26L79.32 24.93L79.43 25.03Q80.85 24.97 82.18 24.47L82.01 24.31L82.12 24.41Q82.01 25.26 81.79 27.01L81.80 27.03L81.74 26.97Q80.40 27.49 79.37 27.49L79.24 27.36L79.21 27.33Q79.33 29.61 79.33 33.88L79.18 33.73L79.35 33.90Q79.31 38.01 79.39 40.18ZM82.43 23.74L82.60 23.91L82.44 23.74Q82.18 23.86 81.57 24.09L81.55 24.08L82.10 21.46L82.07 21.43Q81.15 21.62 79.74 21.84L79.84 21.94L79.76 21.86Q79.91 21.33 80.06 19.96L80.04 19.93L79.89 19.79Q79.34 19.92 78.77 19.92L78.76 19.91L78.76 19.91Q76.73 20.01 75.09 19.29L75.07 19.27L75.04 19.24Q75.49 21.66 75.75 24.14L75.73 24.11L75.73 24.11Q74.91 23.82 73.38 22.80L73.30 22.71L73.46 22.87Q73.70 24.06 73.93 26.76L73.97 26.81L74.04 26.88Q74.35 26.96 75.53 27.38L75.64 27.49L75.55 27.40Q75.54 28.00 75.58 29.40L75.60 29.43L76.13 29.61L76.08 29.49L76.16 29.57Q76.25 30.84 76.25 32.02L76.16 31.93L76.26 32.03Q76.29 37.00 75.49 41.34L75.46 41.32L75.31 41.17Q75.67 41.22 77.61 40.69L77.51 40.59L77.63 40.70Q77.50 41.23 77.39 42.60L77.37 42.58L77.53 42.74Q78.28 42.61 79.08 42.61L79.02 42.56L79.02 42.55Q80.79 42.61 82.43 43.19L82.50 43.26L82.50 43.26Q81.02 37.39 81.21 29.48L81.16 29.43L83.70 29.19L83.57 29.06Q83.79 28.29 83.87 27.27L83.86 27.26L83.96 25.15L83.96 25.15Q83.36 25.39 82.18 25.84L82.22 25.89L82.20 25.87Q82.56 24.58 82.48 24.24L82.42 24.18L82.49 24.25Q82.42 23.99 82.50 23.80Z"/><path fill="#111" d="M130.39 25.14L130.32 25.08L130.24 25.00Q131.11 25.33 133.09 25.33L133.12 25.36L133.21 32.61L133.12 32.53Q133.21 36.84 133.33 39.73L133.31 39.71L133.31 39.72Q133.04 39.67 132.66 39.67L132.52 39.54L132.55 39.57Q131.06 39.52 129.61 40.85L129.66 40.90L129.62 40.86Q130.58 33.41 130.39 25.15ZM130.37 19.80L129.23 17.13L129.25 17.15Q130.72 16.03 131.44 15.08L131.46 15.10L131.56 15.20Q132.46 16.90 133.87 18.58L133.98 18.69L133.95 18.66Q133.06 20.09 131.69 22.22L131.75 22.28L131.68 22.21Q130.88 21.07 130.31 19.74L130.36 19.79ZM129.23 41.88L129.23 41.88L129.19 41.83Q130.21 40.76 131.46 40.27L131.37 40.17L131.44 40.25Q131.35 40.84 131.23 42.21L131.25 42.22L131.30 42.27Q132.02 42.08 132.67 42.08L132.57 41.99L132.69 42.10Q134.85 42.05 136.25 44.03L136.34 44.12L136.29 44.07Q135.02 36.70 135.09 26.54L135.03 26.47L135.08 26.52Q134.40 26.80 133.56 26.91L133.54 26.89L133.41 24.89L133.40 24.88Q132.48 25.11 131.68 25.03L131.56 24.91L131.74 25.08Q130.78 24.89 129.90 24.39L129.86 24.35L129.90 24.39Q130.09 26.48 130.09 28.54L130.10 28.55L130.10 28.55Q130.08 35.58 129.21 41.86ZM131.72 22.86L131.78 22.92L131.93 22.69L131.96 22.42L131.97 22.42Q132.45 23.28 133.48 24.77L133.43 24.73L133.44 24.73Q134.77 22.37 136.11 18.83L136.23 18.96L136.08 18.81Q135.34 18.18 133.78 16.58L133.79 16.59L133.76 16.56Q133.49 16.60 133.23 17.06L133.37 17.20L133.38 17.21Q132.40 15.93 131.49 14.48L131.35 14.35L131.38 14.37Q130.01 16.09 128.83 16.43L128.90 16.50L128.74 16.34Q129.95 19.91 131.78 22.92Z"/></svg>