<svg xmlns="http://www.w3.org/2000/svg" width="150" height="50" viewBox="0,0,150,50"><path fill="#444" d="M88.62 19.45L88.49 19.33L88.60 19.43Q89.44 23.66 89.59 27.24L89.49 27.14L89.58 27.23Q90.64 27.26 91.70 27.26L91.70 27.26L93.87 27.22L93.83 27.18Q94.95 27.24 95.83 25.83L95.78 25.78L95.87 25.87Q96.57 24.67 96.69 23.49L96.60 23.40L96.67 23.48Q96.99 20.41 92.77 19.91L92.79 19.94L92.76 19.90Q91.10 19.88 88.47 19.31ZM89.54 29.93L89.64 30.03L89.63 30.02Q89.43 36.11 88.29 40.52L88.27 40.50L88.30 40.53Q86.80 40.90 84.48 41.96L84.48 41.97L84.51 42.00Q86.87 35.33 86.60 28.06L86.72 28.18L86.60 28.06Q86.28 20.66 83.50 14.23L83.65 14.37L83.64 14.37Q87.68 17.04 93.93 17.04L93.90 17.00L94.03 17.14Q100.04 17.10 100.19 20.56L100.16 20.53L100.23 20.59Q100.30 23.03 99.31 25.70L99.19 25.57L99.33 25.71Q98.79 26.69 97.84 27.91L97.93 28.01L97.99 28.07Q96.66 29.67 94.11 29.94L93.96 29.79L93.97 29.79Q91.75 29.86 89.50 29.89ZM95.77 32.28L95.77 32.28L95.67 32.18Q99.85 32.44 101.11 27.64L101.18 27.71L101.18 27.71Q102.12 24.05 101.97 22.03L101.89 21.96L101.82 21.88Q101.82 20.47 101.06 19.48L101.07 19.50L101.10 19.53Q100.65 19.08 100.16 18.85L100.27 18.96L100.20 18.89Q100.16 18.70 99.55 17.93L99.58 17.97L99.55 17.94Q98.08 16.70 94.12 16.70L94.01 16.58L94.01 16.59Q87.21 16.68 82.99 13.52L82.95 13.49L82.94 13.47Q86.03 20.48 86.30 27.94L86.45 28.10L86.26 27.91Q86.60 35.63 83.93 42.71L83.92 42.70L84.07 42.85Q85.13 42.20 86.12 41.82L86.11 41.81L85.76 42.98L85.69 42.91Q85.40 43.38 85.13 43.95L85.16 43.98L85.27 44.09Q87.67 43.02 90.56 42.49L90.48 42.41L90.62 42.55Q91.30 36.87 91.37 32.15L91.51 32.28L91.45 32.23Q92.60 32.19 93.59 32.19L93.56 32.17L93.52 32.12Q94.84 32.11 95.64 32.15ZM94.75 22.28L94.64 22.16L94.75 22.27Q95.30 22.33 96.29 22.56L96.13 22.40L96.21 22.48Q96.38 22.76 96.42 23.07L96.32 22.97L96.33 22.98Q96.50 23.38 96.43 23.65L96.40 23.62L96.36 23.58Q96.19 24.74 95.46 25.61L95.42 25.57L95.49 25.64Q95.02 26.81 94.00 27.00L93.95 26.96L93.90 26.91Q93.20 26.93 91.56 26.93L91.43 26.80L91.50 26.87Q91.43 24.56 91.21 22.20L91.14 22.13L93.05 22.37L92.96 22.27Q93.77 22.24 94.64 22.17Z"/><path fill="#333" d="M77.81 29.18L77.81 29.19L77.82 29.19Q75.99 29.23 74.77 30.56L74.64 30.43L74.65 30.44Q73.60 31.94 73.44 33.84L73.28 33.67L73.42 33.82Q73.26 35.98 74.48 36.99L74.42 36.93L74.44 36.95Q75.54 37.84 77.67 37.76L77.65 37.74L77.74 37.83Q80.10 37.72 81.05 36.76L80.93 36.65L81.00 36.71Q82.05 35.29 81.93 33.46L81.86 33.38L81.88 33.41Q81.79 31.56 80.71 30.37L80.72 30.38L80.75 30.41Q79.72 29.26 77.89 29.26ZM77.78 19.75L77.85 19.82L77.80 19.77Q76.43 19.69 75.10 20.19L75.07 20.16L75.08 20.17Q73.81 21.00 74.04 22.86L74.01 22.83L73.93 22.75Q74.53 26.59 77.88 26.59L77.87 26.58L77.85 26.56Q79.31 26.64 80.30 25.50L80.42 25.62L80.36 25.56Q81.26 24.34 81.30 22.77L81.42 22.89L81.47 22.94Q81.48 21.12 80.75 20.51L80.66 20.42L80.71 20.47Q79.16 19.76 77.87 19.84ZM77.61 40.40L77.43 40.22L74.52 40.36L74.38 40.22Q73.00 40.36 71.67 39.49L71.54 39.35L71.53 39.35Q70.17 38.21 70.32 35.36L70.45 35.49L70.44 35.48Q70.94 28.67 74.56 27.68L74.53 27.65L74.48 27.60Q72.12 26.61 70.78 21.24L70.75 21.21L70.77 21.23Q70.54 19.93 70.62 19.14L70.59 19.11L70.52 19.04Q70.95 17.03 74.64 16.99L74.60 16.95L74.54 16.89Q78.85 16.89 80.29 17.08L80.17 16.97L80.20 16.99Q84.06 17.54 84.51 19.55L84.58 19.62L84.54 19.58Q84.67 20.21 84.67 20.59L84.65 20.57L84.61 20.52Q84.69 21.30 84.50 21.90L84.54 21.94L84.43 21.83Q83.82 26.05 80.89 27.58L80.92 27.61L80.87 27.56Q84.52 28.51 85.02 33.80L84.91 33.70L84.83 33.62Q85.01 33.94 85.04 35.24L84.88 35.07L85.00 35.19Q85.02 37.88 83.42 38.94L83.44 38.96L83.46 38.98Q82.13 39.90 77.56 40.36ZM79.78 42.62L79.74 42.57L83.10 42.66L83.20 42.75Q84.86 42.79 86.39 42.06L86.34 42.02L86.39 42.06Q87.46 41.27 87.54 39.40L87.59 39.46L87.67 39.54Q87.57 38.30 87.19 36.36L87.26 36.42L87.22 36.38Q86.29 31.73 84.20 29.86L84.21 29.87L83.96 29.43L83.80 29.19L83.67 28.96L83.74 29.02Q85.38 27.65 86.29 23.50L86.17 23.38L86.19 23.40Q86.30 23.13 86.37 22.29L86.31 22.22L86.41 22.33Q86.34 21.50 86.27 20.89L86.37 20.99L86.33 20.95Q86.25 19.57 85.07 19.08L85.08 19.09L84.96 18.93L84.85 18.90L84.93 18.98Q84.57 18.17 83.39 17.37L83.32 17.30L83.48 17.42L83.46 17.40Q81.57 16.80 77.49 16.61L77.45 16.57L77.39 16.51Q75.76 16.32 74.39 16.43L74.54 16.59L74.40 16.44Q73.63 16.52 72.34 16.67L72.43 16.76L72.37 16.70Q70.48 17.13 70.25 18.77L70.25 18.76L70.11 18.63Q70.09 19.14 70.13 19.94L70.28 20.09L70.28 20.09Q70.26 20.50 70.84 22.86L70.80 22.82L70.83 22.85Q71.64 26.10 73.39 27.43L73.34 27.38L73.53 27.56L73.50 27.54Q70.64 28.75 70.10 33.93L70.16 33.98L70.24 34.06Q70.10 36.32 70.10 37.23L69.92 37.05L69.95 37.09Q70.03 38.87 71.21 39.79L71.35 39.93L71.25 39.83Q71.43 39.97 71.70 40.16L71.56 40.03L71.72 40.19Q72.59 42.31 79.71 42.54ZM79.43 31.52L79.36 31.46L79.48 31.57Q80.37 31.47 81.24 31.93L81.30 31.99L81.31 32.00Q81.57 32.87 81.53 33.40L81.64 33.51L81.67 33.54Q81.63 33.77 81.63 34.07L81.71 34.15L81.72 34.16Q81.65 36.45 79.36 37.29L79.33 37.25L79.31 37.23Q78.61 37.64 77.82 37.53L77.79 37.50L77.82 37.53Q76.67 37.59 75.52 37.14L75.45 37.07L75.44 37.05Q75.33 36.56 75.40 35.57L75.23 35.39L75.30 35.46Q75.39 33.81 76.59 32.59L76.61 32.61L76.73 32.73Q77.85 31.43 79.45 31.54ZM79.77 22.16L79.69 22.07L79.76 22.15Q80.42 21.89 80.95 22.04L81.08 22.17L81.09 22.98L81.00 22.89Q80.95 24.25 80.03 25.26L80.09 25.32L80.17 25.40Q79.13 26.28 77.76 26.09L77.81 26.14L77.91 26.24Q76.89 26.20 76.47 25.98L76.35 25.86L76.36 25.86Q76.36 25.64 76.24 24.95L76.23 24.94L76.34 25.04Q76.05 23.61 77.27 22.78L77.15 22.66L77.23 22.74Q78.30 22.06 79.71 22.10Z"/><path d="M11 18 C83 37,87 48,146 19" stroke="#222" fill="none"/><path fill="#333" d="M7.86 40.35L7.97 40.45L7.84 40.32Q3.82 40.61 2.83 38.28L2.83 38.29L2.91 38.37Q3.62 37.36 5.18 35.57L5.14 35.53L5.16 35.55Q5.75 37.66 8.75 37.77L8.57 37.59L8.74 37.76Q12.06 37.77 13.70 36.43L13.76 36.50L13.76 36.50Q15.10 34.83 15.02 32.13L14.95 32.05L15.02 32.12Q14.82 27.01 10.02 27.24L10.14 27.36L9.97 27.19Q7.34 27.53 5.59 28.78L5.50 28.70L5.06 28.41L4.87 28.30L4.89 28.32Q5.37 25.29 5.26 22.55L5.10 22.40L5.24 22.54Q5.02 19.80 4.68 16.49L4.80 16.61L4.68 16.50Q8.49 17.60 12.30 17.49L12.17 17.35L12.12 17.31Q15.92 17.23 19.50 15.97L19.58 16.05L18.97 17.53L18.99 17.55Q18.65 18.28 18.46 19.12L18.50 19.16L18.44 19.09Q15.47 20.27 11.58 20.27L11.48 20.17L11.47 20.16Q9.97 20.11 8.49 19.96L8.59 20.06L8.64 20.11Q8.54 20.77 8.19 25.22L8.08 25.11L8.23 25.26Q9.08 24.81 11.13 24.66L11.13 24.66L11.08 24.60Q14.79 24.81 16.24 26.49L16.28 26.54L16.18 26.43Q17.67 28.07 17.94 31.92L17.97 31.95L17.80 31.78Q18.14 36.04 16.92 38.06L16.85 37.99L16.95 38.09Q14.89 39.95 11.58 40.18L11.67 40.27L11.55 40.15Q10.60 40.27 7.94 40.42ZM14.00 42.71L14.01 42.72L13.97 42.68Q17.34 42.71 19.25 41.60L19.24 41.60L19.24 41.60Q20.33 40.17 20.33 38.08L20.33 38.08L20.19 37.94Q20.23 34.90 19.28 30.79L19.34 30.85L19.31 30.82Q19.01 29.15 17.79 27.74L17.70 27.64L17.76 27.75L17.56 27.46L17.26 27.32L17.28 27.34Q16.91 26.55 16.26 25.87L16.32 25.93L16.27 25.91L16.31 25.95Q14.78 24.27 11.09 24.27L10.98 24.16L10.84 24.29L10.76 24.21Q10.77 23.57 10.96 22.47L11.11 22.62L11.00 22.51Q16.09 22.73 20.13 21.09L19.96 20.92L20.02 20.98Q20.39 19.52 21.34 16.71L21.45 16.82L19.24 17.65L19.31 17.72Q19.68 16.57 20.18 15.43L20.14 15.40L20.22 15.47Q16.36 16.90 12.25 16.98L12.19 16.93L12.20 16.93Q8.14 17.10 4.18 15.99L4.26 16.08L4.09 15.91Q4.92 20.46 4.92 24.88L4.90 24.86L4.81 24.77Q4.86 26.72 4.75 28.63L4.77 28.65L4.68 28.56Q5.03 28.83 5.60 29.14L5.62 29.15L5.60 29.14Q5.91 28.88 6.56 28.53L6.49 28.47L6.56 28.53Q6.54 29.31 6.31 30.83L6.26 30.79L6.29 30.82Q6.81 31.10 7.22 31.33L7.12 31.23L7.14 31.25Q9.86 29.44 11.72 29.44L11.86 29.57L11.86 29.58Q13.03 29.41 14.21 30.06L14.38 30.22L14.22 30.07Q14.73 31.26 14.77 32.22L14.63 32.07L14.70 32.15Q14.70 34.66 13.68 35.77L13.66 35.75L13.71 35.80Q12.41 37.09 10.16 37.32L10.14 37.29L10.07 37.23Q9.12 37.30 8.44 37.23L8.39 37.19L8.45 37.24Q7.56 37.08 6.80 36.74L6.92 36.85L6.92 36.66L6.69 36.66L6.68 36.66Q6.02 36.29 5.48 34.96L5.43 34.91L5.45 34.92Q4.05 36.27 2.37 38.40L2.39 38.41L2.35 38.38Q2.78 39.15 3.62 40.10L3.54 40.02L3.45 39.93Q4.49 41.74 7.31 42.23L7.40 42.32L7.49 42.41Q8.55 42.52 13.92 42.63Z"/><path fill="#222" d="M57.80 15.95L57.67 15.81L57.77 15.92Q59.57 20.68 60.14 25.86L60.23 25.96L60.13 25.86Q63.95 21.83 69.85 16.99L69.84 16.98L69.70 16.84Q72.93 16.57 75.56 15.77L75.65 15.87L69.14 21.54L69.10 21.50Q65.71 24.47 62.86 27.32L62.81 27.27L62.80 27.26Q70.72 36.36 75.78 41.08L75.86 41.16L75.71 41.01Q72.65 40.12 70.33 39.97L70.42 40.06L70.33 39.97Q64.63 34.65 60.32 28.83L60.21 28.72L60.24 28.74Q60.45 35.46 58.58 40.79L58.46 40.67L58.51 40.71Q58.39 40.86 57.90 41.05L57.83 40.99L57.69 41.04L57.73 41.08Q57.63 41.20 55.08 42.12L55.06 42.10L55.11 42.15Q58.04 35.56 57.69 28.10L57.71 28.12L57.66 28.07Q57.28 20.68 53.74 14.17L53.73 14.17L54.31 14.47L54.80 14.85L54.85 14.86L54.81 14.82Q55.56 15.23 57.77 15.92ZM58.02 15.60L57.94 15.52L57.90 15.48Q55.70 14.99 53.07 13.46L52.97 13.37L53.11 13.50Q57.43 20.83 57.43 29.78L57.46 29.81L57.30 29.64Q57.41 36.76 54.44 42.81L54.46 42.83L56.48 41.96L56.47 41.95Q55.99 42.88 55.30 44.17L55.42 44.29L55.28 44.15Q57.60 43.42 59.54 43.00L59.56 43.02L59.66 42.89L59.55 42.79Q59.89 42.82 60.46 42.67L60.43 42.64L60.40 42.61Q62.04 36.67 62.15 31.87L62.13 31.85L62.25 31.97Q64.40 34.54 66.22 36.40L66.05 36.23L66.13 36.30Q67.22 37.32 70.22 40.29L70.31 40.37L70.28 40.34L70.35 40.41Q71.40 41.28 73.27 42.88L73.14 42.74L73.30 42.91Q77.03 43.47 80.49 45.19L80.57 45.26L80.65 45.34Q71.23 36.64 64.98 29.22L64.99 29.23L65.08 29.32Q69.43 24.99 78.19 16.39L78.24 16.44L78.29 16.49Q75.71 17.60 73.69 17.98L73.64 17.93L73.63 17.92Q74.94 17.02 77.26 15.00L77.16 14.90L77.24 14.98Q73.00 16.26 69.65 16.45L69.72 16.53L69.76 16.56Q66.70 18.64 61.82 23.32L61.96 23.45L61.85 23.34Q61.58 20.87 61.01 18.32L60.87 18.18L60.89 18.20Q59.73 18.07 58.74 17.72L58.75 17.73L58.75 17.74Q58.60 17.05 58.03 15.60Z"/><path fill="#444" d="M39.48 29.98L39.37 29.87L39.35 29.85Q36.94 29.84 35.61 31.06L35.45 30.90L35.57 31.02Q34.27 32.26 34.57 34.78L34.50 34.71L34.50 34.71Q34.84 37.26 36.06 38.51L35.97 38.43L35.96 38.42Q37.18 39.90 39.32 39.83L39.26 39.77L39.27 39.78Q39.78 39.73 39.98 39.73L40.08 39.83L40.06 39.81Q43.62 39.22 43.73 34.61L43.63 34.51L43.63 34.51Q43.76 32.20 43.07 31.40L43.07 31.40L43.02 31.35Q42.01 30.11 39.46 29.96ZM42.80 41.71L42.74 41.65L42.72 41.63Q41.43 42.24 39.87 42.17L39.92 42.22L39.78 42.08Q35.99 42.33 34.70 39.74L34.76 39.80L34.63 39.68Q34.44 45.00 33.11 49.27L33.23 49.39L33.12 49.28Q31.37 49.82 29.74 50.54L29.82 50.62L29.72 50.53Q32.29 44.56 32.02 37.59L32.05 37.62L32.09 37.66Q31.92 30.91 29.03 24.86L28.89 24.72L28.90 24.73Q30.85 25.91 32.56 26.37L32.66 26.47L33.00 27.77L33.09 27.85Q33.12 28.11 33.38 29.21L33.37 29.20L33.42 29.25Q34.56 27.31 38.14 27.12L38.03 27.00L38.10 27.07Q39.04 27.10 39.91 27.10L39.82 27.01L40.35 27.05L40.32 27.02Q40.40 26.98 40.59 27.01L40.59 27.02L40.94 27.06L41.00 27.13Q43.01 27.34 43.73 27.57L43.72 27.55L43.66 27.50Q45.21 28.02 46.09 28.97L46.08 28.96L46.04 28.93Q46.85 30.08 46.82 31.49L46.97 31.64L46.86 31.53Q46.99 34.51 46.19 37.18L46.05 37.05L46.20 37.20Q45.14 40.66 42.78 41.69ZM47.07 42.32L46.96 42.18L47.07 42.29Q48.06 40.20 48.37 36.09L48.31 36.03L48.38 36.10Q48.65 34.46 48.65 33.21L48.62 33.18L48.52 33.08Q48.58 31.62 47.82 30.21L47.92 30.31L47.79 30.18Q47.31 29.66 46.82 29.28L46.90 29.37L46.72 29.07L46.61 28.85L46.59 28.71L46.40 28.52Q44.81 26.63 40.47 26.63L40.46 26.62L39.85 26.62L39.84 26.60Q35.17 26.59 33.54 28.19L33.47 28.12L33.63 28.28Q33.26 27.57 33.11 27.07L33.21 27.18L32.92 26.08L32.99 26.16Q30.42 25.45 28.22 23.97L28.36 24.11L28.19 23.94Q31.50 30.30 31.81 37.53L31.70 37.43L31.79 37.52Q31.97 44.66 29.11 51.13L29.27 51.29L31.32 50.49L31.27 50.43Q31.04 51.19 30.35 52.75L30.28 52.69L30.27 52.67Q32.90 51.53 35.22 51.19L35.21 51.18L35.38 51.35Q36.37 46.40 36.52 42.67L36.65 42.79L36.47 42.62Q38.02 44.24 41.64 44.47L41.62 44.46L41.59 44.42Q45.54 44.68 46.99 42.25L46.92 42.17ZM41.25 32.09L41.33 32.17L41.40 32.24Q42.00 32.11 43.10 32.46L43.10 32.46L42.97 32.33Q43.32 33.40 43.28 34.58L43.31 34.61L43.27 34.57Q43.24 35.45 43.05 36.09L43.14 36.19L43.02 36.07Q42.33 38.99 39.81 39.30L39.96 39.45L40.05 39.42L39.89 39.26Q39.87 39.31 39.75 39.35L39.73 39.33L39.36 39.49L39.30 39.44Q38.15 39.46 37.16 38.96L37.18 38.99L36.64 36.74L36.63 36.72Q36.54 34.47 37.84 33.44L37.81 33.41L37.96 33.57Q38.91 32.42 41.31 32.15Z"/><path fill="#222" d="M108.91 30.88L108.97 30.94L108.83 30.80Q108.90 29.76 106.96 29.04L106.96 29.05L106.93 29.01Q106.42 28.81 105.89 28.81L105.81 28.73L105.86 28.78Q104.51 28.81 103.45 29.38L103.46 29.39L103.51 29.44Q101.98 30.01 102.10 31.22L102.16 31.29L102.06 31.19Q102.41 34.01 102.26 36.26L102.41 36.41L102.29 36.29Q102.19 38.78 101.47 41.29L101.52 41.35L101.43 41.26Q99.29 41.74 98.11 42.16L98.20 42.25L98.11 42.16Q99.73 38.57 99.73 34.57L99.80 34.64L99.84 34.67Q99.73 29.12 97.14 24.67L97.12 24.65L97.19 24.72Q98.31 25.12 100.71 25.84L100.79 25.92L100.86 25.99Q100.99 26.54 101.37 28.06L101.50 28.19L101.56 28.25Q102.74 26.00 106.62 26.08L106.71 26.17L106.66 26.12Q108.09 26.10 108.88 26.21L109.05 26.38L108.89 26.21Q111.96 26.70 112.04 28.72L112.05 28.73L111.96 28.64Q112.09 29.64 111.90 30.67L111.93 30.71L111.80 30.57Q111.47 33.21 111.66 36.22L111.51 36.07L111.59 36.15Q111.81 39.07 112.80 41.62L112.72 41.54L112.81 41.63Q111.07 41.18 109.35 41.03L109.31 40.99L109.39 41.07Q108.78 38.55 108.70 35.89L108.71 35.89L108.83 36.02Q108.77 33.29 108.99 30.96ZM108.92 41.32L109.00 41.40L108.86 41.26Q109.70 41.30 110.99 41.53L111.06 41.60L111.40 42.62L111.47 42.70Q111.65 43.17 111.87 43.70L111.73 43.56L111.85 43.68Q114.16 44.13 116.87 45.31L116.77 45.21L116.85 45.30Q114.51 42.19 113.83 38.39L113.76 38.32L113.72 38.27Q113.39 36.16 113.51 32.47L113.55 32.51L113.46 32.43Q113.52 32.18 113.56 31.38L113.64 31.46L113.55 31.38Q113.62 30.75 113.54 30.26L113.59 30.31L113.65 30.36Q113.41 28.56 112.30 28.07L112.30 28.06L112.39 28.16Q112.26 27.34 111.50 26.73L111.52 26.75L111.54 26.77Q109.63 25.55 106.59 25.63L106.63 25.66L106.60 25.64Q104.74 25.68 103.90 25.87L103.99 25.96L103.93 25.90Q102.49 26.25 101.54 27.16L101.56 27.18L101.50 27.12Q101.51 26.71 101.13 25.69L101.09 25.65L101.18 25.73Q98.24 24.93 96.42 23.94L96.52 24.04L96.47 24.00Q99.56 28.92 99.56 34.67L99.54 34.65L99.49 34.60Q99.50 38.99 97.60 42.83L97.59 42.82L97.59 42.82Q98.18 42.42 99.48 42.04L99.49 42.06L99.48 42.04Q99.04 43.36 98.51 44.35L98.57 44.41L98.59 44.43Q99.97 43.94 103.51 43.37L103.55 43.41L103.58 43.44Q104.42 38.15 104.30 33.31L104.28 33.29L104.37 33.38Q104.37 32.59 105.55 31.86L105.50 31.81L105.53 31.84Q106.48 31.11 107.58 31.00L107.63 31.04L107.58 31.00Q108.04 30.96 108.45 31.15L108.43 31.12L108.54 31.23Q108.27 33.66 108.31 36.21L108.40 36.31L108.40 36.31Q108.43 38.81 108.92 41.32Z"/><path fill="#222" d="M27.91 27.26L27.73 27.07L27.84 27.19Q28.54 27.08 29.95 26.93L30.08 27.07L30.09 27.07Q29.96 27.63 29.96 28.27L29.94 28.26L30.09 29.66L29.95 29.53Q29.22 29.64 28.39 29.71L28.34 29.67L28.36 29.69Q27.48 29.68 26.65 29.65L26.64 29.64L26.70 29.70Q23.75 35.78 20.32 40.38L20.33 40.38L20.41 40.46Q17.94 41.15 16.64 41.76L16.61 41.73L16.58 41.70Q20.57 35.87 23.61 29.59L23.73 29.70L21.15 29.74L21.06 29.66Q21.15 28.42 21.04 27.08L21.05 27.10L20.98 27.02Q22.85 27.15 24.91 27.15L24.88 27.12L26.82 23.47L26.93 23.57Q27.75 21.50 28.97 19.90L28.97 19.91L29.09 20.02Q27.57 20.21 25.97 20.21L25.84 20.08L25.83 20.08Q19.88 20.22 16.11 18.01L15.97 17.86L15.44 16.27L15.32 16.15Q15.09 15.42 14.71 14.55L14.64 14.48L14.74 14.58Q19.07 17.20 24.78 17.43L24.80 17.44L24.62 17.27Q29.74 17.48 34.88 15.50L34.89 15.51L34.88 15.50Q34.76 15.99 34.27 16.86L34.26 16.86L34.25 16.84Q30.73 21.70 27.87 27.22ZM35.80 18.17L35.88 18.25L36.92 16.28L36.85 16.21Q35.87 16.67 34.19 17.40L34.17 17.38L34.46 17.17L34.36 17.07Q34.56 17.00 34.67 16.89L34.71 16.93L34.77 16.99Q34.97 16.12 35.69 14.79L35.80 14.89L35.69 14.78Q30.53 17.24 24.78 17.01L24.70 16.93L24.73 16.96Q18.68 16.66 13.92 13.69L13.97 13.73L14.02 13.79Q15.00 15.60 15.83 18.27L15.80 18.23L15.75 18.18Q16.93 18.90 17.73 19.20L17.74 19.22L17.71 19.19Q17.77 19.44 18.22 21.30L18.40 21.48L18.30 21.38Q21.38 22.55 26.90 22.40L27.08 22.58L27.01 22.51Q26.72 23.10 24.75 26.87L24.72 26.85L24.65 26.78Q22.69 26.87 20.71 26.68L20.64 26.61L20.64 26.61Q20.66 27.39 20.66 28.27L20.66 28.26L20.69 30.02L22.44 30.08L22.43 31.49L22.37 31.42Q18.45 38.81 15.67 42.39L15.78 42.50L15.64 42.35Q17.34 41.70 18.97 41.20L18.85 41.08L18.89 41.11Q18.33 42.15 16.96 43.87L16.83 43.74L16.93 43.84Q20.06 42.70 22.50 42.48L22.43 42.42L22.56 42.54Q25.41 38.69 28.53 31.91L28.61 31.99L31.93 32.08L31.95 32.10Q31.84 31.15 31.84 30.23L31.99 30.38L31.86 28.46L31.94 28.54Q31.54 28.41 30.98 28.45L31.03 28.49L31.04 28.50Q30.50 28.55 30.23 28.55L30.18 28.50L30.20 28.52Q30.31 28.52 30.35 28.36L30.33 28.34L30.27 28.02L30.34 28.09Q32.85 22.94 35.93 18.30Z"/><path fill="#111" d="M115.50 36.87L115.51 36.87L115.50 36.87Q116.60 37.73 118.01 37.58L118.16 37.74L118.07 37.64Q120.94 37.77 121.58 34.42L121.60 34.43L121.66 34.50Q122.33 31.40 122.33 28.01L122.32 28.00L122.33 25.42L122.35 25.44Q122.38 24.21 122.04 22.96L121.98 22.90L121.92 22.84Q120.73 25.19 118.75 29.95L118.78 29.98L118.82 30.02Q116.83 34.76 115.61 36.97ZM120.67 20.53L120.62 20.48L120.60 20.45Q119.46 19.65 118.12 19.65L118.00 19.53L118.07 19.60Q116.64 19.50 115.53 20.41L115.45 20.33L115.44 20.32Q114.33 21.22 114.14 22.71L114.28 22.85L114.24 22.81Q113.78 24.06 113.74 25.55L113.90 25.70L113.75 25.56Q113.89 25.70 113.89 28.55L113.86 28.52L113.91 28.57Q113.76 30.79 114.22 34.40L114.35 34.53L114.21 34.39Q116.14 29.67 120.52 20.38ZM122.13 39.23L122.11 39.21L122.12 39.22Q120.42 40.18 118.10 40.18L118.02 40.11L116.37 40.10L116.33 40.06Q113.18 40.14 112.04 38.43L112.08 38.46L111.96 38.35Q111.15 36.17 111.08 33.24L111.11 33.27L111.12 33.28Q111.09 31.54 111.01 28.07L111.12 28.18L110.99 28.05Q111.04 26.93 110.89 23.88L110.81 23.80L110.94 23.93Q110.89 21.67 111.20 19.69L111.14 19.64L111.03 19.53Q111.67 16.74 116.01 16.52L115.90 16.40L115.96 16.46Q116.60 16.30 117.93 16.34L118.09 16.50L117.98 16.39Q123.65 16.54 124.72 20.01L124.82 20.11L124.73 20.01Q125.36 21.94 125.33 23.81L125.37 23.86L125.32 23.81Q125.32 28.87 125.25 30.09L125.22 30.06L125.23 30.07Q124.95 33.79 124.64 35.08L124.62 35.06L124.70 35.13Q124.09 38.30 122.19 39.29ZM127.10 39.02L127.15 39.07L127.05 38.97Q127.28 36.20 127.24 34.41L127.36 34.52L127.12 29.75L127.18 29.82Q127.21 26.91 126.68 21.39L126.57 21.29L126.50 21.21Q126.07 19.49 124.77 18.73L124.70 18.66L124.76 18.72Q123.19 16.16 118.01 16.00L118.03 16.02L117.95 15.94Q117.15 15.98 115.82 16.01L115.86 16.06L115.92 16.11Q111.22 16.03 110.73 19.15L110.88 19.30L110.83 19.25Q110.42 21.54 110.53 23.64L110.47 23.57L110.49 23.59Q110.94 28.08 110.90 31.43L110.86 31.39L110.76 31.29Q110.70 34.96 110.81 35.98L110.91 36.08L110.91 36.08Q111.31 39.18 112.83 39.98L112.78 39.93L112.89 40.04Q114.36 42.24 118.36 42.50L118.21 42.35L118.35 42.49Q121.91 42.70 122.55 42.66L122.43 42.54L122.47 42.58Q125.28 42.38 126.42 40.78L126.49 40.85L126.52 40.88Q127.00 40.18 127.08 39.00ZM118.50 37.31L118.42 37.23L118.54 37.35Q119.27 35.95 120.33 33.24L120.33 33.24L121.95 28.93L121.99 28.96Q121.90 30.55 121.52 33.90L121.54 33.92L121.43 33.81Q120.87 36.79 118.48 37.29ZM116.48 24.98L116.44 24.94L116.45 24.94Q117.05 23.30 117.73 22.73L117.58 22.57L117.71 22.70Q118.01 22.13 119.31 21.94L119.30 21.94L119.40 22.04Q117.65 25.65 115.78 30.29L115.82 30.33L115.73 30.24Q115.74 27.55 116.42 24.92Z"/><path fill="#333" d="M52.16 28.86L52.19 28.89L52.12 28.83Q49.61 28.82 48.31 29.97L48.32 29.97L48.31 29.96Q46.91 31.22 47.10 33.73L47.03 33.67L47.06 33.70Q47.28 36.58 48.46 37.65L48.45 37.64L48.36 37.55Q49.91 38.91 52.00 38.76L51.97 38.72L52.05 38.80Q54.14 38.76 55.55 37.50L55.52 37.48L55.55 37.51Q56.89 36.37 57.08 33.82L57.14 33.88L57.03 33.77Q57.54 28.99 52.17 28.87ZM52.00 41.38L52.03 41.41L50.33 41.27L50.38 41.32Q47.53 41.32 46.04 39.91L46.14 40.02L46.02 39.89Q44.97 38.80 44.70 36.86L44.84 37.00L44.83 36.99Q44.55 35.76 44.40 33.55L44.52 33.67L44.58 33.73Q44.37 32.60 44.25 30.36L44.24 30.34L44.39 30.49Q44.14 28.46 45.09 27.32L45.16 27.38L45.27 27.49Q46.98 25.97 51.70 26.12L51.59 26.01L51.69 26.11Q56.50 26.16 58.33 27.68L58.44 27.79L58.46 27.82Q59.85 28.94 59.66 32.14L59.60 32.08L59.62 32.10Q59.43 35.67 59.35 36.09L59.32 36.06L59.29 36.03Q59.03 38.36 57.70 39.54L57.73 39.57L57.74 39.58Q55.80 41.37 51.99 41.37ZM56.62 43.72L56.61 43.70L56.56 43.65Q58.19 43.84 60.09 43.68L60.12 43.71L59.96 43.56Q60.54 43.56 60.54 43.41L60.58 43.44L60.46 43.33Q60.54 43.33 60.50 43.18L60.43 43.11L60.48 43.16Q60.47 43.03 60.47 42.92L60.38 42.83L60.52 42.97Q60.48 42.66 60.82 42.36L60.83 42.36L60.83 42.37Q61.76 41.28 61.76 39.37L61.66 39.28L61.66 39.27Q61.65 38.31 61.55 35.90L61.51 35.85L61.62 35.97Q61.49 33.51 61.34 32.40L61.24 32.31L61.40 32.47Q60.95 30.27 60.04 29.13L59.99 29.08L59.67 28.87L59.70 28.90Q59.55 28.26 58.75 27.35L58.85 27.44L58.76 27.36Q56.58 25.74 51.67 25.74L51.62 25.70L49.77 25.60L49.76 25.59Q46.53 25.66 44.81 27.04L44.81 27.03L44.80 27.03Q44.00 28.21 44.04 30.22L43.88 30.07L43.91 30.09Q44.06 30.66 44.19 31.92L44.11 31.83L44.22 31.95Q44.22 33.07 44.19 33.53L44.20 33.54L44.23 33.58Q44.36 36.52 44.43 36.97L44.57 37.11L44.46 37.00Q44.81 39.10 45.72 40.24L45.72 40.24L45.86 40.46L46.01 40.60Q46.80 43.03 50.53 43.45L50.58 43.50L50.55 43.46Q51.37 43.53 56.62 43.72ZM53.86 31.01L53.93 31.09L54.02 31.18Q54.91 31.23 56.58 31.76L56.40 31.58L56.44 31.62Q56.84 32.40 56.80 33.88L56.89 33.97L56.70 33.78Q56.72 37.38 53.82 38.14L53.72 38.03L53.80 38.12Q52.97 38.20 51.94 38.32L51.94 38.31L52.10 38.47Q50.92 38.39 49.21 37.79L49.36 37.94L49.23 37.81Q49.10 37.22 49.13 35.73L48.96 35.56L49.01 35.61Q49.22 33.42 50.59 32.39L50.54 32.34L50.52 32.32Q51.30 31.31 53.85 31.01Z"/><path fill="#444" d="M139.55 37.90L139.48 37.83L139.47 37.82Q139.79 38.83 140.33 40.85L140.47 41.00L140.44 40.96Q136.18 39.60 131.57 39.86L131.62 39.91L131.46 39.75Q126.91 40.03 122.91 42.01L123.06 42.16L122.98 42.08Q123.20 41.38 123.23 41.46L123.25 41.48L123.34 41.56Q127.05 37.58 130.97 33.17L130.90 33.10L130.94 33.14Q135.39 28.19 136.57 23.51L136.57 23.51L136.57 23.50Q136.92 21.65 135.65 20.47L135.68 20.50L135.77 20.59Q134.49 19.41 132.70 19.56L132.69 19.54L132.72 19.58Q132.23 19.39 131.89 19.39L131.88 19.39L131.99 19.49Q130.47 19.49 129.21 20.41L129.10 20.30L129.10 20.30Q127.92 21.79 128.15 24.45L128.16 24.46L128.13 24.43Q126.22 23.96 125.00 23.50L125.11 23.61L125.07 23.58Q124.85 22.13 124.77 20.69L124.74 20.65L124.83 20.74Q124.81 19.16 125.41 18.02L125.29 17.89L125.29 17.89Q127.23 16.67 130.58 16.67L130.43 16.53L132.27 16.61L132.32 16.66Q134.62 16.72 135.57 16.83L135.52 16.78L135.40 16.66Q139.89 17.22 140.15 19.66L140.11 19.62L140.14 19.65Q140.22 20.23 140.15 21.03L140.08 20.96L140.12 21.00Q140.05 21.61 139.90 22.30L139.83 22.23L139.95 22.35Q138.33 30.48 130.75 37.33L130.59 37.17L130.74 37.32Q132.01 37.03 133.38 37.03L133.54 37.19L133.41 37.05Q136.74 37.15 139.59 37.95ZM139.07 17.17L139.06 17.16L139.06 17.16Q137.29 16.34 135.57 16.26L135.60 16.29L132.20 16.13L132.23 16.16Q127.86 15.97 125.65 17.07L125.63 17.05L125.62 17.04Q124.48 18.34 124.48 20.40L124.57 20.49L124.53 20.45Q124.58 21.18 124.88 24.00L124.83 23.94L124.86 23.98Q125.47 24.28 126.65 24.58L126.61 24.55L126.56 25.52L126.48 25.45Q126.47 25.92 126.54 26.46L126.54 26.45L126.64 26.55Q127.77 26.54 130.24 26.77L130.44 26.96L130.42 26.95Q130.40 26.58 130.40 26.24L130.23 26.07L130.30 26.14Q130.37 24.39 131.59 23.03L131.50 22.94L131.56 23.01Q132.64 21.51 134.43 21.63L134.59 21.79L134.47 21.67Q135.23 21.71 136.00 21.86L136.13 21.99L136.10 21.96Q136.21 22.34 136.29 22.76L136.19 22.66L136.14 22.62Q136.29 23.14 136.21 23.49L136.21 23.48L136.12 23.40Q134.86 28.15 130.44 32.98L130.53 33.07L130.46 33.00Q128.34 35.26 122.90 41.31L123.00 41.42L123.03 41.45Q122.86 42.30 122.52 42.87L122.33 42.69L122.33 42.69Q124.00 41.88 125.52 41.35L125.54 41.36L125.64 41.47Q124.92 42.04 123.96 43.52L123.80 43.36L123.83 43.39Q123.82 43.83 123.70 44.18L123.70 44.17L123.54 44.01Q128.46 42.01 133.94 42.20L133.98 42.23L134.08 42.33Q139.71 42.44 144.28 44.80L144.27 44.79L143.22 42.60L143.20 42.58Q142.68 41.38 142.41 40.58L142.25 40.42L142.31 40.47Q141.61 40.08 140.40 39.66L140.30 39.57L140.45 39.72Q140.26 38.96 139.88 37.59L139.93 37.64L139.76 37.47Q137.74 37.08 135.45 36.89L135.34 36.77L135.38 36.82Q140.00 32.18 141.52 23.92L141.48 23.88L141.70 21.02L141.80 21.12Q141.71 19.31 140.49 18.63L140.46 18.60L140.43 18.61L140.51 18.69Q140.30 18.44 140.22 18.44L140.21 18.43L140.30 18.52Q140.10 17.71 139.00 17.10Z"/></svg>