<svg xmlns="http://www.w3.org/2000/svg" width="150" height="50" viewBox="0,0,150,50"><path fill="#333" d="M32.78 30.41L32.68 30.31L32.68 30.31Q32.92 30.06 32.88 29.64L32.75 29.51L32.81 29.57Q32.75 29.21 32.45 29.02L32.42 28.99L32.32 28.89Q31.69 28.41 30.82 28.56L30.86 28.61L30.76 28.51Q29.71 28.52 28.07 29.63L28.14 29.70L28.15 29.71Q26.77 30.65 26.77 31.83L26.72 31.78L26.64 31.70Q26.68 32.99 26.68 36.31L26.70 36.32L26.75 36.38Q26.65 38.87 26.81 40.89L26.83 40.91L26.75 40.83Q25.17 40.96 25.17 40.96L25.09 40.89L25.13 40.92Q24.07 40.82 23.35 40.90L23.30 40.85L23.38 40.92Q23.87 38.48 23.95 36.24L23.89 36.18L23.92 36.21Q24.10 31.59 23.45 30.30L23.35 30.20L23.43 30.27Q23.12 29.66 22.55 29.36L22.62 29.42L22.54 29.35Q21.61 28.53 20.05 28.42L20.21 28.58L20.19 28.56Q18.21 28.37 17.68 29.97L17.64 29.93L17.65 29.94Q17.53 30.46 17.64 30.96L17.61 30.93L17.46 30.78Q18.25 33.66 17.91 36.44L17.79 36.32L17.77 36.31Q17.61 39.27 16.21 41.71L16.08 41.58L16.17 41.67Q15.14 41.82 13.05 42.24L13.07 42.27L13.10 42.30Q15.61 39.06 15.61 34.76L15.44 34.58L15.62 34.76Q15.47 28.75 11.44 24.53L11.44 24.53L11.50 24.59Q12.19 24.83 13.15 25.06L13.23 25.14L15.01 25.59L14.99 25.56Q15.35 26.08 16.22 27.75L16.33 27.86L16.38 27.91Q16.37 25.85 18.81 25.81L18.97 25.97L18.82 25.81Q19.11 25.92 20.10 26.00L20.10 26.00L19.98 25.87Q25.08 26.29 26.22 29.11L26.10 28.98L26.24 29.13Q27.84 26.35 32.87 25.82L32.95 25.90L32.87 25.83Q33.65 25.73 34.53 25.84L34.42 25.74L34.60 25.92Q36.79 26.08 36.63 27.64L36.65 27.66L36.62 27.63Q36.41 28.14 36.14 28.90L36.20 28.96L36.23 28.99Q34.78 31.96 35.01 35.50L35.01 35.50L35.15 35.64Q35.19 38.95 37.09 41.77L37.15 41.83L37.07 41.75Q35.43 41.44 33.60 41.21L33.62 41.22L33.57 41.18Q32.48 38.76 32.29 35.98L32.28 35.97L32.23 35.92Q32.01 33.03 32.66 30.29ZM33.33 41.55L33.42 41.64L33.46 41.68Q34.13 41.70 35.46 41.89L35.56 41.99L35.53 41.96Q36.01 42.63 37.15 44.04L37.12 44.00L37.20 44.08Q40.03 44.55 42.12 45.20L42.16 45.23L42.16 45.24Q37.12 41.31 36.86 34.80L36.88 34.82L36.94 34.88Q36.77 32.69 37.38 30.79L37.37 30.77L37.33 30.74Q37.61 29.91 37.61 29.19L37.71 29.29L37.57 29.15Q37.66 28.33 37.05 27.76L37.06 27.77L37.08 27.75L37.04 27.71Q37.14 27.24 37.07 26.74L37.09 26.77L36.99 26.67Q36.97 26.23 36.51 25.96L36.43 25.88L36.50 25.95Q35.75 25.38 34.87 25.35L34.87 25.35L34.91 25.39Q32.14 25.35 29.47 26.31L29.33 26.17L29.29 26.13Q27.45 26.95 26.27 28.36L26.14 28.23L26.16 28.25Q24.61 25.78 19.77 25.44L19.80 25.47L19.85 25.52Q19.15 25.46 18.73 25.46L18.75 25.48L18.74 25.48Q16.74 25.53 16.14 26.79L15.97 26.63L16.12 26.77Q15.73 26.19 15.04 25.13L15.17 25.25L15.02 25.10Q12.65 24.68 10.67 24.03L10.62 23.98L10.56 23.92Q15.29 28.38 15.29 34.66L15.35 34.72L15.33 34.71Q15.34 39.43 12.48 42.89L12.36 42.78L12.39 42.80Q12.88 42.69 13.38 42.61L13.33 42.56L14.35 42.44L14.28 42.37Q13.71 43.55 12.60 44.77L12.43 44.60L12.62 44.78Q14.12 44.34 17.24 43.73L17.25 43.74L17.34 43.83Q19.99 39.70 19.99 34.79L19.96 34.77L19.87 34.67Q19.96 33.97 19.89 33.13L19.93 33.18L19.85 33.09Q19.70 32.26 20.69 31.46L20.68 31.45L20.78 31.59L20.79 31.60Q21.32 31.06 22.50 30.94L22.45 30.89L22.48 30.92Q22.96 30.99 23.27 30.99L23.42 31.15L23.43 31.35L23.44 31.36Q23.68 34.03 23.57 36.39L23.62 36.44L23.52 36.34Q23.46 38.68 22.96 41.34L22.83 41.22L22.86 41.24Q24.01 41.36 24.01 41.36L23.89 41.25L23.86 41.21Q25.29 41.20 24.95 41.20L25.01 41.26L24.91 41.16Q25.08 41.82 25.04 42.28L25.04 42.28L25.07 42.31Q25.00 42.74 25.00 43.23L24.97 43.20L27.40 43.15L27.36 43.11Q28.76 43.26 30.01 43.33L29.93 43.24L30.01 43.33Q28.51 39.66 28.70 33.72L28.72 33.74L28.72 33.74Q28.58 32.45 29.76 31.69L29.90 31.84L29.79 31.73Q30.84 31.07 32.10 30.88L31.96 30.74L32.40 30.87L32.33 30.81Q31.97 32.80 31.97 34.78L31.91 34.72L31.99 34.80Q31.93 38.51 33.45 41.67ZM27.98 30.18L28.00 29.97L27.88 30.19L27.97 30.17Z"/><path fill="#111" d="M10.84 19.76L10.69 19.61L10.71 19.63Q8.82 19.83 7.87 19.99L7.84 19.96L7.79 19.90Q6.18 20.16 4.96 20.69L4.92 20.65L5.00 20.73Q1.51 22.19 1.39 26.87L1.35 26.83L1.36 26.84Q1.34 29.56 1.98 32.49L1.98 32.49L1.98 32.48Q2.80 36.47 6.42 37.65L6.51 37.74L6.37 37.60Q8.30 38.20 9.75 38.04L9.76 38.06L10.11 37.95L10.28 38.12Q10.29 37.94 10.48 37.98L10.55 38.04L10.48 37.97Q10.75 38.09 10.90 38.05L10.82 37.98L10.86 38.01Q13.58 37.84 14.95 37.27L14.88 37.19L11.26 33.62L11.33 33.69Q11.66 33.37 12.26 32.76L12.24 32.73L13.09 31.75L13.07 31.73Q15.04 33.94 17.02 35.99L16.93 35.90L16.92 35.89Q19.37 34.19 19.64 28.83L19.62 28.80L19.45 28.64Q19.66 27.86 19.66 26.95L19.63 26.92L19.69 26.97Q19.57 21.18 14.51 20.08L14.52 20.09L14.49 20.05Q13.21 19.77 10.70 19.62ZM23.48 41.69L23.50 41.71L23.59 41.80Q22.93 42.17 21.75 43.05L21.69 42.98L17.37 39.39L17.37 39.38Q14.90 40.60 10.63 40.64L10.60 40.61L10.64 40.65Q4.11 40.79 1.30 38.54L1.24 38.48L1.25 38.49Q-0.47 36.77-0.93 33.80L-1.08 33.65L-0.92 33.81Q-1.19 31.95-1.57 28.37L-1.51 28.43L-1.66 28.27Q-1.58 27.63-1.70 25.88L-1.66 25.91L-1.75 25.82Q-1.88 24.29-1.84 23.41L-1.80 23.45L-1.81 23.44Q-1.69 20.40 0.07 18.84L-0.02 18.76L0.06 18.84Q1.55 17.47 4.75 16.98L4.84 17.07L4.75 16.98Q7.16 16.54 10.05 16.61L10.17 16.73L10.12 16.68Q17.56 16.74 20.69 19.10L20.71 19.12L20.80 19.22Q23.01 21.38 22.74 26.29L22.70 26.25L22.76 26.31Q22.41 29.80 22.22 31.14L22.36 31.28L22.29 31.21Q21.62 35.68 19.30 38.00L19.28 37.98L19.35 38.05Q20.85 39.33 23.59 41.80ZM18.67 17.47L18.65 17.44L18.62 17.41Q16.61 16.69 10.10 16.20L10.22 16.32L10.23 16.33Q8.71 16.22 5.93 16.33L6.00 16.40L6.02 16.42Q1.68 16.53-0.57 18.51L-0.42 18.66L-0.38 18.70Q-2.22 19.99-2.22 23.15L-2.16 23.21L-2.23 23.14Q-2.16 24.04-2.01 25.76L-2.06 25.70L-1.95 25.81Q-1.76 27.56-1.76 28.44L-1.87 28.33L-1.95 28.25Q-1.68 30.12-1.30 33.69L-1.29 33.70L-1.39 33.61Q-0.91 36.60 0.69 38.66L0.58 38.54L0.66 38.63Q1.01 39.47 2.23 40.61L2.14 40.52L2.26 40.65Q4.84 42.50 10.02 42.77L10.03 42.78L10.01 42.76Q10.48 42.89 12.88 43.00L12.86 42.98L12.75 42.87Q17.72 43.20 20.00 42.13L20.00 42.12L19.94 42.07Q20.73 42.66 25.45 46.24L25.54 46.34L25.58 46.38Q26.14 45.79 27.43 44.80L27.43 44.80L27.52 44.89Q26.54 44.10 25.74 43.42L25.74 43.41L24.12 41.98L24.20 41.91L24.26 41.97Q23.66 41.49 22.45 40.46L22.49 40.51L22.43 40.45Q24.23 37.83 24.23 33.30L24.25 33.32L24.23 33.30Q24.34 32.99 24.37 32.15L24.43 32.20L24.32 32.10Q24.48 31.38 24.48 30.96L24.33 30.81L24.46 30.94Q24.34 25.30 23.61 22.94L23.65 22.98L23.69 23.02Q23.37 21.78 22.49 20.71L22.48 20.70L22.49 20.71Q21.69 18.57 18.75 17.55ZM12.75 22.13L12.74 22.12L12.62 21.99Q16.78 22.01 18.61 23.61L18.59 23.59L18.49 23.49Q19.09 24.74 19.21 26.07L19.33 26.19L19.24 26.10Q19.39 27.43 19.32 28.80L19.19 28.68L19.32 28.81Q18.94 33.73 17.00 35.44L16.98 35.41L17.02 35.45Q15.67 34.10 13.16 31.36L13.24 31.45L13.13 31.33Q12.25 31.98 10.69 33.54L10.71 33.57L10.84 33.70Q11.40 34.29 12.55 35.47L12.59 35.52L12.39 35.43L12.43 35.48Q12.94 35.94 13.97 37.01L13.98 37.02L14.02 37.06Q13.11 37.41 10.79 37.71L10.78 37.70L10.20 37.65L9.81 37.69L9.77 37.69L9.74 37.66Q6.36 37.74 4.38 36.11L4.22 35.94L4.38 36.10Q3.24 33.89 3.28 30.77L3.39 30.89L3.40 30.90Q3.55 22.17 12.72 22.10Z"/><path fill="#333" d="M43.96 14.36L43.91 14.31L43.94 14.34Q46.38 15.94 48.13 16.36L48.27 16.50L48.23 16.46Q49.47 22.88 49.47 29.47L49.50 29.50L49.47 29.46Q49.48 33.47 48.95 37.47L49.09 37.62L49.06 37.59Q51.14 36.96 53.61 37.04L53.69 37.11L53.75 37.17Q56.17 37.19 58.30 37.92L58.22 37.83L58.31 37.92Q58.56 39.40 59.02 40.96L59.04 40.98L58.98 40.92Q55.60 39.56 51.76 39.82L51.69 39.75L51.85 39.92Q47.93 40.11 44.70 42.01L44.67 41.99L44.64 41.96Q46.98 35.23 46.71 28.23L46.58 28.10L46.71 28.23Q46.36 21.07 43.93 14.33ZM44.16 42.73L44.20 42.77L44.24 42.81Q44.85 42.35 46.22 41.63L46.18 41.59L46.17 41.58Q46.12 42.44 45.58 43.93L45.49 43.84L45.51 43.85Q49.18 42.31 53.03 42.31L53.05 42.33L53.06 42.34Q58.64 42.29 62.75 45.33L62.67 45.26L62.70 45.28Q61.96 43.70 60.93 40.74L60.94 40.75L61.06 40.86Q60.02 40.24 59.14 39.86L59.00 39.71L59.05 39.76Q58.84 38.99 58.54 37.58L58.60 37.64L58.51 37.56Q56.07 36.82 53.06 36.82L52.89 36.66L52.93 36.69Q52.18 36.70 51.38 36.74L51.49 36.85L51.32 36.69Q51.73 31.91 51.65 27.80L51.62 27.77L51.63 27.78Q51.49 23.61 51.15 18.62L51.13 18.60L51.08 18.55Q49.70 18.46 48.90 18.27L48.98 18.35L48.88 18.25Q48.87 17.63 48.64 16.22L48.51 16.10L48.49 16.08Q45.51 15.37 43.26 13.43L43.23 13.41L43.35 13.53Q46.05 20.57 46.32 28.07L46.29 28.03L46.25 28.00Q46.62 35.64 44.22 42.79Z"/><path d="M14 1 C56 8,69 28,142 16" stroke="#222" fill="none"/><path fill="#333" d="M77.18 29.91L77.21 29.93L77.05 29.77Q76.95 29.90 76.64 29.90L76.55 29.81L76.52 29.78Q75.30 29.89 73.85 30.72L73.72 30.59L73.82 30.69Q72.56 31.87 72.56 33.77L72.52 33.73L72.40 33.61Q72.37 37.01 73.89 38.34L74.08 38.53L73.97 38.42Q75.01 39.69 77.29 39.69L77.23 39.62L77.13 39.53Q77.47 39.64 77.77 39.64L77.72 39.58L77.76 39.62Q79.50 39.65 80.65 38.02L80.66 38.03L80.73 38.10Q81.64 36.46 81.57 34.67L81.63 34.74L81.50 34.61Q81.59 34.16 81.59 33.74L81.67 33.82L81.72 33.87Q81.76 32.13 80.39 30.96L80.22 30.80L80.26 30.83Q79.01 29.79 77.22 29.94ZM81.66 40.05L81.74 40.13L81.57 39.97Q80.60 41.93 76.87 42.04L76.92 42.10L76.85 42.02Q73.56 42.23 71.96 40.63L71.85 40.53L71.92 40.59Q70.45 38.82 69.65 34.03L69.73 34.10L69.71 34.08Q69.41 32.34 69.41 31.08L69.27 30.94L69.35 31.02Q69.28 29.16 70.00 28.09L70.04 28.13L70.14 28.23Q71.49 26.85 74.46 26.85L74.37 26.75L74.39 26.78Q80.77 26.83 82.67 29.42L82.72 29.46L82.58 29.33Q82.82 28.57 83.23 26.97L83.24 26.98L83.30 27.04Q84.55 26.73 86.99 25.93L86.92 25.86L86.85 25.79Q84.54 31.55 84.31 37.87L84.22 37.78L84.22 37.78Q83.98 43.93 86.11 49.76L86.19 49.84L86.09 49.74Q84.41 49.17 82.62 48.90L82.64 48.92L82.69 48.96Q81.75 44.98 81.63 40.03ZM82.49 49.34L82.35 49.20L82.33 49.18Q83.18 49.46 84.59 49.76L84.60 49.78L84.50 49.67Q84.81 50.48 85.38 51.89L85.32 51.82L85.43 51.94Q87.89 52.53 90.18 53.83L90.28 53.93L90.16 53.81Q86.27 47.36 86.27 38.84L86.24 38.81L86.07 38.64Q86.08 32.30 88.56 26.51L88.68 26.63L88.73 26.68Q87.86 26.80 86.49 27.45L86.60 27.56L86.60 27.57Q86.96 26.82 87.61 25.26L87.57 25.22L87.58 25.23Q85.97 25.71 82.77 26.59L82.79 26.61L82.78 26.60Q82.64 27.14 82.34 28.32L82.43 28.42L82.42 28.40Q80.29 26.39 74.16 26.23L74.19 26.27L74.23 26.31Q71.11 26.31 69.74 27.79L69.70 27.75L69.74 27.79Q69.02 28.98 69.06 30.88L68.91 30.73L69.00 30.82Q69.08 33.79 70.07 37.56L70.10 37.60L70.02 37.52Q70.72 39.96 71.63 40.91L71.62 40.91L71.93 41.21L72.10 41.38Q73.12 44.00 78.56 44.23L78.60 44.27L78.53 44.20Q79.70 44.37 81.52 44.07L81.57 44.11L81.53 44.08Q81.76 46.93 82.37 49.21ZM79.11 32.25L78.97 32.11L79.06 32.21Q80.17 32.25 81.01 32.55L80.87 32.42L80.90 32.44Q81.24 33.12 81.35 33.73L81.26 33.64L81.20 33.58Q81.36 34.19 81.28 34.80L81.28 34.80L81.32 34.85Q81.34 36.76 80.31 38.06L80.25 38.00L80.17 37.92Q79.13 39.47 77.27 39.28L77.24 39.25L77.29 39.30Q76.00 39.31 75.05 38.89L75.03 38.87L74.99 38.83Q74.60 37.99 74.60 36.77L74.68 36.84L74.62 36.79Q74.66 36.52 74.66 36.21L74.63 36.19L74.54 36.09Q74.57 34.38 75.91 33.22L75.96 33.27L75.98 33.29Q77.21 32.03 78.96 32.10Z"/><path fill="#333" d="M35.21 14.02L35.21 14.03L35.33 14.14Q36.12 16.00 37.80 16.34L37.90 16.44L37.76 16.30Q38.35 16.48 39.04 16.29L39.12 16.37L39.13 16.38Q38.98 22.36 38.90 28.22L38.83 28.15L38.73 28.05Q38.79 33.94 39.02 39.88L39.02 39.87L38.95 39.80Q38.67 39.76 38.37 39.76L38.41 39.79L38.47 39.86Q36.89 39.84 35.60 41.67L35.57 41.64L35.65 41.72Q36.35 34.80 36.31 27.95L36.27 27.91L36.30 27.94Q36.12 20.95 35.28 14.10ZM35.22 42.85L35.07 42.70L35.15 42.79Q36.24 40.97 37.30 40.52L37.21 40.42L37.29 40.51Q37.11 41.42 37.11 42.41L37.18 42.49L37.26 42.57Q37.87 42.07 38.67 42.18L38.70 42.22L38.70 42.22Q40.70 42.51 41.92 45.21L41.99 45.28L41.87 45.16Q40.80 37.73 40.80 30.27L40.88 30.35L40.84 30.31Q40.73 22.48 41.57 15.17L41.65 15.25L41.58 15.18Q40.71 17.20 39.57 17.81L39.48 17.72L39.43 17.67Q39.50 16.71 39.57 15.64L39.48 15.55L39.48 15.55Q38.70 16.07 37.94 15.92L37.95 15.93L38.07 16.04Q35.80 15.57 34.82 12.71L34.89 12.79L34.72 12.61Q35.75 20.12 35.83 27.66L35.82 27.65L35.96 27.79Q35.92 35.14 35.05 42.68Z"/><path fill="#444" d="M100.03 19.24L99.98 19.19L99.91 19.12Q101.18 23.74 101.33 26.94L101.20 26.81L101.25 26.86Q101.84 26.99 106.21 27.10L106.13 27.01L106.22 27.11Q108.67 27.05 109.05 23.58L109.04 23.57L108.97 23.49Q109.26 21.85 108.35 20.94L108.43 21.01L108.28 20.87Q107.07 20.04 105.09 19.89L105.12 19.92L105.16 19.95Q101.91 19.71 100.04 19.25ZM101.28 28.72L101.47 28.90L101.37 28.80Q101.61 34.87 99.82 40.81L99.75 40.74L99.86 40.84Q98.56 41.10 95.97 42.13L95.97 42.13L95.97 42.13Q98.70 35.53 98.35 28.07L98.42 28.14L98.45 28.16Q98.18 20.86 94.87 14.35L94.88 14.36L94.78 14.26Q99.69 17.11 106.66 17.11L106.63 17.08L106.61 17.06Q112.30 17.12 112.57 20.66L112.57 20.66L112.55 20.64Q112.59 21.22 112.52 21.83L112.59 21.90L112.44 22.97L112.42 22.95Q111.68 26.96 109.54 28.68L109.57 28.71L109.43 28.56Q108.77 29.39 107.74 29.39L107.69 29.34L105.00 29.24L105.11 29.35Q110.69 36.56 115.22 41.13L115.26 41.17L115.20 41.11Q113.00 40.36 110.07 40.02L109.98 39.92L110.09 40.04Q106.29 36.05 101.38 28.82ZM109.96 40.40L109.88 40.32L110.26 40.39L111.44 41.58L111.58 41.71Q112.04 42.14 112.69 42.75L112.72 42.78L112.65 42.71Q116.19 43.32 119.77 45.18L119.79 45.20L119.92 45.33Q112.99 38.60 107.58 31.67L107.41 31.49L109.25 31.59L109.32 31.65Q112.24 31.49 113.58 26.96L113.57 26.96L113.70 27.08Q114.37 24.86 114.37 22.16L114.43 22.22L114.30 22.09Q114.26 19.77 112.55 19.12L112.58 19.15L112.70 19.27Q112.46 18.76 111.89 18.08L111.87 18.06L111.96 18.15Q110.25 16.67 106.60 16.59L106.53 16.53L106.69 16.69Q98.78 16.51 94.10 13.50L93.99 13.39L94.02 13.42Q97.89 20.37 98.23 28.06L98.22 28.05L98.18 28.01Q98.56 36.01 95.44 42.86L95.32 42.74L95.45 42.87Q96.70 42.29 97.50 41.98L97.34 41.83L96.40 44.16L96.34 44.10Q99.21 43.20 101.87 42.70L101.84 42.68L101.80 42.63Q103.17 37.61 103.36 32.39L103.33 32.36L103.25 32.28Q106.85 37.32 110.01 40.45ZM108.75 22.52L108.78 22.55L108.59 22.36Q108.82 22.81 108.82 23.15L108.68 23.02L108.80 23.71L108.75 23.66Q108.67 24.68 107.98 25.63L108.07 25.72L108.13 25.78Q107.49 26.51 106.57 26.70L106.47 26.59L106.50 26.62Q106.32 26.71 104.72 26.75L104.62 26.65L104.74 26.76Q104.02 26.66 103.18 26.54L103.37 26.73L103.21 26.57Q103.25 25.20 102.91 22.16L102.89 22.14L102.86 22.10Q104.16 22.19 104.85 22.19L104.91 22.25L104.86 22.20Q106.73 22.25 108.68 22.44Z"/><path fill="#222" d="M118.16 29.17L118.15 29.16L118.18 29.19Q116.19 28.91 114.95 30.34L115.07 30.46L115.01 30.40Q113.77 31.82 113.58 33.73L113.67 33.81L113.70 33.85Q113.30 35.73 114.38 36.70L114.44 36.76L114.46 36.78Q115.63 37.84 117.73 37.72L117.73 37.72L117.55 37.54Q119.64 37.39 120.75 36.71L120.88 36.84L120.75 36.71Q121.90 35.61 121.90 34.05L121.98 34.13L122.02 34.17Q121.93 33.70 121.86 33.32L121.91 33.38L121.96 33.42Q122.05 31.77 120.95 30.42L120.80 30.26L120.91 30.38Q119.86 29.08 118.19 29.20ZM117.73 40.28L117.77 40.32L117.61 40.15Q113.32 40.24 111.91 39.48L111.95 39.52L111.95 39.51Q110.82 38.66 110.63 36.95L110.58 36.90L110.68 37.00Q110.71 36.38 110.75 35.66L110.70 35.61L110.75 35.66Q110.76 34.56 110.76 34.10L110.74 34.09L110.78 34.12Q111.24 31.27 111.39 30.58L111.42 30.62L111.39 30.58Q111.92 28.72 112.76 27.31L112.60 27.15L112.74 27.29Q115.37 22.87 121.31 16.52L121.22 16.43L121.34 16.55Q124.06 16.31 126.27 15.51L126.08 15.32L126.15 15.39Q119.27 22.82 116.07 27.05L116.13 27.10L116.11 27.08Q117.17 26.66 118.47 26.66L118.44 26.63L118.35 26.55Q121.76 26.64 123.29 28.58L123.28 28.57L123.21 28.51Q124.66 30.26 125.00 33.80L125.02 33.82L124.83 33.63Q125.05 34.50 125.05 35.11L125.09 35.15L125.01 35.07Q124.91 38.09 122.70 39.15L122.70 39.15L122.78 39.23Q121.56 39.84 117.67 40.22ZM119.91 42.57L119.97 42.63L119.99 42.65Q121.31 42.64 123.29 42.72L123.21 42.64L123.15 42.57Q124.89 42.75 126.45 42.03L126.52 42.10L126.35 41.93Q127.54 41.21 127.54 39.42L127.54 39.43L127.45 39.34Q127.63 39.02 127.46 38.03L127.30 37.87L127.28 37.85Q127.13 36.88 127.13 36.43L127.20 36.50L127.18 36.47Q126.33 31.78 124.73 29.87L124.79 29.93L124.73 29.88Q124.56 29.67 124.41 29.44L124.47 29.50L124.14 29.25L124.07 29.21L124.15 29.30Q123.86 28.86 123.26 27.91L123.11 27.76L123.13 27.78Q122.29 26.91 120.31 26.45L120.34 26.48L120.26 26.40Q121.57 24.88 124.53 21.19L124.44 21.10L128.77 15.91L128.68 15.82Q127.15 16.72 124.75 17.48L124.73 17.46L124.79 17.53Q125.70 16.53 127.49 14.55L127.39 14.45L127.45 14.52Q124.97 15.50 121.09 16.07L121.14 16.12L121.09 16.07Q115.41 22.00 112.44 26.95L112.38 26.89L112.47 26.98Q110.87 29.42 110.30 35.66L110.30 35.66L110.47 35.83Q110.27 36.28 110.35 37.23L110.28 37.16L110.35 37.23Q110.37 38.92 111.47 39.84L111.54 39.91L111.56 39.93Q112.02 40.16 111.99 40.20L111.85 40.06L111.87 40.08Q112.27 41.02 113.07 41.43L113.07 41.44L113.11 41.48Q114.51 42.12 116.46 42.31L116.50 42.36L116.43 42.28Q116.55 42.40 120.05 42.71ZM119.69 31.35L119.84 31.49L119.79 31.45Q120.23 31.21 121.19 31.70L121.21 31.72L121.20 31.71Q121.59 32.72 121.59 33.36L121.60 33.37L121.58 33.35Q121.88 35.32 120.93 36.31L120.78 36.17L120.84 36.22Q119.74 36.91 117.64 37.22L117.75 37.32L117.62 37.19Q116.26 37.28 115.72 37.01L115.77 37.06L115.79 37.07Q115.44 36.46 115.44 36.16L115.56 36.27L115.56 36.28Q115.20 32.87 118.13 31.57L118.29 31.73L118.23 31.67Q118.95 31.29 119.71 31.37Z"/><path fill="#333" d="M89.92 25.04L90.04 25.16L89.88 25.00Q90.77 25.36 92.75 25.36L92.68 25.29L92.85 32.61L92.74 32.50Q92.91 36.90 93.03 39.79L92.89 39.66L93.01 39.78Q92.53 39.53 92.15 39.53L92.24 39.62L92.15 39.52Q90.77 39.60 89.33 40.93L89.32 40.93L89.39 40.99Q90.24 33.43 90.05 25.17ZM90.09 19.88L88.76 17.03L88.87 17.13Q90.33 16.01 91.05 15.06L91.15 15.15L91.15 15.15Q92.25 17.05 93.66 18.73L93.65 18.72L93.53 18.60Q92.84 20.23 91.47 22.36L91.49 22.39L91.49 22.38Q90.50 21.05 89.93 19.72L89.91 19.70ZM88.86 41.88L88.91 41.92L88.88 41.89Q89.81 40.73 91.07 40.24L91.06 40.23L91.10 40.27Q91.11 40.97 91.00 42.34L90.93 42.26L91.00 42.34Q91.65 42.07 92.30 42.07L92.23 42.00L92.33 42.11Q94.58 42.15 95.99 44.13L95.80 43.94L95.99 44.13Q94.69 36.74 94.77 26.57L94.63 26.44L94.65 26.45Q93.99 26.75 93.15 26.86L93.09 26.80L93.16 25.01L93.05 24.90Q92.05 25.03 91.25 24.96L91.19 24.90L91.38 25.09Q90.42 24.90 89.55 24.40L89.58 24.44L89.52 24.37Q89.78 26.54 89.78 28.59L89.63 28.44L89.65 28.47Q89.64 35.49 88.76 41.78ZM91.37 22.87L91.47 22.98L91.57 22.70L91.68 22.50L91.77 22.59Q92.18 23.38 93.20 24.86L93.15 24.81L93.03 24.69Q94.49 22.45 95.82 18.91L95.76 18.85L95.69 18.78Q94.92 18.12 93.36 16.53L93.38 16.55L93.30 16.47Q93.23 16.70 92.97 17.16L92.96 17.15L92.88 17.07Q91.93 15.82 91.02 14.37L90.97 14.33L91.10 14.46Q89.65 16.10 88.47 16.44L88.48 16.44L88.57 16.53Q89.58 19.91 91.41 22.92Z"/><path fill="#111" d="M73.81 41.64L73.70 41.53L73.66 41.49Q71.64 41.19 69.47 41.04L69.48 41.05L69.40 40.97Q68.08 39.64 65.41 35.80L65.37 35.76L65.25 35.64Q63.13 38.80 60.73 41.24L60.79 41.31L58.55 41.54L58.62 41.61Q57.55 41.79 56.56 42.06L56.64 42.14L56.52 42.02Q60.72 37.92 63.72 33.81L63.76 33.84L63.75 33.83Q60.49 29.66 55.08 24.86L55.10 24.87L55.08 24.86Q57.41 25.70 60.11 26.12L60.13 26.14L59.98 25.99Q63.52 29.19 65.43 31.89L65.38 31.85L65.35 31.81Q67.43 28.71 70.17 26.20L70.31 26.34L70.24 26.27Q73.39 26.04 75.22 25.54L75.06 25.38L75.21 25.53Q70.68 29.19 66.99 33.76L66.93 33.70L66.94 33.71Q70.22 38.28 73.68 41.52ZM76.58 24.69L76.67 24.79L76.52 24.64Q73.64 25.49 70.10 25.83L70.18 25.91L70.21 25.93Q67.25 28.53 65.53 31.01L65.45 30.93L65.44 30.92Q64.60 29.92 62.96 27.94L63.11 28.09L62.84 28.01L62.87 28.04Q62.68 27.96 62.56 27.96L62.49 27.89L62.56 27.96Q61.77 27.10 60.14 25.65L60.15 25.66L60.08 25.59Q56.65 25.21 53.80 23.99L53.72 23.92L53.71 23.90Q59.24 28.71 63.27 33.85L63.27 33.85L63.39 33.97Q60.00 38.57 55.58 42.87L55.48 42.77L55.46 42.75Q55.77 42.72 59.28 41.88L59.27 41.87L59.34 41.95Q57.73 43.19 56.09 44.52L56.05 44.48L56.12 44.55Q59.33 43.65 62.49 43.46L62.53 43.50L62.39 43.36Q64.93 41.25 66.83 38.51L66.68 38.36L66.80 38.48Q68.14 40.16 69.35 41.34L69.33 41.31L69.43 41.42Q69.41 41.28 69.48 41.35L69.65 41.52L69.72 41.40L69.86 41.54Q71.07 42.60 72.40 43.67L72.36 43.63L72.26 43.52Q76.02 44.24 78.92 45.27L78.77 45.12L78.74 45.09Q72.65 40.71 68.96 35.53L68.95 35.53L69.06 35.64Q72.70 30.60 77.27 26.53L77.29 26.54L77.10 26.36Q76.17 26.72 75.18 26.95L75.34 27.11L73.20 27.44L73.17 27.41Q74.36 26.51 76.53 24.64Z"/><path fill="#222" d="M131.86 41.23L131.77 41.15L130.09 41.18L130.14 41.23Q126.73 41.21 125.78 39.07L125.79 39.08L125.76 39.06Q126.86 37.95 128.31 36.84L128.39 36.93L128.33 36.87Q128.88 39.02 131.74 38.87L131.67 38.80L131.72 38.85Q132.64 38.93 133.66 38.70L133.65 38.68L133.61 38.65Q134.53 38.12 134.45 37.17L134.33 37.04L134.44 37.15Q134.27 35.96 132.48 35.27L132.63 35.42L128.81 33.88L128.68 33.76Q126.38 32.44 126.04 28.90L126.19 29.05L126.00 28.87Q125.96 26.88 128.13 26.31L128.00 26.18L128.11 26.29Q129.06 26.07 132.03 26.07L131.93 25.96L132.03 26.06Q136.90 26.06 137.81 28.57L137.84 28.59L137.69 28.45Q137.11 29.05 136.38 29.50L136.36 29.48L135.00 30.48L134.92 30.40Q134.41 28.49 131.18 28.26L131.22 28.29L131.30 28.38Q130.77 28.46 129.75 28.88L129.71 28.84L129.70 28.84Q129.11 29.16 129.11 30.26L129.01 30.16L129.10 30.25Q129.38 31.26 131.21 31.94L131.36 32.09L131.29 32.02Q132.43 32.48 135.10 33.59L134.96 33.44L134.95 33.44Q136.79 34.29 136.98 36.84L137.03 36.89L137.05 36.91Q137.05 37.48 136.97 38.47L137.00 38.50L137.01 38.50Q137.02 39.43 136.45 40.08L136.38 40.01L136.48 40.10Q134.78 41.11 131.73 41.11ZM136.58 43.79L136.44 43.65L136.50 43.70Q137.51 43.84 138.89 43.54L138.77 43.43L138.85 43.51Q139.79 42.69 139.60 41.48L139.71 41.58L139.60 41.48Q139.64 41.02 139.34 39.42L139.21 39.30L139.31 39.40Q138.77 36.45 136.98 35.24L137.00 35.26L137.06 35.32Q136.35 33.74 135.10 33.01L135.21 33.12L135.10 33.01Q133.87 32.62 131.39 31.67L131.51 31.79L131.55 31.83Q131.67 31.34 131.93 31.22L131.97 31.26L131.79 31.08Q132.58 30.80 133.22 30.76L133.06 30.59L133.11 30.64Q133.85 30.55 134.61 30.82L134.63 30.83L134.66 30.93L134.78 30.95L135.02 30.99L135.06 31.07L135.04 31.06Q136.18 31.58 136.37 32.84L136.26 32.73L136.28 32.75Q137.66 32.04 139.57 30.36L139.58 30.37L139.49 30.29Q139.30 29.64 138.31 28.46L138.16 28.31L138.26 28.41Q137.06 25.65 131.96 25.53L131.91 25.49L131.90 25.47Q128.79 25.49 126.81 26.06L126.86 26.11L126.84 26.09Q125.47 26.70 125.70 28.79L125.61 28.70L125.63 28.72Q125.76 30.00 126.67 32.09L126.73 32.14L126.66 32.08Q127.16 33.15 128.19 33.87L128.33 34.01L128.18 33.87Q129.04 35.53 130.34 36.21L130.15 36.02L130.20 36.07Q131.10 36.29 132.06 36.67L132.15 36.76L134.06 37.54L134.06 37.53Q133.79 38.71 131.85 38.59L131.80 38.55L131.72 38.47Q131.43 38.67 130.21 38.37L130.14 38.30L130.17 38.17L129.91 38.15L129.95 38.19Q129.08 37.81 128.44 36.33L128.45 36.34L128.37 36.26Q126.32 37.91 125.22 39.05L125.24 39.07L125.25 39.08Q125.55 39.99 126.58 40.79L126.45 40.66L126.38 40.90L126.45 40.96Q127.73 42.93 131.96 43.31L132.05 43.41L132.08 43.44Q133.34 43.55 136.57 43.78Z"/></svg>