<svg xmlns="http://www.w3.org/2000/svg" width="150" height="50" viewBox="0,0,150,50"><path fill="#222" d="M91.88 23.40L91.96 23.48L91.81 23.34Q88.64 23.37 86.82 22.30L86.82 22.31L86.77 22.25Q89.41 21.00 94.28 16.78L94.32 16.82L94.19 16.69Q94.93 16.51 96.22 15.90L96.33 16.01L96.30 15.98Q94.97 21.93 94.86 28.29L94.85 28.27L94.72 28.15Q94.70 34.60 95.76 40.69L95.81 40.74L95.67 40.59Q94.02 39.89 91.89 39.78L92.02 39.91L91.88 39.78Q91.89 35.75 91.89 31.68L91.89 31.67L91.92 31.71Q91.84 27.51 91.88 23.40ZM91.48 25.63L91.56 40.29L91.49 40.22Q92.75 40.26 93.70 40.45L93.68 40.43L93.61 40.36Q93.81 41.17 94.00 42.54L93.98 42.52L93.87 42.41Q96.74 42.95 99.17 45.20L99.17 45.19L99.30 45.32Q96.83 38.21 96.79 30.75L96.66 30.62L96.66 30.62Q96.62 23.19 98.45 15.96L98.41 15.92L98.45 15.96Q97.99 16.45 96.39 17.56L96.30 17.47L96.43 17.60Q96.46 16.67 96.76 15.15L96.87 15.26L96.92 15.31Q95.51 15.99 94.06 16.37L93.95 16.26L94.07 16.38Q90.19 19.85 85.89 22.13L86.06 22.30L86.04 22.29Q87.32 23.26 89.68 23.60L89.75 23.67L89.83 23.75Q89.12 24.22 87.82 25.29L87.83 25.29L87.80 25.26Q89.30 25.66 91.51 25.66L91.41 25.56Z"/><path fill="#444" d="M118.18 19.58L118.16 19.56L116.69 19.76L116.76 19.84Q114.51 19.94 114.28 21.96L114.16 21.83L114.20 21.88Q114.21 22.69 114.25 23.68L114.26 23.69L114.13 23.56Q114.29 25.62 115.55 26.96L115.46 26.87L115.55 26.96Q116.68 28.17 118.59 28.02L118.68 28.11L118.64 28.07Q120.77 27.99 121.53 27.08L121.35 26.89L121.36 26.91Q122.52 26.09 122.79 23.84L122.85 23.91L122.82 23.87Q122.96 21.50 121.70 20.66L121.86 20.82L121.85 20.81Q120.98 20.02 118.32 19.71ZM124.22 28.81L124.38 28.98L123.08 31.26L123.07 31.24Q120.36 36.03 116.59 40.10L116.43 39.94L116.57 40.08Q114.92 40.22 112.22 41.02L112.27 41.07L112.12 40.92Q117.42 34.62 120.58 29.82L120.76 30.00L120.65 29.89Q119.66 30.58 118.03 30.65L117.98 30.61L118.09 30.71Q114.91 30.70 113.39 28.72L113.49 28.82L113.43 28.76Q112.31 27.26 111.21 22.69L111.06 22.54L111.11 22.60Q111.13 22.16 110.98 21.23L111.02 21.26L111.10 21.34Q110.85 20.32 110.85 19.86L110.78 19.79L110.78 19.79Q110.81 18.03 111.87 17.42L111.99 17.53L111.99 17.53Q113.14 16.71 115.01 16.71L115.08 16.78L114.98 16.69Q118.12 16.63 118.12 16.63L118.26 16.76L118.15 16.66Q120.31 16.68 121.56 16.87L121.56 16.87L121.66 16.97Q123.71 17.15 124.62 17.65L124.57 17.59L124.57 17.59Q126.00 18.41 126.19 20.17L126.14 20.11L126.33 20.30Q126.16 20.36 125.97 23.03L125.95 23.00L126.07 23.13Q125.70 25.27 125.47 26.11L125.37 26.00L125.50 26.14Q125.14 27.56 124.37 28.97ZM126.29 31.38L126.11 31.19L126.10 31.19Q127.13 29.02 127.67 24.72L127.77 24.83L127.79 24.84Q127.88 22.47 127.85 21.59L127.92 21.66L128.03 21.78Q127.85 19.77 126.67 18.86L126.70 18.88L126.35 18.72L126.49 18.86Q126.15 18.03 125.24 17.38L125.24 17.39L125.25 17.40Q122.96 16.40 118.16 16.25L118.09 16.18L118.21 16.29Q117.25 16.29 114.81 16.29L114.77 16.24L114.73 16.21Q112.99 16.21 111.50 16.90L111.46 16.85L111.47 16.87Q110.44 17.78 110.52 19.61L110.48 19.56L110.48 19.57Q110.68 20.49 110.87 22.50L110.94 22.58L110.76 22.39Q111.52 25.18 111.79 26.01L111.77 25.99L111.65 25.88Q112.34 27.86 113.29 29.15L113.19 29.06L113.23 29.10Q113.51 29.45 113.89 29.83L113.94 29.88L113.98 29.92Q114.25 30.38 114.90 31.29L114.72 31.12L114.82 31.21Q116.33 32.62 118.28 32.81L118.18 32.71L118.30 32.84Q116.25 35.35 114.69 37.25L114.87 37.43L111.13 41.69L111.19 41.75Q113.35 40.90 114.99 40.56L115.01 40.58L114.96 40.53Q114.25 41.46 112.69 43.17L112.66 43.14L112.69 43.17Q115.78 42.26 118.90 42.22L119.02 42.34L118.95 42.27Q121.30 39.71 125.64 32.48L125.51 32.35L125.58 32.50L125.49 32.41Q125.87 31.80 126.22 31.31ZM120.17 22.03L120.11 21.97L120.13 21.98Q120.84 21.97 121.29 22.08L121.19 21.98L121.33 22.12Q121.87 22.13 122.25 22.24L122.22 22.21L122.29 22.28Q122.30 22.56 122.38 22.98L122.48 23.08L122.49 23.09Q122.55 23.49 122.44 23.87L122.40 23.83L122.34 23.78Q122.45 25.64 121.27 26.74L121.20 26.67L121.30 26.77Q120.33 27.78 118.69 27.74L118.70 27.75L118.71 27.76Q118.24 27.71 116.72 27.40L116.70 27.39L116.58 27.27Q116.44 26.48 116.44 25.76L116.51 25.83L116.54 25.86Q116.43 25.55 116.43 25.32L116.45 25.35L116.40 25.30Q116.42 23.11 118.70 22.31L118.57 22.17L118.70 22.30Q119.30 21.99 120.14 21.99Z"/><path d="M2 6 C91 20,69 34,135 19" stroke="#666" fill="none"/><path fill="#222" d="M61.61 19.35L61.63 19.37L61.63 19.37Q62.52 23.65 62.67 27.23L62.67 27.23L62.65 27.21Q63.73 27.26 64.79 27.26L64.73 27.20L67.05 27.31L67.07 27.33Q67.93 27.13 68.81 25.72L68.91 25.82L68.83 25.74Q69.54 24.55 69.66 23.37L69.66 23.38L69.67 23.38Q70.05 20.38 65.83 19.88L65.93 19.98L65.84 19.89Q64.17 19.86 61.55 19.29ZM62.60 29.91L62.67 29.97L62.68 29.98Q62.58 36.17 61.44 40.58L61.36 40.50L61.42 40.56Q60.01 41.02 57.69 42.09L57.64 42.03L57.57 41.97Q59.99 35.37 59.73 28.10L59.73 28.10L59.80 28.17Q59.39 20.67 56.61 14.24L56.73 14.37L56.64 14.27Q60.87 17.13 67.11 17.13L66.98 17.00L67.03 17.05Q73.04 17.01 73.20 20.47L73.18 20.46L73.19 20.47Q73.27 22.91 72.28 25.57L72.41 25.70L72.36 25.65Q71.98 26.79 71.02 28.01L70.97 27.95L71.01 28.00Q69.61 29.52 67.06 29.79L67.07 29.80L67.10 29.84Q64.94 29.96 62.69 29.99ZM68.69 32.11L68.73 32.15L68.68 32.10Q73.02 32.52 74.28 27.72L74.22 27.67L74.17 27.61Q75.12 23.96 74.97 21.94L74.92 21.89L74.91 21.88Q74.95 20.52 74.19 19.53L74.19 19.53L74.17 19.51Q73.84 19.18 73.35 18.95L73.22 18.82L73.23 18.83Q73.24 18.69 72.63 17.93L72.68 17.98L72.66 17.95Q71.00 16.53 67.04 16.53L67.10 16.59L67.18 16.66Q60.20 16.57 55.97 13.41L56.09 13.53L56.05 13.49Q59.09 20.45 59.36 27.92L59.41 27.97L59.50 28.05Q59.77 35.71 57.10 42.79L57.03 42.72L57.00 42.69Q58.17 42.15 59.16 41.77L59.23 41.84L58.74 42.87L58.71 42.84Q58.49 43.38 58.22 43.95L58.37 44.10L58.27 44.00Q60.73 43.00 63.63 42.46L63.60 42.44L63.68 42.52Q64.38 36.86 64.46 32.14L64.48 32.16L64.54 32.22Q65.60 32.10 66.59 32.10L66.73 32.25L66.65 32.16Q68.06 32.24 68.86 32.28ZM67.84 22.27L67.84 22.27L67.77 22.21Q68.35 22.29 69.34 22.52L69.29 22.47L69.39 22.57Q69.36 22.66 69.40 22.96L69.47 23.03L69.40 22.96Q69.40 23.19 69.33 23.46L69.51 23.64L69.40 23.53Q69.27 24.74 68.55 25.61L68.55 25.61L68.66 25.72Q67.99 26.68 66.96 26.87L67.02 26.94L66.98 26.90Q66.29 26.93 64.66 26.93L64.58 26.85L64.57 26.85Q64.64 24.67 64.41 22.31L64.40 22.30L66.13 22.35L66.16 22.38Q67.03 22.41 67.90 22.34Z"/><path fill="#111" d="M133.27 40.13L133.21 40.07L131.24 40.39L131.12 40.27Q130.70 40.31 129.73 40.36L129.75 40.39L129.71 40.34Q128.78 40.44 128.29 40.44L128.30 40.45L128.18 40.33Q126.56 40.35 125.53 39.51L125.53 39.51L125.52 39.50Q126.34 38.41 127.97 36.28L128.07 36.38L127.94 36.25Q129.28 37.89 131.49 37.66L131.45 37.62L131.56 37.74Q132.40 37.55 133.05 36.91L133.09 36.95L133.02 36.87Q133.62 36.18 133.51 35.31L133.56 35.36L133.50 35.30Q133.48 30.78 133.55 26.22L133.50 26.16L133.59 26.25Q133.69 21.71 134.22 17.10L134.05 16.93L134.03 16.91Q136.13 16.88 138.27 15.85L138.15 15.74L138.24 15.83Q136.31 22.50 136.31 29.74L136.40 29.82L136.27 29.70Q136.30 33.26 136.75 36.76L136.86 36.87L136.75 36.76Q136.81 37.08 136.81 37.43L136.78 37.40L136.85 37.47Q136.94 38.13 136.71 38.66L136.59 38.54L136.59 38.54Q136.16 39.94 133.34 40.20ZM138.15 42.92L138.19 42.95L138.56 42.99L138.78 42.78L139.11 42.73L139.03 42.66Q139.30 42.35 139.37 42.24L139.49 42.36L139.41 42.28Q139.69 41.19 139.43 40.20L139.36 40.13L139.34 40.11Q138.06 34.38 138.33 28.02L138.37 28.06L138.35 28.04Q138.51 21.85 140.30 15.95L140.25 15.89L140.41 16.05Q139.39 16.56 138.13 17.28L138.15 17.30L138.27 17.42Q138.33 16.52 138.75 15.00L138.85 15.11L138.74 14.99Q136.24 16.34 133.58 16.65L133.69 16.76L133.56 16.63Q133.28 21.11 133.20 26.06L133.23 26.08L133.18 26.03Q133.10 31.93 133.18 35.36L133.16 35.34L133.25 35.43Q133.16 37.05 131.41 37.21L131.51 37.31L131.54 37.33Q129.81 37.43 128.13 35.79L128.18 35.84L128.05 35.72Q126.15 38.38 125.20 39.94L125.01 39.75L125.10 39.85Q125.80 40.55 126.83 40.78L126.85 40.80L126.72 40.66Q126.79 40.96 126.52 41.19L126.34 41.01L126.42 41.08Q127.88 42.05 129.86 42.32L129.78 42.24L129.83 42.28Q130.30 42.41 133.59 42.72L133.55 42.68L133.46 42.58Q136.86 43.00 138.23 43.00Z"/><path fill="#333" d="M9.24 25.08L9.27 25.12L9.32 25.17Q10.11 25.43 12.09 25.43L12.02 25.35L12.00 32.49L12.02 32.51Q12.11 36.82 12.22 39.72L12.26 39.75L12.26 39.76Q11.92 39.65 11.54 39.65L11.52 39.62L11.50 39.61Q10.16 39.71 8.71 41.04L8.66 40.99L8.52 40.85Q9.37 33.29 9.18 25.03ZM9.31 19.83L8.15 17.14L8.07 17.06Q9.71 16.12 10.44 15.17L10.44 15.17L10.36 15.09Q11.47 17.00 12.88 18.67L12.92 18.71L12.93 18.72Q12.13 20.25 10.76 22.38L10.66 22.28L10.76 22.38Q9.92 21.20 9.35 19.87L9.22 19.73ZM8.05 41.79L8.02 41.76L8.02 41.76Q9.03 40.68 10.29 40.19L10.31 40.20L10.32 40.21Q10.33 40.91 10.22 42.28L10.19 42.25L10.24 42.31Q10.93 42.08 11.58 42.08L11.61 42.11L11.63 42.13Q13.84 42.14 15.25 44.12L15.16 44.03L15.23 44.10Q13.98 36.75 14.05 26.59L14.03 26.57L13.93 26.47Q13.15 26.64 12.32 26.75L12.43 26.87L12.39 24.96L12.43 25.00Q11.45 25.17 10.65 25.09L10.53 24.97L10.48 24.92Q9.80 25.00 8.92 24.50L8.78 24.36L8.81 24.39Q8.92 26.40 8.92 28.46L8.89 28.43L9.05 28.59Q8.97 35.55 8.09 41.83ZM10.58 22.81L10.62 22.85L10.80 22.65L10.97 22.52L11.01 22.55Q11.37 23.30 12.40 24.78L12.49 24.87L12.29 24.67Q13.82 22.51 15.15 18.97L15.03 18.85L15.10 18.92Q14.09 18.03 12.53 16.43L12.55 16.44L12.53 16.43Q12.53 16.73 12.26 17.19L12.18 17.10L12.29 17.21Q11.16 15.78 10.25 14.33L10.32 14.40L10.42 14.50Q8.88 16.05 7.70 16.39L7.69 16.38L7.67 16.36Q8.81 19.86 10.63 22.86Z"/><path fill="#111" d="M111.68 21.60L111.52 21.44L111.62 21.55Q109.98 20.20 108.34 19.82L108.27 19.75L108.38 19.86Q107.28 19.60 104.50 19.56L104.47 19.53L104.49 19.55Q99.30 19.50 97.24 21.51L97.17 21.44L97.26 21.53Q95.47 22.94 95.58 26.63L95.58 26.63L95.61 26.66Q95.69 30.39 95.84 31.34L96.00 31.50L95.98 31.48Q97.07 37.60 104.80 37.60L104.62 37.43L104.64 37.44Q109.36 37.47 111.45 35.08L111.41 35.04L111.48 35.10Q113.44 32.99 113.66 28.23L113.71 28.28L113.58 28.14Q113.88 23.38 111.56 21.48ZM104.71 40.52L104.65 40.46L104.71 40.52Q98.20 40.67 95.23 38.31L95.26 38.34L95.20 38.28Q93.09 36.09 92.98 31.03L93.00 31.06L93.07 31.13Q93.01 30.57 92.86 27.30L92.79 27.23L92.87 27.31Q92.75 24.71 92.79 23.65L92.76 23.62L92.65 23.51Q92.80 20.65 94.21 18.94L94.23 18.96L94.35 19.08Q96.72 16.62 101.59 16.46L101.69 16.56L101.61 16.48Q103.37 16.41 104.24 16.45L104.28 16.48L104.27 16.47Q114.30 16.65 116.06 20.99L116.06 20.99L116.02 20.95Q116.96 23.12 116.81 25.86L116.77 25.81L116.70 25.75Q116.72 27.48 116.53 30.75L116.53 30.75L116.46 30.68Q116.29 33.52 115.38 35.58L115.36 35.56L115.46 35.66Q113.38 40.36 104.74 40.55ZM117.07 40.51L117.15 40.59L117.13 40.57Q118.47 38.74 118.58 35.66L118.53 35.61L118.55 35.63Q118.50 34.47 118.46 32.87L118.57 32.98L118.58 33.00Q118.57 32.26 118.53 30.43L118.50 30.40L118.59 30.49Q118.53 23.35 116.59 20.87L116.43 20.72L116.44 20.72Q116.09 19.76 114.98 18.66L114.93 18.61L114.99 18.66Q111.80 16.28 104.34 16.13L104.20 15.99L104.35 16.13Q96.79 15.84 93.74 18.43L93.82 18.52L93.93 18.62Q92.27 20.28 92.27 23.21L92.43 23.37L92.44 23.38Q92.33 24.56 92.48 25.89L92.51 25.92L92.45 25.86Q92.42 26.90 92.46 28.34L92.51 28.39L92.61 28.50Q92.77 32.47 92.93 33.65L92.84 33.56L92.93 33.65Q93.15 36.42 94.48 38.21L94.55 38.28L94.63 38.36Q94.98 39.55 96.05 40.31L96.07 40.32L96.07 40.33Q99.36 42.71 107.13 42.90L107.08 42.85L107.14 42.91Q114.39 43.04 117.06 40.49ZM113.39 28.22L113.44 28.27L113.34 28.17Q113.22 32.81 111.32 34.91L111.20 34.79L111.26 34.85Q109.17 37.10 104.72 37.14L104.63 37.05L104.63 37.05Q100.32 37.12 98.19 35.22L98.19 35.21L98.34 35.37Q97.58 33.69 97.65 30.80L97.58 30.72L97.57 30.71Q97.58 26.01 99.60 23.84L99.80 24.03L99.72 23.95Q101.67 21.72 106.27 21.72L106.34 21.78L106.39 21.83Q110.53 21.79 112.63 23.65L112.68 23.70L112.58 23.61Q113.43 25.37 113.31 28.15Z"/><path fill="#333" d="M36.70 27.60L36.77 27.67L36.72 27.62Q34.60 27.74 33.32 29.25L33.20 29.12L33.32 29.24Q31.89 30.59 31.77 32.87L31.90 33.00L31.79 32.89Q31.79 35.67 32.62 36.62L32.49 36.48L32.64 36.63Q33.59 37.74 35.91 37.59L36.00 37.67L35.93 37.60Q40.59 37.31 40.97 34.31L41.02 34.36L41.06 34.39Q41.18 33.60 41.18 32.81L41.03 32.65L41.17 32.79Q40.99 30.63 39.85 29.11L39.96 29.22L39.84 29.11Q38.61 27.53 36.67 27.57ZM41.59 37.74L41.61 37.76L41.62 37.77Q40.04 39.81 35.66 40.04L35.76 40.14L35.69 40.07Q31.58 40.30 29.95 39.19L29.93 39.18L29.84 39.08Q29.04 38.32 28.89 36.61L28.83 36.56L28.80 36.52Q28.82 35.48 29.01 33.62L28.97 33.57L28.95 33.55Q29.40 29.21 30.62 27.38L30.75 27.51L30.59 27.35Q32.23 24.88 36.08 24.92L36.14 24.98L36.17 25.01Q38.70 25.07 40.98 27.39L41.05 27.46L41.02 27.43Q41.01 21.48 42.61 14.97L42.71 15.06L42.58 14.94Q44.56 14.60 46.43 13.76L46.39 13.73L46.36 13.70Q43.81 20.36 43.54 27.36L43.46 27.28L43.51 27.33Q43.17 34.45 45.30 41.04L45.29 41.02L45.36 41.10Q43.74 40.50 42.03 40.12L42.02 40.11L42.11 40.20Q41.69 38.80 41.54 37.69ZM44.62 43.21L44.70 43.29L44.67 43.26Q46.69 43.76 49.24 45.28L49.32 45.35L49.23 45.27Q45.56 38.25 45.41 29.95L45.45 29.99L45.37 29.91Q45.35 21.82 48.43 14.44L48.30 14.30L48.35 14.35Q47.57 14.71 46.12 15.36L46.25 15.48L46.16 15.40Q46.62 14.37 47.23 13.15L47.15 13.08L47.16 13.09Q44.78 14.17 42.34 14.74L42.27 14.67L42.33 14.73Q40.89 20.52 40.63 26.62L40.53 26.52L40.56 26.54Q38.62 24.68 36.10 24.57L36.19 24.65L36.21 24.67Q32.65 24.42 30.75 26.52L30.77 26.54L30.87 26.64Q29.20 29.05 28.78 33.73L28.69 33.63L28.71 33.65Q28.38 36.33 28.38 36.75L28.45 36.82L28.47 36.84Q28.55 38.60 29.69 39.66L29.72 39.69L29.60 39.57Q29.88 39.85 30.07 39.93L30.16 40.01L30.59 40.64L30.60 40.65Q31.52 41.94 34.49 42.21L34.46 42.18L34.45 42.17Q36.73 42.40 38.10 42.48L37.98 42.36L38.04 42.42Q42.34 42.71 44.05 41.38L43.98 41.32L44.00 41.33Q44.06 41.96 44.52 43.10ZM38.35 29.94L38.39 29.98L38.29 29.87Q39.32 29.88 40.16 30.37L40.32 30.53L40.26 30.47Q40.77 31.78 40.84 32.81L40.74 32.70L40.70 32.66Q41.04 36.93 36.02 37.27L36.09 37.35L36.09 37.34Q35.26 37.43 34.16 37.16L34.05 37.06L34.11 37.11Q33.85 36.47 33.77 35.94L33.84 36.00L33.74 35.91Q33.63 35.19 33.67 34.58L33.68 34.59L33.77 34.68Q34.08 31.26 36.70 30.27L36.77 30.33L36.76 30.32Q37.65 29.88 38.34 29.92Z"/><path fill="#333" d="M47.02 32.99L46.95 32.92L46.93 32.90Q49.98 32.49 53.18 32.60L53.19 32.61L53.23 32.65Q53.14 30.05 53.14 27.65L53.21 27.72L53.16 27.67Q53.23 25.27 53.42 22.72L53.45 22.74L53.36 22.65Q52.24 24.47 47.03 33.00ZM56.85 40.27L56.89 40.31L56.80 40.22Q55.26 40.05 53.47 39.97L53.50 40.01L53.41 39.91Q53.33 37.66 53.21 35.19L53.07 35.05L53.06 35.03Q47.79 34.91 43.07 36.31L43.13 36.37L43.04 36.28Q43.20 35.83 43.39 34.84L43.41 34.86L43.33 34.78Q45.06 31.57 48.64 25.28L48.68 25.33L48.76 25.41Q51.65 20.53 55.08 16.64L55.15 16.72L55.14 16.71Q55.94 16.45 57.62 16.18L57.61 16.17L57.53 16.09Q55.69 22.59 55.69 29.63L55.76 29.70L55.65 29.59Q55.64 31.07 55.72 32.56L55.83 32.66L57.09 32.74L57.03 32.68Q57.78 32.87 58.39 32.98L58.34 32.93L58.24 32.83Q58.48 33.94 58.74 35.88L58.75 35.89L58.74 35.88Q57.37 35.47 55.89 35.28L55.98 35.37L55.94 35.33Q56.14 37.32 56.83 40.25ZM58.50 32.44L58.54 32.48L58.62 32.57Q58.33 32.39 58.14 32.39L58.28 32.52L57.79 32.41L57.83 32.46Q57.60 30.86 57.60 29.45L57.63 29.48L57.58 29.43Q57.68 23.14 59.74 17.12L59.70 17.09L59.71 17.10Q59.03 17.44 57.58 17.82L57.61 17.84L57.54 17.78Q57.73 16.98 58.19 15.57L58.31 15.69L58.17 15.56Q56.92 15.97 54.86 16.20L54.81 16.15L54.81 16.16Q51.04 20.64 45.82 30.00L45.64 29.82L47.73 26.16L47.85 26.29Q47.33 27.21 47.06 27.78L47.05 27.77L42.67 36.86L42.75 36.94Q43.39 36.79 44.54 36.41L44.52 36.39L44.25 36.50L44.24 36.49Q44.19 37.25 43.89 38.50L43.99 38.60L43.99 38.60Q48.07 37.24 52.91 37.43L52.84 37.37L52.78 37.31Q52.79 38.23 52.98 40.21L53.06 40.29L53.10 40.33Q54.06 40.22 55.12 40.33L55.27 40.48L55.28 40.49Q55.30 41.04 55.57 42.41L55.54 42.39L55.62 42.47Q57.51 42.68 60.51 43.59L60.57 43.65L60.51 43.59Q59.62 41.56 58.71 38.28L58.68 38.26L60.07 38.65L60.13 38.71Q60.69 38.82 61.37 39.16L61.46 39.24L61.48 39.27Q60.57 36.64 60.42 34.97L60.48 35.03L60.44 34.99Q59.90 34.87 58.76 34.64L58.75 34.63L58.80 34.69Q58.64 33.45 58.64 32.58ZM50.58 32.36L50.51 32.29L50.59 32.37Q51.24 30.96 52.80 28.41L52.87 28.48L52.85 28.47Q52.81 29.37 52.77 30.33L52.88 30.44L52.75 30.31Q52.84 31.38 52.87 32.34L52.79 32.25L52.98 32.44Q52.31 32.30 51.73 32.30L51.66 32.22L51.74 32.30Q51.10 32.27 50.49 32.27Z"/><path fill="#333" d="M85.83 38.00L85.80 37.97L85.81 37.99Q85.98 38.84 86.52 40.86L86.55 40.89L86.53 40.87Q82.33 39.56 77.72 39.83L77.67 39.77L77.68 39.78Q73.17 40.11 69.17 42.09L69.18 42.10L69.08 42.00Q69.40 41.41 69.44 41.49L69.36 41.41L69.42 41.46Q73.19 37.54 77.11 33.13L77.03 33.05L77.19 33.21Q81.51 28.12 82.69 23.44L82.77 23.53L82.72 23.48Q83.18 21.72 81.90 20.54L81.91 20.55L81.77 20.41Q80.66 19.39 78.87 19.54L78.87 19.55L78.78 19.46Q78.46 19.44 78.12 19.44L78.13 19.45L78.20 19.52Q76.51 19.35 75.25 20.27L75.38 20.39L75.36 20.37Q73.99 21.67 74.22 24.34L74.30 24.42L74.33 24.45Q72.56 24.13 71.35 23.67L71.32 23.64L71.26 23.58Q71.13 22.23 71.05 20.78L70.91 20.64L70.96 20.69Q70.97 19.14 71.57 18.00L71.55 17.98L71.63 18.05Q73.34 16.60 76.69 16.60L76.65 16.57L78.50 16.66L78.39 16.55Q80.67 16.59 81.62 16.70L81.68 16.76L81.60 16.68Q85.99 17.14 86.25 19.58L86.30 19.63L86.29 19.61Q86.40 20.23 86.33 21.03L86.31 21.00L86.36 21.06Q86.16 21.54 86.01 22.23L86.00 22.22L86.12 22.34Q84.38 30.35 76.80 37.20L76.93 37.33L76.78 37.18Q78.24 37.08 79.61 37.08L79.61 37.07L79.74 37.21Q82.97 37.20 85.83 38.00ZM85.17 17.09L85.14 17.06L85.10 17.02Q83.51 16.38 81.80 16.31L81.83 16.34L78.40 16.14L78.38 16.12Q73.92 15.85 71.71 16.95L71.67 16.91L71.74 16.98Q70.73 18.41 70.73 20.46L70.65 20.39L70.62 20.35Q70.78 21.20 71.09 24.02L71.02 23.96L71.09 24.02Q71.56 24.19 72.74 24.50L72.74 24.49L72.80 25.58L72.75 25.53Q72.69 25.96 72.76 26.49L72.71 26.44L72.73 26.47Q74.06 26.65 76.54 26.88L76.45 26.80L76.56 26.90Q76.49 26.49 76.49 26.15L76.41 26.07L76.54 26.20Q76.51 24.35 77.73 23.00L77.79 23.05L77.80 23.06Q78.83 21.52 80.62 21.64L80.73 21.74L80.63 21.65Q81.37 21.67 82.14 21.82L82.27 21.96L82.18 21.87Q82.31 22.26 82.38 22.68L82.34 22.64L82.51 22.81Q82.49 23.16 82.41 23.51L82.48 23.58L82.46 23.56Q81.16 28.27 76.74 33.10L76.76 33.12L76.75 33.11Q74.55 35.29 69.11 41.34L69.23 41.47L69.06 41.30Q68.99 42.25 68.65 42.82L68.66 42.83L68.59 42.76Q70.28 41.99 71.81 41.45L71.66 41.30L71.81 41.46Q70.93 41.87 69.98 43.35L70.00 43.38L70.13 43.50Q69.87 43.71 69.76 44.05L69.76 44.05L69.77 44.06Q74.71 42.07 80.19 42.26L80.15 42.22L80.27 42.34Q85.80 42.35 90.37 44.71L90.46 44.80L89.52 42.72L89.46 42.66Q88.77 41.28 88.50 40.48L88.46 40.44L88.58 40.57Q87.77 40.06 86.55 39.64L86.62 39.70L86.53 39.61Q86.51 39.02 86.13 37.65L86.04 37.56L86.00 37.53Q83.73 36.90 81.45 36.71L81.52 36.78L81.52 36.77Q86.21 32.22 87.74 23.96L87.70 23.93L88.03 21.16L87.95 21.09Q87.88 19.31 86.66 18.62L86.66 18.62L86.51 18.51L86.63 18.62Q86.54 18.50 86.46 18.50L86.49 18.53L86.53 18.57Q86.25 17.67 85.14 17.06Z"/><path fill="#333" d="M28.34 29.59L28.16 29.41L28.24 29.49Q27.02 28.69 26.37 28.72L26.34 28.70L26.44 28.80Q25.12 28.92 24.07 29.93L24.07 29.92L23.91 29.77Q23.01 30.92 23.12 32.29L23.08 32.25L23.07 32.24Q23.33 36.53 22.45 41.06L22.43 41.04L22.39 41.00Q20.31 41.59 19.21 42.12L19.11 42.03L19.14 42.05Q20.75 37.99 20.52 33.54L20.39 33.41L20.46 33.47Q20.22 28.97 18.51 24.90L18.51 24.90L18.58 24.97Q19.66 25.59 21.95 26.24L21.88 26.18L22.47 28.90L22.44 28.87Q23.22 26.07 27.49 26.07L27.35 25.93L27.40 25.98Q27.88 26.01 28.19 26.01L28.12 25.94L28.04 25.86Q29.45 25.98 30.70 26.66L30.73 26.69L30.76 26.72Q29.33 27.95 28.19 29.44ZM29.90 31.53L29.91 31.38L29.91 31.39Q30.92 30.34 32.60 27.91L32.57 27.88L32.53 27.84Q32.02 27.44 30.49 27.18L30.45 27.14L30.56 27.24Q30.96 27.00 31.42 26.39L31.26 26.23L31.25 26.22Q29.36 25.32 27.42 25.51L27.58 25.67L27.48 25.57Q25.46 25.68 24.74 25.95L24.91 26.12L24.82 26.04Q23.44 26.48 22.65 27.59L22.64 27.58L22.47 26.76L22.14 25.79L22.13 25.78Q19.81 25.43 17.83 24.10L17.87 24.15L17.82 24.09Q20.00 28.53 20.23 33.40L20.22 33.38L20.25 33.42Q20.54 38.39 18.79 42.92L18.63 42.76L18.69 42.82Q19.73 42.30 20.60 41.99L20.70 42.08L20.72 42.11Q20.29 43.05 19.79 44.11L19.90 44.23L19.96 44.28Q22.73 43.36 24.86 43.24L24.92 43.30L25.13 38.79L24.98 38.64Q25.17 36.47 25.17 34.23L25.06 34.12L25.20 34.26Q25.21 33.09 26.13 32.12L26.01 32.00L25.98 31.97Q27.07 31.18 28.22 31.10L28.16 31.05L28.09 30.98Q28.66 30.78 29.38 31.47L29.39 31.48L29.80 31.43ZM24.90 29.73L24.88 29.64L24.89 29.76L24.82 29.65Z"/></svg>