<svg xmlns="http://www.w3.org/2000/svg" width="150" height="50" viewBox="0,0,150,50"><path fill="#222" d="M61.09 34.73L61.00 34.63L61.14 34.78Q61.03 38.25 57.87 39.54L57.82 39.49L57.99 39.66Q55.92 40.29 51.50 40.44L51.66 40.60L51.66 40.60Q46.72 40.57 44.47 39.39L44.46 39.38L44.52 39.44Q42.68 38.13 42.83 34.78L42.85 34.80L42.79 34.74Q43.00 34.30 43.19 32.32L43.08 32.21L43.14 32.27Q43.15 30.57 43.15 29.58L43.20 29.63L43.31 29.74Q43.16 21.59 38.97 14.17L39.05 14.25L38.96 14.16Q40.26 14.96 43.22 16.02L43.07 15.87L43.16 15.96Q46.09 22.73 46.09 30.12L46.00 30.03L46.12 30.15Q46.03 30.67 45.94 31.85L45.85 31.76L46.00 31.91Q45.80 32.99 45.80 33.60L45.82 33.62L45.81 33.61Q45.90 35.98 47.46 36.97L47.33 36.84L47.41 36.92Q49.04 37.71 52.01 37.71L52.01 37.72L51.99 37.70Q54.69 37.77 56.33 36.59L56.35 36.61L56.24 36.50Q58.12 35.18 57.97 32.67L58.03 32.74L57.90 32.60Q57.85 31.26 57.85 29.93L57.94 30.02L57.89 29.97Q57.80 22.84 60.20 16.33L60.26 16.38L62.50 15.89L62.41 15.79Q63.46 15.58 64.56 15.13L64.44 15.01L64.58 15.14Q60.80 22.22 60.80 29.80L60.82 29.81L60.90 29.89Q60.76 30.59 60.90 32.23L60.99 32.32L60.90 32.24Q61.13 33.97 61.13 34.77ZM63.14 35.52L63.15 35.53L63.22 35.60Q62.31 30.61 63.03 25.51L63.11 25.60L63.13 25.62Q63.88 20.43 66.28 16.05L66.17 15.94L66.24 16.00Q65.54 16.22 64.09 16.87L64.12 16.90L64.10 16.88Q64.52 16.08 65.32 14.52L65.38 14.58L65.27 14.47Q61.93 15.81 60.03 16.15L59.93 16.06L59.86 15.99Q57.50 22.50 57.50 29.77L57.53 29.80L57.61 29.88Q57.66 31.30 57.73 32.70L57.60 32.57L57.66 32.63Q57.84 35.06 56.05 36.28L56.03 36.25L55.93 36.15Q54.59 37.37 52.08 37.40L52.04 37.37L52.08 37.41Q49.19 37.33 47.74 36.57L47.69 36.52L47.82 36.65Q47.66 36.07 47.58 35.61L47.56 35.58L47.73 35.75Q47.63 35.20 47.74 34.70L47.63 34.59L47.76 34.72Q47.96 32.37 47.96 30.05L47.99 30.08L47.93 30.02Q47.96 24.22 46.44 18.32L46.35 18.23L46.46 18.35Q45.75 18.25 44.35 17.91L44.21 17.77L44.31 17.88Q43.93 16.58 43.47 15.66L43.48 15.67L43.43 15.62Q40.64 14.77 38.24 13.40L38.40 13.56L38.26 13.42Q43.00 21.13 43.00 29.85L42.89 29.74L42.88 29.72Q42.98 31.46 42.83 33.18L42.85 33.20L42.85 33.20Q42.56 35.54 42.64 36.72L42.56 36.64L42.52 36.60Q42.77 38.64 44.02 39.78L43.92 39.68L43.97 39.72Q44.99 42.23 49.63 42.61L49.66 42.63L49.58 42.56Q51.80 42.83 53.93 42.91L53.87 42.85L53.85 42.83Q59.28 43.08 62.06 42.13L62.10 42.17L61.97 42.04Q63.62 41.22 63.62 39.17L63.60 39.14L63.58 39.12Q63.72 38.12 63.27 35.65Z"/><path fill="#222" d="M63.61 28.68L63.55 28.63L63.62 28.70Q60.70 28.59 59.94 30.84L59.97 30.87L59.96 30.85Q59.83 31.68 59.72 32.33L59.66 32.27L59.71 32.32Q62.22 32.43 63.85 32.43L63.83 32.41L63.90 32.47Q65.55 32.49 68.14 32.38L68.02 32.25L68.18 32.41Q68.10 30.73 66.69 29.67L66.67 29.65L66.49 29.47Q65.37 28.66 63.58 28.66ZM63.65 41.21L63.62 41.18L63.58 41.14Q59.44 41.23 58.15 39.82L58.15 39.82L58.11 39.79Q57.14 38.32 56.99 35.05L56.95 35.00L56.90 34.95Q57.05 34.88 56.97 33.51L57.00 33.53L56.96 33.50Q56.76 31.13 56.76 30.40L56.73 30.37L56.75 30.39Q56.76 28.53 57.48 27.43L57.54 27.49L57.56 27.50Q58.82 25.95 61.79 25.95L61.90 26.06L63.52 26.12L63.42 26.02Q65.53 26.07 67.05 26.38L67.06 26.39L67.03 26.35Q68.97 26.70 69.96 27.92L70.00 27.96L70.14 28.09Q70.63 29.04 70.70 31.13L70.77 31.20L70.86 31.29Q70.78 32.35 70.82 34.52L70.74 34.44L70.76 34.46Q67.90 34.50 65.12 34.50L65.19 34.57L59.60 34.58L59.53 34.50Q59.66 38.89 63.73 38.66L63.85 38.78L63.72 38.66Q67.59 38.57 68.81 36.74L68.68 36.61L68.76 36.69Q69.71 37.29 71.31 38.47L71.21 38.38L71.31 38.48Q69.91 40.84 65.76 41.11L65.69 41.04L65.68 41.03Q65.04 41.15 63.67 41.23ZM65.95 43.55L65.86 43.46L66.00 43.60Q66.97 43.43 68.19 43.51L68.24 43.55L68.23 43.55Q73.24 43.76 74.16 40.98L74.12 40.95L74.11 40.94Q72.44 39.65 71.34 38.89L71.40 38.95L71.35 38.90Q71.57 38.55 71.76 38.32L71.78 38.34L71.74 38.30Q71.03 37.85 69.66 36.90L69.61 36.86L69.67 36.92Q70.78 36.99 72.83 37.30L72.82 37.28L72.89 37.35Q72.67 35.96 72.60 35.27L72.59 35.27L72.43 33.32L72.51 33.40Q72.27 30.95 71.63 29.47L71.68 29.52L71.68 29.52Q71.33 29.09 70.75 28.48L70.79 28.51L70.84 28.56Q70.68 28.26 70.45 27.68L70.45 27.68L70.45 27.68Q68.54 25.62 63.47 25.62L63.47 25.61L61.77 25.59L61.77 25.59Q58.47 25.52 57.02 27.00L57.10 27.09L57.03 27.02Q56.33 28.11 56.37 30.16L56.32 30.12L56.48 30.27Q56.48 31.18 56.59 33.43L56.55 33.39L56.54 33.37Q56.66 35.02 56.78 37.08L56.76 37.06L56.83 37.13Q56.97 39.25 57.85 40.32L57.85 40.32L58.01 40.48Q58.18 40.65 58.37 40.77L58.27 40.66L58.52 41.26L58.58 41.32Q59.37 43.18 65.96 43.56ZM63.75 38.27L63.78 38.29L63.87 38.38Q62.66 38.43 61.75 37.98L61.62 37.85L61.74 37.96Q61.72 37.60 61.53 36.92L61.57 36.96L61.48 36.87Q63.24 36.84 64.84 36.84L64.73 36.73L64.71 36.71Q66.34 36.67 68.02 36.79L68.19 36.96L68.20 36.97Q66.76 38.15 63.75 38.26ZM65.42 30.95L65.38 30.91L65.38 30.92Q66.07 30.99 67.40 31.37L67.42 31.39L67.57 31.73L67.61 31.96L67.62 31.97Q66.19 32.02 65.27 31.98L65.28 31.99L65.30 32.01Q63.03 31.98 62.99 31.98L62.97 31.97L63.02 32.02Q63.77 31.09 65.45 30.98Z"/><path fill="#222" d="M133.85 20.12L133.92 20.19L133.89 20.15Q129.51 20.08 125.82 19.09L125.80 19.07L125.91 19.19Q127.26 23.58 127.45 28.41L127.52 28.48L127.59 28.55Q127.71 33.28 126.49 37.89L126.53 37.92L126.58 37.97Q129.36 37.33 132.86 37.17L132.83 37.14L132.86 37.17Q136.85 37.05 138.64 34.61L138.53 34.51L138.61 34.59Q140.11 32.51 140.30 28.40L140.34 28.43L140.23 28.33Q140.34 26.61 139.89 24.90L139.78 24.79L139.87 24.88Q138.58 20.12 133.86 20.12ZM122.00 42.19L121.98 42.17L121.87 42.06Q124.91 36.53 124.91 29.83L124.90 29.82L124.90 29.82Q124.85 21.24 120.55 14.24L120.52 14.21L120.48 14.17Q125.76 16.86 134.02 17.05L133.99 17.02L134.14 17.17Q142.83 17.18 143.17 24.34L143.22 24.39L143.25 24.41Q143.29 27.04 143.25 28.49L143.41 28.65L143.25 28.49Q143.36 33.35 142.52 35.52L142.51 35.52L142.45 35.46Q141.99 36.52 141.23 37.36L141.24 37.37L141.26 37.39Q139.96 38.98 137.33 39.47L137.21 39.35L137.19 39.33Q135.69 39.69 132.68 39.92L132.64 39.89L132.77 40.01Q126.48 40.31 121.87 42.06ZM139.93 42.07L139.89 42.03L139.84 41.98Q142.53 41.59 144.17 40.11L144.33 40.27L144.17 40.11Q145.37 38.34 145.33 35.60L145.45 35.71L145.35 35.61Q145.34 34.23 145.18 30.73L145.33 30.88L144.96 26.32L144.90 26.26Q144.79 24.05 143.84 21.96L143.75 21.87L143.85 21.97Q143.32 21.02 142.64 20.38L142.63 20.37L142.53 20.12L142.44 20.03Q140.92 17.25 136.51 16.87L136.42 16.78L136.47 16.84Q133.76 16.68 126.76 15.96L126.73 15.93L126.80 16.00Q123.38 15.39 119.68 13.37L119.86 13.55L119.72 13.41Q124.70 20.94 124.70 29.70L124.51 29.51L124.71 29.71Q124.66 36.66 121.31 42.83L121.27 42.79L121.32 42.84Q121.86 42.42 123.19 41.93L123.30 42.04L123.29 42.03Q122.94 42.86 122.06 44.34L122.05 44.33L122.13 44.41Q125.06 43.23 128.42 42.74L128.52 42.84L128.44 42.76Q130.46 42.38 134.11 42.27L134.16 42.31L134.16 42.32Q138.10 42.26 139.93 42.07ZM139.92 28.39L139.91 28.39L139.97 28.44Q139.52 36.37 132.82 36.75L132.91 36.85L132.92 36.85Q130.98 36.96 128.92 37.23L128.89 37.20L128.84 37.15Q129.50 33.24 129.50 29.59L129.54 29.63L129.55 29.64Q129.50 25.90 128.78 22.05L128.77 22.04L128.83 22.10Q131.11 22.48 135.79 22.48L135.69 22.38L135.72 22.41Q137.06 22.22 138.70 23.17L138.67 23.15L138.86 23.34Q140.17 25.63 140.01 28.49Z"/><path fill="#444" d="M103.88 28.94L103.81 28.86L103.89 28.94Q101.26 28.87 100.24 30.05L100.34 30.16L100.28 30.09Q99.26 31.28 99.26 33.90L99.20 33.85L99.33 33.98Q99.33 39.08 103.94 38.89L103.94 38.89L103.78 38.73Q105.90 38.95 107.25 37.38L107.39 37.53L107.31 37.45Q108.70 35.93 108.47 33.87L108.40 33.80L108.39 33.78Q108.42 31.27 107.55 30.24L107.46 30.16L107.51 30.21Q106.00 28.85 103.80 28.85ZM108.94 38.75L108.86 38.68L108.82 38.63Q107.76 41.22 103.07 41.22L102.99 41.14L101.51 41.10L101.49 41.08Q99.24 41.20 98.14 40.06L98.18 40.10L98.13 40.05Q97.16 39.08 96.90 36.68L96.73 36.52L96.83 36.62Q96.71 35.16 96.63 33.37L96.64 33.38L96.52 33.26Q96.58 32.37 96.43 30.43L96.37 30.37L96.32 30.32Q96.30 26.11 101.48 26.11L101.39 26.03L102.96 26.03L102.96 26.03Q105.95 26.13 108.04 27.43L107.97 27.35L108.06 27.44Q108.87 27.95 109.37 28.64L109.28 28.55L109.28 28.55Q109.66 27.86 110.19 26.22L110.11 26.14L110.10 26.13Q111.36 25.99 113.69 25.38L113.59 25.28L113.70 25.39Q111.13 29.64 111.13 34.89L111.13 34.89L111.10 34.86Q111.01 38.50 112.38 41.59L112.35 41.55L112.35 41.56Q111.27 41.31 109.36 41.08L109.43 41.15L109.34 41.06Q109.16 40.23 108.85 38.66ZM112.22 43.93L112.11 43.82L114.51 44.59L114.38 44.46Q115.57 44.73 116.55 45.19L116.66 45.30L116.54 45.18Q112.92 40.86 112.92 34.77L113.00 34.86L112.94 34.80Q113.02 30.35 115.15 26.54L115.03 26.42L115.02 26.41Q114.52 26.78 113.18 27.16L113.22 27.19L113.16 27.14Q113.37 26.25 114.25 24.72L114.27 24.74L114.37 24.84Q113.75 24.98 109.75 25.82L109.76 25.83L109.19 27.66L109.11 27.58Q107.34 25.85 102.93 25.62L103.04 25.73L103.01 25.71Q101.87 25.70 99.62 25.86L99.56 25.79L99.66 25.90Q95.93 26.19 96.04 30.23L96.12 30.31L96.10 30.29Q96.20 33.59 96.77 38.04L96.84 38.11L96.73 38.42L96.88 38.57Q96.99 39.41 97.79 40.51L97.62 40.34L97.64 40.36Q97.76 40.48 97.95 40.59L97.98 40.62L98.07 40.71Q98.36 41.23 98.74 41.80L98.67 41.73L98.67 41.73Q100.01 43.18 103.40 43.37L103.45 43.43L103.45 43.43Q105.05 43.51 105.21 43.51L105.18 43.48L106.78 43.52L106.82 43.56Q109.97 43.51 111.19 41.95L111.24 42.01L111.25 42.02Q111.50 42.53 112.11 43.83ZM105.65 31.16L105.71 31.22L105.62 31.13Q107.01 31.19 107.85 31.64L107.85 31.64L107.85 31.65Q108.12 32.41 108.12 33.86L108.14 33.88L108.20 33.93Q108.27 35.72 106.99 37.15L106.99 37.14L107.07 37.23Q105.79 38.65 103.88 38.46L103.96 38.54L103.81 38.38Q102.34 38.36 101.31 37.94L101.33 37.96L101.49 38.12Q101.23 37.21 101.23 35.99L101.28 36.04L101.22 35.98Q101.29 32.39 103.91 31.44L103.96 31.49L104.02 31.55Q104.83 31.14 105.63 31.14Z"/><path fill="#222" d="M115.59 29.63L115.66 29.70L115.64 29.68Q115.51 33.81 114.79 37.96L114.81 37.98L114.94 38.11Q117.08 37.44 120.17 37.32L120.22 37.38L120.25 37.41Q121.61 37.63 122.68 36.62L122.69 36.63L122.61 36.55Q123.74 35.60 123.74 34.27L123.61 34.15L123.63 34.16Q123.63 33.86 123.60 33.60L123.58 33.58L123.58 33.58Q123.42 30.64 121.17 29.80L121.33 29.96L121.20 29.83Q120.53 29.62 119.85 29.70L119.76 29.61L119.82 29.67Q118.74 29.58 117.71 29.61L117.79 29.70L117.78 29.69Q116.59 29.60 115.57 29.60ZM114.32 19.14L114.35 19.17L114.34 19.16Q115.32 22.58 115.59 26.96L115.58 26.95L115.59 26.96Q116.97 27.01 119.64 27.05L119.73 27.14L119.61 27.03Q122.65 27.17 122.99 23.63L122.82 23.46L122.98 23.62Q123.12 21.62 121.71 20.79L121.79 20.86L121.75 20.82Q120.72 20.17 116.30 19.53L116.27 19.50L116.46 19.68Q115.25 19.39 114.33 19.16ZM110.78 42.14L110.75 42.11L110.71 42.07Q113.12 35.34 112.85 27.95L112.86 27.96L112.94 28.04Q112.57 20.66 109.63 14.19L109.73 14.28L109.79 14.34Q113.56 16.86 119.78 17.11L119.66 16.98L119.82 17.15Q126.01 17.36 126.35 20.25L126.22 20.11L126.40 20.30Q126.57 22.91 125.16 25.57L125.32 25.72L125.34 25.74Q124.49 27.14 122.89 27.82L122.78 27.72L122.85 27.79Q126.63 28.60 126.86 33.96L126.79 33.90L126.70 33.81Q126.77 34.90 126.69 36.31L126.68 36.30L126.80 36.42Q126.82 37.81 125.89 38.74L125.81 38.66L125.77 38.62Q124.76 39.48 123.43 39.64L123.53 39.74L123.45 39.65Q122.08 39.84 121.01 39.84L121.04 39.87L121.06 39.89Q115.25 39.79 110.72 42.08ZM123.46 42.33L123.48 42.35L123.61 42.48Q124.39 42.38 126.25 42.50L126.29 42.53L126.31 42.55Q127.68 42.56 128.79 41.68L128.88 41.77L128.82 41.71Q129.56 40.75 129.45 39.18L129.58 39.32L129.64 39.37Q129.43 38.29 128.71 34.83L128.81 34.92L128.71 34.83Q128.02 31.58 126.15 30.10L126.11 30.06L125.76 29.29L125.76 29.29Q127.51 27.95 128.08 24.18L127.98 24.08L128.09 24.20Q128.08 22.89 128.01 21.48L128.09 21.56L128.06 21.54Q128.14 20.36 127.03 19.52L126.91 19.40L126.96 19.45Q126.70 19.30 126.59 19.27L126.58 19.26L126.50 19.18Q126.25 18.66 125.41 17.86L125.39 17.84L125.41 17.86Q123.92 16.83 119.70 16.64L119.77 16.71L119.64 16.58Q113.09 16.39 109.09 13.50L109.07 13.47L109.11 13.51Q112.37 20.50 112.67 28.04L112.73 28.10L112.56 27.93Q112.91 35.78 110.09 42.71L110.13 42.74L112.17 41.77L112.15 41.76Q111.80 42.93 111.30 44.07L111.42 44.19L111.25 44.02Q115.60 42.20 120.62 42.20L120.69 42.26L120.70 42.27Q122.04 42.21 123.49 42.36ZM121.32 31.78L121.45 31.90L121.38 31.84Q122.17 31.83 123.08 32.28L122.95 32.15L123.04 32.24Q123.12 32.54 123.27 33.61L123.31 33.65L123.29 33.63Q123.51 35.03 122.57 36.08L122.58 36.09L122.57 36.07Q121.63 37.11 120.22 36.99L120.18 36.96L118.69 37.06L118.79 37.17Q117.89 37.07 117.17 37.18L117.29 37.30L117.18 37.19Q117.50 35.38 117.58 31.92L117.67 32.01L117.54 31.88Q118.23 31.85 119.49 31.81L119.59 31.91L119.59 31.91Q120.81 31.84 121.42 31.87ZM120.37 22.26L120.37 22.26L120.68 22.19L120.73 22.24Q120.88 22.16 121.07 22.20L121.07 22.20L121.54 22.29L121.95 22.51L122.50 22.53L122.49 22.52Q122.61 22.79 122.61 23.10L122.60 23.08L122.65 23.66L122.64 23.66Q122.51 24.78 121.64 25.72L121.69 25.77L121.72 25.80Q120.89 26.78 119.67 26.78L119.67 26.77L119.54 26.64Q118.53 26.67 118.53 26.67L118.49 26.62L118.51 26.65Q117.23 26.66 117.58 26.66L117.60 26.69L117.56 26.64Q117.52 25.12 117.22 22.08L117.29 22.16L117.19 22.05Q118.80 22.22 120.33 22.22Z"/><path fill="#333" d="M21.18 19.29L21.17 19.28L21.33 19.44Q22.15 23.65 22.30 27.23L22.16 27.09L22.27 27.19Q23.41 27.30 24.47 27.30L24.47 27.30L26.59 27.21L26.66 27.28Q27.64 27.20 28.52 25.79L28.57 25.85L28.56 25.83Q29.30 24.67 29.42 23.49L29.37 23.44L29.32 23.40Q29.81 20.50 25.59 20.01L25.45 19.86L25.43 19.84Q23.90 19.95 21.27 19.38ZM22.21 29.88L22.23 29.90L22.26 29.92Q22.19 36.14 21.05 40.55L21.00 40.50L21.16 40.67Q19.70 41.07 17.38 42.13L17.36 42.12L17.35 42.11Q19.73 35.46 19.46 28.19L19.38 28.12L19.39 28.12Q19.12 20.77 16.34 14.33L16.21 14.21L16.28 14.27Q20.42 17.05 26.67 17.05L26.69 17.08L26.67 17.05Q32.73 17.05 32.88 20.52L32.95 20.60L32.91 20.55Q33.06 23.07 32.07 25.73L32.05 25.70L32.08 25.74Q31.49 26.67 30.54 27.89L30.58 27.93L30.65 28.00Q29.30 29.58 26.75 29.85L26.69 29.79L26.86 29.95Q24.53 29.91 22.28 29.95ZM28.44 32.23L28.36 32.14L28.49 32.27Q32.48 32.34 33.74 27.55L33.79 27.59L33.84 27.65Q34.76 23.96 34.61 21.95L34.60 21.94L34.71 22.04Q34.52 20.44 33.75 19.45L33.80 19.50L33.68 19.38Q33.43 19.13 32.94 18.90L32.87 18.84L32.88 18.84Q32.89 18.70 32.28 17.94L32.38 18.04L32.33 18.00Q30.70 16.59 26.74 16.59L26.84 16.69L26.69 16.54Q19.98 16.72 15.75 13.56L15.73 13.54L15.57 13.38Q18.92 20.64 19.18 28.11L19.01 27.93L19.05 27.98Q19.47 35.77 16.80 42.85L16.80 42.85L16.71 42.77Q17.85 42.19 18.84 41.80L18.70 41.67L18.31 42.80L18.39 42.88Q18.29 43.54 18.02 44.11L17.85 43.94L17.93 44.02Q20.33 42.96 23.22 42.42L23.18 42.38L23.27 42.47Q24.04 36.88 24.11 32.16L24.25 32.30L24.12 32.17Q25.31 32.18 26.30 32.18L26.32 32.20L26.28 32.15Q27.59 32.13 28.39 32.17ZM27.39 22.19L27.56 22.36L27.41 22.21Q27.99 22.30 28.98 22.52L29.00 22.54L28.99 22.53Q29.10 22.76 29.14 23.06L29.00 22.92L29.16 23.08Q29.11 23.26 29.03 23.53L29.06 23.56L29.05 23.55Q29.04 24.86 28.31 25.74L28.22 25.64L28.25 25.67Q27.59 26.65 26.56 26.84L26.61 26.89L26.57 26.85Q25.88 26.88 24.24 26.88L24.18 26.82L24.32 26.96Q24.15 24.54 23.92 22.18L23.93 22.19L25.75 22.34L25.70 22.29Q26.59 22.34 27.47 22.26Z"/><path fill="#222" d="M71.61 47.03L71.67 47.09L71.66 47.08Q70.68 47.23 68.77 47.54L68.85 47.62L68.91 47.67Q70.11 45.41 71.14 44.12L71.11 44.09L71.08 44.06Q72.84 44.37 72.99 44.37L73.03 44.41L73.01 44.39Q73.43 44.58 73.96 44.46L73.84 44.34L73.82 44.32Q74.56 44.30 74.75 44.30L74.78 44.33L74.82 44.37Q77.22 43.95 77.14 41.78L77.18 41.82L77.29 41.93Q77.18 40.38 77.07 34.13L77.10 34.17L77.07 34.13Q77.12 30.68 77.20 26.53L77.12 26.45L78.61 26.34L78.57 26.31Q79.09 26.07 79.78 25.84L79.82 25.88L79.94 26.00Q79.69 30.39 79.72 34.77L79.74 34.79L79.64 34.68Q79.74 39.13 80.28 43.51L80.22 43.45L80.25 43.48Q80.28 43.74 80.28 44.01L80.32 44.05L80.37 44.09Q80.22 45.58 78.54 45.96L78.56 45.98L78.58 46.00Q75.61 46.53 71.76 47.17ZM78.49 22.92L76.38 19.81L76.29 19.73Q77.30 18.30 79.13 15.52L79.08 15.47L79.11 15.50Q79.93 16.55 81.26 18.37L81.11 18.23L78.37 22.79ZM81.55 49.57L81.43 49.46L81.50 49.53Q82.06 49.60 82.82 49.25L82.70 49.13L82.66 49.09Q83.07 48.47 83.07 48.01L83.07 48.01L83.06 48.00Q83.06 47.67 82.95 47.06L82.95 47.06L83.02 47.12Q81.58 40.63 81.58 32.71L81.68 32.81L81.67 32.80Q81.57 29.84 81.72 26.95L81.71 26.93L81.66 26.89Q81.20 27.15 80.06 27.45L80.17 27.56L80.12 27.51Q80.13 27.03 80.17 26.50L80.17 26.50L80.32 25.46L80.18 25.33Q78.44 25.95 76.65 25.99L76.65 25.99L76.68 26.02Q76.66 30.37 76.70 33.95L76.64 33.89L76.79 41.77L76.78 41.76Q76.95 43.84 74.78 43.95L74.74 43.91L74.68 43.85Q74.54 43.93 74.02 43.99L73.96 43.93L74.10 44.07Q73.59 44.13 73.32 44.13L73.23 44.04L73.32 44.13Q72.74 44.01 71.18 43.59L71.22 43.63L71.09 43.50Q70.75 44.22 69.65 45.90L69.58 45.83L67.99 48.09L68.13 48.23Q69.05 48.08 70.68 47.70L70.62 47.63L70.17 48.37L69.70 49.08L69.66 49.03Q71.86 48.80 73.19 48.87L73.32 49.00L73.18 48.85Q75.46 49.01 81.40 49.43ZM78.41 23.60L78.40 23.58L78.70 23.01L78.71 23.02Q79.14 23.53 80.09 25.12L80.01 25.05L80.10 25.14Q81.62 22.01 83.18 18.92L83.19 18.94L83.12 18.86Q82.14 17.28 81.19 15.98L81.13 15.92L81.32 16.11Q80.98 16.19 80.64 16.73L80.75 16.84L80.60 16.68Q80.34 16.20 79.35 14.91L79.18 14.74L79.26 14.82Q78.19 16.53 75.87 19.88L75.74 19.75L75.68 19.69Q76.72 21.03 78.43 23.62Z"/><path fill="#333" d="M46.30 23.27L46.30 23.27L46.29 23.26Q44.60 19.21 38.40 19.40L38.35 19.36L38.41 19.41Q34.00 19.53 32.02 20.98L32.00 20.96L31.97 20.93Q29.67 22.78 29.67 26.89L29.62 26.84L29.71 28.79L29.64 28.72Q29.70 37.62 38.73 37.62L38.58 37.48L38.59 37.48Q40.64 37.47 42.12 36.67L42.12 36.67L42.12 36.67Q44.06 35.76 43.91 33.90L43.86 33.84L43.83 33.81Q43.63 31.71 39.94 30.80L40.03 30.89L38.12 30.92L38.10 30.90Q37.06 30.82 36.11 30.85L36.02 30.77L36.11 30.85Q36.16 29.95 36.12 28.05L36.16 28.08L36.08 28.00Q43.70 27.97 47.89 27.63L48.01 27.76L47.92 27.67Q47.87 28.49 47.87 29.28L47.97 29.39L47.79 29.21Q47.84 30.06 47.87 30.86L47.90 30.88L47.85 30.83Q46.91 31.00 46.91 31.00L46.78 30.86L46.88 30.96Q45.42 30.88 45.80 30.88L45.85 30.93L45.80 30.87Q46.87 32.48 47.26 34.46L47.33 34.53L47.18 34.39Q47.34 35.16 47.34 35.61L47.48 35.75L47.34 35.62Q47.29 40.20 38.49 40.20L38.55 40.26L38.67 40.39Q31.51 40.34 28.92 38.25L28.86 38.18L28.88 38.20Q26.83 35.78 26.83 30.71L26.96 30.84L26.98 30.86Q26.89 29.71 26.74 27.00L26.67 26.93L26.69 26.95Q26.61 24.66 26.65 23.29L26.55 23.19L26.73 23.38Q26.72 20.40 28.09 18.80L28.16 18.87L28.10 18.81Q30.76 16.86 35.63 16.67L35.60 16.64L38.17 16.47L38.27 16.57Q41.34 16.44 44.76 16.86L44.68 16.77L44.66 16.75Q48.41 17.23 49.36 20.47L49.48 20.58L49.49 20.59Q48.44 21.48 46.34 23.31ZM47.77 25.53L47.83 25.48L47.91 25.56Q49.05 24.41 50.91 22.43L50.80 22.32L50.92 22.44Q50.58 21.45 49.59 19.74L49.65 19.80L49.55 19.70Q48.41 17.08 44.60 16.43L44.63 16.45L44.53 16.36Q42.59 16.43 38.29 16.13L38.14 15.99L35.54 16.20L35.48 16.14Q30.30 16.33 27.71 18.31L27.69 18.29L27.71 18.31Q26.36 19.96 26.24 23.04L26.31 23.11L26.19 22.99Q26.26 22.60 26.48 28.08L26.51 28.11L26.53 28.13Q26.59 29.52 26.67 32.26L26.55 32.14L26.57 32.17Q26.80 36.65 28.55 38.59L28.61 38.66L28.64 38.69Q28.88 39.38 29.75 40.26L29.80 40.31L29.74 40.25Q32.68 42.16 38.20 42.50L38.15 42.45L41.11 42.70L41.20 42.80Q42.78 42.89 44.79 42.77L44.67 42.65L44.75 42.73Q46.09 42.55 48.19 42.02L48.29 42.12L48.25 42.08Q50.11 41.50 50.07 39.18L50.08 39.19L50.24 39.35Q50.09 37.95 49.03 35.17L49.18 35.32L49.02 35.16Q48.82 34.35 48.29 33.55L48.20 33.46L48.24 33.50Q48.82 33.52 50.00 33.71L50.03 33.73L50.03 33.73Q49.84 30.23 49.88 29.55L49.69 29.36L49.70 29.37Q49.48 29.53 49.06 29.49L48.97 29.40L48.96 29.39Q48.65 29.42 48.27 29.50L48.30 29.53L48.13 29.35Q48.30 28.43 48.38 27.36L48.29 27.27L48.34 27.32Q42.02 27.78 35.74 27.66L35.78 27.71L35.72 27.65Q35.69 28.49 35.69 29.40L35.71 29.43L35.87 31.34L35.86 31.32Q36.29 31.37 36.71 31.34L36.61 31.24L36.58 31.20Q37.01 31.23 37.47 31.23L37.39 31.14L37.44 31.19Q37.54 31.75 37.58 32.25L37.50 32.16L37.47 32.14Q37.40 32.53 37.36 33.02L37.47 33.13L37.36 33.02Q38.47 33.06 39.50 33.02L39.62 33.15L39.62 33.15Q40.57 33.06 41.59 33.10L41.62 33.12L41.68 33.18Q42.67 33.37 43.54 33.75L43.58 33.80L43.56 33.81L43.47 33.72Q43.75 35.37 42.07 36.29L41.93 36.14L42.05 36.26Q40.38 37.18 38.66 37.18L38.58 37.09L38.62 37.13Q34.82 37.18 32.39 35.43L32.26 35.31L32.37 35.42Q31.46 33.44 31.61 30.89L31.55 30.82L31.50 30.78Q31.79 25.96 33.63 23.96L33.66 23.99L33.75 24.08Q35.48 21.96 40.16 21.66L40.26 21.76L40.33 21.82Q43.94 21.55 45.88 23.34L45.75 23.21L45.77 23.23Q45.98 23.48 46.10 23.67L46.04 23.62L46.17 23.63L46.16 23.62Q46.86 24.43 47.43 25.54L47.27 25.38L47.68 25.45Z"/><path fill="#222" d="M14.98 41.22L15.07 41.31L11.99 41.09L12.04 41.14Q9.53 40.91 8.73 40.79L8.86 40.92L8.76 40.83Q7.01 40.56 5.83 39.68L5.81 39.66L5.78 39.64Q4.54 38.28 4.31 34.93L4.36 34.98L4.24 34.85Q4.16 34.32 4.09 33.11L4.12 33.14L4.22 33.24Q4.10 32.70 4.02 31.59L4.05 31.62L4.08 31.65Q4.14 30.91 4.18 30.19L4.14 30.15L4.11 30.12Q4.32 28.20 5.35 27.44L5.40 27.49L5.27 27.36Q7.32 26.32 12.15 26.09L12.05 26.00L12.16 26.10Q14.12 25.94 14.92 25.94L14.93 25.94L14.91 25.93Q16.36 25.88 17.73 26.19L17.83 26.29L17.82 26.29Q17.19 27.48 16.66 29.31L16.72 29.37L16.57 29.22Q16.15 29.37 15.65 29.33L15.73 29.41L15.73 29.41Q15.62 29.37 15.09 29.26L14.99 29.16L14.14 29.03L14.08 28.98Q12.92 28.61 12.31 28.65L12.34 28.68L12.44 28.79Q7.60 28.74 6.99 31.56L7.13 31.69L7.00 31.57Q6.85 32.82 6.93 33.78L6.84 33.69L6.97 33.81Q7.09 36.37 8.32 37.46L8.17 37.30L8.28 37.41Q9.46 38.44 12.05 38.48L12.09 38.52L12.07 38.50Q13.53 38.51 14.25 38.21L14.33 38.29L15.28 37.71L15.39 37.82Q15.89 37.56 16.46 37.49L16.43 37.46L16.40 37.43Q16.71 39.29 17.09 40.59L17.04 40.54L17.09 40.59Q16.77 40.88 14.98 41.22ZM18.25 44.19L18.19 44.12L18.16 44.09Q18.70 44.30 19.54 44.37L19.48 44.31L19.56 44.39Q20.19 44.41 20.53 43.84L20.44 43.75L20.46 43.77Q19.16 41.59 18.67 39.50L18.73 39.56L18.77 39.61Q18.32 39.46 17.86 39.46L17.99 39.58L18.05 39.64Q17.50 39.52 17.12 39.71L17.22 39.80L17.06 39.65Q16.84 38.51 16.69 37.11L16.68 37.10L16.74 37.16Q15.99 36.94 14.78 37.51L14.92 37.65L14.82 37.55Q13.64 38.17 13.15 38.17L13.15 38.17L13.08 38.11Q12.60 38.12 11.99 38.08L12.03 38.11L12.02 38.11Q11.15 38.11 9.17 37.54L9.18 37.55L9.17 37.54Q8.72 36.71 8.76 35.57L8.88 35.70L8.84 35.65Q9.07 31.46 14.02 30.93L14.00 30.91L13.99 30.90Q14.68 30.91 16.05 31.25L15.96 31.16L15.96 31.16Q17.33 31.51 18.06 31.47L18.12 31.53L18.17 31.58Q18.53 29.28 19.22 27.45L19.15 27.39L19.17 27.40Q18.84 27.34 18.45 27.26L18.44 27.24L17.69 27.18L17.62 27.11Q17.83 26.63 18.21 25.76L18.22 25.77L18.34 25.89Q16.84 25.57 15.28 25.57L15.22 25.51L15.15 25.44Q12.90 25.59 8.52 25.97L8.40 25.85L8.53 25.98Q6.55 26.09 4.99 27.08L4.94 27.03L4.88 26.97Q3.69 27.95 3.69 29.85L3.68 29.84L3.70 29.86Q3.66 30.24 3.77 31.46L3.84 31.52L3.82 31.51Q3.81 32.45 3.77 33.05L3.85 33.13L3.95 33.23Q3.89 35.04 4.61 38.77L4.54 38.70L4.55 38.71Q5.00 39.61 5.49 40.11L5.43 40.04L5.67 40.29L5.68 40.25L5.72 40.30Q6.85 42.53 10.77 43.14L10.67 43.04L10.62 42.98Q13.82 43.53 16.49 43.80L16.52 43.82L16.54 43.85Q17.36 43.95 18.28 44.21Z"/><path fill="#111" d="M88.49 19.33L88.58 19.42L88.43 19.27Q89.29 23.52 89.45 27.10L89.53 27.19L89.43 27.08Q90.70 27.33 91.77 27.33L91.76 27.31L93.91 27.26L93.96 27.31Q94.93 27.21 95.81 25.81L95.77 25.77L95.86 25.86Q96.62 24.71 96.73 23.53L96.65 23.45L96.67 23.48Q96.98 20.39 92.75 19.90L92.89 20.03L92.88 20.02Q91.10 19.88 88.47 19.31ZM89.60 29.99L89.48 29.88L89.55 29.94Q89.43 36.11 88.29 40.52L88.28 40.51L88.28 40.51Q86.85 40.95 84.53 42.01L84.49 41.98L84.49 41.98Q86.90 35.36 86.63 28.09L86.57 28.03L86.69 28.15Q86.34 20.71 83.56 14.28L83.57 14.29L83.64 14.37Q87.82 17.17 94.07 17.17L94.01 17.12L93.96 17.07Q100.02 17.08 100.17 20.54L100.17 20.54L100.23 20.60Q100.24 22.97 99.25 25.63L99.26 25.64L99.26 25.64Q98.76 26.66 97.81 27.88L97.97 28.04L97.84 27.92Q96.54 29.55 93.99 29.82L94.05 29.88L94.13 29.96Q91.76 29.87 89.51 29.91ZM95.69 32.20L95.59 32.10L95.67 32.18Q99.91 32.50 101.17 27.70L101.06 27.60L101.01 27.55Q102.11 24.04 101.96 22.02L101.90 21.96L101.99 22.05Q101.77 20.42 101.00 19.43L101.05 19.48L101.09 19.51Q100.63 19.06 100.13 18.83L100.19 18.88L100.24 18.93Q100.18 18.72 99.57 17.96L99.58 17.97L99.58 17.97Q97.92 16.54 93.96 16.54L94.09 16.67L94.11 16.68Q87.08 16.55 82.86 13.39L83.01 13.54L82.98 13.51Q86.01 20.46 86.27 27.92L86.45 28.10L86.29 27.94Q86.64 35.68 83.98 42.76L84.04 42.82L84.03 42.81Q84.99 42.06 85.98 41.68L86.03 41.72L85.73 42.95L85.70 42.92Q85.39 43.37 85.12 43.94L85.17 43.99L85.12 43.94Q87.63 42.98 90.52 42.45L90.63 42.56L90.55 42.48Q91.47 37.04 91.54 32.32L91.41 32.19L91.41 32.18Q92.60 32.19 93.59 32.19L93.59 32.19L93.65 32.25Q94.95 32.22 95.75 32.26ZM94.75 22.28L94.66 22.19L94.66 22.19Q95.19 22.22 96.18 22.45L96.16 22.43L96.28 22.55Q96.30 22.68 96.34 22.99L96.39 23.04L96.39 23.04Q96.31 23.19 96.24 23.46L96.31 23.53L96.34 23.57Q96.23 24.78 95.50 25.66L95.46 25.61L95.47 25.62Q94.96 26.75 93.93 26.94L93.91 26.92L93.85 26.85Q93.04 26.77 91.40 26.77L91.49 26.86L91.58 26.95Q91.43 24.55 91.20 22.19L91.32 22.31L93.00 22.32L92.91 22.22Q93.89 22.37 94.77 22.29Z"/><path d="M16 4 C75 19,55 29,143 46" stroke="#999" fill="none"/></svg>