<svg xmlns="http://www.w3.org/2000/svg" width="150" height="50" viewBox="0,0,150,50"><path fill="#333" d="M77.76 29.13L77.80 29.17L77.74 29.11Q76.01 29.24 74.79 30.58L74.75 30.54L74.76 30.55Q73.44 31.78 73.29 33.68L73.41 33.80L73.39 33.79Q73.13 35.85 74.35 36.86L74.37 36.88L74.32 36.83Q75.52 37.82 77.66 37.75L77.69 37.78L77.81 37.90Q80.05 37.67 81.01 36.72L80.91 36.63L80.98 36.70Q82.12 35.36 82.01 33.53L82.00 33.52L81.94 33.46Q81.74 31.52 80.66 30.32L80.66 30.32L80.66 30.32Q79.73 29.28 77.91 29.28ZM77.85 19.82L77.80 19.77L77.69 19.66Q76.33 19.59 74.99 20.08L75.01 20.10L75.03 20.12Q73.77 20.95 73.99 22.82L73.91 22.73L74.01 22.83Q74.49 26.54 77.84 26.54L77.85 26.56L77.80 26.51Q79.47 26.81 80.46 25.66L80.31 25.52L80.46 25.67Q81.31 24.38 81.35 22.82L81.45 22.92L81.39 22.86Q81.43 21.08 80.71 20.47L80.73 20.49L80.69 20.45Q79.02 19.62 77.72 19.69ZM77.44 40.24L77.54 40.33L74.42 40.26L74.42 40.26Q72.91 40.27 71.58 39.39L71.57 39.39L71.54 39.35Q70.21 38.26 70.37 35.41L70.40 35.44L70.46 35.50Q70.93 28.66 74.54 27.67L74.49 27.62L74.40 27.53Q72.17 26.66 70.84 21.29L70.84 21.30L70.95 21.41Q70.51 19.91 70.59 19.11L70.65 19.16L70.64 19.16Q70.98 17.06 74.67 17.02L74.48 16.83L74.49 16.84Q78.81 16.86 80.26 17.05L80.21 17.01L80.33 17.12Q84.00 17.48 84.45 19.50L84.60 19.64L84.51 19.55Q84.60 20.14 84.60 20.52L84.74 20.66L84.57 20.49Q84.77 21.37 84.58 21.98L84.56 21.96L84.51 21.91Q83.79 26.02 80.86 27.55L80.92 27.61L80.89 27.58Q84.36 28.35 84.85 33.64L84.93 33.72L85.02 33.80Q84.97 33.91 85.01 35.20L84.92 35.11L84.88 35.07Q85.13 37.99 83.53 39.05L83.48 39.00L83.54 39.06Q82.00 39.77 77.43 40.22ZM79.77 42.60L79.79 42.63L83.18 42.74L83.10 42.66Q84.89 42.81 86.41 42.08L86.35 42.03L86.34 42.02Q87.46 41.27 87.54 39.41L87.53 39.40L87.51 39.38Q87.56 38.28 87.18 36.34L87.33 36.50L87.31 36.47Q86.40 31.83 84.30 29.97L84.32 29.98L84.02 29.49L83.85 29.25L83.62 28.91L83.81 29.10Q85.35 27.63 86.27 23.48L86.25 23.46L86.26 23.47Q86.18 23.01 86.26 22.18L86.43 22.34L86.33 22.25Q86.37 21.53 86.30 20.92L86.29 20.92L86.32 20.94Q86.22 19.55 85.04 19.05L85.05 19.06L84.98 18.96L84.77 18.82L84.87 18.92Q84.54 18.13 83.36 17.33L83.38 17.35L83.35 17.29L83.36 17.30Q81.38 16.61 77.31 16.42L77.38 16.50L77.46 16.58Q75.81 16.37 74.44 16.49L74.47 16.51L74.53 16.57Q73.63 16.52 72.34 16.67L72.46 16.79L72.43 16.76Q70.50 17.15 70.27 18.79L70.23 18.75L70.22 18.73Q70.25 19.30 70.28 20.10L70.29 20.10L70.19 20.00Q70.28 20.51 70.85 22.87L70.91 22.93L70.82 22.84Q71.70 26.16 73.45 27.49L73.36 27.40L73.47 27.51L73.41 27.45Q70.64 28.75 70.10 33.92L70.29 34.11L70.16 33.98Q69.94 36.16 69.94 37.08L69.96 37.10L69.98 37.11Q70.04 38.89 71.22 39.80L71.30 39.88L71.18 39.76Q71.29 39.83 71.56 40.02L71.58 40.04L71.62 40.08Q72.68 42.40 79.80 42.63ZM79.45 31.54L79.41 31.51L79.53 31.62Q80.34 31.44 81.21 31.90L81.33 32.01L81.29 31.98Q81.54 32.84 81.50 33.37L81.60 33.47L81.52 33.38Q81.68 33.82 81.68 34.12L81.55 33.99L81.63 34.06Q81.63 36.43 79.34 37.26L79.35 37.27L79.32 37.24Q78.57 37.59 77.77 37.48L77.78 37.49L77.83 37.54Q76.57 37.50 75.43 37.04L75.54 37.15L75.45 37.07Q75.22 36.45 75.29 35.46L75.21 35.38L75.32 35.49Q75.45 33.87 76.65 32.65L76.75 32.75L76.72 32.72Q77.89 31.47 79.49 31.58ZM79.74 22.13L79.60 21.99L79.72 22.11Q80.54 22.02 81.08 22.17L80.98 22.08L81.00 22.89L81.06 22.95Q81.00 24.30 80.08 25.31L80.20 25.42L80.15 25.37Q79.25 26.39 77.88 26.20L77.74 26.07L77.72 26.05Q76.81 26.12 76.39 25.89L76.33 25.84L76.36 25.87Q76.35 25.63 76.24 24.95L76.26 24.97L76.22 24.93Q75.89 23.46 77.11 22.62L77.14 22.65L77.11 22.62Q78.30 22.06 79.71 22.10Z"/><path fill="#222" d="M131.57 29.13L131.60 29.15L131.58 29.14Q129.78 29.20 128.57 30.54L128.54 30.51L128.46 30.43Q127.31 31.83 127.16 33.73L127.10 33.67L127.26 33.83Q126.96 35.86 128.18 36.87L128.14 36.83L128.13 36.82Q129.37 37.85 131.50 37.77L131.65 37.93L131.56 37.83Q133.87 37.67 134.82 36.71L134.76 36.66L134.75 36.65Q135.78 35.20 135.66 33.37L135.81 33.52L135.75 33.45Q135.69 31.64 134.60 30.44L134.53 30.37L134.61 30.46Q133.49 29.22 131.67 29.22ZM131.67 19.82L131.56 19.72L131.60 19.76Q130.14 19.59 128.81 20.08L128.90 20.18L128.82 20.09Q127.50 20.86 127.73 22.73L127.70 22.71L127.78 22.78Q128.26 26.50 131.61 26.50L131.67 26.56L131.64 26.53Q133.19 26.71 134.18 25.57L134.20 25.59L134.26 25.64Q135.26 24.51 135.29 22.95L135.23 22.88L135.15 22.81Q135.34 21.17 134.62 20.56L134.65 20.59L134.61 20.56Q132.88 19.66 131.58 19.73ZM131.29 40.27L131.40 40.38L128.25 40.27L128.31 40.33Q126.81 40.36 125.48 39.48L125.36 39.36L125.43 39.43Q123.97 38.20 124.12 35.35L124.14 35.37L124.18 35.40Q124.69 28.60 128.31 27.61L128.30 27.61L128.22 27.53Q125.98 26.66 124.65 21.29L124.72 21.36L124.59 21.23Q124.40 19.98 124.48 19.18L124.49 19.19L124.35 19.05Q124.67 16.93 128.36 16.89L128.44 16.97L128.44 16.98Q132.62 16.85 134.07 17.04L134.11 17.08L133.98 16.96Q137.99 17.65 138.44 19.67L138.45 19.67L138.32 19.54Q138.43 20.15 138.43 20.53L138.51 20.60L138.52 20.62Q138.54 21.32 138.35 21.93L138.34 21.92L138.34 21.93Q137.76 26.18 134.83 27.70L134.83 27.70L134.67 27.54Q138.33 28.50 138.82 33.79L138.68 33.64L138.77 33.74Q138.85 33.97 138.89 35.26L138.82 35.20L138.75 35.12Q138.88 37.92 137.28 38.99L137.36 39.07L137.26 38.96Q135.82 39.77 131.25 40.23ZM133.53 42.54L133.52 42.53L136.90 42.64L136.87 42.60Q138.77 42.87 140.30 42.15L140.18 42.03L140.14 41.99Q141.32 41.31 141.39 39.44L141.42 39.47L141.38 39.43Q141.37 38.28 140.99 36.34L141.17 36.51L141.11 36.46Q140.20 31.81 138.10 29.95L138.06 29.90L137.84 29.49L137.63 29.21L137.49 28.95L137.63 29.09Q139.08 27.54 140.00 23.39L140.05 23.45L140.10 23.49Q140.10 23.11 140.17 22.27L140.07 22.17L140.24 22.34Q140.29 21.63 140.22 21.02L140.18 20.98L140.19 20.99Q140.06 19.57 138.88 19.07L138.73 18.93L138.94 19.10L138.68 18.92L138.74 18.97Q138.47 18.25 137.29 17.45L137.31 17.47L137.34 17.46L137.22 17.33Q135.22 16.64 131.15 16.45L131.12 16.42L131.27 16.57Q129.74 16.48 128.37 16.60L128.34 16.57L128.25 16.47Q127.57 16.63 126.27 16.78L126.13 16.65L126.15 16.66Q124.35 17.18 124.12 18.82L124.08 18.78L124.05 18.75Q124.04 19.27 124.08 20.07L124.06 20.06L123.99 19.98Q124.22 20.63 124.79 22.99L124.63 22.83L124.77 22.97Q125.41 26.05 127.16 27.38L127.30 27.52L127.32 27.54L127.40 27.61Q124.60 28.90 124.07 34.07L124.08 34.08L123.97 33.97Q123.77 36.17 123.77 37.09L123.78 37.09L123.73 37.04Q123.97 39.00 125.15 39.91L125.07 39.83L125.05 39.81Q125.15 39.87 125.41 40.06L125.45 40.10L125.55 40.20Q126.55 42.46 133.67 42.68ZM133.27 31.55L133.22 31.50L133.32 31.60Q134.11 31.40 134.99 31.86L134.99 31.86L135.05 31.92Q135.47 32.95 135.44 33.48L135.41 33.46L135.47 33.52Q135.51 33.83 135.51 34.13L135.45 34.07L135.40 34.02Q135.49 36.47 133.21 37.31L133.18 37.28L133.17 37.28Q132.28 37.49 131.48 37.37L131.46 37.35L131.60 37.49Q130.49 37.60 129.35 37.15L129.34 37.13L129.24 37.04Q128.96 36.37 129.03 35.38L129.05 35.40L129.08 35.43Q129.34 33.94 130.54 32.72L130.41 32.59L130.40 32.58Q131.59 31.35 133.19 31.46ZM133.50 22.07L133.48 22.05L133.43 22.00Q134.27 21.93 134.81 22.08L134.80 22.08L134.88 22.95L134.86 22.93Q134.91 24.39 133.99 25.40L133.97 25.37L133.82 25.22Q133.08 26.41 131.71 26.22L131.73 26.23L131.71 26.22Q130.63 26.12 130.21 25.90L130.19 25.88L130.31 26.00Q130.25 25.71 130.14 25.03L130.13 25.02L130.12 25.01Q129.75 23.49 130.96 22.66L131.05 22.74L131.01 22.70Q132.19 22.13 133.60 22.17Z"/><path fill="#444" d="M112.06 47.11L112.04 47.09L111.99 47.04Q111.00 47.19 109.10 47.50L109.25 47.65L109.14 47.54Q110.39 45.32 111.41 44.03L111.49 44.10L111.45 44.06Q113.24 44.41 113.39 44.41L113.41 44.42L113.47 44.49Q113.64 44.42 114.17 44.31L114.16 44.30L114.26 44.40Q114.98 44.36 115.17 44.36L115.18 44.37L115.19 44.38Q117.72 44.09 117.64 41.92L117.64 41.92L117.68 41.96Q117.59 40.42 117.48 34.18L117.54 34.24L117.50 34.20Q117.34 30.54 117.42 26.39L117.44 26.41L118.80 26.18L118.80 26.17Q119.46 26.07 120.14 25.84L120.21 25.91L120.18 25.88Q119.97 30.32 120.01 34.69L120.09 34.77L120.00 34.68Q120.00 39.02 120.53 43.40L120.61 43.48L120.51 43.37Q120.70 43.80 120.70 44.07L120.72 44.08L120.64 44.00Q120.69 45.69 119.02 46.07L118.93 45.98L118.93 45.99Q115.78 46.34 111.94 46.99ZM118.80 22.86L116.68 19.75L116.77 19.84Q117.60 18.24 119.43 15.46L119.55 15.57L119.52 15.54Q120.13 16.39 121.46 18.21L121.61 18.36L118.79 22.85ZM121.87 49.53L121.76 49.43L121.77 49.43Q122.40 49.57 123.16 49.23L123.18 49.24L123.13 49.19Q123.36 48.39 123.36 47.94L123.45 48.03L123.51 48.09Q123.35 47.58 123.23 46.98L123.25 46.99L123.33 47.07Q122.06 40.74 122.06 32.82L121.98 32.74L121.88 32.64Q122.00 29.91 122.16 27.02L122.22 27.08L122.04 26.90Q121.51 27.09 120.36 27.39L120.44 27.47L120.47 27.50Q120.40 26.94 120.44 26.40L120.39 26.36L120.52 25.30L120.58 25.37Q118.96 26.11 117.18 26.15L117.17 26.14L117.07 26.04Q117.09 30.44 117.13 34.02L116.96 33.85L117.15 41.77L117.19 41.80Q117.20 43.72 115.03 43.84L115.07 43.87L115.15 43.95Q114.83 43.86 114.31 43.92L114.29 43.90L114.31 43.92Q113.91 44.09 113.65 44.09L113.67 44.12L113.56 44.00Q113.19 44.09 111.63 43.67L111.61 43.66L111.59 43.63Q111.09 44.20 109.98 45.87L110.04 45.93L108.43 48.16L108.55 48.28Q109.29 47.95 110.92 47.57L110.97 47.62L110.42 48.25L110.00 49.01L109.91 48.92Q112.30 48.87 113.63 48.95L113.63 48.94L113.52 48.84Q115.89 49.07 121.82 49.49ZM118.72 23.54L118.72 23.55L119.15 23.10L119.19 23.14Q119.40 23.42 120.35 25.02L120.53 25.20L120.35 25.02Q121.88 21.90 123.44 18.82L123.47 18.85L123.54 18.93Q122.54 17.31 121.59 16.02L121.53 15.96L121.56 15.99Q121.35 16.20 121.01 16.73L121.14 16.86L120.96 16.69Q120.56 16.06 119.57 14.76L119.56 14.75L119.73 14.92Q118.45 16.42 116.13 19.77L116.21 19.85L116.13 19.77Q117.12 21.07 118.83 23.66Z"/><path fill="#333" d="M38.02 23.37L38.07 23.41L38.15 23.49Q34.77 23.31 32.95 22.25L33.03 22.33L33.00 22.30Q35.52 20.94 40.39 16.71L40.35 16.67L40.46 16.78Q41.15 16.55 42.44 15.94L42.35 15.85L42.50 16.00Q41.16 21.94 41.05 28.29L40.90 28.14L41.08 28.33Q40.88 34.59 41.94 40.68L41.97 40.71L41.99 40.73Q40.25 39.94 38.11 39.82L38.05 39.76L38.12 39.83Q38.08 35.76 38.08 31.68L38.00 31.60L38.02 31.63Q38.01 27.50 38.05 23.39ZM37.61 25.58L37.60 40.15L37.59 40.13Q38.94 40.27 39.89 40.46L39.77 40.34L39.81 40.38Q39.93 41.10 40.12 42.47L40.14 42.50L40.02 42.38Q42.96 43.00 45.40 45.24L45.39 45.24L45.35 45.19Q42.98 38.19 42.95 30.72L42.96 30.74L42.88 30.66Q42.72 23.11 44.55 15.88L44.57 15.90L44.62 15.95Q44.19 16.47 42.59 17.57L42.47 17.46L42.48 17.46Q42.75 16.79 43.06 15.27L43.11 15.31L42.95 15.16Q41.72 16.02 40.28 16.40L40.24 16.37L40.14 16.27Q36.43 19.91 32.13 22.19L32.12 22.18L32.14 22.20Q33.58 23.34 35.94 23.68L35.91 23.65L35.85 23.59Q35.22 24.14 33.93 25.21L33.99 25.27L34.08 25.36Q35.49 25.66 37.70 25.66L37.62 25.59Z"/><path fill="#333" d="M17.94 47.17L17.89 47.12L17.87 47.10Q16.87 47.25 14.97 47.55L14.96 47.54L15.00 47.58Q16.25 45.37 17.28 44.08L17.22 44.01L17.27 44.07Q19.16 44.51 19.31 44.51L19.19 44.38L19.13 44.33Q19.51 44.48 20.05 44.37L19.99 44.31L20.02 44.35Q20.76 44.32 20.95 44.32L20.95 44.31L20.89 44.26Q23.50 44.05 23.42 41.88L23.48 41.93L23.42 41.88Q23.29 40.30 23.18 34.06L23.34 34.22L23.17 34.05Q23.25 30.63 23.33 26.48L23.25 26.40L24.63 26.18L24.72 26.28Q25.39 26.18 26.08 25.96L26.08 25.96L26.11 25.99Q25.90 30.42 25.93 34.80L25.80 34.66L25.77 34.63Q25.92 39.12 26.45 43.50L26.42 43.47L26.34 43.38Q26.47 43.75 26.47 44.01L26.43 43.97L26.52 44.06Q26.48 45.66 24.80 46.04L24.72 45.96L24.90 46.14Q21.63 46.37 17.78 47.01ZM24.69 22.93L22.45 19.70L22.56 19.81Q23.60 18.41 25.42 15.63L25.28 15.49L25.38 15.59Q26.05 16.49 27.38 18.31L27.43 18.37L24.66 22.90ZM27.57 49.42L27.61 49.46L27.69 49.53Q28.16 49.51 28.92 49.17L28.93 49.18L28.94 49.18Q29.32 48.54 29.32 48.08L29.28 48.04L29.35 48.12Q29.31 47.73 29.20 47.12L29.17 47.10L29.06 46.99Q27.81 40.67 27.81 32.75L27.69 32.64L27.75 32.69Q27.72 29.81 27.87 26.91L28.02 27.07L28.03 27.07Q27.35 27.12 26.21 27.42L26.19 27.40L26.31 27.52Q26.22 26.94 26.26 26.41L26.35 26.50L26.47 25.44L26.38 25.35Q24.76 26.09 22.97 26.12L22.88 26.03L22.93 26.09Q22.82 30.35 22.86 33.93L22.77 33.85L23.12 41.92L22.95 41.75Q23.18 43.88 21.01 44.00L20.93 43.92L20.97 43.96Q20.68 43.90 20.17 43.95L20.14 43.92L20.10 43.88Q19.59 43.95 19.33 43.95L19.51 44.13L19.50 44.13Q18.83 43.91 17.27 43.49L17.37 43.59L17.36 43.59Q16.89 44.18 15.79 45.86L15.79 45.86L14.30 48.21L14.24 48.15Q15.23 48.07 16.86 47.69L16.80 47.63L16.30 48.31L15.80 48.99L15.81 49.00Q18.09 48.84 19.42 48.92L19.43 48.92L19.35 48.85Q21.63 48.99 27.57 49.41ZM24.54 23.55L24.62 23.62L24.89 23.02L25.02 23.15Q25.36 23.57 26.32 25.17L26.17 25.03L26.21 25.06Q27.80 22.01 29.37 18.93L29.28 18.85L29.28 18.84Q28.36 17.31 27.41 16.02L27.43 16.05L27.50 16.11Q27.13 16.16 26.79 16.69L26.94 16.84L26.84 16.75Q26.36 16.04 25.37 14.74L25.54 14.92L25.55 14.92Q24.30 16.45 21.98 19.80L21.99 19.81L22.04 19.86Q22.87 21.00 24.58 23.59Z"/><path fill="#333" d="M100.10 23.24L100.15 23.30L100.15 23.29Q98.39 19.18 92.18 19.37L92.22 19.40L92.29 19.47Q87.88 19.59 85.90 21.04L85.89 21.03L85.77 20.91Q83.49 22.78 83.49 26.89L83.51 26.91L83.50 28.76L83.46 28.72Q83.49 37.59 92.52 37.59L92.39 37.46L92.38 37.45Q94.42 37.44 95.91 36.64L95.91 36.64L96.05 36.78Q97.87 35.75 97.72 33.89L97.71 33.88L97.60 33.76Q97.42 31.68 93.72 30.77L93.71 30.76L91.94 30.92L91.91 30.89Q90.80 30.73 89.84 30.77L89.87 30.79L89.89 30.82Q89.97 29.94 89.93 28.04L89.93 28.04L89.96 28.06Q97.65 28.10 101.84 27.76L101.76 27.69L101.82 27.75Q101.62 28.43 101.62 29.23L101.76 29.36L101.61 29.21Q101.78 30.19 101.82 30.99L101.70 30.86L101.77 30.93Q100.57 30.84 100.57 30.84L100.68 30.94L100.62 30.89Q99.22 30.86 99.60 30.86L99.68 30.93L99.65 30.90Q100.76 32.55 101.14 34.53L101.01 34.40L101.16 34.55Q101.18 35.18 101.18 35.64L101.30 35.75L101.23 35.68Q101.12 40.22 92.32 40.22L92.40 40.29L92.33 40.22Q85.38 40.39 82.79 38.30L82.70 38.21L82.73 38.24Q80.65 35.78 80.65 30.71L80.65 30.71L80.65 30.72Q80.69 29.69 80.54 26.99L80.64 27.09L80.48 26.93Q80.36 24.60 80.40 23.23L80.54 23.37L80.49 23.32Q80.56 20.42 81.93 18.83L81.89 18.78L81.89 18.78Q84.47 16.75 89.34 16.56L89.32 16.54L92.07 16.55L92.03 16.51Q95.17 16.46 98.60 16.87L98.60 16.88L98.59 16.87Q102.24 17.24 103.19 20.47L103.21 20.49L103.24 20.52Q102.28 21.50 100.18 23.33ZM101.43 25.38L101.60 25.43L101.75 25.58Q102.83 24.38 104.70 22.40L104.63 22.33L104.61 22.31Q104.40 21.46 103.41 19.75L103.43 19.76L103.35 19.68Q102.27 17.12 98.47 16.48L98.33 16.34L98.47 16.47Q96.37 16.39 92.06 16.09L92.00 16.02L89.34 16.18L89.29 16.13Q84.18 16.38 81.59 18.36L81.58 18.35L81.54 18.31Q80.11 19.89 79.99 22.97L80.02 23.00L80.09 23.07Q80.21 22.73 80.44 28.21L80.26 28.04L80.27 28.05Q80.33 29.44 80.41 32.18L80.35 32.12L80.36 32.13Q80.61 36.65 82.36 38.59L82.42 38.65L82.30 38.53Q82.65 39.34 83.53 40.21L83.62 40.31L83.61 40.30Q86.45 42.10 91.97 42.45L92.00 42.48L94.87 42.65L94.91 42.69Q96.43 42.72 98.45 42.61L98.52 42.68L98.63 42.80Q100.00 42.63 102.09 42.10L102.02 42.03L102.11 42.12Q103.93 41.51 103.90 39.19L103.96 39.25L104.06 39.35Q104.05 38.08 102.98 35.30L102.88 35.21L102.87 35.19Q102.61 34.33 102.08 33.53L102.01 33.46L102.13 33.57Q102.76 33.64 103.94 33.83L103.86 33.75L103.82 33.70Q103.47 30.04 103.51 29.36L103.52 29.37L103.62 29.47Q103.25 29.48 102.83 29.45L102.73 29.34L102.86 29.47Q102.45 29.41 102.07 29.48L101.95 29.37L102.10 29.51Q102.05 28.36 102.13 27.29L102.19 27.35L102.12 27.28Q95.86 27.80 89.58 27.69L89.57 27.68L89.59 27.70Q89.52 28.50 89.52 29.41L89.55 29.45L89.56 31.21L89.63 31.28Q89.99 31.25 90.40 31.22L90.46 31.27L90.45 31.27Q90.83 31.22 91.29 31.22L91.32 31.26L91.18 31.12Q91.25 31.64 91.29 32.14L91.35 32.20L91.34 32.19Q91.40 32.70 91.36 33.20L91.32 33.16L91.23 33.07Q92.28 33.06 93.31 33.02L93.42 33.12L93.31 33.02Q94.41 33.09 95.44 33.13L95.39 33.08L95.34 33.03Q96.46 33.35 97.33 33.73L97.28 33.68L97.29 33.72L97.38 33.81Q97.51 35.32 95.84 36.23L95.79 36.18L95.84 36.23Q94.13 37.11 92.41 37.11L92.46 37.15L92.49 37.19Q88.59 37.13 86.15 35.37L86.07 35.29L86.19 35.41Q85.12 33.28 85.27 30.73L85.34 30.80L85.36 30.82Q85.65 26.01 87.50 24.01L87.60 24.11L87.44 23.95Q89.28 21.94 93.96 21.64L94.05 21.72L94.03 21.71Q97.77 21.57 99.72 23.36L99.59 23.23L99.58 23.22Q99.80 23.48 99.92 23.67L99.79 23.54L99.86 23.50L99.95 23.59Q100.59 24.34 101.16 25.45L101.14 25.42L101.53 25.48Z"/><path fill="#333" d="M106.71 27.74L106.63 27.66L106.72 27.76Q103.14 27.61 102.04 30.96L102.09 31.01L102.11 31.03Q101.67 32.03 101.56 33.10L101.59 33.14L101.68 33.22Q101.28 35.07 102.27 36.40L102.38 36.51L102.38 36.51Q103.72 37.70 106.19 37.73L106.11 37.66L106.19 37.73Q108.02 37.78 109.43 36.63L109.51 36.71L109.48 36.69Q110.74 35.40 110.74 33.61L110.79 33.65L110.80 33.67Q110.80 33.32 110.72 32.94L110.76 32.98L110.79 33.00Q110.48 27.79 106.67 27.71ZM106.68 40.28L106.56 40.16L106.60 40.20Q102.82 40.46 101.03 38.44L100.99 38.40L101.03 38.44Q100.81 39.47 100.35 40.84L100.25 40.74L100.23 40.72Q98.37 41.56 97.11 42.13L97.14 42.16L97.01 42.03Q99.19 36.07 99.19 29.56L99.34 29.71L99.22 29.59Q99.29 21.36 95.87 13.52L95.92 13.57L95.95 13.60Q98.13 14.79 99.47 15.25L99.60 15.38L99.50 15.28Q101.59 21.90 101.74 27.73L101.85 27.83L101.83 27.82Q103.33 25.21 107.06 25.25L107.05 25.23L106.88 25.07Q110.24 25.23 111.73 27.09L111.76 27.13L111.71 27.08Q113.38 29.20 113.53 32.78L113.60 32.85L113.60 32.85Q113.72 34.07 113.64 35.67L113.66 35.69L113.68 35.70Q113.50 37.01 112.62 38.15L112.79 38.32L112.65 38.17Q110.95 39.94 106.61 40.21ZM112.13 42.76L112.11 42.74L112.06 42.69Q113.60 42.75 115.08 42.06L115.10 42.07L115.01 41.98Q116.13 40.71 116.17 38.77L116.27 38.87L116.29 38.89Q116.22 38.32 116.07 37.14L116.09 37.17L116.04 37.12Q116.01 36.48 115.89 35.56L115.86 35.52L115.78 35.45Q115.12 30.82 113.56 28.77L113.38 28.59L113.56 28.77Q113.48 28.66 112.68 27.78L112.69 27.79L112.72 27.82Q112.42 27.48 111.89 26.68L111.83 26.62L112.01 26.80Q110.40 24.85 107.05 24.89L107.02 24.86L106.96 24.80Q104.86 24.80 103.61 25.40L103.57 25.37L103.63 25.43Q103.38 20.99 102.77 17.79L102.77 17.79L102.67 17.69Q101.90 17.50 100.42 17.12L100.54 17.24L100.59 17.28Q100.44 16.53 99.99 15.08L99.92 15.02L99.85 14.95Q97.44 14.18 95.20 12.62L95.14 12.56L95.29 12.71Q99.04 20.88 99.04 29.67L98.89 29.52L99.05 29.68Q99.03 36.63 96.55 42.83L96.54 42.82L96.59 42.87Q97.14 42.39 98.47 41.82L98.42 41.77L98.57 41.91Q98.36 42.69 97.75 44.22L97.72 44.19L97.71 44.17Q99.67 43.25 102.45 42.72L102.46 42.72L102.75 40.80L102.85 40.91Q105.16 42.60 112.09 42.72ZM108.25 29.97L108.30 30.02L108.29 30.01Q109.28 29.97 109.81 30.35L109.89 30.43L109.80 30.34Q110.17 30.91 110.40 32.92L110.32 32.84L110.31 32.83Q110.57 34.76 109.31 36.08L109.43 36.20L109.40 36.16Q108.17 37.51 106.23 37.39L106.10 37.27L106.26 37.42Q105.17 37.40 103.68 36.90L103.79 37.01L103.70 36.92Q103.50 36.46 103.50 35.92L103.54 35.96L103.49 35.91Q103.50 32.84 105.07 31.24L105.01 31.18L105.13 31.34L105.07 31.28Q106.59 29.98 108.34 30.06Z"/><path fill="#222" d="M3.89 41.15L3.87 41.14L3.91 41.17Q6.99 36.82 13.69 28.91L13.61 28.83L13.76 28.97Q7.80 29.15 4.04 27.78L4.01 27.75L3.96 27.71Q3.43 26.41 2.67 25.00L2.61 24.95L2.62 24.96Q6.64 26.39 11.09 26.43L11.06 26.39L11.16 26.49Q15.70 26.62 19.89 25.55L19.76 25.42L19.82 25.48Q19.30 26.03 19.04 26.57L19.08 26.61L19.09 26.62Q16.68 28.97 13.86 32.58L13.82 32.54L8.87 38.70L8.80 38.64Q11.12 38.52 13.37 38.60L13.28 38.52L13.45 38.68Q15.47 38.57 17.71 38.95L17.78 39.02L17.74 38.98Q17.87 39.56 18.59 41.58L18.68 41.66L18.72 41.70Q14.89 40.77 10.89 40.88L11.00 40.99L10.91 40.91Q7.01 41.08 3.36 42.26L3.39 42.29L3.33 42.23Q3.41 42.08 3.87 41.13ZM2.70 42.78L2.73 42.81L2.77 42.85Q3.59 42.56 5.19 42.14L5.07 42.02L5.07 42.02Q4.86 42.28 4.44 42.70L4.47 42.72L4.53 42.78Q4.32 43.37 3.71 44.51L3.64 44.45L3.59 44.39Q8.34 43.09 13.33 43.24L13.28 43.20L13.34 43.25Q18.31 43.42 22.88 45.29L22.85 45.27L22.87 45.29Q21.40 43.39 20.49 41.34L20.54 41.40L20.48 41.33Q19.70 41.01 18.63 40.78L18.66 40.81L18.71 40.86Q18.40 40.01 18.02 38.57L18.10 38.64L18.03 38.57Q16.56 38.32 12.98 38.21L13.02 38.25L13.01 38.24Q15.40 34.92 20.42 28.56L20.27 28.41L20.39 28.53Q20.67 27.82 21.35 26.48L21.26 26.39L19.13 27.30L19.02 27.20Q19.06 27.08 19.21 26.97L19.21 26.97L19.38 26.76L19.48 26.86Q19.99 25.84 20.56 24.89L20.54 24.87L20.42 24.75Q15.82 26.16 11.10 26.09L11.18 26.17L11.19 26.19Q6.39 26.11 1.90 24.28L1.81 24.19L1.74 24.12Q3.00 26.06 3.80 28.12L3.80 28.12L3.76 28.07Q4.56 28.35 5.63 28.61L5.73 28.72L5.68 28.67Q5.96 29.44 6.27 30.89L6.21 30.83L6.16 30.78Q7.71 31.00 11.02 31.15L11.16 31.29L11.14 31.27Q8.79 34.63 3.61 41.06L3.56 41.01L3.50 40.95Q3.25 41.53 2.67 42.75Z"/><path fill="#333" d="M46.15 19.18L46.15 19.18L46.12 19.15Q47.35 23.73 47.50 26.92L47.34 26.77L47.46 26.89Q48.04 27.00 52.41 27.12L52.25 26.96L52.41 27.12Q54.83 27.02 55.21 23.55L55.21 23.56L55.33 23.68Q55.49 21.89 54.58 20.98L54.50 20.91L54.58 20.99Q53.20 19.98 51.22 19.83L51.30 19.91L51.21 19.82Q48.05 19.67 46.19 19.22ZM47.63 28.88L47.48 28.74L47.47 28.72Q47.82 34.89 46.03 40.83L45.99 40.80L46.03 40.83Q44.72 41.08 42.13 42.11L42.13 42.11L42.08 42.06Q45.02 35.68 44.68 28.22L44.54 28.08L44.55 28.08Q44.20 20.70 40.89 14.19L41.06 14.35L41.07 14.36Q45.88 17.12 52.85 17.12L52.72 16.99L52.91 17.18Q58.36 16.99 58.62 20.53L58.80 20.71L58.69 20.60Q58.71 21.15 58.63 21.76L58.74 21.87L58.59 22.94L58.71 23.06Q57.76 26.86 55.62 28.58L55.72 28.67L55.73 28.68Q54.95 29.38 53.92 29.38L53.87 29.34L51.25 29.30L51.34 29.40Q56.75 36.44 61.28 41.01L61.30 41.03L61.34 41.06Q59.07 40.25 56.14 39.91L56.29 40.06L56.19 39.95Q52.40 35.98 47.49 28.74ZM56.04 40.30L56.03 40.29L56.52 40.47L57.78 41.73L57.66 41.61Q58.30 42.21 58.94 42.82L58.86 42.74L58.83 42.71Q62.38 43.33 65.96 45.19L66.08 45.31L66.10 45.33Q59.14 38.57 53.74 31.64L53.62 31.52L55.35 31.50L55.48 31.63Q58.62 31.68 59.95 27.15L59.95 27.15L59.84 27.05Q60.60 24.91 60.60 22.20L60.50 22.11L60.60 22.21Q60.47 19.79 58.76 19.15L58.74 19.13L58.90 19.29Q58.80 18.92 58.23 18.24L58.12 18.13L58.10 18.11Q56.52 16.76 52.87 16.68L52.86 16.68L52.74 16.56Q44.99 16.54 40.31 13.53L40.28 13.49L40.34 13.56Q44.00 20.30 44.34 27.99L44.38 28.03L44.42 28.06Q44.74 36.00 41.62 42.85L41.44 42.68L41.54 42.77Q42.80 42.22 43.60 41.91L43.66 41.96L42.60 44.18L42.65 44.23Q45.38 43.19 48.04 42.69L48.03 42.68L48.06 42.71Q49.26 37.52 49.45 32.30L49.52 32.37L49.45 32.30Q52.99 37.28 56.15 40.41ZM54.94 22.52L54.92 22.50L54.95 22.53Q54.89 22.71 54.89 23.05L54.86 23.01L54.91 23.63L54.84 23.57Q54.95 24.78 54.27 25.74L54.21 25.68L54.21 25.67Q53.52 26.36 52.60 26.55L52.64 26.58L52.70 26.64Q52.41 26.62 50.81 26.66L50.89 26.74L50.80 26.64Q50.39 26.85 49.56 26.73L49.44 26.61L49.37 26.55Q49.30 25.06 48.95 22.02L48.95 22.02L49.08 22.14Q50.48 22.33 51.17 22.33L51.16 22.32L51.03 22.20Q52.92 22.26 54.87 22.45Z"/><path fill="#111" d="M64.12 40.25L64.16 40.30L64.11 40.25Q60.69 40.41 59.06 39.87L58.91 39.73L58.95 39.77Q57.01 39.15 56.70 35.77L56.77 35.84L58.21 34.77L58.08 34.63Q58.97 34.26 59.73 33.77L59.70 33.74L59.67 33.71Q59.29 35.50 60.89 36.72L60.88 36.71L60.92 36.75Q62.34 37.91 64.48 37.72L64.45 37.69L64.37 37.61Q68.68 37.12 68.49 33.58L68.49 33.58L68.61 33.71Q68.47 31.47 65.85 30.25L65.83 30.24L65.84 30.25Q62.96 29.16 60.60 27.94L60.59 27.93L60.64 27.98Q58.14 26.69 57.15 22.01L57.11 21.97L56.99 21.85Q56.88 21.40 56.77 20.64L56.90 20.78L56.81 20.68Q56.80 19.99 56.88 19.42L56.78 19.32L56.75 19.30Q56.95 17.74 58.20 17.28L58.21 17.29L58.31 17.39Q60.71 16.51 64.70 16.70L64.53 16.53L64.53 16.53Q66.36 16.64 67.16 16.72L67.22 16.79L67.16 16.73Q68.82 17.08 69.88 17.54L69.89 17.55L69.88 17.53Q71.80 17.82 72.03 20.30L72.06 20.33L72.21 20.47Q71.09 21.11 68.88 22.44L68.86 22.42L68.95 22.51Q68.46 19.43 64.08 19.43L64.14 19.49L64.10 19.45Q62.20 19.45 61.21 20.14L61.19 20.12L61.20 20.13Q60.08 20.68 60.31 22.47L60.31 22.47L60.26 22.42Q60.49 24.59 63.46 26.11L63.39 26.05L63.52 26.18Q64.03 26.39 68.53 28.02L68.44 27.94L68.46 27.96Q71.06 29.42 71.48 33.80L71.62 33.94L71.60 33.91Q71.48 33.95 71.56 35.21L71.60 35.25L71.56 35.20Q71.66 38.01 70.09 39.11L70.15 39.16L70.23 39.24Q68.38 40.21 64.19 40.33ZM66.36 42.57L66.41 42.62L66.38 42.59Q67.87 42.71 69.85 42.71L69.78 42.64L69.75 42.61Q71.93 42.70 73.19 42.28L73.18 42.27L73.13 42.22Q74.49 41.52 74.41 39.73L74.29 39.61L74.42 39.75Q74.20 38.57 73.82 36.51L73.97 36.67L73.84 36.54Q72.98 31.90 70.88 30.04L70.81 29.97L70.87 30.03Q70.14 28.50 68.81 27.77L68.74 27.71L63.56 25.76L63.54 25.74Q63.27 25.62 62.81 25.40L62.74 25.32L62.66 24.98L62.58 24.56L62.52 24.49Q62.47 23.18 63.61 22.57L63.48 22.45L63.57 22.53Q64.34 21.97 66.05 21.78L66.13 21.85L65.94 21.67Q67.13 21.60 68.27 22.06L68.31 22.09L68.40 22.18Q68.44 22.27 68.63 23.10L68.61 23.08L68.58 23.05Q68.71 22.84 69.21 22.62L69.22 22.63L69.33 22.74Q69.96 23.56 70.07 24.70L70.12 24.75L70.01 24.64Q70.20 24.71 73.86 22.12L73.82 22.09L73.84 22.11Q73.49 19.40 72.05 18.71L72.08 18.75L72.05 18.72Q71.59 17.58 70.15 17.04L70.17 17.07L70.20 17.09Q67.87 16.26 64.68 16.26L64.58 16.16L64.66 16.24Q59.70 16.19 57.84 16.88L57.87 16.91L57.87 16.91Q56.52 17.35 56.40 19.02L56.38 19.00L56.41 19.03Q56.40 19.59 56.82 21.80L56.77 21.75L56.77 21.75Q57.56 25.62 59.73 27.87L59.66 27.80L59.58 27.72Q60.52 29.57 62.02 30.26L61.98 30.21L61.89 30.13Q63.46 30.87 67.38 32.43L67.32 32.38L67.36 32.45L67.95 32.74L68.09 32.92L67.98 32.81Q68.26 33.36 68.30 33.70L68.23 33.63L68.29 33.69Q68.36 37.14 64.44 37.30L64.41 37.27L64.42 37.28Q63.31 37.35 62.02 36.97L61.92 36.87L61.97 36.93Q61.70 36.16 61.70 35.43L61.66 35.39L61.59 35.32Q61.54 35.01 61.58 34.74L61.72 34.88L61.66 34.83Q61.17 34.98 60.37 35.48L60.41 35.52L60.42 35.52Q60.01 34.51 60.16 33.14L60.13 33.11L60.02 33.00Q57.96 34.21 56.36 35.62L56.31 35.57L56.44 35.70Q56.48 36.49 56.55 37.52L56.46 37.43L56.54 37.51Q56.82 39.19 58.11 39.95L58.15 40.00L58.23 40.08Q59.34 41.79 61.89 42.17L61.86 42.15L61.98 42.26Q63.54 42.49 66.47 42.68Z"/><path d="M19 46 C86 48,62 36,134 24" stroke="#666" fill="none"/></svg>