<svg xmlns="http://www.w3.org/2000/svg" width="150" height="50" viewBox="0,0,150,50"><path fill="#111" d="M11.21 23.46L11.18 23.43L11.15 23.40Q7.98 23.43 6.15 22.36L6.19 22.39L6.03 22.24Q8.55 20.87 13.42 16.65L13.45 16.67L13.42 16.64Q14.28 16.60 15.58 15.99L15.61 16.02L15.62 16.03Q14.14 21.82 14.03 28.18L14.04 28.19L14.03 28.18Q13.99 34.62 15.06 40.71L15.11 40.76L15.11 40.76Q13.30 39.90 11.16 39.78L11.27 39.89L11.30 39.92Q11.19 35.77 11.19 31.70L11.21 31.72L11.17 31.68Q11.11 27.51 11.14 23.39ZM10.85 25.72L10.76 40.21L10.74 40.20Q12.07 40.31 13.02 40.50L13.00 40.48L13.02 40.50Q13.04 41.13 13.23 42.50L13.22 42.49L13.16 42.42Q16.11 43.06 18.55 45.30L18.52 45.28L18.54 45.29Q15.94 38.04 15.90 30.58L16.08 30.77L15.91 30.59Q15.92 23.22 17.75 15.99L17.77 16.01L17.69 15.93Q17.11 16.31 15.52 17.41L15.55 17.45L15.53 17.42Q15.72 16.66 16.03 15.14L16.02 15.14L16.03 15.15Q14.76 15.97 13.31 16.35L13.30 16.34L13.40 16.43Q9.47 19.85 5.17 22.14L5.26 22.23L5.21 22.18Q6.72 23.38 9.08 23.73L8.98 23.63L9.09 23.74Q8.44 24.27 7.14 25.33L7.02 25.21L7.05 25.24Q8.51 25.59 10.72 25.59L10.80 25.68Z"/><path fill="#222" d="M62.37 26.91L62.28 26.82L62.22 26.77Q63.98 26.89 65.81 26.89L65.91 26.98L65.92 27.00Q67.75 27.04 69.58 26.89L69.54 26.85L69.62 26.92Q69.48 27.55 69.48 28.27L69.36 28.15L69.34 29.47L69.40 29.52Q67.09 29.58 62.34 29.69L62.22 29.58L62.21 29.57Q62.26 35.56 61.12 40.55L61.08 40.51L61.11 40.54Q58.98 41.30 57.49 42.10L57.35 41.96L57.42 42.02Q59.72 35.19 59.45 28.07L59.56 28.17L59.44 28.06Q59.19 20.92 56.53 14.25L56.54 14.27L56.65 14.38Q60.18 16.77 64.94 17.00L65.04 17.10L65.07 17.13Q69.60 17.16 73.75 15.41L73.90 15.56L73.78 15.44Q73.48 16.25 73.25 17.05L73.39 17.18L72.84 18.73L72.77 18.66Q70.12 19.81 67.15 19.96L67.16 19.98L67.22 20.04Q64.25 20.15 61.40 19.43L61.37 19.40L61.32 19.35Q62.02 22.76 62.21 26.75ZM74.49 14.82L74.49 14.82L74.48 14.80Q69.88 16.94 65.00 16.64L65.06 16.70L65.06 16.70Q59.65 16.32 55.92 13.46L55.90 13.43L55.88 13.42Q58.80 20.41 59.11 28.03L59.09 28.01L59.11 28.03Q59.39 35.92 56.88 42.70L57.04 42.87L57.02 42.84Q57.65 42.40 59.02 41.76L58.92 41.66L58.91 41.65Q58.75 42.44 58.18 43.97L58.26 44.05L58.15 43.93Q60.54 42.94 63.43 42.44L63.46 42.47L63.38 42.39Q63.98 37.50 64.17 31.79L64.18 31.81L64.21 31.83Q66.08 31.88 67.91 31.88L67.78 31.75L67.79 31.76Q69.66 31.84 71.48 32.03L71.47 32.02L71.41 31.96Q71.40 31.11 71.40 30.20L71.28 30.07L71.28 28.17L71.36 28.25Q70.51 28.28 69.67 28.28L69.75 28.35L69.66 28.27Q69.78 27.51 69.86 26.48L69.89 26.51L69.92 26.54Q68.54 26.72 67.13 26.72L67.09 26.69L67.02 26.62Q65.67 26.67 64.30 26.64L64.23 26.57L64.10 24.30L64.24 24.44Q64.10 23.24 63.99 22.17L64.00 22.18L64.08 22.27Q65.05 22.32 66.04 22.32L66.02 22.30L65.93 22.21Q70.85 22.37 74.47 20.47L74.41 20.41L74.39 20.39Q74.93 18.61 75.84 15.98L75.90 16.04L75.79 15.93Q74.45 16.72 73.65 17.07L73.64 17.05L73.64 17.06Q73.94 16.33 74.44 14.77Z"/><path fill="#333" d="M126.92 19.22L126.90 19.20L126.81 19.11Q127.94 23.59 128.10 26.79L128.26 26.96L128.14 26.84Q128.72 26.96 133.10 27.07L133.12 27.09L133.02 27.00Q135.55 27.02 135.93 23.55L136.06 23.68L136.00 23.62Q136.11 21.79 135.20 20.88L135.16 20.83L135.15 20.83Q134.02 20.08 132.04 19.92L132.02 19.91L132.00 19.88Q128.72 19.62 126.86 19.16ZM128.27 28.79L128.31 28.84L128.24 28.76Q128.46 34.81 126.67 40.75L126.74 40.82L126.76 40.84Q125.50 41.14 122.91 42.17L122.88 42.13L122.86 42.11Q125.71 35.64 125.37 28.18L125.40 28.21L125.24 28.05Q124.96 20.72 121.65 14.21L121.73 14.30L121.74 14.31Q126.48 16.99 133.45 16.99L133.45 16.99L133.48 17.03Q139.25 17.16 139.52 20.70L139.53 20.72L139.39 20.57Q139.42 21.14 139.35 21.75L139.40 21.80L139.37 23.00L139.42 23.04Q138.51 26.89 136.38 28.60L136.39 28.62L136.35 28.58Q135.66 29.37 134.63 29.37L134.51 29.25L131.99 29.32L131.95 29.28Q137.50 36.46 142.03 41.03L142.20 41.20L142.12 41.12Q139.94 40.38 137.00 40.04L136.99 40.03L136.96 40.00Q133.19 36.04 128.28 28.80ZM136.92 40.45L136.76 40.29L137.09 40.31L138.46 41.69L138.41 41.64Q139.02 42.21 139.67 42.82L139.63 42.78L139.63 42.78Q143.15 43.37 146.72 45.23L146.69 45.20L146.80 45.31Q139.73 38.42 134.32 31.50L134.49 31.66L136.15 31.58L136.20 31.62Q139.34 31.68 140.67 27.15L140.61 27.08L140.49 26.97Q141.29 24.87 141.29 22.17L141.35 22.23L141.17 22.05Q141.30 19.90 139.59 19.25L139.56 19.22L139.52 19.18Q139.45 18.84 138.88 18.16L138.94 18.22L138.94 18.22Q137.14 16.65 133.49 16.58L133.44 16.53L133.54 16.63Q125.73 16.54 121.04 13.54L121.02 13.52L120.96 13.45Q124.63 20.21 124.97 27.90L125.14 28.07L125.10 28.02Q125.45 35.99 122.33 42.84L122.23 42.74L122.20 42.71Q123.47 42.15 124.27 41.85L124.36 41.93L123.26 44.11L123.24 44.09Q126.06 43.15 128.73 42.65L128.65 42.57L128.72 42.65Q129.95 37.47 130.14 32.26L130.18 32.31L130.25 32.37Q133.66 37.23 136.82 40.35ZM135.52 22.38L135.57 22.43L135.69 22.55Q135.70 22.79 135.70 23.13L135.64 23.07L135.65 23.64L135.54 23.54Q135.64 24.75 134.96 25.70L134.90 25.64L135.02 25.76Q134.26 26.38 133.35 26.57L133.41 26.63L133.52 26.74Q133.16 26.64 131.56 26.68L131.51 26.63L131.59 26.71Q131.00 26.73 130.17 26.62L130.22 26.67L130.27 26.72Q130.12 25.16 129.78 22.12L129.71 22.05L129.72 22.06Q131.21 22.33 131.90 22.33L131.83 22.26L131.82 22.25Q133.60 22.21 135.55 22.40Z"/><path fill="#222" d="M52.91 27.77L52.90 27.76L52.82 27.67Q49.26 27.55 48.16 30.90L48.27 31.00L48.15 30.89Q47.97 32.15 47.86 33.22L47.72 33.08L47.82 33.18Q47.48 35.08 48.46 36.42L48.48 36.43L48.45 36.41Q49.96 37.76 52.43 37.80L52.40 37.77L52.44 37.80Q54.20 37.78 55.61 36.64L55.49 36.51L55.56 36.59Q57.00 35.47 57.00 33.68L56.93 33.62L56.91 33.59Q57.09 33.43 57.01 33.05L56.89 32.93L56.91 32.94Q56.77 27.89 52.96 27.81ZM52.75 40.17L52.82 40.24L52.87 40.29Q49.02 40.48 47.23 38.46L47.24 38.47L47.20 38.42Q46.98 39.46 46.52 40.83L46.57 40.88L46.55 40.86Q44.46 41.47 43.21 42.05L43.25 42.09L43.18 42.02Q45.42 36.12 45.42 29.61L45.39 29.57L45.45 29.63Q45.48 21.37 42.06 13.53L42.12 13.59L41.99 13.45Q44.31 14.78 45.64 15.24L45.68 15.28L45.60 15.20Q47.81 21.94 47.96 27.76L47.86 27.66L47.85 27.66Q49.46 25.16 53.20 25.20L53.17 25.17L53.08 25.09Q56.44 25.25 57.93 27.11L57.77 26.96L57.81 27.00Q59.64 29.28 59.79 32.86L59.79 32.86L59.75 32.81Q59.84 34.01 59.77 35.61L59.81 35.65L59.77 35.61Q59.79 37.12 58.91 38.26L58.90 38.24L58.80 38.15Q57.09 39.90 52.75 40.17ZM58.28 42.73L58.16 42.61L58.34 42.79Q59.69 42.65 61.17 41.97L61.25 42.04L61.19 41.99Q62.33 40.73 62.37 38.79L62.31 38.72L62.43 38.85Q62.46 38.38 62.30 37.20L62.16 37.05L62.21 37.10Q62.10 36.39 61.99 35.47L62.16 35.64L62.01 35.50Q61.20 30.73 59.64 28.67L59.73 28.76L59.75 28.78Q59.66 28.65 58.86 27.77L58.82 27.74L58.88 27.80Q58.69 27.57 58.15 26.77L58.12 26.74L58.20 26.81Q56.60 24.87 53.25 24.91L53.17 24.82L53.09 24.74Q51.12 24.87 49.86 25.48L49.86 25.48L49.90 25.51Q49.58 21.00 48.97 17.81L48.87 17.71L48.89 17.73Q48.10 17.51 46.61 17.13L46.64 17.15L46.76 17.27Q46.53 16.44 46.07 14.99L46.13 15.05L46.09 15.01Q43.59 14.14 41.34 12.58L41.46 12.70L41.43 12.67Q45.13 20.79 45.13 29.58L45.19 29.64L45.25 29.70Q45.22 36.64 42.75 42.84L42.75 42.84L42.60 42.70Q43.38 42.45 44.71 41.88L44.72 41.88L44.68 41.85Q44.56 42.72 43.95 44.24L43.80 44.08L43.85 44.13Q45.76 43.15 48.54 42.62L48.57 42.65L48.92 40.79L49.03 40.90Q51.23 42.50 58.16 42.61ZM54.44 29.99L54.45 29.99L54.42 29.96Q55.45 29.96 55.98 30.34L56.04 30.40L56.04 30.40Q56.44 30.99 56.67 33.01L56.51 32.85L56.67 33.01Q56.90 34.92 55.65 36.23L55.54 36.13L55.55 36.14Q54.39 37.54 52.45 37.43L52.28 37.27L52.25 37.24Q51.46 37.51 49.98 37.02L50.01 37.05L50.03 37.06Q49.70 36.47 49.70 35.94L49.76 36.00L49.81 36.05Q49.71 32.87 51.27 31.27L51.32 31.31L51.24 31.27L51.29 31.32Q52.69 29.91 54.44 29.98Z"/><path fill="#222" d="M111.42 28.77L111.35 28.69L105.50 28.82L105.35 28.67Q102.46 28.75 99.53 28.68L99.52 28.66L99.60 28.74Q99.78 35.51 97.72 41.03L97.70 41.01L97.71 41.01Q95.80 41.43 94.05 42.12L94.16 42.23L94.14 42.20Q96.93 36.51 96.93 29.84L96.81 29.72L96.77 29.68Q96.76 21.18 92.65 14.14L92.72 14.22L92.75 14.25Q94.29 15.06 96.77 15.86L96.82 15.91L96.67 15.76Q98.82 20.85 99.35 25.72L99.45 25.82L99.41 25.78Q102.64 26.23 105.50 26.19L105.47 26.17L105.48 26.18Q108.03 26.06 111.34 25.79L111.36 25.81L111.36 25.81Q111.80 21.38 113.55 16.28L113.70 16.43L113.62 16.35Q115.66 16.02 117.90 15.19L117.73 15.02L117.72 15.00Q114.24 21.88 114.24 29.84L114.12 29.71L114.26 29.85Q114.13 35.93 116.49 41.26L116.49 41.26L116.49 41.26Q115.01 40.77 112.96 40.47L112.96 40.47L112.91 40.42Q111.30 35.45 111.41 28.75ZM112.64 40.76L112.67 40.78L112.72 40.84Q113.74 40.99 114.85 41.25L114.73 41.14L114.71 41.12Q115.04 41.82 115.68 43.31L115.78 43.40L115.73 43.35Q119.06 44.29 120.85 45.20L120.85 45.20L120.84 45.19Q116.44 39.07 116.13 30.81L116.19 30.87L116.12 30.80Q115.94 22.89 119.59 16.08L119.52 16.00L118.51 16.52L118.44 16.45Q117.85 16.58 117.24 16.73L117.38 16.87L117.32 16.81Q117.84 16.11 118.68 14.55L118.55 14.42L118.65 14.52Q115.85 15.42 113.22 15.91L113.22 15.91L113.28 15.97Q111.60 20.80 111.15 25.49L111.19 25.53L111.25 25.59Q108.70 25.74 106.26 25.74L106.28 25.75L106.33 25.81Q103.92 25.79 101.41 25.64L101.33 25.56L101.25 25.48Q101.05 22.24 99.95 18.17L100.10 18.32L100.00 18.22Q99.41 18.20 97.96 17.82L97.82 17.68L97.86 17.72Q97.45 16.47 96.99 15.44L96.95 15.39L97.02 15.47Q94.26 14.69 91.98 13.43L91.94 13.39L92.07 13.53Q96.48 20.79 96.48 29.59L96.49 29.60L96.51 29.61Q96.67 36.74 93.55 42.87L93.36 42.68L93.54 42.86Q94.18 42.51 95.51 41.94L95.45 41.88L95.53 41.96Q95.24 42.85 94.44 44.38L94.36 44.29L94.43 44.36Q97.22 43.34 99.46 42.92L99.39 42.85L99.41 42.87Q101.37 37.41 101.56 31.24L101.49 31.16L101.42 31.10Q103.03 31.03 106.23 30.99L106.26 31.03L106.31 31.08Q109.16 31.04 111.07 31.11L111.00 31.04L111.05 31.10Q111.22 36.74 112.55 40.67Z"/><path fill="#222" d="M94.12 39.77L94.25 39.89L94.18 39.83Q92.25 39.80 90.23 39.99L90.21 39.97L90.15 39.91Q90.98 34.84 90.98 30.00L90.79 29.81L90.90 29.93Q91.02 25.13 90.37 19.91L90.34 19.88L90.24 19.78Q85.67 19.40 82.47 17.73L82.40 17.65L81.76 15.99L81.85 16.08Q81.52 15.44 80.91 14.23L81.04 14.35L80.95 14.26Q86.02 16.94 92.04 17.13L91.97 17.06L92.10 17.19Q97.90 17.28 103.34 15.22L103.27 15.15L103.30 15.18Q102.60 16.61 101.95 18.44L102.04 18.52L101.93 18.42Q98.47 19.86 94.20 20.05L94.19 20.04L94.10 19.95Q93.85 24.91 93.85 29.86L93.93 29.95L93.93 29.95Q93.91 34.87 94.21 39.86ZM104.08 14.59L104.01 14.51L104.08 14.58Q98.23 16.85 92.03 16.66L92.06 16.70L92.03 16.66Q85.42 16.53 80.32 13.56L80.14 13.37L80.21 13.45Q81.03 14.80 82.33 18.08L82.19 17.94L82.22 17.97Q82.88 18.28 84.13 18.85L84.25 18.97L84.18 18.90Q84.50 19.68 84.85 21.20L84.82 21.17L84.72 21.08Q87.07 21.98 90.12 22.21L90.17 22.27L90.05 22.15Q90.46 25.86 90.46 29.63L90.48 29.65L90.44 29.62Q90.45 35.00 89.65 40.36L89.80 40.51L89.72 40.43Q91.40 40.32 91.93 40.32L91.83 40.21L91.88 40.27Q91.99 40.68 91.93 41.34L91.89 41.30L91.80 41.21Q91.87 42.01 91.87 42.35L91.74 42.22L91.86 42.34Q93.05 42.28 94.57 42.35L94.57 42.35L94.49 42.27Q95.34 42.25 97.17 42.40L97.17 42.40L97.17 42.39Q96.01 37.54 95.90 32.37L95.98 32.45L95.85 32.32Q95.75 27.04 96.28 22.13L96.29 22.14L96.21 22.06Q100.30 21.66 103.46 20.44L103.51 20.49L103.45 20.43Q104.13 18.02 105.15 15.97L105.18 16.00L105.15 15.96Q103.79 16.62 102.99 16.92L102.91 16.84L102.94 16.87Q103.45 15.67 104.02 14.53Z"/><path d="M9 47 C84 17,62 20,130 32" stroke="#555" fill="none"/><path fill="#222" d="M82.16 29.59L81.98 29.41L82.08 29.51Q80.83 28.68 80.19 28.72L80.29 28.83L80.28 28.82Q78.80 28.78 77.75 29.79L77.83 29.87L77.80 29.84Q76.78 30.87 76.89 32.24L76.96 32.31L76.93 32.28Q77.28 36.67 76.41 41.20L76.40 41.19L76.28 41.07Q74.13 41.58 73.02 42.12L73.02 42.11L73.03 42.12Q74.53 37.95 74.30 33.50L74.25 33.44L74.26 33.46Q74.08 29.01 72.36 24.94L72.41 24.98L72.24 24.82Q73.48 25.60 75.77 26.25L75.67 26.14L76.34 28.95L76.22 28.83Q76.96 25.99 81.22 25.99L81.16 25.93L81.31 26.08Q81.70 26.01 82.00 26.01L81.90 25.90L81.97 25.97Q83.17 25.88 84.43 26.57L84.56 26.70L84.51 26.65Q83.10 27.91 81.96 29.39ZM83.63 31.44L83.74 31.40L83.84 31.50Q84.58 30.19 86.26 27.75L86.23 27.72L86.41 27.90Q85.82 27.43 84.30 27.16L84.38 27.25L84.44 27.31Q84.66 26.88 85.12 26.27L85.18 26.33L85.12 26.27Q83.22 25.37 81.28 25.56L81.36 25.63L81.35 25.62Q79.30 25.71 78.58 25.97L78.69 26.08L78.70 26.09Q77.17 26.39 76.37 27.50L76.51 27.64L76.28 26.76L76.06 25.89L76.02 25.85Q73.68 25.49 71.70 24.16L71.72 24.17L71.64 24.10Q73.79 28.49 74.01 33.36L74.11 33.46L74.01 33.36Q74.23 38.26 72.48 42.79L72.57 42.88L72.52 42.84Q73.63 42.38 74.50 42.07L74.46 42.03L74.47 42.04Q74.11 43.05 73.62 44.12L73.73 44.23L73.66 44.16Q76.49 43.30 78.62 43.19L78.74 43.31L78.90 38.75L78.82 38.66Q78.98 36.46 78.98 34.21L79.01 34.25L78.89 34.13Q78.91 32.96 79.82 31.99L79.99 32.16L79.82 31.99Q80.82 31.11 81.96 31.03L81.96 31.03L81.89 30.96Q82.57 30.88 83.29 31.56L83.31 31.58L83.69 31.50ZM78.68 29.69L78.64 29.58L78.63 29.68L78.75 29.76Z"/><path fill="#333" d="M126.74 40.32L126.76 40.33L126.83 40.41Q123.80 36.47 121.17 27.82L121.21 27.86L121.24 27.89Q120.48 25.65 119.69 23.52L119.74 23.57L116.93 32.41L116.95 32.44Q114.99 37.21 112.60 40.45L112.72 40.58L112.63 40.48Q111.80 40.57 110.17 40.72L110.23 40.79L110.09 40.65Q110.26 39.52 110.26 38.27L110.36 38.37L110.24 38.25Q110.31 32.30 107.56 26.17L107.50 26.11L107.58 26.19Q104.32 19.15 98.46 14.17L98.53 14.24L98.58 14.29Q100.67 14.94 103.03 15.47L103.12 15.55L103.01 15.45Q111.81 24.02 113.10 34.98L112.97 34.85L113.04 34.92Q114.65 31.58 116.10 26.21L116.15 26.27L116.11 26.22Q118.00 18.64 118.50 17.23L118.52 17.25L120.89 17.37L120.87 17.35Q121.57 19.38 122.21 21.71L122.18 21.67L123.44 26.13L123.39 26.08Q124.88 31.46 126.29 34.69L126.33 34.73L126.38 34.78Q128.12 23.24 136.04 15.89L136.00 15.85L135.93 15.78Q137.49 15.47 140.46 14.83L140.45 14.81L140.41 14.77Q135.16 19.16 132.11 25.29L132.03 25.20L132.02 25.19Q128.99 31.49 128.99 38.27L128.97 38.25L128.93 38.21Q128.95 39.33 129.02 40.47L129.16 40.61L127.86 40.33L127.88 40.36Q127.38 40.39 126.81 40.39ZM132.99 43.22L132.99 43.22L132.99 43.22Q131.81 39.72 131.92 35.83L131.87 35.78L131.88 35.78Q132.27 24.30 141.63 16.04L141.68 16.09L141.70 16.10Q140.74 16.33 138.80 16.86L138.79 16.85L138.77 16.83Q139.72 15.99 141.62 14.20L141.58 14.16L141.51 14.09Q138.93 14.93 136.00 15.43L136.05 15.48L135.95 15.38Q128.53 22.58 126.63 32.06L126.49 31.92L126.62 32.05Q125.92 30.29 123.07 18.83L123.24 19.00L123.14 18.90Q122.74 19.00 121.79 19.00L121.83 19.04L121.43 17.88L121.50 17.95Q121.38 17.41 121.15 16.92L121.16 16.92L118.18 16.84L118.21 16.86Q117.43 19.36 116.15 24.48L116.16 24.49L116.06 24.39Q114.78 29.50 113.79 31.97L113.85 32.03L113.90 32.09Q112.23 24.10 106.67 17.78L106.77 17.87L106.69 17.80Q106.26 17.79 105.31 17.60L105.23 17.51L105.34 17.63Q104.49 16.66 102.93 15.02L103.07 15.16L103.05 15.14Q99.58 14.26 97.41 13.46L97.45 13.51L97.42 13.48Q103.06 18.12 106.33 24.33L106.48 24.47L106.34 24.33Q109.85 31.00 109.85 38.01L109.90 38.06L109.92 38.08Q109.95 39.67 109.76 41.27L109.59 41.10L109.72 41.23Q109.92 41.20 110.38 41.11L110.34 41.07L110.34 41.06Q110.74 40.92 110.97 40.92L111.03 40.98L111.02 41.99L111.03 42.00Q111.03 42.46 111.10 42.99L111.09 42.98L111.19 43.08Q112.27 42.94 114.55 42.79L114.61 42.84L114.57 42.80Q118.13 37.35 120.88 27.94L120.84 27.91L120.81 27.87Q123.75 36.84 126.72 40.80L126.69 40.76L126.60 40.68Q127.07 40.69 127.91 40.81L127.94 40.84L127.95 40.84Q128.91 42.00 129.98 43.06L129.85 42.93L129.96 43.04Q130.73 43.09 133.13 43.35Z"/><path fill="#444" d="M31.36 47.14L31.39 47.17L31.38 47.16Q30.38 47.30 28.48 47.61L28.55 47.67L28.37 47.49Q29.79 45.45 30.82 44.16L30.77 44.11L30.83 44.17Q32.61 44.50 32.76 44.50L32.60 44.34L32.63 44.38Q32.96 44.48 33.50 44.36L33.57 44.44L33.42 44.28Q34.16 44.26 34.35 44.26L34.36 44.27L34.45 44.36Q36.86 43.95 36.78 41.78L36.82 41.83L36.89 41.90Q36.91 40.47 36.80 34.22L36.62 34.05L36.75 34.17Q36.61 30.54 36.69 26.39L36.85 26.54L38.14 26.24L38.20 26.30Q38.72 26.06 39.41 25.83L39.45 25.87L39.54 25.96Q39.17 30.24 39.21 34.62L39.24 34.65L39.27 34.68Q39.25 39.00 39.78 43.38L39.89 43.48L39.89 43.49Q39.86 43.68 39.86 43.95L40.00 44.09L39.92 44.01Q39.85 45.58 38.18 45.96L38.32 46.10L38.29 46.07Q35.15 46.44 31.31 47.08ZM38.02 22.81L36.03 19.82L35.89 19.69Q36.90 18.26 38.73 15.49L38.85 15.60L38.80 15.56Q39.44 16.42 40.77 18.25L40.84 18.32L38.16 22.95ZM41.17 49.56L41.09 49.48L41.13 49.52Q41.55 49.45 42.31 49.11L42.42 49.21L42.41 49.20Q42.81 48.58 42.81 48.12L42.75 48.06L42.74 48.05Q42.71 47.67 42.59 47.06L42.48 46.95L42.53 47.00Q41.17 40.58 41.17 32.66L41.27 32.76L41.25 32.74Q41.22 29.86 41.38 26.96L41.35 26.94L41.44 27.03Q40.92 27.23 39.78 27.54L39.73 27.49L39.74 27.50Q39.63 26.90 39.67 26.36L39.66 26.35L39.79 25.31L39.89 25.41Q38.09 25.96 36.30 26.00L36.39 26.09L36.37 26.07Q36.29 30.37 36.33 33.95L36.27 33.89L36.54 41.89L36.50 41.85Q36.57 43.82 34.40 43.94L34.34 43.88L34.44 43.98Q34.08 43.85 33.57 43.90L33.66 44.00L33.71 44.04Q33.13 44.03 32.86 44.03L32.79 43.96L32.91 44.08Q32.31 43.94 30.75 43.52L30.86 43.63L30.79 43.56Q30.43 44.27 29.33 45.94L29.19 45.81L27.75 48.21L27.79 48.25Q28.67 48.06 30.30 47.68L30.14 47.52L29.87 48.43L29.20 48.93L29.33 49.07Q31.47 48.77 32.81 48.85L32.88 48.92L32.86 48.90Q35.22 49.13 41.16 49.55ZM38.14 23.69L38.04 23.59L38.48 23.15L38.38 23.06Q38.78 23.53 39.73 25.13L39.79 25.19L39.65 25.05Q41.29 22.05 42.85 18.96L42.73 18.84L42.75 18.86Q41.72 17.22 40.77 15.92L40.79 15.94L40.93 16.08Q40.57 16.15 40.23 16.68L40.35 16.80L40.37 16.82Q39.97 16.19 38.98 14.90L38.89 14.81L38.88 14.79Q37.72 16.42 35.40 19.77L35.41 19.78L35.43 19.80Q36.38 21.05 38.09 23.64Z"/><path fill="#222" d="M23.93 40.90L24.07 41.04L23.99 40.97Q19.81 29.70 14.67 24.71L14.80 24.84L14.69 24.74Q16.13 25.33 19.10 25.98L19.20 26.09L19.13 26.02Q22.63 29.89 25.18 36.55L25.19 36.57L25.27 36.65Q27.83 29.19 30.45 26.14L30.50 26.20L30.47 26.17Q32.48 26.08 34.92 25.40L34.85 25.33L34.97 25.44Q31.74 28.12 29.57 32.69L29.57 32.69L29.52 32.63Q29.32 33.46 25.93 41.07L25.79 40.94L25.88 41.02Q25.29 41.12 24.07 41.04ZM28.60 43.36L28.68 43.45L28.76 43.52Q32.00 31.12 36.57 26.44L36.61 26.48L35.05 26.90L34.99 26.84Q34.21 27.09 33.37 27.20L33.41 27.24L33.49 27.31Q33.84 26.79 34.66 25.92L34.74 26.00L34.66 25.92Q35.61 25.17 36.06 24.75L35.98 24.67L35.98 24.67Q33.75 25.29 30.32 25.79L30.42 25.89L30.36 25.82Q27.75 29.12 25.69 34.71L25.68 34.69L25.53 34.55Q23.88 30.35 22.06 27.88L22.12 27.94L21.66 28.01L21.68 28.04Q21.37 27.99 21.14 27.99L21.03 27.88L21.10 27.94Q20.90 27.63 19.19 25.58L19.18 25.57L19.25 25.64Q15.82 25.07 13.57 23.92L13.65 24.00L13.62 23.97Q19.73 29.66 23.73 41.39L23.79 41.45L24.79 41.46L24.77 41.44Q25.10 42.07 25.94 43.37L26.00 43.43L27.38 43.44L27.20 43.26Q28.00 43.34 28.65 43.42Z"/></svg>