<svg xmlns="http://www.w3.org/2000/svg" width="150" height="50" viewBox="0,0,150,50"><path fill="#444" d="M73.20 23.25L73.25 23.30L73.21 23.26Q71.46 19.15 65.25 19.34L65.38 19.47L65.31 19.40Q60.92 19.54 58.94 20.99L59.01 21.06L58.83 20.87Q56.46 22.66 56.46 26.77L56.48 26.79L56.44 28.61L56.44 28.62Q56.43 37.44 65.46 37.44L65.54 37.52L65.61 37.59Q67.58 37.51 69.06 36.71L69.02 36.67L69.09 36.73Q70.91 35.70 70.76 33.84L70.78 33.86L70.77 33.84Q70.64 31.82 66.95 30.90L66.88 30.83L64.92 30.81L64.85 30.75Q63.97 30.81 63.02 30.85L63.09 30.92L63.10 30.94Q63.00 29.88 62.96 27.98L63.02 28.04L63.05 28.07Q70.62 27.99 74.81 27.65L74.75 27.59L74.82 27.66Q74.86 28.57 74.86 29.37L74.85 29.36L74.87 29.38Q74.85 30.16 74.89 30.96L74.81 30.88L74.82 30.89Q73.69 30.87 73.69 30.87L73.77 30.94L73.65 30.82Q72.24 30.78 72.62 30.78L72.63 30.80L72.78 30.95Q73.77 32.47 74.15 34.44L74.13 34.43L74.21 34.50Q74.32 35.22 74.32 35.68L74.22 35.59L74.32 35.69Q74.35 40.36 65.56 40.36L65.54 40.34L65.44 40.24Q58.30 40.22 55.72 38.13L55.88 38.30L55.78 38.20Q53.85 35.88 53.85 30.82L53.73 30.71L53.87 30.84Q53.81 29.71 53.65 27.01L53.62 26.98L53.58 26.93Q53.47 24.61 53.50 23.24L53.59 23.33L53.54 23.28Q53.62 20.39 54.99 18.79L55.03 18.82L55.04 18.84Q57.57 16.76 62.44 16.57L62.56 16.69L65.08 16.47L65.09 16.47Q68.25 16.45 71.68 16.86L71.66 16.85L71.58 16.76Q75.34 17.25 76.30 20.49L76.28 20.47L76.25 20.45Q75.30 21.43 73.20 23.26ZM74.64 25.50L74.76 25.50L74.76 25.50Q76.02 24.48 77.89 22.50L77.84 22.46L77.89 22.51Q77.49 21.46 76.50 19.75L76.56 19.80L76.55 19.80Q75.37 17.12 71.56 16.48L71.56 16.48L71.44 16.36Q69.38 16.31 65.07 16.01L65.15 16.08L62.52 16.27L62.44 16.19Q57.29 16.41 54.70 18.39L54.56 18.25L54.63 18.31Q53.29 19.98 53.17 23.06L53.25 23.14L53.24 23.13Q53.12 22.55 53.35 28.03L53.36 28.05L53.46 28.15Q53.53 29.55 53.61 32.29L53.52 32.21L53.58 32.26Q53.80 36.74 55.55 38.69L55.49 38.63L55.47 38.61Q55.75 39.35 56.63 40.22L56.79 40.39L56.72 40.32Q59.62 42.19 65.14 42.53L65.06 42.45L67.92 42.61L67.92 42.61Q69.71 42.91 71.73 42.80L71.53 42.60L71.53 42.60Q73.02 42.57 75.12 42.04L75.13 42.05L75.14 42.06Q77.17 41.66 77.14 39.34L77.11 39.31L77.06 39.26Q76.98 37.92 75.91 35.15L76.00 35.23L75.93 35.16Q75.65 34.28 75.12 33.48L75.23 33.58L75.15 33.50Q75.70 33.49 76.88 33.68L77.02 33.81L76.93 33.73Q76.61 30.09 76.65 29.41L76.60 29.36L76.73 29.49Q76.24 29.38 75.82 29.34L75.93 29.45L75.97 29.49Q75.46 29.32 75.08 29.40L75.15 29.47L75.07 29.39Q75.12 28.34 75.20 27.27L75.21 27.29L75.30 27.37Q68.84 27.69 62.56 27.58L62.55 27.57L62.73 27.74Q62.74 28.64 62.74 29.55L62.74 29.55L62.72 31.27L62.70 31.26Q63.04 31.21 63.45 31.17L63.60 31.33L63.57 31.29Q63.91 31.21 64.36 31.21L64.43 31.28L64.46 31.30Q64.34 31.64 64.37 32.13L64.34 32.10L64.46 32.22Q64.34 32.56 64.30 33.05L64.32 33.07L64.28 33.03Q65.39 33.07 66.41 33.03L66.36 32.98L66.36 32.98Q67.49 33.08 68.52 33.11L68.42 33.02L68.48 33.08Q69.54 33.34 70.41 33.72L70.38 33.69L70.39 33.73L70.35 33.69Q70.67 35.38 68.99 36.30L68.92 36.22L68.95 36.25Q67.34 37.23 65.63 37.23L65.59 37.19L65.60 37.20Q61.63 37.08 59.19 35.33L59.25 35.38L59.25 35.38Q58.23 33.30 58.39 30.75L58.36 30.73L58.53 30.89Q58.74 26.00 60.59 24.01L60.68 24.10L60.53 23.95Q62.49 22.06 67.17 21.76L67.24 21.82L67.14 21.73Q70.87 21.57 72.81 23.36L72.78 23.33L72.83 23.39Q72.81 23.40 72.92 23.59L72.98 23.65L73.09 23.64L72.99 23.54Q73.70 24.36 74.27 25.47L74.16 25.36L74.63 25.48Z"/><path fill="#222" d="M24.09 29.28L24.07 29.26L23.97 29.16Q22.04 29.09 20.82 30.43L20.92 30.53L20.96 30.57Q19.75 31.91 19.60 33.81L19.51 33.72L19.56 33.78Q19.28 35.81 20.50 36.82L20.60 36.93L20.56 36.89Q21.75 37.86 23.88 37.79L23.85 37.76L23.84 37.75Q26.25 37.69 27.21 36.74L27.19 36.72L27.10 36.63Q28.24 35.30 28.13 33.47L28.02 33.36L28.18 33.53Q27.93 31.52 26.85 30.32L26.81 30.29L26.96 30.43Q25.83 29.19 24.00 29.19ZM23.98 19.76L23.97 19.76L23.97 19.76Q22.57 19.65 21.24 20.15L21.17 20.08L21.12 20.03Q19.89 20.89 20.12 22.76L20.17 22.81L20.22 22.86Q20.57 26.44 23.92 26.44L24.06 26.59L23.90 26.43Q25.58 26.74 26.57 25.60L26.49 25.51L26.53 25.55Q27.63 24.52 27.67 22.96L27.66 22.95L27.59 22.88Q27.57 21.04 26.85 20.43L26.91 20.49L26.88 20.46Q25.30 19.71 24.00 19.79ZM23.76 40.37L23.70 40.31L20.58 40.23L20.73 40.39Q19.18 40.36 17.85 39.49L17.69 39.33L17.78 39.41Q16.39 38.26 16.54 35.40L16.53 35.39L16.56 35.42Q16.93 28.48 20.55 27.49L20.66 27.60L20.63 27.58Q18.38 26.69 17.04 21.32L16.93 21.21L16.97 21.25Q16.69 19.90 16.76 19.10L16.70 19.04L16.80 19.14Q17.13 17.03 20.82 16.99L20.72 16.89L20.70 16.87Q24.98 16.85 26.43 17.04L26.52 17.13L26.36 16.97Q30.24 17.54 30.70 19.56L30.68 19.54L30.70 19.56Q30.93 20.29 30.93 20.67L30.87 20.60L30.85 20.58Q30.83 21.25 30.64 21.86L30.72 21.94L30.64 21.86Q30.08 26.13 27.14 27.65L27.19 27.70L27.11 27.61Q30.64 28.45 31.14 33.74L31.21 33.82L31.19 33.79Q31.04 33.79 31.08 35.09L31.13 35.14L31.11 35.12Q31.27 37.95 29.67 39.01L29.71 39.05L29.66 39.00Q28.21 39.79 23.64 40.25ZM25.96 42.61L25.98 42.63L29.32 42.70L29.35 42.73Q30.97 42.71 32.49 41.98L32.64 42.13L32.58 42.07Q33.66 41.28 33.73 39.42L33.78 39.46L33.71 39.39Q33.80 38.34 33.42 36.40L33.47 36.45L33.50 36.49Q32.58 31.83 30.49 29.97L30.35 29.83L30.16 29.45L30.03 29.24L29.86 28.96L29.83 28.93Q31.54 27.63 32.45 23.48L32.38 23.41L32.46 23.48Q32.53 23.18 32.61 22.34L32.60 22.34L32.57 22.31Q32.51 21.49 32.44 20.88L32.61 21.05L32.55 20.99Q32.41 19.55 31.23 19.06L31.17 19.00L31.32 19.11L30.99 18.86L31.04 18.91Q30.71 18.12 29.53 17.32L29.50 17.29L29.65 17.40L29.72 17.47Q27.75 16.80 23.68 16.61L23.67 16.61L23.53 16.46Q22.06 16.43 20.68 16.55L20.55 16.41L20.67 16.53Q19.93 16.63 18.63 16.78L18.56 16.71L18.59 16.73Q16.61 17.08 16.38 18.71L16.39 18.72L16.34 18.68Q16.25 19.12 16.29 19.92L16.42 20.05L16.47 20.10Q16.45 20.50 17.02 22.86L17.00 22.84L17.15 22.99Q17.91 26.19 19.66 27.52L19.57 27.43L19.70 27.56L19.67 27.53Q16.91 28.84 16.38 34.02L16.31 33.95L16.46 34.10Q16.14 36.18 16.14 37.09L16.22 37.17L16.18 37.13Q16.19 38.85 17.37 39.76L17.35 39.75L17.47 39.87Q17.62 39.98 17.88 40.17L17.85 40.13L17.77 40.06Q18.85 42.39 25.97 42.62ZM25.64 31.56L25.72 31.63L25.62 31.53Q26.64 31.56 27.52 32.02L27.44 31.94L27.52 32.03Q27.85 32.97 27.81 33.50L27.86 33.54L27.83 33.52Q27.80 33.75 27.80 34.06L27.89 34.15L27.75 34.01Q27.77 36.39 25.49 37.22L25.46 37.20L25.50 37.24Q24.64 37.48 23.84 37.37L23.97 37.50L23.86 37.38Q22.73 37.47 21.58 37.02L21.71 37.14L21.68 37.11Q21.37 36.42 21.45 35.43L21.48 35.46L21.49 35.47Q21.54 33.77 22.74 32.55L22.90 32.72L22.92 32.73Q24.11 31.51 25.71 31.62ZM25.78 21.99L25.94 22.15L25.78 21.99Q26.65 21.94 27.18 22.09L27.14 22.05L27.16 22.87L27.12 22.83Q27.21 24.33 26.30 25.34L26.19 25.23L26.32 25.36Q25.41 26.37 24.03 26.18L24.09 26.23L23.91 26.06Q22.96 26.10 22.54 25.87L22.67 26.00L22.59 25.92Q22.57 25.67 22.45 24.98L22.44 24.97L22.38 24.91Q22.10 23.49 23.32 22.65L23.33 22.66L23.33 22.66Q24.42 22.00 25.83 22.04Z"/><path fill="#444" d="M109.03 31.00L109.02 30.99L108.84 30.81Q108.82 29.69 106.88 28.96L106.89 28.97L106.96 29.05Q106.41 28.80 105.88 28.80L105.84 28.76L105.89 28.81Q104.42 28.71 103.35 29.28L103.35 29.28L103.46 29.39Q101.96 29.99 102.08 31.21L102.15 31.28L102.12 31.24Q102.54 34.14 102.39 36.39L102.36 36.36L102.29 36.29Q102.15 38.74 101.43 41.26L101.54 41.36L101.41 41.23Q99.26 41.71 98.08 42.13L98.14 42.19L98.08 42.14Q99.83 38.66 99.83 34.66L99.73 34.57L99.77 34.60Q99.85 29.24 97.26 24.79L97.15 24.68L97.22 24.75Q98.31 25.11 100.71 25.84L100.76 25.89L100.82 25.95Q101.08 26.63 101.46 28.15L101.53 28.22L101.52 28.21Q102.71 25.98 106.59 26.05L106.64 26.10L106.76 26.22Q108.19 26.20 108.99 26.31L108.99 26.31L108.95 26.27Q112.02 26.76 112.09 28.77L112.03 28.71L112.01 28.69Q112.15 29.70 111.96 30.73L111.88 30.65L111.95 30.72Q111.46 33.21 111.65 36.21L111.56 36.12L111.59 36.14Q111.79 39.05 112.78 41.60L112.70 41.52L112.70 41.52Q110.96 41.08 109.25 40.92L109.29 40.97L109.28 40.96Q108.87 38.64 108.79 35.98L108.80 35.99L108.77 35.96Q108.71 33.23 108.94 30.91ZM108.84 41.24L108.94 41.35L108.94 41.34Q109.76 41.36 111.05 41.59L110.96 41.49L111.45 42.67L111.39 42.61Q111.59 43.11 111.82 43.65L111.87 43.70L111.89 43.72Q114.04 44.00 116.74 45.18L116.72 45.16L116.81 45.25Q114.43 42.11 113.74 38.30L113.76 38.32L113.68 38.24Q113.48 36.25 113.60 32.56L113.44 32.40L113.52 32.49Q113.62 32.28 113.66 31.48L113.56 31.38L113.50 31.32Q113.72 30.85 113.64 30.36L113.52 30.24L113.66 30.38Q113.55 28.71 112.45 28.22L112.45 28.21L112.32 28.09Q112.11 27.19 111.35 26.58L111.49 26.72L111.49 26.72Q109.76 25.67 106.71 25.75L106.68 25.72L106.65 25.68Q104.82 25.76 103.98 25.95L103.98 25.95L104.00 25.97Q102.52 26.28 101.57 27.20L101.56 27.19L101.65 27.28Q101.50 26.70 101.11 25.67L101.13 25.69L101.11 25.67Q98.19 24.88 96.36 23.89L96.38 23.91L96.52 24.05Q99.56 28.92 99.56 34.67L99.41 34.51L99.45 34.56Q99.53 39.01 97.62 42.86L97.55 42.78L97.68 42.91Q98.18 42.42 99.47 42.04L99.65 42.21L99.58 42.14Q98.98 43.30 98.45 44.29L98.47 44.31L98.48 44.32Q99.95 43.92 103.49 43.35L103.42 43.29L103.57 43.43Q104.40 38.14 104.29 33.30L104.44 33.45L104.29 33.30Q104.25 32.47 105.43 31.74L105.58 31.89L105.57 31.88Q106.62 31.26 107.73 31.14L107.67 31.08L107.70 31.12Q108.13 31.06 108.55 31.25L108.55 31.24L108.43 31.13Q108.30 33.69 108.34 36.24L108.43 36.33L108.42 36.32Q108.42 38.80 108.92 41.32Z"/><path fill="#222" d="M2.48 14.35L2.40 14.27L2.45 14.31Q6.17 16.78 10.93 17.01L11.00 17.08L11.03 17.11Q15.52 17.15 19.78 15.39L19.94 15.55L19.81 15.42Q19.68 16.09 18.91 18.87L18.98 18.93L18.83 18.78Q16.08 19.80 13.11 19.95L13.25 20.10L13.26 20.11Q10.28 20.25 7.39 19.53L7.31 19.45L7.27 19.40Q8.01 23.07 8.20 26.73L8.16 26.69L8.17 26.71Q10.13 26.87 11.73 26.84L11.85 26.96L11.82 26.92Q13.04 26.93 15.44 26.82L15.33 26.70L15.38 26.76Q15.34 27.40 15.34 28.09L15.37 28.12L15.42 29.50L15.30 29.37Q12.94 29.42 8.14 29.49L8.20 29.55L8.25 29.60Q8.18 33.64 7.61 37.64L7.52 37.55L7.70 37.73Q10.33 37.08 13.07 37.20L13.01 37.14L12.96 37.09Q15.71 37.21 18.30 38.05L18.31 38.06L18.29 38.04Q18.38 38.86 18.65 39.62L18.53 39.50L19.16 41.20L19.14 41.18Q15.92 39.86 12.50 39.86L12.37 39.73L12.36 39.73Q7.56 39.80 3.30 42.04L3.27 42.02L3.37 42.12Q5.61 35.22 5.34 28.10L5.34 28.10L5.38 28.13Q5.11 20.98 2.45 14.32ZM2.72 42.69L2.77 42.73L2.86 42.82Q4.12 42.10 4.88 41.76L4.86 41.74L4.80 41.68Q4.70 42.54 4.13 44.06L4.16 44.08L3.99 43.92Q8.56 41.98 13.62 42.24L13.73 42.35L13.67 42.29Q18.91 42.66 22.91 45.36L22.77 45.23L22.74 45.19Q21.63 42.72 20.95 40.77L21.06 40.89L20.93 40.76Q19.97 40.18 18.98 39.84L19.04 39.89L19.05 39.90Q18.70 38.56 18.54 37.76L18.50 37.71L18.42 37.64Q15.44 36.75 12.28 36.75L12.21 36.68L12.25 36.72Q10.99 36.60 9.84 36.71L9.91 36.78L9.88 36.75Q10.13 35.63 10.17 34.41L10.04 34.28L10.11 31.76L10.07 31.72Q12.05 31.80 13.84 31.84L13.81 31.81L13.83 31.83Q15.69 31.90 17.48 32.05L17.43 32.00L17.49 32.06Q17.32 31.02 17.32 30.07L17.39 30.13L17.35 28.19L16.49 28.21L16.47 28.19Q16.09 28.30 15.64 28.30L15.64 28.31L15.61 28.27Q15.66 27.64 15.81 26.35L15.79 26.33L15.77 26.30Q14.20 26.57 13.02 26.61L13.03 26.61L13.07 26.65Q12.00 26.53 10.17 26.46L10.20 26.49L10.15 26.44Q10.13 25.08 9.94 22.27L9.89 22.21L10.03 22.35Q10.95 22.37 11.94 22.37L12.08 22.50L11.96 22.38Q16.79 22.49 20.48 20.59L20.48 20.59L20.48 20.58Q21.03 18.21 21.91 16.00L21.94 16.03L21.90 15.99Q20.54 16.80 19.70 17.14L19.77 17.21L19.74 17.18Q19.96 16.34 20.42 14.78L20.45 14.81L20.46 14.82Q15.74 16.88 10.87 16.57L10.96 16.66L10.84 16.54Q5.58 16.27 1.73 13.41L1.85 13.53L1.76 13.44Q4.60 20.36 4.91 27.97L4.95 28.01L4.96 28.02Q5.33 36.01 2.82 42.78Z"/><path fill="#333" d="M77.87 40.11L77.95 40.19L75.53 33.31L75.65 33.43Q71.09 20.65 65.15 14.26L65.21 14.32L65.19 14.30Q67.21 15.37 69.80 15.98L69.93 16.11L69.79 15.96Q74.92 22.24 79.26 34.99L79.29 35.02L79.38 35.11Q82.43 27.01 83.12 25.41L83.12 25.41L83.13 25.43Q85.52 19.82 88.34 16.51L88.28 16.45L88.34 16.50Q90.40 16.14 93.03 15.26L93.02 15.25L92.94 15.17Q88.43 19.84 85.39 27.07L85.42 27.10L85.30 26.98Q83.93 30.68 80.24 40.19L80.25 40.21L80.30 40.25Q79.72 40.25 79.15 40.21L79.09 40.15L79.00 40.06Q78.55 40.18 77.98 40.22ZM82.98 42.64L82.90 42.55L82.93 42.58Q85.70 32.57 87.26 28.53L87.25 28.51L87.29 28.55Q90.33 20.89 94.74 16.02L94.83 16.11L94.83 16.11Q93.77 16.45 91.67 17.18L91.67 17.17L92.80 15.83L92.71 15.74Q93.35 15.12 93.96 14.47L93.98 14.50L93.94 14.45Q91.22 15.54 88.21 16.11L88.05 15.95L88.19 16.09Q83.71 21.32 79.83 32.78L79.77 32.72L79.79 32.74Q76.27 22.75 73.07 18.37L73.06 18.36L72.95 18.25Q72.60 18.21 71.73 18.05L71.84 18.17L71.73 18.06Q71.53 17.71 69.93 15.65L69.89 15.61L69.84 15.56Q66.94 14.91 64.24 13.50L64.24 13.50L64.24 13.50Q70.91 20.63 75.29 33.42L75.34 33.47L75.19 33.32Q76.42 36.99 77.60 40.57L77.61 40.58L77.62 40.58Q78.06 40.72 78.90 40.61L78.94 40.65L78.84 40.54Q79.12 41.17 79.80 42.50L79.79 42.49L79.89 42.59Q80.64 42.42 81.36 42.50L81.37 42.51L81.42 42.55Q82.13 42.55 82.89 42.55Z"/><path fill="#111" d="M117.98 40.30L117.98 40.29L117.89 40.20Q114.38 40.27 112.74 39.74L112.76 39.76L112.78 39.78Q110.87 39.20 110.56 35.81L110.59 35.84L111.90 34.63L112.06 34.79Q112.78 34.25 113.54 33.76L113.46 33.68L113.54 33.76Q113.18 35.57 114.78 36.79L114.87 36.88L114.78 36.79Q116.05 37.79 118.18 37.60L118.23 37.65L118.14 37.56Q122.56 37.18 122.37 33.64L122.36 33.64L122.43 33.71Q122.20 31.38 119.58 30.17L119.63 30.22L119.65 30.24Q116.77 29.15 114.41 27.93L114.48 28.00L114.41 27.93Q111.89 26.63 110.90 21.94L110.93 21.98L110.90 21.95Q110.73 21.43 110.61 20.67L110.70 20.75L110.57 20.63Q110.65 20.02 110.72 19.45L110.64 19.37L110.67 19.39Q110.77 17.74 112.02 17.28L112.09 17.35L111.98 17.25Q114.38 16.37 118.38 16.56L118.42 16.60L118.35 16.53Q120.22 16.69 121.02 16.76L121.04 16.78L120.98 16.72Q122.65 17.10 123.71 17.55L123.54 17.38L123.58 17.42Q125.64 17.84 125.86 20.31L125.95 20.40L125.95 20.40Q124.84 21.04 122.63 22.37L122.72 22.46L122.78 22.52Q122.27 19.43 117.90 19.43L117.84 19.37L117.86 19.39Q115.93 19.37 114.94 20.05L115.02 20.13L115.01 20.12Q113.74 20.53 113.97 22.32L114.02 22.36L114.17 22.51Q114.43 24.72 117.40 26.24L117.35 26.19L117.24 26.08Q117.84 26.37 122.33 28.01L122.33 28.01L122.37 28.05Q124.88 29.42 125.30 33.80L125.29 33.79L125.43 33.92Q125.47 34.12 125.55 35.38L125.51 35.34L125.51 35.34Q125.51 38.05 123.95 39.15L123.96 39.15L123.90 39.10Q122.01 40.03 117.83 40.14ZM120.25 42.64L120.25 42.65L120.21 42.60Q121.70 42.72 123.68 42.72L123.63 42.67L123.57 42.61Q125.85 42.79 127.10 42.37L127.06 42.33L127.11 42.38Q128.14 41.35 128.06 39.56L128.18 39.69L128.22 39.72Q128.05 38.60 127.66 36.54L127.78 36.65L127.77 36.65Q126.73 31.84 124.63 29.97L124.72 30.06L124.69 30.02Q124.05 28.59 122.72 27.86L122.54 27.69L117.35 25.73L117.27 25.65Q116.99 25.52 116.53 25.30L116.55 25.31L116.46 24.96L116.35 24.50L116.31 24.46Q116.30 23.20 117.44 22.59L117.47 22.62L117.46 22.60Q118.23 22.04 119.94 21.85L119.93 21.84L119.89 21.80Q120.98 21.63 122.12 22.09L122.07 22.04L122.23 22.20Q122.19 22.20 122.38 23.03L122.47 23.13L122.43 23.09Q122.68 22.99 123.18 22.76L123.04 22.63L123.10 22.69Q123.83 23.61 123.95 24.75L123.86 24.66L123.83 24.64Q123.93 24.63 127.59 22.04L127.74 22.19L127.61 22.06Q127.37 19.46 125.93 18.78L125.97 18.82L126.04 18.89Q125.47 17.63 124.02 17.10L123.88 16.96L123.96 17.04Q121.68 16.24 118.48 16.24L118.35 16.11L118.43 16.19Q113.62 16.29 111.75 16.98L111.74 16.96L111.57 16.80Q110.24 17.25 110.13 18.93L110.16 18.96L110.28 19.08Q110.12 19.49 110.53 21.70L110.66 21.82L110.52 21.68Q111.34 25.59 113.51 27.84L113.54 27.86L113.41 27.73Q114.34 29.57 115.84 30.26L115.66 30.08L115.72 30.14Q117.26 30.86 121.18 32.42L121.12 32.36L121.06 32.34L121.90 32.87L121.77 32.78L121.92 32.93Q121.94 33.21 121.97 33.55L121.98 33.56L122.00 33.58Q122.05 37.02 118.13 37.17L118.12 37.16L118.26 37.30Q116.98 37.20 115.68 36.82L115.76 36.90L115.81 36.94Q115.48 36.12 115.48 35.40L115.52 35.44L115.44 35.36Q115.50 35.15 115.53 34.88L115.49 34.83L115.54 34.89Q115.07 35.07 114.27 35.56L114.24 35.53L114.21 35.49Q113.78 34.46 113.94 33.09L113.81 32.97L113.88 33.04Q111.83 34.26 110.23 35.67L110.26 35.70L110.22 35.66Q110.27 36.46 110.34 37.49L110.27 37.42L110.41 37.57Q110.70 39.26 111.99 40.02L111.90 39.93L112.07 40.09Q113.13 41.77 115.68 42.15L115.70 42.17L115.72 42.19Q117.20 42.34 120.14 42.53Z"/><path d="M2 39 C85 15,95 43,132 8" stroke="#222" fill="none"/><path fill="#222" d="M37.56 19.68L37.54 19.66L35.91 19.71L35.90 19.70Q33.72 19.88 33.49 21.89L33.49 21.90L33.52 21.92Q33.36 22.56 33.39 23.55L33.35 23.51L33.51 23.67Q33.54 25.60 34.79 26.93L34.80 26.93L34.66 26.79Q35.95 28.16 37.86 28.01L37.87 28.03L37.93 28.08Q39.93 27.88 40.69 26.97L40.65 26.92L40.73 27.00Q41.82 26.12 42.09 23.87L41.96 23.74L41.97 23.75Q42.24 21.51 40.98 20.67L41.01 20.70L40.98 20.67Q40.21 19.98 37.55 19.67ZM43.58 28.90L43.56 28.89L42.36 31.26L42.26 31.16Q39.66 36.06 35.89 40.14L35.71 39.95L35.88 40.13Q34.17 40.20 31.46 41.00L31.43 40.96L31.47 41.00Q36.78 34.71 39.94 29.91L39.87 29.84L39.91 29.88Q38.95 30.59 37.31 30.66L37.38 30.73L37.29 30.65Q34.29 30.80 32.77 28.82L32.78 28.83L32.79 28.85Q31.63 27.31 30.53 22.74L30.41 22.62L30.49 22.70Q30.52 22.27 30.36 21.34L30.28 21.26L30.26 21.24Q30.02 20.22 30.02 19.76L30.16 19.90L30.21 19.94Q30.06 18.01 31.13 17.40L31.29 17.56L31.27 17.54Q32.42 16.71 34.28 16.71L34.29 16.72L34.31 16.74Q37.43 16.66 37.43 16.66L37.56 16.79L37.40 16.63Q39.55 16.65 40.80 16.84L40.99 17.02L40.92 16.95Q43.09 17.26 44.01 17.75L43.90 17.65L44.02 17.77Q45.34 18.48 45.53 20.23L45.51 20.21L45.51 20.21Q45.59 20.52 45.40 23.18L45.23 23.01L45.41 23.19Q45.01 25.30 44.78 26.14L44.73 26.09L44.70 26.07Q44.28 27.43 43.52 28.84ZM45.44 31.25L45.39 31.20L45.43 31.24Q46.51 29.13 47.04 24.83L46.98 24.77L47.02 24.80Q47.20 22.51 47.16 21.64L47.30 21.77L47.24 21.71Q47.23 19.87 46.05 18.96L46.10 19.01L45.68 18.78L45.74 18.84Q45.34 17.95 44.42 17.30L44.60 17.47L44.54 17.42Q42.19 16.35 37.39 16.20L37.43 16.25L37.41 16.22Q36.58 16.34 34.14 16.34L34.05 16.24L33.96 16.16Q32.21 16.16 30.73 16.85L30.89 17.01L30.82 16.94Q29.69 17.75 29.76 19.58L29.69 19.50L29.72 19.53Q29.91 20.44 30.10 22.46L30.21 22.57L30.03 22.40Q30.67 25.05 30.93 25.89L31.09 26.04L31.02 25.98Q31.49 27.73 32.44 29.03L32.58 29.17L32.49 29.08Q32.81 29.48 33.19 29.86L33.26 29.92L33.16 29.83Q33.42 30.28 34.07 31.19L34.05 31.18L34.02 31.14Q35.63 32.64 37.58 32.83L37.55 32.81L37.54 32.80Q35.67 35.50 34.11 37.40L34.02 37.31L30.38 41.66L30.38 41.67Q32.75 41.03 34.39 40.69L34.37 40.67L34.26 40.56Q33.56 41.49 31.99 43.20L32.05 43.26L31.95 43.16Q35.03 42.24 38.15 42.20L38.13 42.18L38.23 42.28Q40.53 39.67 44.87 32.44L44.94 32.50L44.84 32.48L44.79 32.44Q45.10 31.75 45.44 31.26ZM39.46 22.04L39.53 22.11L39.48 22.06Q40.05 21.90 40.50 22.02L40.53 22.05L40.46 21.97Q41.17 22.15 41.55 22.27L41.52 22.24L41.58 22.29Q41.61 22.60 41.69 23.02L41.66 22.99L41.73 23.06Q41.85 23.52 41.74 23.90L41.76 23.93L41.65 23.81Q41.59 25.50 40.41 26.60L40.48 26.68L40.48 26.68Q39.45 27.63 37.81 27.59L37.89 27.67L37.83 27.60Q37.51 27.70 35.99 27.40L35.96 27.37L35.88 27.30Q35.71 26.48 35.71 25.76L35.71 25.75L35.78 25.82Q35.58 25.43 35.58 25.20L35.64 25.26L35.63 25.25Q35.72 23.14 38.01 22.34L38.01 22.34L37.89 22.22Q38.57 21.99 39.41 21.99Z"/><path fill="#111" d="M51.80 30.40L51.85 30.45L51.92 30.52Q48.41 36.84 44.99 40.80L44.89 40.70L44.91 40.72Q43.08 41.17 40.64 42.05L40.54 41.95L40.57 41.98Q45.59 36.49 50.34 28.07L50.34 28.07L50.31 28.04Q45.59 20.96 39.61 14.56L39.69 14.65L39.64 14.59Q42.62 15.86 44.91 16.36L45.01 16.46L45.01 16.45Q49.57 21.59 52.01 25.55L52.00 25.54L51.98 25.52Q54.49 21.10 58.41 16.69L58.43 16.71L58.50 16.78Q60.12 16.50 63.32 15.73L63.24 15.65L63.27 15.68Q57.11 22.05 53.64 27.99L53.67 28.01L53.63 27.97Q58.81 36.65 63.19 41.22L63.20 41.24L63.23 41.27Q60.67 40.50 58.58 40.27L58.48 40.17L58.61 40.30Q55.75 37.25 51.83 30.44ZM58.39 40.49L58.43 40.54L58.55 40.66Q58.67 40.52 59.13 40.63L59.24 40.74L59.30 40.80Q60.04 41.51 61.57 43.10L61.55 43.09L61.62 43.16Q64.85 43.83 67.89 45.20L68.02 45.34L67.93 45.24Q60.84 38.69 55.74 29.93L55.77 29.96L55.75 29.94Q59.43 23.23 65.33 16.37L65.42 16.46L65.35 16.39Q63.84 16.98 61.67 17.51L61.77 17.61L61.65 17.49Q62.52 16.57 64.27 14.78L64.33 14.84L64.27 14.78Q61.94 15.73 58.25 16.30L58.36 16.41L58.32 16.37Q54.75 20.03 52.16 24.33L52.29 24.46L52.33 24.50Q51.37 22.86 50.19 21.37L50.26 21.44L47.86 18.40L47.47 18.38L47.42 18.34Q47.29 18.35 47.06 18.28L47.20 18.42L47.20 18.42Q46.52 17.58 45.03 16.02L45.02 16.01L44.87 15.86Q41.12 15.04 38.53 13.67L38.63 13.77L38.46 13.60Q45.24 20.91 49.81 27.96L49.77 27.92L49.94 28.09Q45.27 36.10 39.52 42.68L39.65 42.81L39.66 42.82Q40.86 42.04 42.99 41.47L43.18 41.66L41.79 43.01L41.78 43.00Q41.78 43.00 40.45 44.33L40.41 44.29L40.46 44.34Q43.53 43.34 46.68 42.84L46.62 42.77L46.61 42.77Q50.61 38.24 53.20 33.48L53.29 33.57L53.28 33.57Q55.67 37.63 58.38 40.48Z"/><path fill="#111" d="M131.86 19.69L131.92 19.75L131.85 19.68Q129.84 19.76 128.89 19.92L128.99 20.01L128.86 19.89Q127.31 20.20 126.09 20.73L126.14 20.78L126.15 20.79Q122.50 22.09 122.38 26.77L122.34 26.73L122.35 26.74Q122.31 29.44 122.96 32.37L122.99 32.41L122.98 32.39Q123.93 36.50 127.54 37.68L127.50 37.64L127.55 37.68Q129.43 38.24 130.88 38.08L130.79 38.00L131.20 37.95L131.34 38.09Q131.49 38.05 131.68 38.09L131.64 38.05L131.61 38.02Q131.80 38.05 131.95 38.01L131.90 37.96L131.90 37.96Q134.50 37.67 135.87 37.10L135.95 37.18L132.41 33.68L132.45 33.72Q132.65 33.27 133.26 32.66L133.33 32.73L134.26 31.84L134.15 31.72Q136.05 33.85 138.03 35.91L138.05 35.93L137.99 35.87Q140.40 34.13 140.67 28.76L140.67 28.76L140.67 28.76Q140.76 27.86 140.76 26.95L140.70 26.89L140.80 26.99Q140.72 21.24 135.66 20.13L135.61 20.09L135.57 20.05Q134.40 19.87 131.89 19.72ZM144.50 41.62L144.68 41.80L144.68 41.79Q144.04 42.18 142.86 43.06L142.91 43.11L138.36 39.29L138.36 39.29Q135.86 40.48 131.60 40.52L131.65 40.56L131.61 40.52Q125.11 40.69 122.29 38.45L122.42 38.57L122.26 38.41Q120.55 36.70 120.09 33.73L120.16 33.80L120.10 33.74Q119.92 31.96 119.54 28.38L119.48 28.32L119.43 28.27Q119.49 27.60 119.37 25.85L119.44 25.93L119.31 25.79Q119.22 24.30 119.26 23.42L119.20 23.36L119.36 23.52Q119.37 20.37 121.12 18.81L121.15 18.84L121.22 18.91Q122.57 17.40 125.77 16.91L125.81 16.95L125.83 16.96Q128.37 16.66 131.27 16.73L131.28 16.75L131.17 16.64Q138.76 16.84 141.88 19.20L141.80 19.12L141.84 19.17Q143.97 21.26 143.71 26.17L143.78 26.24L143.73 26.19Q143.56 29.87 143.37 31.20L143.45 31.28L143.43 31.26Q142.73 35.70 140.41 38.02L140.33 37.94L140.34 37.95Q141.86 39.25 144.60 41.72ZM139.80 17.50L139.70 17.40L139.80 17.50Q137.83 16.82 131.32 16.33L131.26 16.27L131.21 16.22Q129.94 16.35 127.16 16.47L127.03 16.34L127.02 16.33Q122.81 16.57 120.56 18.55L120.61 18.61L120.64 18.63Q118.90 20.02 118.90 23.18L118.85 23.12L118.84 23.12Q119.03 24.15 119.19 25.86L119.09 25.76L119.06 25.73Q119.15 27.38 119.15 28.26L119.30 28.41L119.21 28.32Q119.48 30.19 119.86 33.76L119.82 33.73L119.69 33.60Q120.20 36.62 121.80 38.67L121.65 38.53L121.71 38.59Q122.12 39.49 123.34 40.64L123.37 40.66L123.29 40.59Q125.99 42.56 131.17 42.83L131.13 42.79L131.10 42.76Q131.56 42.87 133.95 42.99L134.00 43.03L133.93 42.97Q138.73 43.12 141.01 42.05L140.94 41.97L140.94 41.98Q141.81 42.66 146.53 46.24L146.59 46.29L146.60 46.30Q147.30 45.86 148.59 44.87L148.59 44.87L148.49 44.77Q147.71 44.18 146.91 43.50L146.92 43.50L145.15 41.93L145.26 41.88L145.29 41.91Q144.70 41.44 143.49 40.41L143.46 40.39L143.58 40.50Q145.34 37.85 145.34 33.32L145.35 33.33L145.45 33.43Q145.32 32.89 145.36 32.05L145.43 32.12L145.49 32.18Q145.56 31.37 145.56 30.95L145.44 30.83L145.49 30.88Q145.39 25.26 144.67 22.90L144.68 22.92L144.81 23.04Q144.44 21.77 143.57 20.70L143.43 20.56L143.47 20.60Q142.73 18.53 139.80 17.50ZM133.78 22.06L133.66 21.95L133.66 21.94Q137.88 22.01 139.70 23.61L139.61 23.51L139.71 23.62Q140.28 24.83 140.39 26.16L140.25 26.02L140.43 26.20Q140.40 27.35 140.33 28.72L140.28 28.68L140.43 28.83Q139.91 33.60 137.97 35.32L137.95 35.30L138.04 35.39Q136.73 34.07 134.22 31.33L134.29 31.41L134.23 31.34Q133.42 32.06 131.86 33.62L131.96 33.72L131.91 33.67Q132.43 34.23 133.57 35.41L133.54 35.37L133.53 35.48L133.47 35.43Q134.07 35.98 135.09 37.05L135.20 37.15L135.12 37.07Q134.03 37.24 131.71 37.54L131.73 37.57L131.33 37.70L130.88 37.66L130.90 37.72L130.93 37.75Q127.31 37.60 125.33 35.96L125.50 36.13L125.39 36.02Q124.35 33.91 124.39 30.79L124.48 30.89L124.37 30.78Q124.62 22.16 133.80 22.08Z"/><path fill="#111" d="M90.53 28.70L90.46 28.62L90.46 28.63Q87.62 28.61 86.86 30.85L86.81 30.80L86.94 30.93Q86.56 31.50 86.45 32.15L86.54 32.24L86.56 32.26Q89.22 32.52 90.85 32.52L90.82 32.49L90.76 32.43Q92.50 32.53 95.09 32.42L95.00 32.33L95.10 32.43Q94.84 30.57 93.43 29.50L93.58 29.65L93.54 29.61Q92.19 28.56 90.40 28.56ZM90.47 41.12L90.47 41.13L90.47 41.12Q86.31 41.19 85.02 39.78L85.02 39.78L84.97 39.73Q84.06 38.33 83.91 35.06L83.93 35.07L83.88 35.03Q83.96 34.88 83.89 33.51L83.75 33.38L83.80 33.43Q83.77 31.23 83.77 30.50L83.71 30.44L83.77 30.50Q83.67 28.54 84.39 27.43L84.40 27.43L84.34 27.38Q85.85 26.07 88.82 26.07L88.81 26.06L90.30 25.99L90.40 26.10Q92.40 26.03 93.92 26.34L93.89 26.30L93.93 26.34Q96.06 26.88 97.05 28.10L96.88 27.93L96.93 27.98Q97.68 29.18 97.76 31.28L97.78 31.30L97.74 31.26Q97.69 32.36 97.73 34.53L97.65 34.44L97.64 34.43Q94.79 34.47 92.01 34.47L92.10 34.57L86.52 34.58L86.53 34.59Q86.52 38.84 90.59 38.62L90.70 38.73L90.71 38.73Q94.40 38.46 95.62 36.64L95.60 36.62L95.64 36.67Q96.64 37.31 98.23 38.49L98.06 38.32L98.20 38.45Q96.71 40.73 92.56 41.00L92.63 41.07L92.66 41.10Q91.98 41.18 90.61 41.26ZM92.76 43.45L92.91 43.60L92.79 43.48Q93.91 43.46 95.13 43.53L95.06 43.46L95.21 43.62Q100.15 43.76 101.06 40.98L101.07 40.99L101.10 41.02Q99.48 39.78 98.38 39.02L98.41 39.05L98.26 38.90Q98.41 38.48 98.60 38.25L98.64 38.29L98.66 38.31Q97.88 37.80 96.51 36.85L96.56 36.90L96.66 36.99Q97.63 36.94 99.69 37.24L99.79 37.34L99.64 37.19Q99.47 35.85 99.39 35.16L99.41 35.18L99.24 33.22L99.28 33.26Q99.11 30.88 98.47 29.40L98.44 29.38L98.48 29.41Q98.16 29.01 97.59 28.40L97.63 28.45L97.67 28.49Q97.45 28.11 97.22 27.54L97.39 27.71L97.23 27.55Q95.43 25.60 90.37 25.60L90.28 25.51L88.73 25.64L88.66 25.57Q85.36 25.50 83.91 26.99L83.99 27.06L83.88 26.96Q83.32 28.19 83.36 30.24L83.24 30.13L83.35 30.24Q83.46 31.25 83.57 33.50L83.55 33.48L83.61 33.54Q83.62 35.07 83.73 37.13L83.70 37.09L83.78 37.17Q83.91 39.28 84.78 40.35L84.94 40.50L84.88 40.44Q85.00 40.57 85.20 40.68L85.29 40.78L85.46 41.29L85.46 41.29Q86.17 43.07 92.76 43.45ZM90.73 38.34L90.72 38.33L90.64 38.24Q89.47 38.33 88.55 37.87L88.60 37.92L88.60 37.92Q88.66 37.63 88.47 36.95L88.35 36.84L88.39 36.87Q90.13 36.82 91.73 36.82L91.65 36.74L91.74 36.83Q93.36 36.78 95.04 36.89L95.05 36.91L95.10 36.96Q93.74 38.23 90.73 38.34ZM92.31 30.93L92.36 30.98L92.26 30.88Q92.99 31.00 94.32 31.38L94.36 31.42L94.44 31.69L94.54 31.99L94.55 31.99Q93.24 32.17 92.33 32.13L92.21 32.02L92.16 31.97Q89.99 32.04 89.95 32.04L90.00 32.09L89.85 31.93Q90.69 31.10 92.36 30.99Z"/></svg>