<svg xmlns="http://www.w3.org/2000/svg" width="150" height="50" viewBox="0,0,150,50"><path fill="#333" d="M24.12 19.58L24.16 19.63L24.25 19.71Q22.24 19.80 21.29 19.95L21.28 19.94L21.21 19.88Q19.62 20.14 18.40 20.68L18.37 20.65L18.40 20.68Q14.91 22.14 14.80 26.82L14.81 26.84L14.87 26.90Q14.80 29.56 15.44 32.49L15.34 32.39L15.35 32.40Q16.21 36.42 19.82 37.60L19.92 37.69L19.80 37.57Q21.80 38.24 23.25 38.09L23.26 38.10L23.71 38.09L23.70 38.08Q23.84 38.03 24.03 38.07L24.11 38.16L23.97 38.01Q24.16 38.05 24.32 38.02L24.29 37.99L24.25 37.94Q26.87 37.68 28.24 37.11L28.41 37.27L24.71 33.61L24.66 33.56Q25.08 33.34 25.69 32.73L25.71 32.75L26.59 31.80L26.64 31.85Q28.42 33.86 30.40 35.91L30.32 35.83L30.40 35.92Q32.70 34.06 32.97 28.70L32.93 28.66L32.92 28.65Q33.11 27.86 33.11 26.94L33.15 26.97L33.11 26.93Q32.98 21.13 27.92 20.03L28.10 20.21L27.97 20.09Q26.78 19.88 24.27 19.73ZM37.02 41.78L36.87 41.63L36.96 41.71Q36.38 42.16 35.20 43.04L35.19 43.03L30.83 39.39L30.87 39.43Q28.34 40.59 24.08 40.63L23.96 40.51L24.02 40.57Q17.59 40.81 14.77 38.56L14.60 38.39L14.71 38.50Q12.82 36.60 12.36 33.63L12.52 33.79L12.43 33.70Q12.30 31.98 11.92 28.40L11.79 28.27L11.84 28.32Q11.96 27.72 11.85 25.96L11.72 25.84L11.69 25.81Q11.53 24.24 11.56 23.36L11.57 23.36L11.68 23.48Q11.83 20.47 13.59 18.91L13.55 18.88L13.54 18.87Q15.02 17.49 18.22 17.00L18.25 17.02L18.19 16.97Q20.62 16.55 23.52 16.62L23.56 16.67L23.59 16.70Q31.17 16.88 34.29 19.24L34.23 19.19L34.17 19.13Q36.34 21.26 36.07 26.17L36.13 26.23L36.09 26.18Q35.87 29.82 35.68 31.15L35.75 31.21L35.66 31.12Q35.05 35.66 32.73 37.98L32.85 38.10L32.70 37.95Q34.21 39.23 36.95 41.70ZM32.12 17.45L32.11 17.45L32.04 17.38Q30.05 16.68 23.54 16.18L23.61 16.26L23.57 16.22Q22.30 16.35 19.52 16.47L19.41 16.35L19.51 16.46Q15.26 16.66 13.01 18.64L12.93 18.56L12.94 18.57Q11.24 19.99 11.24 23.15L11.21 23.12L11.27 23.18Q11.26 24.01 11.42 25.72L11.55 25.86L11.47 25.78Q11.58 27.45 11.58 28.32L11.70 28.44L11.69 28.43Q11.73 30.07 12.11 33.65L12.22 33.76L12.07 33.61Q12.43 36.48 14.02 38.54L14.01 38.52L14.12 38.63Q14.42 39.42 15.64 40.57L15.61 40.54L15.55 40.48Q18.29 42.50 23.47 42.76L23.54 42.84L23.52 42.81Q23.84 42.80 26.24 42.91L26.27 42.93L26.28 42.94Q31.15 43.17 33.43 42.11L33.31 41.99L33.39 42.07Q34.29 42.77 39.01 46.35L38.94 46.28L38.91 46.25Q39.61 45.81 40.91 44.82L40.95 44.86L40.95 44.87Q39.97 44.08 39.18 43.40L39.16 43.38L37.63 42.04L37.68 41.94L37.72 41.98Q37.02 41.39 35.80 40.36L35.87 40.43L35.92 40.48Q37.80 37.95 37.80 33.42L37.66 33.28L37.74 33.35Q37.74 32.94 37.78 32.10L37.82 32.14L37.80 32.12Q37.86 31.31 37.86 30.89L37.75 30.78L37.79 30.81Q37.93 25.43 37.20 23.07L37.16 23.03L37.21 23.08Q36.80 21.75 35.92 20.69L35.85 20.62L35.89 20.66Q35.04 18.48 32.11 17.45ZM26.15 22.07L26.18 22.10L26.21 22.13Q30.09 21.86 31.92 23.46L31.95 23.49L32.05 23.60Q32.55 24.74 32.66 26.07L32.71 26.12L32.71 26.12Q32.78 27.37 32.70 28.74L32.61 28.64L32.66 28.69Q32.36 33.69 30.42 35.40L30.34 35.32L30.46 35.45Q29.12 34.10 26.60 31.36L26.65 31.40L26.59 31.34Q25.81 32.09 24.25 33.65L24.21 33.61L24.28 33.68Q24.82 34.25 25.96 35.43L25.92 35.39L25.98 35.57L25.88 35.47Q26.50 36.05 27.53 37.11L27.43 37.02L27.41 37.00Q26.53 37.37 24.20 37.67L24.24 37.71L23.71 37.72L23.32 37.75L23.26 37.72L23.28 37.75Q19.71 37.63 17.73 35.99L17.79 36.06L17.72 35.99Q16.68 33.89 16.72 30.76L16.74 30.79L16.85 30.89Q17.00 22.18 26.18 22.10Z"/><path fill="#222" d="M70.80 14.29L70.85 14.35L70.93 14.42Q73.34 15.99 75.09 16.41L75.10 16.42L75.06 16.38Q76.36 22.86 76.36 29.44L76.37 29.46L76.43 29.52Q76.43 33.52 75.90 37.51L76.01 37.62L75.84 37.45Q78.14 37.05 80.61 37.13L80.61 37.12L80.62 37.14Q82.99 37.11 85.13 37.83L85.19 37.89L85.14 37.85Q85.54 39.46 85.99 41.02L86.06 41.08L86.03 41.05Q82.52 39.56 78.67 39.83L78.78 39.94L78.75 39.90Q74.94 40.21 71.70 42.11L71.73 42.14L71.72 42.12Q73.74 35.09 73.47 28.08L73.51 28.12L73.64 28.24Q73.23 21.03 70.80 14.29ZM71.05 42.72L71.18 42.85L71.13 42.80Q71.88 42.48 73.25 41.76L73.18 41.69L73.25 41.75Q73.01 42.43 72.48 43.91L72.51 43.95L72.52 43.96Q76.03 42.25 79.88 42.25L79.96 42.33L79.90 42.28Q85.49 42.23 89.60 45.28L89.58 45.25L89.53 45.21Q88.95 43.78 87.92 40.81L87.88 40.78L87.92 40.82Q86.81 40.13 85.94 39.74L85.99 39.79L86.05 39.86Q85.72 38.96 85.41 37.55L85.44 37.57L85.55 37.68Q82.88 36.72 79.87 36.72L79.87 36.73L79.94 36.79Q79.08 36.70 78.29 36.74L78.23 36.69L78.37 36.83Q78.50 31.78 78.43 27.67L78.53 27.77L78.46 27.70Q78.40 23.60 78.05 18.62L78.10 18.66L78.14 18.70Q76.70 18.56 75.90 18.37L75.93 18.40L75.87 18.34Q75.75 17.61 75.52 16.20L75.58 16.26L75.43 16.11Q72.50 15.46 70.26 13.52L70.11 13.37L70.25 13.51Q72.97 20.57 73.23 28.07L73.20 28.04L73.13 27.97Q73.46 35.57 71.06 42.73Z"/><path fill="#333" d="M54.79 27.23L54.81 27.25L54.70 27.14Q55.63 27.27 57.04 27.11L57.02 27.10L56.93 27.01Q56.88 27.64 56.88 28.29L56.87 28.28L56.87 29.54L56.86 29.52Q56.01 29.51 55.17 29.59L55.18 29.60L55.32 29.74Q54.29 29.59 53.46 29.55L53.63 29.72L53.45 29.55Q50.77 35.89 47.35 40.50L47.36 40.51L47.18 40.33Q44.84 41.15 43.55 41.76L43.49 41.70L43.49 41.70Q47.60 35.99 50.65 29.71L50.70 29.76L47.93 29.62L48.00 29.69Q47.92 28.28 47.81 26.95L47.85 26.99L47.95 27.09Q49.77 27.15 51.82 27.15L51.91 27.24L53.66 23.40L53.75 23.48Q54.78 21.63 56.00 20.03L55.98 20.01L55.90 19.93Q54.43 20.16 52.83 20.16L52.83 20.17L52.81 20.14Q46.65 20.08 42.88 17.87L43.01 18.00L42.36 16.28L42.20 16.12Q41.86 15.29 41.48 14.41L41.60 14.54L41.56 14.50Q45.87 17.09 51.58 17.31L51.54 17.28L51.58 17.32Q56.67 17.49 61.81 15.51L61.95 15.66L61.94 15.65Q61.65 15.97 61.16 16.85L61.19 16.88L61.28 16.97Q57.50 21.56 54.65 27.09ZM62.82 18.28L62.71 18.17L63.82 16.28L63.71 16.16Q62.77 16.67 61.10 17.39L61.19 17.49L61.29 17.09L61.33 17.14Q61.37 16.91 61.48 16.79L61.52 16.83L61.63 16.94Q61.95 16.20 62.68 14.86L62.66 14.85L62.66 14.84Q57.27 17.07 51.52 16.84L51.64 16.96L51.67 16.99Q45.56 16.63 40.80 13.66L40.78 13.64L40.79 13.64Q41.87 15.56 42.70 18.23L42.70 18.22L42.78 18.30Q43.71 18.77 44.51 19.08L44.61 19.18L44.53 19.10Q44.77 19.53 45.22 21.39L45.16 21.33L45.29 21.46Q48.31 22.58 53.83 22.43L53.91 22.51L53.93 22.52Q53.68 23.15 51.70 26.92L51.62 26.83L51.71 26.93Q49.55 26.82 47.57 26.63L47.67 26.74L47.62 26.69Q47.70 27.52 47.70 28.40L47.74 28.44L47.73 30.14L49.37 30.11L49.34 31.48L49.31 31.46Q45.31 38.76 42.53 42.34L42.68 42.49L42.68 42.49Q44.24 41.69 45.88 41.20L45.79 41.10L45.83 41.15Q45.16 42.07 43.79 43.79L43.88 43.88L43.78 43.78Q47.06 42.80 49.50 42.57L49.39 42.47L49.38 42.45Q52.24 38.61 55.36 31.83L55.42 31.90L58.95 32.18L58.88 32.12Q58.84 31.24 58.84 30.32L58.81 30.30L58.85 28.55L58.87 28.57Q58.61 28.57 58.05 28.61L57.99 28.54L57.93 28.48Q57.49 28.63 57.22 28.63L57.24 28.65L57.12 28.53Q57.21 28.50 57.24 28.35L57.21 28.32L57.20 28.04L57.12 27.96Q59.81 22.99 62.89 18.35Z"/><path fill="#111" d="M71.05 28.76L70.91 28.62L65.14 28.83L65.00 28.69Q62.07 28.72 59.14 28.65L59.27 28.78L59.32 28.83Q59.31 35.41 57.26 40.93L57.28 40.95L57.26 40.93Q55.45 41.44 53.70 42.13L53.73 42.16L53.77 42.20Q56.43 36.37 56.43 29.71L56.55 29.82L56.53 29.80Q56.55 21.34 52.44 14.30L52.32 14.17L52.28 14.14Q53.81 14.95 56.29 15.75L56.32 15.78L56.30 15.76Q58.47 20.86 59.00 25.73L59.07 25.80L59.03 25.76Q62.26 26.21 65.12 26.18L65.14 26.19L65.13 26.19Q67.71 26.11 71.02 25.84L71.04 25.86L71.01 25.83Q71.52 21.46 73.27 16.36L73.29 16.38L73.30 16.39Q75.13 15.86 77.38 15.02L77.37 15.01L77.49 15.13Q73.77 21.77 73.77 29.73L73.82 29.78L73.80 29.76Q73.78 35.94 76.14 41.27L76.27 41.40L76.13 41.26Q74.53 40.65 72.48 40.35L72.48 40.35L72.57 40.44Q70.78 35.30 70.89 28.60ZM72.33 40.82L72.25 40.73L72.37 40.85Q73.29 40.89 74.39 41.16L74.48 41.25L74.45 41.22Q74.84 41.99 75.49 43.48L75.42 43.41L75.47 43.46Q78.67 44.25 80.45 45.17L80.52 45.23L80.54 45.25Q76.14 39.14 75.83 30.88L75.81 30.85L75.74 30.78Q75.52 22.84 79.17 16.02L79.14 15.98L78.15 16.52L78.04 16.41Q77.55 16.64 76.94 16.80L76.86 16.72L77.03 16.89Q77.30 15.93 78.13 14.37L78.21 14.45L78.25 14.49Q75.60 15.53 72.97 16.02L72.96 16.01L72.87 15.92Q71.34 20.90 70.88 25.59L70.71 25.41L70.80 25.50Q68.41 25.81 65.97 25.81L65.81 25.65L65.92 25.76Q63.52 25.76 61.01 25.60L60.88 25.48L60.91 25.51Q60.70 22.26 59.60 18.18L59.62 18.20L59.64 18.22Q59.00 18.16 57.56 17.78L57.49 17.71L57.42 17.64Q57.10 16.48 56.64 15.45L56.62 15.43L56.69 15.51Q53.96 14.76 51.68 13.50L51.69 13.51L51.61 13.43Q56.23 20.90 56.23 29.70L56.23 29.70L56.24 29.71Q56.13 36.57 53.01 42.70L53.02 42.70L53.09 42.78Q53.81 42.50 55.14 41.93L55.07 41.86L55.14 41.93Q54.78 42.75 53.98 44.27L54.07 44.37L53.99 44.28Q56.86 43.35 59.11 42.93L59.16 42.98L59.13 42.95Q60.86 37.26 61.05 31.09L61.05 31.09L61.12 31.17Q62.71 31.08 65.91 31.04L65.94 31.07L65.93 31.06Q68.81 31.05 70.72 31.13L70.66 31.08L70.73 31.14Q70.92 36.82 72.26 40.74Z"/><path fill="#222" d="M115.58 40.43L115.57 40.42L115.44 40.28Q111.54 40.69 110.55 38.37L110.39 38.20L110.51 38.33Q111.30 37.40 112.86 35.61L112.81 35.56L112.73 35.48Q113.19 37.46 116.20 37.58L116.33 37.71L116.37 37.75Q119.61 37.68 121.25 36.35L121.28 36.38L121.35 36.45Q122.78 34.87 122.70 32.17L122.74 32.21L122.67 32.13Q122.46 27.01 117.66 27.24L117.62 27.20L117.80 27.38Q114.96 27.51 113.20 28.76L113.12 28.68L112.85 28.56L112.63 28.42L112.65 28.43Q112.92 25.21 112.81 22.47L112.78 22.44L112.91 22.57Q112.62 19.76 112.27 16.45L112.28 16.46L112.35 16.53Q116.11 17.58 119.92 17.47L119.85 17.40L119.80 17.35Q123.74 17.41 127.32 16.15L127.15 15.99L126.60 17.52L126.74 17.66Q126.31 18.30 126.12 19.14L126.12 19.15L126.13 19.16Q123.12 20.29 119.23 20.29L119.25 20.30L119.14 20.20Q117.61 20.11 116.13 19.96L116.22 20.06L116.29 20.12Q116.05 20.65 115.71 25.10L115.78 25.17L115.81 25.21Q116.59 24.68 118.64 24.53L118.70 24.59L118.76 24.65Q122.46 24.85 123.91 26.52L123.94 26.56L123.80 26.41Q125.27 28.04 125.53 31.88L125.50 31.84L125.52 31.87Q125.71 35.98 124.50 38.00L124.54 38.05L124.58 38.08Q122.53 39.95 119.22 40.18L119.31 40.28L119.25 40.22Q118.16 40.19 115.49 40.34ZM121.62 42.70L121.63 42.71L121.49 42.57Q125.07 42.80 126.97 41.69L126.84 41.57L126.83 41.55Q127.87 40.08 127.87 37.98L128.00 38.11L127.87 37.98Q127.91 34.94 126.96 30.83L127.05 30.92L127.05 30.92Q126.63 29.13 125.42 27.73L125.40 27.71L125.45 27.80L125.08 27.35L124.77 27.20L124.80 27.23Q124.55 26.55 123.90 25.87L123.82 25.79L123.89 25.89L123.92 25.92Q122.26 24.12 118.57 24.12L118.62 24.16L118.48 24.29L118.36 24.17Q118.49 23.65 118.68 22.55L118.57 22.44L118.75 22.62Q123.65 22.65 127.68 21.01L127.64 20.97L127.72 21.04Q128.17 19.67 129.12 16.85L128.96 16.68L127.00 17.78L126.92 17.70Q127.38 16.63 127.88 15.49L127.90 15.51L127.78 15.40Q124.01 16.92 119.90 16.99L119.91 17.01L119.83 16.93Q115.80 17.12 111.84 16.02L111.71 15.88L111.88 16.05Q112.40 20.30 112.40 24.72L112.44 24.76L112.39 24.72Q112.49 26.72 112.38 28.62L112.46 28.70L112.30 28.54Q112.58 28.75 113.15 29.05L113.18 29.08L113.18 29.08Q113.59 28.92 114.23 28.57L114.16 28.50L114.17 28.51Q114.07 29.21 113.84 30.73L113.93 30.82L113.97 30.86Q114.38 31.04 114.80 31.27L114.80 31.27L114.86 31.34Q117.50 29.44 119.36 29.44L119.43 29.51L119.48 29.56Q120.69 29.44 121.87 30.08L121.97 30.18L122.02 30.23Q122.28 31.18 122.32 32.13L122.37 32.18L122.26 32.07Q122.46 34.79 121.44 35.89L121.38 35.83L121.42 35.87Q120.07 37.11 117.82 37.34L117.82 37.33L117.68 37.20Q116.73 37.28 116.05 37.20L116.18 37.33L116.17 37.32Q115.32 37.19 114.55 36.85L114.51 36.81L114.51 36.61L114.35 36.68L114.32 36.65Q113.53 36.17 113.00 34.84L112.97 34.81L113.01 34.85Q111.64 36.22 109.96 38.35L110.02 38.40L110.03 38.42Q110.26 38.99 111.10 39.95L111.12 39.96L111.15 39.99Q112.23 41.83 115.04 42.33L114.96 42.24L115.04 42.33Q116.14 42.48 121.51 42.59Z"/><path fill="#222" d="M35.21 14.02L35.21 14.02L35.21 14.03Q36.21 16.09 37.88 16.43L37.76 16.31L37.85 16.39Q38.35 16.47 39.03 16.28L39.09 16.34L39.00 16.25Q38.91 22.29 38.84 28.16L38.77 28.09L38.88 28.20Q38.80 33.94 39.03 39.88L39.01 39.87L39.09 39.94Q38.74 39.82 38.43 39.82L38.52 39.90L38.49 39.87Q36.96 39.91 35.67 41.74L35.48 41.55L35.49 41.56Q36.16 34.62 36.12 27.76L36.31 27.95L36.29 27.93Q36.10 20.93 35.27 14.08ZM35.06 42.69L35.06 42.69L35.21 42.84Q36.26 40.99 37.32 40.54L37.21 40.42L37.18 40.39Q37.29 41.61 37.29 42.60L37.27 42.58L37.25 42.55Q37.86 42.06 38.66 42.18L38.78 42.30L38.83 42.34Q40.77 42.57 41.99 45.28L41.99 45.28L42.04 45.33Q40.75 37.68 40.75 30.22L40.73 30.20L40.70 30.17Q40.80 22.55 41.64 15.24L41.54 15.13L41.72 15.32Q40.56 17.05 39.41 17.66L39.53 17.77L39.52 17.76Q39.42 16.64 39.50 15.57L39.47 15.54L39.65 15.72Q38.77 16.13 38.01 15.98L38.04 16.02L37.95 15.93Q35.70 15.46 34.71 12.60L34.81 12.71L34.87 12.77Q35.74 20.11 35.82 27.65L35.92 27.75L35.85 27.68Q36.08 35.29 35.20 42.83Z"/><path fill="#333" d="M19.97 41.62L20.00 41.65L19.91 41.56Q17.77 41.13 15.60 40.98L15.65 41.04L15.65 41.03Q14.20 39.59 11.54 35.74L11.53 35.73L11.49 35.69Q9.38 38.87 6.98 41.31L6.93 41.26L4.88 41.68L4.78 41.58Q3.78 41.84 2.79 42.11L2.76 42.07L2.68 42.00Q6.87 37.89 9.88 33.78L10.02 33.92L9.91 33.81Q6.76 29.75 1.36 24.95L1.33 24.93L1.30 24.90Q3.47 25.58 6.17 26.00L6.25 26.07L6.34 26.16Q9.67 29.16 11.58 31.86L11.63 31.92L11.60 31.88Q13.76 28.87 16.50 26.36L16.42 26.27L16.42 26.27Q19.46 25.92 21.29 25.43L21.26 25.40L21.29 25.43Q16.77 29.10 13.08 33.67L13.02 33.60L13.15 33.74Q16.43 38.31 19.89 41.54ZM22.71 24.64L22.73 24.66L22.67 24.60Q19.81 25.48 16.27 25.82L16.28 25.83L16.38 25.92Q13.35 28.45 11.63 30.92L11.78 31.07L11.71 31.00Q10.82 29.96 9.18 27.98L9.24 28.04L8.95 27.93L8.95 27.93Q8.96 28.06 8.85 28.06L8.72 27.94L8.67 27.88Q8.01 27.15 6.38 25.71L6.39 25.72L6.30 25.63Q2.81 25.18-0.05 23.97L-0.06 23.96L-0.11 23.90Q5.50 28.79 9.54 33.93L9.52 33.91L9.52 33.91Q6.10 38.49 1.69 42.79L1.74 42.85L1.78 42.89Q2.00 42.77 5.50 41.93L5.51 41.94L5.40 41.82Q3.87 43.15 2.24 44.49L2.24 44.49L2.34 44.59Q5.47 43.61 8.63 43.42L8.74 43.53L8.72 43.50Q11.09 41.24 13.00 38.49L12.92 38.42L12.93 38.43Q14.27 40.11 15.49 41.29L15.49 41.29L15.59 41.39Q15.66 41.35 15.74 41.42L15.70 41.38L15.88 41.38L15.93 41.43Q17.22 42.57 18.56 43.63L18.60 43.68L18.57 43.65Q22.12 44.15 25.01 45.18L24.96 45.13L24.95 45.12Q18.75 40.63 15.06 35.46L15.09 35.49L15.22 35.61Q18.71 30.43 23.28 26.36L23.41 26.48L23.41 26.48Q22.51 26.88 21.52 27.11L21.39 26.98L19.34 27.40L19.47 27.53Q20.61 26.58 22.78 24.72Z"/><path fill="#222" d="M91.10 29.02L91.10 29.02L91.22 29.14Q89.44 29.07 88.20 30.50L88.13 30.43L88.17 30.46Q86.97 31.93 86.78 33.83L86.72 33.78L86.80 33.85Q86.54 35.88 87.62 36.85L87.47 36.70L87.52 36.74Q88.66 37.77 90.76 37.66L90.75 37.65L90.70 37.60Q92.92 37.58 94.02 36.89L93.86 36.72L93.88 36.75Q95.15 35.77 95.15 34.21L95.03 34.09L95.11 34.17Q95.09 33.77 95.02 33.39L94.90 33.28L95.00 33.38Q95.14 31.76 94.04 30.41L94.04 30.42L94.04 30.41Q92.83 28.96 91.16 29.08ZM90.73 40.18L90.82 40.28L90.75 40.21Q86.48 40.31 85.07 39.55L84.98 39.46L84.92 39.40Q83.93 38.67 83.74 36.96L83.81 37.03L83.75 36.97Q83.83 36.41 83.87 35.68L83.69 35.51L83.78 35.59Q83.84 34.55 83.84 34.10L83.86 34.11L83.92 34.17Q84.32 31.26 84.47 30.58L84.42 30.52L84.56 30.66Q85.00 28.70 85.83 27.29L85.69 27.15L85.77 27.23Q88.44 22.86 94.38 16.50L94.45 16.57L94.44 16.56Q97.04 16.19 99.25 15.39L99.33 15.47L99.28 15.42Q92.36 22.82 89.16 27.04L89.27 27.15L89.12 27.00Q90.13 26.53 91.43 26.53L91.51 26.61L91.57 26.67Q94.78 26.56 96.30 28.51L96.34 28.55L96.25 28.46Q97.63 30.14 97.97 33.68L97.96 33.67L98.08 33.79Q97.99 34.35 97.99 34.96L98.05 35.02L98.09 35.06Q98.02 38.11 95.82 39.18L95.81 39.17L95.87 39.23Q94.63 39.82 90.75 40.20ZM93.14 42.71L93.00 42.56L92.96 42.53Q94.31 42.54 96.29 42.62L96.40 42.73L96.37 42.70Q97.98 42.75 99.54 42.02L99.49 41.98L99.45 41.94Q100.58 41.17 100.58 39.38L100.64 39.44L100.65 39.44Q100.56 38.86 100.39 37.87L100.50 37.98L100.41 37.89Q100.35 37.01 100.35 36.55L100.37 36.57L100.28 36.49Q99.46 31.82 97.86 29.92L97.83 29.89L97.82 29.87Q97.82 29.84 97.67 29.61L97.56 29.50L97.34 29.36L97.30 29.36L97.18 29.23Q96.82 28.72 96.21 27.77L96.23 27.79L96.21 27.77Q95.38 26.90 93.40 26.45L93.28 26.32L93.28 26.33Q94.52 24.74 97.49 21.05L97.50 21.06L101.81 15.86L101.74 15.79Q100.21 16.69 97.81 17.46L97.90 17.55L97.72 17.37Q98.64 16.38 100.43 14.40L100.42 14.39L100.53 14.50Q98.05 15.48 94.16 16.05L94.31 16.20L94.17 16.07Q88.54 22.04 85.57 26.99L85.50 26.92L85.47 26.89Q84.01 29.46 83.43 35.70L83.51 35.78L83.37 35.64Q83.39 36.30 83.46 37.26L83.54 37.34L83.48 37.27Q83.55 39.02 84.65 39.93L84.66 39.94L84.68 39.96Q85.05 40.10 85.01 40.14L84.92 40.05L85.04 40.16Q85.38 41.04 86.18 41.46L86.13 41.41L86.13 41.41Q87.57 42.09 89.51 42.28L89.56 42.32L89.49 42.25Q89.66 42.42 93.16 42.73ZM92.77 31.34L92.88 31.44L92.82 31.39Q93.41 31.29 94.37 31.79L94.44 31.86L94.37 31.79Q94.70 32.73 94.70 33.38L94.72 33.40L94.65 33.33Q94.89 35.25 93.94 36.24L93.85 36.14L93.97 36.27Q92.85 36.93 90.76 37.24L90.74 37.22L90.83 37.31Q89.37 37.30 88.83 37.03L88.85 37.05L88.80 37.00Q88.59 36.52 88.59 36.22L88.65 36.28L88.65 36.28Q88.38 32.96 91.32 31.67L91.28 31.63L91.27 31.63Q91.99 31.24 92.75 31.32Z"/><path d="M10 22 C87 2,71 37,129 15" stroke="#444" fill="none"/><path fill="#111" d="M140.25 30.25L140.40 30.40L140.31 30.30Q140.42 29.93 140.39 29.51L140.51 29.63L140.51 29.63Q140.32 29.14 140.02 28.95L140.04 28.98L140.00 28.94Q139.32 28.40 138.44 28.55L138.36 28.47L138.41 28.53Q137.35 28.53 135.72 29.63L135.68 29.60L135.69 29.61Q134.25 30.49 134.25 31.67L134.32 31.74L134.33 31.75Q134.24 32.92 134.24 36.23L134.38 36.37L134.27 36.26Q134.25 38.83 134.41 40.85L134.48 40.93L134.45 40.89Q132.76 40.92 132.76 40.92L132.70 40.86L132.66 40.81Q131.63 40.74 130.91 40.81L131.10 41.01L131.04 40.95Q131.36 38.33 131.43 36.09L131.58 36.24L131.46 36.11Q131.66 31.52 131.01 30.22L131.05 30.26L131.09 30.30Q130.69 29.59 130.11 29.29L130.23 29.40L130.17 29.34Q129.34 28.62 127.78 28.51L127.75 28.48L127.83 28.57Q125.66 28.18 125.13 29.78L125.20 29.86L125.20 29.85Q125.01 30.31 125.12 30.80L125.27 30.95L125.14 30.82Q125.82 33.59 125.47 36.37L125.42 36.32L125.43 36.33Q125.20 39.22 123.79 41.66L123.73 41.59L123.77 41.63Q122.74 41.79 120.65 42.20L120.74 42.29L120.76 42.31Q123.10 38.91 123.10 34.61L123.06 34.57L123.17 34.68Q123.18 28.82 119.14 24.60L119.10 24.55L119.16 24.61Q119.87 24.87 120.83 25.10L120.85 25.13L122.45 25.39L122.53 25.47Q123.10 26.19 123.97 27.87L123.93 27.83L123.91 27.80Q124.16 26.00 126.60 25.96L126.42 25.79L126.48 25.84Q126.75 25.92 127.74 26.00L127.58 25.84L127.58 25.84Q132.61 26.18 133.75 29.00L133.77 29.02L133.79 29.04Q135.57 26.44 140.59 25.91L140.44 25.75L140.54 25.86Q141.36 25.80 142.24 25.91L142.18 25.85L142.25 25.93Q144.35 26.01 144.20 27.57L144.19 27.56L144.14 27.51Q144.19 28.28 143.92 29.04L143.93 29.06L143.81 28.93Q142.37 31.91 142.60 35.45L142.77 35.62L142.61 35.46Q142.87 39.00 144.78 41.82L144.79 41.83L144.80 41.84Q143.12 41.49 141.29 41.26L141.31 41.28L141.23 41.20Q140.06 38.70 139.87 35.92L139.86 35.92L139.79 35.84Q139.68 33.07 140.33 30.33ZM140.98 41.56L140.97 41.55L141.10 41.68Q141.78 41.71 143.11 41.90L143.16 41.95L143.07 41.86Q143.72 42.70 144.86 44.11L144.84 44.09L144.77 44.02Q147.69 44.58 149.78 45.22L149.77 45.21L149.84 45.28Q144.84 41.38 144.57 34.87L144.42 34.73L144.58 34.88Q144.37 32.66 144.98 30.75L145.08 30.85L145.10 30.87Q145.21 29.88 145.21 29.15L145.34 29.28L145.17 29.11Q145.33 28.36 144.72 27.79L144.65 27.72L144.72 27.75L144.72 27.75Q144.66 27.12 144.59 26.63L144.57 26.61L144.73 26.77Q144.60 26.22 144.14 25.95L144.02 25.84L144.10 25.91Q143.43 25.43 142.55 25.39L142.53 25.37L142.54 25.38Q139.73 25.31 137.07 26.27L137.05 26.25L137.08 26.27Q135.01 26.88 133.83 28.29L133.77 28.22L133.76 28.21Q132.23 25.77 127.39 25.42L127.48 25.51L127.48 25.51Q126.86 25.54 126.44 25.54L126.33 25.42L126.39 25.49Q124.23 25.38 123.62 26.63L123.62 26.64L123.75 26.76Q123.30 26.12 122.61 25.06L122.74 25.19L122.72 25.17Q120.24 24.63 118.26 23.98L118.17 23.89L118.30 24.02Q122.96 28.41 122.96 34.70L122.81 34.54L122.88 34.61Q122.94 39.39 120.08 42.86L119.98 42.75L119.95 42.72Q120.54 42.70 121.03 42.63L121.05 42.64L121.89 42.34L121.92 42.37Q121.18 43.39 120.08 44.61L120.11 44.63L120.21 44.73Q121.80 44.39 124.92 43.78L124.82 43.67L124.84 43.70Q127.67 39.75 127.67 34.83L127.61 34.78L127.62 34.79Q127.67 34.04 127.60 33.20L127.42 33.03L127.50 33.11Q127.38 32.30 128.37 31.50L128.34 31.47L128.41 31.58L128.37 31.54Q128.91 31.02 130.09 30.90L130.26 31.07L130.11 30.92Q130.66 31.05 130.96 31.05L130.93 31.02L130.91 31.18L130.96 31.23Q131.27 33.98 131.15 36.34L131.11 36.29L131.24 36.43Q131.07 38.66 130.58 41.32L130.63 41.38L130.64 41.38Q131.52 41.23 131.52 41.23L131.53 41.24L131.62 41.34Q132.91 41.18 132.57 41.18L132.64 41.26L132.55 41.16Q132.77 41.88 132.73 42.33L132.71 42.32L132.69 42.30Q132.51 42.61 132.51 43.10L132.60 43.20L135.09 43.21L135.17 43.28Q136.24 43.11 137.50 43.18L137.56 43.24L137.63 43.32Q136.10 39.61 136.29 33.67L136.16 33.54L136.16 33.54Q136.25 32.49 137.43 31.73L137.53 31.83L137.56 31.86Q138.38 30.97 139.64 30.78L139.60 30.74L140.02 30.86L139.90 30.74Q139.48 32.67 139.48 34.65L139.57 34.75L139.43 34.61Q139.58 38.53 141.11 41.69ZM135.58 30.15L135.77 30.11L135.57 30.25L135.53 30.10Z"/><path fill="#444" d="M98.65 47.16L98.64 47.15L98.62 47.12Q97.66 47.31 95.76 47.61L95.70 47.56L95.64 47.50Q97.04 45.43 98.07 44.14L98.13 44.20L98.11 44.18Q99.78 44.40 99.93 44.40L99.94 44.41L99.92 44.39Q100.33 44.57 100.86 44.46L100.70 44.29L100.73 44.33Q101.49 44.32 101.68 44.32L101.64 44.28L101.62 44.26Q104.16 43.99 104.09 41.82L104.14 41.87L104.21 41.94Q104.08 40.37 103.97 34.12L104.02 34.17L104.07 34.22Q104.04 30.69 104.12 26.55L104.08 26.51L105.41 26.24L105.42 26.25Q106.18 26.24 106.86 26.01L106.82 25.97L106.86 26.01Q106.52 30.31 106.55 34.69L106.60 34.73L106.62 34.76Q106.53 39.01 107.07 43.39L107.15 43.47L107.24 43.56Q107.20 43.75 107.20 44.02L107.28 44.10L107.21 44.02Q107.18 45.63 105.50 46.01L105.48 45.99L105.50 46.01Q102.37 46.38 98.52 47.03ZM105.38 22.90L103.12 19.65L103.21 19.73Q104.25 18.34 106.08 15.56L106.12 15.60L106.11 15.59Q106.71 16.42 108.04 18.25L108.12 18.33L105.39 22.90ZM108.43 49.54L108.43 49.55L108.38 49.50Q108.80 49.43 109.56 49.08L109.59 49.11L109.64 49.16Q109.97 48.47 109.97 48.01L110.09 48.13L109.96 47.99Q109.86 47.55 109.74 46.94L109.85 47.05L109.88 47.08Q108.60 40.74 108.60 32.82L108.42 32.64L108.51 32.73Q108.57 29.93 108.72 27.04L108.69 27.01L108.57 26.88Q108.08 27.12 106.94 27.42L107.07 27.56L107.06 27.54Q106.98 26.97 107.01 26.43L107.01 26.43L107.16 25.40L107.15 25.39Q105.52 26.12 103.73 26.16L103.73 26.16L103.72 26.15Q103.51 30.31 103.54 33.89L103.68 34.02L103.84 41.91L103.81 41.89Q103.89 43.87 101.72 43.98L101.66 43.93L101.67 43.93Q101.39 43.87 100.87 43.93L100.82 43.88L100.96 44.03Q100.47 44.10 100.20 44.10L100.16 44.06L100.08 43.97Q99.69 44.04 98.12 43.62L98.16 43.66L98.15 43.65Q97.63 44.19 96.52 45.87L96.55 45.89L94.98 48.16L94.94 48.13Q95.78 47.90 97.41 47.52L97.58 47.68L96.96 48.24L96.49 48.95L96.49 48.96Q98.88 48.91 100.22 48.99L100.22 48.99L100.16 48.93Q102.35 48.99 108.29 49.41ZM105.23 23.50L105.27 23.55L105.68 23.08L105.75 23.16Q106.05 23.53 107.01 25.13L107.08 25.20L106.92 25.05Q108.48 21.96 110.04 18.87L110.03 18.86L110.16 18.99Q109.05 17.28 108.10 15.98L108.21 16.10L108.18 16.07Q107.93 16.24 107.59 16.77L107.70 16.88L107.56 16.74Q107.28 16.23 106.29 14.93L106.29 14.93L106.27 14.91Q104.99 16.42 102.67 19.77L102.69 19.79L102.64 19.74Q103.59 20.99 105.30 23.58Z"/></svg>