<svg xmlns="http://www.w3.org/2000/svg" width="150" height="50" viewBox="0,0,150,50"><path fill="#111" d="M59.56 40.41L59.51 40.37L59.49 40.34Q56.47 36.41 53.85 27.77L53.91 27.84L54.03 27.95Q53.27 25.71 52.47 23.57L52.42 23.53L49.64 32.39L49.69 32.44Q47.70 37.19 45.30 40.43L45.43 40.56L45.40 40.52Q44.63 40.67 42.99 40.82L42.95 40.78L42.86 40.69Q43.08 39.62 43.08 38.36L42.97 38.25L43.08 38.36Q42.93 32.19 40.18 26.06L40.21 26.09L40.35 26.23Q37.10 19.21 31.24 14.22L31.37 14.35L31.34 14.32Q33.46 15.00 35.82 15.53L35.80 15.51L35.69 15.40Q44.48 23.97 45.78 34.93L45.84 34.99L45.81 34.96Q47.42 31.62 48.86 26.25L48.75 26.14L48.85 26.24Q50.75 18.66 51.24 17.25L51.34 17.34L53.65 17.41L53.63 17.39Q54.35 19.44 55.00 21.77L54.87 21.63L56.10 26.07L56.09 26.06Q57.73 31.57 59.14 34.81L59.20 34.87L59.01 34.69Q60.84 23.23 68.76 15.88L68.74 15.86L68.63 15.76Q70.20 15.46 73.17 14.81L73.19 14.83L73.13 14.77Q67.96 19.23 64.91 25.36L64.90 25.35L64.80 25.25Q61.64 31.42 61.64 38.19L61.80 38.35L61.83 38.38Q61.70 39.36 61.78 40.50L61.85 40.56L60.69 40.44L60.77 40.52Q60.05 40.33 59.48 40.33ZM65.81 43.32L65.76 43.26L65.83 43.33Q64.56 39.74 64.68 35.86L64.61 35.79L64.65 35.83Q65.05 24.36 74.42 16.10L74.28 15.96L74.31 15.99Q73.33 16.19 71.39 16.72L71.42 16.75L71.42 16.75Q72.33 15.87 74.23 14.08L74.22 14.07L74.36 14.21Q71.73 15.01 68.80 15.51L68.64 15.34L68.69 15.39Q61.15 22.47 59.25 31.95L59.35 32.05L59.30 32.01Q58.82 30.46 55.96 19.00L55.89 18.93L55.91 18.95Q55.42 18.95 54.47 18.95L54.42 18.90L54.12 17.84L54.18 17.90Q54.16 17.46 53.93 16.97L53.95 16.99L50.96 16.89L51.03 16.96Q50.22 19.42 48.95 24.54L48.89 24.49L48.95 24.55Q47.55 29.54 46.56 32.02L46.62 32.08L46.58 32.04Q45.11 24.24 39.55 17.93L39.38 17.76L39.46 17.83Q38.93 17.72 37.98 17.53L38.06 17.62L38.05 17.61Q37.36 16.80 35.79 15.16L35.71 15.08L35.75 15.12Q32.43 14.39 30.26 13.59L30.23 13.56L30.21 13.54Q35.76 18.10 39.03 24.30L39.15 24.41L39.12 24.39Q42.66 31.09 42.66 38.09L42.50 37.93L42.69 38.12Q42.49 39.48 42.30 41.08L42.43 41.21L42.49 41.27Q42.54 41.10 43.00 41.00L43.18 41.18L43.12 41.12Q43.47 40.92 43.70 40.92L43.73 40.95L43.84 42.09L43.73 41.98Q43.77 42.48 43.85 43.01L43.75 42.92L43.91 43.08Q44.90 42.85 47.19 42.70L47.37 42.87L47.31 42.82Q50.88 37.36 53.62 27.96L53.71 28.05L53.54 27.88Q56.44 36.80 59.41 40.76L59.46 40.81L59.45 40.79Q59.85 40.73 60.68 40.85L60.74 40.90L60.75 40.91Q61.61 41.97 62.68 43.04L62.68 43.03L62.61 42.97Q63.42 43.05 65.82 43.32Z"/><path fill="#333" d="M68.62 30.95L68.49 30.83L68.66 30.99Q68.44 29.67 66.50 28.95L66.45 28.90L66.47 28.92Q66.09 28.85 65.56 28.85L65.57 28.85L65.57 28.85Q64.08 28.74 63.01 29.31L63.13 29.42L63.09 29.38Q61.62 30.01 61.74 31.23L61.86 31.35L61.85 31.34Q62.18 34.15 62.03 36.39L61.96 36.32L61.92 36.29Q61.88 38.84 61.16 41.35L61.20 41.39L61.20 41.39Q59.06 41.87 57.88 42.29L57.82 42.23L57.87 42.29Q59.46 38.66 59.46 34.66L59.41 34.61L59.49 34.69Q59.32 29.08 56.73 24.62L56.83 24.73L56.77 24.66Q57.93 25.10 60.33 25.83L60.51 26.00L60.50 26.00Q60.81 26.72 61.19 28.25L61.09 28.14L61.08 28.13Q62.43 26.06 66.31 26.13L66.25 26.07L66.33 26.15Q67.72 26.09 68.52 26.20L68.65 26.34L68.64 26.33Q71.56 26.66 71.64 28.68L71.72 28.76L71.75 28.79Q71.73 29.65 71.54 30.68L71.46 30.60L71.54 30.67Q70.95 33.05 71.14 36.06L71.31 36.23L71.18 36.10Q71.32 38.95 72.31 41.50L72.31 41.50L72.32 41.51Q70.64 41.12 68.93 40.97L68.94 40.98L68.97 41.01Q68.46 38.60 68.39 35.94L68.47 36.02L68.50 36.05Q68.36 33.25 68.59 30.93ZM68.48 41.25L68.66 41.42L68.52 41.28Q69.42 41.38 70.71 41.61L70.57 41.46L71.03 42.61L71.12 42.70Q71.25 43.13 71.47 43.67L71.40 43.60L71.53 43.73Q73.66 43.99 76.37 45.17L76.52 45.32L76.45 45.25Q74.09 42.13 73.41 38.33L73.38 38.30L73.49 38.42Q73.06 36.19 73.17 32.50L73.14 32.47L73.20 32.53Q73.15 32.17 73.18 31.37L73.16 31.35L73.19 31.37Q73.34 30.83 73.26 30.34L73.14 30.22L73.16 30.24Q73.07 28.59 71.97 28.10L71.93 28.06L71.94 28.07Q71.77 27.21 71.01 26.61L71.13 26.72L71.01 26.60Q69.30 25.58 66.26 25.66L66.40 25.80L66.30 25.70Q64.44 25.74 63.60 25.93L63.70 26.03L63.56 25.90Q62.16 26.28 61.20 27.19L61.23 27.22L61.13 27.11Q61.08 26.65 60.70 25.62L60.80 25.72L60.70 25.62Q57.90 24.95 56.07 23.96L56.04 23.93L56.11 24.00Q59.20 28.92 59.20 34.66L59.09 34.56L59.04 34.50Q59.08 38.92 57.17 42.77L57.32 42.91L57.26 42.85Q57.94 42.54 59.23 42.16L59.20 42.13L59.15 42.08Q58.65 43.33 58.12 44.32L58.17 44.37L58.23 44.43Q59.61 43.94 63.15 43.37L63.19 43.42L63.21 43.44Q64.11 38.21 64.00 33.38L63.92 33.30L63.98 33.36Q63.88 32.46 65.06 31.74L65.20 31.87L65.20 31.87Q66.16 31.16 67.26 31.04L67.36 31.14L67.24 31.02Q67.63 30.92 68.05 31.11L68.20 31.25L68.06 31.11Q67.91 33.67 67.95 36.22L68.13 36.41L67.97 36.24Q68.11 38.86 68.61 41.37Z"/><path fill="#333" d="M46.25 23.22L46.37 23.34L46.40 23.36Q44.52 19.13 38.32 19.32L38.34 19.34L38.41 19.41Q33.98 19.51 32.00 20.96L32.00 20.95L32.03 20.99Q29.67 22.77 29.67 26.89L29.62 26.84L29.53 28.61L29.59 28.67Q29.54 37.46 38.56 37.46L38.71 37.60L38.62 37.52Q40.67 37.51 42.16 36.71L42.26 36.81L42.12 36.67Q44.05 35.75 43.90 33.88L43.75 33.73L43.93 33.91Q43.65 31.73 39.95 30.81L39.97 30.83L38.07 30.87L38.09 30.89Q37.03 30.78 36.08 30.82L36.19 30.94L36.14 30.89Q36.15 29.94 36.11 28.04L36.05 27.98L36.04 27.97Q43.79 28.07 47.98 27.73L47.87 27.61L47.83 27.57Q47.83 28.45 47.83 29.25L47.83 29.25L47.81 29.23Q47.87 30.09 47.91 30.89L47.95 30.93L47.88 30.86Q46.87 30.95 46.87 30.95L46.77 30.86L46.80 30.89Q45.50 30.96 45.88 30.96L45.70 30.78L45.85 30.93Q46.88 32.49 47.27 34.47L47.19 34.40L47.19 34.40Q47.29 35.11 47.29 35.57L47.39 35.66L47.46 35.73Q47.32 40.24 38.53 40.24L38.55 40.26L38.57 40.28Q31.39 40.22 28.81 38.13L28.95 38.28L28.87 38.19Q26.85 35.80 26.85 30.73L26.95 30.83L26.95 30.83Q26.83 29.65 26.68 26.94L26.66 26.93L26.74 27.01Q26.60 24.65 26.64 23.28L26.73 23.38L26.63 23.28Q26.68 20.35 28.05 18.75L28.14 18.85L28.18 18.89Q30.69 16.79 35.57 16.60L35.57 16.61L38.18 16.48L38.18 16.48Q41.37 16.47 44.80 16.89L44.65 16.75L44.71 16.81Q48.50 17.31 49.45 20.55L49.37 20.47L49.48 20.59Q48.33 21.37 46.24 23.20ZM47.78 25.55L47.93 25.58L47.81 25.46Q49.00 24.37 50.87 22.39L50.91 22.43L50.88 22.40Q50.63 21.51 49.64 19.79L49.57 19.72L49.59 19.74Q48.32 16.99 44.52 16.34L44.61 16.44L44.69 16.51Q42.54 16.39 38.24 16.08L38.30 16.14L35.45 16.11L35.42 16.08Q30.28 16.30 27.69 18.28L27.73 18.32L27.64 18.24Q26.38 19.98 26.26 23.06L26.29 23.09L26.17 22.97Q26.40 22.74 26.62 28.22L26.54 28.14L26.44 28.03Q26.62 29.54 26.69 32.29L26.60 32.19L26.56 32.16Q26.88 36.74 28.64 38.68L28.56 38.61L28.58 38.63Q29.00 39.50 29.87 40.38L29.78 40.28L29.71 40.22Q32.76 42.24 38.28 42.58L38.24 42.54L41.15 42.75L41.02 42.62Q42.62 42.74 44.64 42.62L44.67 42.65L44.74 42.72Q46.17 42.63 48.27 42.10L48.28 42.11L48.34 42.17Q50.29 41.69 50.26 39.37L50.08 39.19L50.09 39.20Q50.20 38.06 49.14 35.28L49.03 35.17L49.13 35.27Q48.84 34.37 48.30 33.57L48.34 33.61L48.20 33.46Q48.97 33.66 50.15 33.85L49.97 33.67L50.12 33.83Q49.76 30.15 49.80 29.47L49.75 29.42L49.83 29.50Q49.49 29.54 49.07 29.50L48.93 29.36L49.06 29.49Q48.62 29.39 48.24 29.46L48.22 29.45L48.18 29.41Q48.20 28.33 48.28 27.26L48.36 27.34L48.28 27.26Q41.98 27.74 35.70 27.62L35.66 27.59L35.69 27.61Q35.81 28.62 35.81 29.53L35.80 29.52L35.75 31.21L35.73 31.20Q36.20 31.28 36.61 31.24L36.70 31.33L36.52 31.15Q37.02 31.23 37.47 31.23L37.48 31.23L37.52 31.28Q37.41 31.62 37.45 32.11L37.54 32.21L37.46 32.12Q37.43 32.55 37.39 33.05L37.52 33.17L37.52 33.18Q38.60 33.20 39.63 33.16L39.57 33.10L39.53 33.05Q40.60 33.10 41.63 33.14L41.52 33.03L41.70 33.20Q42.69 33.39 43.56 33.78L43.56 33.77L43.56 33.81L43.46 33.71Q43.77 35.39 42.09 36.30L42.10 36.31L42.10 36.31Q40.33 37.13 38.62 37.13L38.69 37.21L38.69 37.20Q34.86 37.21 32.42 35.46L32.26 35.30L32.42 35.47Q31.41 33.39 31.56 30.84L31.52 30.79L31.46 30.73Q31.93 26.10 33.78 24.10L33.73 24.06L33.80 24.13Q35.49 21.97 40.17 21.66L40.24 21.74L40.21 21.71Q43.94 21.55 45.88 23.34L45.79 23.25L45.88 23.34Q45.84 23.33 45.95 23.52L45.97 23.55L46.05 23.51L46.23 23.69Q46.72 24.29 47.29 25.40L47.30 25.40L47.68 25.45Z"/><path fill="#444" d="M21.97 26.87L21.95 26.86L21.94 26.85Q23.79 27.05 25.61 27.05L25.52 26.96L25.51 26.95Q27.28 26.93 29.11 26.78L29.21 26.89L29.18 26.85Q29.11 27.55 29.11 28.27L28.97 28.13L28.96 29.45L28.97 29.46Q26.58 29.43 21.83 29.55L21.94 29.66L21.92 29.64Q21.91 35.57 20.77 40.56L20.70 40.49L20.72 40.51Q18.55 41.23 17.07 42.03L17.16 42.13L17.18 42.15Q19.50 35.33 19.23 28.21L19.15 28.13L19.12 28.10Q18.79 20.87 16.12 14.21L16.25 14.34L16.15 14.24Q19.97 16.92 24.73 17.15L24.70 17.12L24.68 17.09Q29.33 17.26 33.48 15.51L33.41 15.43L33.45 15.48Q33.27 16.40 33.04 17.20L32.94 17.10L32.54 18.79L32.45 18.70Q29.84 19.90 26.87 20.05L26.71 19.89L26.81 19.99Q23.95 20.22 21.10 19.49L20.91 19.31L21.06 19.45Q21.76 22.86 21.95 26.86ZM34.06 14.76L34.11 14.80L34.17 14.87Q29.41 16.84 24.53 16.53L24.53 16.53L24.61 16.61Q19.23 16.26 15.50 13.40L15.50 13.40L15.60 13.50Q18.54 20.51 18.84 28.13L18.81 28.09L18.77 28.05Q19.15 36.04 16.63 42.82L16.61 42.79L16.68 42.87Q17.20 42.32 18.57 41.67L18.56 41.66L18.69 41.79Q18.50 42.56 17.93 44.08L17.89 44.04L17.90 44.04Q20.21 42.97 23.10 42.47L23.01 42.38L23.04 42.41Q23.76 37.65 23.95 31.94L23.88 31.87L23.77 31.76Q25.69 31.85 27.52 31.85L27.42 31.76L27.44 31.77Q29.27 31.81 31.09 32.00L31.07 31.98L31.05 31.96Q30.91 30.98 30.91 30.07L30.99 30.15L30.97 28.23L31.02 28.27Q30.19 28.32 29.36 28.32L29.34 28.31L29.35 28.31Q29.46 27.56 29.54 26.53L29.48 26.47L29.43 26.42Q28.03 26.57 26.62 26.57L26.62 26.57L26.61 26.57Q25.26 26.63 23.89 26.59L23.91 26.61L23.78 24.35L23.76 24.33Q23.78 23.28 23.67 22.22L23.77 22.32L23.58 22.13Q24.59 22.22 25.58 22.22L25.60 22.25L25.66 22.30Q30.31 22.20 33.93 20.30L34.03 20.39L34.06 20.42Q34.43 18.47 35.34 15.84L35.40 15.90L35.53 16.03Q34.05 16.69 33.25 17.03L33.29 17.07L33.40 17.17Q33.59 16.34 34.09 14.78Z"/><path fill="#444" d="M131.69 29.24L131.62 29.18L131.55 29.11Q129.75 29.17 128.53 30.50L128.64 30.61L128.51 30.48Q127.32 31.84 127.17 33.75L127.20 33.78L127.21 33.79Q127.03 35.93 128.25 36.94L128.25 36.94L128.18 36.87Q129.45 37.93 131.58 37.86L131.53 37.81L131.53 37.80Q133.96 37.75 134.91 36.80L134.89 36.78L134.92 36.81Q135.84 35.26 135.72 33.43L135.72 33.42L135.77 33.48Q135.69 31.64 134.60 30.44L134.63 30.47L134.46 30.30Q133.39 29.12 131.56 29.12ZM131.60 19.75L131.65 19.80L131.61 19.76Q130.24 19.69 128.91 20.18L128.83 20.10L128.82 20.10Q127.55 20.91 127.78 22.78L127.82 22.82L127.76 22.77Q128.33 26.57 131.68 26.57L131.55 26.44L131.60 26.49Q133.19 26.71 134.18 25.57L134.22 25.60L134.20 25.59Q135.15 24.40 135.19 22.84L135.30 22.96L135.28 22.94Q135.36 21.19 134.64 20.58L134.66 20.60L134.57 20.52Q132.98 19.76 131.68 19.83ZM131.35 40.33L131.43 40.40L128.34 40.36L128.35 40.37Q126.80 40.34 125.47 39.47L125.38 39.38L125.48 39.48Q124.05 38.28 124.20 35.42L124.17 35.39L124.22 35.44Q124.58 28.49 128.20 27.50L128.20 27.51L128.32 27.62Q126.07 26.74 124.74 21.38L124.69 21.33L124.67 21.31Q124.42 19.99 124.50 19.20L124.45 19.15L124.44 19.14Q124.68 16.95 128.38 16.91L128.49 17.02L128.30 16.84Q132.57 16.80 134.02 16.99L134.10 17.07L134.01 16.99Q137.84 17.50 138.29 19.52L138.46 19.68L138.46 19.68Q138.47 20.19 138.47 20.57L138.57 20.67L138.46 20.55Q138.43 21.21 138.24 21.82L138.20 21.78L138.39 21.97Q137.67 26.09 134.74 27.61L134.78 27.66L134.71 27.58Q138.16 28.33 138.65 33.62L138.78 33.75L138.78 33.75Q138.78 33.90 138.82 35.19L138.75 35.12L138.80 35.17Q138.96 38.00 137.36 39.06L137.23 38.94L137.18 38.88Q135.92 39.87 131.35 40.33ZM133.61 42.62L133.59 42.60L136.90 42.64L136.87 42.61Q138.70 42.80 140.22 42.07L140.20 42.06L140.22 42.08Q141.36 41.35 141.44 39.49L141.32 39.37L141.40 39.45Q141.43 38.34 141.05 36.39L141.07 36.42L141.02 36.37Q140.18 31.80 138.09 29.93L138.04 29.89L137.81 29.46L137.73 29.30L137.54 29.01L137.63 29.09Q139.21 27.67 140.13 23.52L140.12 23.51L140.13 23.52Q140.05 23.06 140.12 22.22L140.11 22.20L140.09 22.19Q140.20 21.54 140.12 20.93L140.18 20.98L140.17 20.97Q140.05 19.56 138.87 19.06L138.89 19.08L138.87 19.02L138.64 18.88L138.64 18.87Q138.48 18.25 137.30 17.45L137.27 17.42L137.25 17.37L137.28 17.40Q135.33 16.75 131.26 16.56L131.25 16.55L131.25 16.55Q129.72 16.46 128.35 16.57L128.37 16.60L128.31 16.53Q127.53 16.59 126.23 16.74L126.27 16.78L126.10 16.61Q124.30 17.13 124.07 18.77L124.01 18.71L124.06 18.76Q123.97 19.21 124.01 20.00L124.02 20.01L124.04 20.04Q124.13 20.54 124.70 22.90L124.65 22.85L124.65 22.85Q125.52 26.16 127.27 27.49L127.30 27.52L127.29 27.51L127.28 27.50Q124.46 28.75 123.92 33.93L123.98 33.98L123.94 33.95Q123.76 36.16 123.76 37.08L123.91 37.23L123.77 37.08Q123.93 38.96 125.11 39.87L125.12 39.89L125.03 39.79Q125.11 39.83 125.38 40.03L125.52 40.17L125.40 40.05Q126.53 42.44 133.65 42.66ZM133.33 31.61L133.22 31.50L133.28 31.55Q134.10 31.39 134.98 31.85L135.03 31.90L135.15 32.02Q135.52 32.99 135.48 33.53L135.40 33.45L135.46 33.51Q135.40 33.72 135.40 34.02L135.47 34.09L135.36 33.98Q135.49 36.47 133.21 37.31L133.17 37.28L133.14 37.24Q132.36 37.57 131.56 37.45L131.64 37.54L131.58 37.48Q130.48 37.59 129.34 37.13L129.39 37.18L129.40 37.19Q129.07 36.48 129.15 35.49L129.04 35.39L129.02 35.37Q129.30 33.90 130.50 32.68L130.38 32.56L130.49 32.67Q131.60 31.36 133.20 31.48ZM133.47 22.04L133.54 22.11L133.50 22.07Q134.32 21.98 134.85 22.13L134.88 22.15L134.83 22.91L134.93 23.00Q134.87 24.35 133.95 25.36L133.91 25.32L133.97 25.38Q132.99 26.31 131.62 26.12L131.61 26.12L131.61 26.12Q130.55 26.05 130.13 25.82L130.13 25.82L130.28 25.97Q130.19 25.65 130.08 24.97L130.12 25.01L129.98 24.87Q129.88 23.62 131.09 22.79L131.10 22.79L130.95 22.64Q132.00 21.94 133.41 21.98Z"/><path fill="#333" d="M104.88 41.16L104.88 41.16L103.21 41.21L103.20 41.19Q99.78 41.17 98.83 39.04L98.72 38.93L98.89 39.09Q100.02 38.02 101.47 36.92L101.50 36.94L101.41 36.85Q101.95 39.00 104.81 38.84L104.78 38.82L104.89 38.93Q105.73 38.93 106.76 38.70L106.64 38.59L106.74 38.68Q107.51 38.01 107.43 37.05L107.45 37.07L107.48 37.10Q107.47 36.07 105.68 35.38L105.59 35.29L101.88 33.87L101.80 33.79Q99.48 32.45 99.14 28.91L99.21 28.99L99.26 29.03Q99.01 26.85 101.18 26.27L101.09 26.18L101.07 26.17Q102.19 26.10 105.16 26.10L105.03 25.97L105.04 25.98Q109.93 26.00 110.85 28.51L110.81 28.48L110.95 28.62Q110.19 29.04 109.47 29.50L109.60 29.63L108.15 30.54L108.11 30.50Q107.57 28.55 104.34 28.32L104.27 28.26L104.46 28.45Q103.88 28.48 102.85 28.89L102.69 28.74L102.80 28.84Q102.20 29.16 102.20 30.26L102.12 30.18L102.21 30.27Q102.44 31.22 104.26 31.91L104.32 31.96L104.28 31.92Q105.37 32.33 108.03 33.43L108.02 33.42L108.02 33.42Q109.94 34.35 110.13 36.90L110.19 36.96L110.14 36.91Q110.28 37.62 110.20 38.61L110.04 38.44L110.09 38.50Q110.04 39.36 109.47 40.01L109.60 40.13L109.41 39.94Q107.82 41.06 104.77 41.06ZM109.60 43.72L109.60 43.71L109.54 43.66Q110.47 43.71 111.84 43.41L111.99 43.56L111.82 43.38Q113.05 42.86 112.86 41.65L112.83 41.62L112.72 41.50Q112.74 41.03 112.44 39.43L112.48 39.48L112.44 39.43Q111.88 36.48 110.09 35.26L110.02 35.19L110.11 35.27Q109.56 33.86 108.31 33.13L108.36 33.19L108.35 33.17Q107.09 32.75 104.62 31.80L104.56 31.74L104.48 31.66Q104.66 31.23 104.92 31.12L104.92 31.12L104.91 31.10Q105.49 30.62 106.14 30.58L106.26 30.70L106.28 30.73Q107.07 30.68 107.83 30.95L107.84 30.95L107.81 31.00L107.93 31.00L108.16 31.04L108.23 31.15L108.06 30.98Q109.14 31.45 109.33 32.71L109.50 32.87L109.34 32.72Q110.60 31.89 112.51 30.21L112.67 30.38L112.56 30.27Q112.37 29.62 111.38 28.44L111.40 28.46L111.24 28.30Q110.21 25.71 105.11 25.59L105.06 25.54L105.07 25.56Q101.87 25.48 99.89 26.05L99.95 26.11L99.86 26.01Q98.60 26.74 98.83 28.83L98.85 28.86L98.76 28.76Q98.84 29.99 99.75 32.08L99.72 32.05L99.72 32.04Q100.34 33.23 101.36 33.96L101.37 33.97L101.33 33.93Q102.11 35.51 103.41 36.19L103.39 36.17L103.41 36.20Q104.22 36.32 105.17 36.70L105.21 36.73L107.15 37.54L107.20 37.58Q106.79 38.62 104.85 38.51L104.77 38.43L104.90 38.56Q104.38 38.53 103.16 38.22L103.15 38.21L103.13 38.05L103.09 38.23L102.99 38.13Q102.25 37.89 101.60 36.40L101.52 36.32L101.50 36.30Q99.49 37.98 98.38 39.12L98.21 38.95L98.24 38.98Q98.63 39.97 99.65 40.77L99.57 40.68L99.44 40.87L99.40 40.82Q100.91 43.02 105.14 43.40L105.14 43.40L105.07 43.33Q106.33 43.46 109.57 43.68Z"/><path fill="#222" d="M10.37 40.32L10.27 40.22L10.35 40.31Q6.83 40.36 5.19 39.83L5.27 39.91L5.20 39.83Q3.14 39.11 2.83 35.72L2.95 35.83L4.35 34.72L4.27 34.64Q5.11 34.23 5.87 33.73L5.78 33.63L5.79 33.65Q5.55 35.57 7.14 36.79L7.06 36.71L7.18 36.83Q8.40 37.78 10.54 37.59L10.49 37.55L10.51 37.57Q14.96 37.22 14.77 33.68L14.67 33.58L14.69 33.60Q14.59 31.41 11.97 30.19L11.93 30.16L12.06 30.28Q9.16 29.18 6.80 27.96L6.74 27.90L6.77 27.93Q4.17 26.55 3.18 21.86L3.23 21.91L3.15 21.84Q3.09 21.43 2.98 20.67L2.92 20.61L3.03 20.73Q2.99 20.00 3.07 19.43L3.02 19.38L3.04 19.40Q3.11 17.72 4.37 17.26L4.50 17.39L4.50 17.39Q6.80 16.42 10.80 16.61L10.76 16.57L10.82 16.63Q12.60 16.71 13.40 16.78L13.51 16.89L13.45 16.82Q14.96 17.04 16.02 17.50L16.08 17.55L16.08 17.55Q18.00 17.84 18.22 20.31L18.27 20.36L18.27 20.35Q17.22 21.05 15.01 22.39L15.06 22.43L14.98 22.36Q14.57 19.35 10.19 19.35L10.19 19.35L10.27 19.43Q8.34 19.40 7.35 20.09L7.40 20.14L7.48 20.22Q6.24 20.66 6.47 22.45L6.38 22.36L6.34 22.32Q6.73 24.65 9.70 26.17L9.61 26.09L9.61 26.09Q10.13 26.30 14.62 27.94L14.63 27.95L14.67 27.99Q17.27 29.44 17.69 33.82L17.73 33.87L17.80 33.93Q17.64 33.92 17.72 35.18L17.86 35.32L17.72 35.18Q17.83 38.00 16.27 39.10L16.43 39.26L16.24 39.07Q14.42 40.07 10.23 40.19ZM12.61 42.64L12.66 42.69L12.56 42.59Q14.12 42.78 16.10 42.78L16.11 42.79L15.92 42.60Q18.18 42.76 19.44 42.35L19.46 42.37L19.40 42.31Q20.61 41.47 20.54 39.68L20.55 39.69L20.54 39.68Q20.56 38.75 20.18 36.69L20.11 36.62L20.13 36.64Q19.18 31.93 17.09 30.06L17.08 30.05L17.17 30.15Q16.26 28.43 14.92 27.71L14.90 27.69L9.66 25.68L9.75 25.77Q9.43 25.60 8.97 25.37L8.97 25.37L8.83 24.96L8.72 24.52L8.73 24.52Q8.59 23.13 9.73 22.52L9.67 22.46L9.66 22.45Q10.50 21.96 12.22 21.76L12.23 21.78L12.29 21.84Q13.32 21.61 14.47 22.07L14.59 22.20L14.49 22.09Q14.53 22.18 14.72 23.01L14.85 23.14L14.69 22.98Q14.87 22.82 15.37 22.59L15.48 22.70L15.50 22.72Q16.23 23.65 16.35 24.79L16.20 24.64L16.21 24.66Q16.35 24.67 20.00 22.09L19.97 22.06L20.06 22.14Q19.81 19.54 18.36 18.85L18.23 18.72L18.26 18.74Q17.70 17.50 16.25 16.97L16.21 16.93L16.36 17.07Q14.00 16.20 10.80 16.20L10.85 16.24L10.72 16.12Q5.83 16.14 3.96 16.82L3.96 16.82L4.01 16.87Q2.64 17.29 2.53 18.96L2.52 18.96L2.53 18.97Q2.49 19.50 2.91 21.71L2.97 21.76L2.94 21.74Q3.64 25.52 5.81 27.77L5.80 27.76L5.91 27.86Q6.59 29.46 8.09 30.14L8.05 30.10L8.03 30.08Q9.65 30.88 13.57 32.44L13.58 32.45L13.45 32.36L14.21 32.82L14.24 32.88L14.25 32.89Q14.45 33.36 14.49 33.70L14.36 33.57L14.46 33.67Q14.56 37.16 10.64 37.32L10.65 37.33L10.59 37.26Q9.40 37.26 8.11 36.88L8.09 36.86L8.17 36.94Q7.78 36.05 7.78 35.33L7.71 35.26L7.89 35.44Q7.84 35.13 7.88 34.87L7.77 34.75L7.82 34.81Q7.44 35.06 6.64 35.56L6.61 35.54L6.64 35.57Q6.03 34.35 6.19 32.98L6.28 33.07L6.28 33.08Q4.12 34.19 2.52 35.60L2.59 35.67L2.53 35.60Q2.61 36.44 2.68 37.47L2.76 37.55L2.78 37.57Q3.08 39.27 4.37 40.03L4.43 40.09L4.36 40.03Q5.53 41.81 8.09 42.19L8.11 42.21L8.17 42.27Q9.69 42.46 12.62 42.65Z"/><path d="M19 20 C77 22,87 14,135 28" stroke="#222" fill="none"/><path fill="#333" d="M93.24 29.92L93.13 29.81L93.26 29.94Q90.64 29.72 89.31 30.94L89.27 30.90L89.38 31.01Q87.93 32.11 88.23 34.62L88.35 34.74L88.34 34.73Q88.58 37.17 89.79 38.43L89.80 38.44L89.90 38.54Q90.86 39.77 93.00 39.69L93.06 39.75L93.06 39.75Q93.62 39.74 93.81 39.74L93.87 39.80L93.76 39.69Q97.42 39.20 97.53 34.59L97.44 34.50L97.48 34.54Q97.56 32.19 96.88 31.39L96.88 31.39L96.91 31.42Q95.73 30.01 93.18 29.86ZM96.56 41.66L96.55 41.65L96.62 41.72Q95.18 42.18 93.62 42.10L93.57 42.05L93.67 42.15Q89.82 42.34 88.53 39.75L88.54 39.76L88.62 39.84Q88.44 45.18 87.11 49.45L87.00 49.34L87.04 49.38Q85.30 49.92 83.66 50.65L83.62 50.60L83.69 50.67Q86.06 44.52 85.80 37.55L85.86 37.62L85.95 37.71Q85.57 30.74 82.67 24.68L82.76 24.77L82.69 24.70Q84.76 26.01 86.47 26.46L86.37 26.36L86.89 27.84L86.83 27.78Q87.04 28.21 87.31 29.32L87.20 29.21L87.35 29.36Q88.29 27.22 91.87 27.02L91.90 27.06L91.81 26.97Q92.80 27.04 93.67 27.04L93.68 27.05L94.11 26.98L94.23 27.10Q94.28 27.04 94.47 27.08L94.53 27.13L94.77 27.08L94.68 26.98Q96.92 27.44 97.65 27.67L97.49 27.51L97.51 27.53Q99.00 27.99 99.88 28.95L99.84 28.90L99.99 29.06Q100.80 30.21 100.76 31.62L100.72 31.58L100.73 31.59Q100.76 34.47 99.96 37.13L100.01 37.18L99.99 37.17Q98.81 40.52 96.45 41.54ZM100.81 42.25L100.81 42.21L100.86 42.26Q101.93 40.25 102.23 36.13L102.22 36.13L102.29 36.19Q102.37 34.37 102.37 33.11L102.35 33.09L102.37 33.11Q102.49 31.71 101.73 30.31L101.67 30.24L101.64 30.21Q101.15 29.68 100.65 29.30L100.64 29.28L100.49 29.02L100.35 28.77L100.27 28.58L100.36 28.66Q98.58 26.58 94.24 26.58L94.29 26.63L93.62 26.57L93.65 26.60Q89.07 26.67 87.44 28.27L87.35 28.18L87.36 28.19Q87.19 27.67 87.03 27.18L87.02 27.16L86.85 26.19L86.73 26.07Q84.37 25.58 82.16 24.10L82.06 23.99L82.02 23.96Q85.24 30.22 85.55 37.46L85.55 37.46L85.58 37.49Q85.89 44.76 83.03 51.23L83.10 51.30L85.14 50.49L85.14 50.49Q84.85 51.19 84.17 52.75L84.12 52.71L84.03 52.62Q86.82 51.64 89.14 51.29L89.21 51.36L89.12 51.27Q90.24 46.45 90.40 42.72L90.39 42.72L90.47 42.80Q91.71 44.12 95.33 44.35L95.42 44.44L95.50 44.51Q99.29 44.61 100.74 42.18L100.75 42.19ZM95.05 32.08L95.12 32.14L95.18 32.21Q95.86 32.16 96.96 32.50L96.98 32.52L96.86 32.40Q97.22 33.48 97.18 34.66L97.15 34.63L97.13 34.61Q97.06 35.45 96.87 36.10L96.86 36.09L96.91 36.14Q96.11 38.96 93.60 39.26L93.61 39.28L93.73 39.28L93.72 39.27Q93.67 39.29 93.55 39.33L93.63 39.41L93.07 39.38L93.05 39.37Q91.84 39.33 90.85 38.84L90.83 38.82L90.48 36.76L90.43 36.71Q90.47 34.58 91.77 33.55L91.74 33.53L91.70 33.48Q92.67 32.36 95.07 32.09Z"/><path fill="#333" d="M78.75 30.45L78.69 30.38L78.79 30.49Q75.19 36.70 71.76 40.66L71.79 40.70L71.87 40.77Q69.93 41.12 67.49 41.99L67.57 42.07L67.46 41.96Q72.35 36.34 77.11 27.93L77.09 27.91L77.18 28.00Q72.58 21.04 66.60 14.64L66.62 14.66L66.64 14.68Q69.49 15.81 71.77 16.31L71.79 16.33L71.81 16.35Q76.39 21.50 78.83 25.46L78.88 25.51L78.81 25.45Q81.45 21.15 85.37 16.74L85.30 16.67L85.33 16.70Q87.00 16.47 90.20 15.71L90.21 15.72L90.12 15.62Q84.13 22.16 80.66 28.10L80.52 27.95L80.50 27.94Q85.78 36.71 90.15 41.28L90.14 41.27L90.05 41.17Q87.61 40.52 85.51 40.29L85.41 40.19L85.41 40.19Q82.66 37.25 78.74 30.43ZM85.46 40.66L85.28 40.48L85.43 40.63Q85.69 40.62 86.14 40.73L86.16 40.75L86.21 40.80Q87.02 41.57 88.55 43.17L88.37 43.00L88.40 43.03Q91.75 43.83 94.80 45.20L94.85 45.25L94.90 45.30Q87.78 38.71 82.68 29.96L82.55 29.83L82.56 29.84Q86.43 23.31 92.33 16.46L92.29 16.42L92.20 16.33Q90.91 17.13 88.74 17.67L88.68 17.61L88.67 17.60Q89.46 16.60 91.21 14.81L91.27 14.88L91.37 14.97Q88.96 15.84 85.27 16.41L85.27 16.41L85.26 16.40Q81.77 20.15 79.18 24.45L79.07 24.33L79.08 24.34Q78.29 22.87 77.11 21.38L77.08 21.36L74.82 18.45L74.35 18.36L74.37 18.38Q74.22 18.38 73.99 18.30L74.07 18.38L74.11 18.42Q73.38 17.54 71.90 15.98L71.88 15.97L71.85 15.93Q68.11 15.12 65.52 13.75L65.45 13.68L65.46 13.69Q72.22 20.98 76.78 28.02L76.81 28.05L76.85 28.09Q72.32 36.23 66.57 42.82L66.62 42.87L66.59 42.84Q67.84 42.11 69.97 41.54L69.97 41.54L68.67 42.98L68.73 43.04Q68.66 42.97 67.33 44.31L67.32 44.29L67.37 44.35Q70.46 43.36 73.62 42.86L73.48 42.72L73.56 42.80Q77.53 38.25 80.12 33.49L80.20 33.58L80.17 33.54Q82.65 37.69 85.35 40.55Z"/><path fill="#222" d="M113.48 19.23L113.38 19.13L113.47 19.22Q114.47 23.58 114.62 26.77L114.79 26.94L114.77 26.92Q115.12 26.82 119.50 26.93L119.61 27.04L119.60 27.03Q122.04 26.96 122.42 23.49L122.44 23.51L122.47 23.55Q122.73 21.86 121.82 20.95L121.71 20.85L121.73 20.86Q120.41 19.92 118.43 19.77L118.47 19.81L118.50 19.84Q115.23 19.58 113.37 19.12ZM114.92 28.90L114.81 28.79L114.85 28.83Q114.99 34.79 113.20 40.73L113.14 40.67L113.25 40.79Q111.92 41.01 109.33 42.04L109.45 42.16L109.43 42.14Q112.11 35.49 111.77 28.03L111.87 28.13L111.84 28.10Q111.58 20.80 108.27 14.29L108.22 14.24L108.26 14.28Q113.21 17.17 120.17 17.17L120.13 17.13L120.11 17.11Q125.74 17.11 126.01 20.65L126.06 20.70L125.89 20.53Q125.98 21.16 125.91 21.77L125.88 21.74L125.91 22.99L125.85 22.92Q125.12 26.96 122.99 28.67L122.96 28.64L122.94 28.62Q122.04 29.21 121.01 29.21L121.13 29.32L118.45 29.23L118.51 29.30Q124.16 36.58 128.69 41.15L128.71 41.17L128.56 41.02Q126.38 40.28 123.45 39.94L123.49 39.98L123.48 39.97Q119.81 36.11 114.90 28.88ZM123.30 40.29L123.46 40.45L123.66 40.34L124.94 41.62L124.91 41.59Q125.62 42.27 126.27 42.88L126.19 42.79L126.20 42.81Q129.77 43.45 133.35 45.31L133.31 45.27L133.24 45.20Q126.39 38.54 120.99 31.61L120.96 31.59L122.68 31.56L122.74 31.61Q125.81 31.61 127.15 27.08L127.09 27.02L127.10 27.04Q127.80 24.84 127.80 22.14L127.83 22.17L127.74 22.08Q127.82 19.87 126.11 19.23L126.14 19.26L126.08 19.19Q125.90 18.75 125.33 18.07L125.42 18.15L125.50 18.24Q123.71 16.67 120.06 16.60L120.13 16.67L120.13 16.67Q112.22 16.49 107.53 13.48L107.61 13.56L107.59 13.53Q111.23 20.26 111.57 27.95L111.67 28.05L111.58 27.96Q112.01 36.01 108.89 42.86L108.82 42.79L108.91 42.87Q110.07 42.21 110.87 41.90L110.89 41.93L109.94 44.24L109.80 44.11Q112.61 43.15 115.27 42.65L115.32 42.70L115.27 42.65Q116.57 37.55 116.76 32.34L116.64 32.22L116.68 32.26Q120.14 37.16 123.29 40.28ZM122.07 22.38L122.18 22.50L122.20 22.51Q122.18 22.72 122.18 23.06L122.18 23.07L122.18 23.63L122.09 23.55Q122.14 24.69 121.45 25.65L121.48 25.68L121.52 25.72Q120.80 26.36 119.88 26.55L119.90 26.57L120.03 26.70Q119.71 26.64 118.11 26.68L118.21 26.78L118.07 26.64Q117.54 26.72 116.70 26.61L116.71 26.62L116.64 26.54Q116.57 25.07 116.23 22.02L116.25 22.04L116.30 22.09Q117.72 22.30 118.41 22.30L118.42 22.31L118.41 22.30Q120.26 22.33 122.20 22.52Z"/></svg>