<svg xmlns="http://www.w3.org/2000/svg" width="150" height="50" viewBox="0,0,150,50"><path fill="#333" d="M100.20 23.35L100.18 23.33L100.04 23.19Q98.36 19.15 92.15 19.34L92.25 19.43L92.16 19.34Q87.85 19.56 85.87 21.01L85.74 20.88L85.90 21.04Q83.37 22.65 83.37 26.77L83.38 26.78L83.33 28.60L83.50 28.76Q83.36 37.46 92.39 37.46L92.46 37.54L92.46 37.54Q94.53 37.55 96.01 36.75L95.97 36.70L95.91 36.65Q97.85 35.73 97.70 33.87L97.62 33.78L97.76 33.93Q97.38 31.64 93.69 30.73L93.80 30.84L91.79 30.78L91.93 30.91Q90.89 30.83 89.94 30.87L89.98 30.91L90.02 30.95Q89.94 29.92 89.91 28.01L89.92 28.03L89.88 27.98Q97.45 27.91 101.64 27.57L101.65 27.58L101.68 27.61Q101.63 28.43 101.63 29.23L101.80 29.40L101.63 29.23Q101.62 30.02 101.66 30.82L101.71 30.87L101.81 30.97Q100.58 30.85 100.58 30.85L100.70 30.96L100.66 30.93Q99.13 30.77 99.51 30.77L99.56 30.82L99.70 30.95Q100.64 32.43 101.03 34.41L101.16 34.55L101.14 34.53Q101.17 35.17 101.17 35.63L101.18 35.63L101.11 35.57Q101.15 40.25 92.35 40.25L92.41 40.30L92.42 40.31Q85.36 40.37 82.77 38.28L82.69 38.20L82.75 38.26Q80.75 35.87 80.75 30.81L80.82 30.88L80.69 30.76Q80.69 29.68 80.54 26.98L80.65 27.09L80.53 26.97Q80.45 24.69 80.49 23.32L80.37 23.20L80.39 23.22Q80.47 20.33 81.85 18.74L81.89 18.78L81.86 18.75Q84.45 16.73 89.32 16.54L89.35 16.57L91.94 16.42L91.99 16.47Q95.19 16.47 98.61 16.89L98.48 16.75L98.55 16.83Q102.27 17.27 103.22 20.51L103.26 20.54L103.33 20.61Q102.26 21.48 100.16 23.31ZM101.43 25.37L101.61 25.45L101.76 25.59Q102.83 24.37 104.69 22.39L104.70 22.40L104.63 22.34Q104.50 21.56 103.51 19.85L103.47 19.80L103.32 19.66Q102.27 17.11 98.46 16.47L98.45 16.46L98.34 16.35Q96.29 16.32 91.99 16.01L91.97 16.00L89.37 16.21L89.33 16.17Q84.07 16.28 81.48 18.26L81.55 18.32L81.50 18.27Q80.19 19.98 80.08 23.06L80.07 23.06L80.06 23.05Q80.06 22.58 80.29 28.06L80.38 28.16L80.34 28.11Q80.32 29.43 80.40 32.17L80.41 32.19L80.45 32.22Q80.67 36.71 82.42 38.65L82.36 38.59L82.28 38.51Q82.76 39.44 83.63 40.32L83.55 40.23L83.66 40.35Q86.52 42.18 92.04 42.52L92.05 42.53L94.91 42.69L94.88 42.66Q96.50 42.79 98.51 42.67L98.50 42.66L98.55 42.71Q99.98 42.62 102.08 42.09L102.02 42.03L102.12 42.13Q104.02 41.60 103.99 39.28L104.07 39.36L103.94 39.23Q103.94 37.98 102.87 35.20L102.88 35.20L102.87 35.19Q102.52 34.23 101.98 33.43L102.07 33.52L102.07 33.51Q102.68 33.55 103.86 33.74L103.85 33.73L103.78 33.66Q103.62 30.20 103.66 29.51L103.61 29.46L103.63 29.48Q103.23 29.46 102.81 29.43L102.71 29.32L102.71 29.32Q102.39 29.34 102.01 29.42L101.98 29.39L102.03 29.45Q101.95 28.26 102.02 27.19L102.15 27.32L102.13 27.29Q95.76 27.70 89.48 27.58L89.63 27.74L89.61 27.72Q89.56 28.54 89.56 29.46L89.58 29.48L89.54 31.19L89.56 31.21Q90.02 31.29 90.44 31.25L90.39 31.20L90.38 31.20Q90.82 31.22 91.28 31.22L91.18 31.12L91.28 31.22Q91.36 31.75 91.39 32.24L91.28 32.13L91.25 32.10Q91.26 32.56 91.22 33.06L91.31 33.15L91.25 33.08Q92.29 33.06 93.32 33.02L93.44 33.14L93.28 32.99Q94.48 33.16 95.51 33.20L95.33 33.02L95.42 33.11Q96.54 33.43 97.41 33.81L97.38 33.78L97.31 33.74L97.41 33.84Q97.43 35.24 95.76 36.15L95.92 36.31L95.84 36.23Q94.07 37.05 92.36 37.05L92.35 37.05L92.42 37.11Q88.66 37.20 86.22 35.45L86.18 35.40L86.10 35.33Q85.21 33.37 85.36 30.81L85.28 30.74L85.34 30.80Q85.64 25.99 87.48 23.99L87.47 23.98L87.52 24.03Q89.42 22.08 94.10 21.78L94.09 21.77L94.09 21.77Q97.61 21.41 99.55 23.19L99.61 23.25L99.63 23.27Q99.70 23.38 99.82 23.57L99.83 23.58L99.88 23.52L99.95 23.59Q100.62 24.38 101.20 25.48L101.11 25.40L101.52 25.47Z"/><path fill="#222" d="M80.82 39.92L80.68 39.78L80.67 39.77Q78.78 39.79 76.77 39.98L76.88 40.10L76.71 39.92Q77.44 34.75 77.44 29.91L77.37 29.85L77.41 29.89Q77.51 25.07 76.86 19.86L76.90 19.90L76.84 19.84Q72.30 19.48 69.10 17.81L68.94 17.65L68.31 15.99L68.27 15.95Q68.17 15.54 67.56 14.32L67.54 14.30L67.46 14.23Q72.65 17.02 78.67 17.21L78.53 17.07L78.49 17.03Q84.36 17.20 89.81 15.14L89.79 15.12L89.96 15.29Q89.21 16.67 88.56 18.50L88.47 18.41L88.57 18.51Q85.01 19.86 80.74 20.05L80.73 20.03L80.68 19.98Q80.50 25.02 80.50 29.97L80.43 29.90L80.54 30.01Q80.54 34.96 80.84 39.94ZM90.58 14.55L90.61 14.57L90.64 14.60Q84.65 16.72 78.44 16.53L78.56 16.64L78.57 16.66Q71.83 16.39 66.73 13.42L66.83 13.52L66.86 13.55Q67.46 14.68 68.75 17.96L68.81 18.02L68.81 18.01Q69.43 18.29 70.69 18.86L70.79 18.97L70.83 19.00Q71.09 19.72 71.43 21.24L71.25 21.06L71.42 21.23Q73.69 22.06 76.74 22.29L76.68 22.23L76.58 22.12Q76.99 25.85 76.99 29.62L77.11 29.74L77.05 29.67Q76.96 34.95 76.16 40.32L76.16 40.32L76.34 40.51Q77.87 40.24 78.40 40.24L78.50 40.35L78.53 40.37Q78.37 40.52 78.31 41.18L78.37 41.24L78.46 41.33Q78.35 41.94 78.35 42.28L78.42 42.36L78.30 42.23Q79.43 42.11 80.96 42.19L80.97 42.20L81.07 42.30Q81.92 42.27 83.74 42.43L83.81 42.49L83.78 42.47Q82.56 37.55 82.45 32.38L82.41 32.34L82.53 32.46Q82.27 27.02 82.80 22.11L82.78 22.08L82.75 22.05Q86.85 21.66 90.01 20.44L90.00 20.43L90.03 20.47Q90.68 18.03 91.71 15.98L91.68 15.95L91.66 15.93Q90.32 16.61 89.52 16.91L89.51 16.90L89.58 16.97Q89.90 15.57 90.47 14.43Z"/><path fill="#333" d="M4.87 49.72L4.81 49.67L4.76 49.62Q7.69 45.77 10.58 39.56L10.55 39.53L10.60 39.58Q7.42 32.98 1.33 24.91L1.39 24.97L1.31 24.89Q3.31 26.13 6.09 26.77L6.02 26.70L5.98 26.66Q9.53 31.36 11.97 36.57L11.96 36.56L11.91 36.51Q14.27 31.41 17.35 26.99L17.19 26.83L17.20 26.84Q19.39 26.48 21.48 25.68L21.62 25.82L21.55 25.75Q18.13 29.57 14.67 36.99L14.68 37.00L11.86 43.01L11.84 42.99Q10.32 46.04 8.57 48.67L8.74 48.84L8.58 48.68Q6.29 49.16 4.84 49.69ZM10.95 50.97L10.90 50.92L11.00 51.02Q12.69 48.11 14.14 44.83L14.06 44.76L16.93 38.57L16.81 38.44Q20.25 30.35 23.56 26.35L23.61 26.40L23.67 26.46Q22.25 27.06 20.35 27.74L20.43 27.82L21.49 26.45L21.37 26.33Q22.07 25.78 22.68 25.09L22.66 25.07L22.54 24.94Q19.89 26.03 17.04 26.49L17.14 26.59L17.08 26.53Q14.25 30.36 12.31 34.82L12.29 34.80L12.31 34.82Q10.84 31.68 9.05 28.86L8.97 28.78L8.86 28.67Q8.79 28.79 8.43 28.75L8.46 28.78L8.32 28.64Q8.11 28.75 7.92 28.75L7.89 28.72L7.79 28.62Q7.02 27.36 6.07 26.22L6.24 26.39L6.22 26.37Q3.02 25.68 0.28 23.97L0.20 23.89L0.30 23.99Q6.47 31.91 10.17 39.53L10.22 39.58L10.18 39.54Q7.98 44.57 3.91 50.21L3.84 50.14L4.03 50.33Q4.69 49.88 5.48 49.73L5.63 49.87L7.13 49.40L7.21 49.48Q6.52 50.12 5.34 51.76L5.40 51.81L5.44 51.86Q7.74 51.27 11.02 51.04Z"/><path d="M5 21 C58 24,64 2,148 40" stroke="#999" fill="none"/><path fill="#222" d="M104.90 41.19L104.82 41.10L103.22 41.22L103.06 41.05Q99.67 41.06 98.72 38.92L98.80 39.01L98.78 38.98Q99.93 37.93 101.38 36.83L101.48 36.93L101.48 36.93Q102.04 39.09 104.90 38.94L104.92 38.96L104.95 38.99Q105.67 38.87 106.70 38.64L106.67 38.61L106.78 38.72Q107.62 38.12 107.55 37.17L107.51 37.13L107.45 37.08Q107.48 36.07 105.69 35.38L105.72 35.42L101.93 33.91L101.89 33.87Q99.55 32.53 99.21 28.99L99.10 28.87L99.27 29.04Q98.99 26.82 101.16 26.25L101.23 26.32L101.19 26.28Q102.15 26.07 105.12 26.07L105.00 25.94L105.17 26.11Q109.93 26.00 110.84 28.51L110.80 28.47L110.78 28.45Q110.32 29.17 109.60 29.62L109.44 29.47L108.17 30.55L108.07 30.46Q107.53 28.51 104.30 28.28L104.33 28.32L104.32 28.31Q103.80 28.40 102.78 28.82L102.80 28.85L102.82 28.86Q102.18 29.13 102.18 30.24L102.28 30.34L102.19 30.25Q102.55 31.33 104.37 32.01L104.39 32.03L104.30 31.94Q105.33 32.29 108.00 33.40L108.06 33.46L108.09 33.48Q109.99 34.39 110.18 36.94L110.08 36.85L110.20 36.97Q110.16 37.50 110.08 38.49L110.04 38.44L110.08 38.48Q110.04 39.36 109.47 40.01L109.45 39.99L109.43 39.97Q107.94 41.17 104.89 41.17ZM109.61 43.72L109.61 43.73L109.67 43.79Q110.63 43.87 112.00 43.56L111.89 43.45L111.89 43.45Q113.06 42.87 112.87 41.65L112.78 41.56L112.87 41.65Q112.69 40.98 112.38 39.38L112.39 39.39L112.46 39.46Q111.92 36.52 110.13 35.30L110.10 35.27L110.15 35.32Q109.60 33.90 108.35 33.17L108.23 33.05L108.32 33.15Q106.97 32.63 104.49 31.68L104.58 31.76L104.59 31.78Q104.72 31.29 104.98 31.18L104.87 31.07L104.91 31.11Q105.65 30.78 106.30 30.75L106.14 30.59L106.18 30.63Q107.09 30.69 107.85 30.96L107.87 30.98L107.92 31.11L107.84 30.92L108.12 31.00L108.08 31.00L108.17 31.09Q109.20 31.52 109.40 32.77L109.49 32.87L109.50 32.88Q110.76 32.04 112.66 30.37L112.67 30.38L112.52 30.22Q112.35 29.59 111.36 28.41L111.29 28.35L111.28 28.34Q110.20 25.70 105.10 25.58L105.03 25.52L105.12 25.61Q101.92 25.52 99.94 26.09L99.95 26.11L100.02 26.18Q98.59 26.72 98.82 28.82L98.85 28.85L98.67 28.68Q98.88 30.02 99.79 32.12L99.75 32.07L99.85 32.18Q100.28 33.18 101.31 33.90L101.37 33.96L101.36 33.95Q102.08 35.47 103.38 36.16L103.27 36.05L103.39 36.17Q104.34 36.44 105.30 36.82L105.17 36.70L107.17 37.55L107.20 37.58Q106.82 38.65 104.88 38.53L104.86 38.52L104.82 38.48Q104.41 38.57 103.20 38.26L103.23 38.29L103.23 38.14L103.01 38.16L103.07 38.21Q102.25 37.89 101.60 36.40L101.60 36.40L101.64 36.44Q99.37 37.86 98.26 39.00L98.24 38.97L98.41 39.15Q98.52 39.86 99.54 40.66L99.53 40.64L99.54 40.97L99.37 40.80Q100.84 42.95 105.07 43.33L105.08 43.34L105.19 43.45Q106.38 43.50 109.62 43.73Z"/><path fill="#333" d="M52.07 18.44L52.01 18.38L52.00 18.36Q51.43 18.90 51.28 19.70L51.14 19.56L51.30 24.86L51.13 24.69Q52.42 24.84 54.63 24.58L54.54 24.48L54.47 24.42Q54.48 24.89 54.45 25.72L54.40 25.68L54.43 25.71Q54.54 26.62 54.54 27.08L54.41 26.94L52.97 27.18L52.89 27.10Q52.10 27.19 51.23 27.19L51.27 27.23L51.23 27.19Q51.26 31.40 51.18 39.78L51.04 39.64L51.23 39.82Q48.96 39.84 47.47 40.52L47.47 40.52L47.46 40.51Q48.41 34.23 48.30 27.00L48.44 27.14L48.37 27.07Q47.74 27.05 46.45 26.79L46.48 26.82L46.48 26.82Q46.35 25.70 46.16 23.76L46.36 23.95L46.35 23.95Q47.46 24.44 48.41 24.63L48.37 24.60L48.24 24.46Q48.20 23.82 47.90 21.35L48.04 21.49L47.95 21.40Q47.79 19.41 47.79 18.46L47.79 18.46L47.83 18.49Q47.83 16.82 49.24 16.25L49.10 16.12L49.18 16.20Q49.89 15.73 54.73 14.89L54.83 14.99L54.82 14.98Q55.58 14.79 56.42 14.67L56.54 14.80L56.54 14.80Q56.18 15.43 56.03 16.31L56.03 16.30L55.70 17.84L55.85 17.99Q55.05 17.68 54.55 17.80L54.69 17.93L54.66 17.91Q54.08 17.93 52.18 18.54ZM57.56 19.62L57.60 19.67L57.43 19.50Q57.80 17.31 58.41 14.76L58.49 14.84L58.44 14.80Q57.79 15.10 56.50 15.71L56.49 15.70L56.98 14.09L57.04 14.15Q55.66 14.19 53.19 14.72L53.22 14.75L53.28 14.81Q52.11 14.90 48.91 15.81L48.94 15.84L48.84 15.74Q47.41 16.29 47.41 18.15L47.25 17.99L47.41 18.16Q47.37 18.42 47.45 18.76L47.40 18.71L47.34 18.65Q47.72 20.14 47.84 21.47L47.70 21.34L47.85 23.97L47.88 23.99Q46.60 23.70 45.95 23.24L45.88 23.17L45.95 23.24Q46.03 24.15 46.06 25.18L46.01 25.13L46.19 27.18L46.11 27.09Q46.85 27.30 47.65 27.38L47.79 27.52L47.68 29.50L48.01 29.45L48.05 29.49Q47.96 35.65 46.97 41.09L47.00 41.11L47.03 41.15Q47.89 40.53 49.07 40.26L49.09 40.28L49.00 42.43L48.94 42.37Q50.17 42.08 51.46 42.04L51.53 42.11L51.58 42.16Q52.66 41.98 53.92 42.25L54.07 42.40L54.03 42.36Q53.19 37.38 53.19 29.42L53.24 29.46L53.18 29.41Q54.22 29.35 56.32 29.42L56.43 29.54L56.39 27.63L56.26 27.50Q56.45 26.74 56.49 25.78L56.49 25.78L56.30 25.59Q55.88 25.75 54.82 26.02L54.82 26.03L54.77 25.97Q54.74 25.25 54.85 23.92L54.97 24.04L54.88 23.95Q54.18 24.31 53.38 24.39L53.37 24.38L53.37 24.38Q53.23 22.83 53.34 21.42L53.49 21.57L53.52 21.60Q53.62 20.90 54.15 20.56L54.16 20.56L54.04 20.44Q55.16 19.92 55.97 19.85L55.82 19.69L55.93 19.80Q56.63 19.60 57.46 19.53Z"/><path fill="#222" d="M35.41 26.87L35.30 26.75L35.31 26.76Q37.14 26.95 38.96 26.95L39.05 27.03L39.04 27.02Q40.82 27.02 42.65 26.86L42.62 26.83L42.55 26.77Q42.52 27.50 42.52 28.22L42.43 28.13L42.55 29.58L42.55 29.58Q40.20 29.59 35.44 29.71L35.31 29.57L35.33 29.59Q35.47 35.67 34.32 40.66L34.24 40.57L34.20 40.54Q31.96 41.19 30.48 41.99L30.63 42.14L30.56 42.07Q32.81 35.18 32.54 28.06L32.53 28.06L32.65 28.18Q32.27 20.91 29.61 14.24L29.67 14.31L29.66 14.29Q33.34 16.83 38.10 17.06L38.07 17.03L38.10 17.07Q42.79 17.26 46.94 15.51L46.90 15.48L47.00 15.57Q46.70 16.37 46.47 17.17L46.37 17.07L45.94 18.74L45.92 18.71Q43.25 19.85 40.28 20.01L40.25 19.98L40.18 19.90Q37.38 20.19 34.52 19.46L34.54 19.48L34.38 19.32Q35.28 22.92 35.47 26.92ZM47.52 14.76L47.52 14.76L47.57 14.81Q42.90 16.88 38.03 16.57L38.05 16.60L38.08 16.63Q32.75 16.32 29.02 13.46L29.03 13.48L29.04 13.49Q31.88 20.40 32.18 28.01L32.22 28.05L32.12 27.95Q32.66 36.10 30.15 42.88L30.09 42.82L30.10 42.83Q30.73 42.40 32.10 41.75L32.06 41.71L32.10 41.74Q31.95 42.55 31.38 44.07L31.22 43.92L31.39 44.08Q33.60 42.90 36.49 42.41L36.55 42.47L36.55 42.46Q37.17 37.61 37.36 31.90L37.40 31.94L37.32 31.85Q39.03 31.73 40.85 31.73L40.88 31.76L41.02 31.90Q42.73 31.82 44.56 32.02L44.50 31.95L44.53 31.98Q44.34 30.96 44.34 30.04L44.43 30.13L44.50 28.30L44.39 28.19Q43.68 28.36 42.84 28.36L42.79 28.30L42.92 28.43Q42.89 27.52 42.96 26.49L42.89 26.42L43.01 26.55Q41.61 26.70 40.20 26.70L40.07 26.57L40.19 26.69Q38.74 26.65 37.37 26.61L37.33 26.58L37.35 24.46L37.26 24.38Q37.20 23.25 37.09 22.18L37.22 22.31L37.12 22.22Q38.02 22.20 39.01 22.20L39.19 22.38L39.15 22.34Q43.95 22.38 47.56 20.47L47.57 20.48L47.47 20.38Q47.99 18.57 48.90 15.95L48.84 15.89L48.92 15.97Q47.69 16.87 46.89 17.21L46.78 17.10L46.79 17.11Q47.01 16.31 47.51 14.75Z"/><path fill="#222" d="M114.86 40.31L114.93 40.39L114.86 40.32Q113.38 40.32 111.82 39.90L111.95 40.04L111.92 40.00Q110.75 39.14 110.60 37.50L110.54 37.44L110.54 37.44Q110.59 37.34 110.78 34.71L110.66 34.60L110.74 34.67Q111.72 34.43 113.74 34.05L113.65 33.97L113.59 34.86L113.49 34.76Q113.27 36.56 114.68 37.13L114.72 37.17L114.77 37.21Q115.55 37.54 117.64 37.54L117.66 37.56L117.55 37.45Q119.23 37.37 119.42 37.30L119.32 37.20L119.36 37.24Q120.27 37.08 120.99 36.59L121.08 36.68L120.92 36.52Q122.36 35.60 122.17 33.50L122.30 33.64L122.27 33.60Q121.98 31.07 120.25 29.51L120.29 29.55L120.29 29.54Q118.53 27.96 116.06 27.96L116.12 28.02L116.03 27.71L116.03 27.70Q116.58 27.84 117.46 27.76L117.38 27.69L117.44 27.75Q119.23 27.52 120.60 26.28L120.64 26.32L120.57 26.25Q122.03 25.10 122.18 23.24L122.25 23.31L122.17 23.23Q122.33 22.97 122.33 22.62L122.21 22.50L122.22 22.52Q122.14 20.91 120.77 19.99L120.81 20.03L120.89 20.12Q119.58 19.23 117.98 19.34L118.06 19.42L118.06 19.42Q116.70 19.20 115.48 19.62L115.48 19.62L115.49 19.63Q113.99 20.11 113.69 21.25L113.83 21.39L113.79 21.35Q113.53 22.04 113.61 22.81L113.66 22.86L113.66 22.87Q112.56 22.56 110.51 21.84L110.66 21.99L110.58 21.91Q110.41 20.30 110.45 19.46L110.43 19.44L110.41 19.42Q110.49 17.87 111.56 17.18L111.49 17.12L111.64 17.26Q112.99 16.59 114.59 16.59L114.52 16.53L114.56 16.56Q117.81 16.61 120.97 16.88L120.88 16.79L120.82 16.73Q126.01 17.28 125.70 21.05L125.65 21.00L125.58 20.92Q125.61 22.52 125.12 24.08L125.09 24.05L125.08 24.04Q124.12 27.08 121.76 27.99L121.84 28.07L121.88 28.12Q124.51 28.65 125.12 32.00L125.10 31.98L125.00 31.87Q125.35 33.14 125.43 35.16L125.35 35.08L125.37 35.11Q125.52 39.55 120.91 40.01L120.90 40.00L120.95 40.05Q120.14 40.04 114.85 40.31ZM120.03 42.51L120.07 42.55L120.18 42.67Q120.71 42.62 123.56 42.70L123.66 42.80L123.60 42.73Q125.39 42.85 127.03 42.21L126.95 42.13L127.03 42.21Q128.23 41.28 128.04 39.53L127.97 39.45L127.96 39.44Q127.75 38.01 127.44 36.26L127.47 36.29L127.61 36.43Q126.83 31.88 124.89 30.24L124.94 30.30L124.64 29.80L124.60 29.72L124.60 29.73Q126.31 28.24 127.07 23.86L127.10 23.89L127.19 23.98Q127.18 23.47 127.29 22.52L127.32 22.55L127.30 22.53Q127.29 21.68 127.21 20.99L127.21 20.99L127.24 21.02Q127.16 19.42 125.87 18.74L125.78 18.65L125.72 18.66L125.80 18.74Q125.48 17.74 124.34 17.21L124.27 17.14L124.36 17.22Q122.84 16.54 117.70 16.24L117.69 16.23L117.59 16.13Q115.91 16.05 114.31 16.05L114.42 16.16L114.30 16.04Q112.78 16.12 111.26 16.77L111.36 16.87L111.32 16.82Q110.10 17.59 110.10 19.34L110.13 19.37L110.10 19.34Q109.95 18.77 110.22 22.12L110.35 22.25L110.38 22.28Q110.56 22.24 112.20 22.85L112.27 22.92L112.25 22.89Q112.34 23.52 112.31 24.02L112.23 23.95L112.21 23.92Q112.14 24.35 112.18 24.88L112.22 24.93L112.20 24.90Q114.08 25.37 116.09 25.48L116.08 25.47L116.00 25.39Q115.94 23.39 117.04 22.55L117.14 22.64L117.10 22.61Q117.98 22.00 120.00 21.78L120.00 21.78L120.05 21.83Q121.16 21.80 121.73 21.99L121.75 22.00L121.71 21.97Q121.65 21.99 121.69 22.10L121.76 22.16L121.83 22.42L121.86 22.91L121.85 22.91Q121.80 23.04 121.76 23.19L121.74 23.17L121.83 23.27Q121.78 25.01 120.26 26.19L120.28 26.21L120.23 26.16Q119.33 27.09 117.32 27.28L117.30 27.26L117.29 27.26Q116.51 27.35 115.63 27.35L115.73 27.45L115.60 27.32Q115.78 27.79 115.93 28.48L115.78 28.33L115.92 28.47Q117.53 28.33 118.98 29.05L119.07 29.15L119.05 29.24L117.39 29.33L117.38 29.32Q117.37 29.62 117.49 30.23L117.53 30.27L117.57 30.31Q119.65 30.18 121.36 31.51L121.46 31.62L121.41 31.57Q121.62 31.93 121.93 33.56L121.85 33.48L122.01 33.64Q122.05 36.42 119.11 36.84L119.20 36.93L119.22 36.95Q117.11 37.20 116.54 37.16L116.61 37.23L116.47 37.09Q116.03 36.99 115.49 36.91L115.56 36.98L115.46 36.43L115.62 36.01L115.64 35.61L115.69 35.33L115.66 35.29Q114.86 35.52 114.06 35.71L113.90 35.55L113.92 35.57Q113.96 35.42 113.96 35.23L113.94 35.21L113.93 35.20Q113.97 35.01 113.97 34.78L113.94 34.75L113.88 34.69Q113.96 34.32 114.11 33.59L114.07 33.55L114.08 33.56Q112.28 33.85 110.41 34.19L110.33 34.12L110.49 34.27Q110.51 34.78 110.39 35.91L110.30 35.82L110.22 35.73Q110.22 36.97 110.22 37.58L110.22 37.58L110.25 37.61Q110.32 39.66 111.69 40.42L111.58 40.31L111.74 40.47Q113.12 42.65 117.84 42.46L117.84 42.46L117.86 42.48Q118.59 42.44 120.11 42.60Z"/><path fill="#333" d="M27.75 27.10L27.78 27.12L27.79 27.13Q28.54 27.09 29.95 26.94L30.00 26.99L30.02 27.01Q29.99 27.66 29.99 28.31L29.98 28.30L30.02 29.60L29.95 29.52Q29.13 29.54 28.29 29.62L28.36 29.68L28.27 29.59Q27.54 29.74 26.70 29.70L26.71 29.71L26.74 29.74Q23.84 35.86 20.41 40.47L20.33 40.39L20.41 40.47Q17.89 41.11 16.60 41.72L16.46 41.58L16.60 41.72Q20.72 36.02 23.77 29.74L23.61 29.59L21.08 29.67L21.02 29.62Q21.02 28.28 20.90 26.95L20.98 27.03L20.99 27.03Q22.80 27.10 24.86 27.10L24.93 27.17L26.84 23.49L26.85 23.49Q27.80 21.55 29.02 19.95L29.01 19.94L29.12 20.06Q27.43 20.07 25.83 20.07L25.96 20.20L25.80 20.04Q19.85 20.19 16.09 17.98L15.93 17.83L15.43 16.27L15.46 16.29Q15.09 15.43 14.71 14.56L14.57 14.42L14.56 14.40Q19.06 17.19 24.77 17.42L24.62 17.27L24.76 17.41Q29.86 17.60 35.00 15.62L35.03 15.65L34.98 15.59Q34.83 16.06 34.34 16.93L34.31 16.91L34.31 16.90Q30.65 21.63 27.80 27.15ZM35.95 18.32L35.98 18.34L36.96 16.32L36.90 16.26Q35.87 16.68 34.19 17.40L34.28 17.49L34.50 17.21L34.39 17.11Q34.49 16.93 34.60 16.82L34.67 16.89L34.61 16.83Q35.00 16.15 35.72 14.82L35.82 14.92L35.78 14.87Q30.53 17.24 24.78 17.01L24.63 16.86L24.77 17.00Q18.76 16.74 14.00 13.77L13.85 13.61L13.95 13.71Q15.04 15.64 15.87 18.31L15.78 18.21L15.83 18.26Q16.85 18.83 17.65 19.13L17.68 19.16L17.63 19.11Q17.80 19.47 18.26 21.34L18.30 21.38L18.38 21.46Q21.39 22.57 26.91 22.41L26.95 22.45L27.08 22.58Q26.65 23.03 24.67 26.79L24.64 26.77L24.79 26.91Q22.70 26.88 20.72 26.69L20.65 26.62L20.61 26.58Q20.76 27.50 20.76 28.37L20.74 28.35L20.67 29.99L22.43 30.07L22.37 31.43L22.42 31.47Q18.43 38.79 15.65 42.37L15.76 42.48L15.63 42.35Q17.38 41.73 19.01 41.24L19.00 41.23L18.90 41.13Q18.22 42.05 16.85 43.76L16.89 43.80L16.81 43.72Q20.04 42.69 22.48 42.46L22.42 42.40L22.39 42.38Q25.44 38.73 28.57 31.95L28.50 31.88L31.90 32.04L31.98 32.13Q31.86 31.17 31.86 30.25L31.95 30.35L31.84 28.45L31.99 28.59Q31.56 28.44 31.01 28.47L31.01 28.48L31.01 28.47Q30.62 28.67 30.35 28.67L30.28 28.60L30.30 28.62Q30.18 28.39 30.22 28.23L30.35 28.37L30.21 27.96L30.20 27.95Q32.90 22.99 35.98 18.35Z"/><path fill="#222" d="M133.22 40.20L133.30 40.27L133.28 40.26Q131.27 40.03 129.59 40.61L129.61 40.62L129.68 40.70Q130.29 37.15 130.41 34.03L130.35 33.98L130.34 33.96Q130.41 30.88 130.18 27.22L130.17 27.21L130.25 27.29Q128.78 26.85 128.02 26.47L127.94 26.39L127.64 23.46L127.67 23.49Q128.45 24.16 130.05 24.73L130.11 24.79L130.06 24.74Q129.71 22.49 129.29 19.75L129.44 19.89L129.40 19.85Q131.59 20.45 133.23 20.30L133.30 20.37L133.12 24.90L133.24 25.03Q134.56 24.87 135.90 24.37L135.86 24.33L136.01 24.48Q135.94 25.36 135.71 27.12L135.56 26.97L135.74 27.15Q134.09 27.36 133.06 27.36L133.17 27.47L133.07 27.37Q133.06 29.53 133.06 33.80L133.10 33.83L133.13 33.86Q133.11 37.99 133.18 40.16ZM136.26 23.75L136.37 23.85L136.24 23.72Q136.06 23.93 135.45 24.16L135.43 24.13L135.84 21.38L135.83 21.37Q135.01 21.65 133.60 21.88L133.61 21.90L133.65 21.93Q133.70 21.30 133.85 19.93L133.87 19.95L133.85 19.93Q133.16 19.92 132.59 19.92L132.51 19.84L132.67 20.00Q130.45 19.91 128.81 19.19L128.78 19.16L128.79 19.17Q129.34 21.70 129.61 24.17L129.69 24.25L129.61 24.17Q128.71 23.81 127.19 22.78L127.19 22.78L127.23 22.83Q127.58 24.12 127.81 26.83L127.83 26.85L127.78 26.80Q128.24 27.03 129.42 27.45L129.48 27.51L129.39 27.42Q129.37 28.01 129.41 29.42L129.39 29.40L129.89 29.55L129.95 29.54L129.91 29.50Q130.03 30.81 130.03 31.99L130.01 31.96L129.97 31.92Q130.11 37.01 129.31 41.35L129.21 41.25L129.25 41.29Q129.43 41.16 131.37 40.63L131.28 40.54L131.34 40.60Q131.34 41.25 131.23 42.62L131.20 42.60L131.29 42.69Q132.10 42.61 132.90 42.61L132.86 42.57L132.94 42.66Q134.56 42.56 136.19 43.13L136.30 43.24L136.17 43.11Q134.82 37.38 135.01 29.46L135.10 29.55L137.50 29.17L137.43 29.10Q137.59 28.27 137.67 27.25L137.65 27.23L137.79 25.16L137.89 25.26Q137.30 25.51 136.12 25.97L136.08 25.92L136.04 25.88Q136.43 24.63 136.35 24.29L136.28 24.22L136.34 24.28Q136.28 24.04 136.36 23.85Z"/><path fill="#222" d="M64.91 23.34L64.90 23.33L64.90 23.34Q61.70 23.33 59.88 22.27L59.96 22.35L59.98 22.37Q62.43 20.94 67.31 16.72L67.39 16.80L67.25 16.65Q68.05 16.54 69.34 15.93L69.42 16.01L69.38 15.97Q68.02 21.88 67.90 28.24L67.83 28.17L67.98 28.31Q67.81 34.62 68.87 40.71L68.92 40.76L68.90 40.74Q67.20 39.99 65.07 39.87L65.05 39.85L65.02 39.82Q64.97 35.74 64.97 31.67L64.90 31.60L64.96 31.66Q64.92 27.50 64.96 23.39ZM64.53 25.59L64.52 40.16L64.62 40.26Q65.80 40.22 66.75 40.41L66.79 40.45L66.85 40.51Q66.88 41.15 67.07 42.52L66.94 42.39L66.96 42.41Q69.85 42.97 72.28 45.22L72.26 45.20L72.39 45.32Q69.89 38.19 69.86 30.72L69.74 30.61L69.90 30.76Q69.82 23.30 71.65 16.07L71.52 15.94L71.49 15.91Q71.11 16.48 69.51 17.59L69.48 17.56L69.49 17.56Q69.60 16.72 69.90 15.20L69.88 15.18L69.92 15.22Q68.61 16.01 67.17 16.39L67.10 16.31L67.19 16.41Q63.31 19.88 59.01 22.16L59.12 22.27L59.02 22.18Q60.41 23.26 62.77 23.60L62.79 23.62L62.85 23.68Q62.19 24.20 60.89 25.26L60.97 25.34L60.85 25.22Q62.38 25.64 64.58 25.64L64.67 25.72Z"/></svg>