<svg xmlns="http://www.w3.org/2000/svg" width="150" height="50" viewBox="0,0,150,50"><path fill="#222" d="M41.95 41.29L41.86 41.19L38.93 41.11L38.86 41.04Q36.52 40.99 35.72 40.88L35.70 40.86L35.71 40.87Q33.90 40.54 32.72 39.66L32.78 39.73L32.62 39.56Q31.40 38.23 31.17 34.88L31.26 34.96L31.17 34.88Q31.19 34.44 31.11 33.22L31.15 33.26L30.98 33.09Q31.15 32.84 31.07 31.73L30.94 31.60L30.98 31.64Q31.03 30.89 31.07 30.17L31.03 30.13L31.07 30.18Q31.13 28.10 32.16 27.34L32.21 27.39L32.24 27.42Q34.20 26.29 39.03 26.07L39.06 26.09L39.01 26.05Q40.92 25.82 41.72 25.82L41.77 25.87L41.72 25.83Q43.28 25.90 44.65 26.20L44.67 26.22L44.71 26.27Q44.00 27.38 43.47 29.21L43.65 29.39L43.63 29.37Q43.04 29.35 42.54 29.31L42.64 29.41L42.63 29.40Q42.47 29.31 41.94 29.20L42.01 29.28L40.99 28.97L40.90 28.89Q39.85 28.63 39.24 28.67L39.33 28.76L39.35 28.78Q34.58 28.81 33.97 31.63L34.06 31.72L34.02 31.68Q33.71 32.78 33.79 33.73L33.83 33.77L33.81 33.75Q33.95 36.32 35.19 37.41L35.24 37.46L35.25 37.48Q36.47 38.54 39.06 38.58L39.08 38.60L38.92 38.44Q40.52 38.60 41.24 38.29L41.22 38.27L42.25 37.77L42.18 37.70Q42.81 37.58 43.38 37.50L43.38 37.50L43.25 37.36Q43.62 39.30 44.00 40.59L43.85 40.44L44.04 40.63Q43.79 40.99 42.00 41.33ZM45.12 44.14L45.26 44.28L45.19 44.21Q45.61 44.29 46.45 44.37L46.43 44.35L46.36 44.28Q47.00 44.31 47.34 43.74L47.37 43.77L47.41 43.81Q46.22 41.74 45.72 39.65L45.58 39.50L45.61 39.53Q45.23 39.46 44.77 39.46L44.77 39.45L44.87 39.56Q44.46 39.56 44.08 39.75L44.01 39.69L44.00 39.67Q43.76 38.52 43.61 37.11L43.65 37.15L43.58 37.08Q42.92 36.96 41.71 37.53L41.72 37.55L41.67 37.50Q40.54 38.16 40.05 38.16L39.97 38.09L39.98 38.09Q39.47 38.08 38.86 38.04L38.97 38.14L38.86 38.04Q38.03 38.08 36.05 37.51L36.02 37.48L36.02 37.48Q35.78 36.86 35.82 35.72L35.85 35.75L35.69 35.59Q35.88 31.37 40.83 30.84L40.90 30.91L40.80 30.80Q41.61 30.93 42.98 31.27L42.89 31.19L42.87 31.16Q44.42 31.68 45.14 31.64L45.05 31.55L45.13 31.63Q45.53 29.37 46.22 27.54L46.18 27.50L46.21 27.53Q45.70 27.29 45.32 27.21L45.35 27.25L44.54 27.12L44.56 27.14Q44.74 26.64 45.12 25.76L45.30 25.94L45.21 25.85Q43.62 25.44 42.06 25.44L42.09 25.47L42.19 25.57Q39.78 25.56 35.40 25.94L35.28 25.81L35.24 25.78Q33.41 26.04 31.85 27.03L31.87 27.05L31.76 26.94Q30.69 28.04 30.69 29.94L30.54 29.79L30.57 29.83Q30.53 30.20 30.64 31.42L30.77 31.55L30.74 31.51Q30.73 32.46 30.69 33.06L30.76 33.14L30.86 33.24Q30.73 34.97 31.45 38.70L31.62 38.87L31.55 38.80Q31.85 39.55 32.34 40.05L32.37 40.08L32.73 40.44L32.65 40.32L32.65 40.32Q33.76 42.53 37.68 43.14L37.71 43.17L37.67 43.13Q40.79 43.59 43.45 43.85L43.37 43.76L43.38 43.78Q44.34 44.02 45.26 44.29Z"/><path fill="#111" d="M30.59 28.66L30.61 28.68L24.81 28.86L24.64 28.69Q21.81 28.83 18.88 28.76L18.81 28.69L18.78 28.65Q18.92 35.38 16.86 40.90L16.92 40.95L16.94 40.98Q15.14 41.50 13.39 42.18L13.36 42.15L13.34 42.13Q16.15 36.45 16.15 29.79L16.07 29.71L16.02 29.66Q16.08 21.24 11.97 14.19L11.98 14.20L11.94 14.17Q13.46 14.96 15.94 15.76L16.06 15.89L15.98 15.80Q18.18 20.93 18.71 25.80L18.75 25.84L18.60 25.69Q21.79 26.11 24.65 26.07L24.72 26.14L24.81 26.23Q27.35 26.11 30.66 25.84L30.60 25.78L30.75 25.93Q31.22 21.53 32.97 16.43L32.92 16.38L32.87 16.33Q34.89 15.99 37.14 15.15L37.03 15.04L37.02 15.02Q33.40 21.76 33.40 29.72L33.53 29.85L33.42 29.74Q33.51 36.03 35.87 41.36L35.81 41.30L35.85 41.34Q34.33 40.82 32.27 40.51L32.09 40.33L32.15 40.38Q30.44 35.32 30.55 28.62ZM31.97 40.81L31.98 40.82L31.93 40.77Q32.93 40.90 34.03 41.16L34.02 41.16L34.04 41.17Q34.44 41.95 35.09 43.44L35.00 43.35L34.96 43.31Q38.36 44.31 40.15 45.22L40.23 45.30L40.24 45.32Q35.67 39.04 35.37 30.78L35.34 30.74L35.43 30.83Q35.19 22.87 38.85 16.06L38.86 16.07L37.74 16.48L37.66 16.39Q37.18 16.64 36.57 16.79L36.66 16.87L36.70 16.91Q36.96 15.95 37.79 14.39L37.79 14.39L37.89 14.50Q35.17 15.47 32.55 15.96L32.64 16.05L32.46 15.88Q30.97 20.90 30.52 25.58L30.45 25.51L30.51 25.58Q27.89 25.66 25.46 25.66L25.59 25.79L25.56 25.76Q23.08 25.68 20.57 25.53L20.67 25.63L20.70 25.66Q20.34 22.25 19.23 18.18L19.33 18.28L19.20 18.15Q18.56 18.08 17.11 17.69L17.18 17.76L17.23 17.82Q16.70 16.44 16.24 15.41L16.39 15.57L16.40 15.58Q13.49 14.64 11.20 13.39L11.22 13.40L11.35 13.53Q15.90 20.94 15.90 29.73L15.88 29.71L15.76 29.59Q15.80 36.60 12.68 42.73L12.65 42.70L12.68 42.73Q13.49 42.55 14.82 41.98L14.79 41.94L14.87 42.02Q14.45 42.79 13.65 44.31L13.63 44.29L13.68 44.34Q16.42 43.28 18.67 42.86L18.79 42.98L18.80 42.99Q20.52 37.29 20.71 31.12L20.84 31.25L20.71 31.11Q22.27 31.00 25.47 30.97L25.64 31.14L25.58 31.08Q28.45 31.05 30.35 31.13L30.25 31.03L30.28 31.05Q30.59 36.84 31.92 40.76Z"/><path fill="#222" d="M64.56 19.67L64.47 19.57L64.63 19.73Q62.59 19.78 61.63 19.93L61.70 20.00L61.67 19.97Q59.94 20.10 58.72 20.63L58.79 20.71L58.81 20.73Q55.24 22.10 55.12 26.78L55.21 26.87L55.14 26.80Q55.10 29.50 55.75 32.43L55.76 32.45L55.73 32.42Q56.61 36.45 60.22 37.63L60.32 37.73L60.24 37.64Q62.14 38.22 63.59 38.06L63.67 38.14L63.92 37.94L63.96 37.98Q64.09 37.92 64.28 37.96L64.29 37.97L64.33 38.01Q64.47 37.99 64.62 37.95L64.59 37.92L64.64 37.97Q67.25 37.70 68.62 37.12L68.69 37.19L65.11 33.65L65.14 33.68Q65.49 33.38 66.10 32.78L65.99 32.66L66.88 31.72L66.94 31.79Q68.73 33.81 70.71 35.86L70.85 36.00L70.78 35.93Q73.15 34.16 73.42 28.79L73.43 28.79L73.38 28.75Q73.52 27.89 73.52 26.98L73.53 26.99L73.36 26.83Q73.50 21.29 68.44 20.19L68.44 20.19L68.44 20.19Q67.18 19.92 64.67 19.77ZM77.38 41.77L77.23 41.62L77.23 41.62Q76.82 42.24 75.64 43.11L75.49 42.96L71.23 39.43L71.17 39.37Q68.61 40.50 64.35 40.54L64.51 40.70L64.32 40.52Q57.89 40.74 55.07 38.49L55.05 38.47L55.09 38.51Q53.16 36.59 52.71 33.62L52.79 33.70L52.89 33.80Q52.67 31.99 52.29 28.41L52.33 28.45L52.30 28.41Q52.15 27.54 52.03 25.79L52.19 25.94L52.10 25.86Q51.87 24.22 51.91 23.34L52.03 23.47L52.04 23.47Q52.03 20.31 53.78 18.74L53.86 18.82L53.83 18.79Q55.44 17.55 58.64 17.05L58.63 17.04L58.52 16.93Q61.13 16.69 64.02 16.76L63.98 16.72L63.89 16.63Q71.43 16.78 74.55 19.14L74.61 19.20L74.50 19.09Q76.83 21.39 76.57 26.30L76.48 26.22L76.40 26.14Q76.27 29.84 76.08 31.18L76.06 31.16L76.17 31.27Q75.36 35.60 73.04 37.92L73.05 37.93L73.07 37.96Q74.54 39.20 77.28 41.67ZM72.44 17.42L72.50 17.48L72.39 17.36Q70.53 16.80 64.02 16.31L63.86 16.14L63.94 16.22Q62.54 16.23 59.76 16.35L59.85 16.44L59.76 16.35Q55.54 16.57 53.29 18.55L53.38 18.64L53.26 18.53Q51.70 20.09 51.70 23.25L51.69 23.24L51.65 23.20Q51.76 24.14 51.91 25.86L51.89 25.83L51.72 25.67Q52.01 27.51 52.01 28.39L51.96 28.34L51.90 28.28Q52.05 30.03 52.43 33.61L52.42 33.60L52.52 33.70Q52.89 36.58 54.48 38.63L54.44 38.59L54.35 38.50Q54.79 39.43 56.01 40.57L55.99 40.56L55.96 40.52Q58.68 42.53 63.86 42.79L63.83 42.76L63.95 42.88Q64.19 42.78 66.59 42.89L66.63 42.93L66.57 42.88Q71.53 43.20 73.82 42.13L73.73 42.04L73.78 42.09Q74.70 42.82 79.42 46.40L79.33 46.31L79.35 46.33Q79.86 45.70 81.16 44.71L81.15 44.70L81.23 44.78Q80.29 44.03 79.49 43.34L79.56 43.41L77.80 41.84L78.03 41.93L77.91 41.80Q77.43 41.44 76.21 40.41L76.14 40.34L76.19 40.39Q78.05 37.83 78.05 33.30L78.18 33.43L78.03 33.28Q78.09 32.93 78.13 32.09L78.18 32.14L78.07 32.03Q78.29 31.37 78.29 30.95L78.15 30.82L78.24 30.90Q78.28 25.42 77.55 23.06L77.43 22.93L77.51 23.02Q77.07 21.67 76.20 20.60L76.21 20.61L76.28 20.69Q75.38 18.45 72.45 17.42ZM66.50 22.06L66.56 22.12L66.38 21.94Q70.52 21.93 72.35 23.53L72.40 23.58L72.36 23.54Q72.86 24.69 72.97 26.02L72.96 26.01L73.05 26.10Q73.06 27.29 72.99 28.66L73.10 28.77L73.00 28.67Q72.74 33.70 70.80 35.42L70.83 35.45L70.78 35.39Q69.44 34.06 66.93 31.32L66.92 31.31L66.88 31.27Q66.21 32.12 64.65 33.68L64.59 33.63L64.65 33.69Q65.16 34.23 66.30 35.41L66.38 35.49L66.21 35.43L66.24 35.46Q66.78 35.97 67.81 37.03L67.84 37.07L67.82 37.04Q66.80 37.28 64.48 37.58L64.61 37.72L64.04 37.68L63.67 37.73L63.65 37.74L63.52 37.62Q60.08 37.64 58.10 36.00L58.19 36.09L58.05 35.95Q57.17 34.01 57.21 30.88L57.11 30.78L57.23 30.91Q57.27 22.08 66.44 22.00Z"/><path fill="#222" d="M73.15 19.27L73.13 19.25L73.00 19.11Q74.29 23.76 74.44 26.96L74.28 26.79L74.36 26.87Q74.95 27.00 79.32 27.12L79.18 26.97L79.29 27.09Q81.82 27.10 82.20 23.64L82.22 23.66L82.14 23.58Q82.40 21.89 81.48 20.98L81.41 20.91L81.47 20.96Q80.08 19.95 78.10 19.80L78.13 19.84L78.07 19.77Q74.92 19.63 73.06 19.18ZM74.43 28.78L74.53 28.87L74.56 28.90Q74.65 34.82 72.86 40.76L72.81 40.71L72.94 40.84Q71.54 40.99 68.95 42.02L69.00 42.07L69.08 42.15Q71.93 35.67 71.58 28.21L71.47 28.10L71.55 28.17Q71.17 20.76 67.86 14.25L67.94 14.33L67.78 14.17Q72.83 17.16 79.80 17.16L79.75 17.11L79.62 16.99Q85.45 17.18 85.72 20.72L85.59 20.59L85.65 20.66Q85.67 21.20 85.59 21.81L85.61 21.83L85.51 22.95L85.62 23.06Q84.62 26.82 82.49 28.53L82.48 28.53L82.66 28.70Q81.74 29.27 80.71 29.27L80.69 29.25L78.25 29.39L78.07 29.21Q83.81 36.59 88.34 41.16L88.33 41.15L88.25 41.07Q86.17 40.43 83.24 40.09L83.24 40.10L83.09 39.95Q79.30 35.96 74.39 28.73ZM82.97 40.32L83.07 40.42L83.41 40.45L84.55 41.60L84.50 41.54Q85.20 42.21 85.85 42.82L85.80 42.77L85.72 42.69Q89.38 43.42 92.96 45.29L92.95 45.27L92.85 45.17Q85.95 38.46 80.54 31.53L80.60 31.60L82.43 31.67L82.31 31.55Q85.47 31.63 86.80 27.10L86.84 27.14L86.68 26.98Q87.45 24.85 87.45 22.14L87.53 22.22L87.51 22.21Q87.41 19.82 85.69 19.17L85.80 19.28L85.79 19.27Q85.55 18.76 84.98 18.08L84.99 18.09L85.02 18.12Q83.30 16.62 79.64 16.55L79.78 16.68L79.68 16.59Q71.88 16.51 67.20 13.50L67.24 13.55L67.13 13.44Q70.93 20.32 71.27 28.01L71.31 28.05L71.18 27.92Q71.66 36.01 68.53 42.86L68.45 42.78L68.41 42.74Q69.71 42.21 70.51 41.90L70.44 41.83L69.48 44.15L69.42 44.09Q72.24 43.14 74.90 42.64L74.89 42.64L74.83 42.57Q76.20 37.54 76.39 32.33L76.35 32.29L76.32 32.26Q79.83 37.22 82.99 40.34ZM81.70 22.38L81.84 22.52L81.69 22.36Q81.76 22.66 81.76 23.00L81.87 23.11L81.80 23.62L81.74 23.56Q81.87 24.79 81.18 25.74L81.05 25.60L81.10 25.66Q80.42 26.35 79.51 26.54L79.63 26.66L79.56 26.59Q79.42 26.72 77.82 26.75L77.75 26.69L77.75 26.68Q77.13 26.68 76.29 26.56L76.34 26.61L76.37 26.63Q76.18 25.04 75.84 22.00L76.00 22.15L75.91 22.07Q77.28 22.22 77.96 22.22L77.99 22.25L78.08 22.34Q79.83 22.26 81.77 22.45Z"/><path fill="#222" d="M14.75 29.45L14.70 29.41L14.72 29.43Q13.52 28.65 12.88 28.69L12.96 28.77L13.05 28.86Q11.57 28.82 10.52 29.83L10.56 29.88L10.48 29.79Q9.41 30.78 9.53 32.15L9.55 32.18L9.65 32.27Q9.94 36.60 9.06 41.13L9.06 41.12L9.05 41.12Q6.76 41.49 5.66 42.02L5.65 42.02L5.76 42.13Q7.19 37.89 6.96 33.43L6.99 33.45L7.07 33.54Q6.78 28.99 5.07 24.92L5.11 24.95L5.11 24.95Q6.25 25.64 8.54 26.29L8.41 26.16L9.14 29.02L8.97 28.86Q9.78 26.09 14.05 26.09L14.03 26.07L14.01 26.05Q14.32 25.90 14.63 25.90L14.58 25.86L14.71 25.99Q15.92 25.90 17.18 26.59L17.25 26.67L17.28 26.69Q15.86 27.94 14.72 29.42ZM16.40 31.49L16.51 31.44L16.51 31.45Q17.41 30.29 19.09 27.85L19.15 27.92L18.96 27.72Q18.68 27.56 17.16 27.29L17.03 27.17L17.14 27.28Q17.42 26.91 17.88 26.30L17.87 26.30L17.85 26.27Q15.90 25.32 13.96 25.51L13.95 25.49L14.09 25.64Q11.99 25.67 11.27 25.94L11.35 26.02L11.30 25.96Q9.98 26.48 9.18 27.58L9.06 27.46L9.01 26.76L8.82 25.93L8.86 25.96Q6.40 25.48 4.42 24.15L4.45 24.18L4.34 24.07Q6.45 28.42 6.67 33.30L6.73 33.36L6.77 33.39Q7.07 38.38 5.32 42.91L5.21 42.80L5.22 42.81Q6.25 42.28 7.13 41.97L7.13 41.97L7.24 42.09Q6.91 43.13 6.42 44.19L6.45 44.22L6.46 44.23Q9.33 43.41 11.46 43.30L11.42 43.26L11.61 38.73L11.65 38.76Q11.74 36.49 11.74 34.24L11.65 34.16L11.61 34.12Q11.72 33.05 12.63 32.08L12.56 32.01L12.55 32.00Q13.45 31.01 14.59 30.93L14.70 31.04L14.61 30.95Q15.26 30.84 15.98 31.52L15.96 31.50L16.41 31.49ZM11.42 29.70L11.53 29.73L11.35 29.67L11.37 29.65Z"/><path fill="#222" d="M132.24 23.40L132.18 23.34L132.34 23.50Q129.07 23.42 127.24 22.36L127.22 22.34L127.26 22.38Q129.68 20.91 134.55 16.69L134.69 16.82L134.66 16.80Q135.42 16.64 136.71 16.03L136.54 15.86L136.54 15.86Q135.26 21.85 135.14 28.21L135.18 28.24L135.13 28.19Q135.12 34.66 136.19 40.75L136.07 40.63L136.22 40.78Q134.52 40.03 132.39 39.92L132.33 39.86L132.28 39.81Q132.24 35.73 132.24 31.66L132.19 31.61L132.11 31.53Q132.19 27.50 132.23 23.38ZM131.96 25.74L131.95 40.32L131.79 40.15Q133.09 40.24 134.05 40.43L134.01 40.40L134.13 40.52Q134.17 41.17 134.36 42.54L134.21 42.38L134.24 42.41Q137.24 43.10 139.68 45.34L139.53 45.20L139.64 45.31Q137.18 38.20 137.14 30.74L137.16 30.76L137.09 30.69Q136.92 23.13 138.75 15.90L138.89 16.04L138.84 15.99Q138.31 16.41 136.71 17.51L136.72 17.52L136.67 17.47Q136.91 16.76 137.21 15.24L137.13 15.16L137.28 15.31Q135.77 15.89 134.33 16.27L134.33 16.28L134.51 16.46Q130.65 19.94 126.34 22.22L126.28 22.16L126.33 22.21Q127.79 23.37 130.15 23.71L130.01 23.57L130.19 23.75Q129.42 24.16 128.13 25.23L128.25 25.35L128.09 25.19Q129.61 25.61 131.82 25.61L131.78 25.57Z"/><path fill="#333" d="M52.48 40.19L52.46 40.16L52.40 40.10Q50.58 40.08 48.91 40.65L49.00 40.74L49.03 40.77Q49.52 37.11 49.63 33.99L49.53 33.88L49.60 33.95Q49.70 30.90 49.47 27.24L49.47 27.24L49.38 27.15Q47.98 26.78 47.22 26.40L47.32 26.50L47.02 23.57L46.86 23.41Q47.78 24.21 49.37 24.78L49.24 24.64L49.22 24.63Q49.04 22.54 48.62 19.80L48.72 19.90L48.57 19.75Q50.86 20.44 52.49 20.29L52.55 20.34L52.44 24.95L52.40 24.91Q53.84 24.87 55.17 24.38L55.20 24.41L55.20 24.40Q55.19 25.35 54.96 27.10L54.85 26.99L54.94 27.08Q53.31 27.31 52.28 27.31L52.30 27.33L52.40 27.43Q52.39 29.59 52.39 33.85L52.33 33.79L52.37 33.83Q52.40 38.01 52.47 40.18ZM55.66 23.87L55.53 23.75L55.60 23.81Q55.40 23.99 54.79 24.22L54.82 24.26L55.12 21.39L55.21 21.48Q54.26 21.63 52.85 21.86L52.82 21.84L52.90 21.91Q52.97 21.30 53.12 19.93L53.09 19.89L53.01 19.82Q52.49 19.98 51.92 19.98L51.96 20.02L51.82 19.88Q49.75 19.94 48.12 19.22L48.04 19.14L48.07 19.18Q48.60 21.68 48.86 24.16L48.87 24.17L48.94 24.24Q47.92 23.75 46.40 22.72L46.42 22.74L46.47 22.80Q46.86 24.13 47.08 26.83L47.08 26.83L47.08 26.83Q47.44 26.95 48.62 27.37L48.59 27.34L48.69 27.45Q48.77 28.14 48.81 29.55L48.81 29.55L49.07 29.46L49.21 29.52L49.17 29.49Q49.34 30.84 49.34 32.02L49.34 32.01L49.30 31.98Q49.26 36.89 48.46 41.23L48.57 41.33L48.48 41.24Q48.68 41.14 50.62 40.61L50.58 40.57L50.53 40.52Q50.66 41.30 50.55 42.67L50.53 42.65L50.64 42.76Q51.26 42.51 52.06 42.51L52.24 42.69L52.23 42.68Q53.76 42.49 55.40 43.06L55.50 43.17L55.54 43.21Q54.19 37.48 54.38 29.56L54.27 29.45L56.73 29.13L56.78 29.18Q56.88 28.29 56.96 27.26L56.91 27.22L57.17 25.27L57.08 25.18Q56.57 25.51 55.39 25.97L55.38 25.96L55.38 25.95Q55.64 24.58 55.57 24.24L55.58 24.25L55.64 24.31Q55.45 23.93 55.52 23.74Z"/><path fill="#111" d="M91.23 29.14L91.23 29.15L91.17 29.09Q89.41 29.04 88.17 30.47L88.11 30.40L88.04 30.34Q86.87 31.84 86.68 33.74L86.67 33.72L86.78 33.84Q86.46 35.80 87.55 36.77L87.60 36.83L87.50 36.72Q88.61 37.72 90.70 37.60L90.78 37.68L90.68 37.58Q92.88 37.53 93.98 36.85L93.94 36.80L93.96 36.83Q95.00 35.62 95.00 34.06L95.09 34.15L95.08 34.14Q95.05 33.73 94.97 33.35L95.07 33.45L95.07 33.45Q95.11 31.74 94.01 30.38L94.00 30.37L93.95 30.32Q92.86 28.99 91.18 29.10ZM90.80 40.26L90.74 40.19L90.71 40.17Q86.33 40.16 84.92 39.40L85.08 39.56L85.03 39.50Q83.96 38.70 83.77 36.99L83.86 37.09L83.81 37.03Q83.74 36.31 83.78 35.59L83.69 35.50L83.69 35.50Q83.84 34.55 83.84 34.09L83.94 34.20L83.94 34.20Q84.31 31.25 84.46 30.57L84.57 30.67L84.45 30.55Q85.02 28.72 85.86 27.32L85.73 27.18L85.78 27.24Q88.46 22.87 94.39 16.51L94.35 16.47L94.36 16.48Q97.01 16.16 99.22 15.36L99.18 15.32L99.29 15.43Q92.38 22.84 89.18 27.06L89.24 27.12L89.30 27.18Q90.20 26.60 91.50 26.60L91.58 26.68L91.47 26.57Q94.77 26.56 96.29 28.50L96.42 28.63L96.34 28.55Q97.71 30.22 98.05 33.76L97.93 33.64L97.98 33.69Q98.16 34.52 98.16 35.13L98.07 35.04L98.00 34.96Q98.13 38.21 95.92 39.28L95.82 39.18L95.81 39.17Q94.74 39.93 90.85 40.31ZM93.06 42.63L93.11 42.68L93.06 42.63Q94.31 42.55 96.29 42.62L96.26 42.60L96.24 42.57Q98.04 42.81 99.60 42.09L99.54 42.02L99.45 41.94Q100.63 41.21 100.63 39.42L100.65 39.44L100.54 39.33Q100.73 39.03 100.56 38.04L100.55 38.03L100.52 38.00Q100.33 36.99 100.33 36.53L100.34 36.54L100.23 36.44Q99.34 31.70 97.74 29.80L97.76 29.82L97.76 29.81Q97.79 29.80 97.63 29.58L97.66 29.60L97.25 29.27L97.22 29.27L97.13 29.18Q96.94 28.84 96.33 27.89L96.16 27.72L96.17 27.73Q95.43 26.95 93.45 26.50L93.29 26.34L93.37 26.41Q94.54 24.77 97.51 21.08L97.60 21.17L101.87 15.92L101.78 15.83Q100.26 16.75 97.87 17.51L97.88 17.52L97.77 17.42Q98.75 16.49 100.54 14.51L100.47 14.45L100.44 14.41Q98.15 15.59 94.27 16.16L94.30 16.19L94.33 16.22Q88.45 21.96 85.48 26.91L85.49 26.91L85.57 26.99Q84.12 29.58 83.55 35.82L83.48 35.75L83.50 35.77Q83.46 36.38 83.54 37.33L83.49 37.28L83.42 37.21Q83.55 39.02 84.66 39.93L84.57 39.84L84.55 39.83Q85.07 40.12 85.03 40.16L85.01 40.14L84.94 40.07Q85.38 41.04 86.18 41.46L86.15 41.43L86.20 41.47Q87.52 42.03 89.46 42.22L89.55 42.31L89.48 42.24Q89.48 42.24 92.98 42.55ZM92.86 31.42L92.84 31.41L92.81 31.37Q93.50 31.38 94.45 31.87L94.44 31.86L94.36 31.79Q94.63 32.66 94.63 33.31L94.78 33.46L94.69 33.37Q94.79 35.15 93.84 36.14L93.93 36.23L93.90 36.19Q92.85 36.93 90.76 37.24L90.74 37.22L90.76 37.25Q89.30 37.23 88.77 36.96L88.82 37.02L88.84 37.04Q88.66 36.60 88.66 36.29L88.61 36.23L88.60 36.23Q88.39 32.97 91.32 31.67L91.22 31.57L91.33 31.69Q92.12 31.37 92.88 31.45Z"/><path d="M2 16 C71 14,59 41,138 37" stroke="#222" fill="none"/><path fill="#333" d="M116.95 25.16L116.94 25.15L116.77 24.99Q117.68 25.35 119.66 25.35L119.60 25.30L119.63 32.49L119.76 32.61Q119.83 36.91 119.94 39.80L119.96 39.82L119.83 39.69Q119.47 39.56 119.09 39.56L119.24 39.71L119.09 39.56Q117.66 39.57 116.21 40.91L116.20 40.89L116.31 41.01Q117.13 33.41 116.94 25.15ZM116.81 19.69L115.68 17.04L115.69 17.05Q117.35 16.12 118.07 15.17L118.04 15.13L117.99 15.08Q119.10 16.99 120.51 18.67L120.57 18.73L120.52 18.68Q119.75 20.23 118.38 22.37L118.37 22.36L118.38 22.36Q117.40 21.04 116.82 19.71L116.93 19.81ZM115.77 41.88L115.71 41.81L115.80 41.90Q116.79 40.80 118.05 40.31L117.89 40.15L117.87 40.13Q117.90 40.84 117.78 42.21L117.89 42.32L117.81 42.24Q118.61 42.13 119.26 42.13L119.25 42.12L119.21 42.08Q121.31 41.97 122.72 43.95L122.84 44.07L122.89 44.12Q121.61 36.75 121.69 26.58L121.52 26.42L121.71 26.61Q120.94 26.79 120.10 26.90L120.02 26.82L120.03 24.96L119.97 24.90Q118.90 24.98 118.10 24.91L118.18 24.98L118.29 25.09Q117.35 24.92 116.48 24.42L116.56 24.50L116.39 24.33Q116.66 26.51 116.66 28.56L116.69 28.59L116.52 28.42Q116.69 35.63 115.81 41.91ZM118.30 22.89L118.37 22.97L118.52 22.73L118.57 22.48L118.55 22.46Q119.09 23.38 120.11 24.86L120.07 24.82L119.93 24.68Q121.33 22.39 122.66 18.85L122.74 18.92L122.63 18.81Q121.89 18.19 120.33 16.59L120.29 16.54L120.30 16.56Q120.04 16.60 119.78 17.06L119.93 17.21L119.75 17.03Q118.79 15.77 117.88 14.32L118.06 14.50L117.87 14.32Q116.56 16.09 115.38 16.43L115.31 16.37L115.35 16.41Q116.58 19.99 118.41 23.00Z"/><path fill="#444" d="M104.71 19.56L104.80 19.65L103.28 19.80L103.14 19.66Q101.04 19.92 100.81 21.94L100.65 21.78L100.73 21.86Q100.74 22.67 100.77 23.66L100.80 23.68L100.73 23.62Q100.80 25.58 102.05 26.92L102.08 26.94L102.08 26.94Q103.21 28.15 105.11 28.00L105.18 28.06L105.24 28.13Q107.29 27.96 108.05 27.05L107.97 26.97L108.01 27.01Q109.02 26.04 109.28 23.79L109.41 23.91L109.22 23.73Q109.65 21.65 108.40 20.81L108.28 20.69L108.41 20.83Q107.35 19.84 104.68 19.53ZM110.91 28.96L110.78 28.83L109.58 31.20L109.59 31.22Q106.87 36.00 103.10 40.07L103.06 40.02L103.16 40.13Q101.50 40.26 98.80 41.06L98.63 40.89L98.80 41.06Q104.02 34.67 107.18 29.87L107.23 29.93L107.19 29.89Q106.22 30.59 104.58 30.66L104.64 30.72L104.52 30.61Q101.48 30.72 99.96 28.74L99.93 28.72L100.11 28.89Q98.73 27.13 97.63 22.57L97.74 22.68L97.78 22.72Q97.64 22.12 97.49 21.19L97.57 21.27L97.64 21.34Q97.36 20.28 97.36 19.82L97.43 19.89L97.31 19.77Q97.42 18.09 98.48 17.48L98.54 17.54L98.45 17.45Q99.70 16.72 101.57 16.72L101.61 16.77L101.45 16.60Q104.74 16.69 104.74 16.69L104.77 16.73L104.75 16.71Q106.89 16.71 108.14 16.90L108.24 17.00L108.12 16.88Q110.22 17.12 111.14 17.61L111.23 17.71L111.14 17.61Q112.50 18.37 112.69 20.12L112.76 20.19L112.80 20.23Q112.71 20.37 112.52 23.03L112.68 23.19L112.64 23.15Q112.28 25.30 112.05 26.14L112.07 26.16L111.89 25.98Q111.56 27.44 110.80 28.85ZM112.76 31.31L112.68 31.22L112.70 31.24Q113.81 29.16 114.34 24.86L114.31 24.82L114.16 24.67Q114.43 22.47 114.39 21.59L114.51 21.71L114.56 21.76Q114.48 19.86 113.30 18.94L113.26 18.90L112.99 18.82L113.05 18.88Q112.68 18.02 111.77 17.37L111.83 17.43L111.81 17.41Q109.42 16.31 104.62 16.16L104.65 16.18L104.67 16.21Q103.70 16.19 101.26 16.19L101.35 16.28L101.26 16.18Q99.53 16.21 98.05 16.90L98.02 16.86L98.16 17.01Q96.98 17.77 97.06 19.60L97.07 19.61L97.03 19.57Q97.20 20.47 97.39 22.48L97.40 22.50L97.41 22.50Q98.07 25.18 98.34 26.02L98.25 25.93L98.31 25.99Q98.82 27.80 99.77 29.09L99.74 29.06L99.87 29.19Q100.15 29.55 100.53 29.93L100.48 29.87L100.51 29.90Q100.73 30.31 101.37 31.22L101.36 31.21L101.34 31.19Q102.85 32.59 104.79 32.78L104.86 32.84L104.82 32.80Q102.97 35.52 101.41 37.43L101.22 37.24L97.61 41.62L97.74 41.75Q99.89 40.90 101.53 40.56L101.56 40.59L101.53 40.56Q100.82 41.48 99.26 43.20L99.22 43.15L99.23 43.16Q102.42 42.35 105.54 42.32L105.55 42.33L105.43 42.21Q107.69 39.56 112.03 32.33L112.10 32.40L112.16 32.53L112.14 32.52Q112.34 31.72 112.68 31.22ZM106.63 21.94L106.75 22.06L106.71 22.02Q107.39 21.97 107.84 22.09L107.83 22.07L107.83 22.07Q108.50 22.21 108.88 22.32L108.85 22.30L108.77 22.21Q108.89 22.60 108.96 23.02L109.01 23.06L108.99 23.04Q109.07 23.46 108.96 23.85L108.98 23.87L108.92 23.81Q108.98 25.62 107.80 26.73L107.67 26.59L107.66 26.59Q106.86 27.77 105.23 27.73L105.24 27.75L105.14 27.64Q104.84 27.76 103.32 27.46L103.25 27.39L103.28 27.42Q103.06 26.56 103.06 25.83L102.99 25.76L103.05 25.82Q102.97 25.55 102.97 25.32L102.99 25.34L102.85 25.20Q102.83 22.97 105.11 22.17L105.20 22.26L105.23 22.29Q105.95 22.10 106.79 22.10Z"/></svg>