<svg xmlns="http://www.w3.org/2000/svg" width="150" height="50" viewBox="0,0,150,50"><path fill="#222" d="M72.14 49.73L71.97 49.55L71.99 49.58Q75.02 45.82 77.91 39.62L77.80 39.51L77.77 39.48Q74.75 33.03 68.66 24.96L68.55 24.85L68.60 24.90Q70.49 26.03 73.27 26.68L73.27 26.68L73.28 26.69Q76.89 31.45 79.33 36.66L79.25 36.58L79.19 36.52Q81.40 31.27 84.49 26.86L84.43 26.80L84.56 26.93Q86.65 26.47 88.75 25.67L88.92 25.85L88.91 25.84Q85.31 29.47 81.85 36.89L81.96 37.01L79.04 42.92L79.12 43.00Q77.66 46.10 75.90 48.73L75.98 48.81L76.01 48.84Q73.58 49.19 72.14 49.72ZM78.22 50.97L78.21 50.96L78.12 50.87Q79.88 48.02 81.32 44.74L81.41 44.83L84.06 38.42L84.03 38.39Q87.60 30.42 90.91 26.43L90.85 26.37L90.83 26.35Q89.67 27.20 87.76 27.89L87.65 27.77L88.81 26.49L88.78 26.47Q89.26 25.69 89.87 25.01L89.91 25.04L89.78 24.92Q87.27 26.13 84.41 26.59L84.39 26.57L84.35 26.53Q81.58 30.42 79.64 34.87L79.66 34.90L79.62 34.86Q77.93 31.49 76.14 28.67L76.30 28.84L76.16 28.70Q76.14 28.87 75.78 28.83L75.69 28.74L75.72 28.76Q75.35 28.72 75.16 28.72L75.10 28.67L75.20 28.76Q74.36 27.43 73.41 26.28L73.48 26.36L73.48 26.35Q70.24 25.63 67.50 23.91L67.59 24.01L67.48 23.89Q73.66 31.83 77.35 39.44L77.53 39.62L77.51 39.60Q75.30 44.62 71.23 50.26L71.16 50.19L71.25 50.28Q72.10 50.03 72.90 49.87L72.79 49.77L74.36 49.36L74.35 49.34Q73.90 50.23 72.72 51.86L72.74 51.88L72.74 51.89Q74.95 51.20 78.22 50.97Z"/><path fill="#333" d="M10.75 40.26L10.74 40.25L8.32 33.38L8.27 33.33Q3.84 20.67-2.10 14.28L-2.12 14.26L-2.02 14.36Q0.05 15.47 2.63 16.08L2.58 16.03L2.61 16.06Q7.70 22.29 12.04 35.05L12.06 35.06L11.99 34.99Q15.16 27.01 15.84 25.41L15.80 25.36L15.87 25.44Q18.15 19.72 20.96 16.41L20.94 16.38L20.96 16.40Q23.00 16.01 25.63 15.13L25.64 15.15L25.67 15.17Q21.07 19.75 18.02 26.98L18.08 27.04L18.02 26.98Q16.66 30.68 12.97 40.20L12.93 40.16L12.94 40.17Q12.30 40.10 11.73 40.06L11.88 40.22L11.82 40.15Q11.30 40.20 10.73 40.24ZM15.76 42.68L15.79 42.71L15.70 42.62Q18.40 32.54 19.97 28.50L20.01 28.54L20.13 28.67Q22.98 20.82 27.39 15.94L27.48 16.03L27.45 16.00Q26.45 16.41 24.35 17.13L24.36 17.14L25.47 15.77L25.47 15.77Q26.11 15.15 26.72 14.51L26.73 14.52L26.67 14.46Q23.85 15.44 20.84 16.01L20.90 16.08L20.88 16.05Q16.52 21.41 12.64 32.87L12.49 32.72L12.60 32.82Q8.85 22.61 5.65 18.23L5.67 18.24L5.75 18.32Q5.27 18.15 4.40 18.00L4.38 17.98L4.57 18.17Q4.22 17.67 2.63 15.62L2.56 15.55L2.63 15.62Q-0.40 14.83-3.11 13.42L-2.95 13.59L-3.01 13.53Q3.64 20.62 8.01 33.42L8.06 33.46L7.91 33.31Q9.21 37.05 10.39 40.62L10.31 40.55L10.30 40.53Q10.69 40.63 11.53 40.51L11.56 40.54L11.56 40.54Q11.93 41.25 12.61 42.58L12.61 42.58L12.61 42.58Q13.49 42.54 14.21 42.62L14.19 42.60L14.22 42.64Q14.93 42.62 15.70 42.62Z"/><path fill="#222" d="M32.66 19.14L32.74 19.22L32.76 19.25Q33.85 23.68 34.00 26.88L34.00 26.88L33.89 26.77Q34.57 26.99 38.95 27.11L38.87 27.02L38.85 27.01Q41.51 27.15 41.89 23.69L41.84 23.64L41.76 23.56Q41.94 21.80 41.02 20.88L41.07 20.93L40.98 20.84Q39.72 19.96 37.74 19.80L37.79 19.86L37.83 19.89Q34.56 19.63 32.69 19.17ZM34.01 28.72L34.17 28.88L34.19 28.90Q34.31 34.84 32.52 40.78L32.55 40.81L32.52 40.78Q31.33 41.15 28.74 42.17L28.60 42.03L28.60 42.04Q31.40 35.51 31.06 28.05L31.18 28.16L31.14 28.13Q30.92 20.87 27.61 14.36L27.61 14.36L27.61 14.36Q32.48 17.17 39.45 17.17L39.31 17.03L39.43 17.16Q44.91 17.00 45.17 20.54L45.33 20.70L45.28 20.64Q45.42 21.32 45.34 21.93L45.34 21.92L45.19 23.00L45.21 23.01Q44.30 26.86 42.17 28.58L42.12 28.52L42.29 28.70Q41.31 29.21 40.29 29.21L40.37 29.29L37.88 29.39L37.75 29.26Q43.47 36.61 48.00 41.18L47.83 41.02L47.86 41.05Q45.76 40.39 42.83 40.05L42.81 40.03L42.72 39.93Q39.00 36.03 34.09 28.80ZM42.64 40.35L42.75 40.47L43.00 40.41L44.22 41.63L44.23 41.64Q44.81 42.18 45.45 42.79L45.44 42.77L45.37 42.70Q48.95 43.35 52.53 45.22L52.66 45.35L52.52 45.20Q45.66 38.54 40.26 31.61L40.25 31.61L42.03 31.63L42.06 31.67Q45.11 31.63 46.44 27.10L46.47 27.12L46.32 26.97Q46.99 24.76 46.99 22.06L47.15 22.21L47.17 22.23Q47.07 19.84 45.35 19.20L45.43 19.28L45.34 19.19Q45.32 18.90 44.75 18.21L44.71 18.18L44.77 18.23Q42.95 16.64 39.29 16.56L39.42 16.69L39.32 16.59Q31.39 16.39 26.71 13.38L26.79 13.46L26.75 13.43Q30.51 20.27 30.85 27.96L30.86 27.96L30.90 28.00Q31.29 36.01 28.17 42.86L28.02 42.71L28.17 42.86Q29.30 42.17 30.10 41.86L30.11 41.87L29.12 44.16L29.23 44.26Q31.92 43.18 34.58 42.69L34.55 42.65L34.59 42.70Q35.88 37.59 36.07 32.38L35.99 32.30L36.01 32.32Q39.55 37.30 42.71 40.42ZM41.42 22.46L41.38 22.42L41.37 22.41Q41.50 22.77 41.50 23.11L41.50 23.11L41.36 23.54L41.47 23.65Q41.41 24.70 40.73 25.65L40.76 25.69L40.73 25.65Q40.19 26.48 39.27 26.67L39.26 26.66L39.27 26.67Q38.93 26.59 37.33 26.63L37.33 26.63L37.32 26.62Q36.84 26.75 36.00 26.63L35.98 26.61L36.08 26.71Q35.93 25.15 35.58 22.10L35.60 22.13L35.62 22.14Q36.92 22.22 37.60 22.22L37.70 22.32L37.66 22.27Q39.52 22.31 41.46 22.50Z"/><path fill="#222" d="M86.42 19.08L86.44 19.10L86.52 19.19Q87.71 23.72 87.86 26.92L87.75 26.81L87.82 26.88Q88.23 26.83 92.61 26.95L92.72 27.06L92.69 27.03Q95.20 27.03 95.58 23.56L95.52 23.50L95.68 23.66Q95.87 21.91 94.96 21.00L94.98 21.02L94.96 21.00Q93.55 19.97 91.57 19.82L91.67 19.91L91.64 19.89Q88.28 19.53 86.41 19.08ZM87.91 28.80L87.84 28.73L87.96 28.84Q88.13 34.85 86.35 40.79L86.34 40.78L86.35 40.79Q85.06 41.06 82.47 42.09L82.46 42.08L82.48 42.10Q85.33 35.62 84.99 28.16L84.92 28.09L84.91 28.08Q84.64 20.77 81.33 14.26L81.26 14.19L81.31 14.24Q86.27 17.15 93.24 17.15L93.16 17.06L93.14 17.05Q98.81 17.08 99.07 20.62L98.98 20.53L99.15 20.70Q99.08 21.16 99.01 21.77L99.16 21.93L99.02 23.01L98.95 22.93Q98.09 26.83 95.96 28.54L96.06 28.65L96.10 28.69Q95.29 29.37 94.26 29.37L94.16 29.26L91.61 29.30L91.68 29.37Q97.25 36.57 101.78 41.14L101.82 41.19L101.68 41.04Q99.52 40.33 96.59 39.99L96.51 39.91L96.69 40.09Q92.83 36.04 87.92 28.81ZM96.49 40.38L96.57 40.47L96.78 40.37L98.09 41.68L98.00 41.59Q98.63 42.18 99.27 42.79L99.27 42.78L99.26 42.77Q102.80 43.38 106.38 45.25L106.29 45.16L106.35 45.22Q99.36 38.42 93.95 31.49L93.95 31.49L95.73 31.51L95.86 31.65Q98.90 31.60 100.23 27.07L100.27 27.11L100.19 27.03Q100.98 24.93 100.98 22.22L100.96 22.21L100.91 22.15Q100.83 19.78 99.11 19.14L99.13 19.15L99.11 19.14Q99.10 18.86 98.53 18.17L98.53 18.18L98.57 18.21Q96.76 16.63 93.10 16.56L93.14 16.59L93.20 16.66Q85.33 16.51 80.65 13.50L80.70 13.55L80.63 13.49Q84.29 20.22 84.63 27.91L84.78 28.07L84.67 27.95Q85.08 35.98 81.96 42.83L82.00 42.88L81.81 42.69Q83.07 42.12 83.87 41.81L83.96 41.90L82.92 44.14L82.90 44.11Q85.75 43.20 88.42 42.70L88.44 42.73L88.31 42.60Q89.70 37.60 89.89 32.38L89.81 32.30L89.76 32.25Q93.28 37.21 96.44 40.33ZM95.21 22.43L95.26 22.48L95.25 22.47Q95.24 22.69 95.24 23.04L95.19 22.98L95.32 23.69L95.21 23.57Q95.18 24.65 94.49 25.60L94.67 25.78L94.58 25.69Q94.02 26.50 93.11 26.69L93.14 26.72L93.09 26.67Q92.84 26.68 91.24 26.72L91.29 26.78L91.31 26.79Q90.64 26.73 89.80 26.62L89.75 26.57L89.75 26.57Q89.80 25.20 89.45 22.16L89.44 22.14L89.28 21.99Q90.73 22.22 91.42 22.22L91.50 22.30L91.55 22.35Q93.36 22.33 95.30 22.52Z"/><path fill="#333" d="M97.73 14.32L97.79 14.37L97.66 14.24Q100.28 16.03 102.03 16.45L101.94 16.35L102.11 16.52Q103.31 22.90 103.31 29.49L103.25 29.43L103.44 29.62Q103.38 33.56 102.85 37.56L102.77 37.47L102.79 37.50Q105.05 37.05 107.53 37.13L107.60 37.20L107.59 37.20Q109.89 37.09 112.02 37.82L112.08 37.87L112.09 37.89Q112.39 39.40 112.85 40.96L112.91 41.03L112.79 40.90Q109.48 39.62 105.64 39.88L105.52 39.76L105.54 39.79Q101.70 40.06 98.46 41.96L98.49 41.99L98.55 42.05Q100.71 35.15 100.45 28.15L100.39 28.09L100.53 28.23Q100.24 21.13 97.81 14.39ZM98.05 42.80L98.04 42.79L98.10 42.85Q98.71 42.40 100.08 41.68L100.05 41.64L100.02 41.61Q99.98 42.49 99.45 43.98L99.42 43.94L99.32 43.84Q102.98 42.29 106.83 42.29L106.76 42.23L106.73 42.20Q112.46 42.29 116.57 45.33L116.43 45.20L116.57 45.34Q115.93 43.86 114.90 40.89L114.72 40.71L114.88 40.87Q113.67 40.08 112.80 39.70L112.92 39.82L112.84 39.74Q112.72 39.05 112.42 37.64L112.45 37.67L112.41 37.64Q109.82 36.76 106.81 36.76L106.81 36.75L106.68 36.63Q106.05 36.76 105.26 36.80L105.22 36.77L105.29 36.83Q105.45 31.82 105.37 27.71L105.45 27.78L105.49 27.83Q105.26 23.56 104.92 18.57L104.99 18.64L105.05 18.70Q103.46 18.41 102.66 18.22L102.65 18.21L102.68 18.24Q102.62 17.57 102.39 16.16L102.34 16.10L102.44 16.20Q99.34 15.39 97.09 13.45L97.20 13.56L97.11 13.46Q99.78 20.48 100.05 27.98L100.09 28.02L100.08 28.01Q100.49 35.69 98.09 42.85Z"/><path fill="#444" d="M119.81 40.13L119.82 40.14L117.80 40.40L117.65 40.25Q117.32 40.38 116.35 40.44L116.27 40.36L116.26 40.34Q115.25 40.36 114.75 40.36L114.89 40.50L114.72 40.33Q113.26 40.51 112.23 39.67L112.23 39.67L112.19 39.63Q112.87 38.40 114.51 36.27L114.52 36.28L114.55 36.32Q115.82 37.89 118.03 37.66L118.08 37.71L118.08 37.72Q119.00 37.61 119.65 36.96L119.60 36.91L119.60 36.91Q120.22 36.24 120.11 35.36L120.11 35.37L120.10 35.35Q119.93 30.69 120.00 26.12L120.12 26.24L120.08 26.20Q120.10 21.57 120.63 16.96L120.74 17.07L120.59 16.92Q122.56 16.76 124.69 15.73L124.81 15.85L124.75 15.79Q122.96 22.60 122.96 29.84L122.78 29.66L122.81 29.69Q122.92 33.34 123.38 36.84L123.42 36.89L123.25 36.71Q123.44 37.17 123.44 37.52L123.38 37.45L123.39 37.46Q123.39 38.04 123.16 38.57L123.17 38.57L123.24 38.65Q122.57 39.80 119.75 40.07ZM124.79 43.02L124.70 42.92L125.00 42.88L125.33 42.79L125.56 42.64L125.60 42.68Q126.01 42.52 126.09 42.41L126.07 42.39L126.09 42.41Q126.15 41.10 125.88 40.11L125.97 40.19L125.92 40.14Q124.61 34.38 124.88 28.03L124.90 28.05L124.84 27.99Q125.14 21.93 126.93 16.03L126.94 16.04L126.83 15.93Q126.06 16.68 124.80 17.40L124.75 17.35L124.76 17.37Q124.99 16.64 125.41 15.12L125.39 15.10L125.42 15.13Q122.94 16.49 120.27 16.79L120.27 16.79L120.15 16.67Q119.75 21.03 119.67 25.98L119.77 26.08L119.68 25.99Q119.77 32.05 119.85 35.48L119.85 35.48L119.76 35.40Q119.76 37.10 118.00 37.26L118.08 37.33L117.96 37.21Q116.35 37.43 114.68 35.79L114.64 35.76L114.63 35.74Q112.63 38.32 111.68 39.88L111.65 39.85L111.56 39.76Q112.38 40.57 113.40 40.80L113.27 40.67L113.25 40.64Q113.34 40.97 113.08 41.20L113.02 41.14L113.02 41.14Q114.51 42.13 116.49 42.40L116.44 42.35L116.37 42.29Q116.88 42.45 120.17 42.76L120.16 42.75L119.99 42.57Q123.46 43.06 124.83 43.06Z"/><path fill="#222" d="M24.04 29.23L23.96 29.15L24.06 29.25Q22.21 29.27 20.99 30.60L20.92 30.52L20.98 30.59Q19.59 31.75 19.44 33.66L19.56 33.78L19.46 33.67Q19.37 35.91 20.59 36.92L20.50 36.83L20.51 36.84Q21.69 37.81 23.82 37.73L23.96 37.87L23.83 37.74Q26.34 37.78 27.29 36.82L27.24 36.77L27.11 36.64Q28.23 35.29 28.12 33.46L28.13 33.48L28.21 33.55Q27.97 31.56 26.88 30.36L26.90 30.38L26.96 30.44Q25.78 29.14 23.95 29.14ZM23.87 19.66L23.91 19.70L24.00 19.79Q22.57 19.66 21.24 20.15L21.31 20.22L21.18 20.09Q19.97 20.98 20.20 22.84L20.11 22.75L20.18 22.82Q20.62 26.49 23.97 26.49L24.02 26.55L24.10 26.62Q25.58 26.73 26.57 25.59L26.62 25.64L26.58 25.60Q27.55 24.44 27.58 22.88L27.53 22.82L27.58 22.87Q27.57 21.03 26.84 20.42L26.96 20.54L26.97 20.55Q25.23 19.64 23.93 19.72ZM23.69 40.30L23.65 40.26L20.72 40.37L20.63 40.29Q19.13 40.31 17.80 39.44L17.87 39.51L17.88 39.52Q16.41 38.27 16.56 35.42L16.51 35.37L16.56 35.42Q17.13 28.68 20.74 27.69L20.66 27.60L20.70 27.64Q18.39 26.71 17.06 21.34L16.95 21.23L16.97 21.25Q16.74 19.95 16.82 19.15L16.80 19.14L16.74 19.08Q17.09 16.99 20.78 16.95L20.80 16.97L20.71 16.88Q24.96 16.83 26.41 17.02L26.46 17.07L26.41 17.02Q30.28 17.58 30.74 19.60L30.75 19.61L30.67 19.53Q30.76 20.11 30.76 20.49L30.77 20.50L30.85 20.58Q30.76 21.18 30.57 21.79L30.61 21.83L30.59 21.81Q30.03 26.08 27.09 27.60L27.10 27.61L27.17 27.68Q30.59 28.40 31.09 33.69L31.13 33.73L31.19 33.79Q31.19 33.94 31.23 35.24L31.17 35.18L31.08 35.09Q31.30 37.98 29.71 39.05L29.63 38.98L29.58 38.92Q28.22 39.81 23.65 40.26ZM25.88 42.53L25.92 42.57L29.34 42.72L29.29 42.67Q31.00 42.74 32.52 42.01L32.63 42.12L32.49 41.98Q33.65 41.28 33.72 39.41L33.84 39.52L33.87 39.56Q33.82 38.37 33.44 36.43L33.35 36.33L33.51 36.49Q32.56 31.81 30.47 29.95L30.51 29.99L30.31 29.60L29.96 29.18L29.89 28.99L29.87 28.97Q31.51 27.60 32.43 23.45L32.44 23.47L32.40 23.43Q32.41 23.06 32.49 22.22L32.62 22.36L32.55 22.29Q32.60 21.57 32.52 20.96L32.62 21.06L32.44 20.88Q32.46 19.60 31.28 19.11L31.11 18.94L31.20 18.99L31.01 18.87L31.04 18.91Q30.86 18.28 29.68 17.48L29.64 17.43L29.72 17.48L29.69 17.44Q27.60 16.65 23.53 16.46L23.60 16.53L23.56 16.49Q21.96 16.34 20.59 16.45L20.67 16.53L20.67 16.53Q19.90 16.60 18.60 16.75L18.51 16.65L18.51 16.66Q16.66 17.13 16.43 18.76L16.41 18.74L16.45 18.78Q16.38 19.25 16.42 20.05L16.44 20.07L16.44 20.07Q16.43 20.48 17.01 22.84L17.06 22.89L17.08 22.92Q17.85 26.13 19.61 27.46L19.58 27.44L19.74 27.59L19.74 27.59Q16.91 28.83 16.37 34.01L16.30 33.93L16.39 34.03Q16.29 36.32 16.29 37.24L16.15 37.10L16.11 37.07Q16.17 38.84 17.35 39.75L17.36 39.75L17.45 39.85Q17.47 39.83 17.73 40.02L17.76 40.05L17.80 40.09Q18.85 42.39 25.97 42.62ZM25.70 31.61L25.71 31.62L25.65 31.57Q26.61 31.54 27.49 31.99L27.50 32.01L27.35 31.86Q27.79 32.91 27.76 33.44L27.68 33.37L27.75 33.43Q27.71 33.66 27.71 33.97L27.90 34.15L27.70 33.96Q27.71 36.33 25.43 37.16L25.57 37.31L25.51 37.25Q24.74 37.59 23.94 37.47L23.88 37.41L23.93 37.46Q22.78 37.53 21.64 37.07L21.58 37.01L21.63 37.06Q21.37 36.42 21.44 35.43L21.45 35.43L21.57 35.55Q21.60 33.84 22.80 32.62L22.86 32.68L22.75 32.57Q24.12 31.52 25.72 31.63ZM25.86 22.07L25.87 22.07L25.87 22.07Q26.59 21.88 27.12 22.04L27.17 22.08L27.23 22.94L27.18 22.89Q27.26 24.38 26.34 25.38L26.22 25.26L26.27 25.31Q25.32 26.28 23.94 26.09L24.04 26.19L24.09 26.24Q23.10 26.23 22.68 26.00L22.53 25.86L22.51 25.84Q22.63 25.73 22.52 25.04L22.41 24.94L22.51 25.03Q22.19 23.58 23.41 22.74L23.35 22.68L23.42 22.74Q24.45 22.03 25.86 22.06Z"/><path d="M1 32 C92 31,81 18,137 26" stroke="#666" fill="none"/><path fill="#222" d="M53.79 39.80L53.81 39.82L53.89 39.90Q51.90 39.81 49.88 40.01L49.92 40.04L49.82 39.94Q50.46 34.68 50.46 29.84L50.43 29.81L50.60 29.99Q50.53 25.00 49.88 19.79L49.96 19.87L49.86 19.77Q45.24 19.33 42.04 17.66L42.04 17.66L41.41 16.00L41.41 16.00Q41.10 15.38 40.49 14.17L40.50 14.18L40.59 14.27Q45.70 16.97 51.71 17.16L51.69 17.14L51.66 17.11Q57.45 17.19 62.90 15.14L63.01 15.25L62.92 15.16Q62.24 16.62 61.59 18.44L61.72 18.57L61.73 18.58Q58.06 19.82 53.80 20.01L53.69 19.91L53.78 19.99Q53.63 25.05 53.63 30.00L53.54 29.92L53.60 29.98Q53.54 34.87 53.85 39.86ZM63.62 14.50L63.68 14.55L63.70 14.57Q57.75 16.73 51.54 16.54L51.61 16.60L51.55 16.54Q44.88 16.35 39.78 13.38L39.79 13.39L39.92 13.52Q40.72 14.86 42.02 18.13L41.87 17.99L41.99 18.10Q42.57 18.34 43.82 18.91L43.77 18.85L43.74 18.83Q44.18 19.72 44.53 21.25L44.34 21.06L44.43 21.15Q46.63 21.90 49.67 22.13L49.79 22.24L49.74 22.20Q50.05 25.82 50.05 29.59L50.13 29.66L50.14 29.68Q50.19 35.10 49.40 40.47L49.32 40.40L49.27 40.34Q50.96 40.25 51.50 40.25L51.50 40.25L51.65 40.40Q51.51 40.56 51.45 41.23L51.56 41.34L51.42 41.19Q51.42 41.92 51.42 42.26L51.51 42.35L51.39 42.23Q52.67 42.26 54.19 42.33L54.17 42.32L54.06 42.20Q55.12 42.38 56.94 42.54L56.87 42.46L56.97 42.56Q55.60 37.50 55.49 32.32L55.50 32.33L55.57 32.41Q55.47 27.13 56.00 22.22L55.90 22.11L55.88 22.09Q59.88 21.60 63.04 20.38L63.09 20.43L63.02 20.36Q63.64 17.90 64.67 15.85L64.67 15.85L64.77 15.95Q63.40 16.59 62.60 16.90L62.61 16.91L62.56 16.86Q63.04 15.62 63.61 14.48Z"/><path fill="#333" d="M140.34 40.47L140.25 40.37L140.24 40.36Q137.32 36.53 134.69 27.89L134.64 27.83L134.60 27.80Q133.91 25.62 133.11 23.49L133.19 23.57L130.40 32.42L130.36 32.39Q128.56 37.33 126.16 40.56L126.05 40.45L126.19 40.59Q125.30 40.62 123.67 40.77L123.66 40.77L123.68 40.79Q123.76 39.57 123.76 38.31L123.77 38.32L123.75 38.31Q123.73 32.26 120.99 26.14L120.96 26.11L121.03 26.18Q117.97 19.35 112.11 14.36L111.91 14.17L112.06 14.32Q114.04 14.85 116.40 15.38L116.48 15.46L116.48 15.46Q125.14 23.89 126.43 34.86L126.51 34.94L126.55 34.97Q128.17 31.65 129.62 26.28L129.58 26.24L129.49 26.15Q131.48 18.66 131.97 17.25L132.04 17.32L134.21 17.24L134.33 17.36Q135.02 19.38 135.67 21.71L135.63 21.67L136.78 26.01L136.84 26.07Q138.48 31.60 139.88 34.83L139.86 34.80L139.76 34.71Q141.60 23.26 149.52 15.91L149.39 15.79L149.41 15.81Q151.02 15.55 153.99 14.90L153.97 14.88L153.97 14.88Q148.51 19.05 145.46 25.18L145.56 25.28L145.52 25.23Q142.39 31.44 142.39 38.21L142.45 38.28L142.52 38.35Q142.55 39.48 142.63 40.62L142.61 40.60L141.39 40.41L141.39 40.41Q140.73 40.29 140.16 40.29ZM146.41 43.18L146.60 43.37L146.48 43.26Q145.27 39.73 145.39 35.84L145.41 35.86L145.31 35.77Q145.74 24.31 155.10 16.05L155.01 15.96L155.16 16.11Q154.17 16.30 152.23 16.83L152.25 16.86L152.12 16.72Q153.09 15.90 154.99 14.11L154.97 14.09L154.94 14.07Q152.28 14.83 149.34 15.32L149.42 15.39L149.42 15.39Q141.98 22.57 140.07 32.05L139.94 31.92L139.95 31.92Q139.49 30.40 136.63 18.94L136.53 18.84L136.61 18.92Q136.23 19.03 135.28 19.03L135.29 19.05L134.89 17.88L134.98 17.97Q134.75 17.32 134.52 16.83L134.54 16.85L131.74 16.94L131.76 16.96Q130.87 19.35 129.60 24.47L129.60 24.48L129.48 24.35Q128.33 29.60 127.34 32.07L127.36 32.09L127.26 31.99Q125.73 24.14 120.17 17.82L120.18 17.83L120.20 17.85Q119.78 17.84 118.82 17.65L118.77 17.60L118.82 17.65Q117.93 16.65 116.37 15.01L116.49 15.12L116.48 15.12Q113.00 14.23 110.83 13.43L110.87 13.47L110.83 13.43Q116.51 18.12 119.79 24.33L119.89 24.43L119.80 24.34Q123.29 30.99 123.29 37.99L123.36 38.07L123.22 37.93Q123.32 39.59 123.13 41.19L123.04 41.10L123.14 41.19Q123.28 41.11 123.74 41.01L123.74 41.02L123.84 41.11Q124.29 41.02 124.52 41.02L124.46 40.95L124.42 41.94L124.52 42.04Q124.53 42.51 124.61 43.04L124.55 42.98L124.49 42.92Q125.76 42.98 128.04 42.82L127.92 42.70L128.02 42.80Q131.55 37.30 134.29 27.90L134.33 27.94L134.36 27.98Q137.17 36.80 140.14 40.76L140.19 40.81L140.09 40.71Q140.69 40.85 141.52 40.96L141.35 40.79L141.45 40.89Q142.31 41.94 143.37 43.00L143.28 42.91L143.32 42.95Q144.00 42.91 146.40 43.17Z"/><path fill="#333" d="M65.63 18.54L65.52 18.43L65.50 18.41Q64.83 18.85 64.68 19.65L64.76 19.73L64.60 24.70L64.58 24.69Q65.85 24.81 68.05 24.54L68.11 24.60L68.11 24.60Q67.92 24.87 67.88 25.71L67.92 25.75L67.87 25.69Q67.92 26.54 67.92 27.00L67.95 27.03L66.31 27.07L66.44 27.19Q65.58 27.21 64.71 27.21L64.68 27.18L64.59 27.09Q64.69 31.38 64.61 39.76L64.52 39.67L64.52 39.66Q62.47 39.89 60.98 40.58L60.82 40.42L60.80 40.39Q61.95 34.32 61.84 27.08L61.88 27.13L61.84 27.09Q61.26 27.12 59.97 26.85L59.93 26.82L59.81 26.69Q59.89 25.78 59.70 23.84L59.81 23.95L59.75 23.89Q60.76 24.29 61.71 24.48L61.68 24.46L61.83 24.60Q61.69 23.85 61.38 21.38L61.43 21.42L61.41 21.40Q61.12 19.28 61.12 18.33L61.14 18.35L61.14 18.35Q61.15 16.69 62.56 16.12L62.69 16.24L62.57 16.13Q63.53 15.91 68.37 15.07L68.36 15.06L68.29 14.99Q69.14 14.90 69.98 14.78L69.97 14.77L70.02 14.82Q69.64 15.43 69.49 16.31L69.46 16.28L69.23 17.91L69.30 17.98Q68.69 17.87 68.19 17.98L68.09 17.88L68.11 17.90Q67.49 17.89 65.58 18.50ZM71.02 19.63L70.95 19.56L70.98 19.59Q71.25 17.31 71.86 14.76L71.90 14.80L72.03 14.93Q71.27 15.12 69.97 15.73L70.03 15.79L70.36 14.02L70.39 14.05Q69.17 14.23 66.69 14.77L66.65 14.73L66.70 14.78Q65.49 14.82 62.29 15.74L62.32 15.77L62.41 15.85Q60.79 16.21 60.79 18.08L60.84 18.12L60.85 18.14Q60.76 18.36 60.84 18.70L60.85 18.71L60.84 18.70Q61.12 20.09 61.24 21.42L61.14 21.32L61.46 24.12L61.29 23.95Q60.10 23.75 59.45 23.29L59.46 23.29L59.46 23.29Q59.41 24.09 59.45 25.11L59.52 25.18L59.71 27.24L59.60 27.13Q60.38 27.38 61.18 27.46L61.13 27.40L61.16 29.53L61.49 29.48L61.62 29.61Q61.37 35.60 60.38 41.04L60.36 41.03L60.51 41.17Q61.37 40.55 62.55 40.28L62.67 40.40L62.41 42.39L62.51 42.49Q63.71 42.16 65.00 42.13L65.07 42.19L64.91 42.03Q66.13 42.00 67.39 42.26L67.51 42.39L67.38 42.26Q66.58 37.31 66.58 29.36L66.56 29.33L66.61 29.38Q67.80 29.47 69.89 29.54L69.71 29.36L69.72 27.50L69.72 27.50Q69.79 26.62 69.83 25.67L69.81 25.66L69.84 25.69Q69.35 25.77 68.29 26.03L68.29 26.04L68.29 26.04Q68.19 25.25 68.30 23.92L68.41 24.02L68.42 24.04Q67.59 24.27 66.79 24.35L66.69 24.24L66.69 24.25Q66.69 22.83 66.80 21.43L66.92 21.54L66.85 21.47Q67.09 20.92 67.63 20.58L67.59 20.54L67.55 20.50Q68.48 19.79 69.30 19.72L69.23 19.65L69.25 19.66Q70.21 19.73 71.05 19.66Z"/></svg>