<svg xmlns="http://www.w3.org/2000/svg" width="150" height="50" viewBox="0,0,150,50"><path fill="#333" d="M63.12 25.15L63.04 25.07L63.00 25.03Q63.86 25.36 65.84 25.36L65.81 25.33L65.94 32.62L65.86 32.54Q66.01 36.91 66.12 39.80L66.04 39.72L66.05 39.73Q65.67 39.58 65.29 39.58L65.30 39.59L65.31 39.59Q63.84 39.58 62.40 40.91L62.37 40.89L62.38 40.89Q63.17 33.27 62.98 25.01ZM63.08 19.78L61.94 17.12L61.89 17.07Q63.38 15.97 64.10 15.02L64.14 15.05L64.10 15.02Q65.33 17.05 66.74 18.72L66.60 18.57L66.74 18.72Q65.95 20.25 64.58 22.38L64.41 22.21L64.58 22.38Q63.61 21.07 63.04 19.74L63.09 19.79ZM61.87 41.79L61.85 41.77L61.84 41.76Q62.86 40.69 64.12 40.19L64.05 40.13L64.24 40.32Q64.06 40.82 63.95 42.19L64.04 42.28L63.96 42.21Q64.63 41.97 65.28 41.97L65.38 42.07L65.40 42.09Q67.59 42.06 68.99 44.04L69.06 44.11L68.95 44.00Q67.76 36.71 67.83 26.55L67.85 26.57L67.85 26.56Q66.99 26.66 66.15 26.77L66.17 26.79L66.25 25.01L66.29 25.04Q65.19 25.08 64.39 25.01L64.39 25.01L64.39 25.01Q63.50 24.88 62.62 24.38L62.67 24.43L62.69 24.46Q62.85 26.52 62.85 28.57L62.69 28.41L62.75 28.47Q62.71 35.47 61.83 41.76ZM64.43 22.84L64.56 22.97L64.71 22.74L64.70 22.43L64.69 22.42Q65.13 23.24 66.16 24.72L66.25 24.82L66.17 24.73Q67.52 22.39 68.85 18.85L68.86 18.86L68.91 18.91Q68.02 18.13 66.46 16.54L66.36 16.44L66.40 16.48Q66.21 16.59 65.94 17.04L66.03 17.14L66.09 17.19Q65.05 15.85 64.13 14.40L64.07 14.34L64.19 14.45Q62.69 16.04 61.51 16.38L61.51 16.38L61.63 16.51Q62.65 19.88 64.48 22.89Z"/><path fill="#222" d="M21.20 23.08L21.19 23.07L21.09 22.96Q19.44 25.85 16.78 31.48L16.71 31.41L14.64 35.59L14.76 35.71Q13.76 37.49 12.43 39.74L12.44 39.75L12.42 39.72Q12.96 39.81 11.29 39.85L11.34 39.90L11.28 39.84Q11.38 39.95 10.13 39.95L10.10 39.92L9.95 39.77Q9.33 38.39 6.40 31.23L6.29 31.12L6.33 31.17Q4.28 25.91 2.19 22.91L2.07 22.79L2.20 22.92Q2.89 25.94 2.89 29.10L2.96 29.16L2.87 29.07Q2.81 35.53-0.15 41.09L-0.09 41.15L-0.06 41.18Q-1.46 41.46-3.82 42.18L-3.83 42.17L-3.82 42.18Q-0.11 36.53-0.11 29.29L-0.13 29.27L-0.15 29.25Q-0.19 20.26-5.60 13.30L-5.48 13.42L-5.58 13.31Q-3.88 14.10-1.52 14.78L-1.54 14.77L-1.59 14.72Q5.44 21.44 11.53 34.76L11.59 34.82L11.56 34.79Q15.22 27.95 17.43 24.45L17.36 24.38L17.25 24.26Q20.82 18.47 24.78 15.01L24.83 15.06L24.79 15.01Q26.04 14.79 28.40 14.03L28.43 14.05L28.49 14.11Q23.60 20.83 23.60 29.43L23.52 29.35L23.45 29.28Q23.60 36.09 27.02 41.61L27.00 41.59L26.88 41.47Q25.66 41.28 22.92 40.67L22.89 40.64L22.77 40.52Q20.41 35.73 20.41 29.75L20.42 29.76L20.49 29.83Q20.59 26.50 21.28 23.15ZM22.59 40.91L22.60 40.92L22.57 40.89Q23.38 41.13 24.82 41.39L24.75 41.32L24.84 41.41Q25.29 42.17 26.25 43.65L26.21 43.62L26.22 43.63Q28.43 44.12 31.89 45.34L31.81 45.26L31.84 45.29Q25.49 38.86 25.49 29.04L25.62 29.17L25.47 29.02Q25.44 21.26 29.82 15.13L29.85 15.17L27.83 16.03L27.75 15.96Q28.75 14.41 29.40 13.53L29.42 13.56L29.30 13.44Q27.59 14.24 24.96 14.77L24.84 14.64L24.92 14.72Q18.04 20.71 11.99 33.32L12.10 33.43L11.96 33.29Q6.81 22.35 1.86 17.10L1.93 17.17L1.97 17.21Q1.45 17.00 0.88 16.88L0.98 16.98L-0.20 15.72L-0.23 15.69Q-0.87 14.97-1.56 14.36L-1.49 14.44L-1.49 14.43Q-4.47 13.51-6.26 12.78L-6.32 12.73L-6.42 12.63Q-0.28 19.98-0.28 29.39L-0.46 29.20L-0.29 29.37Q-0.31 36.97-4.46 42.84L-4.51 42.79L-4.52 42.77Q-3.79 42.58-2.50 42.17L-2.61 42.05L-2.44 42.23Q-2.64 42.40-4.05 44.50L-4.04 44.51L-4.02 44.53Q-2.30 43.97 1.20 43.20L1.20 43.20L1.29 43.29Q4.96 36.19 4.77 28.42L4.80 28.45L4.73 28.39Q6.22 32.35 9.69 40.23L9.77 40.31L9.78 40.33Q10.04 40.28 10.27 40.28L10.31 40.31L10.78 40.26L10.72 40.19Q11.22 40.92 12.02 42.22L11.93 42.13L11.94 42.14Q13.68 42.24 13.68 42.24L13.60 42.16L13.69 42.25Q14.70 42.23 15.34 42.31L15.24 42.20L15.21 42.17Q16.87 38.24 20.22 30.25L20.28 30.31L20.15 30.17Q20.03 35.62 22.62 40.95Z"/><path fill="#222" d="M129.00 40.39L128.95 40.34L128.99 40.38Q124.86 40.55 123.87 38.23L123.86 38.22L123.95 38.31Q124.73 37.38 126.29 35.59L126.17 35.46L126.24 35.54Q126.75 37.57 129.76 37.69L129.84 37.77L129.72 37.65Q133.09 37.71 134.73 36.37L134.77 36.42L134.68 36.33Q136.14 34.78 136.07 32.08L136.03 32.05L136.13 32.14Q135.95 27.05 131.15 27.28L131.07 27.19L131.14 27.26Q128.28 27.38 126.53 28.64L126.56 28.66L126.23 28.49L126.04 28.37L126.09 28.42Q126.35 25.18 126.23 22.44L126.19 22.39L126.25 22.45Q126.17 19.86 125.83 16.55L125.85 16.58L125.82 16.54Q129.46 17.48 133.27 17.37L133.37 17.47L133.36 17.45Q137.15 17.37 140.73 16.11L140.75 16.13L140.17 17.65L140.06 17.53Q139.81 18.35 139.62 19.19L139.51 19.08L139.63 19.20Q136.41 20.13 132.53 20.13L132.65 20.25L132.53 20.13Q131.21 20.25 129.72 20.10L129.61 19.99L129.71 20.09Q129.66 20.80 129.32 25.25L129.18 25.11L129.18 25.11Q130.12 24.77 132.18 24.61L132.12 24.55L132.23 24.66Q135.82 24.75 137.27 26.43L137.32 26.48L137.23 26.39Q138.77 28.09 139.04 31.93L138.87 31.76L138.95 31.84Q139.19 36.00 137.97 38.02L137.96 38.01L137.92 37.96Q136.01 39.98 132.69 40.20L132.66 40.17L132.58 40.09Q131.69 40.27 129.03 40.42ZM134.99 42.61L135.00 42.63L135.09 42.72Q138.55 42.83 140.46 41.72L140.35 41.61L140.31 41.58Q141.31 40.07 141.31 37.97L141.42 38.08L141.43 38.09Q141.42 35.00 140.47 30.89L140.43 30.84L140.48 30.89Q140.12 29.17 138.90 27.76L138.83 27.69L138.78 27.67L138.65 27.47L138.30 27.27L138.25 27.22Q137.91 26.46 137.26 25.78L137.28 25.79L137.35 25.90L137.39 25.94Q135.86 24.26 132.17 24.26L132.10 24.19L131.82 24.18L131.93 24.29Q131.96 23.67 132.15 22.57L132.07 22.49L132.06 22.47Q137.08 22.62 141.11 20.98L141.13 21.00L141.08 20.95Q141.48 19.52 142.43 16.70L142.41 16.68L140.51 17.83L140.42 17.74Q140.75 16.55 141.25 15.41L141.31 15.47L141.25 15.41Q137.49 16.94 133.37 17.01L133.30 16.94L133.38 17.02Q129.23 17.10 125.27 15.99L125.19 15.91L125.20 15.92Q126.00 20.45 126.00 24.87L125.89 24.76L125.88 24.74Q125.86 26.63 125.74 28.53L125.89 28.68L125.91 28.70Q126.13 28.84 126.70 29.15L126.71 29.16L126.72 29.17Q127.00 28.87 127.64 28.53L127.72 28.60L127.65 28.53Q127.61 29.29 127.38 30.82L127.35 30.79L127.30 30.74Q127.84 31.04 128.25 31.27L128.26 31.28L128.25 31.27Q130.98 29.46 132.84 29.46L132.79 29.42L132.80 29.42Q134.16 29.45 135.34 30.09L135.44 30.20L135.41 30.16Q135.76 31.21 135.80 32.16L135.70 32.06L135.83 32.19Q135.87 34.74 134.84 35.84L134.74 35.74L134.72 35.72Q133.51 37.10 131.26 37.33L131.15 37.21L131.20 37.27Q130.33 37.42 129.64 37.34L129.61 37.31L129.48 37.18Q128.77 37.20 128.01 36.85L128.00 36.84L127.93 36.58L127.76 36.64L127.88 36.76Q127.02 36.20 126.48 34.87L126.44 34.82L126.40 34.79Q125.24 36.36 123.56 38.49L123.54 38.48L123.44 38.37Q123.86 39.14 124.70 40.09L124.68 40.07L124.55 39.94Q125.75 41.90 128.56 42.39L128.53 42.36L128.56 42.39Q129.62 42.50 134.99 42.61Z"/><path fill="#222" d="M116.81 25.02L116.80 25.01L116.88 25.10Q117.72 25.40 119.70 25.40L119.72 25.41L119.80 32.66L119.66 32.51Q119.82 36.91 119.94 39.80L119.81 39.67L119.92 39.78Q119.56 39.65 119.18 39.65L119.08 39.55L119.15 39.62Q117.76 39.68 116.32 41.01L116.24 40.94L116.32 41.01Q117.09 33.37 116.90 25.11ZM116.90 19.78L115.74 17.10L115.77 17.13Q117.36 16.13 118.09 15.18L117.94 15.04L118.03 15.12Q119.14 17.03 120.55 18.71L120.53 18.69L120.43 18.59Q119.62 20.10 118.25 22.23L118.24 22.22L118.31 22.30Q117.46 21.10 116.89 19.77L116.95 19.83ZM115.79 41.90L115.81 41.91L115.77 41.88Q116.65 40.65 117.90 40.16L117.99 40.24L118.02 40.28Q118.05 40.99 117.93 42.36L117.85 42.28L117.89 42.32Q118.61 42.12 119.25 42.12L119.15 42.02L119.21 42.08Q121.32 41.98 122.73 43.96L122.90 44.13L122.89 44.13Q121.51 36.65 121.58 26.48L121.54 26.44L121.72 26.62Q120.95 26.81 120.12 26.92L120.06 26.86L120.10 25.03L119.97 24.91Q119.03 25.11 118.23 25.03L118.29 25.09L118.18 24.98Q117.42 24.98 116.54 24.48L116.56 24.50L116.51 24.45Q116.51 26.35 116.51 28.41L116.67 28.57L116.67 28.57Q116.59 35.54 115.72 41.82ZM118.28 22.88L118.22 22.81L118.39 22.60L118.66 22.57L118.65 22.56Q119.06 23.35 120.09 24.83L120.07 24.82L120.08 24.82Q121.35 22.40 122.68 18.86L122.69 18.87L122.62 18.80Q121.75 18.05 120.19 16.45L120.25 16.50L120.32 16.58Q120.05 16.61 119.78 17.07L119.77 17.06L119.81 17.09Q118.79 15.77 117.88 14.33L118.02 14.46L118.06 14.51Q116.58 16.11 115.40 16.45L115.31 16.36L115.40 16.46Q116.53 19.95 118.36 22.96Z"/><path fill="#222" d="M113.58 23.27L113.60 23.29L113.50 23.19Q111.83 19.16 105.62 19.35L105.71 19.44L105.77 19.50Q101.17 19.43 99.19 20.87L99.32 21.00L99.32 21.00Q96.96 22.80 96.96 26.91L96.85 26.79L96.83 28.64L96.84 28.65Q96.90 37.55 105.93 37.55L105.88 37.50L105.83 37.45Q108.02 37.59 109.51 36.79L109.52 36.80L109.49 36.77Q111.28 35.71 111.13 33.84L111.13 33.84L111.10 33.81Q110.84 31.65 107.15 30.74L107.34 30.92L105.39 30.92L105.28 30.80Q104.26 30.74 103.31 30.78L103.39 30.86L103.37 30.84Q103.37 29.89 103.33 27.99L103.39 28.04L103.31 27.97Q111.03 28.03 115.21 27.69L115.14 27.61L115.22 27.69Q115.21 28.56 115.21 29.36L115.12 29.26L115.19 29.33Q115.10 30.05 115.14 30.85L115.23 30.94L115.17 30.88Q114.16 30.97 114.16 30.97L114.02 30.83L114.16 30.98Q112.75 30.93 113.13 30.93L113.15 30.95L113.07 30.87Q114.18 32.51 114.56 34.49L114.58 34.51L114.56 34.49Q114.68 35.22 114.68 35.68L114.70 35.70L114.64 35.63Q114.62 40.27 105.83 40.27L105.84 40.28L105.83 40.27Q98.75 40.31 96.16 38.22L96.15 38.20L96.09 38.15Q94.09 35.76 94.09 30.70L94.22 30.83L94.23 30.84Q94.12 29.66 93.97 26.96L94.11 27.10L93.97 26.96Q93.94 24.72 93.98 23.35L94.00 23.37L93.88 23.26Q94.01 20.41 95.38 18.82L95.38 18.81L95.46 18.90Q97.97 16.80 102.85 16.61L102.73 16.50L105.56 16.59L105.43 16.45Q108.53 16.36 111.95 16.77L111.96 16.78L111.98 16.80Q115.76 17.31 116.71 20.54L116.70 20.53L116.76 20.59Q115.77 21.54 113.67 23.36ZM115.05 25.54L115.07 25.45L115.02 25.40Q116.25 24.35 118.12 22.37L118.18 22.43L118.11 22.36Q117.83 21.43 116.84 19.72L116.89 19.77L116.88 19.76Q115.68 17.07 111.87 16.42L111.89 16.45L111.98 16.53Q109.75 16.32 105.45 16.01L105.48 16.05L102.80 16.19L102.68 16.07Q97.56 16.31 94.97 18.29L95.04 18.36L94.95 18.27Q93.59 19.92 93.47 23.00L93.50 23.02L93.56 23.09Q93.65 22.72 93.88 28.20L93.88 28.20L93.71 28.04Q93.82 29.47 93.89 32.21L93.92 32.25L93.94 32.26Q94.01 36.59 95.76 38.54L95.77 38.55L95.82 38.59Q96.22 39.46 97.10 40.33L97.09 40.32L97.15 40.39Q100.01 42.21 105.53 42.55L105.50 42.53L108.38 42.71L108.32 42.64Q110.04 42.88 112.06 42.77L112.01 42.72L111.98 42.68Q113.41 42.59 115.50 42.06L115.63 42.19L115.58 42.14Q117.42 41.55 117.39 39.22L117.36 39.20L117.54 39.38Q117.54 38.12 116.47 35.34L116.38 35.24L116.44 35.31Q116.10 34.36 115.57 33.56L115.53 33.52L115.50 33.49Q116.09 33.51 117.27 33.70L117.32 33.75L117.40 33.83Q116.93 30.05 116.97 29.36L117.12 29.51L117.00 29.40Q116.73 29.51 116.31 29.47L116.23 29.39L116.35 29.51Q115.85 29.35 115.47 29.42L115.42 29.37L115.55 29.50Q115.50 28.35 115.57 27.28L115.54 27.25L115.53 27.24Q109.28 27.76 102.99 27.65L103.04 27.70L102.96 27.61Q103.03 28.56 103.03 29.47L103.14 29.58L103.10 31.30L103.02 31.21Q103.52 31.34 103.94 31.30L103.80 31.15L103.90 31.26Q104.22 31.15 104.67 31.15L104.76 31.24L104.68 31.16Q104.79 31.72 104.82 32.22L104.69 32.08L104.84 32.23Q104.83 32.68 104.79 33.17L104.71 33.10L104.77 33.16Q105.76 33.08 106.79 33.04L106.72 32.97L106.84 33.09Q107.79 33.01 108.81 33.05L108.91 33.15L108.85 33.08Q109.85 33.28 110.72 33.66L110.83 33.77L110.78 33.76L110.77 33.75Q111.01 35.36 109.34 36.28L109.36 36.30L109.19 36.13Q107.67 37.19 105.95 37.19L105.88 37.12L105.90 37.14Q102.10 37.19 99.66 35.43L99.61 35.38L99.62 35.39Q98.57 33.28 98.72 30.72L98.73 30.73L98.92 30.92Q99.12 26.02 100.96 24.02L100.96 24.02L100.89 23.94Q102.73 21.94 107.42 21.64L107.44 21.67L107.47 21.69Q111.24 21.58 113.18 23.37L113.05 23.24L113.20 23.38Q113.22 23.45 113.34 23.64L113.19 23.50L113.47 23.66L113.48 23.66Q113.97 24.27 114.54 25.37L114.63 25.46L115.00 25.50Z"/><path fill="#333" d="M48.77 26.77L48.73 26.73L48.84 26.83Q50.54 26.90 52.37 26.90L52.54 27.07L52.44 26.97Q54.16 26.90 55.99 26.75L56.03 26.80L56.09 26.86Q55.87 27.39 55.87 28.12L56.02 28.27L55.95 29.53L55.97 29.55Q53.66 29.60 48.91 29.72L48.88 29.69L48.81 29.62Q48.82 35.57 47.68 40.56L47.68 40.56L47.69 40.57Q45.48 41.25 43.99 42.05L43.96 42.02L44.05 42.11Q46.32 35.24 46.05 28.12L46.10 28.17L46.03 28.10Q45.79 20.97 43.13 14.31L43.10 14.28L43.17 14.36Q46.86 16.90 51.62 17.13L51.52 17.03L51.57 17.08Q56.13 17.14 60.28 15.39L60.27 15.38L60.31 15.42Q60.13 16.35 59.90 17.15L59.96 17.21L59.39 18.73L59.30 18.64Q56.71 19.86 53.74 20.01L53.64 19.91L53.72 19.99Q50.75 20.11 47.90 19.38L47.85 19.34L47.89 19.38Q48.62 22.81 48.81 26.80ZM61.05 14.83L61.01 14.80L61.10 14.88Q56.35 16.87 51.48 16.57L51.62 16.71L51.57 16.66Q46.22 16.34 42.49 13.48L42.45 13.44L42.48 13.47Q45.38 20.45 45.69 28.06L45.62 28.00L45.65 28.03Q45.99 35.97 43.47 42.75L43.53 42.81L43.56 42.84Q44.16 42.37 45.53 41.72L45.54 41.73L45.44 41.63Q45.26 42.41 44.69 43.93L44.81 44.05L44.80 44.04Q47.14 42.99 50.03 42.49L49.91 42.37L49.98 42.44Q50.61 37.59 50.80 31.88L50.78 31.86L50.74 31.82Q52.61 31.86 54.43 31.86L54.34 31.76L54.29 31.72Q56.27 31.90 58.09 32.09L57.94 31.94L58.08 32.08Q57.93 31.09 57.93 30.18L57.91 30.16L57.90 28.24L57.93 28.28Q57.23 28.45 56.39 28.45L56.31 28.37L56.27 28.33Q56.24 27.42 56.32 26.40L56.30 26.38L56.28 26.35Q55.09 26.73 53.68 26.73L53.62 26.67L53.58 26.63Q52.24 26.70 50.87 26.66L50.87 26.65L50.68 24.34L50.76 24.42Q50.68 23.27 50.56 22.20L50.54 22.18L50.66 22.30Q51.61 22.33 52.60 22.33L52.55 22.28L52.66 22.40Q57.39 22.36 61.00 20.46L60.86 20.31L60.98 20.44Q61.51 18.64 62.42 16.02L62.29 15.89L62.36 15.96Q61.10 16.83 60.30 17.17L60.21 17.08L60.18 17.05Q60.58 16.42 61.08 14.86Z"/><path d="M15 11 C56 32,93 14,137 12" stroke="#777" fill="none"/><path fill="#222" d="M25.01 30.52L25.00 30.51L24.83 30.35Q21.48 36.82 18.05 40.78L17.93 40.66L18.04 40.77Q16.16 41.16 13.72 42.04L13.69 42.01L13.72 42.04Q18.67 36.48 23.43 28.06L23.34 27.98L23.38 28.02Q18.78 21.06 12.80 14.66L12.70 14.56L12.73 14.59Q15.65 15.80 17.94 16.29L17.94 16.30L17.99 16.35Q22.73 21.66 25.17 25.62L25.15 25.60L25.00 25.45Q27.53 21.05 31.45 16.64L31.49 16.67L31.42 16.60Q33.09 16.37 36.28 15.61L36.38 15.70L36.40 15.73Q30.30 22.15 26.84 28.09L26.72 27.97L26.80 28.05Q31.88 36.64 36.26 41.20L36.22 41.16L36.24 41.18Q33.80 40.53 31.71 40.30L31.63 40.23L31.67 40.27Q28.94 37.35 25.02 30.53ZM31.48 40.49L31.58 40.60L31.61 40.63Q31.76 40.51 32.22 40.62L32.23 40.64L32.37 40.78Q33.06 41.43 34.59 43.03L34.63 43.08L34.58 43.02Q37.92 43.81 40.96 45.18L40.97 45.19L41.10 45.32Q33.90 38.65 28.80 29.90L28.83 29.92L28.84 29.94Q32.48 23.19 38.38 16.34L38.40 16.35L38.40 16.36Q37.00 17.05 34.83 17.58L34.80 17.55L34.85 17.60Q35.72 16.68 37.47 14.89L37.44 14.86L37.54 14.96Q35.00 15.69 31.30 16.26L31.46 16.41L31.31 16.26Q27.86 20.05 25.27 24.35L25.33 24.41L25.29 24.37Q24.41 22.81 23.23 21.32L23.27 21.36L21.05 18.49L20.61 18.44L20.49 18.32Q20.35 18.33 20.12 18.25L20.29 18.42L20.30 18.43Q19.59 17.56 18.10 16.00L18.06 15.96L18.06 15.96Q14.17 15.00 11.58 13.63L11.59 13.64L11.71 13.76Q18.37 20.95 22.94 27.99L22.92 27.97L23.01 28.07Q18.49 36.23 12.74 42.81L12.81 42.88L12.78 42.85Q13.98 42.07 16.11 41.50L16.23 41.61L14.86 42.99L14.78 42.91Q14.95 43.07 13.61 44.41L13.51 44.30L13.63 44.42Q16.55 43.26 19.71 42.77L19.70 42.77L19.65 42.72Q23.79 38.33 26.38 33.57L26.36 33.55L26.28 33.47Q28.86 37.73 31.56 40.58Z"/><path fill="#222" d="M29.41 14.37L29.27 14.23L29.29 14.25Q33.13 16.84 37.89 17.06L37.93 17.10L37.98 17.16Q42.49 17.21 46.75 15.46L46.78 15.48L46.85 15.55Q46.61 16.12 45.85 18.89L45.70 18.75L45.78 18.82Q43.07 19.89 40.10 20.04L40.13 20.07L40.15 20.09Q37.17 20.23 34.28 19.50L34.23 19.46L34.26 19.49Q34.85 23.01 35.04 26.66L35.09 26.72L35.15 26.77Q37.01 26.84 38.61 26.80L38.77 26.97L38.78 26.97Q39.89 26.87 42.29 26.75L42.29 26.75L42.40 26.87Q42.35 27.50 42.35 28.19L42.26 28.10L42.24 29.40L42.24 29.41Q39.87 29.44 35.08 29.52L35.01 29.45L35.08 29.52Q35.02 33.57 34.45 37.57L34.50 37.62L34.61 37.73Q37.24 37.08 39.98 37.20L39.83 37.05L39.86 37.08Q42.53 37.12 45.12 37.96L45.27 38.12L45.25 38.09Q45.29 38.85 45.55 39.61L45.58 39.64L45.88 41.01L45.88 41.01Q42.83 39.86 39.40 39.86L39.30 39.76L39.42 39.87Q34.49 39.81 30.22 42.06L30.16 41.99L30.20 42.03Q32.54 35.24 32.27 28.12L32.29 28.13L32.29 28.14Q32.01 20.97 29.35 14.31ZM29.74 42.79L29.76 42.81L29.67 42.73Q30.98 42.05 31.74 41.71L31.68 41.65L31.79 41.76Q31.48 42.40 30.91 43.93L31.01 44.03L30.94 43.95Q35.51 42.02 40.57 42.28L40.66 42.37L40.56 42.27Q45.74 42.58 49.74 45.29L49.83 45.37L49.76 45.30Q48.56 42.73 47.87 40.79L47.91 40.83L47.83 40.74Q46.80 40.10 45.81 39.75L45.87 39.81L45.96 39.90Q45.53 38.48 45.38 37.69L45.33 37.63L45.33 37.64Q42.30 36.70 39.14 36.70L39.12 36.68L39.18 36.74Q38.01 36.71 36.87 36.83L36.77 36.73L36.90 36.86Q36.96 35.55 36.99 34.33L36.97 34.31L37.08 31.83L37.13 31.87Q38.91 31.75 40.70 31.79L40.60 31.69L40.74 31.83Q42.52 31.82 44.31 31.97L44.40 32.06L44.40 32.06Q44.15 30.94 44.15 29.99L44.29 30.13L44.16 28.09L43.37 28.18L43.34 28.15Q42.96 28.26 42.50 28.26L42.47 28.23L42.47 28.22Q42.58 27.66 42.73 26.36L42.75 26.38L42.74 26.37Q41.19 26.65 40.01 26.68L39.99 26.66L39.85 26.52Q39.02 26.64 37.19 26.57L37.08 26.46L37.19 26.56Q37.15 25.19 36.96 22.38L36.82 22.23L36.96 22.37Q37.97 22.47 38.96 22.47L38.97 22.48L38.92 22.43Q43.60 22.40 47.30 20.49L47.24 20.43L47.31 20.51Q47.83 18.10 48.71 15.89L48.75 15.93L48.78 15.96Q47.35 16.70 46.51 17.05L46.64 17.17L46.59 17.12Q46.82 16.29 47.28 14.73L47.38 14.83L47.31 14.76Q42.80 17.03 37.93 16.72L37.90 16.69L37.91 16.70Q32.59 16.37 28.75 13.51L28.78 13.55L28.67 13.44Q31.63 20.47 31.93 28.08L31.86 28.02L31.84 27.99Q32.22 35.99 29.71 42.77Z"/><path fill="#111" d="M72.11 49.69L72.14 49.73L72.00 49.58Q75.03 45.84 77.93 39.63L77.86 39.57L77.85 39.56Q74.66 32.94 68.57 24.87L68.71 25.01L68.65 24.95Q70.61 26.16 73.39 26.80L73.30 26.71L73.34 26.75Q76.77 31.33 79.21 36.54L79.36 36.69L79.33 36.66Q81.50 31.36 84.58 26.95L84.49 26.86L84.52 26.89Q86.69 26.51 88.79 25.71L88.76 25.69L88.87 25.80Q85.34 29.50 81.88 36.92L81.96 37.01L79.03 42.91L79.20 43.07Q77.71 46.16 75.96 48.79L75.93 48.75L75.94 48.76Q73.50 49.11 72.06 49.64ZM78.30 51.05L78.23 50.98L78.16 50.91Q79.85 47.99 81.29 44.72L81.37 44.79L84.12 38.48L84.03 38.39Q87.54 30.37 90.85 26.37L91.00 26.52L90.83 26.35Q89.56 27.09 87.65 27.78L87.67 27.79L88.69 26.37L88.71 26.40Q89.34 25.77 89.94 25.08L89.80 24.94L89.87 25.01Q87.30 26.16 84.44 26.62L84.35 26.53L84.42 26.60Q81.57 30.41 79.63 34.86L79.60 34.83L79.72 34.96Q78.12 31.68 76.33 28.87L76.27 28.80L76.31 28.85Q76.11 28.83 75.75 28.79L75.75 28.80L75.75 28.80Q75.39 28.76 75.20 28.76L75.22 28.78L75.22 28.78Q74.43 27.49 73.48 26.35L73.47 26.35L73.37 26.25Q70.23 25.62 67.49 23.90L67.61 24.02L67.48 23.89Q73.79 31.96 77.48 39.57L77.48 39.57L77.49 39.57Q75.32 44.65 71.25 50.28L71.19 50.22L71.20 50.23Q72.10 50.02 72.90 49.87L72.91 49.89L74.41 49.40L74.40 49.40Q73.88 50.20 72.70 51.84L72.62 51.77L72.60 51.74Q74.99 51.24 78.27 51.02Z"/><path fill="#333" d="M84.71 15.94L84.70 15.94L84.69 15.93Q86.51 20.71 87.08 25.89L87.02 25.83L87.08 25.89Q90.76 21.73 96.66 16.89L96.74 16.98L96.61 16.85Q99.84 16.57 102.47 15.77L102.45 15.76L95.94 21.43L95.94 21.43Q92.55 24.40 89.70 27.26L89.72 27.28L89.77 27.32Q97.55 36.29 102.62 41.01L102.73 41.12L102.78 41.18Q99.63 40.20 97.31 40.05L97.24 39.98L97.39 40.13Q91.56 34.68 87.26 28.85L87.30 28.89L87.16 28.75Q87.42 35.52 85.55 40.85L85.50 40.79L85.53 40.83Q85.18 40.75 84.69 40.94L84.65 40.90L84.66 41.10L84.69 41.13Q84.52 41.19 81.97 42.10L81.87 42.00L82.03 42.16Q84.83 35.44 84.49 27.98L84.45 27.95L84.62 28.11Q84.28 20.77 80.74 14.26L80.62 14.14L81.29 14.55L81.68 14.82L81.70 14.81L81.60 14.70Q82.51 15.27 84.72 15.95ZM84.83 15.50L84.81 15.48L84.85 15.51Q82.69 15.07 80.07 13.55L79.91 13.40L79.97 13.46Q84.30 20.79 84.30 29.74L84.36 29.80L84.29 29.73Q84.25 36.69 81.28 42.74L81.37 42.84L83.28 41.85L83.29 41.87Q82.92 42.90 82.23 44.19L82.29 44.25L82.23 44.19Q84.53 43.45 86.48 43.03L86.39 42.94L86.57 42.89L86.63 42.95Q86.73 42.75 87.30 42.59L87.38 42.68L87.31 42.60Q89.07 36.79 89.18 31.99L89.10 31.91L89.12 31.93Q91.24 34.47 93.06 36.33L93.12 36.39L93.12 36.39Q94.21 37.40 97.22 40.37L97.29 40.44L97.29 40.44L97.26 40.41Q98.19 41.16 100.06 42.75L100.07 42.77L100.21 42.90Q104.03 43.56 107.49 45.28L107.40 45.18L107.50 45.28Q98.11 36.62 91.87 29.20L91.89 29.22L91.96 29.29Q96.41 25.06 105.16 16.45L105.02 16.31L105.04 16.33Q102.59 17.57 100.57 17.95L100.62 18.00L100.46 17.84Q101.68 16.85 104.00 14.83L104.02 14.85L104.14 14.97Q100.07 16.42 96.72 16.61L96.65 16.55L96.69 16.58Q93.75 18.78 88.87 23.46L88.77 23.36L88.74 23.33Q88.38 20.76 87.81 18.21L87.96 18.35L87.94 18.34Q86.75 18.17 85.76 17.83L85.79 17.86L85.63 17.70Q85.41 16.95 84.84 15.51Z"/></svg>