<svg xmlns="http://www.w3.org/2000/svg" width="150" height="50" viewBox="0,0,150,50"><path fill="#111" d="M90.26 39.98L90.18 39.90L90.14 39.86Q85.95 39.29 84.12 37.84L84.29 38.00L84.23 37.95Q82.36 36.46 81.94 33.45L82.00 33.51L82.00 33.51Q81.90 33.06 81.56 28.31L81.66 28.41L81.56 28.31Q81.66 27.20 81.59 25.94L81.65 26.00L81.63 25.98Q81.44 20.92 83.64 19.16L83.49 19.01L83.49 19.01Q86.30 17.06 94.06 16.37L94.00 16.31L94.10 16.41Q95.37 16.19 97.00 16.23L97.01 16.24L96.91 16.13Q96.90 16.12 99.87 16.12L100.04 16.30L100.05 16.30Q100.82 16.24 102.54 16.39L102.58 16.44L102.58 16.44Q101.99 17.29 100.96 20.38L100.91 20.33L101.07 20.49Q98.93 19.22 95.92 19.22L95.90 19.20L95.94 19.23Q95.03 19.09 94.23 19.17L94.33 19.27L94.27 19.20Q89.16 19.65 86.65 21.63L86.77 21.76L86.74 21.72Q84.70 23.30 84.54 26.65L84.51 26.62L84.60 26.70Q84.50 27.25 84.53 28.50L84.55 28.53L84.53 28.50Q84.57 33.26 86.97 35.35L87.08 35.47L87.00 35.38Q89.18 37.34 94.17 37.65L94.26 37.73L94.22 37.70Q97.36 37.87 100.37 36.08L100.37 36.08L100.36 36.07Q100.91 38.75 101.52 40.12L101.62 40.23L101.53 40.13Q99.46 40.42 97.82 40.39L97.82 40.38L97.91 40.47Q93.29 40.27 90.17 39.89ZM105.33 43.66L105.27 43.60L105.41 43.75Q103.49 40.60 102.80 38.02L102.87 38.09L102.81 38.03Q102.40 38.30 101.41 38.68L101.49 38.77L101.50 38.77Q101.11 37.92 100.92 37.08L100.99 37.15L100.53 35.36L100.58 35.41Q97.26 37.43 94.14 37.31L94.16 37.34L94.06 37.23Q89.77 37.01 87.44 35.26L87.55 35.36L87.59 35.41Q86.45 33.58 86.53 30.65L86.44 30.56L86.57 30.69Q86.71 26.19 89.19 24.06L89.19 24.06L89.18 24.06Q91.15 21.99 95.83 21.38L95.86 21.40L95.97 21.51Q96.69 21.32 97.41 21.32L97.49 21.40L97.34 21.25Q100.16 21.29 102.26 22.82L102.31 22.87L102.25 22.81Q102.88 20.82 104.10 17.58L104.08 17.56L104.10 17.58Q103.74 17.48 103.19 17.43L103.16 17.40L103.23 17.47Q102.64 17.37 102.37 17.37L102.48 17.48L102.46 17.46Q102.55 16.83 103.01 15.84L103.01 15.84L102.98 15.82Q102.75 15.81 100.26 15.74L100.36 15.83L100.34 15.82Q97.75 15.64 97.10 15.68L97.20 15.78L97.23 15.81Q86.66 16.09 83.20 18.68L83.11 18.59L83.27 18.76Q81.12 20.45 81.12 24.37L81.22 24.47L81.19 24.44Q81.26 25.61 81.37 28.32L81.38 28.32L81.25 28.19Q81.45 31.82 81.68 33.53L81.73 33.58L81.59 33.44Q82.04 36.63 83.63 38.15L83.60 38.12L83.71 38.23Q84.03 38.73 85.28 39.88L85.32 39.91L85.42 40.01Q88.68 41.79 93.93 42.55L93.80 42.41L93.99 42.61Q100.25 43.39 105.24 43.58Z"/><path d="M2 2 C56 37,85 25,134 10" stroke="#222" fill="none"/><path fill="#444" d="M128.93 19.40L128.89 19.36L128.87 19.34Q129.78 23.65 129.94 27.23L129.90 27.19L129.96 27.25Q131.08 27.34 132.15 27.34L132.08 27.27L134.26 27.25L134.25 27.24Q135.22 27.14 136.10 25.73L136.13 25.76L136.08 25.72Q136.92 24.65 137.03 23.47L136.93 23.37L137.02 23.45Q137.32 20.37 133.10 19.88L133.10 19.88L133.11 19.89Q131.58 20.00 128.96 19.43ZM129.99 30.01L129.87 29.90L129.86 29.89Q129.88 36.19 128.74 40.61L128.70 40.57L128.62 40.49Q127.27 41.01 124.95 42.07L124.87 42.00L124.98 42.10Q127.31 35.41 127.05 28.14L127.13 28.22L127.08 28.17Q126.76 20.77 123.98 14.34L123.85 14.21L123.98 14.34Q128.15 17.14 134.39 17.14L134.25 16.99L134.28 17.03Q140.37 17.06 140.52 20.52L140.57 20.58L140.62 20.62Q140.68 23.04 139.69 25.71L139.73 25.75L139.60 25.62Q139.17 26.71 138.22 27.93L138.18 27.89L138.18 27.90Q136.97 29.62 134.42 29.88L134.41 29.87L134.49 29.95Q132.18 29.92 129.93 29.96ZM135.99 32.14L136.02 32.16L136.07 32.22Q140.13 32.36 141.39 27.56L141.54 27.71L141.38 27.55Q142.43 24.00 142.28 21.98L142.23 21.93L142.22 21.92Q142.19 20.48 141.43 19.49L141.34 19.40L141.47 19.53Q141.11 19.17 140.61 18.94L140.61 18.94L140.62 18.95Q140.63 18.80 140.02 18.04L139.95 17.97L139.83 17.86Q138.40 16.65 134.44 16.65L134.37 16.58L134.46 16.68Q127.61 16.71 123.38 13.55L123.32 13.49L123.28 13.45Q126.48 20.57 126.75 28.03L126.81 28.10L126.65 27.94Q127.06 35.73 124.39 42.81L124.42 42.83L124.28 42.70Q125.44 42.14 126.43 41.76L126.51 41.84L126.09 42.94L126.12 42.97Q125.81 43.43 125.54 44.00L125.66 44.11L125.53 43.98Q127.96 42.95 130.85 42.42L130.97 42.53L131.00 42.56Q131.76 36.97 131.84 32.25L131.73 32.14L131.79 32.20Q132.90 32.13 133.89 32.13L133.96 32.20L133.94 32.18Q135.30 32.21 136.10 32.24ZM135.07 22.24L135.03 22.19L135.11 22.27Q135.64 22.31 136.63 22.53L136.56 22.47L136.52 22.43Q136.64 22.66 136.68 22.97L136.72 23.01L136.80 23.08Q136.77 23.28 136.69 23.55L136.75 23.61L136.75 23.60Q136.49 24.68 135.76 25.55L135.91 25.70L135.93 25.71Q135.29 26.71 134.26 26.90L134.23 26.87L134.26 26.90Q133.44 26.81 131.80 26.81L131.84 26.84L131.85 26.85Q131.85 24.60 131.62 22.24L131.62 22.25L133.32 22.27L133.27 22.22Q134.16 22.28 135.04 22.20Z"/><path fill="#222" d="M64.67 19.77L64.56 19.66L64.59 19.69Q62.60 19.80 61.65 19.95L61.74 20.03L61.62 19.92Q59.97 20.14 58.76 20.67L58.70 20.61L58.75 20.67Q55.19 22.05 55.08 26.74L55.22 26.89L55.15 26.81Q55.10 29.50 55.75 32.43L55.78 32.46L55.74 32.43Q56.67 36.52 60.29 37.70L60.16 37.57L60.18 37.59Q62.08 38.15 63.52 38.00L63.65 38.13L64.08 38.10L63.97 37.99Q64.21 38.04 64.40 38.07L64.47 38.14L64.44 38.11Q64.47 37.99 64.62 37.96L64.62 37.95L64.72 38.05Q67.27 37.72 68.64 37.14L68.68 37.18L65.17 33.71L65.07 33.61Q65.46 33.35 66.07 32.74L66.06 32.73L67.04 31.89L66.88 31.73Q68.70 33.77 70.68 35.83L70.82 35.97L70.83 35.98Q73.15 34.15 73.41 28.78L73.40 28.77L73.38 28.75Q73.49 27.86 73.49 26.95L73.41 26.87L73.38 26.84Q73.48 21.27 68.41 20.16L68.28 20.03L68.34 20.09Q67.18 19.92 64.66 19.77ZM77.38 41.77L77.28 41.67L77.41 41.80Q76.83 42.25 75.65 43.13L75.47 42.95L71.23 39.43L71.20 39.40Q68.70 40.59 64.44 40.63L64.49 40.68L64.50 40.69Q57.78 40.63 54.96 38.39L54.97 38.40L55.03 38.46Q53.26 36.68 52.80 33.71L52.75 33.66L52.78 33.69Q52.70 32.01 52.32 28.43L52.19 28.30L52.25 28.36Q52.32 27.72 52.21 25.96L52.12 25.87L52.10 25.86Q51.93 24.27 51.96 23.40L52.06 23.49L52.06 23.50Q52.03 20.30 53.78 18.74L53.94 18.90L53.94 18.91Q55.45 17.56 58.65 17.06L58.62 17.03L58.65 17.06Q61.01 16.57 63.90 16.64L64.05 16.79L64.00 16.74Q71.41 16.77 74.53 19.13L74.64 19.23L74.65 19.25Q76.74 21.29 76.47 26.20L76.45 26.18L76.49 26.22Q76.39 29.96 76.20 31.30L76.10 31.20L76.16 31.26Q75.39 35.63 73.07 37.95L73.16 38.04L73.17 38.06Q74.56 39.21 77.30 41.69ZM72.50 17.48L72.48 17.46L72.46 17.44Q70.51 16.78 64.00 16.28L63.91 16.19L63.94 16.22Q62.56 16.26 59.79 16.37L59.90 16.48L59.78 16.37Q55.49 16.53 53.24 18.50L53.38 18.64L53.39 18.65Q51.71 20.09 51.71 23.25L51.72 23.27L51.69 23.23Q51.62 24.00 51.77 25.72L51.75 25.69L51.86 25.80Q52.02 27.52 52.02 28.40L51.90 28.28L51.99 28.37Q52.14 30.12 52.52 33.70L52.59 33.77L52.45 33.63Q52.75 36.44 54.35 38.50L54.54 38.69L54.47 38.61Q54.73 39.37 55.95 40.52L56.05 40.62L55.99 40.55Q58.73 42.57 63.91 42.84L63.97 42.91L63.85 42.78Q64.27 42.86 66.67 42.97L66.64 42.94L66.75 43.05Q71.53 43.19 73.82 42.13L73.78 42.09L73.81 42.12Q74.66 42.78 79.38 46.36L79.42 46.39L79.41 46.38Q80.05 45.88 81.34 44.89L81.18 44.74L81.27 44.82Q80.40 44.15 79.61 43.46L79.58 43.43L77.87 41.92L78.00 41.90L77.94 41.84Q77.36 41.36 76.14 40.34L76.17 40.37L76.16 40.36Q78.22 38.00 78.22 33.47L78.21 33.46L78.18 33.43Q78.20 33.03 78.23 32.19L78.12 32.08L78.13 32.09Q78.21 31.29 78.21 30.87L78.14 30.80L78.16 30.83Q78.10 25.24 77.38 22.88L77.49 23.00L77.56 23.06Q77.19 21.78 76.31 20.72L76.27 20.68L76.31 20.72Q75.51 18.58 72.58 17.55ZM66.44 22.00L66.40 21.96L66.48 22.04Q70.55 21.95 72.37 23.55L72.32 23.50L72.46 23.64Q72.90 24.73 73.01 26.06L72.97 26.02L72.99 26.03Q73.18 27.41 73.11 28.78L73.02 28.69L73.11 28.78Q72.72 33.68 70.78 35.40L70.68 35.30L70.84 35.46Q69.44 34.06 66.93 31.32L67.01 31.40L66.96 31.35Q66.17 32.08 64.61 33.64L64.64 33.67L64.66 33.70Q65.27 34.34 66.41 35.52L66.34 35.45L66.29 35.52L66.19 35.42Q66.82 36.01 67.85 37.07L67.81 37.03L67.82 37.05Q66.76 37.24 64.44 37.55L64.45 37.56L63.93 37.57L63.72 37.77L63.52 37.62L63.62 37.72Q60.02 37.58 58.04 35.94L58.21 36.11L58.04 35.95Q57.07 33.91 57.11 30.79L57.06 30.74L57.14 30.82Q57.26 22.07 66.44 22.00Z"/><path fill="#111" d="M23.18 27.53L23.22 27.57L23.21 27.57Q21.02 27.62 19.74 29.12L19.80 29.18L19.74 29.12Q18.43 30.59 18.32 32.88L18.43 32.98L18.44 32.99Q18.28 35.61 19.12 36.57L19.14 36.58L19.06 36.51Q20.20 37.80 22.52 37.65L22.58 37.70L22.57 37.69Q27.19 37.37 27.57 34.36L27.45 34.24L27.49 34.28Q27.56 33.44 27.56 32.64L27.65 32.73L27.56 32.64Q27.52 30.62 26.38 29.09L26.46 29.17L26.44 29.15Q25.14 27.51 23.19 27.55ZM28.04 37.64L28.06 37.67L28.14 37.75Q26.61 39.84 22.23 40.06L22.27 40.10L22.22 40.05Q18.12 40.29 16.48 39.18L16.47 39.17L16.47 39.17Q15.55 38.29 15.40 36.58L15.44 36.62L15.39 36.57Q15.34 35.46 15.53 33.59L15.44 33.50L15.53 33.59Q15.96 29.22 17.18 27.40L17.30 27.51L17.16 27.37Q18.83 24.93 22.67 24.97L22.76 25.06L22.64 24.94Q25.13 24.95 27.41 27.28L27.42 27.29L27.47 27.33Q27.59 21.51 29.19 15.00L29.30 15.11L29.21 15.02Q31.16 14.65 33.03 13.82L32.93 13.72L32.98 13.77Q30.38 20.38 30.11 27.38L30.00 27.27L30.15 27.42Q29.86 34.59 31.99 41.18L31.93 41.12L31.83 41.02Q30.41 40.62 28.70 40.24L28.64 40.19L28.64 40.19Q28.20 38.76 28.05 37.66ZM31.23 43.28L31.06 43.11L31.16 43.20Q33.31 43.83 35.86 45.36L35.70 45.19L35.77 45.26Q32.09 38.24 31.94 29.94L32.01 30.01L31.97 29.97Q31.74 21.67 34.83 14.28L34.79 14.24L34.92 14.37Q34.29 14.89 32.84 15.53L32.77 15.46L32.78 15.48Q33.19 14.40 33.80 13.18L33.80 13.18L33.78 13.16Q31.27 14.11 28.83 14.69L28.95 14.80L28.90 14.75Q27.46 20.54 27.19 26.63L27.17 26.61L27.15 26.59Q25.16 24.68 22.65 24.57L22.61 24.53L22.71 24.62Q19.35 24.58 17.45 26.67L17.33 26.56L17.40 26.62Q15.73 29.03 15.32 33.72L15.18 33.58L15.23 33.63Q14.95 36.35 14.95 36.77L14.95 36.78L15.04 36.87Q15.12 38.63 16.27 39.69L16.28 39.71L16.17 39.60Q16.34 39.77 16.53 39.84L16.67 39.98L17.04 40.54L17.13 40.64Q17.97 41.86 20.94 42.12L21.04 42.22L21.06 42.24Q23.14 42.27 24.51 42.34L24.70 42.53L24.67 42.50Q28.86 42.70 30.58 41.36L30.50 41.28L30.48 41.26Q30.77 42.13 31.23 43.27ZM24.80 29.84L24.87 29.91L24.85 29.89Q25.99 30.00 26.83 30.50L26.77 30.44L26.69 30.36Q27.21 31.68 27.28 32.70L27.25 32.67L27.25 32.67Q27.58 36.92 22.56 37.26L22.53 37.24L22.61 37.32Q21.71 37.33 20.60 37.06L20.54 37.00L20.70 37.16Q20.40 36.48 20.33 35.95L20.29 35.92L20.30 35.92Q20.29 35.30 20.33 34.69L20.37 34.74L20.21 34.58Q20.58 31.21 23.20 30.22L23.16 30.18L23.32 30.34Q24.17 29.85 24.85 29.89Z"/><path fill="#444" d="M12.21 40.16L12.23 40.18L10.03 40.27L10.04 40.28Q9.68 40.37 8.71 40.43L8.65 40.38L8.56 40.29Q7.62 40.37 7.12 40.37L7.13 40.38L7.08 40.33Q5.46 40.34 4.43 39.50L4.45 39.52L4.47 39.54Q5.22 38.39 6.85 36.25L7.03 36.43L6.96 36.36Q8.17 37.87 10.37 37.64L10.39 37.66L10.34 37.61Q11.26 37.50 11.91 36.86L12.03 36.97L11.98 36.93Q12.60 36.25 12.48 35.37L12.53 35.42L12.42 35.31Q12.49 30.89 12.56 26.32L12.39 26.14L12.39 26.15Q12.55 21.66 13.08 17.05L13.05 17.02L13.05 17.02Q15.01 16.85 17.14 15.82L17.20 15.88L17.08 15.76Q15.25 22.53 15.25 29.77L15.26 29.77L15.14 29.66Q15.27 33.33 15.73 36.83L15.80 36.90L15.64 36.74Q15.82 37.18 15.82 37.53L15.87 37.58L15.74 37.45Q15.70 37.99 15.48 38.52L15.46 38.50L15.60 38.64Q14.96 39.83 12.14 40.10ZM17.21 43.07L17.05 42.91L17.48 43.00L17.63 42.73L17.91 42.63L18.07 42.79Q18.24 42.38 18.31 42.27L18.43 42.38L18.45 42.40Q18.65 41.24 18.38 40.25L18.25 40.11L18.25 40.12Q16.92 34.33 17.19 27.97L17.25 28.03L17.18 27.96Q17.41 21.84 19.20 15.94L19.25 15.98L19.26 15.99Q18.28 16.54 17.02 17.26L17.12 17.36L17.10 17.34Q17.38 16.66 17.80 15.14L17.64 14.98L17.77 15.12Q15.13 16.32 12.46 16.62L12.61 16.77L12.51 16.67Q12.20 21.12 12.13 26.07L12.11 26.06L12.12 26.07Q12.09 32.01 12.17 35.44L12.08 35.35L12.04 35.31Q12.15 37.14 10.40 37.29L10.50 37.39L10.46 37.35Q8.61 37.32 6.93 35.69L6.94 35.70L7.09 35.84Q5.06 38.38 4.11 39.94L4.09 39.92L4.07 39.90Q4.64 40.48 5.67 40.70L5.75 40.79L5.61 40.64Q5.69 40.95 5.42 41.18L5.28 41.04L5.34 41.09Q6.79 42.05 8.77 42.32L8.78 42.33L8.85 42.40Q9.09 42.30 12.38 42.60L12.36 42.58L12.43 42.65Q15.73 42.96 17.10 42.96Z"/><path fill="#111" d="M36.10 25.04L36.04 24.98L36.08 25.02Q36.98 25.38 38.96 25.38L38.94 25.37L39.03 32.62L38.94 32.53Q39.03 36.84 39.14 39.73L39.15 39.74L39.16 39.75Q38.73 39.55 38.35 39.55L38.47 39.67L38.35 39.55Q36.99 39.63 35.54 40.97L35.46 40.89L35.44 40.86Q36.26 33.27 36.07 25.00ZM36.14 19.74L35.08 17.17L35.11 17.20Q36.55 16.05 37.27 15.10L37.25 15.07L37.25 15.07Q38.44 17.06 39.85 18.74L39.72 18.61L39.83 18.72Q39.03 20.24 37.66 22.37L37.64 22.35L37.55 22.26Q36.78 21.15 36.21 19.82L36.17 19.78ZM35.08 41.91L34.95 41.78L35.00 41.83Q36.07 40.81 37.33 40.31L37.22 40.21L37.14 40.13Q37.15 40.82 37.03 42.19L37.10 42.26L37.20 42.36Q37.87 42.11 38.51 42.11L38.38 41.98L38.53 42.12Q40.69 42.08 42.10 44.06L42.09 44.05L42.04 44.00Q40.81 36.68 40.89 26.51L40.80 26.42L40.92 26.55Q40.12 26.69 39.28 26.81L39.33 26.86L39.24 24.90L39.25 24.91Q38.26 25.06 37.46 24.99L37.41 24.94L37.54 25.07Q36.71 25.00 35.84 24.51L35.72 24.39L35.72 24.39Q35.87 26.44 35.87 28.50L35.97 28.60L35.78 28.41Q35.90 35.57 35.02 41.85ZM37.59 22.92L37.64 22.96L37.64 22.58L37.93 22.56L37.78 22.42Q38.19 23.21 39.22 24.69L39.30 24.78L39.22 24.70Q40.67 22.45 42.00 18.91L41.98 18.89L41.94 18.85Q41.00 18.02 39.44 16.42L39.61 16.59L39.53 16.52Q39.47 16.76 39.20 17.22L39.12 17.14L39.14 17.16Q38.14 15.85 37.22 14.40L37.28 14.45L37.20 14.38Q35.82 16.08 34.64 16.42L34.65 16.43L34.68 16.46Q35.83 19.98 37.66 22.98Z"/><path fill="#333" d="M100.73 32.89L100.86 33.01L100.71 32.86Q103.94 32.63 107.14 32.74L106.99 32.59L107.12 32.72Q107.08 30.18 107.08 27.78L107.08 27.78L106.99 27.69Q106.96 25.18 107.15 22.63L107.23 22.71L107.33 22.80Q105.97 24.38 100.75 32.90ZM110.68 40.28L110.67 40.27L110.80 40.40Q108.97 39.95 107.19 39.87L107.17 39.85L107.17 39.85Q107.08 37.59 106.96 35.12L106.99 35.15L106.94 35.10Q101.69 34.99 96.97 36.40L96.90 36.33L96.83 36.25Q97.01 35.83 97.20 34.84L97.24 34.88L97.26 34.89Q99.02 31.71 102.60 25.43L102.60 25.42L102.52 25.35Q105.43 20.49 108.85 16.61L108.79 16.54L108.80 16.55Q109.67 16.36 111.35 16.09L111.41 16.15L111.47 16.21Q109.49 22.57 109.49 29.62L109.54 29.67L109.44 29.56Q109.55 31.16 109.63 32.65L109.60 32.61L110.98 32.82L110.98 32.81Q111.45 32.71 112.06 32.83L112.06 32.83L112.09 32.86Q112.31 33.96 112.58 35.90L112.52 35.84L112.59 35.91Q111.34 35.61 109.85 35.42L109.77 35.34L109.79 35.36Q109.93 37.28 110.61 40.22ZM112.38 32.51L112.46 32.59L112.33 32.45Q112.28 32.52 112.09 32.52L111.99 32.42L111.69 32.50L111.64 32.45Q111.52 30.96 111.52 29.55L111.56 29.59L111.54 29.57Q111.44 23.08 113.50 17.06L113.49 17.05L113.47 17.03Q112.88 17.47 111.43 17.85L111.39 17.81L111.33 17.75Q111.54 16.97 112.00 15.56L112.03 15.59L112.07 15.63Q110.74 15.98 108.68 16.21L108.66 16.18L108.69 16.21Q104.80 20.58 99.58 29.95L99.63 30.00L101.61 26.23L101.70 26.32Q101.29 27.35 101.02 27.92L100.95 27.85L96.47 36.85L96.40 36.78Q97.09 36.67 98.23 36.29L98.33 36.38L98.13 36.56L98.09 36.52Q98.02 37.25 97.72 38.51L97.63 38.43L97.64 38.43Q101.88 37.23 106.71 37.42L106.74 37.45L106.69 37.40Q106.72 38.34 106.91 40.32L106.85 40.26L106.85 40.26Q107.89 40.24 108.96 40.35L108.93 40.32L109.03 40.42Q109.16 41.09 109.43 42.46L109.50 42.53L109.48 42.51Q111.27 42.63 114.28 43.54L114.29 43.55L114.36 43.62Q113.43 41.55 112.51 38.27L112.39 38.14L113.94 38.71L113.86 38.63Q114.63 38.94 115.32 39.29L115.34 39.31L115.17 39.14Q114.54 36.79 114.38 35.12L114.42 35.15L114.27 35.00Q113.77 34.93 112.63 34.70L112.67 34.74L112.59 34.65Q112.28 33.28 112.28 32.41ZM104.38 32.35L104.44 32.41L104.29 32.26Q105.11 31.02 106.68 28.47L106.69 28.49L106.66 28.46Q106.76 29.51 106.72 30.46L106.76 30.50L106.69 30.43Q106.74 31.47 106.78 32.42L106.78 32.42L106.68 32.32Q106.15 32.33 105.58 32.33L105.60 32.35L105.51 32.25Q104.93 32.28 104.32 32.28Z"/><path fill="#222" d="M49.54 25.02L49.53 25.01L49.57 25.05Q50.52 25.47 52.50 25.47L52.39 25.36L52.37 32.49L52.39 32.52Q52.51 36.86 52.62 39.76L52.69 39.82L52.62 39.75Q52.22 39.58 51.84 39.58L51.89 39.63L51.96 39.70Q50.46 39.65 49.01 40.98L49.03 41.00L48.91 40.87Q49.87 33.43 49.68 25.16ZM49.61 19.76L48.48 17.11L48.51 17.14Q49.92 15.96 50.64 15.01L50.81 15.18L50.66 15.03Q51.77 16.94 53.18 18.62L53.30 18.73L53.16 18.59Q52.41 20.16 51.04 22.29L51.12 22.37L51.02 22.28Q50.15 21.06 49.57 19.73L49.61 19.77ZM48.38 41.76L48.38 41.76L48.44 41.81Q49.41 40.69 50.66 40.19L50.71 40.24L50.65 40.18Q50.79 41.00 50.67 42.37L50.53 42.23L50.61 42.31Q51.29 42.08 51.94 42.08L51.95 42.09L51.95 42.09Q54.21 42.15 55.62 44.13L55.54 44.04L55.59 44.09Q54.20 36.61 54.27 26.44L54.37 26.54L54.37 26.54Q53.61 26.73 52.77 26.84L52.70 26.77L52.69 24.90L52.67 24.88Q51.73 25.08 50.93 25.01L50.90 24.97L50.85 24.93Q50.05 24.89 49.17 24.39L49.12 24.34L49.28 24.50Q49.33 26.45 49.33 28.51L49.35 28.53L49.28 28.45Q49.23 35.45 48.35 41.73ZM51.00 22.87L50.96 22.82L51.21 22.70L51.33 22.51L51.27 22.46Q51.71 23.27 52.74 24.76L52.75 24.77L52.75 24.77Q54.18 22.51 55.51 18.97L55.44 18.90L55.51 18.97Q54.59 18.16 53.03 16.56L53.00 16.53L53.07 16.60Q52.85 16.69 52.59 17.14L52.60 17.16L52.55 17.11Q51.51 15.76 50.60 14.32L50.73 14.45L50.79 14.52Q49.30 16.11 48.12 16.45L48.01 16.34L48.04 16.37Q49.23 19.92 51.06 22.93Z"/><path fill="#111" d="M86.52 30.33L86.46 30.27L86.50 30.31Q86.66 29.98 86.62 29.56L86.60 29.54L86.53 29.47Q86.59 29.22 86.28 29.03L86.16 28.91L86.17 28.92Q85.49 28.39 84.61 28.54L84.53 28.46L84.59 28.52Q83.60 28.59 81.96 29.70L81.99 29.73L81.97 29.71Q80.50 30.55 80.50 31.74L80.50 31.74L80.47 31.71Q80.45 32.94 80.45 36.25L80.53 36.33L80.57 36.38Q80.44 38.83 80.59 40.85L80.61 40.87L80.62 40.88Q78.84 40.82 78.84 40.82L78.91 40.88L78.97 40.95Q77.96 40.88 77.23 40.96L77.13 40.86L77.27 41.00Q77.54 38.33 77.61 36.08L77.70 36.17L77.63 36.11Q77.88 31.56 77.23 30.26L77.11 30.14L77.22 30.25Q76.99 29.72 76.42 29.41L76.42 29.41L76.27 29.26Q75.51 28.61 73.95 28.50L74.00 28.55L74.02 28.57Q71.99 28.33 71.46 29.93L71.46 29.93L71.38 29.85Q71.15 30.27 71.26 30.77L71.27 30.77L71.29 30.80Q72.02 33.61 71.68 36.39L71.60 36.31L71.68 36.39Q71.42 39.26 70.01 41.69L70.04 41.72L70.00 41.69Q68.96 41.83 66.87 42.25L66.85 42.23L66.81 42.19Q69.33 38.96 69.33 34.65L69.31 34.64L69.41 34.73Q69.38 28.84 65.35 24.62L65.37 24.64L65.29 24.56Q66.06 24.88 67.01 25.10L67.03 25.12L68.76 25.51L68.74 25.50Q69.31 26.22 70.19 27.90L70.19 27.91L70.05 27.76Q70.33 25.98 72.76 25.94L72.62 25.80L72.64 25.82Q72.91 25.90 73.90 25.98L73.93 26.01L73.81 25.89Q78.90 26.30 80.05 29.12L79.98 29.05L79.98 29.05Q81.72 26.42 86.75 25.88L86.77 25.90L86.79 25.92Q87.54 25.79 88.41 25.91L88.28 25.78L88.37 25.87Q90.56 26.04 90.41 27.60L90.47 27.66L90.44 27.63Q90.32 28.24 90.05 29.00L90.12 29.06L90.03 28.97Q88.64 31.99 88.86 35.54L88.78 35.45L88.88 35.55Q89.09 39.04 91.00 41.86L90.96 41.82L90.95 41.81Q89.35 41.55 87.53 41.32L87.47 41.26L87.40 41.19Q86.31 38.77 86.12 35.99L86.02 35.89L86.04 35.91Q85.86 33.06 86.50 30.32ZM87.24 41.64L87.21 41.61L87.30 41.69Q87.87 41.62 89.20 41.81L89.36 41.97L89.35 41.96Q89.79 42.59 90.93 44.00L91.00 44.07L90.89 43.96Q93.89 44.60 95.98 45.24L95.98 45.24L95.93 45.19Q91.06 41.42 90.79 34.91L90.62 34.74L90.78 34.90Q90.67 32.77 91.27 30.86L91.21 30.80L91.14 30.73Q91.38 29.86 91.38 29.14L91.37 29.13L91.43 29.19Q91.37 28.22 90.76 27.65L90.80 27.68L90.89 27.74L90.81 27.66Q90.87 27.15 90.80 26.66L90.81 26.67L90.89 26.75Q90.71 26.15 90.25 25.89L90.30 25.93L90.15 25.78Q89.49 25.32 88.62 25.28L88.74 25.40L88.63 25.29Q85.95 25.35 83.29 26.30L83.24 26.25L83.11 26.13Q81.26 26.94 80.08 28.35L80.01 28.28L80.13 28.40Q78.52 25.88 73.69 25.53L73.62 25.47L73.60 25.45Q72.92 25.42 72.50 25.42L72.56 25.48L72.54 25.46Q70.50 25.47 69.89 26.73L69.95 26.79L69.78 26.61Q69.52 26.17 68.84 25.10L68.97 25.24L68.92 25.19Q66.41 24.61 64.43 23.97L64.42 23.96L64.40 23.94Q69.09 28.36 69.09 34.64L69.00 34.55L69.06 34.61Q69.05 39.32 66.19 42.79L66.25 42.85L66.25 42.84Q66.70 42.68 67.19 42.61L67.26 42.67L68.09 42.36L68.03 42.30Q67.39 43.42 66.29 44.64L66.26 44.61L66.40 44.75Q68.05 44.46 71.18 43.85L71.16 43.83L71.00 43.67Q73.78 39.68 73.78 34.77L73.73 34.71L73.67 34.66Q73.82 34.01 73.75 33.17L73.74 33.17L73.64 33.06Q73.66 32.40 74.65 31.60L74.58 31.53L74.60 31.59L74.60 31.59Q75.08 31.00 76.26 30.88L76.40 31.02L76.39 31.02Q76.90 31.10 77.20 31.10L77.17 31.07L77.12 31.22L77.18 31.27Q77.45 33.98 77.33 36.34L77.25 36.26L77.26 36.26Q77.16 38.56 76.66 41.22L76.79 41.36L76.75 41.32Q77.67 41.21 77.67 41.21L77.68 41.22L77.83 41.37Q79.10 41.19 78.76 41.19L78.75 41.18L78.85 41.29Q78.80 41.72 78.76 42.18L78.74 42.16L78.87 42.29Q78.73 42.64 78.73 43.14L78.82 43.23L81.29 43.23L81.30 43.23Q82.43 43.11 83.69 43.19L83.83 43.33L83.85 43.35Q82.29 39.62 82.48 33.68L82.35 33.55L82.54 33.74Q82.58 32.64 83.76 31.87L83.70 31.82L83.63 31.75Q84.47 30.88 85.73 30.69L85.89 30.85L86.14 30.80L86.20 30.85Q85.81 32.82 85.81 34.80L85.71 34.70L85.75 34.74Q85.71 38.47 87.23 41.63ZM81.77 30.16L81.81 29.97L81.71 30.21L81.68 30.06Z"/><path fill="#333" d="M115.45 19.38L115.53 19.45L115.39 19.32Q116.31 23.63 116.46 27.21L116.45 27.19L116.36 27.10Q117.58 27.29 118.64 27.29L118.69 27.34L120.71 27.15L120.82 27.26Q121.79 27.16 122.66 25.75L122.75 25.84L122.73 25.82Q123.52 24.71 123.64 23.53L123.62 23.52L123.50 23.39Q123.98 20.49 119.76 19.99L119.72 19.96L119.77 20.00Q118.06 19.93 115.43 19.36ZM116.50 29.98L116.50 29.99L116.51 30.00Q116.44 36.21 115.30 40.62L115.21 40.53L115.23 40.55Q113.78 40.97 111.46 42.03L111.45 42.03L111.44 42.02Q113.93 35.49 113.67 28.22L113.58 28.13L113.49 28.04Q113.21 20.67 110.43 14.24L110.47 14.28L110.51 14.33Q114.68 17.12 120.92 17.12L120.85 17.05L120.90 17.10Q127.00 17.14 127.15 20.61L127.13 20.59L127.10 20.56Q127.18 23.00 126.19 25.67L126.10 25.57L126.07 25.55Q125.80 26.80 124.85 28.02L124.87 28.04L124.82 27.99Q123.41 29.51 120.86 29.78L120.92 29.84L120.91 29.83Q118.69 29.89 116.44 29.93ZM122.66 32.26L122.51 32.11L122.63 32.23Q126.71 32.39 127.97 27.60L127.91 27.54L127.90 27.53Q129.02 24.04 128.87 22.02L128.71 21.87L128.70 21.86Q128.66 20.41 127.90 19.42L127.99 19.51L127.96 19.48Q127.66 19.18 127.17 18.95L127.12 18.90L127.15 18.94Q127.10 18.73 126.49 17.97L126.42 17.90L126.44 17.92Q124.84 16.55 120.88 16.55L120.95 16.62L120.97 16.64Q114.03 16.59 109.80 13.43L109.87 13.50L109.94 13.56Q112.98 20.52 113.24 27.98L113.25 27.99L113.34 28.08Q113.53 35.65 110.86 42.74L110.93 42.80L110.91 42.78Q111.88 42.04 112.87 41.66L113.04 41.82L112.61 42.92L112.50 42.81Q112.33 43.40 112.06 43.97L112.14 44.04L112.14 44.05Q114.46 42.91 117.36 42.38L117.37 42.39L117.55 42.57Q118.37 37.04 118.45 32.31L118.47 32.33L118.29 32.15Q119.55 32.23 120.54 32.23L120.53 32.22L120.42 32.11Q121.72 32.08 122.52 32.12ZM121.65 22.27L121.56 22.17L121.61 22.23Q122.12 22.24 123.11 22.47L123.04 22.40L123.09 22.45Q123.22 22.69 123.25 22.99L123.18 22.92L123.23 22.97Q123.31 23.28 123.23 23.54L123.29 23.60L123.24 23.55Q123.09 24.73 122.37 25.61L122.31 25.56L122.44 25.68Q121.93 26.81 120.90 27.00L120.71 26.81L120.88 26.98Q119.98 26.81 118.35 26.81L118.49 26.95L118.45 26.91Q118.42 24.64 118.20 22.28L118.22 22.30L119.83 22.24L119.86 22.26Q120.77 22.34 121.65 22.26Z"/></svg>