<svg xmlns="http://www.w3.org/2000/svg" width="150" height="50" viewBox="0,0,150,50"><path fill="#444" d="M113.60 23.29L113.67 23.36L113.66 23.35Q111.85 19.18 105.64 19.37L105.74 19.46L105.77 19.50Q101.22 19.47 99.24 20.92L99.25 20.93L99.37 21.05Q96.85 22.68 96.85 26.79L96.79 26.73L96.86 28.67L96.85 28.66Q96.88 37.52 105.90 37.52L105.82 37.44L105.87 37.49Q107.89 37.45 109.37 36.65L109.46 36.74L109.44 36.72Q111.30 35.72 111.15 33.86L111.12 33.83L111.12 33.83Q110.95 31.76 107.26 30.85L107.24 30.83L105.32 30.85L105.36 30.89Q104.33 30.82 103.38 30.85L103.45 30.92L103.34 30.81Q103.30 29.82 103.27 27.92L103.38 28.04L103.44 28.09Q110.94 27.94 115.13 27.60L115.26 27.73L115.09 27.57Q115.14 28.49 115.14 29.29L115.15 29.30L115.06 29.20Q115.11 30.05 115.15 30.85L115.24 30.94L115.19 30.90Q114.02 30.83 114.02 30.83L114.19 31.00L114.00 30.81Q112.68 30.87 113.06 30.87L113.11 30.91L113.12 30.93Q114.07 32.40 114.45 34.38L114.59 34.52L114.62 34.56Q114.61 35.15 114.61 35.61L114.70 35.70L114.74 35.74Q114.59 40.23 105.79 40.23L105.81 40.25L105.80 40.23Q98.67 40.23 96.09 38.14L96.11 38.16L96.10 38.16Q94.09 35.76 94.09 30.70L94.25 30.85L94.26 30.87Q94.09 29.63 93.94 26.93L93.95 26.95L93.94 26.93Q93.88 24.66 93.91 23.29L93.98 23.35L93.88 23.25Q94.02 20.43 95.39 18.83L95.43 18.86L95.35 18.79Q97.91 16.74 102.78 16.55L102.87 16.64L105.55 16.57L105.44 16.47Q108.49 16.32 111.92 16.73L111.90 16.72L112.07 16.89Q115.71 17.25 116.66 20.49L116.71 20.54L116.62 20.45Q115.73 21.50 113.64 23.33ZM114.88 25.37L115.19 25.56L115.07 25.45Q116.28 24.37 118.14 22.39L118.08 22.33L118.08 22.33Q117.80 21.40 116.81 19.69L116.85 19.73L116.88 19.75Q115.68 17.08 111.88 16.43L111.84 16.39L111.79 16.34Q109.75 16.32 105.45 16.02L105.49 16.06L102.69 16.08L102.72 16.10Q97.51 16.26 94.92 18.24L94.96 18.28L95.06 18.38Q93.66 19.98 93.54 23.07L93.46 22.99L93.62 23.14Q93.67 22.74 93.89 28.22L93.86 28.18L93.75 28.07Q93.81 29.47 93.89 32.21L93.85 32.17L93.85 32.17Q94.03 36.61 95.78 38.55L95.78 38.55L95.85 38.62Q96.26 39.49 97.13 40.36L96.99 40.23L97.02 40.25Q99.90 42.11 105.42 42.45L105.50 42.53L108.45 42.78L108.36 42.69Q109.92 42.76 111.94 42.65L112.07 42.78L112.03 42.73Q113.48 42.67 115.58 42.13L115.46 42.02L115.48 42.04Q117.51 41.63 117.47 39.31L117.45 39.29L117.43 39.27Q117.46 38.04 116.40 35.27L116.46 35.33L116.37 35.23Q115.99 34.25 115.46 33.45L115.63 33.62L115.63 33.63Q116.14 33.56 117.32 33.75L117.28 33.71L117.40 33.83Q117.08 30.20 117.12 29.52L117.03 29.43L117.13 29.53Q116.63 29.41 116.22 29.37L116.30 29.45L116.27 29.43Q115.80 29.30 115.42 29.37L115.59 29.54L115.58 29.53Q115.51 28.36 115.58 27.29L115.62 27.33L115.63 27.34Q109.28 27.77 103.00 27.65L103.04 27.70L102.92 27.57Q103.13 28.66 103.13 29.58L103.00 29.44L102.95 31.15L102.96 31.16Q103.42 31.23 103.84 31.20L103.85 31.20L103.88 31.24Q104.34 31.28 104.80 31.28L104.65 31.13L104.69 31.17Q104.76 31.70 104.80 32.19L104.84 32.24L104.81 32.20Q104.72 32.57 104.68 33.06L104.66 33.04L104.66 33.05Q105.80 33.12 106.83 33.08L106.92 33.17L106.88 33.13Q107.89 33.11 108.91 33.15L108.92 33.16L108.97 33.21Q109.86 33.29 110.73 33.68L110.71 33.65L110.84 33.82L110.85 33.82Q110.96 35.31 109.28 36.22L109.34 36.28L109.19 36.13Q107.63 37.16 105.92 37.16L105.85 37.09L105.99 37.23Q102.11 37.20 99.68 35.45L99.57 35.34L99.59 35.36Q98.59 33.29 98.74 30.74L98.77 30.77L98.92 30.92Q99.11 26.01 100.96 24.01L100.95 24.01L100.91 23.96Q102.83 22.04 107.51 21.73L107.45 21.68L107.51 21.73Q111.18 21.52 113.12 23.31L113.14 23.33L113.05 23.24Q113.14 23.37 113.26 23.56L113.29 23.59L113.43 23.62L113.42 23.61Q114.12 24.43 114.69 25.53L114.64 25.47L115.05 25.54Z"/><path fill="#444" d="M119.30 18.39L119.37 18.46L119.28 18.38Q118.54 18.74 118.39 19.53L118.47 19.62L118.48 24.77L118.51 24.80Q119.67 24.82 121.88 24.55L121.88 24.55L121.73 24.41Q121.78 24.91 121.74 25.75L121.77 25.77L121.71 25.72Q121.82 26.62 121.82 27.08L121.73 26.99L120.06 27.00L120.07 27.01Q119.38 27.19 118.51 27.19L118.43 27.12L118.56 27.25Q118.46 31.34 118.39 39.71L118.31 39.64L118.39 39.72Q116.26 39.87 114.77 40.55L114.76 40.54L114.79 40.57Q115.70 34.25 115.59 27.02L115.75 27.17L115.62 27.05Q115.00 27.04 113.71 26.77L113.68 26.74L113.80 26.87Q113.75 25.82 113.56 23.88L113.59 23.91L113.52 23.85Q114.66 24.37 115.61 24.56L115.53 24.48L115.65 24.61Q115.56 23.90 115.25 21.43L115.16 21.33L115.28 21.46Q114.94 19.29 114.94 18.34L114.97 18.36L114.94 18.34Q114.96 16.68 116.37 16.11L116.47 16.21L116.52 16.26Q117.33 15.89 122.17 15.05L122.12 15.01L122.11 15.00Q122.95 14.89 123.79 14.77L123.72 14.71L123.75 14.74Q123.44 15.42 123.29 16.29L123.38 16.38L123.10 17.97L123.06 17.93Q122.32 17.68 121.82 17.79L121.96 17.93L121.84 17.81Q121.24 17.82 119.33 18.43ZM124.77 19.57L124.77 19.57L124.86 19.65Q125.16 17.40 125.77 14.85L125.74 14.82L125.75 14.83Q125.05 15.08 123.75 15.69L123.95 15.88L124.25 14.09L124.23 14.07Q123.06 14.31 120.59 14.84L120.63 14.89L120.54 14.80Q119.38 14.90 116.18 15.81L116.18 15.81L116.18 15.81Q114.68 16.29 114.68 18.15L114.52 17.99L114.57 18.04Q114.58 18.36 114.66 18.70L114.66 18.70L114.63 18.67Q114.96 20.11 115.08 21.44L114.98 21.34L115.16 24.00L115.16 24.00Q113.75 23.58 113.11 23.13L113.24 23.25L113.21 23.23Q113.24 24.10 113.28 25.12L113.29 25.14L113.56 27.27L113.44 27.15Q114.16 27.34 114.96 27.41L114.90 27.35L115.08 29.63L115.31 29.48L115.44 29.61Q115.19 35.60 114.20 41.05L114.20 41.04L114.29 41.13Q115.15 40.51 116.33 40.24L116.35 40.27L116.24 42.40L116.21 42.37Q117.43 42.07 118.73 42.03L118.87 42.17L118.82 42.13Q120.03 42.08 121.29 42.34L121.33 42.39L121.25 42.31Q120.45 37.36 120.45 29.40L120.40 29.35L120.41 29.36Q121.49 29.34 123.58 29.41L123.56 29.40L123.60 27.57L123.59 27.55Q123.55 26.56 123.58 25.61L123.75 25.78L123.76 25.78Q123.13 25.72 122.06 25.99L122.20 26.13L122.01 25.94Q122.05 25.29 122.16 23.96L122.28 24.08L122.22 24.02Q121.31 24.17 120.51 24.24L120.60 24.33L120.54 24.28Q120.63 22.96 120.74 21.55L120.71 21.52L120.79 21.59Q120.86 20.87 121.40 20.53L121.40 20.54L121.44 20.57Q122.24 19.73 123.06 19.66L123.08 19.68L123.19 19.79Q124.02 19.73 124.86 19.65Z"/><path fill="#222" d="M34.38 33.37L34.21 33.20L34.28 33.27Q34.15 36.11 32.97 40.75L33.03 40.81L33.06 40.85Q31.24 41.34 29.64 42.14L29.55 42.06L29.68 42.19Q32.29 35.16 32.03 27.74L32.00 27.72L31.90 27.62Q31.74 20.34 28.66 13.60L28.65 13.59L28.52 13.46Q30.55 14.81 32.42 15.38L32.45 15.41L32.48 15.44Q34.48 22.28 34.48 28.94L34.58 29.04L34.62 29.08Q34.50 30.40 34.42 31.89L34.56 32.02L34.38 31.85Q35.67 30.77 40.88 25.83L40.87 25.81L40.81 25.75Q41.95 25.79 42.94 25.71L42.86 25.63L44.91 25.43L44.88 25.41Q41.80 28.49 37.50 32.26L37.48 32.24L37.53 32.29Q40.83 34.99 47.30 40.81L47.37 40.88L47.40 40.91Q44.57 39.90 41.60 39.71L41.69 39.81L41.77 39.88Q39.24 37.77 34.37 33.36ZM44.28 42.55L44.16 42.43L44.26 42.52Q48.99 43.38 52.12 45.32L52.09 45.29L52.12 45.32Q50.82 43.91 48.19 41.51L48.32 41.64L48.28 41.60Q48.44 41.60 48.70 41.72L48.67 41.69L48.79 41.80Q46.67 39.76 44.43 37.86L44.47 37.90L40.01 33.97L39.96 33.93Q44.96 29.75 47.39 26.85L47.33 26.79L47.28 26.74Q46.09 26.85 43.62 27.11L43.74 27.24L43.67 27.16Q45.25 25.70 45.94 24.86L45.99 24.92L46.03 24.96Q43.20 25.40 40.73 25.40L40.68 25.35L40.72 25.40Q39.38 26.76 36.64 29.42L36.55 29.33L36.52 29.31Q36.49 23.48 35.50 17.66L35.54 17.70L35.55 17.71Q34.91 17.61 33.43 17.34L33.45 17.37L33.31 17.23Q33.17 16.52 32.72 15.03L32.82 15.13L32.80 15.12Q30.06 14.20 27.82 12.64L27.92 12.75L27.79 12.62Q31.24 19.46 31.58 27.56L31.73 27.71L31.65 27.63Q31.94 35.50 28.93 42.73L28.94 42.74L28.91 42.71Q29.60 42.40 30.93 41.76L31.02 41.85L31.08 41.90Q30.69 42.59 30.05 44.04L30.18 44.17L30.06 44.05Q32.90 42.97 35.03 42.59L35.09 42.64L35.13 42.68Q35.63 40.10 36.13 35.84L36.20 35.91L36.14 35.85Q38.76 38.13 44.21 42.47Z"/><path fill="#444" d="M15.92 14.33L15.87 14.28L15.92 14.33Q19.60 16.76 24.36 16.99L24.47 17.10L24.37 17.00Q29.02 17.20 33.29 15.44L33.38 15.54L33.24 15.40Q33.18 16.14 32.42 18.92L32.25 18.75L32.28 18.78Q29.52 19.79 26.55 19.94L26.71 20.10L26.63 20.02Q23.58 20.09 20.69 19.37L20.73 19.41L20.83 19.52Q21.44 23.05 21.63 26.71L21.72 26.80L21.65 26.72Q23.67 26.96 25.27 26.92L25.35 27.00L25.22 26.88Q26.43 26.86 28.83 26.75L28.89 26.81L28.92 26.84Q28.90 27.50 28.90 28.19L28.78 28.07L28.85 29.47L28.89 29.51Q26.35 29.37 21.55 29.45L21.62 29.51L21.60 29.50Q21.72 33.73 21.15 37.73L21.06 37.64L21.14 37.72Q23.64 36.94 26.38 37.05L26.36 37.03L26.53 37.20Q29.11 37.16 31.70 38.00L31.81 38.11L31.71 38.01Q31.80 38.82 32.07 39.58L32.10 39.62L32.59 41.17L32.59 41.17Q29.36 39.85 25.94 39.85L25.86 39.77L25.80 39.71Q20.99 39.77 16.72 42.01L16.85 42.14L16.79 42.08Q19.18 35.34 18.92 28.22L18.75 28.05L18.86 28.16Q18.56 20.97 15.89 14.31ZM16.23 42.74L16.28 42.79L16.35 42.86Q17.52 42.05 18.28 41.71L18.37 41.79L18.23 41.66Q18.00 42.38 17.43 43.90L17.61 44.08L17.52 43.99Q22.11 42.08 27.18 42.34L27.06 42.22L27.15 42.32Q32.22 42.51 36.22 45.22L36.26 45.26L36.33 45.33Q35.06 42.69 34.38 40.75L34.40 40.77L34.35 40.72Q33.42 40.17 32.43 39.83L32.48 39.88L32.52 39.92Q32.01 38.42 31.86 37.62L31.83 37.59L31.82 37.58Q28.77 36.63 25.61 36.63L25.68 36.70L25.59 36.60Q24.48 36.64 23.34 36.76L23.33 36.74L23.42 36.83Q23.49 35.53 23.53 34.31L23.53 34.32L23.68 31.88L23.65 31.85Q25.50 31.80 27.29 31.83L27.30 31.84L27.23 31.77Q29.14 31.90 30.93 32.05L30.84 31.96L30.88 31.99Q30.82 31.06 30.82 30.11L30.85 30.14L30.69 28.07L29.97 28.23L29.88 28.14Q29.65 28.41 29.19 28.41L29.09 28.30L29.09 28.31Q29.03 27.56 29.18 26.27L29.21 26.29L29.16 26.24Q27.67 26.58 26.49 26.61L26.46 26.59L26.50 26.62Q25.53 26.61 23.70 26.53L23.65 26.48L23.66 26.49Q23.67 25.17 23.48 22.35L23.43 22.30L23.47 22.34Q24.42 22.38 25.41 22.38L25.42 22.39L25.45 22.42Q30.10 22.34 33.79 20.44L33.95 20.60L33.94 20.59Q34.49 18.21 35.37 16.00L35.29 15.92L35.39 16.03Q33.99 16.80 33.15 17.14L33.19 17.17L33.14 17.13Q33.34 16.26 33.80 14.70L33.87 14.77L33.84 14.75Q29.34 17.02 24.47 16.72L24.32 16.57L24.37 16.62Q19.00 16.23 15.16 13.38L15.31 13.54L15.32 13.55Q18.08 20.38 18.39 28.00L18.49 28.10L18.47 28.08Q18.82 36.04 16.31 42.82Z"/><path fill="#444" d="M11.83 28.89L11.64 28.71L11.70 28.77Q9.10 28.68 7.81 29.82L7.84 29.86L7.90 29.91Q6.41 31.09 6.60 33.60L6.54 33.54L6.64 33.64Q6.99 36.65 8.17 37.72L7.99 37.55L8.01 37.56Q9.51 38.87 11.61 38.72L11.71 38.83L11.68 38.80Q13.79 38.77 15.20 37.52L15.26 37.58L15.25 37.57Q16.54 36.39 16.74 33.84L16.82 33.93L16.68 33.78Q17.15 28.96 11.78 28.85ZM11.55 41.29L11.67 41.42L9.99 41.29L9.94 41.25Q7.09 41.25 5.60 39.84L5.62 39.85L5.61 39.85Q4.61 38.81 4.34 36.87L4.35 36.88L4.35 36.87Q4.27 35.84 4.12 33.64L4.21 33.73L4.11 33.63Q3.99 32.59 3.88 30.35L3.93 30.40L3.99 30.46Q3.77 28.45 4.72 27.31L4.89 27.47L4.84 27.43Q6.58 25.93 11.30 26.08L11.31 26.09L11.36 26.14Q16.14 26.17 17.97 27.69L17.97 27.69L18.01 27.73Q19.55 29.00 19.36 32.20L19.28 32.12L19.30 32.14Q19.04 35.65 18.96 36.07L19.08 36.19L18.91 36.02Q18.70 38.39 17.36 39.57L17.36 39.56L17.32 39.52Q15.49 41.43 11.68 41.43ZM16.35 43.81L16.31 43.77L16.35 43.81Q17.66 43.67 19.56 43.52L19.72 43.68L19.70 43.66Q20.06 43.44 20.06 43.29L20.23 43.46L20.13 43.36Q20.17 43.33 20.14 43.18L20.16 43.20L20.05 43.10Q20.17 43.10 20.17 42.98L20.18 42.99L19.98 42.80Q20.03 42.58 20.37 42.27L20.49 42.39L20.33 42.23Q21.25 41.14 21.25 39.23L21.38 39.36L21.30 39.28Q21.31 38.34 21.22 35.92L21.30 36.00L21.15 35.85Q21.04 33.42 20.89 32.32L20.96 32.40L20.92 32.35Q20.67 30.35 19.76 29.21L19.66 29.11L19.39 28.95L19.31 28.87Q19.15 28.22 18.35 27.31L18.32 27.28L18.36 27.32Q16.03 25.56 11.12 25.56L11.16 25.60L9.40 25.59L9.38 25.57Q6.05 25.55 4.33 26.92L4.41 27.00L4.40 26.98Q3.65 28.22 3.69 30.24L3.67 30.22L3.57 30.11Q3.68 30.64 3.81 31.90L3.73 31.82L3.75 31.84Q3.90 33.11 3.86 33.57L3.91 33.61L3.89 33.60Q4.18 36.70 4.26 37.16L4.15 37.05L4.14 37.04Q4.61 39.26 5.52 40.40L5.49 40.38L5.51 40.46L5.58 40.54Q6.48 43.08 10.21 43.49L10.22 43.51L10.22 43.50Q11.11 43.64 16.37 43.83ZM13.49 31.01L13.61 31.13L13.60 31.12Q14.52 31.20 16.19 31.74L16.10 31.64L16.06 31.60Q16.47 32.39 16.43 33.88L16.44 33.89L16.47 33.91Q16.27 37.30 13.38 38.06L13.50 38.18L13.50 38.18Q12.79 38.38 11.76 38.50L11.70 38.44L11.72 38.46Q10.67 38.51 8.95 37.90L8.91 37.86L8.89 37.84Q8.71 37.20 8.75 35.71L8.76 35.72L8.69 35.65Q8.73 33.29 10.10 32.27L10.07 32.24L10.13 32.29Q11.11 31.49 13.66 31.18Z"/><path fill="#333" d="M87.39 33.00L87.43 33.04L87.43 33.04Q90.40 32.55 93.60 32.66L93.70 32.76L93.57 32.63Q93.66 30.21 93.66 27.81L93.59 27.74L93.51 27.66Q93.66 25.33 93.85 22.78L93.86 22.80L93.85 22.78Q92.49 24.36 87.28 32.88ZM97.23 40.29L97.23 40.28L97.27 40.33Q95.63 40.06 93.84 39.98L93.74 39.88L93.74 39.88Q93.66 37.63 93.54 35.15L93.43 35.04L93.41 35.02Q88.22 34.97 83.50 36.38L83.37 36.25L83.41 36.29Q83.53 35.81 83.73 34.82L83.67 34.76L83.82 34.91Q85.47 31.61 89.05 25.33L89.15 25.44L89.11 25.39Q91.89 20.41 95.32 16.53L95.45 16.65L95.36 16.56Q96.36 16.50 98.04 16.23L97.96 16.16L97.98 16.18Q96.01 22.55 96.01 29.59L96.01 29.59L96.02 29.59Q96.08 31.14 96.15 32.62L96.13 32.60L97.51 32.80L97.42 32.71Q97.95 32.67 98.56 32.78L98.58 32.81L98.58 32.81Q98.81 33.91 99.08 35.85L98.99 35.77L98.97 35.75Q97.82 35.55 96.34 35.36L96.27 35.30L96.35 35.37Q96.62 37.43 97.31 40.37ZM98.95 32.53L98.85 32.43L99.02 32.60Q98.67 32.36 98.48 32.36L98.51 32.39L98.14 32.40L98.20 32.47Q97.95 30.84 97.95 29.43L98.11 29.60L98.14 29.62Q98.11 23.20 100.17 17.19L100.13 17.15L100.04 17.06Q99.30 17.35 97.86 17.73L97.90 17.78L97.95 17.83Q98.03 16.91 98.48 15.50L98.56 15.57L98.63 15.65Q97.32 16.01 95.26 16.24L95.21 16.19L95.25 16.23Q91.22 20.46 86.01 29.83L86.15 29.97L88.21 26.28L88.26 26.33Q87.80 27.31 87.53 27.88L87.55 27.91L83.02 36.85L82.95 36.78Q83.78 36.81 84.92 36.43L84.93 36.44L84.59 36.48L84.61 36.49Q84.58 37.27 84.28 38.53L84.27 38.51L84.24 38.49Q88.28 37.08 93.11 37.27L93.14 37.31L93.15 37.31Q93.34 38.41 93.53 40.39L93.48 40.35L93.40 40.26Q94.46 40.26 95.53 40.37L95.59 40.44L95.54 40.39Q95.73 41.11 96.00 42.49L95.89 42.38L95.95 42.43Q97.89 42.70 100.90 43.62L100.88 43.60L100.85 43.56Q99.87 41.44 98.96 38.17L99.04 38.25L100.41 38.63L100.40 38.62Q101.17 38.94 101.86 39.28L101.80 39.22L101.72 39.14Q100.93 36.64 100.77 34.96L100.93 35.12L100.82 35.01Q100.34 34.95 99.20 34.72L99.15 34.67L99.18 34.70Q99.02 33.47 99.02 32.60ZM90.90 32.32L90.97 32.39L90.88 32.30Q91.60 30.97 93.17 28.42L93.31 28.56L93.32 28.58Q93.25 29.45 93.21 30.41L93.31 30.50L93.14 30.33Q93.25 31.44 93.29 32.39L93.25 32.35L93.22 32.32Q92.71 32.34 92.13 32.34L92.18 32.38L92.17 32.37Q91.50 32.31 90.89 32.31Z"/><path d="M10 2 C89 2,64 12,139 45" stroke="#555" fill="none"/><path fill="#111" d="M55.44 41.32L55.45 41.32L52.43 41.16L52.46 41.19Q49.88 40.89 49.08 40.78L49.25 40.96L49.08 40.78Q47.37 40.56 46.19 39.68L46.26 39.75L46.16 39.65Q44.91 38.28 44.68 34.93L44.67 34.92L44.64 34.90Q44.70 34.50 44.63 33.28L44.46 33.11L44.61 33.27Q44.46 32.70 44.38 31.59L44.49 31.70L44.44 31.64Q44.38 30.79 44.42 30.07L44.44 30.09L44.46 30.11Q44.59 28.11 45.62 27.35L45.67 27.40L45.68 27.41Q47.68 26.32 52.51 26.09L52.52 26.10L52.52 26.10Q54.43 25.88 55.23 25.88L55.23 25.88L55.23 25.88Q56.79 25.96 58.16 26.26L58.11 26.21L58.05 26.15Q57.58 27.51 57.05 29.33L56.98 29.27L57.02 29.30Q56.62 29.48 56.12 29.44L56.00 29.31L55.97 29.28Q55.99 29.38 55.45 29.26L55.42 29.23L54.43 28.96L54.51 29.04Q53.45 28.78 52.84 28.82L52.68 28.66L52.83 28.81Q47.96 28.73 47.35 31.55L47.34 31.54L47.50 31.70Q47.13 32.74 47.20 33.69L47.14 33.63L47.16 33.64Q47.45 36.37 48.69 37.46L48.59 37.36L48.65 37.42Q49.78 38.39 52.37 38.43L52.40 38.47L52.51 38.57Q53.89 38.51 54.61 38.21L54.62 38.21L55.59 37.66L55.67 37.74Q56.12 37.43 56.69 37.35L56.83 37.49L56.89 37.55Q57.01 39.23 57.39 40.53L57.47 40.60L57.32 40.46Q57.23 40.98 55.44 41.32ZM58.54 44.11L58.61 44.18L58.62 44.19Q58.97 44.20 59.80 44.27L59.91 44.38L59.92 44.39Q60.56 44.42 60.91 43.85L60.85 43.80L60.89 43.84Q59.62 41.69 59.12 39.59L59.02 39.49L59.14 39.61Q58.73 39.50 58.27 39.50L58.41 39.64L58.34 39.57Q57.86 39.51 57.48 39.70L57.55 39.77L57.43 39.66Q57.23 38.54 57.08 37.13L56.97 37.02L57.03 37.08Q56.32 36.91 55.11 37.48L55.17 37.54L55.09 37.47Q53.99 38.15 53.49 38.15L53.43 38.08L53.39 38.05Q52.97 38.12 52.36 38.08L52.38 38.10L52.49 38.22Q51.41 38.01 49.43 37.44L49.45 37.46L49.42 37.43Q49.27 36.90 49.31 35.75L49.25 35.70L49.30 35.75Q49.39 31.42 54.34 30.89L54.34 30.89L54.33 30.87Q55.11 30.98 56.48 31.32L56.36 31.20L56.35 31.19Q57.85 31.66 58.58 31.62L58.49 31.54L58.41 31.46Q58.86 29.24 59.55 27.42L59.61 27.48L59.52 27.39Q59.23 27.37 58.85 27.29L58.93 27.37L58.01 27.13L58.00 27.12Q58.37 26.81 58.75 25.94L58.73 25.92L58.71 25.90Q57.06 25.42 55.50 25.42L55.54 25.46L55.57 25.49Q53.17 25.49 48.79 25.87L48.73 25.81L48.75 25.83Q46.84 26.02 45.28 27.01L45.24 26.97L45.28 27.00Q44.05 27.95 44.05 29.85L44.14 29.94L44.08 29.88Q44.08 30.30 44.19 31.51L44.09 31.41L44.15 31.47Q44.34 32.61 44.30 33.22L44.29 33.21L44.15 33.07Q44.33 35.12 45.06 38.85L44.98 38.77L45.02 38.81Q45.38 39.64 45.88 40.13L45.83 40.08L46.12 40.37L46.11 40.32L46.10 40.31Q47.09 42.41 51.01 43.02L50.98 42.99L51.00 43.01Q54.17 43.51 56.83 43.78L56.83 43.77L56.82 43.76Q57.66 43.88 58.58 44.15Z"/><path fill="#111" d="M131.65 40.98L131.65 40.98L131.74 41.08Q127.40 29.66 122.26 24.67L122.40 24.81L122.43 24.84Q123.84 25.41 126.81 26.06L126.78 26.03L126.80 26.05Q130.31 29.94 132.86 36.60L132.82 36.56L132.91 36.65Q135.57 29.30 138.20 26.26L138.10 26.16L138.11 26.17Q140.07 26.03 142.51 25.35L142.53 25.37L142.54 25.38Q139.40 28.14 137.23 32.71L137.14 32.62L137.18 32.66Q136.94 33.44 133.55 41.06L133.40 40.90L133.44 40.95Q132.93 41.13 131.71 41.05ZM136.30 43.42L136.38 43.51L136.31 43.44Q139.59 31.08 144.16 26.39L144.16 26.40L142.69 26.90L142.69 26.90Q141.86 27.10 141.02 27.21L141.03 27.22L141.00 27.19Q141.61 26.92 142.42 26.05L142.29 25.91L142.45 26.07Q143.20 25.12 143.65 24.71L143.64 24.69L143.72 24.77Q141.41 25.32 137.98 25.81L137.92 25.75L138.05 25.88Q135.30 29.03 133.25 34.63L133.24 34.62L133.26 34.64Q131.65 30.48 129.82 28.00L129.73 27.91L129.22 27.93L129.26 27.98Q128.90 27.88 128.67 27.88L128.63 27.84L128.68 27.89Q128.57 27.67 126.86 25.61L126.86 25.61L126.81 25.56Q123.56 25.17 121.32 24.03L121.16 23.87L121.15 23.86Q127.35 29.65 131.35 41.37L131.45 41.47L132.29 41.32L132.33 41.36Q132.71 42.04 133.54 43.34L133.63 43.42L134.94 43.36L134.88 43.30Q135.62 43.32 136.27 43.40Z"/><path fill="#222" d="M68.27 27.25L68.23 27.21L68.28 27.26Q68.91 27.09 70.32 26.94L70.31 26.93L70.30 26.92Q70.40 27.71 70.40 28.36L70.30 28.25L70.45 29.66L70.44 29.65Q69.55 29.60 68.71 29.68L68.60 29.57L68.71 29.67Q67.86 29.70 67.03 29.67L66.94 29.57L67.07 29.71Q64.16 35.82 60.73 40.43L60.81 40.50L60.78 40.48Q58.22 41.07 56.92 41.68L56.90 41.66L56.98 41.74Q61.09 36.03 64.14 29.75L64.06 29.67L61.41 29.65L61.43 29.67Q61.42 28.33 61.31 26.99L61.42 27.11L61.28 26.96Q63.23 27.16 65.29 27.16L65.25 27.13L67.21 23.49L67.25 23.53Q68.26 21.65 69.48 20.05L69.44 20.01L69.34 19.91Q67.93 20.22 66.33 20.22L66.27 20.15L66.21 20.10Q60.12 20.09 56.35 17.88L56.45 17.98L55.77 16.23L55.84 16.30Q55.32 15.30 54.94 14.42L55.11 14.59L55.04 14.52Q59.32 17.08 65.03 17.31L65.05 17.33L65.00 17.29Q70.16 17.54 75.30 15.56L75.37 15.63L75.36 15.61Q75.08 15.94 74.59 16.82L74.61 16.84L74.65 16.88Q70.96 21.57 68.11 27.09ZM76.23 18.24L76.27 18.28L77.34 16.34L77.32 16.32Q76.24 16.69 74.57 17.41L74.62 17.46L74.75 17.10L74.88 17.23Q74.85 16.93 74.96 16.82L75.04 16.89L74.95 16.80Q75.41 16.20 76.14 14.87L76.14 14.87L76.19 14.92Q70.76 17.10 65.01 16.87L65.03 16.90L65.08 16.94Q59.09 16.70 54.33 13.73L54.23 13.63L54.27 13.67Q55.36 15.60 56.20 18.26L56.12 18.18L56.20 18.27Q57.26 18.87 58.06 19.17L57.98 19.09L58.03 19.14Q58.19 19.50 58.65 21.37L58.67 21.39L58.76 21.48Q61.78 22.59 67.30 22.44L67.43 22.57L67.26 22.39Q67.12 23.14 65.14 26.90L65.15 26.91L65.01 26.77Q62.97 26.79 60.99 26.60L60.97 26.58L61.07 26.68Q61.14 27.51 61.14 28.39L61.06 28.31L61.05 30.01L62.72 30.00L62.87 31.56L62.79 31.48Q58.86 38.85 56.08 42.43L56.17 42.52L56.03 42.39Q57.65 41.65 59.29 41.15L59.23 41.09L59.38 41.25Q58.65 42.11 57.28 43.83L57.30 43.85L57.22 43.76Q60.50 42.78 62.94 42.56L62.83 42.45L62.88 42.49Q65.74 38.66 68.86 31.88L68.95 31.97L72.38 32.16L72.34 32.13Q72.35 31.29 72.35 30.38L72.19 30.22L72.26 28.51L72.26 28.51Q71.93 28.44 71.38 28.48L71.39 28.48L71.49 28.59Q70.84 28.52 70.57 28.52L70.56 28.52L70.53 28.48Q70.64 28.48 70.67 28.32L70.57 28.22L70.59 27.97L70.64 28.02Q73.15 22.88 76.23 18.24Z"/><path fill="#222" d="M81.67 27.20L81.68 27.21L81.62 27.15Q82.47 27.20 83.88 27.05L83.88 27.05L83.89 27.06Q83.88 27.73 83.88 28.38L83.84 28.34L83.79 29.55L83.89 29.65Q82.93 29.52 82.09 29.60L82.15 29.66L82.16 29.67Q81.37 29.76 80.53 29.72L80.38 29.56L80.45 29.63Q77.67 35.87 74.24 40.48L74.16 40.40L74.28 40.52Q71.70 41.10 70.41 41.71L70.38 41.68L70.43 41.73Q74.55 36.03 77.59 29.74L77.52 29.67L74.83 29.61L74.87 29.65Q74.87 28.31 74.75 26.98L74.69 26.92L74.72 26.95Q76.73 27.21 78.79 27.21L78.66 27.09L80.60 23.43L80.72 23.55Q81.63 21.56 82.84 19.96L82.76 19.88L82.79 19.91Q81.37 20.20 79.77 20.20L79.65 20.08L79.66 20.08Q73.59 20.11 69.82 17.90L69.89 17.97L69.12 16.13L69.27 16.28Q68.80 15.32 68.42 14.45L68.49 14.51L68.46 14.49Q72.72 17.03 78.43 17.25L78.44 17.27L78.49 17.32Q83.68 17.60 88.82 15.62L88.90 15.70L88.89 15.69Q88.54 15.95 88.04 16.82L88.21 16.98L88.06 16.83Q84.55 21.70 81.69 27.22ZM89.62 18.17L89.65 18.20L90.80 16.34L90.72 16.26Q89.68 16.67 88.00 17.39L87.98 17.37L88.18 17.07L88.26 17.15Q88.42 17.04 88.53 16.93L88.57 16.97L88.43 16.83Q88.79 16.12 89.51 14.79L89.54 14.82L89.67 14.94Q84.33 17.22 78.59 17.00L78.49 16.90L78.56 16.97Q72.43 16.59 67.67 13.62L67.66 13.61L67.69 13.64Q68.79 15.58 69.63 18.24L69.64 18.25L69.59 18.21Q70.71 18.86 71.51 19.17L71.61 19.27L71.50 19.16Q71.59 19.44 72.04 21.30L72.10 21.36L72.19 21.45Q75.32 22.68 80.84 22.53L80.79 22.47L80.80 22.48Q80.59 23.15 78.61 26.92L78.42 26.73L78.46 26.77Q76.38 26.74 74.40 26.55L74.54 26.69L74.49 26.64Q74.51 27.42 74.51 28.30L74.57 28.36L74.48 29.98L76.18 30.01L76.20 31.43L76.32 31.55Q72.32 38.86 69.54 42.44L69.48 42.39L69.62 42.52Q71.10 41.64 72.74 41.15L72.82 41.23L72.77 41.18Q72.06 42.07 70.69 43.78L70.81 43.90L70.81 43.90Q73.92 42.75 76.36 42.52L76.41 42.57L76.29 42.45Q79.19 38.65 82.31 31.88L82.45 32.01L85.84 32.17L85.79 32.12Q85.64 31.13 85.64 30.21L85.79 30.36L85.80 28.59L85.77 28.56Q85.50 28.55 84.95 28.59L84.95 28.59L84.81 28.45Q84.41 28.64 84.14 28.64L84.17 28.67L84.02 28.52Q84.01 28.40 84.05 28.25L84.12 28.32L84.07 28.00L84.04 27.97Q86.72 23.00 89.81 18.36Z"/></svg>