<svg xmlns="http://www.w3.org/2000/svg" width="150" height="50" viewBox="0,0,150,50"><path fill="#333" d="M7.85 19.42L7.76 19.33L7.77 19.34Q8.67 23.63 8.83 27.21L8.76 27.14L8.81 27.19Q9.85 27.20 10.91 27.20L10.89 27.18L13.09 27.16L13.13 27.20Q14.13 27.14 15.00 25.73L15.09 25.81L15.09 25.82Q15.76 24.58 15.88 23.40L15.94 23.47L15.85 23.38Q16.33 20.47 12.10 19.97L12.09 19.96L12.12 20.00Q10.34 19.85 7.71 19.28ZM8.80 29.92L8.74 29.86L8.92 30.04Q8.68 36.09 7.54 40.50L7.59 40.55L7.54 40.50Q6.15 40.97 3.82 42.04L3.76 41.98L3.92 42.13Q6.14 35.33 5.87 28.06L5.88 28.06L5.90 28.09Q5.56 20.66 2.78 14.23L2.86 14.31L2.81 14.26Q6.99 17.07 13.24 17.07L13.22 17.06L13.23 17.06Q19.31 17.09 19.46 20.55L19.55 20.65L19.40 20.50Q19.60 23.06 18.61 25.72L18.61 25.72L18.47 25.58Q18.17 26.80 17.22 28.02L17.19 28.00L17.25 28.05Q15.87 29.61 13.32 29.87L13.29 29.84L13.37 29.92Q11.06 29.90 8.82 29.94ZM14.98 32.22L14.94 32.18L14.99 32.22Q19.07 32.38 20.32 27.59L20.28 27.55L20.27 27.53Q21.41 24.07 21.26 22.05L21.25 22.04L21.23 22.02Q21.01 20.39 20.25 19.40L20.29 19.44L20.21 19.37Q19.97 19.12 19.47 18.89L19.41 18.83L19.44 18.86Q19.51 18.78 18.90 18.02L18.81 17.93L18.86 17.97Q17.22 16.56 13.26 16.56L13.30 16.60L13.40 16.70Q6.39 16.58 2.16 13.42L2.23 13.49L2.22 13.48Q5.34 20.52 5.61 27.98L5.54 27.91L5.56 27.93Q5.87 35.63 3.20 42.71L3.25 42.75L3.24 42.74Q4.42 42.21 5.41 41.83L5.37 41.79L4.95 42.89L4.99 42.94Q4.75 43.46 4.48 44.03L4.43 43.97L4.52 44.07Q6.89 42.97 9.78 42.44L9.79 42.45L9.80 42.45Q10.68 36.98 10.76 32.26L10.83 32.33L10.66 32.16Q11.85 32.17 12.84 32.17L12.81 32.14L12.93 32.26Q14.13 32.12 14.92 32.16ZM13.98 22.23L13.96 22.21L13.92 22.17Q14.50 22.26 15.49 22.49L15.44 22.43L15.48 22.47Q15.61 22.72 15.65 23.02L15.65 23.02L15.64 23.02Q15.78 23.39 15.70 23.65L15.52 23.47L15.65 23.60Q15.54 24.82 14.82 25.70L14.72 25.60L14.73 25.61Q14.12 26.64 13.10 26.83L13.26 27.00L13.24 26.97Q12.41 26.86 10.77 26.86L10.69 26.79L10.77 26.86Q10.79 24.64 10.56 22.28L10.52 22.24L12.33 22.37L12.31 22.36Q13.17 22.38 14.05 22.30Z"/><path fill="#111" d="M65.65 28.90L65.64 28.89L65.65 28.89Q62.97 28.73 61.68 29.87L61.70 29.90L61.73 29.93Q60.26 31.12 60.45 33.63L60.38 33.56L60.38 33.56Q60.70 36.55 61.88 37.62L61.97 37.70L61.99 37.73Q63.37 38.91 65.46 38.76L65.50 38.80L65.53 38.83Q67.70 38.87 69.11 37.61L69.02 37.52L69.02 37.52Q70.43 36.45 70.62 33.90L70.57 33.86L70.49 33.77Q70.99 28.98 65.62 28.87ZM65.34 41.27L65.48 41.40L63.90 41.38L63.84 41.32Q60.96 41.30 59.48 39.89L59.42 39.84L59.47 39.89Q58.58 38.96 58.31 37.01L58.23 36.94L58.31 37.02Q58.10 35.86 57.95 33.65L57.95 33.65L57.97 33.67Q57.82 32.61 57.71 30.36L57.71 30.36L57.79 30.44Q57.67 28.53 58.63 27.39L58.58 27.34L58.54 27.30Q60.32 25.86 65.04 26.01L65.06 26.03L65.18 26.14Q69.93 26.13 71.75 27.65L71.89 27.79L71.82 27.72Q73.30 28.94 73.11 32.14L73.10 32.12L73.05 32.07Q72.84 35.63 72.76 36.05L72.78 36.07L72.85 36.13Q72.44 38.31 71.10 39.49L71.27 39.66L71.14 39.53Q69.21 41.33 65.40 41.33ZM70.16 43.80L70.05 43.69L70.00 43.64Q71.54 43.73 73.44 43.58L73.53 43.67L73.50 43.64Q74.07 43.63 74.07 43.48L73.90 43.32L73.95 43.37Q73.94 43.28 73.90 43.12L73.93 43.15L73.84 43.06Q73.81 42.92 73.81 42.81L73.97 42.96L73.81 42.81Q73.91 42.64 74.25 42.33L74.27 42.35L74.26 42.34Q75.06 41.12 75.06 39.22L75.07 39.23L75.06 39.22Q75.12 38.33 75.03 35.91L75.04 35.92L75.00 35.89Q74.89 33.45 74.74 32.35L74.68 32.29L74.77 32.38Q74.47 30.33 73.56 29.19L73.52 29.16L73.23 28.97L73.24 28.99Q73.05 28.31 72.25 27.39L72.14 27.28L72.28 27.41Q69.92 25.63 65.01 25.63L65.01 25.63L63.37 25.74L63.26 25.63Q59.90 25.59 58.19 26.96L58.35 27.12L58.19 26.95Q57.42 28.17 57.46 30.19L57.34 30.07L57.49 30.22Q57.37 30.52 57.51 31.77L57.55 31.82L57.65 31.92Q57.64 33.03 57.61 33.49L57.60 33.48L57.69 33.57Q57.91 36.61 57.98 37.07L58.06 37.14L57.98 37.07Q58.27 39.10 59.18 40.24L59.23 40.29L59.42 40.56L59.38 40.52Q60.14 42.92 63.87 43.34L63.90 43.36L64.03 43.50Q64.78 43.48 70.03 43.67ZM67.40 31.10L67.31 31.01L67.35 31.05Q68.32 31.18 69.99 31.72L69.88 31.60L69.98 31.70Q70.34 32.45 70.30 33.93L70.30 33.92L70.22 33.84Q70.04 37.25 67.15 38.01L67.28 38.14L67.32 38.18Q66.54 38.32 65.52 38.43L65.49 38.41L65.47 38.39Q64.48 38.50 62.76 37.89L62.72 37.84L62.72 37.85Q62.46 37.13 62.50 35.65L62.54 35.68L62.56 35.70Q62.60 33.35 63.97 32.32L63.93 32.28L63.99 32.34Q64.79 31.35 67.34 31.04Z"/><path fill="#111" d="M83.03 38.90L83.15 39.02L83.14 39.00Q84.95 36.55 89.71 29.28L89.78 29.35L89.60 29.17Q93.79 23.12 96.64 19.85L96.66 19.86L96.71 19.91Q94.43 20.03 92.33 20.03L92.49 20.19L92.47 20.17Q87.27 20.22 83.27 18.43L83.24 18.40L83.20 18.36Q82.43 16.33 81.74 14.77L81.77 14.80L81.89 14.92Q86.41 17.04 92.09 17.16L92.07 17.14L92.10 17.17Q97.16 17.17 102.34 15.26L102.28 15.20L102.28 15.21Q102.02 16.17 101.72 16.97L101.63 16.88L101.06 18.48L101.06 18.48Q98.12 22.24 94.13 28.07L94.09 28.03L90.68 32.76L90.77 32.86Q89.06 35.26 87.23 37.54L87.25 37.56L87.20 37.51Q90.59 36.98 93.90 37.05L93.87 37.02L93.77 36.93Q97.09 37.01 100.25 37.92L100.45 38.12L100.93 39.70L100.78 39.56Q100.98 40.32 101.32 41.16L101.34 41.18L101.47 41.32Q96.67 39.59 91.53 39.78L91.59 39.84L91.61 39.87Q86.56 40.14 82.06 42.16L82.06 42.15L82.09 42.18Q82.43 41.08 83.16 39.03ZM81.35 42.74L81.31 42.69L81.33 42.72Q82.69 42.25 83.49 41.98L83.42 41.92L83.32 41.82Q83.12 42.64 82.43 44.16L82.46 44.19L82.53 44.26Q88.17 42.06 94.15 42.29L94.04 42.18L94.14 42.28Q100.39 42.44 105.41 45.22L105.55 45.36L105.44 45.24Q104.14 42.95 103.34 40.78L103.21 40.65L103.30 40.74Q102.87 40.57 101.34 40.00L101.16 39.82L101.22 39.88Q101.01 39.10 100.59 37.62L100.62 37.65L100.72 37.75Q96.60 36.59 91.50 36.78L91.37 36.66L91.36 36.65Q93.61 34.02 97.15 28.46L97.10 28.41L97.16 28.47Q100.66 22.61 102.56 20.06L102.64 20.13L102.55 20.05Q103.16 18.75 104.18 16.04L104.11 15.97L104.11 15.97Q103.57 16.46 102.12 17.06L102.06 17.00L102.01 16.95Q102.28 16.08 103.00 14.56L103.04 14.59L103.03 14.59Q97.71 16.73 92.00 16.65L92.14 16.79L92.07 16.72Q86.16 16.67 81.21 14.16L81.05 14.00L81.05 14.00Q82.33 16.50 83.05 18.74L83.07 18.76L83.04 18.73Q84.02 19.14 84.82 19.37L84.87 19.41L84.97 19.52Q85.15 20.12 85.42 21.57L85.39 21.54L85.48 21.63Q89.19 22.68 94.07 22.48L93.96 22.38L94.07 22.49Q91.63 25.65 88.32 30.63L88.34 30.65L82.89 39.06L82.71 38.88Q82.34 40.15 81.31 42.70Z"/><path fill="#333" d="M49.54 25.03L49.67 25.16L49.57 25.06Q50.37 25.32 52.35 25.32L52.45 25.42L52.35 32.48L52.51 32.63Q52.40 36.75 52.51 39.65L52.53 39.66L52.51 39.64Q52.21 39.57 51.82 39.57L51.84 39.58L51.88 39.62Q50.48 39.67 49.03 41.00L49.08 41.04L48.99 40.95Q49.75 33.30 49.55 25.04ZM49.70 19.85L48.53 17.16L48.41 17.04Q50.04 16.08 50.76 15.13L50.71 15.08L50.67 15.04Q51.80 16.96 53.20 18.64L53.28 18.71L53.13 18.56Q52.35 20.10 50.98 22.23L51.01 22.27L50.98 22.24Q50.18 21.10 49.61 19.76L49.62 19.78ZM48.37 41.74L48.46 41.83L48.43 41.80Q49.43 40.71 50.68 40.22L50.70 40.23L50.66 40.19Q50.78 41.00 50.67 42.37L50.56 42.26L50.57 42.27Q51.31 42.10 51.96 42.10L51.92 42.07L51.99 42.13Q54.16 42.09 55.57 44.07L55.56 44.07L55.59 44.09Q54.25 36.66 54.33 26.50L54.37 26.54L54.41 26.58Q53.65 26.77 52.81 26.89L52.69 26.77L52.70 24.91L52.69 24.90Q51.76 25.11 50.96 25.03L50.92 25.00L50.84 24.92Q50.02 24.85 49.14 24.36L49.19 24.41L49.15 24.36Q49.42 26.54 49.42 28.59L49.41 28.58L49.24 28.41Q49.33 35.55 48.45 41.83ZM51.04 22.91L50.98 22.85L51.24 22.73L51.36 22.55L51.35 22.54Q51.73 23.29 52.75 24.77L52.76 24.78L52.69 24.71Q54.13 22.45 55.46 18.91L55.39 18.84L55.43 18.88Q54.49 18.06 52.93 16.46L53.07 16.60L52.92 16.45Q52.73 16.57 52.47 17.03L52.56 17.12L52.52 17.08Q51.56 15.81 50.64 14.36L50.72 14.44L50.77 14.49Q49.24 16.05 48.06 16.39L48.20 16.53L48.07 16.39Q49.13 19.81 50.95 22.82Z"/><path fill="#444" d="M106.29 40.18L106.36 40.25L106.30 40.19Q104.41 40.08 102.73 40.65L102.71 40.64L102.74 40.66Q103.21 36.98 103.33 33.86L103.50 34.04L103.40 33.93Q103.48 30.86 103.25 27.20L103.37 27.32L103.30 27.25Q101.86 26.83 101.09 26.45L101.09 26.45L100.66 23.39L100.68 23.41Q101.57 24.19 103.17 24.76L103.16 24.75L103.15 24.74Q102.86 22.55 102.44 19.80L102.38 19.74L102.44 19.80Q104.82 20.59 106.46 20.44L106.36 20.33L106.35 25.04L106.23 24.93Q107.68 24.89 109.01 24.40L108.99 24.37L109.10 24.48Q109.02 25.36 108.79 27.11L108.67 26.98L108.83 27.14Q107.28 27.46 106.25 27.46L106.26 27.47L106.24 27.45Q106.24 29.62 106.24 33.89L106.27 33.91L106.13 33.77Q106.28 38.07 106.35 40.24ZM109.49 23.88L109.48 23.87L109.38 23.78Q109.10 23.88 108.50 24.11L108.58 24.20L108.92 21.37L108.93 21.38Q108.22 21.78 106.81 22.01L106.70 21.90L106.68 21.87Q106.71 21.22 106.87 19.85L106.85 19.84L106.79 19.78Q106.19 19.86 105.62 19.86L105.77 20.01L105.75 19.99Q103.57 19.95 101.94 19.22L101.84 19.13L101.91 19.20Q102.40 21.67 102.67 24.15L102.72 24.19L102.69 24.17Q101.72 23.73 100.20 22.70L100.23 22.73L100.35 22.85Q100.62 24.08 100.85 26.78L100.86 26.79L100.82 26.75Q101.38 27.08 102.56 27.50L102.57 27.51L102.48 27.42Q102.47 28.02 102.50 29.42L102.47 29.39L102.89 29.46L103.06 29.56L103.13 29.63Q103.04 30.72 103.04 31.90L103.16 32.02L103.16 32.02Q103.05 36.86 102.25 41.20L102.24 41.19L102.21 41.16Q102.42 41.07 104.36 40.53L104.35 40.52L104.51 40.68Q104.49 41.31 104.38 42.68L104.39 42.69L104.46 42.76Q105.17 42.60 105.97 42.60L105.93 42.56L106.06 42.69Q107.66 42.57 109.29 43.14L109.24 43.09L109.30 43.14Q108.04 37.51 108.23 29.59L108.24 29.60L110.57 29.15L110.59 29.17Q110.64 28.24 110.72 27.21L110.81 27.30L110.91 25.19L110.89 25.17Q110.39 25.51 109.21 25.96L109.17 25.93L109.23 25.99Q109.46 24.58 109.39 24.24L109.37 24.22L109.43 24.29Q109.33 23.99 109.41 23.80Z"/><path d="M6 23 C80 45,82 44,142 14" stroke="#666" fill="none"/><path fill="#111" d="M20.65 40.29L20.78 40.41L20.80 40.44Q19.26 40.38 17.70 39.96L17.72 39.98L17.83 40.09Q16.57 39.14 16.42 37.50L16.39 37.47L16.30 37.38Q16.28 37.21 16.47 34.58L16.58 34.70L16.50 34.62Q17.60 34.50 19.62 34.12L19.58 34.08L19.39 34.85L19.29 34.74Q19.20 36.67 20.61 37.24L20.60 37.23L20.43 37.06Q21.41 37.58 23.50 37.58L23.50 37.58L23.45 37.53Q24.98 37.31 25.17 37.23L25.12 37.18L25.20 37.26Q26.02 37.02 26.74 36.52L26.90 36.68L26.89 36.67Q28.18 35.59 27.98 33.50L28.06 33.57L28.07 33.59Q27.91 31.18 26.18 29.62L26.22 29.66L26.09 29.53Q24.34 27.95 21.87 27.95L21.90 27.98L21.93 27.79L21.99 27.84Q22.27 27.70 23.14 27.63L23.20 27.68L23.24 27.73Q25.08 27.55 26.45 26.31L26.52 26.38L26.52 26.38Q27.83 25.09 27.98 23.22L28.00 23.24L28.06 23.29Q28.13 22.95 28.13 22.60L28.08 22.55L27.97 22.45Q28.11 21.06 26.74 20.14L26.62 20.03L26.68 20.09Q25.45 19.28 23.85 19.39L23.88 19.42L23.78 19.32Q22.55 19.23 21.33 19.65L21.44 19.76L21.45 19.77Q19.90 20.20 19.60 21.34L19.61 21.36L19.51 21.25Q19.37 22.06 19.44 22.83L19.53 22.92L19.56 22.94Q18.41 22.60 16.36 21.87L16.35 21.87L16.46 21.97Q16.18 20.25 16.22 19.41L16.14 19.33L16.20 19.39Q16.24 17.79 17.30 17.11L17.44 17.25L17.38 17.18Q18.84 16.63 20.44 16.63L20.31 16.50L20.46 16.65Q23.57 16.56 26.73 16.83L26.80 16.90L26.64 16.74Q31.74 17.19 31.43 20.96L31.39 20.91L31.53 21.06Q31.36 22.44 30.86 24.00L30.82 23.96L30.99 24.13Q29.91 27.05 27.55 27.96L27.73 28.15L27.66 28.07Q30.22 28.54 30.83 31.89L30.87 31.93L30.77 31.83Q31.13 33.11 31.21 35.13L31.23 35.15L31.22 35.13Q31.28 39.50 26.68 39.96L26.80 40.08L26.75 40.03Q26.05 40.13 20.76 40.40ZM25.83 42.50L25.92 42.59L25.97 42.64Q26.50 42.60 29.35 42.67L29.40 42.72L29.48 42.79Q31.18 42.82 32.82 42.18L32.75 42.11L32.70 42.06Q34.00 41.23 33.81 39.48L33.78 39.45L33.81 39.48Q33.58 38.03 33.28 36.28L33.31 36.32L33.41 36.41Q32.69 31.92 30.75 30.29L30.69 30.22L30.44 29.79L30.36 29.67L30.53 29.84Q32.27 28.38 33.03 24.00L32.99 23.97L32.97 23.94Q33.07 23.54 33.18 22.59L33.12 22.53L33.11 22.52Q33.16 21.74 33.09 21.05L33.02 20.98L33.04 21.00Q32.96 19.41 31.67 18.72L31.70 18.75L31.66 18.78L31.54 18.67Q31.25 17.69 30.11 17.16L30.19 17.24L30.10 17.15Q28.60 16.49 23.46 16.19L23.42 16.14L23.49 16.22Q21.81 16.13 20.21 16.13L20.15 16.08L20.29 16.21Q18.56 16.08 17.04 16.73L17.18 16.87L17.15 16.84Q15.93 17.60 15.93 19.35L15.85 19.27L15.95 19.37Q15.91 18.92 16.18 22.27L16.23 22.32L16.19 22.28Q16.53 22.38 18.16 22.99L18.11 22.94L18.07 22.90Q18.12 23.48 18.08 23.98L18.02 23.92L17.99 23.89Q18.11 24.50 18.15 25.03L18.12 25.01L18.17 25.06Q19.87 25.35 21.89 25.46L21.87 25.45L21.83 25.40Q21.84 23.47 22.94 22.63L22.94 22.62L22.84 22.53Q23.66 21.86 25.68 21.64L25.85 21.81L25.86 21.82Q26.88 21.70 27.46 21.89L27.48 21.92L27.55 21.99Q27.47 21.98 27.51 22.10L27.58 22.17L27.57 22.35L27.75 22.99L27.65 22.88Q27.62 23.05 27.58 23.20L27.60 23.22L27.71 23.33Q27.62 25.03 26.10 26.21L25.96 26.07L26.10 26.21Q25.16 27.09 23.14 27.28L23.09 27.23L23.16 27.30Q22.42 27.44 21.55 27.44L21.41 27.30L21.50 27.39Q21.50 27.69 21.65 28.38L21.67 28.40L21.61 28.34Q23.41 28.40 24.86 29.12L24.94 29.20L24.83 29.20L23.25 29.37L23.16 29.28Q23.32 29.75 23.44 30.36L23.35 30.27L23.38 30.31Q25.50 30.21 27.21 31.55L27.23 31.56L27.20 31.54Q27.41 31.90 27.71 33.53L27.81 33.63L27.68 33.50Q27.96 36.52 25.03 36.94L24.95 36.86L25.10 37.01Q23.01 37.28 22.44 37.24L22.34 37.14L22.34 37.14Q21.97 37.12 21.44 37.04L21.43 37.03L21.38 36.53L21.47 36.05L21.57 35.72L21.55 35.37L21.50 35.31Q20.50 35.34 19.70 35.53L19.80 35.63L19.72 35.56Q19.71 35.35 19.71 35.16L19.79 35.24L19.84 35.29Q19.72 34.94 19.72 34.71L19.72 34.71L19.77 34.76Q19.81 34.34 19.96 33.62L19.93 33.59L20.02 33.68Q18.06 33.82 16.20 34.16L16.35 34.31L16.35 34.31Q16.31 34.77 16.20 35.90L16.17 35.86L16.05 35.74Q16.03 36.96 16.03 37.57L15.95 37.49L16.02 37.56Q16.17 39.69 17.54 40.45L17.53 40.44L17.52 40.43Q19.04 42.75 23.76 42.56L23.76 42.56L23.70 42.50Q24.32 42.36 25.85 42.52Z"/><path fill="#333" d="M111.21 14.34L111.16 14.29L111.30 14.43Q113.76 16.05 115.51 16.47L115.52 16.48L115.48 16.44Q116.84 22.98 116.84 29.56L116.87 29.59L116.78 29.50Q116.87 33.59 116.34 37.59L116.34 37.59L116.31 37.56Q118.40 36.95 120.87 37.02L120.96 37.11L120.87 37.02Q123.51 37.26 125.64 37.98L125.58 37.92L125.49 37.83Q125.92 39.48 126.38 41.04L126.33 40.99L126.39 41.05Q122.96 39.64 119.12 39.91L119.11 39.90L118.97 39.76Q115.20 40.10 111.96 42.00L111.93 41.98L112.00 42.05Q114.20 35.18 113.93 28.18L113.83 28.07L113.97 28.21Q113.64 21.07 111.20 14.33ZM111.54 42.84L111.53 42.83L111.48 42.78Q112.14 42.37 113.51 41.65L113.48 41.62L113.63 41.77Q113.46 42.51 112.93 44.00L112.87 43.94L112.89 43.96Q116.43 42.28 120.27 42.28L120.20 42.21L120.18 42.19Q125.96 42.33 130.07 45.38L129.89 45.20L129.92 45.24Q129.25 43.72 128.22 40.75L128.31 40.84L128.19 40.73Q127.15 40.10 126.28 39.72L126.30 39.74L126.36 39.81Q126.20 39.08 125.90 37.67L125.93 37.70L125.85 37.62Q123.28 36.77 120.28 36.77L120.23 36.72L120.26 36.75Q119.39 36.64 118.59 36.68L118.67 36.76L118.69 36.78Q118.92 31.83 118.84 27.72L118.91 27.79L118.83 27.71Q118.72 23.57 118.38 18.58L118.49 18.68L118.47 18.66Q117.04 18.53 116.24 18.34L116.17 18.27L116.14 18.24Q116.06 17.55 115.83 16.14L115.84 16.15L115.80 16.11Q112.87 15.47 110.63 13.53L110.52 13.42L110.57 13.47Q113.37 20.61 113.64 28.11L113.54 28.01L113.50 27.97Q113.93 35.67 111.53 42.83Z"/><path fill="#111" d="M139.60 37.95L139.57 37.93L139.53 37.89Q139.85 38.89 140.39 40.91L140.47 40.99L140.45 40.97Q136.26 39.68 131.66 39.95L131.65 39.94L131.57 39.86Q127.06 40.18 123.06 42.16L122.91 42.01L122.93 42.03Q123.31 41.49 123.34 41.57L123.35 41.58L123.29 41.52Q127.05 37.59 130.97 33.17L130.83 33.03L130.96 33.16Q135.27 28.06 136.45 23.38L136.50 23.44L136.56 23.49Q136.95 21.68 135.68 20.50L135.70 20.52L135.69 20.51Q134.39 19.31 132.60 19.46L132.54 19.40L132.66 19.52Q132.23 19.39 131.88 19.39L131.87 19.38L132.01 19.51Q130.32 19.35 129.07 20.26L129.16 20.36L129.13 20.33Q127.87 21.73 128.10 24.39L128.06 24.36L128.03 24.33Q126.35 24.09 125.13 23.63L125.00 23.51L125.12 23.62Q124.86 22.15 124.78 20.70L124.84 20.76L124.81 20.72Q124.79 19.15 125.40 18.00L125.32 17.92L125.35 17.95Q127.16 16.60 130.51 16.60L130.52 16.62L132.17 16.52L132.34 16.68Q134.56 16.65 135.51 16.77L135.51 16.77L135.55 16.81Q139.75 17.09 140.01 19.52L139.99 19.50L140.13 19.64Q140.15 20.16 140.07 20.95L140.02 20.90L140.15 21.03Q140.06 21.63 139.91 22.32L139.97 22.38L139.90 22.31Q138.22 30.36 130.64 37.22L130.60 37.18L130.76 37.33Q132.05 37.07 133.42 37.07L133.42 37.06L133.45 37.09Q136.76 37.17 139.62 37.97ZM138.93 17.03L138.89 16.99L139.02 17.12Q137.44 16.49 135.72 16.41L135.72 16.40L132.21 16.14L132.27 16.19Q127.84 15.95 125.63 17.06L125.54 16.97L125.56 16.99Q124.44 18.31 124.44 20.36L124.43 20.34L124.50 20.42Q124.58 21.18 124.88 24.00L124.84 23.96L124.83 23.95Q125.30 24.11 126.48 24.41L126.48 24.41L126.49 25.45L126.67 25.63Q126.54 26.00 126.62 26.53L126.52 26.43L126.57 26.49Q127.95 26.73 130.43 26.96L130.36 26.89L130.41 26.94Q130.33 26.51 130.33 26.17L130.22 26.06L130.39 26.23Q130.22 24.23 131.44 22.88L131.53 22.98L131.60 23.04Q132.64 21.51 134.43 21.63L134.59 21.79L134.46 21.66Q135.23 21.70 135.99 21.85L136.07 21.93L136.06 21.93Q136.09 22.23 136.17 22.64L136.20 22.68L136.17 22.64Q136.29 23.14 136.21 23.49L136.30 23.57L136.18 23.46Q135.03 28.33 130.62 33.16L130.53 33.07L130.47 33.01Q128.46 35.38 123.02 41.43L123.00 41.42L122.89 41.31Q122.73 42.18 122.39 42.75L122.43 42.79L122.41 42.77Q123.93 41.82 125.46 41.28L125.58 41.40L125.64 41.47Q124.91 42.03 123.95 43.51L123.77 43.33L123.83 43.39Q123.75 43.76 123.63 44.11L123.58 44.05L123.72 44.19Q128.49 42.04 133.98 42.23L134.00 42.25L134.01 42.26Q139.68 42.41 144.25 44.77L144.31 44.84L143.34 42.72L143.30 42.68Q142.57 41.26 142.30 40.46L142.36 40.52L142.35 40.51Q141.54 40.01 140.32 39.59L140.40 39.67L140.29 39.56Q140.21 38.90 139.83 37.53L139.85 37.56L139.79 37.49Q137.68 37.02 135.39 36.83L135.41 36.85L135.29 36.73Q140.13 32.32 141.66 24.06L141.66 24.07L141.66 20.98L141.84 21.16Q141.66 19.26 140.44 18.58L140.39 18.53L140.51 18.69L140.38 18.56Q140.30 18.44 140.22 18.44L140.37 18.59L140.23 18.44Q140.13 17.73 139.02 17.13Z"/><path fill="#111" d="M47.54 34.63L47.55 34.65L47.52 34.61Q47.52 38.19 44.36 39.49L44.48 39.61L44.54 39.66Q42.65 40.48 38.24 40.63L38.14 40.54L38.09 40.49Q33.41 40.72 31.16 39.54L31.16 39.53L31.15 39.52Q29.21 38.11 29.36 34.76L29.48 34.88L29.35 34.75Q29.45 34.20 29.64 32.22L29.69 32.28L29.70 32.29Q29.68 30.56 29.68 29.57L29.75 29.63L29.74 29.62Q29.80 21.69 25.61 14.27L25.54 14.19L25.48 14.14Q26.69 14.85 29.66 15.92L29.61 15.86L29.71 15.96Q32.51 22.61 32.51 29.99L32.61 30.10L32.59 30.08Q32.49 30.58 32.40 31.77L32.54 31.90L32.48 31.85Q32.39 33.03 32.39 33.64L32.36 33.62L32.31 33.56Q32.31 35.85 33.87 36.84L34.04 37.01L33.98 36.95Q35.61 37.74 38.58 37.74L38.57 37.73L38.56 37.72Q41.18 37.72 42.82 36.54L42.79 36.51L42.83 36.54Q44.64 35.16 44.49 32.65L44.53 32.69L44.58 32.74Q44.48 31.34 44.48 30.01L44.33 29.86L44.34 29.87Q44.38 22.87 46.78 16.36L46.78 16.36L49.02 15.86L49.07 15.91Q50.02 15.60 51.12 15.14L51.00 15.02L50.99 15.02Q47.36 22.23 47.36 29.80L47.41 29.86L47.32 29.77Q47.27 30.55 47.40 32.19L47.40 32.19L47.46 32.25Q47.63 33.92 47.63 34.72ZM49.82 35.66L49.80 35.64L49.67 35.50Q48.80 30.56 49.53 25.46L49.64 25.58L49.64 25.57Q50.36 20.35 52.75 15.98L52.70 15.92L52.81 16.03Q52.04 16.18 50.59 16.82L50.57 16.80L50.70 16.93Q51.00 16.01 51.80 14.45L51.74 14.39L51.76 14.41Q48.38 15.72 46.48 16.06L46.43 16.01L46.49 16.07Q44.03 22.48 44.03 29.75L44.06 29.78L44.13 29.85Q44.18 31.27 44.25 32.68L44.26 32.68L44.26 32.68Q44.35 35.02 42.56 36.24L42.49 36.17L42.62 36.30Q41.08 37.31 38.57 37.35L38.52 37.30L38.47 37.25Q35.86 37.46 34.41 36.69L34.34 36.63L34.38 36.66Q34.25 36.11 34.18 35.66L34.09 35.57L34.10 35.58Q34.20 35.23 34.31 34.73L34.27 34.69L34.25 34.67Q34.52 32.38 34.52 30.06L34.49 30.03L34.53 30.07Q34.57 24.28 33.04 18.38L32.98 18.32L32.95 18.29Q32.20 18.15 30.79 17.80L30.89 17.91L30.79 17.80Q30.42 16.53 29.97 15.61L29.95 15.60L29.96 15.61Q27.17 14.76 24.77 13.39L24.86 13.47L24.85 13.46Q29.44 21.02 29.44 29.74L29.38 29.68L29.52 29.82Q29.50 31.44 29.35 33.15L29.26 33.06L29.26 33.06Q29.08 35.51 29.15 36.69L29.23 36.77L29.13 36.67Q29.38 38.70 30.63 39.84L30.65 39.86L30.59 39.80Q31.53 42.23 36.18 42.61L36.26 42.69L36.28 42.71Q38.26 42.75 40.40 42.83L40.38 42.81L40.45 42.89Q45.84 43.10 48.62 42.14L48.60 42.13L48.57 42.09Q50.27 41.32 50.27 39.26L50.25 39.24L50.24 39.24Q50.20 38.06 49.75 35.58Z"/><path fill="#444" d="M79.43 40.23L79.34 40.13L79.37 40.17Q77.53 40.11 75.85 40.68L75.86 40.69L75.91 40.74Q76.45 37.14 76.57 34.01L76.56 34.01L76.59 34.03Q76.63 30.92 76.40 27.26L76.43 27.28L76.41 27.27Q75.06 26.95 74.30 26.57L74.27 26.54L73.90 23.54L73.78 23.42Q74.66 24.18 76.26 24.75L76.16 24.65L76.21 24.71Q76.07 22.66 75.65 19.92L75.61 19.88L75.51 19.79Q77.87 20.54 79.50 20.39L79.45 20.34L79.26 24.86L79.26 24.87Q80.80 24.92 82.13 24.42L82.16 24.45L82.02 24.31Q82.08 25.32 81.85 27.08L81.80 27.03L81.92 27.15Q80.24 27.33 79.21 27.33L79.26 27.38L79.29 27.41Q79.19 29.48 79.19 33.74L79.21 33.76L79.21 33.77Q79.34 38.05 79.42 40.22ZM82.49 23.80L82.46 23.76L82.60 23.90Q82.24 23.92 81.63 24.15L81.60 24.12L82.00 21.36L82.11 21.47Q81.22 21.69 79.81 21.91L79.72 21.83L79.90 22.00Q79.79 21.21 79.95 19.84L80.03 19.92L79.91 19.80Q79.28 19.86 78.71 19.86L78.79 19.94L78.73 19.88Q76.65 19.93 75.02 19.21L75.06 19.26L74.97 19.17Q75.55 21.73 75.82 24.20L75.82 24.20L75.71 24.09Q74.99 23.91 73.47 22.88L73.31 22.72L73.29 22.70Q73.68 24.04 73.90 26.74L73.98 26.82L74.01 26.85Q74.47 27.08 75.65 27.50L75.62 27.46L75.59 27.44Q75.59 28.04 75.62 29.45L75.76 29.59L75.99 29.47L76.06 29.47L76.24 29.65Q76.20 30.79 76.20 31.97L76.18 31.95L76.14 31.91Q76.11 36.83 75.31 41.17L75.36 41.22L75.31 41.17Q75.66 41.21 77.60 40.68L77.54 40.62L77.51 40.59Q77.61 41.34 77.50 42.71L77.44 42.65L77.48 42.70Q78.31 42.65 79.11 42.65L79.06 42.60L79.14 42.68Q80.70 42.52 82.34 43.10L82.36 43.12L82.40 43.16Q81.07 37.45 81.26 29.53L81.31 29.58L83.66 29.15L83.56 29.05Q83.80 28.30 83.87 27.27L83.75 27.15L84.10 25.29L84.08 25.27Q83.36 25.39 82.18 25.85L82.32 25.99L82.33 25.99Q82.47 24.50 82.40 24.16L82.51 24.27L82.46 24.22Q82.42 23.98 82.49 23.79Z"/></svg>