<svg xmlns="http://www.w3.org/2000/svg" width="150" height="50" viewBox="0,0,150,50"><path fill="#dd6381" d="M38.71 28.87L38.68 28.83L38.62 28.77Q36.15 28.82 34.86 29.97L34.85 29.96L34.76 29.87Q33.40 31.17 33.59 33.68L33.53 33.62L33.63 33.73Q33.75 36.51 34.93 37.57L35.01 37.65L35.08 37.72Q36.55 39.01 38.65 38.85L38.54 38.74L38.53 38.73Q40.79 38.86 42.19 37.60L42.18 37.59L42.11 37.52Q43.45 36.38 43.64 33.83L43.62 33.81L43.67 33.87Q44.04 28.94 38.67 28.83ZM38.55 41.39L38.53 41.37L36.85 41.25L36.92 41.31Q33.99 41.24 32.50 39.83L32.59 39.92L32.52 39.85Q31.65 38.93 31.38 36.99L31.34 36.95L31.30 36.92Q31.10 35.77 30.95 33.56L31.11 33.72L31.02 33.62Q30.91 32.60 30.79 30.35L30.83 30.38L30.90 30.46Q30.75 28.52 31.70 27.37L31.75 27.42L31.68 27.35Q33.51 25.95 38.23 26.10L38.27 26.15L38.23 26.10Q43.13 26.24 44.96 27.77L44.86 27.67L45.03 27.84Q46.50 29.04 46.31 32.24L46.31 32.24L46.30 32.23Q46.01 35.71 45.94 36.13L45.97 36.16L45.84 36.04Q45.55 38.33 44.22 39.51L44.25 39.54L44.36 39.65Q42.31 41.33 38.50 41.33ZM43.18 43.73L43.12 43.67L43.23 43.78Q44.76 43.86 46.66 43.71L46.48 43.53L46.67 43.72Q47.06 43.54 47.06 43.38L47.03 43.35L46.96 43.29Q47.01 43.25 46.97 43.10L47.04 43.17L47.12 43.26Q46.98 43.00 46.98 42.89L47.04 42.94L47.07 42.97Q46.94 42.58 47.28 42.27L47.35 42.34L47.24 42.23Q48.17 41.15 48.17 39.24L48.12 39.19L48.17 39.24Q48.25 38.37 48.16 35.95L48.14 35.94L48.01 35.81Q48.03 33.51 47.88 32.40L47.78 32.30L47.86 32.38Q47.40 30.18 46.49 29.03L46.61 29.15L46.18 28.84L46.22 28.88Q46.08 28.24 45.28 27.33L45.25 27.29L45.29 27.34Q43.06 25.68 38.15 25.68L38.04 25.57L36.35 25.63L36.28 25.56Q33.07 25.66 31.36 27.03L31.39 27.07L31.44 27.12Q30.53 28.19 30.57 30.21L30.47 30.11L30.41 30.05Q30.51 30.57 30.64 31.82L30.76 31.94L30.69 31.87Q30.91 33.21 30.87 33.66L30.84 33.63L30.80 33.59Q31.02 36.63 31.10 37.09L31.04 37.03L31.14 37.13Q31.34 39.08 32.25 40.23L32.34 40.31L32.57 40.62L32.55 40.60Q33.23 42.92 36.96 43.34L37.08 43.46L37.00 43.37Q37.93 43.54 43.18 43.73ZM40.43 31.04L40.56 31.17L40.49 31.10Q41.39 31.16 43.06 31.70L42.96 31.59L43.12 31.75Q43.35 32.37 43.31 33.85L43.43 33.97L43.28 33.82Q43.17 37.28 40.27 38.05L40.28 38.05L40.34 38.11Q39.63 38.31 38.60 38.43L38.67 38.49L38.65 38.48Q37.48 38.41 35.77 37.80L35.79 37.82L35.84 37.87Q35.64 37.21 35.67 35.73L35.62 35.67L35.69 35.75Q35.73 33.39 37.10 32.36L36.99 32.25L37.09 32.35Q37.87 31.34 40.42 31.03Z"/><path fill="#e9c148" d="M50.98 40.13L51.13 40.28L48.55 33.25L48.55 33.25Q44.28 20.76 38.34 14.36L38.28 14.30L38.22 14.24Q40.27 15.33 42.85 15.94L42.92 16.01L42.89 15.98Q48.04 22.27 52.38 35.02L52.49 35.13L52.42 35.06Q55.50 26.98 56.18 25.39L56.17 25.37L56.06 25.27Q58.59 19.79 61.40 16.48L61.37 16.45L61.28 16.36Q63.33 15.97 65.95 15.09L65.94 15.08L66.01 15.15Q61.55 19.86 58.50 27.09L58.49 27.08L58.40 26.99Q57.01 30.66 53.31 40.18L53.38 40.24L53.31 40.18Q52.66 40.10 52.09 40.06L52.13 40.10L52.15 40.12Q51.71 40.25 51.14 40.29ZM56.16 42.72L55.97 42.53L56.04 42.61Q58.75 32.52 60.31 28.49L60.47 28.64L60.44 28.61Q63.32 20.80 67.74 15.93L67.82 16.01L67.74 15.93Q66.75 16.34 64.65 17.07L64.70 17.11L65.86 15.80L65.88 15.82Q66.43 15.11 67.04 14.47L66.96 14.39L66.99 14.41Q64.15 15.39 61.15 15.96L61.28 16.10L61.12 15.94Q56.78 21.30 52.89 32.75L52.92 32.78L52.89 32.75Q49.34 22.73 46.14 18.35L46.17 18.38L46.14 18.35Q45.80 18.31 44.92 18.16L44.80 18.03L44.91 18.15Q44.54 17.63 42.94 15.57L42.96 15.59L43.10 15.73Q40.00 14.88 37.30 13.47L37.33 13.50L37.28 13.45Q43.95 20.57 48.32 33.36L48.37 33.41L48.24 33.28Q49.63 37.11 50.81 40.69L50.66 40.54L50.73 40.60Q51.07 40.64 51.90 40.52L51.95 40.57L52.00 40.62Q52.39 41.35 53.07 42.68L52.99 42.60L52.93 42.54Q53.85 42.55 54.58 42.62L54.51 42.56L54.59 42.64Q55.24 42.57 56.00 42.57Z"/><path d="M8 9 C56 25,89 19,149 46" stroke="#93e443" fill="none"/><path fill="#8b6be9" d="M101.56 33.28L101.64 33.36L101.68 33.39Q101.47 36.15 100.29 40.80L100.28 40.79L100.19 40.70Q98.54 41.37 96.94 42.17L96.84 42.07L96.93 42.16Q99.53 35.13 99.26 27.71L99.27 27.72L99.27 27.71Q98.93 20.25 95.84 13.51L95.86 13.53L95.91 13.57Q97.90 14.88 99.77 15.45L99.74 15.43L99.67 15.36Q101.77 22.30 101.77 28.96L101.90 29.09L101.78 28.96Q101.89 30.52 101.81 32.00L101.65 31.85L101.68 31.88Q102.78 30.62 108.00 25.67L108.14 25.81L108.13 25.80Q109.28 25.84 110.27 25.77L110.11 25.61L112.16 25.41L112.16 25.41Q109.18 28.60 104.88 32.37L104.78 32.27L104.81 32.30Q108.10 34.98 114.57 40.80L114.67 40.90L114.58 40.82Q111.97 40.03 109.00 39.84L108.91 39.75L108.92 39.76Q106.50 37.76 101.63 33.34ZM111.39 42.38L111.50 42.49L111.45 42.44Q116.15 43.26 119.27 45.20L119.33 45.26L119.41 45.34Q118.11 43.92 115.48 41.52L115.46 41.50L115.42 41.47Q115.66 41.55 115.93 41.67L115.95 41.69L115.99 41.73Q114.01 39.83 111.77 37.93L111.58 37.73L107.33 34.02L107.16 33.85Q112.19 29.71 114.63 26.81L114.68 26.87L114.61 26.80Q113.38 26.86 110.90 27.12L110.90 27.12L110.98 27.20Q112.61 25.79 113.30 24.95L113.19 24.84L113.26 24.92Q110.55 25.48 108.08 25.48L108.02 25.42L108.00 25.40Q106.59 26.69 103.84 29.36L103.83 29.34L103.76 29.27Q103.80 23.53 102.81 17.70L102.75 17.63L102.90 17.79Q102.08 17.51 100.60 17.24L100.58 17.22L100.55 17.19Q100.56 16.63 100.10 15.14L100.10 15.15L99.98 15.03Q97.43 14.30 95.19 12.74L95.08 12.64L95.10 12.66Q98.66 19.60 99.00 27.71L98.86 27.57L98.97 27.68Q99.32 35.60 96.31 42.84L96.20 42.73L96.17 42.69Q96.96 42.50 98.30 41.85L98.18 41.73L98.26 41.81Q98.09 42.71 97.44 44.15L97.45 44.17L97.43 44.15Q100.11 42.91 102.25 42.53L102.28 42.56L102.36 42.64Q102.97 40.17 103.46 35.90L103.48 35.92L103.37 35.81Q106.02 38.12 111.47 42.46Z"/><path fill="#c061df" d="M8.30 14.82L8.40 14.92L8.38 14.90Q9.33 16.99 11.27 16.99L11.38 17.10L11.26 16.98Q11.84 17.06 12.26 16.91L12.30 16.95L12.24 16.89Q12.03 22.02 12.00 28.41L12.10 28.52L12.04 28.46Q12.04 34.74 12.23 39.99L12.23 39.99L12.13 39.89Q11.73 39.72 11.35 39.72L11.47 39.84L11.34 39.71Q10.04 39.78 8.63 41.65L8.73 41.75L8.56 41.58Q9.26 34.89 9.22 28.19L9.28 28.25L9.33 28.30Q9.25 21.56 8.34 14.86ZM8.13 42.74L8.25 42.86L8.19 42.81Q9.05 41.23 10.23 40.51L10.26 40.53L10.20 40.47Q10.32 41.59 10.25 42.65L10.10 42.51L10.22 42.63Q11.00 42.15 11.76 42.27L11.65 42.16L11.77 42.27Q13.82 42.49 15.19 45.27L15.14 45.22L15.12 45.21Q13.97 37.89 13.97 30.61L13.95 30.60L14.00 30.65Q14.06 23.17 14.86 16.05L14.88 16.07L14.77 15.96Q13.81 17.86 12.74 18.50L12.60 18.36L12.73 18.49Q12.58 17.61 12.69 16.24L12.69 16.24L12.80 16.35Q11.93 16.70 11.17 16.59L11.11 16.53L11.23 16.65Q8.76 16.27 7.73 13.37L7.76 13.40L7.73 13.38Q8.85 20.89 8.96 28.05L8.95 28.03L9.04 28.12Q9.09 35.22 8.10 42.72Z"/><path fill="#b3d54d" d="M21.41 40.44L21.42 40.45L21.31 40.34Q17.30 40.63 16.31 38.31L16.38 38.38L16.34 38.34Q17.00 37.28 18.56 35.49L18.51 35.45L18.56 35.49Q19.05 37.51 22.06 37.62L22.06 37.63L22.12 37.69Q25.46 37.71 27.09 36.38L27.09 36.37L27.06 36.35Q28.56 34.84 28.49 32.14L28.48 32.13L28.39 32.04Q28.39 27.13 23.59 27.36L23.52 27.29L23.50 27.26Q20.64 27.37 18.89 28.63L19.04 28.78L18.62 28.51L18.49 28.46L18.43 28.39Q18.83 25.29 18.71 22.55L18.71 22.55L18.69 22.53Q18.44 19.77 18.10 16.46L18.27 16.63L18.17 16.53Q21.75 17.41 25.56 17.29L25.72 17.45L25.59 17.33Q29.47 17.32 33.05 16.07L33.09 16.11L32.39 17.50L32.56 17.67Q32.06 18.24 31.87 19.08L32.06 19.26L31.88 19.09Q28.93 20.28 25.05 20.28L25.00 20.23L25.06 20.30Q23.44 20.12 21.96 19.97L21.95 19.96L22.05 20.07Q21.93 20.71 21.59 25.16L21.68 25.26L21.59 25.16Q22.37 24.64 24.42 24.49L24.49 24.56L24.46 24.53Q28.21 24.78 29.65 26.45L29.62 26.42L29.74 26.54Q31.04 27.99 31.31 31.83L31.36 31.89L31.23 31.75Q31.65 36.10 30.43 38.12L30.27 37.96L30.45 38.13Q28.41 40.02 25.10 40.25L25.06 40.21L25.07 40.22Q24.05 40.26 21.39 40.42ZM27.32 42.58L27.38 42.64L27.42 42.68Q30.87 42.78 32.77 41.67L32.80 41.71L32.73 41.63Q33.81 40.20 33.81 38.11L33.64 37.94L33.69 37.98Q33.63 34.84 32.68 30.73L32.84 30.89L32.69 30.75Q32.32 29.00 31.10 27.59L31.18 27.67L31.26 27.79L30.88 27.34L30.67 27.28L30.59 27.20Q30.34 26.53 29.69 25.84L29.64 25.79L29.74 25.93L29.74 25.93Q28.25 24.29 24.56 24.29L24.54 24.26L24.16 24.16L24.28 24.28Q24.27 23.61 24.46 22.51L24.47 22.52L24.39 22.45Q29.38 22.56 33.42 20.93L33.43 20.94L33.46 20.96Q33.94 19.62 34.90 16.81L34.88 16.79L32.82 17.78L32.86 17.82Q33.08 16.51 33.57 15.37L33.69 15.48L33.68 15.48Q29.74 16.83 25.63 16.90L25.78 17.06L25.71 16.99Q21.64 17.14 17.68 16.04L17.63 15.98L17.61 15.97Q18.26 20.35 18.26 24.77L18.27 24.77L18.36 24.86Q18.30 26.71 18.19 28.61L18.23 28.66L18.12 28.55Q18.52 28.87 19.10 29.18L18.93 29.02L19.06 29.15Q19.31 28.82 19.95 28.47L20.09 28.61L20.10 28.62Q19.89 29.21 19.66 30.73L19.66 30.74L19.85 30.92Q20.19 31.03 20.61 31.26L20.55 31.21L20.56 31.21Q23.28 29.41 25.15 29.41L25.30 29.56L25.18 29.44Q26.64 29.57 27.82 30.21L27.67 30.06L27.81 30.21Q28.08 31.16 28.12 32.11L28.15 32.15L28.08 32.07Q28.26 34.76 27.23 35.87L27.10 35.74L27.27 35.90Q25.71 36.93 23.46 37.16L23.55 37.25L23.65 37.35Q22.64 37.36 21.95 37.29L21.93 37.26L22.02 37.35Q21.04 37.10 20.28 36.76L20.40 36.88L20.29 36.58L20.11 36.63L20.19 36.70Q19.32 36.14 18.78 34.81L18.93 34.95L18.78 34.80Q17.54 36.30 15.86 38.43L15.78 38.35L15.90 38.47Q16.22 39.14 17.06 40.09L17.07 40.10L17.01 40.04Q17.97 41.76 20.78 42.25L20.95 42.41L20.89 42.36Q21.97 42.49 27.34 42.60Z"/><path fill="#c14fe7" d="M125.92 49.68L125.95 49.71L125.80 49.56Q128.86 45.85 131.75 39.64L131.58 39.47L131.59 39.48Q128.44 32.90 122.35 24.83L122.35 24.84L122.46 24.94Q124.27 25.99 127.05 26.64L127.18 26.77L127.03 26.62Q130.69 31.43 133.13 36.64L133.12 36.63L133.05 36.56Q135.37 31.42 138.45 27.00L138.36 26.91L138.42 26.97Q140.55 26.55 142.64 25.75L142.61 25.71L142.69 25.79Q139.21 29.55 135.74 36.97L135.76 36.99L132.95 43.01L132.92 42.98Q131.60 46.23 129.85 48.85L129.75 48.75L129.81 48.82Q127.22 49.01 125.77 49.54ZM132.03 50.96L132.07 51.00L132.03 50.96Q133.67 48.00 135.12 44.72L135.23 44.83L137.86 38.40L137.85 38.39Q141.42 30.43 144.73 26.43L144.76 26.46L144.81 26.51Q143.34 27.06 141.44 27.74L141.53 27.84L142.55 26.42L142.46 26.33Q143.16 25.77 143.77 25.09L143.61 24.92L143.58 24.90Q141.11 26.16 138.26 26.62L138.21 26.57L138.10 26.46Q135.42 30.44 133.48 34.89L133.46 34.88L133.42 34.84Q131.83 31.57 130.04 28.76L130.04 28.75L130.07 28.78Q129.93 28.83 129.56 28.79L129.56 28.79L129.41 28.64Q129.22 28.77 129.03 28.77L128.94 28.68L128.88 28.62Q128.11 27.36 127.16 26.22L127.15 26.20L127.17 26.23Q123.98 25.55 121.24 23.84L121.40 24.00L121.30 23.90Q127.63 31.98 131.33 39.60L131.27 39.54L131.27 39.54Q129.08 44.58 125.00 50.21L124.98 50.19L124.93 50.14Q125.88 49.99 126.68 49.83L126.62 49.77L128.28 49.46L128.36 49.53Q127.72 50.23 126.54 51.87L126.39 51.71L126.52 51.85Q128.72 51.15 131.99 50.92Z"/><path fill="#a0e688" d="M95.57 31.00L95.56 30.99L95.55 30.98Q95.46 29.78 93.51 29.05L93.39 28.93L93.41 28.95Q92.87 28.71 92.33 28.71L92.36 28.74L92.43 28.81Q91.06 28.80 89.99 29.37L90.04 29.43L89.87 29.25Q88.58 30.06 88.70 31.28L88.63 31.21L88.73 31.31Q89.03 34.09 88.88 36.33L88.89 36.35L88.94 36.40Q88.71 38.75 87.98 41.26L87.92 41.20L87.96 41.23Q85.85 41.76 84.67 42.17L84.61 42.11L84.76 42.26Q86.39 38.68 86.39 34.68L86.21 34.50L86.27 34.56Q86.34 29.19 83.76 24.74L83.80 24.78L83.75 24.74Q84.85 25.11 87.25 25.83L87.34 25.92L87.29 25.88Q87.70 26.70 88.08 28.23L88.01 28.15L88.10 28.25Q89.35 26.07 93.24 26.15L93.31 26.22L93.24 26.15Q94.80 26.26 95.60 26.38L95.46 26.24L95.46 26.24Q98.54 26.73 98.61 28.75L98.61 28.75L98.60 28.73Q98.52 29.52 98.33 30.55L98.49 30.72L98.33 30.55Q97.89 33.09 98.08 36.10L98.11 36.13L98.15 36.17Q98.24 38.95 99.23 41.50L99.20 41.48L99.24 41.52Q97.62 41.19 95.91 41.04L95.90 41.03L95.80 40.93Q95.49 38.72 95.41 36.05L95.36 36.00L95.30 35.94Q95.15 33.12 95.38 30.80ZM95.50 41.35L95.52 41.37L95.41 41.27Q96.18 41.24 97.48 41.47L97.49 41.48L97.90 42.58L97.86 42.54Q98.14 43.12 98.37 43.66L98.38 43.66L98.39 43.67Q100.56 43.98 103.26 45.16L103.42 45.31L103.37 45.27Q101.05 42.19 100.37 38.38L100.28 38.29L100.33 38.34Q100.05 36.28 100.17 32.58L100.09 32.50L100.12 32.54Q100.07 32.18 100.11 31.38L100.04 31.32L100.09 31.36Q100.26 30.85 100.18 30.35L100.09 30.26L100.09 30.26Q100.00 28.61 98.90 28.12L98.90 28.12L98.84 28.06Q98.66 27.19 97.90 26.58L98.08 26.76L97.92 26.61Q96.25 25.62 93.21 25.70L93.22 25.72L93.21 25.71Q91.32 25.71 90.48 25.90L90.53 25.95L90.48 25.90Q89.16 26.37 88.21 27.29L88.16 27.24L88.10 27.18Q88.06 26.72 87.68 25.69L87.66 25.68L87.53 25.55Q84.78 24.93 82.95 23.94L82.99 23.97L83.02 24.01Q85.96 28.77 85.96 34.52L86.07 34.63L86.02 34.58Q86.01 38.95 84.11 42.79L84.09 42.77L84.13 42.81Q84.79 42.49 86.08 42.11L86.14 42.16L86.20 42.22Q85.53 43.30 85.00 44.29L85.03 44.33L85.07 44.37Q86.56 43.99 90.10 43.41L90.08 43.40L89.96 43.28Q91.02 38.20 90.90 33.37L90.87 33.33L90.84 33.31Q90.86 32.53 92.04 31.81L92.01 31.78L91.96 31.73Q93.07 31.15 94.17 31.04L94.12 30.99L94.20 31.07Q94.55 30.93 94.97 31.12L95.02 31.17L95.11 31.25Q94.85 33.70 94.89 36.25L94.97 36.33L94.92 36.28Q94.94 38.78 95.44 41.29Z"/><path fill="#8cd1e8" d="M66.77 32.13L57.63 22.23L57.49 22.09Q58.31 25.76 58.31 29.49L58.44 29.63L58.29 29.47Q58.46 35.62 56.41 41.18L56.25 41.02L56.25 41.03Q55.21 41.32 52.96 42.08L53.07 42.19L53.10 42.22Q55.92 36.43 55.92 29.73L55.82 29.63L55.81 29.63Q55.92 21.09 51.43 13.67L51.30 13.54L51.37 13.60Q51.82 13.79 52.51 14.21L52.47 14.17L52.53 14.23Q64.54 25.37 72.39 34.62L72.37 34.61L72.43 34.67Q72.11 32.21 72.11 29.78L72.05 29.72L72.01 29.68Q72.07 22.50 74.58 16.30L74.55 16.27L74.57 16.29Q76.86 15.72 78.46 15.04L78.52 15.10L78.48 15.06Q75.13 21.19 74.82 28.34L74.82 28.34L75.00 28.52Q74.52 35.69 77.49 41.86L77.49 41.86L77.53 41.90Q77.06 41.93 76.64 41.74L76.56 41.65L76.68 41.77Q72.02 37.72 66.80 32.16L66.77 32.13ZM80.24 45.19L80.18 45.12L80.29 45.23Q80.60 45.23 81.01 45.42L81.00 45.41L81.88 45.80L82.04 45.95Q76.81 38.94 76.81 29.57L76.80 29.55L76.85 29.61Q76.71 22.24 80.03 16.00L80.13 16.10L80.04 16.01Q79.45 16.29 78.04 16.90L77.97 16.83L77.95 16.82Q78.34 15.99 79.18 14.43L79.30 14.54L79.21 14.46Q76.67 15.27 74.24 15.84L74.34 15.95L74.35 15.95Q71.75 22.45 71.75 29.88L71.70 29.83L71.70 29.83Q71.69 31.68 71.88 33.66L71.84 33.62L71.86 33.64Q67.30 28.05 62.54 23.44L62.47 23.38L52.45 13.74L52.33 13.62Q51.82 13.37 50.60 12.80L50.66 12.86L50.69 12.89Q55.52 20.57 55.52 29.67L55.44 29.59L55.58 29.73Q55.55 36.82 52.47 42.84L52.38 42.75L52.50 42.87Q52.66 42.61 54.29 42.00L54.39 42.10L54.27 41.98Q54.07 42.88 53.23 44.36L53.15 44.29L53.31 44.44Q54.56 43.83 58.02 43.03L57.91 42.91L58.09 43.09Q60.27 36.82 60.27 29.62L60.32 29.68L60.23 29.58Q60.27 27.53 60.04 25.40L60.11 25.47L60.11 25.47Q71.53 38.23 80.14 45.08Z"/><path fill="#7171e9" d="M116.04 26.77L116.12 26.85L116.13 26.86Q117.95 27.03 119.78 27.03L119.68 26.94L119.64 26.90Q121.46 26.93 123.29 26.78L123.39 26.88L123.39 26.88Q123.16 27.41 123.16 28.13L123.17 28.14L123.13 29.44L123.23 29.54Q120.87 29.54 116.11 29.65L116.05 29.59L116.04 29.58Q116.17 35.65 115.03 40.64L114.99 40.60L114.94 40.55Q112.76 41.26 111.28 42.06L111.33 42.11L111.25 42.03Q113.54 35.19 113.27 28.07L113.40 28.19L113.33 28.13Q113.06 20.97 110.39 14.30L110.31 14.22L110.49 14.40Q114.17 16.94 118.93 17.17L118.83 17.07L118.83 17.06Q123.45 17.19 127.60 15.44L127.72 15.56L127.73 15.58Q127.42 16.37 127.19 17.17L127.14 17.11L126.74 18.81L126.63 18.70Q124.03 19.90 121.06 20.06L120.89 19.89L120.98 19.98Q118.00 20.09 115.15 19.36L115.27 19.49L115.11 19.33Q115.85 22.76 116.04 26.76ZM128.37 14.89L128.28 14.79L128.21 14.72Q123.61 16.86 118.74 16.56L118.76 16.58L118.83 16.65Q113.43 16.27 109.70 13.41L109.66 13.38L109.78 13.50Q112.57 20.36 112.87 27.97L113.02 28.12L112.93 28.03Q113.30 36.01 110.78 42.79L110.73 42.74L110.76 42.76Q111.47 42.41 112.85 41.77L112.83 41.75L112.70 41.62Q112.70 42.57 112.13 44.09L112.10 44.06L112.00 43.97Q114.26 42.84 117.15 42.34L117.16 42.35L117.29 42.48Q117.82 37.53 118.01 31.82L117.99 31.79L118.13 31.94Q119.75 31.73 121.58 31.73L121.69 31.84L121.62 31.77Q123.52 31.88 125.34 32.07L125.22 31.95L125.21 31.94Q125.16 31.04 125.16 30.13L125.21 30.19L125.08 28.15L125.18 28.26Q124.34 28.29 123.51 28.29L123.56 28.35L123.49 28.28Q123.52 27.43 123.60 26.40L123.60 26.41L123.67 26.47Q122.25 26.62 120.84 26.62L120.79 26.57L120.93 26.71Q119.47 26.65 118.10 26.61L118.02 26.54L118.03 24.41L117.95 24.34Q117.93 23.25 117.82 22.19L117.78 22.15L117.91 22.28Q118.81 22.26 119.80 22.26L119.93 22.39L119.88 22.35Q124.67 22.37 128.28 20.47L128.17 20.35L128.26 20.44Q128.65 18.51 129.56 15.89L129.53 15.85L129.55 15.87Q128.34 16.79 127.54 17.13L127.50 17.09L127.44 17.03Q127.86 16.43 128.35 14.87Z"/><path fill="#d8b754" d="M78.96 28.75L79.04 28.83L78.93 28.72Q76.38 28.69 75.09 29.83L75.18 29.92L75.25 29.99Q73.63 31.04 73.82 33.55L73.90 33.63L73.93 33.66Q74.23 36.63 75.41 37.69L75.44 37.72L75.40 37.68Q76.75 38.84 78.85 38.69L78.93 38.77L78.89 38.73Q81.02 38.73 82.43 37.48L82.48 37.52L82.40 37.45Q83.81 36.38 84.00 33.83L83.91 33.74L83.97 33.80Q84.36 28.90 78.99 28.78ZM78.90 41.37L78.94 41.41L77.25 41.28L77.28 41.31Q74.43 41.32 72.95 39.91L73.05 40.01L72.89 39.85Q71.88 38.81 71.62 36.87L71.62 36.86L71.74 36.99Q71.51 35.81 71.36 33.60L71.41 33.65L71.48 33.72Q71.37 32.69 71.25 30.45L71.27 30.47L71.24 30.44Q71.08 28.48 72.03 27.34L72.08 27.39L72.16 27.47Q73.78 25.86 78.50 26.01L78.62 26.13L78.51 26.02Q83.49 26.24 85.32 27.76L85.30 27.74L85.36 27.81Q86.69 28.87 86.50 32.07L86.63 32.20L86.55 32.12Q86.37 35.71 86.30 36.13L86.24 36.07L86.19 36.03Q85.89 38.31 84.56 39.49L84.62 39.55L84.62 39.55Q82.72 41.38 78.91 41.38ZM83.54 43.72L83.46 43.64L83.61 43.79Q85.04 43.78 86.94 43.63L86.88 43.56L86.96 43.64Q87.34 43.45 87.34 43.30L87.39 43.35L87.49 43.45Q87.38 43.26 87.34 43.11L87.45 43.22L87.37 43.14Q87.33 42.99 87.33 42.87L87.43 42.98L87.36 42.90Q87.40 42.67 87.74 42.37L87.79 42.42L87.63 42.26Q88.50 41.11 88.50 39.21L88.61 39.31L88.54 39.25Q88.55 38.30 88.45 35.88L88.53 35.96L88.43 35.86Q88.32 33.43 88.17 32.33L88.32 32.48L88.13 32.29Q87.78 30.18 86.86 29.04L87.02 29.20L86.53 28.82L86.55 28.84Q86.38 28.18 85.58 27.26L85.75 27.44L85.66 27.35Q83.34 25.59 78.43 25.59L78.52 25.69L76.72 25.63L76.76 25.68Q73.51 25.74 71.80 27.11L71.80 27.11L71.73 27.04Q70.73 28.03 70.77 30.04L70.89 30.16L70.93 30.20Q70.95 30.64 71.08 31.90L70.94 31.76L71.03 31.85Q71.14 33.08 71.11 33.54L71.04 33.47L71.17 33.60Q71.29 36.54 71.37 37.00L71.42 37.05L71.44 37.07Q71.86 39.24 72.78 40.39L72.72 40.33L72.87 40.56L72.93 40.62Q73.75 43.07 77.48 43.49L77.49 43.50L77.46 43.47Q78.33 43.58 83.58 43.77ZM80.88 31.13L80.78 31.03L80.89 31.14Q81.80 31.22 83.48 31.75L83.48 31.75L83.48 31.75Q83.75 32.40 83.71 33.88L83.70 33.88L83.73 33.91Q83.49 37.24 80.60 38.00L80.75 38.15L80.63 38.03Q79.88 38.20 78.85 38.31L78.86 38.32L78.91 38.37Q77.98 38.55 76.27 37.94L76.22 37.89L76.20 37.87Q75.84 37.05 75.88 35.57L75.96 35.65L75.88 35.57Q76.11 33.40 77.48 32.37L77.36 32.26L77.49 32.38Q78.38 31.48 80.93 31.18Z"/></svg>