<svg xmlns="http://www.w3.org/2000/svg" width="150" height="50" viewBox="0,0,150,50"><path d="M17 27 C56 31,71 34,138 9" stroke="#e99b4d" fill="none"/><path fill="#e38ce3" d="M102.51 14.05L102.67 14.21L102.53 14.07Q103.49 16.10 105.17 16.44L105.10 16.37L105.14 16.41Q105.69 16.55 106.38 16.36L106.42 16.40L106.34 16.32Q106.19 22.29 106.11 28.16L106.08 28.12L106.13 28.17Q106.03 33.91 106.26 39.84L106.32 39.90L106.33 39.91Q106.09 39.90 105.78 39.90L105.74 39.85L105.71 39.82Q104.09 39.77 102.80 41.59L102.91 41.71L102.90 41.69Q103.52 34.71 103.48 27.85L103.46 27.83L103.56 27.93Q103.48 21.03 102.64 14.18ZM102.50 42.86L102.50 42.86L102.39 42.75Q103.49 40.95 104.55 40.49L104.61 40.55L104.57 40.51Q104.38 41.43 104.38 42.42L104.41 42.44L104.42 42.46Q105.24 42.17 106.04 42.28L105.93 42.18L105.97 42.21Q108.06 42.59 109.28 45.30L109.21 45.23L109.32 45.34Q108.10 37.76 108.10 30.30L108.01 30.21L108.05 30.24Q108.11 22.58 108.95 15.27L108.88 15.20L108.88 15.21Q107.90 17.12 106.76 17.73L106.66 17.63L106.75 17.72Q106.81 16.75 106.89 15.69L106.91 15.71L106.74 15.54Q106.12 16.21 105.36 16.06L105.34 16.04L105.37 16.07Q103.16 15.65 102.17 12.80L102.08 12.70L102.12 12.74Q103.01 20.11 103.09 27.64L103.09 27.65L103.25 27.81Q103.23 35.17 102.35 42.71Z"/><path fill="#4d9be9" d="M15.88 39.03L15.83 38.97L15.84 38.98Q17.59 36.46 22.35 29.19L22.45 29.29L22.46 29.31Q26.54 23.14 29.39 19.87L29.39 19.87L29.35 19.83Q27.16 20.04 25.07 20.04L25.06 20.03L25.15 20.12Q19.81 20.03 15.81 18.24L15.94 18.37L15.85 18.28Q15.16 16.33 14.47 14.77L14.51 14.81L14.58 14.88Q19.19 17.09 24.86 17.21L24.84 17.18L24.78 17.12Q29.96 17.24 35.13 15.33L35.05 15.25L35.11 15.31Q34.75 16.17 34.45 16.97L34.40 16.92L33.94 18.63L33.76 18.45Q30.70 22.09 26.71 27.92L26.66 27.87L23.43 32.79L23.44 32.80Q21.79 35.26 19.96 37.54L19.88 37.46L19.94 37.53Q23.33 36.99 26.64 37.07L26.47 36.89L26.65 37.08Q29.82 37.01 32.98 37.92L33.01 37.96L33.50 39.55L33.58 39.63Q33.81 40.43 34.15 41.27L34.06 41.17L34.21 41.32Q29.38 39.57 24.24 39.76L24.42 39.94L24.25 39.77Q19.26 40.12 14.77 42.13L14.64 42.01L14.70 42.07Q15.11 41.03 15.83 38.97ZM14.13 42.79L14.11 42.77L14.06 42.72Q15.29 42.12 16.09 41.86L16.11 41.87L16.04 41.80Q15.79 42.59 15.11 44.11L15.19 44.19L15.24 44.24Q20.94 42.10 26.92 42.33L26.96 42.38L26.90 42.31Q33.28 42.60 38.30 45.38L38.27 45.34L38.21 45.29Q36.89 42.98 36.09 40.81L36.07 40.79L36.07 40.78Q35.54 40.52 34.02 39.95L34.00 39.93L33.93 39.87Q33.81 39.17 33.39 37.69L33.37 37.67L33.37 37.66Q29.27 36.53 24.17 36.72L24.19 36.75L24.20 36.75Q26.23 33.91 29.77 28.35L29.77 28.36L29.76 28.34Q33.48 22.70 35.38 20.15L35.46 20.22L35.31 20.08Q35.94 18.81 36.97 16.10L36.85 15.99L36.93 16.06Q36.12 16.28 34.67 16.89L34.77 16.99L34.83 17.05Q35.12 16.19 35.84 14.67L35.83 14.66L35.83 14.66Q30.39 16.68 24.68 16.61L24.70 16.62L24.78 16.70Q18.81 16.60 13.86 14.08L13.91 14.13L13.78 14.00Q14.95 16.39 15.67 18.64L15.74 18.71L15.80 18.77Q16.83 19.23 17.63 19.46L17.72 19.54L17.58 19.40Q17.83 20.07 18.10 21.52L18.13 21.55L18.06 21.48Q21.86 22.62 26.73 22.43L26.84 22.54L26.79 22.48Q24.30 25.59 20.99 30.58L21.06 30.65L15.58 39.02L15.44 38.88Q15.05 40.13 14.02 42.68Z"/><path fill="#ed6c6c" d="M75.16 29.56L75.32 29.71L75.26 29.66Q75.18 33.84 74.45 37.99L74.62 38.16L74.52 38.05Q76.74 37.46 79.82 37.34L79.82 37.34L79.79 37.32Q81.21 37.59 82.28 36.58L82.22 36.52L82.30 36.60Q83.33 35.56 83.33 34.23L83.32 34.22L83.37 34.27Q83.26 33.85 83.22 33.58L83.29 33.66L83.18 33.54Q83.14 30.72 80.89 29.89L80.92 29.91L80.93 29.92Q80.07 29.52 79.38 29.59L79.50 29.71L79.44 29.65Q78.36 29.56 77.33 29.60L77.36 29.63L77.32 29.59Q76.36 29.73 75.34 29.73ZM73.93 19.12L74.02 19.21L73.97 19.15Q74.84 22.47 75.11 26.84L75.21 26.94L75.26 26.99Q76.59 26.99 79.26 27.03L79.21 26.98L79.37 27.15Q82.29 27.17 82.63 23.63L82.51 23.51L82.55 23.55Q82.70 21.57 81.29 20.73L81.34 20.78L81.39 20.83Q80.50 20.31 76.08 19.67L76.10 19.69L76.06 19.65Q74.94 19.44 74.03 19.21ZM70.32 42.04L70.28 42.00L70.42 42.14Q72.92 35.50 72.65 28.11L72.50 27.96L72.58 28.05Q72.26 20.72 69.33 14.25L69.31 14.23L69.42 14.34Q73.24 16.91 79.47 17.15L79.28 16.97L79.30 16.99Q85.58 17.29 85.93 20.19L86.02 20.28L86.02 20.28Q86.37 23.06 84.96 25.73L84.94 25.71L84.87 25.64Q84.05 27.07 82.46 27.76L82.53 27.83L82.57 27.87Q86.16 28.50 86.39 33.86L86.40 33.87L86.39 33.86Q86.50 35.00 86.43 36.41L86.39 36.37L86.41 36.39Q86.37 37.72 85.44 38.66L85.38 38.59L85.48 38.70Q84.50 39.58 83.17 39.73L83.21 39.78L83.22 39.78Q81.67 39.80 80.61 39.80L80.56 39.76L80.58 39.78Q74.86 39.77 70.33 42.05ZM83.10 42.34L83.14 42.38L83.25 42.49Q84.04 42.40 85.91 42.51L86.08 42.68L86.00 42.61Q87.44 42.68 88.55 41.81L88.49 41.75L88.42 41.67Q89.26 40.81 89.15 39.25L89.14 39.24L89.19 39.29Q89.02 38.25 88.30 34.78L88.30 34.78L88.31 34.79Q87.78 31.71 85.92 30.23L85.83 30.14L85.32 29.21L85.38 29.27Q87.07 27.88 87.64 24.11L87.59 24.06L87.65 24.12Q87.73 22.91 87.66 21.50L87.72 21.56L87.74 21.59Q87.78 20.36 86.67 19.52L86.63 19.48L86.58 19.43Q86.20 19.16 86.08 19.12L86.19 19.23L86.06 19.10Q85.83 18.60 84.99 17.80L85.02 17.84L84.99 17.80Q83.52 16.79 79.29 16.60L79.28 16.59L79.30 16.60Q72.77 16.44 68.78 13.55L68.75 13.52L68.65 13.41Q71.89 20.39 72.20 27.93L72.20 27.93L72.36 28.09Q72.53 35.77 69.72 42.69L69.77 42.75L71.80 41.77L71.86 41.83Q71.47 42.96 70.97 44.10L70.94 44.07L71.00 44.13Q75.19 42.15 80.22 42.15L80.29 42.23L80.26 42.20Q81.77 42.30 83.22 42.45ZM81.00 31.82L81.04 31.86L81.09 31.92Q81.73 31.75 82.65 32.21L82.73 32.29L82.70 32.26Q82.75 32.54 82.90 33.61L82.91 33.62L83.03 33.74Q83.08 34.96 82.14 36.01L82.18 36.05L82.29 36.16Q81.18 37.03 79.78 36.92L79.79 36.94L78.44 37.18L78.46 37.20Q77.69 37.22 76.96 37.34L76.95 37.33L76.80 37.18Q77.10 35.34 77.18 31.88L77.33 32.04L77.28 31.98Q77.91 31.89 79.17 31.85L79.11 31.80L79.24 31.92Q80.34 31.73 80.95 31.77ZM79.94 22.19L79.99 22.25L80.39 22.26L80.40 22.27Q80.68 22.32 80.87 22.36L80.85 22.34L81.20 22.32L81.44 22.37L82.20 22.59L82.07 22.46Q82.18 22.72 82.18 23.02L82.31 23.16L82.25 23.63L82.19 23.57Q82.22 24.85 81.34 25.79L81.27 25.72L81.31 25.76Q80.49 26.74 79.27 26.74L79.19 26.66L79.32 26.79Q78.31 26.81 78.31 26.81L78.14 26.64L78.26 26.75Q76.90 26.69 77.24 26.69L77.31 26.76L77.19 26.64Q77.16 25.13 76.86 22.08L76.90 22.13L76.83 22.06Q78.49 22.26 80.01 22.26Z"/><path fill="#63e2a3" d="M29.21 38.90L29.25 38.94L29.25 38.93Q31.13 36.55 35.89 29.28L35.85 29.24L35.79 29.19Q39.85 23.00 42.70 19.72L42.73 19.75L42.80 19.82Q40.74 20.16 38.64 20.16L38.64 20.16L38.61 20.13Q33.46 20.23 29.46 18.44L29.39 18.37L29.28 18.26Q28.71 16.43 28.02 14.86L28.07 14.91L27.94 14.78Q32.55 16.99 38.22 17.11L38.21 17.10L38.16 17.05Q43.28 17.10 48.45 15.20L48.62 15.36L48.55 15.29Q48.22 16.18 47.91 16.98L47.88 16.94L47.32 18.56L47.33 18.57Q44.14 22.07 40.14 27.90L40.31 28.07L37.00 32.90L36.86 32.76Q35.16 35.18 33.33 37.46L33.33 37.45L33.47 37.59Q36.62 36.83 39.93 36.90L40.08 37.05L39.99 36.96Q43.41 37.15 46.57 38.06L46.54 38.03L47.08 39.67L46.95 39.54Q47.25 40.41 47.59 41.25L47.50 41.16L47.51 41.16Q42.90 39.64 37.76 39.83L37.82 39.89L37.78 39.85Q32.75 40.15 28.26 42.17L28.20 42.12L28.24 42.16Q28.53 41.00 29.26 38.94ZM27.53 42.74L27.62 42.82L27.48 42.69Q28.70 42.08 29.50 41.81L29.57 41.88L29.62 41.93Q29.23 42.57 28.54 44.09L28.68 44.22L28.69 44.24Q34.32 42.03 40.30 42.26L40.24 42.20L40.29 42.25Q46.56 42.43 51.59 45.21L51.75 45.37L51.70 45.32Q50.32 42.95 49.52 40.78L49.38 40.64L49.46 40.72Q48.94 40.47 47.42 39.90L47.43 39.91L47.37 39.85Q47.16 39.06 46.74 37.58L46.87 37.71L46.79 37.63Q42.65 36.46 37.54 36.65L37.55 36.65L37.50 36.60Q39.75 33.98 43.29 28.43L43.30 28.43L43.22 28.35Q46.92 22.69 48.82 20.13L48.85 20.17L48.80 20.12Q49.39 18.80 50.42 16.10L50.26 15.94L50.42 16.10Q49.73 16.44 48.29 17.05L48.26 17.02L48.27 17.03Q48.63 16.25 49.36 14.73L49.24 14.62L49.21 14.59Q43.98 16.82 38.27 16.74L38.21 16.68L38.32 16.79Q32.24 16.57 27.29 14.06L27.24 14.01L27.36 14.13Q28.51 16.50 29.23 18.74L29.22 18.73L29.17 18.68Q30.21 19.15 31.01 19.38L31.16 19.53L31.13 19.50Q31.28 20.07 31.55 21.52L31.66 21.63L31.57 21.54Q35.32 22.62 40.20 22.43L40.27 22.51L40.16 22.40Q37.75 25.58 34.44 30.57L34.43 30.57L29.01 39.00L28.93 38.92Q28.61 40.24 27.59 42.79Z"/><path fill="#e4e475" d="M66.05 40.18L66.02 40.16L63.87 40.29L63.80 40.22Q63.42 40.29 62.45 40.35L62.38 40.29L62.42 40.32Q61.56 40.49 61.07 40.49L60.96 40.39L60.99 40.42Q59.39 40.45 58.36 39.61L58.38 39.64L58.28 39.54Q59.20 38.55 60.83 36.42L60.76 36.34L60.85 36.43Q61.93 37.82 64.14 37.59L64.15 37.60L64.32 37.77Q65.11 37.54 65.76 36.89L65.87 37.00L65.75 36.88Q66.50 36.33 66.38 35.45L66.35 35.42L66.42 35.49Q66.13 30.71 66.20 26.14L66.32 26.26L66.34 26.27Q66.40 21.69 66.93 17.08L66.88 17.03L66.83 16.98Q68.77 16.79 70.90 15.76L70.94 15.80L70.91 15.77Q69.16 22.62 69.16 29.86L69.14 29.84L69.12 29.81Q68.97 33.20 69.42 36.70L69.54 36.83L69.47 36.75Q69.63 37.18 69.63 37.52L69.50 37.39L69.59 37.49Q69.59 38.06 69.37 38.59L69.28 38.51L69.37 38.59Q68.87 39.92 66.05 40.19ZM70.96 43.00L71.01 43.05L71.26 42.96L71.59 42.87L71.86 42.76L71.89 42.79Q72.13 42.46 72.20 42.34L72.17 42.31L72.16 42.30Q72.46 41.23 72.20 40.24L72.16 40.20L72.14 40.18Q70.71 34.30 70.97 27.94L71.03 27.99L70.94 27.91Q71.19 21.80 72.98 15.90L73.11 16.03L72.99 15.91Q72.18 16.63 70.93 17.35L70.88 17.30L71.00 17.42Q71.07 16.54 71.49 15.02L71.44 14.97L71.59 15.12Q69.08 16.45 66.41 16.75L66.43 16.77L66.38 16.72Q66.03 21.13 65.95 26.08L65.90 26.03L65.98 26.11Q65.94 32.04 66.01 35.46L66.00 35.45L65.94 35.40Q65.93 37.09 64.18 37.24L64.20 37.26L64.32 37.39Q62.52 37.42 60.85 35.78L60.89 35.82L60.90 35.83Q58.74 38.25 57.79 39.81L57.89 39.90L57.74 39.75Q58.40 40.42 59.43 40.65L59.48 40.69L59.42 40.63Q59.38 40.82 59.11 41.05L59.13 41.07L59.06 41.00Q60.68 42.13 62.66 42.39L62.60 42.33L62.61 42.35Q63.04 42.42 66.33 42.73L66.36 42.76L66.21 42.61Q69.51 42.92 70.88 42.92Z"/><path fill="#b941e1" d="M55.47 41.35L55.28 41.16L52.47 41.20L52.36 41.10Q49.88 40.90 49.08 40.78L49.09 40.79L49.16 40.87Q47.31 40.49 46.13 39.62L46.13 39.62L46.14 39.63Q44.91 38.29 44.68 34.94L44.72 34.98L44.55 34.80Q44.51 34.31 44.43 33.09L44.58 33.24L44.48 33.13Q44.52 32.75 44.44 31.65L44.48 31.69L44.50 31.71Q44.46 30.87 44.49 30.14L44.49 30.14L44.49 30.14Q44.55 28.07 45.58 27.31L45.60 27.33L45.75 27.47Q47.59 26.23 52.43 26.01L52.43 26.01L52.39 25.97Q54.46 25.91 55.26 25.91L55.24 25.89L55.21 25.86Q56.81 25.97 58.18 26.28L58.20 26.30L58.04 26.13Q57.63 27.55 57.09 29.38L57.04 29.32L57.05 29.33Q56.55 29.41 56.06 29.37L55.97 29.29L55.96 29.27Q55.82 29.21 55.28 29.09L55.41 29.22L54.48 29.01L54.33 28.86Q53.34 28.67 52.73 28.71L52.77 28.74L52.83 28.81Q48.00 28.77 47.39 31.59L47.35 31.55L47.48 31.68Q47.15 32.76 47.23 33.71L47.15 33.64L47.27 33.76Q47.35 36.27 48.59 37.36L48.69 37.46L48.55 37.32Q49.80 38.42 52.39 38.46L52.50 38.57L52.42 38.49Q53.92 38.54 54.65 38.24L54.56 38.15L55.68 37.75L55.62 37.69Q56.26 37.56 56.83 37.49L56.70 37.36L56.86 37.52Q56.97 39.19 57.35 40.49L57.42 40.56L57.45 40.58Q57.16 40.90 55.37 41.25ZM58.56 44.13L58.64 44.22L58.59 44.16Q58.92 44.15 59.76 44.23L59.89 44.36L59.90 44.37Q60.41 44.27 60.75 43.69L60.79 43.73L60.73 43.68Q59.67 41.74 59.17 39.64L59.14 39.61L59.14 39.61Q58.78 39.55 58.32 39.55L58.21 39.44L58.32 39.55Q57.91 39.56 57.53 39.75L57.48 39.70L57.42 39.64Q57.09 38.39 56.93 36.99L57.07 37.12L56.96 37.01Q56.42 37.01 55.20 37.58L55.24 37.61L55.10 37.48Q54.03 38.20 53.54 38.20L53.46 38.12L53.38 38.03Q53.03 38.18 52.42 38.14L52.42 38.14L52.46 38.18Q51.58 38.18 49.60 37.61L49.56 37.57L49.59 37.60Q49.10 36.73 49.14 35.59L49.29 35.73L49.27 35.72Q49.34 31.37 54.29 30.84L54.30 30.85L54.38 30.93Q55.02 30.89 56.39 31.23L56.46 31.30L56.39 31.22Q57.71 31.52 58.43 31.48L58.46 31.51L58.50 31.55Q59.01 29.40 59.70 27.57L59.65 27.52L59.55 27.42Q59.21 27.35 58.83 27.27L58.88 27.32L58.16 27.28L58.02 27.14Q58.32 26.76 58.70 25.89L58.73 25.91L58.75 25.94Q57.15 25.51 55.59 25.51L55.62 25.54L55.52 25.45Q53.15 25.48 48.77 25.86L48.82 25.90L48.79 25.88Q46.80 25.97 45.24 26.96L45.35 27.08L45.20 26.93Q44.10 27.99 44.10 29.90L44.07 29.87L44.14 29.94Q44.16 30.38 44.28 31.60L44.16 31.49L44.27 31.60Q44.26 32.54 44.23 33.15L44.13 33.05L44.30 33.23Q44.21 35.00 44.93 38.73L44.93 38.73L45.05 38.84Q45.44 39.69 45.93 40.18L45.77 40.02L46.05 40.31L46.04 40.26L46.23 40.44Q47.15 42.47 51.08 43.08L50.98 42.99L51.16 43.17Q54.26 43.60 56.93 43.87L56.93 43.88L56.84 43.78Q57.73 43.94 58.64 44.21Z"/><path fill="#698aec" d="M110.13 14.37L110.10 14.34L110.07 14.30Q113.83 16.81 118.59 17.04L118.71 17.15L118.62 17.06Q123.32 17.31 127.58 15.56L127.50 15.48L127.47 15.45Q127.30 16.07 126.54 18.85L126.49 18.81L126.55 18.86Q123.68 19.76 120.71 19.92L120.86 20.06L120.74 19.95Q117.86 20.19 114.97 19.47L114.88 19.38L115.03 19.53Q115.58 23.01 115.77 26.66L115.90 26.80L115.82 26.72Q117.86 26.97 119.46 26.93L119.41 26.88L119.37 26.84Q120.64 26.89 123.04 26.78L122.99 26.73L123.13 26.87Q122.91 27.34 122.91 28.02L123.00 28.11L123.00 29.44L122.94 29.38Q120.58 29.42 115.78 29.50L115.82 29.54L115.83 29.54Q115.75 33.57 115.18 37.57L115.35 37.74L115.33 37.72Q117.97 37.08 120.71 37.20L120.66 37.16L120.56 37.05Q123.29 37.16 125.88 37.99L125.83 37.94L125.98 38.09Q126.08 38.91 126.34 39.68L126.25 39.59L126.80 41.20L126.73 41.13Q123.53 39.83 120.10 39.83L120.15 39.88L120.18 39.90Q115.24 39.84 110.97 42.08L110.95 42.06L111.02 42.13Q113.28 35.25 113.01 28.13L113.02 28.14L113.06 28.18Q112.69 20.92 110.03 14.26ZM110.52 42.85L110.50 42.83L110.35 42.68Q111.78 42.13 112.55 41.79L112.46 41.70L112.47 41.72Q112.20 42.39 111.63 43.92L111.65 43.94L111.78 44.07Q116.15 41.93 121.21 42.19L121.31 42.29L121.28 42.27Q126.56 42.67 130.56 45.37L130.57 45.38L130.46 45.28Q129.28 42.73 128.59 40.78L128.53 40.72L128.55 40.74Q127.54 40.11 126.55 39.77L126.54 39.76L126.53 39.75Q126.33 38.56 126.18 37.76L126.13 37.71L126.16 37.74Q123.08 36.75 119.92 36.75L119.95 36.78L119.89 36.72Q118.70 36.68 117.56 36.79L117.47 36.71L117.59 36.83Q117.78 35.64 117.82 34.42L117.79 34.40L117.87 31.88L117.82 31.83Q119.62 31.73 121.41 31.77L121.41 31.77L121.49 31.85Q123.22 31.79 125.01 31.94L125.03 31.96L125.02 31.95Q125.03 31.09 125.03 30.14L124.90 30.01L125.02 28.22L124.20 28.28L124.16 28.24Q123.66 28.23 123.20 28.23L123.34 28.37L123.30 28.33Q123.21 27.56 123.37 26.27L123.41 26.31L123.48 26.38Q121.79 26.51 120.61 26.55L120.56 26.51L120.65 26.60Q119.72 26.62 117.89 26.54L117.92 26.56L117.81 26.46Q117.85 25.17 117.66 22.35L117.60 22.29L117.61 22.30Q118.62 22.39 119.61 22.39L119.63 22.41L119.68 22.47Q124.35 22.42 128.05 20.52L127.99 20.46L127.95 20.42Q128.70 18.24 129.58 16.03L129.43 15.88L129.56 16.02Q128.20 16.82 127.36 17.17L127.36 17.16L127.31 17.12Q127.58 16.32 128.04 14.76L128.04 14.76L128.14 14.86Q123.52 17.01 118.64 16.71L118.65 16.71L118.47 16.53Q113.26 16.31 109.41 13.45L109.52 13.56L109.45 13.49Q112.40 20.52 112.71 28.13L112.63 28.06L112.71 28.13Q113.00 36.04 110.49 42.82Z"/><path fill="#e8c55e" d="M12.43 27.65L12.55 27.77L12.52 27.74Q9.00 27.65 7.90 31.00L7.79 30.89L7.85 30.95Q7.60 32.15 7.49 33.21L7.32 33.05L7.48 33.20Q7.21 35.18 8.20 36.52L8.18 36.50L8.14 36.45Q9.60 37.76 12.07 37.80L12.04 37.77L11.98 37.70Q13.75 37.69 15.16 36.55L15.28 36.67L15.30 36.69Q16.61 35.45 16.61 33.66L16.64 33.68L16.58 33.63Q16.71 33.42 16.64 33.04L16.52 32.92L16.63 33.03Q16.31 27.80 12.50 27.72ZM12.34 40.13L12.49 40.27L12.43 40.22Q8.68 40.50 6.89 38.48L6.83 38.42L6.90 38.49Q6.63 39.48 6.18 40.85L6.22 40.89L6.04 40.71Q4.22 41.59 2.96 42.16L2.90 42.11L2.84 42.05Q5.09 36.14 5.09 29.63L5.02 29.57L5.11 29.66Q5.04 21.29 1.61 13.45L1.74 13.57L1.75 13.58Q4.07 14.91 5.40 15.37L5.41 15.38L5.34 15.30Q7.46 21.96 7.62 27.79L7.59 27.76L7.49 27.66Q9.02 25.07 12.75 25.11L12.83 25.20L12.86 25.22Q16.07 25.23 17.55 27.10L17.55 27.10L17.46 27.00Q19.30 29.30 19.45 32.88L19.36 32.79L19.48 32.91Q19.47 34.00 19.39 35.60L19.48 35.69L19.40 35.61Q19.33 37.03 18.46 38.17L18.55 38.26L18.55 38.26Q16.84 40.01 12.50 40.28ZM17.86 42.67L17.83 42.64L17.88 42.69Q19.32 42.64 20.80 41.96L20.88 42.04L20.88 42.03Q22.03 40.78 22.06 38.84L22.02 38.80L22.11 38.89Q22.10 38.39 21.95 37.21L21.82 37.08L21.87 37.13Q21.80 36.45 21.69 35.53L21.78 35.63L21.66 35.51Q20.78 30.67 19.22 28.62L19.35 28.74L19.25 28.64Q19.39 28.74 18.59 27.87L18.55 27.83L18.59 27.87Q18.22 27.46 17.68 26.66L17.75 26.72L17.78 26.75Q16.13 24.76 12.78 24.80L12.86 24.88L12.87 24.89Q10.81 24.93 9.56 25.54L9.42 25.40L9.53 25.51Q9.11 20.90 8.50 17.71L8.52 17.72L8.59 17.79Q7.81 17.58 6.32 17.20L6.22 17.10L6.24 17.12Q6.20 16.47 5.74 15.02L5.63 14.91L5.78 15.06Q3.27 14.19 1.03 12.63L1.01 12.61L0.93 12.53Q4.87 20.89 4.87 29.68L4.73 29.54L4.87 29.68Q4.82 36.60 2.35 42.80L2.27 42.73L2.36 42.82Q2.95 42.38 4.28 41.81L4.25 41.77L4.43 41.96Q4.14 42.66 3.53 44.18L3.51 44.16L3.56 44.21Q5.39 43.14 8.16 42.61L8.27 42.72L8.66 40.90L8.71 40.94Q10.92 42.55 17.85 42.66ZM14.15 30.05L14.15 30.05L14.21 30.11Q15.10 29.98 15.64 30.36L15.74 30.46L15.61 30.33Q16.06 30.98 16.29 32.99L16.17 32.88L16.28 32.98Q16.43 34.81 15.18 36.13L15.26 36.21L15.21 36.16Q13.89 37.40 11.94 37.29L11.97 37.31L12.01 37.35Q11.12 37.53 9.64 37.04L9.58 36.99L9.56 36.96Q9.29 36.42 9.29 35.89L9.27 35.87L9.43 36.03Q9.29 32.80 10.85 31.21L10.93 31.29L10.90 31.30L10.81 31.21Q12.28 29.85 14.03 29.93Z"/><path fill="#a48ee6" d="M89.10 14.09L89.05 14.04L89.08 14.07Q90.08 16.14 91.76 16.49L91.60 16.32L91.76 16.49Q92.21 16.52 92.89 16.33L92.92 16.36L92.88 16.32Q92.78 22.34 92.70 28.20L92.71 28.21L92.54 28.04Q92.65 33.97 92.87 39.91L92.89 39.93L92.75 39.78Q92.60 39.86 92.29 39.86L92.20 39.77L92.16 39.73Q90.71 39.84 89.41 41.67L89.39 41.64L89.34 41.59Q90.13 34.77 90.09 27.92L90.11 27.93L89.95 27.77Q89.87 20.88 89.03 14.02ZM88.99 42.81L88.97 42.78L89.02 42.84Q90.01 40.93 91.08 40.48L91.11 40.51L91.12 40.51Q90.95 41.45 90.95 42.44L91.08 42.57L91.02 42.51Q91.81 42.20 92.61 42.31L92.60 42.30L92.50 42.20Q94.49 42.47 95.71 45.18L95.71 45.18L95.72 45.19Q94.56 37.68 94.56 30.22L94.54 30.20L94.59 30.24Q94.69 22.62 95.53 15.31L95.54 15.31L95.53 15.31Q94.43 17.10 93.28 17.71L93.31 17.73L93.39 17.81Q93.35 16.74 93.43 15.68L93.48 15.73L93.45 15.70Q92.55 16.09 91.79 15.94L91.84 15.99L91.89 16.04Q89.53 15.47 88.54 12.62L88.65 12.73L88.66 12.74Q89.60 20.15 89.68 27.69L89.76 27.77L89.81 27.83Q89.76 35.15 88.88 42.69Z"/><path fill="#4dd591" d="M133.15 40.01L133.25 40.11L131.22 40.37L131.13 40.28Q130.72 40.32 129.75 40.38L129.76 40.39L129.78 40.41Q128.77 40.43 128.28 40.43L128.24 40.40L128.28 40.43Q126.65 40.44 125.62 39.60L125.50 39.48L125.63 39.61Q126.39 38.47 128.03 36.34L128.03 36.34L127.99 36.30Q129.29 37.91 131.50 37.68L131.44 37.61L131.48 37.66Q132.32 37.47 132.97 36.82L133.03 36.89L133.00 36.85Q133.76 36.32 133.65 35.45L133.57 35.37L133.66 35.46Q133.39 30.70 133.47 26.13L133.51 26.17L133.60 26.27Q133.62 21.63 134.15 17.03L134.17 17.05L134.10 16.98Q136.04 16.78 138.17 15.75L138.24 15.82L138.21 15.80Q136.42 22.61 136.42 29.85L136.36 29.79L136.42 29.84Q136.36 33.33 136.82 36.83L136.75 36.76L136.86 36.87Q136.88 37.15 136.88 37.49L136.88 37.50L136.77 37.39Q136.95 38.14 136.72 38.67L136.57 38.52L136.55 38.50Q136.01 39.79 133.19 40.05ZM138.14 42.91L138.11 42.88L138.62 43.04L138.88 42.89L138.98 42.61L139.15 42.78Q139.42 42.47 139.49 42.36L139.36 42.22L139.43 42.29Q139.64 41.13 139.37 40.14L139.47 40.25L139.37 40.14Q137.98 34.30 138.25 27.94L138.28 27.97L138.27 27.96Q138.61 21.94 140.40 16.04L140.42 16.06L140.34 15.98Q139.51 16.68 138.25 17.40L138.27 17.42L138.16 17.30Q138.37 16.57 138.79 15.04L138.80 15.05L138.88 15.13Q136.22 16.32 133.55 16.62L133.55 16.62L133.63 16.70Q133.36 21.19 133.29 26.14L133.14 25.99L133.20 26.05Q133.08 31.91 133.15 35.33L133.18 35.36L133.21 35.39Q133.25 37.14 131.50 37.30L131.51 37.31L131.57 37.37Q129.83 37.45 128.15 35.81L128.11 35.77L128.20 35.86Q126.00 38.23 125.05 39.79L125.16 39.90L125.03 39.77Q125.84 40.59 126.87 40.82L126.88 40.82L126.70 40.65Q126.61 40.78 126.34 41.01L126.42 41.09L126.49 41.16Q127.85 42.02 129.83 42.28L129.83 42.29L129.84 42.30Q130.17 42.28 133.46 42.59L133.58 42.70L133.56 42.69Q136.84 42.98 138.21 42.98Z"/></svg>