<svg xmlns="http://www.w3.org/2000/svg" width="150" height="50" viewBox="0,0,150,50"><path d="M10 14 C79 43,59 2,148 47" stroke="#8de6e6" fill="none"/><path fill="#3c3ce5" d="M7.38 33.28L7.31 33.21L7.49 33.39Q7.25 36.12 6.07 40.76L5.98 40.67L6.15 40.84Q4.20 41.21 2.60 42.01L2.72 42.13L2.58 41.99Q5.26 35.04 5.00 27.62L5.13 27.76L4.97 27.60Q4.79 20.30 1.71 13.56L1.58 13.43L1.73 13.58Q3.54 14.71 5.41 15.28L5.55 15.42L5.51 15.38Q7.68 22.38 7.68 29.05L7.57 28.93L7.66 29.02Q7.63 30.45 7.56 31.93L7.58 31.95L7.60 31.98Q8.68 30.69 13.89 25.74L14.00 25.85L13.89 25.74Q15.02 25.77 16.01 25.69L16.08 25.76L18.15 25.59L18.11 25.54Q14.98 28.58 10.67 32.35L10.68 32.35L10.59 32.26Q13.89 34.95 20.36 40.77L20.50 40.91L20.55 40.97Q17.82 40.06 14.85 39.87L14.76 39.78L14.76 39.78Q12.21 37.65 7.34 33.23ZM17.34 42.51L17.23 42.41L17.29 42.46Q21.97 43.26 25.09 45.20L25.11 45.22L25.18 45.29Q24.04 44.03 21.41 41.64L21.26 41.49L21.28 41.50Q21.50 41.57 21.77 41.69L21.74 41.66L21.85 41.77Q19.77 39.77 17.52 37.86L17.49 37.83L13.12 33.99L12.99 33.87Q18.06 29.76 20.49 26.86L20.53 26.90L20.55 26.92Q19.25 26.91 16.78 27.18L16.82 27.23L16.72 27.12Q18.42 25.78 19.10 24.94L18.97 24.81L18.95 24.79Q16.19 25.30 13.71 25.30L13.73 25.32L13.78 25.36Q12.34 26.62 9.59 29.29L9.72 29.41L9.57 29.26Q9.66 23.56 8.67 17.74L8.69 17.76L8.64 17.71Q8.00 17.61 6.52 17.34L6.55 17.37L6.48 17.30Q6.37 16.62 5.91 15.13L5.93 15.15L5.89 15.11Q3.17 14.22 0.92 12.66L1.05 12.79L1.03 12.77Q4.35 19.48 4.69 27.58L4.71 27.60L4.74 27.63Q5.12 35.59 2.11 42.82L2.09 42.80L1.99 42.70Q2.77 42.48 4.10 41.84L4.05 41.79L4.03 41.77Q3.79 42.59 3.14 44.04L3.13 44.03L3.22 44.11Q5.98 42.96 8.11 42.57L8.20 42.66L8.17 42.63Q8.64 40.02 9.13 35.75L9.20 35.82L9.24 35.86Q11.92 38.20 17.36 42.54Z"/><path fill="#db7b5b" d="M118.93 41.29L118.98 41.33L118.97 41.32Q116.15 41.55 114.89 41.01L114.81 40.93L114.87 41.00Q112.89 40.16 112.97 37.68L112.94 37.66L112.97 37.68Q113.15 34.33 113.15 34.90L113.13 34.88L113.07 34.82Q113.24 29.65 110.38 24.82L110.36 24.80L110.32 24.76Q112.28 25.69 114.26 26.07L114.23 26.04L114.18 25.99Q115.90 30.60 115.78 35.09L115.91 35.22L115.80 35.11Q115.75 36.69 116.58 37.91L116.64 37.96L116.51 37.84Q117.50 39.24 119.02 39.05L118.92 38.95L119.39 38.93L119.38 38.92Q120.70 38.83 121.52 38.06L121.47 38.02L121.53 38.07Q122.37 37.34 122.37 36.39L122.30 36.32L122.36 36.38Q122.34 36.13 122.30 35.94L122.19 35.83L122.38 36.02Q122.30 30.76 123.44 26.42L123.28 26.25L123.42 26.40Q124.46 26.33 125.45 26.10L125.31 25.96L127.43 25.57L127.40 25.54Q124.91 30.62 125.21 36.18L125.16 36.13L125.15 36.12Q125.26 39.13 123.55 40.27L123.60 40.32L123.53 40.25Q122.28 41.17 118.96 41.32ZM121.35 43.78L121.30 43.73L121.41 43.84Q124.84 43.96 126.67 43.20L126.65 43.18L126.71 43.24Q127.50 42.35 127.50 40.94L127.59 41.03L127.45 40.89Q127.63 40.16 127.36 38.60L127.29 38.53L127.24 38.48Q126.79 35.36 127.17 32.35L127.20 32.38L127.20 32.39Q127.59 29.24 129.00 26.50L128.96 26.45L129.02 26.52Q128.28 26.72 126.94 27.14L127.05 27.24L126.98 27.18Q127.30 26.66 127.60 26.09L127.56 26.04L128.21 24.98L128.13 24.90Q126.20 25.56 123.04 26.05L123.02 26.03L122.93 25.95Q121.86 30.89 122.01 35.99L122.02 35.99L122.03 36.01Q121.95 37.95 119.29 38.44L119.27 38.43L119.04 38.65L118.92 38.68L117.88 38.44L117.87 38.43Q117.80 37.56 117.84 37.07L117.84 37.08L117.88 37.11Q117.95 32.46 117.26 28.04L117.27 28.05L116.27 27.97L116.40 28.10Q115.78 27.97 115.25 27.86L115.19 27.79L115.32 27.92Q114.92 26.50 114.65 25.74L114.57 25.65L114.65 25.74Q111.77 25.22 109.53 23.93L109.48 23.88L109.67 24.07Q111.78 27.54 112.50 30.93L112.50 30.93L112.35 30.79Q112.98 33.12 112.82 36.62L112.83 36.63L112.81 36.61Q112.86 36.78 112.79 37.88L112.78 37.87L112.82 37.92Q112.57 40.18 113.94 41.13L113.85 41.04L113.99 41.18Q114.31 43.37 121.32 43.75Z"/><path fill="#74cdeb" d="M128.54 33.35L128.47 33.27L128.52 33.33Q128.38 36.15 127.20 40.80L127.14 40.75L127.22 40.82Q125.34 41.26 123.74 42.06L123.79 42.11L123.85 42.18Q126.37 35.06 126.11 27.64L126.07 27.60L126.20 27.73Q125.76 20.18 122.68 13.44L122.65 13.41L122.82 13.58Q124.82 14.89 126.69 15.47L126.52 15.30L126.53 15.31Q128.63 22.25 128.63 28.91L128.63 28.90L128.80 29.08Q128.80 30.53 128.73 32.01L128.68 31.96L128.72 32.00Q129.74 30.66 134.96 25.71L134.98 25.74L135.08 25.84Q136.16 25.82 137.15 25.74L137.11 25.70L139.12 25.46L139.21 25.55Q136.13 28.64 131.83 32.41L131.74 32.32L131.73 32.31Q135.00 34.97 141.47 40.80L141.65 40.97L141.53 40.85Q138.93 40.08 135.96 39.89L135.96 39.90L135.95 39.88Q133.42 37.77 128.55 33.36ZM138.41 42.49L138.36 42.44L138.34 42.43Q143.08 43.28 146.20 45.22L146.19 45.21L146.31 45.33Q145.12 44.03 142.49 41.63L142.33 41.46L142.42 41.55Q142.69 41.67 142.95 41.78L142.93 41.76L142.92 41.75Q140.86 39.77 138.62 37.87L138.65 37.90L134.20 33.98L134.11 33.90Q139.04 29.64 141.47 26.75L141.64 26.92L141.45 26.73Q140.42 26.99 137.94 27.26L137.77 27.08L137.84 27.16Q139.44 25.70 140.12 24.87L140.14 24.88L140.12 24.86Q137.34 25.36 134.87 25.36L134.79 25.28L134.97 25.46Q133.53 26.72 130.79 29.39L130.73 29.33L130.71 29.31Q130.71 23.52 129.72 17.70L129.83 17.81L129.74 17.72Q128.94 17.46 127.46 17.19L127.46 17.19L127.64 17.37Q127.38 16.54 126.92 15.05L126.91 15.04L126.97 15.11Q124.37 14.33 122.12 12.77L122.11 12.75L122.10 12.74Q125.47 19.50 125.81 27.61L125.75 27.55L125.88 27.68Q126.20 35.58 123.19 42.81L123.23 42.85L123.11 42.73Q123.84 42.47 125.18 41.82L125.21 41.86L125.20 41.84Q124.94 42.66 124.30 44.10L124.37 44.18L124.40 44.20Q127.16 43.05 129.29 42.67L129.19 42.56L129.28 42.65Q129.77 40.06 130.26 35.79L130.34 35.87L130.28 35.81Q132.92 38.11 138.36 42.45Z"/><path fill="#e0964c" d="M24.16 19.63L24.27 19.73L24.18 19.64Q22.27 19.83 21.32 19.98L21.28 19.95L21.28 19.94Q19.70 20.23 18.48 20.76L18.40 20.68L18.40 20.68Q14.87 22.10 14.76 26.78L14.89 26.92L14.73 26.76Q14.82 29.59 15.47 32.52L15.47 32.52L15.32 32.37Q16.27 36.48 19.88 37.66L19.89 37.66L19.83 37.60Q21.85 38.29 23.29 38.14L23.14 37.98L23.68 38.06L23.71 38.09Q23.75 37.94 23.94 37.98L24.04 38.09L23.97 38.01Q24.21 38.10 24.36 38.06L24.42 38.12L24.31 38.01Q27.02 37.83 28.39 37.26L28.26 37.12L24.73 33.63L24.72 33.63Q25.12 33.38 25.73 32.77L25.78 32.81L26.67 31.88L26.58 31.79Q28.44 33.88 30.42 35.94L30.39 35.91L30.35 35.87Q32.68 34.05 32.95 28.68L32.99 28.72L33.05 28.78Q33.04 27.78 33.04 26.87L33.09 26.92L32.99 26.82Q33.11 21.26 28.05 20.16L27.96 20.08L28.08 20.20Q26.69 19.79 24.18 19.64ZM36.98 41.73L36.86 41.62L36.96 41.71Q36.30 42.08 35.12 42.96L35.18 43.02L30.83 39.39L30.86 39.42Q28.37 40.62 24.10 40.66L24.07 40.63L24.01 40.57Q17.52 40.73 14.70 38.49L14.63 38.42L14.68 38.47Q12.92 36.70 12.46 33.74L12.34 33.62L12.45 33.72Q12.25 31.93 11.87 28.35L11.89 28.37L11.81 28.29Q11.88 27.64 11.77 25.89L11.72 25.84L11.80 25.92Q11.60 24.31 11.64 23.43L11.71 23.51L11.72 23.52Q11.81 20.44 13.56 18.88L13.48 18.80L13.59 18.91Q15.04 17.51 18.24 17.02L18.17 16.94L18.16 16.93Q20.75 16.67 23.64 16.74L23.69 16.79L23.53 16.63Q31.08 16.80 34.20 19.16L34.28 19.24L34.27 19.22Q36.35 21.27 36.08 26.18L36.03 26.12L36.03 26.12Q35.87 29.81 35.68 31.14L35.84 31.30L35.75 31.21Q35.10 35.70 32.78 38.02L32.75 37.99L32.86 38.10Q34.19 39.21 36.93 41.69ZM32.16 17.49L32.13 17.47L32.21 17.55Q30.03 16.67 23.52 16.17L23.50 16.15L23.63 16.28Q22.22 16.28 19.44 16.39L19.54 16.49L19.55 16.49Q15.20 16.60 12.96 18.58L12.92 18.55L12.90 18.53Q11.36 20.12 11.36 23.28L11.35 23.26L11.32 23.23Q11.35 24.09 11.50 25.81L11.54 25.85L11.46 25.76Q11.52 27.39 11.52 28.26L11.67 28.41L11.66 28.40Q11.67 30.02 12.06 33.60L12.12 33.66L12.16 33.70Q12.58 36.63 14.18 38.69L14.07 38.59L14.06 38.57Q14.50 39.51 15.72 40.65L15.64 40.57L15.68 40.60Q18.44 42.65 23.62 42.91L23.46 42.76L23.65 42.94Q23.86 42.81 26.25 42.92L26.30 42.97L26.34 43.01Q31.02 43.05 33.31 41.98L33.33 42.01L33.41 42.09Q34.30 42.79 39.03 46.37L38.92 46.26L38.96 46.30Q39.59 45.79 40.89 44.80L40.93 44.85L40.91 44.82Q40.07 44.17 39.27 43.49L39.30 43.52L37.58 41.99L37.63 41.89L37.65 41.91Q37.07 41.44 35.85 40.41L35.94 40.50L35.84 40.41Q37.75 37.89 37.75 33.36L37.85 33.46L37.69 33.31Q37.70 32.90 37.74 32.06L37.86 32.18L37.77 32.10Q37.93 31.38 37.93 30.96L37.92 30.95L37.74 30.76Q37.87 25.38 37.15 23.02L37.10 22.97L37.12 22.99Q36.77 21.73 35.90 20.66L35.79 20.55L35.85 20.62Q35.06 18.49 32.13 17.47ZM26.20 22.12L26.13 22.05L26.04 21.96Q30.19 21.96 32.02 23.56L32.02 23.56L32.08 23.62Q32.66 24.85 32.77 26.18L32.71 26.12L32.60 26.01Q32.73 27.32 32.66 28.69L32.67 28.70L32.71 28.74Q32.34 33.67 30.40 35.38L30.50 35.48L30.42 35.40Q29.11 34.09 26.60 31.35L26.60 31.36L26.67 31.43Q25.72 32.00 24.16 33.56L24.16 33.56L24.15 33.54Q24.77 34.21 25.92 35.39L25.92 35.40L25.95 35.54L25.89 35.48Q26.39 35.94 27.41 37.00L27.57 37.16L27.53 37.12Q26.54 37.38 24.21 37.68L24.19 37.66L23.61 37.62L23.19 37.62L23.16 37.62L23.25 37.72Q19.75 37.68 17.77 36.04L17.87 36.14L17.84 36.11Q16.72 33.92 16.75 30.80L16.85 30.89L16.84 30.89Q16.88 22.05 26.05 21.97Z"/><path fill="#77e452" d="M103.68 39.95L103.74 40.01L103.67 39.94Q99.42 39.30 97.59 37.86L97.68 37.94L97.67 37.93Q95.74 36.38 95.32 33.37L95.43 33.49L95.34 33.39Q95.27 32.98 94.92 28.22L94.97 28.27L94.93 28.22Q95.17 27.25 95.09 25.99L94.93 25.83L94.95 25.85Q94.92 20.95 97.13 19.19L97.02 19.08L97.11 19.18Q99.79 17.09 107.55 16.41L107.52 16.38L107.49 16.35Q108.78 16.15 110.42 16.19L110.48 16.25L110.34 16.12Q110.49 16.26 113.46 16.26L113.49 16.29L113.43 16.23Q114.28 16.24 115.99 16.39L115.90 16.30L115.92 16.32Q115.53 17.38 114.50 20.46L114.41 20.37L114.50 20.47Q112.36 19.20 109.36 19.20L109.29 19.14L109.24 19.09Q108.52 19.13 107.72 19.20L107.75 19.23L107.83 19.31Q102.71 19.75 100.19 21.73L100.20 21.74L100.16 21.69Q98.06 23.21 97.90 26.56L98.06 26.71L97.96 26.61Q97.87 27.17 97.91 28.43L97.98 28.49L98.05 28.57Q98.20 33.43 100.60 35.53L100.49 35.42L100.41 35.34Q102.65 37.36 107.64 37.66L107.72 37.75L107.58 37.60Q110.70 37.75 113.71 35.96L113.76 36.02L113.69 35.94Q114.46 38.85 115.07 40.22L114.92 40.07L115.08 40.23Q112.84 40.35 111.20 40.31L111.36 40.47L111.24 40.35Q106.73 40.26 103.61 39.87ZM118.83 43.71L118.73 43.61L118.81 43.69Q117.07 40.73 116.38 38.15L116.36 38.12L116.24 38.00Q115.91 38.36 114.92 38.74L114.83 38.64L114.93 38.75Q114.52 37.88 114.33 37.04L114.34 37.06L113.92 35.30L113.93 35.31Q110.79 37.50 107.67 37.38L107.53 37.25L107.59 37.31Q103.34 37.13 101.02 35.38L100.90 35.26L100.95 35.31Q99.90 33.58 99.98 30.65L99.86 30.53L99.92 30.59Q100.04 26.07 102.52 23.94L102.52 23.94L102.54 23.96Q104.76 22.14 109.44 21.53L109.37 21.46L109.37 21.46Q110.20 21.37 110.92 21.37L110.85 21.30L110.95 21.41Q113.68 21.36 115.77 22.88L115.78 22.88L115.76 22.87Q116.23 20.70 117.44 17.47L117.46 17.48L117.52 17.54Q117.28 17.57 116.73 17.51L116.75 17.53L116.71 17.50Q116.06 17.34 115.79 17.34L115.87 17.42L115.76 17.30Q115.98 16.81 116.44 15.82L116.47 15.85L116.47 15.85Q116.31 15.91 113.82 15.84L113.82 15.85L113.74 15.76Q111.34 15.78 110.70 15.82L110.68 15.80L110.64 15.76Q100.12 16.09 96.65 18.68L96.62 18.65L96.55 18.58Q94.58 20.45 94.58 24.37L94.62 24.41L94.70 24.49Q94.64 25.54 94.75 28.24L94.74 28.23L94.66 28.15Q94.86 31.77 95.09 33.49L95.10 33.50L95.16 33.55Q95.39 36.53 96.99 38.05L97.02 38.08L96.99 38.05Q97.59 38.84 98.84 39.98L98.91 40.05L98.85 39.99Q102.00 41.66 107.26 42.42L107.26 42.42L107.32 42.48Q113.73 43.41 118.72 43.60Z"/><path fill="#c769e6" d="M77.23 29.95L77.09 29.81L77.22 29.95Q76.81 29.76 76.50 29.76L76.49 29.75L76.65 29.91Q75.28 29.87 73.83 30.71L73.76 30.64L73.74 30.62Q72.44 31.75 72.44 33.66L72.55 33.77L72.45 33.66Q72.45 37.09 73.98 38.43L74.06 38.51L74.00 38.45Q74.95 39.63 77.24 39.63L77.28 39.67L77.13 39.52Q77.47 39.64 77.78 39.64L77.72 39.58L77.81 39.67Q79.56 39.71 80.70 38.07L80.67 38.03L80.57 37.94Q81.72 36.54 81.64 34.75L81.67 34.77L81.50 34.61Q81.78 34.35 81.78 33.93L81.61 33.76L81.76 33.92Q81.60 31.96 80.23 30.80L80.31 30.88L80.24 30.82Q78.95 29.73 77.16 29.89ZM81.55 39.94L81.56 39.96L81.67 40.06Q80.62 41.95 76.89 42.07L77.02 42.19L77.01 42.18Q73.45 42.13 71.85 40.53L71.92 40.59L71.84 40.52Q70.54 38.91 69.74 34.11L69.71 34.09L69.66 34.03Q69.39 32.31 69.39 31.06L69.26 30.93L69.38 31.05Q69.27 29.15 70.00 28.09L70.15 28.24L70.03 28.12Q71.50 26.85 74.47 26.85L74.32 26.70L74.43 26.81Q80.82 26.88 82.72 29.47L82.56 29.31L82.68 29.42Q82.92 28.68 83.34 27.08L83.21 26.95L83.20 26.94Q84.40 26.58 86.83 25.78L86.96 25.90L86.87 25.81Q84.56 31.57 84.33 37.89L84.18 37.74L84.28 37.84Q83.98 43.94 86.12 49.77L86.20 49.85L86.23 49.88Q84.44 49.19 82.65 48.92L82.60 48.88L82.75 49.02Q81.80 45.03 81.69 40.08ZM82.40 49.25L82.32 49.17L82.48 49.33Q83.20 49.48 84.61 49.78L84.50 49.67L84.51 49.68Q84.70 50.37 85.27 51.78L85.35 51.86L85.26 51.76Q87.96 52.60 90.24 53.89L90.24 53.89L90.25 53.90Q86.22 47.32 86.22 38.79L86.21 38.78L86.14 38.72Q86.23 32.45 88.71 26.66L88.62 26.57L88.59 26.54Q88.02 26.96 86.65 27.61L86.55 27.51L86.49 27.45Q86.95 26.81 87.60 25.25L87.55 25.20L87.46 25.11Q86.01 25.75 82.81 26.63L82.81 26.63L82.84 26.65Q82.69 27.19 82.38 28.37L82.36 28.35L82.32 28.30Q80.31 26.41 74.18 26.26L74.29 26.37L74.26 26.34Q71.08 26.27 69.70 27.76L69.65 27.70L69.71 27.76Q68.90 28.85 68.93 30.76L68.98 30.80L68.93 30.75Q69.13 33.85 70.12 37.62L70.12 37.62L70.16 37.65Q70.81 40.06 71.73 41.01L71.70 40.98L72.09 41.37L72.10 41.39Q73.11 43.99 78.55 44.22L78.66 44.32L78.55 44.22Q79.58 44.26 81.41 43.95L81.40 43.94L81.48 44.02Q81.85 47.03 82.46 49.31ZM78.96 32.11L79.10 32.25L79.02 32.16Q80.15 32.23 80.99 32.53L80.99 32.54L80.89 32.43Q81.05 32.94 81.16 33.55L81.17 33.55L81.18 33.57Q81.35 34.19 81.27 34.79L81.24 34.76L81.34 34.86Q81.29 36.72 80.26 38.01L80.26 38.01L80.30 38.05Q79.19 39.53 77.32 39.34L77.18 39.19L77.16 39.17Q75.94 39.25 74.99 38.83L74.95 38.79L74.91 38.75Q74.65 38.03 74.65 36.82L74.56 36.72L74.73 36.89Q74.55 36.41 74.55 36.11L74.54 36.10L74.55 36.10Q74.70 34.50 76.03 33.34L75.89 33.21L75.95 33.26Q77.33 32.15 79.08 32.22Z"/><path fill="#74eb92" d="M88.55 40.31L88.59 40.34L88.63 40.38Q84.51 40.57 83.52 38.25L83.62 38.34L83.50 38.23Q84.32 37.33 85.88 35.54L85.90 35.56L85.91 35.57Q86.34 37.53 89.35 37.64L89.32 37.61L89.39 37.68Q92.78 37.76 94.42 36.43L94.33 36.34L94.34 36.35Q95.76 34.76 95.68 32.06L95.67 32.04L95.83 32.21Q95.53 27.00 90.74 27.23L90.78 27.27L90.78 27.27Q88.08 27.54 86.32 28.79L86.32 28.79L85.93 28.55L85.74 28.44L85.66 28.35Q86.02 25.21 85.91 22.47L85.83 22.40L86.01 22.57Q85.78 19.83 85.43 16.52L85.54 16.62L85.53 16.62Q89.17 17.55 92.98 17.44L92.94 17.40L92.97 17.43Q96.72 17.30 100.30 16.04L100.32 16.07L99.78 17.61L99.77 17.61Q99.48 18.38 99.29 19.22L99.21 19.14L99.23 19.16Q96.05 20.13 92.17 20.13L92.32 20.29L92.17 20.13Q90.79 20.20 89.30 20.04L89.26 20.00L89.23 19.97Q89.28 20.78 88.93 25.23L88.97 25.27L88.80 25.10Q89.68 24.68 91.73 24.53L91.71 24.51L91.69 24.49Q95.42 24.72 96.87 26.39L96.94 26.47L97.00 26.52Q98.30 27.98 98.57 31.82L98.55 31.80L98.60 31.85Q98.83 36.01 97.61 38.02L97.73 38.14L97.55 37.97Q95.64 39.97 92.33 40.20L92.37 40.24L92.24 40.11Q91.19 40.13 88.53 40.29ZM94.76 42.75L94.61 42.60L94.77 42.76Q98.08 42.71 99.98 41.61L100.08 41.71L100.00 41.63Q101.06 40.18 101.06 38.08L100.90 37.92L101.00 38.02Q100.91 34.84 99.95 30.73L100.02 30.80L100.11 30.89Q99.58 28.99 98.36 27.58L98.50 27.72L98.54 27.79L98.18 27.36L97.91 27.25L97.87 27.20Q97.54 26.46 96.90 25.77L96.94 25.82L96.96 25.88L96.88 25.79Q95.35 24.12 91.66 24.12L91.68 24.13L91.57 24.29L91.48 24.20Q91.57 23.65 91.76 22.54L91.78 22.56L91.67 22.45Q96.72 22.63 100.76 20.99L100.77 21.00L100.84 21.07Q101.29 19.69 102.24 16.88L102.21 16.84L99.95 17.63L100.03 17.72Q100.44 16.60 100.94 15.46L100.84 15.37L100.90 15.43Q97.03 16.84 92.92 16.92L92.99 16.99L93.04 17.05Q88.80 17.03 84.84 15.93L84.83 15.91L84.86 15.95Q85.52 20.34 85.52 24.75L85.65 24.88L85.62 24.85Q85.63 26.77 85.52 28.67L85.51 28.66L85.56 28.72Q85.73 28.81 86.31 29.12L86.26 29.07L86.40 29.21Q86.55 28.79 87.20 28.45L87.25 28.50L87.20 28.45Q87.22 29.27 86.99 30.79L87.04 30.84L87.01 30.81Q87.45 31.02 87.87 31.25L87.76 31.15L87.94 31.32Q90.69 29.54 92.56 29.54L92.42 29.41L92.44 29.42Q93.80 29.45 94.98 30.10L94.93 30.05L95.08 30.20Q95.31 31.12 95.35 32.07L95.42 32.14L95.43 32.15Q95.49 34.73 94.47 35.83L94.46 35.83L94.38 35.74Q93.12 37.07 90.87 37.30L90.89 37.32L90.89 37.32Q89.96 37.42 89.28 37.34L89.15 37.22L89.12 37.19Q88.35 37.14 87.59 36.79L87.69 36.89L87.50 36.52L87.39 36.63L87.35 36.60Q86.63 36.18 86.10 34.84L86.06 34.81L86.08 34.83Q84.85 36.34 83.17 38.47L83.13 38.43L83.04 38.34Q83.50 39.14 84.34 40.09L84.23 39.98L84.25 40.00Q85.26 41.77 88.08 42.27L88.20 42.39L88.10 42.29Q89.25 42.49 94.62 42.61Z"/><path fill="#7e5aeb" d="M37.54 41.10L37.59 41.15L35.94 41.21L35.80 41.07Q32.49 41.14 31.53 39.01L31.55 39.03L31.50 38.97Q32.72 37.99 34.16 36.88L34.11 36.83L34.24 36.96Q34.77 39.09 37.62 38.94L37.68 38.99L37.52 38.83Q38.44 38.91 39.47 38.69L39.35 38.57L39.49 38.71Q40.28 38.05 40.20 37.10L40.19 37.08L40.24 37.13Q40.18 36.05 38.40 35.37L38.46 35.43L34.64 33.90L34.56 33.81Q32.30 32.54 31.95 29.00L31.85 28.90L31.93 28.98Q31.80 26.90 33.97 26.33L33.92 26.29L33.93 26.29Q34.75 25.94 37.72 25.94L37.82 26.04L37.91 26.13Q42.78 26.13 43.70 28.64L43.56 28.50L43.66 28.60Q42.91 29.03 42.19 29.49L42.26 29.56L40.88 30.54L40.88 30.54Q40.41 28.66 37.17 28.43L37.15 28.41L37.11 28.37Q36.45 28.32 35.42 28.73L35.48 28.79L35.56 28.87Q34.90 29.13 34.90 30.23L34.95 30.28L34.86 30.19Q35.19 31.24 37.01 31.93L37.18 32.09L37.18 32.09Q38.20 32.43 40.86 33.53L40.81 33.47L40.80 33.47Q42.68 34.36 42.87 36.91L42.90 36.94L42.84 36.88Q42.86 37.47 42.79 38.46L42.76 38.44L42.90 38.58Q42.90 39.49 42.33 40.14L42.21 40.02L42.17 39.98Q40.63 41.14 37.59 41.14ZM42.32 43.71L42.31 43.70L42.28 43.67Q43.28 43.79 44.65 43.48L44.55 43.39L44.59 43.43Q45.75 42.83 45.56 41.61L45.57 41.63L45.57 41.63Q45.39 40.95 45.08 39.35L45.04 39.31L45.11 39.38Q44.51 36.38 42.72 35.16L42.73 35.17L42.85 35.29Q42.29 33.85 41.03 33.13L40.96 33.06L41.00 33.10Q39.66 32.59 37.18 31.64L37.22 31.68L37.23 31.69Q37.38 31.23 37.64 31.11L37.69 31.16L37.68 31.15Q38.40 30.80 39.04 30.76L38.89 30.61L39.05 30.77Q39.72 30.60 40.48 30.87L40.51 30.90L40.48 30.94L40.67 31.02L40.90 31.05L40.87 31.06L40.94 31.13Q42.05 31.64 42.24 32.89L42.08 32.73L42.24 32.90Q43.35 31.91 45.26 30.23L45.24 30.22L45.26 30.24Q45.05 29.57 44.06 28.39L44.15 28.48L44.12 28.45Q42.98 25.75 37.88 25.64L37.87 25.63L37.80 25.55Q34.61 25.49 32.63 26.06L32.64 26.07L32.72 26.15Q31.33 26.74 31.56 28.83L31.40 28.68L31.43 28.70Q31.69 30.11 32.61 32.20L32.62 32.22L32.59 32.19Q32.99 33.16 34.02 33.88L34.10 33.96L34.06 33.92Q34.79 35.46 36.09 36.14L35.98 36.03L36.12 36.17Q36.99 36.36 37.95 36.74L37.87 36.66L39.86 37.51L39.87 37.52Q39.60 38.70 37.66 38.59L37.59 38.52L37.51 38.44Q37.08 38.51 35.86 38.20L35.97 38.31L35.93 38.12L35.74 38.15L35.71 38.13Q34.85 37.76 34.20 36.27L34.27 36.34L34.36 36.44Q32.16 37.92 31.05 39.06L31.13 39.14L30.95 38.96Q31.32 39.94 32.34 40.74L32.23 40.62L32.13 40.82L32.18 40.88Q33.61 42.99 37.83 43.37L37.80 43.34L37.94 43.48Q39.20 43.59 42.43 43.82Z"/><path fill="#e566a5" d="M52.91 27.76L52.93 27.78L52.90 27.76Q49.35 27.63 48.24 30.98L48.26 30.99L48.26 31.00Q47.98 32.16 47.86 33.23L47.83 33.20L47.86 33.22Q47.53 35.14 48.52 36.47L48.49 36.44L48.60 36.55Q49.91 37.71 52.38 37.75L52.27 37.64L52.37 37.73Q54.17 37.74 55.58 36.60L55.53 36.55L55.57 36.60Q56.90 35.38 56.90 33.59L56.95 33.63L56.92 33.60Q57.09 33.43 57.02 33.05L56.94 32.98L57.02 33.06Q56.60 27.72 52.79 27.65ZM52.87 40.29L52.75 40.17L52.75 40.16Q48.93 40.38 47.14 38.36L47.18 38.40L47.18 38.40Q46.98 39.46 46.52 40.83L46.41 40.71L46.52 40.83Q44.59 41.61 43.34 42.18L43.31 42.15L43.30 42.14Q45.38 36.07 45.38 29.56L45.38 29.56L45.40 29.58Q45.49 21.37 42.06 13.53L42.09 13.56L42.02 13.49Q44.26 14.74 45.59 15.20L45.66 15.26L45.78 15.38Q47.83 21.96 47.98 27.79L48.03 27.83L47.84 27.65Q49.43 25.13 53.16 25.16L53.23 25.23L53.15 25.15Q56.46 25.26 57.95 27.13L57.89 27.08L57.92 27.10Q59.70 29.34 59.85 32.92L59.86 32.93L59.85 32.91Q59.83 34.00 59.75 35.60L59.88 35.73L59.85 35.69Q59.69 37.02 58.82 38.17L59.00 38.35L58.87 38.22Q57.08 39.89 52.74 40.15ZM58.25 42.70L58.26 42.71L58.16 42.61Q59.79 42.75 61.27 42.07L61.30 42.09L61.33 42.12Q62.34 40.73 62.38 38.79L62.31 38.73L62.37 38.79Q62.46 38.38 62.31 37.20L62.34 37.23L62.34 37.23Q62.15 36.44 62.04 35.52L62.13 35.61L62.06 35.54Q61.20 30.73 59.64 28.67L59.59 28.63L59.62 28.65Q59.60 28.60 58.80 27.72L58.93 27.85L58.83 27.75Q58.69 27.57 58.15 26.77L58.02 26.63L58.05 26.66Q56.60 24.87 53.25 24.91L53.12 24.78L53.12 24.78Q51.00 24.75 49.74 25.36L49.90 25.52L49.94 25.55Q49.50 20.93 48.90 17.74L48.85 17.69L48.89 17.73Q48.11 17.53 46.63 17.15L46.72 17.24L46.64 17.16Q46.55 16.46 46.09 15.01L46.17 15.09L46.04 14.96Q43.65 14.20 41.40 12.64L41.32 12.56L41.30 12.54Q45.19 20.84 45.19 29.64L45.15 29.60L45.07 29.51Q45.24 36.65 42.76 42.86L42.59 42.68L42.63 42.73Q43.36 42.42 44.69 41.85L44.70 41.86L44.79 41.96Q44.43 42.58 43.82 44.11L43.96 44.24L43.87 44.16Q45.75 43.14 48.53 42.61L48.53 42.61L49.03 40.91L48.95 40.82Q51.27 42.54 58.20 42.65ZM54.56 30.10L54.54 30.08L54.39 29.94Q55.50 30.01 56.03 30.39L56.05 30.41L56.09 30.45Q56.25 30.81 56.48 32.82L56.49 32.83L56.60 32.94Q56.71 34.72 55.45 36.04L55.51 36.10L55.50 36.09Q54.21 37.37 52.27 37.25L52.42 37.40L52.28 37.26Q51.36 37.41 49.88 36.92L49.92 36.96L49.94 36.97Q49.75 36.52 49.75 35.99L49.65 35.89L49.81 36.05Q49.70 32.86 51.26 31.26L51.23 31.23L51.29 31.32L51.34 31.37Q52.79 30.01 54.54 30.08Z"/><path fill="#eecf71" d="M64.52 40.22L64.42 40.12L62.16 33.41L62.10 33.34Q57.79 20.81 51.85 14.42L51.75 14.31L51.78 14.34Q53.75 15.36 56.34 15.97L56.48 16.11L56.42 16.05Q61.43 22.21 65.77 34.96L65.79 34.98L65.93 35.12Q68.86 26.89 69.55 25.29L69.63 25.38L69.69 25.44Q71.99 19.74 74.80 16.43L74.72 16.34L74.77 16.39Q76.84 16.03 79.47 15.15L79.49 15.18L79.50 15.19Q74.85 19.71 71.80 26.94L71.84 26.98L71.92 27.06Q70.51 30.71 66.81 40.23L66.79 40.21L66.72 40.13Q66.27 40.25 65.70 40.22L65.68 40.20L65.57 40.09Q65.10 40.19 64.53 40.22ZM69.44 42.55L69.55 42.66L69.54 42.65Q72.23 32.54 73.79 28.51L73.96 28.68L73.87 28.59Q76.91 20.93 81.33 16.06L81.19 15.92L81.23 15.96Q80.18 16.33 78.09 17.05L78.25 17.21L79.38 15.86L79.25 15.74Q79.91 15.14 80.52 14.49L80.39 14.36L80.54 14.52Q77.68 15.46 74.68 16.03L74.73 16.09L74.60 15.96Q70.23 21.29 66.35 32.75L66.34 32.75L66.42 32.83Q62.69 22.62 59.49 18.24L59.59 18.35L59.45 18.20Q59.13 18.19 58.25 18.04L58.32 18.10L58.33 18.12Q58.03 17.66 56.43 15.60L56.55 15.72L56.52 15.69Q53.53 14.95 50.83 13.54L50.86 13.57L50.70 13.41Q57.39 20.56 61.77 33.36L61.75 33.34L61.83 33.41Q63.06 37.08 64.24 40.66L64.10 40.52L64.27 40.69Q64.48 40.59 65.31 40.48L65.49 40.65L65.45 40.61Q65.80 41.30 66.48 42.63L66.51 42.67L66.52 42.67Q67.25 42.49 67.98 42.57L68.06 42.65L68.04 42.63Q68.77 42.64 69.54 42.64Z"/></svg>