<svg xmlns="http://www.w3.org/2000/svg" width="150" height="50" viewBox="0,0,150,50"><path fill="#58de7a" d="M64.46 40.16L64.46 40.16L62.17 33.41L62.19 33.43Q57.72 20.74 51.78 14.35L51.73 14.30L51.70 14.26Q53.81 15.42 56.40 16.03L56.41 16.04L56.30 15.93Q61.45 22.22 65.79 34.98L65.92 35.10L65.78 34.96Q68.86 26.89 69.54 25.29L69.65 25.39L69.53 25.27Q72.05 19.81 74.87 16.49L74.91 16.53L74.73 16.35Q76.96 16.15 79.59 15.27L79.52 15.20L79.51 15.19Q74.85 19.71 71.80 26.94L71.80 26.94L71.97 27.11Q70.56 30.76 66.87 40.28L66.74 40.16L66.79 40.20Q66.18 40.17 65.61 40.13L65.56 40.08L65.55 40.07Q65.14 40.23 64.57 40.27ZM69.58 42.69L69.56 42.67L69.44 42.55Q72.21 32.52 73.77 28.49L73.79 28.51L73.94 28.66Q76.93 20.95 81.35 16.08L81.24 15.97L81.28 16.01Q80.22 16.36 78.12 17.08L78.26 17.22L79.39 15.88L79.23 15.71Q79.88 15.10 80.48 14.46L80.57 14.54L80.41 14.38Q77.59 15.37 74.58 15.94L74.73 16.08L74.67 16.03Q70.35 21.41 66.47 32.87L66.48 32.88L66.45 32.86Q62.80 22.74 59.60 18.36L59.47 18.23L59.47 18.22Q59.14 18.19 58.26 18.04L58.25 18.03L58.38 18.16Q58.00 17.63 56.40 15.58L56.50 15.68L56.46 15.63Q53.48 14.90 50.77 13.49L50.85 13.56L50.75 13.47Q57.43 20.60 61.81 33.39L61.81 33.39L61.75 33.33Q63.10 37.12 64.28 40.70L64.16 40.58L64.27 40.68Q64.51 40.63 65.35 40.51L65.50 40.66L65.46 40.62Q65.80 41.30 66.48 42.64L66.43 42.58L66.50 42.65Q67.32 42.56 68.04 42.64L67.92 42.51L67.91 42.50Q68.66 42.53 69.42 42.53Z"/><path fill="#90ee71" d="M100.09 23.24L100.06 23.20L100.09 23.24Q98.33 19.11 92.12 19.30L92.16 19.35L92.29 19.47Q87.83 19.54 85.85 20.99L85.80 20.94L85.77 20.91Q83.52 22.81 83.52 26.92L83.39 26.79L83.41 28.68L83.39 28.66Q83.46 37.56 92.49 37.56L92.41 37.48L92.50 37.57Q94.52 37.54 96.01 36.74L96.03 36.76L95.89 36.63Q97.74 35.62 97.59 33.76L97.62 33.79L97.64 33.81Q97.49 31.75 93.80 30.84L93.87 30.91L91.84 30.82L91.93 30.91Q90.95 30.89 90.00 30.92L89.89 30.82L89.92 30.85Q89.84 29.82 89.81 27.91L89.80 27.91L89.88 27.99Q97.59 28.05 101.78 27.71L101.80 27.73L101.80 27.73Q101.69 28.50 101.69 29.30L101.61 29.21L101.71 29.31Q101.79 30.19 101.83 30.99L101.78 30.94L101.84 31.00Q100.56 30.82 100.56 30.82L100.64 30.91L100.72 30.98Q99.23 30.87 99.61 30.87L99.65 30.90L99.52 30.77Q100.81 32.60 101.19 34.58L101.10 34.49L101.17 34.55Q101.25 35.24 101.25 35.70L101.24 35.69L101.22 35.68Q101.16 40.25 92.36 40.25L92.43 40.32L92.38 40.27Q85.36 40.37 82.77 38.28L82.62 38.12L82.79 38.30Q80.73 35.86 80.73 30.80L80.66 30.72L80.76 30.82Q80.78 29.78 80.63 27.07L80.53 26.98L80.64 27.09Q80.40 24.63 80.43 23.26L80.44 23.27L80.37 23.20Q80.63 20.49 82.00 18.89L81.90 18.79L82.02 18.91Q84.47 16.76 89.34 16.56L89.31 16.54L92.09 16.57L92.01 16.49Q95.14 16.42 98.57 16.84L98.61 16.89L98.44 16.72Q102.27 17.27 103.22 20.51L103.26 20.55L103.18 20.46Q102.27 21.50 100.18 23.33ZM101.44 25.39L101.75 25.59L101.59 25.42Q102.79 24.34 104.66 22.36L104.80 22.51L104.63 22.34Q104.36 21.42 103.37 19.71L103.39 19.73L103.50 19.84Q102.32 17.16 98.51 16.52L98.43 16.44L98.44 16.45Q96.35 16.37 92.05 16.07L91.97 15.99L89.25 16.09L89.39 16.23Q84.22 16.43 81.63 18.41L81.51 18.28L81.66 18.43Q80.14 19.93 80.03 23.01L80.03 23.01L80.00 22.98Q80.04 22.56 80.27 28.05L80.37 28.14L80.40 28.18Q80.35 29.46 80.43 32.20L80.34 32.12L80.37 32.15Q80.65 36.69 82.40 38.63L82.41 38.63L82.34 38.57Q82.84 39.52 83.71 40.40L83.65 40.34L83.58 40.26Q86.42 42.08 91.94 42.42L91.97 42.45L94.83 42.61L94.85 42.63Q96.57 42.86 98.59 42.75L98.50 42.66L98.47 42.64Q99.95 42.59 102.04 42.05L102.07 42.08L102.01 42.03Q103.94 41.51 103.90 39.19L103.98 39.27L103.92 39.21Q103.90 37.93 102.83 35.16L102.92 35.24L102.88 35.20Q102.58 34.30 102.05 33.50L102.13 33.57L102.11 33.56Q102.77 33.65 103.95 33.84L103.93 33.82L103.87 33.75Q103.50 30.07 103.54 29.39L103.63 29.48L103.53 29.38Q103.21 29.45 102.80 29.41L102.83 29.44L102.73 29.34Q102.39 29.35 102.01 29.42L102.09 29.50L102.05 29.46Q102.01 28.32 102.09 27.25L102.09 27.26L102.06 27.23Q95.84 27.78 89.56 27.67L89.49 27.60L89.53 27.64Q89.51 28.49 89.51 29.40L89.60 29.50L89.66 31.31L89.66 31.31Q89.95 31.22 90.37 31.18L90.45 31.27L90.44 31.25Q90.75 31.14 91.21 31.14L91.24 31.17L91.30 31.24Q91.20 31.59 91.24 32.09L91.27 32.12L91.39 32.24Q91.36 32.67 91.32 33.16L91.23 33.07L91.28 33.12Q92.35 33.13 93.38 33.09L93.32 33.02L93.32 33.02Q94.30 32.98 95.33 33.02L95.45 33.14L95.41 33.10Q96.43 33.32 97.31 33.70L97.29 33.69L97.35 33.78L97.23 33.66Q97.54 35.34 95.86 36.26L95.86 36.25L95.82 36.21Q94.22 37.20 92.51 37.20L92.41 37.11L92.36 37.06Q88.63 37.17 86.20 35.42L86.22 35.45L86.12 35.35Q85.27 33.43 85.42 30.88L85.46 30.91L85.32 30.78Q85.71 26.06 87.56 24.06L87.58 24.09L87.45 23.96Q89.32 21.99 94.01 21.68L94.05 21.73L94.07 21.75Q97.65 21.45 99.59 23.23L99.56 23.20L99.68 23.32Q99.70 23.38 99.81 23.57L99.81 23.57L100.01 23.65L99.92 23.56Q100.66 24.41 101.23 25.52L101.18 25.47L101.60 25.55Z"/><path fill="#d75a99" d="M34.37 33.36L34.41 33.40L34.39 33.38Q34.09 36.04 32.91 40.69L32.98 40.76L32.88 40.67Q31.24 41.34 29.64 42.14L29.60 42.11L29.58 42.09Q32.14 35.01 31.87 27.59L31.92 27.64L32.00 27.72Q31.55 20.15 28.47 13.41L28.54 13.48L28.62 13.56Q30.45 14.71 32.32 15.28L32.39 15.35L32.50 15.46Q34.48 22.27 34.48 28.93L34.48 28.94L34.54 29.00Q34.45 30.36 34.38 31.84L34.39 31.86L34.38 31.85Q35.67 30.78 40.89 25.83L40.85 25.79L40.90 25.84Q41.88 25.72 42.87 25.64L42.94 25.71L44.98 25.51L45.04 25.56Q41.78 28.47 37.48 32.24L37.64 32.41L37.55 32.31Q40.84 35.00 47.31 40.82L47.46 40.96L47.34 40.85Q44.64 39.98 41.67 39.79L41.68 39.79L41.67 39.79Q39.14 37.68 34.27 33.26ZM44.22 42.49L44.19 42.46L44.23 42.50Q48.88 43.26 52.00 45.20L52.04 45.24L52.07 45.27Q50.77 43.86 48.15 41.46L48.25 41.57L48.18 41.50Q48.39 41.55 48.66 41.67L48.71 41.72L48.79 41.81Q46.70 39.78 44.45 37.88L44.31 37.74L40.03 33.99L39.90 33.87Q44.92 29.71 47.36 26.82L47.46 26.92L47.40 26.86Q46.07 26.83 43.60 27.09L43.59 27.09L43.69 27.18Q45.24 25.69 45.92 24.85L45.95 24.88L46.06 24.98Q43.13 25.33 40.66 25.33L40.63 25.31L40.69 25.36Q39.25 26.63 36.51 29.29L36.64 29.43L36.47 29.25Q36.63 23.63 35.64 17.80L35.57 17.73L35.56 17.72Q34.91 17.60 33.42 17.34L33.44 17.36L33.43 17.35Q33.30 16.64 32.84 15.15L32.65 14.97L32.72 15.03Q30.15 14.29 27.90 12.73L27.98 12.80L27.84 12.67Q31.28 19.50 31.62 27.60L31.63 27.61L31.55 27.53Q32.05 35.61 29.05 42.84L29.08 42.87L29.07 42.86Q29.70 42.51 31.03 41.86L30.90 41.73L31.08 41.91Q30.79 42.68 30.14 44.13L30.17 44.15L30.20 44.19Q32.99 43.06 35.12 42.68L35.05 42.60L35.13 42.68Q35.72 40.19 36.21 35.92L36.07 35.78L36.11 35.82Q38.70 38.07 44.14 42.41Z"/><path fill="#e8c458" d="M7.99 29.67L8.07 29.74L8.04 29.71Q8.02 33.95 7.29 38.10L7.31 38.12L7.29 38.10Q9.44 37.43 12.52 37.31L12.66 37.45L12.56 37.35Q14.00 37.65 15.06 36.64L15.07 36.64L14.99 36.57Q16.07 35.57 16.07 34.24L16.03 34.20L16.05 34.22Q16.08 33.95 16.04 33.68L16.09 33.72L15.97 33.61Q15.91 30.77 13.67 29.93L13.66 29.92L13.70 29.96Q12.88 29.60 12.19 29.68L12.19 29.67L12.25 29.74Q11.13 29.61 10.10 29.64L10.14 29.68L9.97 29.51Q9.06 29.71 8.03 29.71ZM6.83 19.29L6.71 19.17L6.78 19.24Q7.59 22.49 7.86 26.86L7.87 26.88L7.93 26.94Q9.41 27.09 12.08 27.12L12.01 27.06L11.97 27.01Q14.96 27.12 15.31 23.58L15.23 23.50L15.38 23.65Q15.55 21.69 14.15 20.86L13.98 20.70L14.04 20.75Q13.22 20.31 8.80 19.66L8.66 19.52L8.73 19.59Q7.65 19.42 6.74 19.19ZM3.06 42.05L3.17 42.17L3.03 42.02Q5.54 35.40 5.27 28.01L5.41 28.14L5.24 27.98Q4.93 20.66 2.00 14.19L2.05 14.24L2.03 14.22Q5.94 16.87 12.16 17.12L12.07 17.03L12.15 17.11Q18.34 17.32 18.68 20.21L18.71 20.24L18.66 20.19Q19.04 23.01 17.63 25.68L17.59 25.63L17.55 25.59Q16.80 27.09 15.20 27.77L15.33 27.90L15.24 27.81Q18.90 28.51 19.13 33.87L19.20 33.95L19.16 33.90Q19.24 35.01 19.16 36.42L19.22 36.48L19.20 36.46Q19.14 37.77 18.21 38.70L18.11 38.60L18.08 38.57Q17.28 39.63 15.94 39.79L15.86 39.70L15.84 39.68Q14.44 39.84 13.37 39.84L13.37 39.83L13.46 39.93Q7.58 39.76 3.05 42.04ZM15.96 42.46L15.91 42.42L15.94 42.44Q16.77 42.40 18.64 42.52L18.79 42.67L18.62 42.50Q20.03 42.53 21.13 41.66L21.15 41.68L21.31 41.84Q21.98 40.80 21.87 39.24L21.83 39.20L21.93 39.30Q21.88 38.38 21.16 34.91L21.20 34.96L21.09 34.84Q20.44 31.65 18.58 30.16L18.60 30.19L18.08 29.24L18.20 29.37Q19.86 27.94 20.43 24.17L20.35 24.09L20.42 24.17Q20.56 23.01 20.49 21.60L20.40 21.52L20.46 21.58Q20.43 20.29 19.33 19.45L19.39 19.51L19.36 19.48Q18.91 19.15 18.80 19.11L18.91 19.23L18.92 19.24Q18.57 18.62 17.73 17.82L17.87 17.96L17.87 17.96Q16.31 16.85 12.08 16.66L12.07 16.65L12.09 16.67Q5.37 16.31 1.37 13.41L1.42 13.46L1.35 13.39Q4.70 20.47 5.01 28.01L5.10 28.10L4.91 27.91Q5.39 35.89 2.57 42.82L2.43 42.68L4.60 41.84L4.61 41.85Q4.16 42.92 3.66 44.06L3.79 44.19L3.66 44.06Q7.99 42.22 13.01 42.22L13.09 42.30L13.08 42.29Q14.45 42.25 15.90 42.41ZM13.80 31.89L13.73 31.82L13.81 31.91Q14.58 31.87 15.49 32.33L15.37 32.21L15.41 32.25Q15.53 32.59 15.68 33.66L15.70 33.68L15.72 33.70Q15.84 35.00 14.90 36.04L14.85 35.99L14.99 36.12Q13.89 37.01 12.49 36.90L12.54 36.95L11.09 37.11L11.09 37.10Q10.30 37.11 9.57 37.22L9.52 37.17L9.54 37.19Q9.86 35.38 9.94 31.92L9.99 31.96L10.08 32.06Q10.73 31.98 11.98 31.94L11.80 31.76L11.82 31.77Q13.07 31.73 13.67 31.77ZM12.79 22.32L12.65 22.18L13.08 22.23L13.04 22.18Q13.40 22.32 13.59 22.36L13.57 22.33L13.91 22.30L14.31 22.50L14.77 22.43L14.81 22.47Q14.99 22.80 14.99 23.11L14.97 23.09L14.93 23.59L14.92 23.57Q14.90 24.80 14.02 25.74L14.13 25.84L14.00 25.71Q13.13 26.65 11.91 26.65L11.88 26.62L11.97 26.72Q10.94 26.71 10.94 26.71L10.93 26.70L10.94 26.71Q9.70 26.76 10.04 26.76L9.97 26.70L9.96 26.68Q9.86 25.10 9.56 22.06L9.52 22.01L9.56 22.05Q11.13 22.18 12.65 22.18Z"/><path d="M4 29 C96 14,58 19,143 9" stroke="#41e6bd" fill="none"/><path fill="#59ecec" d="M19.15 19.09L19.17 19.11L19.25 19.18Q20.39 23.68 20.54 26.88L20.60 26.93L20.45 26.78Q21.06 26.93 25.44 27.05L25.45 27.06L25.45 27.06Q28.05 27.15 28.43 23.69L28.42 23.67L28.31 23.57Q28.62 21.93 27.71 21.02L27.63 20.94L27.70 21.02Q26.39 20.08 24.41 19.93L24.28 19.80L24.41 19.93Q21.05 19.58 19.19 19.13ZM20.60 28.76L20.69 28.85L20.58 28.74Q20.77 34.76 18.98 40.70L18.98 40.69L19.14 40.86Q17.71 40.99 15.12 42.01L15.12 42.01L15.19 42.08Q18.06 35.62 17.72 28.16L17.63 28.08L17.66 28.10Q17.40 20.80 14.09 14.29L13.97 14.18L14.06 14.26Q18.88 17.03 25.85 17.03L25.90 17.08L25.96 17.14Q31.60 17.15 31.87 20.69L31.75 20.57L31.76 20.58Q31.78 21.14 31.71 21.75L31.73 21.77L31.66 22.92L31.64 22.90Q30.86 26.87 28.73 28.59L28.81 28.67L28.69 28.55Q28.04 29.39 27.02 29.39L26.88 29.25L24.28 29.24L24.40 29.36Q30.02 36.62 34.55 41.18L34.39 41.03L34.43 41.07Q32.17 40.25 29.24 39.91L29.39 40.06L29.33 40.00Q25.55 36.03 20.64 28.80ZM29.25 40.42L29.22 40.39L29.61 40.48L30.78 41.64L30.80 41.66Q31.43 42.25 32.07 42.86L31.98 42.77L31.89 42.68Q35.58 43.43 39.16 45.30L39.09 45.23L39.11 45.25Q32.23 38.56 26.82 31.63L26.75 31.56L28.60 31.66L28.60 31.66Q31.51 31.49 32.84 26.96L32.85 26.96L33.03 27.14Q33.57 24.79 33.57 22.09L33.70 22.22L33.59 22.11Q33.73 19.96 32.01 19.31L31.91 19.21L31.91 19.21Q31.78 18.81 31.21 18.13L31.32 18.23L31.20 18.12Q29.59 16.74 25.94 16.66L25.95 16.68L25.80 16.52Q18.04 16.49 13.36 13.49L13.33 13.45L13.30 13.43Q16.99 20.20 17.33 27.89L17.47 28.02L17.45 28.01Q17.83 36.00 14.71 42.86L14.57 42.72L14.56 42.71Q15.87 42.19 16.67 41.89L16.65 41.87L15.69 44.18L15.69 44.18Q18.40 43.12 21.06 42.62L21.17 42.73L21.02 42.58Q22.44 37.60 22.63 32.39L22.59 32.35L22.51 32.27Q26.15 37.35 29.31 40.47ZM27.93 22.43L28.02 22.51L27.97 22.46Q28.05 22.77 28.05 23.11L28.03 23.10L27.90 23.54L27.90 23.53Q28.04 24.78 27.36 25.73L27.34 25.72L27.40 25.77Q26.64 26.39 25.73 26.58L25.77 26.62L25.78 26.64Q25.61 26.72 24.01 26.76L24.00 26.76L23.97 26.73Q23.43 26.79 22.59 26.68L22.46 26.55L22.57 26.65Q22.47 25.15 22.13 22.11L22.01 21.99L22.06 22.04Q23.53 22.28 24.21 22.28L24.21 22.28L24.13 22.20Q25.95 22.20 27.89 22.39Z"/><path fill="#68eded" d="M119.33 18.43L119.38 18.47L119.41 18.50Q118.61 18.81 118.46 19.61L118.40 19.55L118.41 24.70L118.50 24.79Q119.64 24.79 121.85 24.52L121.83 24.51L121.82 24.49Q121.73 24.86 121.69 25.69L121.69 25.69L121.83 25.84Q121.81 26.61 121.81 27.07L121.68 26.95L120.06 26.99L120.13 27.07Q119.38 27.19 118.50 27.19L118.45 27.14L118.47 27.16Q118.46 31.34 118.39 39.71L118.46 39.78L118.40 39.72Q116.26 39.87 114.77 40.55L114.74 40.52L114.71 40.49Q115.80 34.35 115.69 27.12L115.59 27.02L115.63 27.06Q115.04 27.08 113.75 26.81L113.77 26.84L113.73 26.79Q113.70 25.78 113.51 23.84L113.60 23.92L113.48 23.81Q114.67 24.39 115.62 24.58L115.50 24.45L115.58 24.53Q115.50 23.84 115.20 21.37L115.20 21.37L115.17 21.34Q115.04 19.39 115.04 18.44L115.01 18.41L115.04 18.44Q115.05 16.77 116.46 16.20L116.33 16.07L116.46 16.20Q117.23 15.79 122.07 14.95L122.12 15.01L122.05 14.94Q122.96 14.90 123.80 14.78L123.83 14.82L123.81 14.79Q123.43 15.41 123.28 16.28L123.28 16.29L123.12 17.99L123.02 17.89Q122.42 17.78 121.92 17.89L121.88 17.85L121.83 17.81Q121.24 17.82 119.34 18.43ZM124.71 19.50L124.87 19.66L124.83 19.62Q125.16 17.40 125.77 14.85L125.70 14.79L125.75 14.83Q125.20 15.23 123.90 15.84L123.88 15.81L124.15 14.00L124.14 13.98Q122.94 14.19 120.46 14.72L120.63 14.88L120.48 14.74Q119.43 14.95 116.23 15.86L116.24 15.87L116.19 15.82Q114.52 16.12 114.52 17.99L114.51 17.98L114.66 18.13Q114.63 18.40 114.70 18.75L114.68 18.72L114.69 18.73Q114.84 19.98 114.95 21.32L115.06 21.42L115.24 24.08L115.21 24.05Q113.87 23.70 113.22 23.24L113.09 23.11L113.26 23.28Q113.26 24.12 113.30 25.14L113.26 25.11L113.41 27.12L113.50 27.21Q114.28 27.46 115.08 27.54L115.00 27.45L115.06 29.61L115.31 29.48L115.43 29.60Q115.25 35.66 114.26 41.10L114.33 41.18L114.17 41.02Q115.25 40.62 116.43 40.35L116.41 40.33L116.22 42.38L116.17 42.33Q117.57 42.21 118.86 42.17L118.70 42.01L118.87 42.18Q120.08 42.12 121.33 42.39L121.36 42.42L121.16 42.22Q120.35 37.26 120.35 29.30L120.42 29.37L120.51 29.46Q121.51 29.36 123.60 29.43L123.59 29.43L123.62 27.58L123.65 27.62Q123.61 26.63 123.65 25.68L123.74 25.76L123.58 25.60Q123.07 25.66 122.00 25.93L122.12 26.05L122.11 26.04Q122.10 25.34 122.21 24.01L122.21 24.01L122.12 23.91Q121.44 24.30 120.64 24.38L120.53 24.27L120.59 24.33Q120.62 22.95 120.73 21.54L120.64 21.44L120.59 21.40Q120.92 20.92 121.45 20.58L121.47 20.61L121.45 20.58Q122.34 19.84 123.16 19.76L123.15 19.75L123.07 19.67Q123.98 19.68 124.81 19.61Z"/><path fill="#e58484" d="M114.81 34.63L114.82 34.64L114.84 34.66Q114.86 38.26 111.70 39.55L111.75 39.60L111.69 39.54Q109.91 40.46 105.49 40.61L105.46 40.59L105.47 40.60Q100.69 40.73 98.45 39.55L98.42 39.52L98.29 39.39Q96.59 38.22 96.74 34.87L96.60 34.73L96.73 34.87Q96.68 34.16 96.87 32.18L97.01 32.32L96.89 32.21Q97.11 30.71 97.11 29.72L96.98 29.59L96.95 29.56Q97.05 21.66 92.86 14.24L92.85 14.23L92.85 14.23Q93.97 14.85 96.94 15.92L97.02 16.00L96.95 15.94Q99.92 22.75 99.92 30.13L99.78 29.99L99.79 30.00Q99.81 30.64 99.72 31.82L99.81 31.91L99.69 31.78Q99.69 33.06 99.69 33.67L99.64 33.62L99.67 33.65Q99.68 35.94 101.24 36.93L101.14 36.83L101.27 36.96Q102.89 37.75 105.86 37.75L105.83 37.72L105.90 37.79Q108.48 37.74 110.12 36.56L110.04 36.48L110.04 36.48Q111.92 35.17 111.77 32.66L111.71 32.60L111.90 32.79Q111.76 31.35 111.76 30.02L111.67 29.93L111.66 29.92Q111.68 22.89 114.08 16.39L114.19 16.50L116.22 15.78L116.36 15.92Q117.32 15.63 118.43 15.18L118.33 15.08L118.29 15.04Q114.67 22.26 114.67 29.84L114.56 29.73L114.56 29.74Q114.64 30.65 114.77 32.29L114.66 32.18L114.70 32.22Q114.87 33.89 114.87 34.69ZM117.05 35.62L116.92 35.49L117.07 35.63Q116.08 30.57 116.81 25.47L116.93 25.59L116.93 25.59Q117.65 20.38 120.05 16.00L119.94 15.89L119.97 15.92Q119.45 16.31 118.00 16.96L117.90 16.86L117.87 16.83Q118.35 16.09 119.15 14.53L119.02 14.40L119.10 14.48Q115.75 15.81 113.85 16.15L113.82 16.13L113.75 16.06Q111.41 22.59 111.41 29.86L111.30 29.75L111.46 29.91Q111.37 31.19 111.44 32.59L111.55 32.71L111.44 32.59Q111.70 35.10 109.91 36.32L109.84 36.24L109.82 36.22Q108.36 37.31 105.85 37.35L105.86 37.36L105.80 37.30Q103.13 37.45 101.68 36.69L101.55 36.56L101.60 36.61Q101.60 36.19 101.52 35.73L101.52 35.73L101.38 35.59Q101.46 35.21 101.58 34.72L101.45 34.60L101.53 34.67Q101.78 32.37 101.78 30.05L101.68 29.95L101.73 30.00Q101.67 24.12 100.15 18.22L100.13 18.20L100.27 18.34Q99.49 18.17 98.08 17.83L98.08 17.82L98.08 17.82Q97.74 16.56 97.28 15.65L97.22 15.60L97.25 15.63Q94.58 14.89 92.18 13.52L92.22 13.56L92.10 13.45Q96.64 20.95 96.64 29.67L96.75 29.78L96.67 29.70Q96.82 31.49 96.67 33.20L96.55 33.08L96.55 33.08Q96.32 35.48 96.40 36.66L96.48 36.74L96.39 36.66Q96.51 38.56 97.76 39.70L97.91 39.84L97.75 39.69Q98.77 42.19 103.41 42.57L103.49 42.65L103.51 42.67Q105.58 42.80 107.71 42.87L107.64 42.80L107.68 42.84Q113.08 43.07 115.86 42.12L115.90 42.15L115.78 42.03Q117.37 41.15 117.37 39.10L117.45 39.17L117.43 39.16Q117.56 38.14 117.10 35.66Z"/><path fill="#d93f65" d="M79.36 40.04L79.41 40.09L77.30 40.26L77.32 40.28Q76.81 40.23 75.84 40.29L75.94 40.39L75.95 40.40Q74.96 40.43 74.46 40.43L74.41 40.38L74.39 40.36Q72.74 40.35 71.71 39.51L71.79 39.59L71.72 39.52Q72.64 38.54 74.28 36.40L74.22 36.35L74.30 36.42Q75.47 37.90 77.68 37.67L77.60 37.60L77.61 37.61Q78.61 37.58 79.26 36.93L79.24 36.91L79.24 36.92Q79.82 36.20 79.71 35.33L79.81 35.43L79.82 35.44Q79.62 30.74 79.69 26.17L79.79 26.27L79.79 26.27Q79.73 21.57 80.27 16.96L80.29 16.98L80.22 16.92Q82.24 16.81 84.37 15.78L84.46 15.87L84.43 15.83Q82.48 22.49 82.48 29.72L82.44 29.68L82.52 29.76Q82.42 33.20 82.88 36.71L83.07 36.90L82.91 36.73Q83.13 37.23 83.13 37.57L82.99 37.43L83.07 37.50Q83.03 38.04 82.80 38.57L82.92 38.69L82.76 38.53Q82.30 39.89 79.48 40.16ZM84.32 42.90L84.30 42.89L84.76 43.00L85.04 42.86L85.32 42.76L85.17 42.61Q85.56 42.43 85.63 42.32L85.55 42.23L85.73 42.41Q85.79 41.10 85.52 40.11L85.65 40.24L85.64 40.23Q84.15 34.29 84.42 27.93L84.58 28.09L84.56 28.07Q84.69 21.84 86.48 15.94L86.54 16.01L86.54 16.00Q85.60 16.59 84.34 17.31L84.45 17.41L84.45 17.42Q84.55 16.57 84.97 15.04L84.95 15.02L84.97 15.05Q82.38 16.30 79.72 16.60L79.84 16.73L79.74 16.63Q79.50 21.15 79.43 26.10L79.42 26.09L79.36 26.03Q79.39 32.04 79.47 35.46L79.46 35.46L79.37 35.37Q79.45 37.17 77.70 37.32L77.77 37.38L77.59 37.20Q75.95 37.39 74.28 35.76L74.27 35.75L74.34 35.82Q72.32 38.37 71.37 39.93L71.22 39.79L71.32 39.88Q71.90 40.46 72.93 40.69L73.03 40.79L73.06 40.82Q72.86 40.85 72.60 41.08L72.67 41.16L72.54 41.02Q74.12 42.11 76.10 42.38L76.13 42.41L76.02 42.30Q76.50 42.43 79.79 42.73L79.73 42.68L79.70 42.64Q82.99 42.94 84.36 42.94Z"/><path fill="#e85da3" d="M57.71 21.45L57.69 21.43L57.83 21.57Q56.13 20.18 54.50 19.80L54.51 19.81L54.40 19.70Q53.38 19.52 50.60 19.48L50.53 19.41L50.51 19.39Q45.34 19.36 43.29 21.38L43.29 21.38L43.43 21.52Q41.75 23.04 41.86 26.73L41.90 26.77L41.92 26.79Q41.97 30.49 42.12 31.45L42.01 31.33L42.20 31.52Q43.25 37.60 50.98 37.60L50.92 37.53L50.96 37.58Q55.67 37.61 57.77 35.21L57.68 35.13L57.77 35.22Q59.52 32.89 59.75 28.13L59.77 28.15L59.87 28.25Q60.14 23.47 57.82 21.56ZM50.93 40.55L50.89 40.52L50.93 40.55Q44.29 40.57 41.32 38.21L41.37 38.27L41.43 38.32Q39.35 36.17 39.24 31.11L39.17 31.05L39.23 31.10Q39.18 30.56 39.03 27.29L39.05 27.30L38.91 27.17Q38.83 24.61 38.87 23.54L38.89 23.57L38.85 23.53Q39.08 20.75 40.49 19.03L40.49 19.04L40.51 19.06Q42.97 16.69 47.85 16.54L47.92 16.61L47.92 16.61Q49.68 16.54 50.55 16.58L50.47 16.49L50.50 16.53Q60.40 16.56 62.15 20.90L62.23 20.98L62.31 21.06Q62.98 22.95 62.83 25.70L62.97 25.84L62.85 25.71Q62.86 27.43 62.67 30.71L62.73 30.77L62.68 30.72Q62.42 33.47 61.51 35.52L61.60 35.62L61.65 35.67Q59.44 40.23 50.80 40.42ZM63.20 40.45L63.15 40.40L63.27 40.53Q64.62 38.71 64.73 35.63L64.76 35.66L64.73 35.62Q64.76 34.55 64.72 32.95L64.79 33.02L64.80 33.03Q64.66 32.16 64.62 30.34L64.71 30.43L64.63 30.35Q64.60 23.24 62.66 20.76L62.74 20.84L62.65 20.75Q62.21 19.71 61.11 18.61L61.14 18.64L61.15 18.65Q57.97 16.26 50.51 16.11L50.47 16.08L50.55 16.15Q42.96 15.84 39.92 18.43L40.02 18.53L40.00 18.51Q38.52 20.35 38.52 23.28L38.47 23.22L38.50 23.26Q38.52 24.57 38.68 25.91L38.61 25.83L38.74 25.97Q38.65 26.95 38.69 28.39L38.65 28.35L38.67 28.37Q38.80 32.31 38.95 33.49L39.03 33.56L39.01 33.54Q39.37 36.46 40.70 38.25L40.69 38.23L40.74 38.29Q41.17 39.56 42.24 40.32L42.35 40.43L42.27 40.35Q45.43 42.59 53.19 42.78L53.33 42.92L53.32 42.91Q60.50 42.97 63.16 40.42ZM59.50 28.15L59.63 28.28L59.51 28.16Q59.27 32.68 57.36 34.77L57.41 34.82L57.35 34.76Q55.36 37.11 50.91 37.14L50.94 37.18L50.98 37.22Q46.65 37.26 44.51 35.36L44.49 35.34L44.49 35.34Q43.68 33.61 43.76 30.72L43.79 30.76L43.85 30.81Q43.96 26.20 45.98 24.03L45.87 23.93L45.85 23.90Q47.97 21.83 52.58 21.83L52.51 21.77L52.53 21.79Q56.63 21.71 58.73 23.57L58.85 23.69L58.69 23.54Q59.57 25.33 59.46 28.11Z"/><path fill="#ba90e4" d="M134.86 39.91L134.86 39.92L132.89 39.88L132.93 39.93Q131.92 39.86 130.97 39.98L130.85 39.87L131.02 40.03Q131.45 33.68 131.45 29.69L131.54 29.78L131.49 29.73Q127.65 23.19 120.00 14.51L119.87 14.38L119.89 14.39Q121.60 15.31 124.95 16.11L125.00 16.16L124.96 16.12Q130.05 21.74 133.06 26.96L133.04 26.94L133.07 26.97Q136.18 21.51 140.56 16.49L140.55 16.48L140.43 16.36Q142.83 15.94 145.34 15.14L145.46 15.26L145.37 15.18Q139.44 21.39 134.57 29.80L134.44 29.67L134.45 29.69Q134.57 36.85 134.87 39.93ZM143.94 17.32L146.58 14.40L146.69 14.51Q143.43 15.52 140.31 15.98L140.47 16.13L140.42 16.08Q136.16 20.77 133.34 25.87L133.32 25.85L133.36 25.89Q131.31 22.31 128.11 18.43L127.95 18.27L128.02 18.34Q127.72 18.31 127.23 18.23L127.33 18.33L127.16 18.16Q126.63 17.52 125.10 15.84L125.06 15.80L125.13 15.87Q121.75 15.12 118.78 13.56L118.74 13.52L118.77 13.55Q126.33 21.86 131.09 29.78L131.22 29.91L131.11 29.81Q131.05 36.18 130.44 40.33L130.51 40.40L130.43 40.32Q131.26 40.39 132.71 40.28L132.59 40.16L132.56 41.16L132.75 41.35Q132.64 41.69 132.56 42.23L132.60 42.26L132.53 42.19Q136.12 42.24 137.88 42.43L137.81 42.37L137.82 42.38Q136.62 37.75 136.50 31.77L136.57 31.84L136.47 31.74Q140.90 23.34 147.45 16.00L147.45 15.99L143.95 17.33Z"/></svg>