<svg xmlns="http://www.w3.org/2000/svg" width="150" height="50" viewBox="0,0,150,50"><path fill="#eecf71" d="M70.06 40.89L70.08 40.91L70.13 40.96Q68.70 39.15 67.41 36.06L67.58 36.23L65.35 31.00L65.49 31.13Q63.74 34.98 63.13 36.27L63.13 36.27L63.20 36.35Q61.82 39.35 60.23 41.25L60.20 41.22L60.10 41.12Q59.80 41.21 59.04 41.32L58.94 41.22L58.96 41.24Q58.99 33.85 53.17 27.91L53.16 27.91L53.10 27.85Q51.52 26.19 49.50 24.70L49.38 24.58L49.34 24.54Q51.20 25.10 53.06 25.41L53.06 25.41L53.12 25.46Q59.15 30.39 60.60 36.64L60.60 36.64L60.67 36.70Q61.65 34.94 62.83 31.75L62.79 31.71L62.83 31.75Q64.02 27.84 64.59 26.55L64.74 26.69L66.01 26.56L65.97 26.51Q66.85 28.23 68.03 31.50L68.05 31.53L68.19 31.67Q69.37 35.17 70.02 36.58L70.10 36.66L69.99 36.54Q71.96 30.41 77.44 25.84L77.32 25.72L77.33 25.73Q78.65 25.76 81.39 25.19L81.27 25.06L81.41 25.20Q72.62 31.07 71.44 41.04L71.41 41.01L70.75 40.89L70.80 40.93Q70.37 40.82 70.03 40.85ZM73.18 43.47L75.29 43.72L75.13 43.56Q74.76 41.97 74.76 40.45L74.93 40.61L74.83 40.52Q74.78 37.22 76.19 33.99L76.21 34.01L76.27 34.07Q78.29 29.59 82.40 26.50L82.39 26.49L82.26 26.36Q81.16 26.74 79.29 27.09L79.30 27.09L79.32 27.11Q81.28 25.45 82.57 24.54L82.46 24.42L80.08 25.01L80.07 25.01Q78.87 25.25 77.54 25.41L77.43 25.29L77.52 25.39Q72.22 29.49 70.28 34.51L70.44 34.67L70.43 34.67Q69.79 32.51 68.42 28.24L68.36 28.18L68.28 28.10Q68.12 28.28 67.85 28.28L67.73 28.16L67.33 28.30L67.32 28.28Q67.07 27.84 66.27 26.09L66.36 26.18L64.35 26.23L64.34 26.22Q63.22 28.87 61.13 34.50L61.13 34.51L61.14 34.51Q59.96 30.97 56.87 27.70L56.77 27.59L56.86 27.68Q56.56 27.65 56.26 27.62L56.29 27.65L55.74 27.55L55.66 27.48Q54.74 26.59 52.95 24.99L53.07 25.11L53.00 25.04Q49.85 24.40 48.17 23.90L48.25 23.99L48.30 24.03Q58.89 31.35 58.51 41.67L58.49 41.65L58.61 41.77Q58.78 41.74 59.14 41.71L59.20 41.77L59.13 41.70Q59.41 41.58 59.60 41.58L59.63 41.61L59.66 41.64Q59.64 41.47 59.83 43.56L59.80 43.53L61.72 43.36L61.78 43.42Q64.35 40.58 66.60 34.83L66.68 34.91L66.61 34.85Q68.21 38.80 70.07 41.47L69.97 41.37L69.91 41.31Q70.35 41.40 70.62 41.42L70.46 41.26L70.61 41.41Q70.73 41.28 70.99 41.28L71.10 41.39L73.19 43.48Z"/><path d="M10 35 C83 2,76 14,138 48" stroke="#e759c4" fill="none"/><path fill="#5ebede" d="M124.65 14.33L124.65 14.33L124.73 14.41Q127.27 16.11 129.02 16.53L128.99 16.49L128.95 16.45Q130.25 22.93 130.25 29.52L130.31 29.58L130.32 29.59Q130.21 33.48 129.68 37.47L129.69 37.49L129.72 37.51Q131.94 37.03 134.41 37.11L134.35 37.05L134.42 37.11Q136.94 37.24 139.07 37.96L139.01 37.90L138.96 37.85Q139.37 39.47 139.82 41.03L139.77 40.97L139.73 40.94Q136.39 39.62 132.55 39.89L132.47 39.81L132.51 39.85Q128.67 40.12 125.44 42.03L125.54 42.13L125.39 41.97Q127.71 35.24 127.45 28.24L127.46 28.25L127.33 28.12Q127.16 21.14 124.73 14.40ZM124.89 42.74L125.02 42.86L124.95 42.80Q125.66 42.44 127.03 41.71L127.06 41.75L126.98 41.67Q126.89 42.49 126.36 43.98L126.28 43.90L126.35 43.96Q129.84 42.24 133.69 42.24L133.67 42.23L133.76 42.32Q139.36 42.28 143.47 45.32L143.43 45.28L143.44 45.30Q142.75 43.77 141.72 40.80L141.70 40.78L141.64 40.72Q140.57 40.07 139.69 39.68L139.79 39.78L139.86 39.85Q139.59 39.00 139.28 37.60L139.28 37.60L139.38 37.70Q136.64 36.67 133.63 36.67L133.61 36.64L133.65 36.69Q132.91 36.70 132.11 36.74L132.06 36.70L132.06 36.70Q132.32 31.77 132.24 27.66L132.23 27.66L132.36 27.78Q132.32 23.70 131.97 18.72L131.85 18.60L131.89 18.64Q130.43 18.47 129.64 18.28L129.69 18.33L129.67 18.31Q129.50 17.54 129.28 16.13L129.29 16.15L129.33 16.19Q126.23 15.37 123.98 13.43L124.10 13.55L123.94 13.38Q126.71 20.49 126.97 27.99L127.12 28.14L127.05 28.07Q127.30 35.59 124.90 42.74Z"/><path fill="#e77894" d="M18.46 37.91L18.41 37.86L18.50 37.94Q18.83 38.97 19.37 40.98L19.26 40.87L19.21 40.82Q15.08 39.59 10.47 39.85L10.43 39.81L10.40 39.78Q5.91 40.13 1.91 42.10L1.86 42.06L1.93 42.12Q2.03 41.31 2.07 41.39L2.19 41.51L2.21 41.53Q5.82 37.44 9.74 33.03L9.76 33.05L9.75 33.04Q14.19 28.08 15.38 23.40L15.43 23.45L15.33 23.35Q15.93 21.74 14.65 20.56L14.59 20.50L14.66 20.57Q13.36 19.37 11.57 19.52L11.62 19.57L11.56 19.51Q11.23 19.48 10.88 19.48L10.90 19.50L10.86 19.45Q9.35 19.47 8.09 20.38L8.16 20.45L8.12 20.41Q6.79 21.74 7.02 24.41L7.00 24.39L7.02 24.40Q5.22 24.06 4.01 23.60L3.90 23.50L4.03 23.63Q3.86 22.24 3.78 20.79L3.69 20.69L3.81 20.82Q3.69 19.14 4.30 18.00L4.31 18.00L4.19 17.89Q6.09 16.63 9.44 16.63L9.39 16.57L11.23 16.66L11.20 16.64Q13.36 16.55 14.31 16.66L14.37 16.72L14.36 16.71Q18.63 17.06 18.90 19.50L19.08 19.68L19.01 19.61Q19.01 20.11 18.93 20.90L18.97 20.94L18.96 20.93Q18.96 21.62 18.81 22.31L18.88 22.37L18.74 22.23Q17.12 30.36 9.54 37.21L9.66 37.33L9.52 37.19Q10.90 37.01 12.27 37.01L12.45 37.19L12.35 37.09Q15.63 37.13 18.49 37.93ZM17.94 17.13L17.99 17.18L17.94 17.13Q16.24 16.38 14.52 16.30L14.58 16.36L11.25 16.26L11.17 16.19Q6.79 15.99 4.58 17.10L4.50 17.02L4.58 17.09Q3.33 18.28 3.33 20.34L3.40 20.41L3.36 20.37Q3.49 21.18 3.79 24.00L3.71 23.91L3.84 24.04Q4.35 24.26 5.53 24.56L5.55 24.57L5.49 25.54L5.43 25.48Q5.50 26.04 5.57 26.58L5.51 26.52L5.51 26.52Q6.81 26.68 9.29 26.91L9.27 26.88L9.33 26.95Q9.28 26.55 9.28 26.21L9.27 26.20L9.15 26.08Q9.30 24.40 10.51 23.05L10.50 23.04L10.43 22.97Q11.68 21.65 13.47 21.76L13.40 21.69L13.48 21.77Q14.24 21.81 15.00 21.96L15.03 21.99L14.92 21.88Q15.17 22.39 15.24 22.81L15.20 22.77L15.20 22.77Q15.10 23.05 15.03 23.39L15.08 23.44L15.18 23.55Q13.86 28.24 9.45 33.08L9.39 33.03L9.44 33.07Q7.40 35.41 1.95 41.46L1.90 41.41L1.93 41.44Q1.66 42.20 1.32 42.77L1.32 42.77L1.27 42.72Q2.90 41.87 4.42 41.34L4.55 41.47L4.53 41.45Q3.67 41.88 2.72 43.37L2.71 43.36L2.77 43.42Q2.62 43.73 2.51 44.07L2.61 44.17L2.51 44.07Q7.41 42.05 12.89 42.24L12.98 42.33L12.91 42.26Q18.65 42.47 23.22 44.83L23.22 44.84L22.19 42.66L22.20 42.67Q21.49 41.28 21.23 40.48L21.16 40.42L21.32 40.57Q20.51 40.07 19.29 39.65L19.21 39.57L19.24 39.60Q19.21 39.00 18.83 37.63L18.68 37.48L18.77 37.57Q16.49 36.93 14.21 36.74L14.21 36.74L14.35 36.88Q18.97 32.25 20.49 23.99L20.48 23.98L20.62 21.03L20.59 21.00Q20.64 19.34 19.42 18.65L19.38 18.61L19.39 18.65L19.26 18.53Q19.36 18.59 19.28 18.59L19.29 18.60L19.23 18.54Q18.90 17.59 17.79 16.98Z"/><path fill="#50e150" d="M86.68 23.28L86.64 23.24L86.60 23.21Q85.07 19.31 78.86 19.50L78.86 19.50L78.86 19.49Q74.39 19.56 72.41 21.01L72.41 21.01L72.36 20.96Q70.05 22.79 70.05 26.90L70.02 26.88L70.04 28.76L69.89 28.61Q70.00 37.56 79.03 37.56L78.93 37.46L79.08 37.61Q81.00 37.48 82.49 36.68L82.60 36.79L82.50 36.69Q84.28 35.62 84.13 33.75L84.27 33.89L84.17 33.79Q83.98 31.70 80.29 30.79L80.38 30.88L78.30 30.74L78.39 30.83Q77.44 30.83 76.49 30.87L76.51 30.89L76.41 30.79Q76.48 29.90 76.44 28.00L76.36 27.92L76.44 28.00Q84.16 28.07 88.35 27.73L88.30 27.68L88.20 27.58Q88.24 28.50 88.24 29.30L88.26 29.32L88.24 29.29Q88.23 30.09 88.27 30.89L88.27 30.89L88.30 30.91Q87.16 30.88 87.16 30.88L87.13 30.85L87.20 30.92Q85.79 30.88 86.17 30.88L86.17 30.88L86.20 30.91Q87.19 32.44 87.57 34.42L87.59 34.44L87.67 34.51Q87.77 35.22 87.77 35.67L87.77 35.68L87.72 35.63Q87.75 40.31 78.96 40.31L79.05 40.40L78.91 40.25Q71.76 40.23 69.17 38.13L69.17 38.13L69.16 38.12Q67.27 35.85 67.27 30.78L67.29 30.81L67.21 30.73Q67.35 29.80 67.20 27.10L67.21 27.11L67.04 26.94Q66.94 24.63 66.98 23.26L67.03 23.31L66.96 23.24Q67.08 20.39 68.45 18.79L68.51 18.85L68.42 18.76Q71.08 16.81 75.95 16.62L75.98 16.66L78.64 16.57L78.54 16.48Q81.58 16.32 85.01 16.74L85.07 16.80L85.14 16.87Q88.83 17.28 89.78 20.52L89.82 20.56L89.73 20.47Q88.80 21.49 86.71 23.31ZM88.06 25.46L88.29 25.58L88.21 25.50Q89.48 24.49 91.35 22.51L91.24 22.40L91.32 22.48Q90.85 21.36 89.86 19.65L90.05 19.84L89.95 19.73Q88.83 17.13 85.02 16.48L84.88 16.34L85.03 16.49Q82.86 16.34 78.56 16.04L78.62 16.10L75.94 16.23L75.82 16.12Q70.77 16.43 68.18 18.41L68.05 18.28L68.16 18.39Q66.83 20.07 66.72 23.15L66.67 23.11L66.60 23.03Q66.66 22.64 66.89 28.12L66.84 28.07L66.94 28.17Q66.86 29.42 66.93 32.16L66.88 32.11L66.93 32.16Q67.14 36.64 68.89 38.58L68.99 38.67L68.93 38.61Q69.24 39.38 70.11 40.26L70.08 40.22L70.23 40.37Q73.08 42.20 78.60 42.54L78.56 42.50L81.51 42.75L81.44 42.67Q83.00 42.75 85.02 42.64L85.03 42.65L85.15 42.76Q86.46 42.55 88.55 42.02L88.64 42.11L88.56 42.02Q90.47 41.50 90.44 39.18L90.59 39.34L90.57 39.32Q90.47 37.96 89.41 35.18L89.53 35.30L89.46 35.24Q89.26 34.43 88.73 33.63L88.66 33.56L88.63 33.53Q89.24 33.57 90.42 33.76L90.41 33.75L90.51 33.85Q90.11 30.14 90.15 29.46L90.09 29.39L90.15 29.45Q89.87 29.55 89.45 29.51L89.36 29.43L89.41 29.48Q88.97 29.38 88.59 29.46L88.54 29.40L88.58 29.44Q88.52 28.29 88.60 27.22L88.75 27.37L88.75 27.37Q82.42 27.81 76.14 27.70L76.08 27.64L76.15 27.71Q76.15 28.59 76.15 29.50L76.10 29.45L76.10 31.20L76.19 31.30Q76.64 31.36 77.06 31.33L77.03 31.29L76.95 31.21Q77.35 31.19 77.80 31.19L77.78 31.17L77.83 31.22Q77.91 31.76 77.95 32.25L77.91 32.22L77.83 32.13Q77.76 32.52 77.72 33.01L77.77 33.07L77.85 33.14Q78.84 33.07 79.87 33.03L79.83 32.99L79.99 33.15Q80.96 33.09 81.99 33.13L81.94 33.08L81.97 33.12Q82.94 33.29 83.82 33.67L83.95 33.80L83.87 33.76L83.78 33.67Q84.06 35.32 82.39 36.23L82.39 36.24L82.44 36.28Q80.71 37.14 79.00 37.14L78.95 37.10L79.01 37.16Q75.06 37.06 72.63 35.30L72.63 35.31L72.62 35.30Q71.72 33.33 71.87 30.78L71.93 30.84L71.93 30.84Q72.20 26.01 74.05 24.01L74.02 23.99L73.97 23.93Q75.96 22.08 80.64 21.77L80.60 21.74L80.59 21.72Q84.25 21.50 86.19 23.29L86.27 23.37L86.17 23.27Q86.20 23.34 86.32 23.53L86.30 23.51L86.55 23.64L86.49 23.58Q87.13 24.34 87.70 25.44L87.63 25.37L88.04 25.45Z"/><path fill="#5de3c2" d="M94.36 39.78L94.42 39.84L92.57 39.92L92.49 39.85Q91.57 39.88 90.62 39.99L90.53 39.90L90.62 39.99Q91.12 33.72 91.12 29.72L91.11 29.71L91.19 29.79Q87.15 23.05 79.50 14.37L79.63 14.51L79.64 14.51Q81.37 15.44 84.72 16.24L84.71 16.23L84.63 16.15Q89.68 21.73 92.68 26.95L92.75 27.01L92.68 26.94Q95.72 21.42 100.10 16.40L100.23 16.52L100.14 16.44Q102.53 16.01 105.05 15.21L104.97 15.14L105.12 15.29Q99.00 21.31 94.13 29.73L94.22 29.81L94.12 29.71Q94.07 36.71 94.38 39.79ZM103.47 17.21L106.32 14.50L106.31 14.50Q103.05 15.50 99.93 15.96L99.94 15.97L100.01 16.03Q95.77 20.74 92.95 25.84L92.98 25.88L92.91 25.81Q90.93 22.30 87.73 18.42L87.57 18.26L87.65 18.33Q87.42 18.37 86.92 18.29L86.92 18.29L86.85 18.22Q86.30 17.56 84.78 15.88L84.66 15.77L84.61 15.71Q81.33 15.07 78.37 13.50L78.23 13.37L78.34 13.47Q85.98 21.88 90.74 29.80L90.79 29.85L90.90 29.96Q90.61 36.11 90.00 40.26L90.04 40.30L90.08 40.34Q90.84 40.33 92.29 40.22L92.38 40.31L92.20 41.16L92.35 41.31Q92.38 41.79 92.30 42.33L92.29 42.31L92.17 42.20Q95.70 42.18 97.45 42.37L97.42 42.34L97.49 42.41Q96.23 37.72 96.11 31.75L96.14 31.77L96.19 31.83Q100.55 23.35 107.10 16.01L107.09 16.00L103.55 17.30Z"/><path fill="#45e245" d="M37.58 41.13L37.57 41.13L35.86 41.13L35.94 41.21Q32.40 41.06 31.45 38.93L31.43 38.91L31.46 38.94Q32.81 38.08 34.25 36.97L34.24 36.96L34.17 36.89Q34.74 39.05 37.59 38.90L37.52 38.83L37.67 38.98Q38.46 38.94 39.49 38.71L39.44 38.66L39.32 38.54Q40.31 38.08 40.23 37.12L40.32 37.22L40.26 37.16Q40.26 36.12 38.47 35.44L38.36 35.33L34.66 33.91L34.54 33.79Q32.34 32.58 31.99 29.04L31.97 29.02L31.88 28.92Q31.72 26.83 33.89 26.26L33.89 26.25L33.96 26.32Q34.83 26.01 37.80 26.01L37.90 26.12L37.77 25.98Q42.59 25.93 43.50 28.44L43.60 28.54L43.69 28.63Q42.89 29.01 42.17 29.47L42.33 29.63L40.92 30.58L40.75 30.42Q40.29 28.55 37.06 28.32L37.06 28.32L37.18 28.44Q36.54 28.41 35.51 28.83L35.44 28.75L35.46 28.77Q34.98 29.21 34.98 30.31L34.97 30.30L34.94 30.27Q35.18 31.24 37.01 31.92L37.07 31.98L37.02 31.93Q38.09 32.32 40.75 33.42L40.75 33.42L40.86 33.53Q42.63 34.31 42.82 36.86L42.74 36.78L42.78 36.82Q42.90 37.51 42.83 38.50L42.94 38.61L42.78 38.46Q42.78 39.37 42.21 40.02L42.20 40.00L42.18 39.99Q40.65 41.16 37.60 41.16ZM42.38 43.77L42.26 43.65L42.39 43.78Q43.30 43.81 44.67 43.51L44.66 43.49L44.60 43.44Q45.68 42.76 45.49 41.54L45.45 41.50L45.57 41.63Q45.34 40.90 45.03 39.30L45.22 39.49L45.13 39.40Q44.51 36.38 42.72 35.16L42.81 35.25L42.90 35.34Q42.23 33.79 40.97 33.07L40.92 33.02L41.10 33.20Q39.70 32.63 37.22 31.68L37.20 31.66L37.33 31.79Q37.40 31.25 37.67 31.14L37.60 31.07L37.77 31.24Q38.31 30.71 38.96 30.68L38.97 30.68L38.91 30.62Q39.79 30.67 40.55 30.94L40.56 30.95L40.51 30.97L40.65 30.99L40.89 31.04L40.86 31.06L40.94 31.14Q41.95 31.53 42.14 32.79L42.19 32.84L42.11 32.76Q43.40 31.96 45.30 30.28L45.30 30.28L45.30 30.28Q45.02 29.55 44.03 28.37L43.99 28.32L44.11 28.45Q42.94 25.71 37.84 25.59L37.85 25.61L37.78 25.54Q34.70 25.58 32.72 26.15L32.60 26.03L32.70 26.13Q31.32 26.73 31.55 28.82L31.47 28.74L31.50 28.78Q31.60 30.01 32.51 32.11L32.59 32.19L32.50 32.10Q33.00 33.17 34.03 33.89L34.13 34.00L33.98 33.85Q34.84 35.50 36.13 36.19L36.03 36.09L36.03 36.08Q37.09 36.46 38.05 36.84L37.96 36.76L39.93 37.58L39.86 37.52Q39.47 38.58 37.53 38.46L37.58 38.51L37.66 38.59Q37.10 38.52 35.88 38.22L35.97 38.31L35.96 38.15L35.88 38.29L35.82 38.23Q34.91 37.82 34.27 36.34L34.36 36.43L34.31 36.38Q32.14 37.90 31.03 39.05L31.12 39.13L30.97 38.98Q31.31 39.93 32.34 40.73L32.24 40.64L32.21 40.91L32.11 40.81Q33.55 42.94 37.78 43.32L37.78 43.32L37.88 43.42Q39.07 43.47 42.31 43.69Z"/><path fill="#42e0b8" d="M58.84 37.92L58.79 37.87L58.77 37.85Q59.18 38.95 59.71 40.97L59.70 40.96L59.66 40.91Q55.51 39.65 50.90 39.92L50.88 39.90L50.76 39.78Q46.28 40.13 42.28 42.11L42.21 42.04L42.34 42.17Q42.53 41.44 42.57 41.52L42.45 41.40L42.56 41.52Q46.24 37.50 50.16 33.08L50.18 33.10L50.19 33.12Q54.67 28.19 55.85 23.51L55.72 23.38L55.75 23.41Q56.33 21.79 55.06 20.61L54.97 20.52L54.88 20.43Q53.75 19.39 51.96 19.54L51.84 19.42L51.93 19.51Q51.54 19.43 51.20 19.43L51.25 19.48L51.17 19.40Q49.62 19.38 48.37 20.29L48.38 20.30L48.46 20.39Q47.07 21.66 47.30 24.33L47.36 24.38L47.38 24.41Q45.60 24.07 44.38 23.62L44.35 23.58L44.39 23.62Q44.11 22.13 44.04 20.68L44.02 20.66L44.04 20.68Q43.94 19.02 44.55 17.88L44.58 17.92L44.58 17.91Q46.50 16.67 49.85 16.67L49.79 16.61L51.44 16.51L51.53 16.61Q53.73 16.55 54.68 16.67L54.77 16.75L54.80 16.78Q59.16 17.22 59.42 19.66L59.36 19.59L59.44 19.68Q59.36 20.10 59.29 20.90L59.42 21.03L59.42 21.03Q59.29 21.58 59.14 22.27L59.11 22.24L59.17 22.30Q57.63 30.50 50.05 37.36L49.91 37.21L49.96 37.27Q51.36 37.11 52.74 37.11L52.66 37.04L52.67 37.04Q56.02 37.16 58.88 37.96ZM58.25 17.08L58.16 16.98L58.17 16.99Q56.62 16.40 54.91 16.32L54.87 16.29L51.54 16.19L51.58 16.23Q47.00 15.85 44.80 16.95L44.95 17.11L44.81 16.96Q43.81 18.40 43.81 20.45L43.69 20.34L43.85 20.50Q43.90 21.23 44.21 24.05L44.10 23.94L44.21 24.05Q44.70 24.24 45.88 24.54L45.88 24.54L45.76 25.45L45.82 25.51Q45.83 26.02 45.91 26.55L45.84 26.48L45.87 26.51Q47.05 26.55 49.52 26.78L49.64 26.90L49.57 26.83Q49.67 26.58 49.67 26.24L49.52 26.08L49.67 26.24Q49.59 24.33 50.81 22.98L50.72 22.89L50.71 22.89Q52.05 21.66 53.84 21.77L53.85 21.77L53.88 21.81Q54.61 21.81 55.37 21.97L55.28 21.87L55.42 22.01Q55.38 22.25 55.46 22.66L55.46 22.67L55.54 22.75Q55.46 23.04 55.38 23.38L55.54 23.54L55.57 23.58Q54.31 28.32 49.89 33.16L49.82 33.09L49.72 32.99Q47.70 35.35 42.26 41.40L42.18 41.33L42.18 41.33Q42.10 42.27 41.76 42.84L41.63 42.72L41.64 42.72Q43.37 41.98 44.89 41.44L44.78 41.34L44.90 41.45Q44.13 41.98 43.18 43.46L43.09 43.38L43.22 43.50Q43.09 43.84 42.98 44.18L42.84 44.04L42.88 44.08Q47.77 42.04 53.26 42.23L53.26 42.24L53.33 42.31Q59.00 42.46 63.57 44.82L63.44 44.69L62.49 42.60L62.50 42.60Q61.96 41.38 61.69 40.58L61.70 40.59L61.61 40.50Q60.78 39.98 59.56 39.56L59.58 39.58L59.57 39.56Q59.47 38.90 59.09 37.53L59.15 37.58L59.19 37.62Q56.86 36.93 54.57 36.74L54.72 36.89L54.64 36.81Q59.33 32.24 60.85 23.98L60.81 23.94L60.99 21.03L60.94 20.98Q60.92 19.25 59.70 18.57L59.71 18.58L59.67 18.57L59.77 18.67Q59.64 18.51 59.56 18.51L59.55 18.50L59.61 18.55Q59.28 17.61 58.17 17.00Z"/><path fill="#e1378c" d="M22.87 39.87L22.83 39.82L22.87 39.86Q18.83 39.44 17.00 37.99L16.91 37.90L17.01 37.99Q15.10 36.47 14.69 33.47L14.60 33.38L14.73 33.52Q14.58 33.02 14.23 28.26L14.20 28.22L14.32 28.35Q14.34 27.14 14.26 25.89L14.27 25.90L14.29 25.91Q14.06 20.82 16.27 19.07L16.30 19.09L16.35 19.14Q18.91 16.94 26.68 16.26L26.84 16.42L26.73 16.31Q28.11 16.21 29.74 16.24L29.70 16.20L29.63 16.13Q29.65 16.14 32.62 16.14L32.71 16.24L32.70 16.23Q33.48 16.17 35.20 16.33L35.23 16.36L35.16 16.29Q34.81 17.38 33.78 20.47L33.67 20.36L33.64 20.33Q31.52 19.09 28.51 19.09L28.54 19.11L28.58 19.15Q27.91 19.24 27.11 19.31L27.03 19.23L27.11 19.32Q22.04 19.80 19.52 21.78L19.45 21.71L19.52 21.78Q17.47 23.35 17.32 26.70L17.32 26.69L17.27 26.65Q17.31 27.34 17.35 28.59L17.17 28.41L17.16 28.40Q17.28 33.24 19.67 35.33L19.70 35.36L19.72 35.38Q21.99 37.43 26.98 37.73L26.90 37.65L26.88 37.63Q30.09 37.87 33.09 36.08L33.02 36.00L32.96 35.94Q33.66 38.78 34.27 40.15L34.26 40.13L34.35 40.22Q32.10 40.33 30.46 40.30L30.58 40.41L30.48 40.31Q25.97 40.22 22.85 39.84ZM37.99 43.60L37.98 43.59L38.03 43.63Q36.25 40.64 35.56 38.05L35.59 38.07L35.59 38.07Q35.07 38.25 34.08 38.63L34.06 38.61L34.07 38.61Q33.87 37.96 33.68 37.12L33.63 37.07L33.21 35.31L33.32 35.43Q30.02 37.46 26.90 37.34L26.90 37.35L26.85 37.29Q22.58 37.10 20.26 35.35L20.22 35.31L20.30 35.39Q19.14 33.54 19.21 30.61L19.22 30.61L19.21 30.61Q19.33 26.08 21.81 23.95L21.92 24.07L21.78 23.92Q23.87 21.98 28.56 21.38L28.71 21.53L28.67 21.49Q29.40 21.30 30.12 21.30L30.12 21.30L30.18 21.36Q33.01 21.41 35.11 22.94L35.01 22.85L35.08 22.91Q35.52 20.73 36.74 17.49L36.80 17.55L36.84 17.59Q36.58 17.59 36.03 17.54L35.88 17.39L35.92 17.43Q35.34 17.34 35.07 17.34L35.12 17.39L35.02 17.30Q35.30 16.85 35.76 15.86L35.84 15.94L35.84 15.95Q35.50 15.83 33.01 15.76L33.02 15.77L33.11 15.86Q30.60 15.76 29.95 15.80L29.82 15.67L29.83 15.68Q19.30 16.00 15.83 18.59L15.95 18.70L15.89 18.64Q13.88 20.48 13.88 24.40L13.98 24.50L13.88 24.40Q13.93 25.56 14.05 28.26L14.03 28.24L13.98 28.19Q14.21 31.84 14.43 33.56L14.30 33.42L14.33 33.45Q14.70 36.56 16.30 38.08L16.36 38.15L16.36 38.15Q16.76 38.74 18.01 39.88L18.02 39.89L18.11 39.98Q21.39 41.77 26.64 42.53L26.64 42.53L26.71 42.60Q33.00 43.40 37.99 43.60Z"/><path fill="#e3728e" d="M128.44 34.81L128.42 34.79L128.28 34.65Q128.42 38.36 125.26 39.65L125.27 39.67L125.26 39.66Q123.30 40.40 118.88 40.55L118.89 40.56L118.94 40.61Q114.11 40.69 111.86 39.51L111.72 39.37L111.84 39.49Q110.09 38.27 110.24 34.92L110.06 34.74L110.08 34.75Q110.18 34.21 110.38 32.23L110.38 32.24L110.29 32.15Q110.42 30.56 110.42 29.57L110.40 29.56L110.52 29.67Q110.41 21.57 106.22 14.15L106.35 14.27L106.24 14.17Q107.40 14.83 110.37 15.90L110.42 15.95L110.40 15.93Q113.40 22.77 113.40 30.15L113.27 30.03L113.25 30.01Q113.30 30.67 113.21 31.85L113.14 31.79L113.29 31.93Q113.15 33.07 113.15 33.68L113.18 33.70L113.08 33.61Q113.04 35.85 114.60 36.84L114.62 36.86L114.59 36.83Q116.24 37.64 119.21 37.64L119.36 37.79L119.34 37.78Q121.87 37.67 123.50 36.49L123.59 36.57L123.64 36.63Q125.49 35.28 125.34 32.77L125.27 32.70L125.22 32.65Q125.10 31.24 125.10 29.91L125.06 29.86L125.06 29.86Q125.08 22.85 127.48 16.34L127.47 16.32L129.72 15.83L129.79 15.90Q130.63 15.48 131.73 15.02L131.81 15.11L131.85 15.14Q128.16 22.30 128.16 29.88L128.10 29.82L128.13 29.85Q128.01 30.57 128.15 32.21L128.18 32.25L128.14 32.20Q128.42 33.98 128.42 34.78ZM130.45 35.56L130.41 35.52L130.40 35.51Q129.51 30.55 130.24 25.45L130.32 25.53L130.28 25.49Q131.04 20.31 133.44 15.93L133.48 15.97L133.50 16.00Q132.81 16.21 131.36 16.86L131.45 16.96L131.48 16.99Q131.76 16.04 132.56 14.48L132.60 14.53L132.56 14.49Q129.17 15.78 127.27 16.12L127.18 16.03L127.24 16.09Q124.85 22.58 124.85 29.85L124.88 29.88L124.75 29.75Q124.77 31.14 124.85 32.54L124.96 32.66L124.82 32.51Q125.00 34.94 123.21 36.16L123.24 36.19L123.23 36.18Q121.78 37.28 119.27 37.32L119.31 37.36L119.35 37.40Q116.49 37.36 115.04 36.60L115.02 36.57L115.04 36.59Q114.94 36.07 114.86 35.62L114.87 35.62L115.00 35.75Q114.79 35.09 114.90 34.59L114.98 34.67L114.98 34.67Q115.19 32.33 115.19 30.01L115.14 29.96L115.30 30.12Q115.20 24.19 113.67 18.29L113.73 18.34L113.78 18.40Q113.02 18.24 111.61 17.90L111.58 17.87L111.58 17.86Q111.21 16.59 110.76 15.67L110.68 15.60L110.62 15.54Q107.92 14.78 105.53 13.41L105.62 13.50L105.51 13.39Q110.10 20.96 110.10 29.68L110.19 29.76L110.21 29.78Q110.11 31.32 109.95 33.03L109.95 33.02L109.95 33.03Q109.74 35.44 109.81 36.62L109.93 36.73L109.94 36.75Q110.01 38.61 111.27 39.75L111.23 39.72L111.33 39.81Q112.29 42.26 116.93 42.64L117.00 42.70L116.96 42.66Q119.12 42.88 121.25 42.95L121.23 42.94L121.07 42.78Q126.45 42.97 129.22 42.02L129.38 42.17L129.21 42.01Q130.86 41.19 130.86 39.13L130.83 39.10L130.98 39.25Q131.02 38.15 130.56 35.67Z"/><path fill="#78ec95" d="M98.94 49.61L98.94 49.62L98.96 49.64Q101.78 45.68 104.67 39.47L104.74 39.54L104.77 39.56Q101.55 32.92 95.45 24.85L95.55 24.94L95.52 24.92Q97.37 26.00 100.15 26.65L100.28 26.78L100.15 26.65Q103.77 31.41 106.20 36.63L106.20 36.62L106.26 36.68Q108.46 31.42 111.54 27.00L111.38 26.85L111.42 26.88Q113.72 26.63 115.82 25.83L115.79 25.81L115.68 25.69Q112.37 29.62 108.90 37.04L108.91 37.05L106.10 43.07L106.01 42.98Q104.58 46.11 102.83 48.74L102.92 48.83L102.78 48.70Q100.39 49.09 98.94 49.62ZM105.09 50.93L105.15 50.99L105.10 50.93Q106.84 48.07 108.28 44.79L108.27 44.78L111.12 38.58L111.09 38.55Q114.51 30.43 117.83 26.43L117.86 26.47L117.93 26.54Q116.43 27.05 114.52 27.74L114.59 27.80L115.59 26.37L115.67 26.44Q116.21 25.73 116.82 25.05L116.87 25.10L116.70 24.93Q114.08 26.04 111.23 26.50L111.33 26.60L111.20 26.47Q108.45 30.38 106.50 34.83L106.55 34.88L106.62 34.95Q104.92 31.58 103.13 28.76L103.18 28.80L103.18 28.81Q103.03 28.84 102.67 28.80L102.55 28.69L102.52 28.66Q102.13 28.59 101.94 28.59L101.96 28.62L102.06 28.71Q101.28 27.44 100.33 26.30L100.26 26.22L100.26 26.22Q97.23 25.71 94.49 23.99L94.37 23.88L94.45 23.96Q100.66 31.92 104.36 39.54L104.35 39.53L104.31 39.49Q102.21 44.63 98.14 50.26L98.11 50.23L98.08 50.20Q98.92 49.94 99.72 49.78L99.77 49.84L101.39 49.47L101.34 49.42Q100.74 50.16 99.56 51.79L99.65 51.89L99.52 51.76Q101.87 51.21 105.15 50.99Z"/></svg>