<svg xmlns="http://www.w3.org/2000/svg" width="150" height="50" viewBox="0,0,150,50"><path fill="#60a0e0" d="M9.16 25.00L9.17 25.02L9.21 25.06Q9.98 25.29 11.96 25.29L12.03 25.36L12.12 32.61L12.06 32.55Q12.22 36.94 12.34 39.83L12.31 39.81L12.16 39.65Q11.98 39.71 11.60 39.71L11.49 39.59L11.45 39.56Q10.13 39.68 8.68 41.02L8.54 40.87L8.69 41.02Q9.42 33.34 9.23 25.08ZM9.19 19.71L8.19 17.18L8.13 17.13Q9.64 16.05 10.37 15.10L10.30 15.03L10.34 15.07Q11.35 16.88 12.76 18.56L12.91 18.71L12.87 18.67Q11.99 20.10 10.62 22.24L10.77 22.39L10.73 22.36Q9.74 21.02 9.17 19.68L9.30 19.82ZM8.05 41.79L8.17 41.91L8.04 41.78Q9.09 40.74 10.35 40.24L10.28 40.18L10.29 40.18Q10.37 40.95 10.25 42.32L10.16 42.23L10.22 42.29Q10.94 42.09 11.59 42.09L11.58 42.08L11.58 42.08Q13.74 42.03 15.15 44.01L15.07 43.94L15.19 44.06Q13.92 36.70 14.00 26.53L14.00 26.53L14.07 26.61Q13.30 26.78 12.46 26.90L12.44 26.88L12.40 24.97L12.33 24.90Q11.27 24.98 10.47 24.91L10.58 25.02L10.59 25.03Q9.78 24.98 8.91 24.49L8.75 24.33L8.86 24.44Q8.92 26.41 8.92 28.46L9.04 28.58L8.98 28.52Q8.91 35.49 8.03 41.77ZM10.77 23.00L10.75 22.98L10.89 22.74L10.91 22.46L10.94 22.48Q11.45 23.37 12.47 24.86L12.49 24.87L12.40 24.79Q13.72 22.41 15.06 18.87L15.00 18.82L15.13 18.95Q14.10 18.03 12.54 16.43L12.60 16.49L12.56 16.45Q12.55 16.74 12.28 17.20L12.13 17.05L12.12 17.04Q11.26 15.88 10.35 14.43L10.32 14.41L10.43 14.52Q8.99 16.16 7.81 16.50L7.82 16.51L7.84 16.53Q8.80 19.85 10.63 22.86Z"/><path fill="#db6666" d="M41.71 30.95L41.65 30.89L41.56 30.80Q41.57 29.71 39.63 28.98L39.59 28.95L39.60 28.96Q39.15 28.81 38.61 28.81L38.53 28.72L38.57 28.76Q37.30 28.86 36.23 29.43L36.04 29.24L36.06 29.26Q34.67 29.96 34.78 31.18L34.85 31.25L34.97 31.37Q35.16 34.03 35.01 36.28L35.03 36.31L35.15 36.42Q34.90 38.76 34.18 41.28L34.21 41.30L34.23 41.33Q32.03 41.75 30.85 42.17L30.91 42.23L30.87 42.19Q32.43 38.54 32.43 34.54L32.40 34.51L32.43 34.54Q32.40 29.07 29.81 24.61L29.92 24.72L29.92 24.72Q31.17 25.25 33.57 25.97L33.42 25.83L33.57 25.97Q33.85 26.67 34.23 28.19L34.29 28.26L34.10 28.06Q35.60 26.14 39.49 26.22L39.40 26.13L39.34 26.07Q40.91 26.19 41.71 26.31L41.64 26.24L41.78 26.38Q44.62 26.63 44.70 28.65L44.70 28.65L44.68 28.63Q44.72 29.55 44.53 30.58L44.51 30.55L44.52 30.57Q44.21 33.22 44.40 36.23L44.30 36.14L44.29 36.13Q44.56 39.09 45.55 41.64L45.51 41.61L45.55 41.65Q43.74 41.13 42.03 40.98L42.04 40.99L42.13 41.08Q41.53 38.58 41.46 35.91L41.59 36.05L41.47 35.93Q41.46 33.26 41.69 30.93ZM41.58 41.26L41.62 41.29L41.66 41.34Q42.37 41.25 43.67 41.47L43.69 41.49L44.19 42.68L44.22 42.72Q44.24 43.04 44.47 43.57L44.60 43.70L44.58 43.68Q46.74 43.98 49.45 45.16L49.61 45.33L49.48 45.20Q47.16 42.11 46.47 38.30L46.46 38.29L46.56 38.39Q46.07 36.11 46.18 32.42L46.25 32.48L46.28 32.52Q46.23 32.16 46.27 31.36L46.37 31.46L46.38 31.48Q46.29 30.70 46.22 30.21L46.35 30.34L46.34 30.33Q46.18 28.61 45.08 28.12L45.05 28.09L45.09 28.13Q44.95 27.31 44.19 26.70L44.08 26.58L44.24 26.75Q42.39 25.58 39.34 25.66L39.39 25.70L39.38 25.69Q37.48 25.70 36.64 25.89L36.76 26.01L36.78 26.02Q35.25 26.28 34.29 27.19L34.24 27.13L34.26 27.16Q34.23 26.71 33.85 25.68L33.88 25.71L33.90 25.73Q31.07 25.04 29.25 24.05L29.12 23.93L29.11 23.91Q32.29 28.91 32.29 34.66L32.17 34.55L32.25 34.63Q32.21 38.97 30.31 42.81L30.41 42.91L30.39 42.89Q31.09 42.61 32.39 42.22L32.32 42.16L32.38 42.21Q31.72 43.31 31.19 44.30L31.23 44.34L31.30 44.41Q32.68 43.92 36.22 43.35L36.23 43.37L36.13 43.27Q37.22 38.22 37.10 33.39L37.14 33.42L37.16 33.45Q37.11 32.59 38.29 31.87L38.24 31.83L38.29 31.87Q39.16 31.07 40.27 30.96L40.39 31.08L40.34 31.03Q40.83 31.02 41.25 31.21L41.22 31.19L41.30 31.27Q41.05 33.72 41.09 36.27L41.19 36.37L41.18 36.36Q41.22 38.88 41.72 41.39Z"/><path fill="#e67ee6" d="M93.30 29.99L93.17 29.86L93.16 29.84Q90.66 29.74 89.32 30.95L89.39 31.02L89.41 31.04Q88.11 32.29 88.41 34.80L88.36 34.75L88.30 34.69Q88.58 37.18 89.80 38.43L89.76 38.39L89.80 38.43Q90.99 39.90 93.13 39.82L93.15 39.84L93.11 39.80Q93.67 39.79 93.86 39.79L93.73 39.66L93.76 39.69Q97.26 39.04 97.38 34.44L97.46 34.52L97.54 34.61Q97.45 32.08 96.77 31.28L96.86 31.37L96.75 31.26Q95.81 30.09 93.26 29.94ZM96.61 41.70L96.48 41.57L96.50 41.59Q95.31 42.31 93.75 42.23L93.73 42.21L93.73 42.21Q89.86 42.38 88.56 39.79L88.56 39.78L88.64 39.87Q88.31 45.05 86.97 49.31L87.03 49.37L86.98 49.32Q85.30 49.92 83.66 50.64L83.63 50.61L83.57 50.55Q86.13 44.58 85.86 37.62L85.91 37.67L85.92 37.67Q85.56 30.73 82.66 24.67L82.76 24.77L82.81 24.82Q84.68 25.93 86.40 26.39L86.37 26.36L86.84 27.78L86.96 27.90Q87.10 28.27 87.36 29.38L87.25 29.26L87.35 29.36Q88.22 27.15 91.80 26.96L91.80 26.96L91.82 26.98Q92.76 27.00 93.63 27.00L93.71 27.07L94.12 26.99L94.18 27.05Q94.26 27.02 94.45 27.05L94.46 27.06L94.72 27.03L94.67 26.97Q96.78 27.29 97.50 27.52L97.57 27.59L97.52 27.54Q99.03 28.03 99.91 28.98L99.95 29.02L99.95 29.02Q100.74 30.15 100.70 31.56L100.69 31.54L100.63 31.49Q100.79 34.50 99.99 37.17L99.89 37.06L100.00 37.17Q98.90 40.61 96.54 41.64ZM100.81 42.25L100.73 42.13L100.75 42.16Q102.00 40.32 102.31 36.21L102.18 36.08L102.25 36.16Q102.34 34.34 102.34 33.08L102.37 33.11L102.45 33.19Q102.43 31.65 101.67 30.24L101.60 30.17L101.55 30.13Q101.25 29.78 100.75 29.40L100.73 29.38L100.60 29.13L100.25 28.67L100.34 28.64L100.40 28.71Q98.68 26.68 94.34 26.68L94.30 26.64L93.66 26.61L93.73 26.68Q88.97 26.56 87.33 28.16L87.36 28.19L87.38 28.21Q87.20 27.68 87.04 27.19L87.11 27.26L86.83 26.17L86.83 26.18Q84.19 25.41 81.99 23.92L81.98 23.92L82.13 24.07Q85.35 30.33 85.65 37.56L85.68 37.59L85.57 37.48Q85.80 44.68 82.95 51.15L82.98 51.19L85.12 50.47L85.11 50.46Q84.84 51.17 84.15 52.73L84.06 52.65L84.14 52.72Q86.87 51.68 89.19 51.34L89.02 51.17L89.02 51.17Q90.32 46.53 90.47 42.80L90.31 42.64L90.44 42.77Q91.83 44.23 95.44 44.46L95.45 44.47L95.34 44.35Q99.29 44.61 100.73 42.17L100.82 42.25ZM95.08 32.10L95.22 32.24L95.14 32.16Q95.74 32.04 96.84 32.38L96.95 32.48L96.95 32.49Q97.14 33.41 97.11 34.59L97.21 34.69L97.12 34.60Q97.14 35.53 96.95 36.18L96.86 36.09L96.83 36.06Q96.16 39.01 93.65 39.31L93.66 39.32L93.71 39.27L93.72 39.27Q93.81 39.44 93.70 39.48L93.64 39.42L93.03 39.34L93.08 39.40Q91.83 39.32 90.84 38.82L90.87 38.86L90.61 36.88L90.54 36.81Q90.33 34.43 91.62 33.41L91.62 33.40L91.80 33.59Q92.73 32.42 95.13 32.15Z"/><path fill="#53d493" d="M67.23 39.79L67.24 39.79L67.21 39.76Q65.33 39.79 63.32 39.98L63.38 40.05L63.31 39.98Q63.96 34.73 63.96 29.89L63.93 29.86L64.03 29.96Q63.93 24.95 63.28 19.73L63.45 19.90L63.45 19.90Q58.72 19.36 55.52 17.69L55.58 17.74L54.79 15.92L54.81 15.95Q54.75 15.58 54.14 14.36L54.13 14.35L54.00 14.22Q59.12 16.94 65.14 17.14L65.13 17.13L65.09 17.09Q71.03 17.31 76.47 15.26L76.47 15.26L76.40 15.19Q75.70 16.62 75.06 18.45L75.14 18.53L75.07 18.46Q71.41 19.71 67.14 19.90L67.26 20.02L67.28 20.04Q67.02 25.00 67.02 29.94L66.95 29.87L66.90 29.83Q67.08 34.96 67.39 39.94ZM77.04 14.46L77.14 14.56L77.20 14.61Q71.34 16.86 65.13 16.67L65.02 16.56L65.17 16.71Q58.43 16.44 53.33 13.47L53.27 13.41L53.32 13.47Q54.12 14.80 55.42 18.07L55.37 18.03L55.38 18.04Q55.97 18.28 57.23 18.86L57.36 18.99L57.32 18.95Q57.63 19.72 57.97 21.24L57.83 21.10L57.94 21.21Q60.16 21.98 63.20 22.21L63.19 22.20L63.18 22.18Q63.66 25.98 63.66 29.74L63.65 29.73L63.64 29.72Q63.70 35.15 62.90 40.51L62.84 40.46L62.79 40.41Q64.48 40.31 65.01 40.31L64.91 40.21L65.10 40.39Q64.96 40.56 64.90 41.22L65.04 41.36L64.94 41.26Q64.90 41.94 64.90 42.29L64.99 42.38L64.92 42.31Q66.16 42.30 67.69 42.37L67.66 42.35L67.62 42.30Q68.55 42.36 70.38 42.52L70.26 42.40L70.32 42.46Q69.20 37.64 69.08 32.47L68.91 32.29L69.10 32.48Q68.76 26.96 69.29 22.05L69.35 22.11L69.46 22.22Q73.32 21.59 76.48 20.37L76.51 20.40L76.41 20.30Q77.21 18.02 78.24 15.96L78.21 15.93L78.29 16.01Q76.92 16.66 76.12 16.96L76.04 16.88L76.15 17.00Q76.54 15.67 77.11 14.53Z"/><path d="M6 24 C79 20,81 11,136 45" stroke="#51c0e5" fill="none"/><path fill="#9f84ef" d="M110.53 40.99L110.48 40.94L110.46 40.92Q109.18 39.26 107.88 36.17L107.83 36.12L105.76 31.04L105.68 30.96Q104.21 35.08 103.60 36.38L103.62 36.40L103.48 36.26Q102.03 39.19 100.43 41.09L100.57 41.23L100.46 41.12Q100.23 41.27 99.47 41.39L99.35 41.27L99.34 41.26Q99.39 33.89 93.57 27.95L93.46 27.84L93.61 28.00Q91.90 26.20 89.88 24.72L89.72 24.56L89.82 24.65Q91.67 25.21 93.53 25.52L93.51 25.49L93.48 25.47Q99.48 30.36 100.93 36.60L100.94 36.62L101.00 36.68Q101.85 34.79 103.03 31.59L103.08 31.64L103.04 31.59Q104.43 27.88 105.00 26.59L105.10 26.68L106.40 26.58L106.51 26.69Q107.27 28.29 108.45 31.56L108.40 31.51L108.38 31.49Q109.85 35.28 110.50 36.69L110.44 36.64L110.41 36.61Q112.24 30.33 117.72 25.76L117.69 25.72L117.66 25.70Q118.90 25.64 121.64 25.07L121.73 25.16L121.69 25.12Q112.95 31.04 111.77 41.01L111.92 41.16L111.24 41.02L111.08 40.86Q110.87 40.95 110.52 40.98ZM113.42 43.35L115.52 43.58L115.57 43.63Q115.25 42.10 115.25 40.57L115.12 40.44L115.26 40.58Q115.21 37.29 116.62 34.05L116.64 34.08L116.66 34.10Q118.54 29.47 122.65 26.39L122.69 26.43L122.70 26.43Q121.44 26.66 119.57 27.00L119.62 27.04L119.57 27.00Q121.54 25.35 122.83 24.44L122.80 24.41L120.39 24.96L120.33 24.91Q119.07 25.09 117.74 25.24L117.82 25.32L117.87 25.37Q112.60 29.51 110.66 34.53L110.77 34.64L110.69 34.56Q110.09 32.44 108.72 28.18L108.67 28.13L108.78 28.24Q108.33 28.13 108.06 28.13L108.11 28.18L107.68 28.28L107.69 28.29Q107.44 27.85 106.64 26.10L106.64 26.09L104.59 26.10L104.72 26.23Q103.60 28.88 101.51 34.52L101.51 34.52L101.54 34.55Q100.32 30.97 97.24 27.70L97.10 27.56L97.14 27.60Q96.95 27.67 96.64 27.63L96.65 27.65L96.00 27.45L96.08 27.52Q95.24 26.73 93.45 25.13L93.31 24.98L93.34 25.02Q90.33 24.52 88.66 24.03L88.47 23.85L88.63 24.00Q99.27 31.37 98.89 41.69L98.98 41.77L98.90 41.69Q99.09 41.70 99.46 41.66L99.50 41.70L99.52 41.72Q99.80 41.60 99.99 41.60L100.02 41.63L100.04 41.65Q99.98 41.44 100.17 43.53L100.27 43.64L102.12 43.39L102.20 43.47Q104.73 40.60 106.98 34.85L106.99 34.86L106.91 34.78Q108.44 38.67 110.30 41.33L110.43 41.46L110.29 41.32Q110.72 41.41 110.98 41.42L110.97 41.41L110.87 41.31Q111.24 41.43 111.51 41.43L111.35 41.28L113.51 43.44Z"/><path fill="#e14169" d="M24.04 41.05L24.15 41.16L22.38 41.10L22.48 41.20Q18.97 41.08 18.02 38.95L18.08 39.01L18.16 39.09Q19.23 37.96 20.68 36.85L20.62 36.79L20.80 36.98Q21.18 38.95 24.03 38.80L24.03 38.80L24.15 38.92Q24.92 38.85 25.95 38.62L25.90 38.57L25.95 38.62Q26.95 38.17 26.87 37.22L26.75 37.10L26.89 37.24Q26.74 36.06 24.95 35.37L25.03 35.45L21.14 33.85L21.09 33.80Q18.73 32.43 18.39 28.89L18.54 29.04L18.37 28.87Q18.17 26.73 20.34 26.16L20.45 26.27L20.38 26.20Q21.31 25.95 24.28 25.95L24.29 25.96L24.38 26.05Q29.20 26.00 30.12 28.51L30.18 28.58L30.24 28.64Q29.51 29.08 28.78 29.54L28.72 29.47L27.33 30.44L27.30 30.41Q26.80 28.51 23.57 28.28L23.61 28.33L23.55 28.27Q23.09 28.41 22.06 28.83L22.03 28.80L22.06 28.83Q21.50 29.19 21.50 30.29L21.48 30.27L21.37 30.15Q21.90 31.41 23.73 32.09L23.68 32.05L23.58 31.95Q24.75 32.44 27.42 33.54L27.41 33.54L27.34 33.46Q29.21 34.34 29.40 36.90L29.37 36.87L29.45 36.95Q29.40 37.46 29.32 38.45L29.46 38.60L29.44 38.57Q29.32 39.36 28.75 40.01L28.68 39.94L28.80 40.07Q27.14 41.10 24.09 41.10ZM28.90 43.74L28.93 43.77L28.80 43.64Q29.88 43.85 31.25 43.54L31.16 43.45L31.15 43.44Q32.27 42.81 32.08 41.59L32.00 41.51L31.97 41.48Q31.95 40.97 31.64 39.37L31.71 39.43L31.67 39.39Q31.07 36.40 29.28 35.18L29.31 35.21L29.26 35.15Q28.84 33.86 27.58 33.14L27.60 33.16L27.51 33.06Q26.28 32.67 23.81 31.72L23.83 31.74L23.82 31.73Q24.04 31.34 24.30 31.23L24.34 31.26L24.27 31.20Q24.90 30.76 25.55 30.72L25.47 30.64L25.57 30.74Q26.39 30.72 27.15 30.99L26.99 30.83L27.06 30.97L27.16 30.96L27.47 31.08L27.35 31.00L27.37 31.02Q28.49 31.53 28.69 32.79L28.63 32.74L28.65 32.75Q29.97 31.98 31.87 30.31L31.84 30.27L31.80 30.24Q31.53 29.51 30.54 28.33L30.70 28.49L30.59 28.37Q29.53 25.75 24.43 25.64L24.30 25.51L24.36 25.57Q21.11 25.45 19.14 26.02L19.29 26.17L19.19 26.08Q17.72 26.58 17.95 28.68L18.12 28.85L18.05 28.78Q18.19 30.06 19.10 32.15L19.01 32.06L19.14 32.19Q19.56 33.18 20.59 33.91L20.66 33.98L20.58 33.89Q21.31 35.43 22.60 36.11L22.56 36.07L22.62 36.13Q23.60 36.42 24.55 36.80L24.53 36.78L26.32 37.43L26.49 37.60Q26.08 38.64 24.14 38.53L24.14 38.53L24.20 38.59Q23.63 38.51 22.41 38.20L22.42 38.21L22.42 38.06L22.40 38.27L22.39 38.26Q21.48 37.85 20.84 36.36L20.85 36.37L20.91 36.43Q18.60 37.82 17.50 38.96L17.62 39.09L17.68 39.15Q17.87 39.95 18.90 40.75L18.84 40.69L18.69 40.84L18.80 40.95Q20.16 42.99 24.38 43.37L24.34 43.33L24.45 43.44Q25.73 43.58 28.96 43.80Z"/><path fill="#71c7e4" d="M122.41 29.48L122.49 29.56L122.44 29.51Q121.24 28.72 120.59 28.76L120.53 28.71L120.52 28.70Q119.21 28.83 118.16 29.84L118.15 29.83L118.11 29.78Q117.18 30.91 117.29 32.28L117.33 32.31L117.25 32.24Q117.56 36.58 116.68 41.11L116.61 41.04L116.62 41.05Q114.50 41.59 113.39 42.12L113.44 42.17L113.38 42.11Q114.87 37.93 114.64 33.47L114.54 33.37L114.55 33.38Q114.36 28.93 112.65 24.86L112.60 24.81L112.77 24.98Q113.74 25.49 116.02 26.14L116.14 26.25L116.60 28.84L116.64 28.89Q117.32 25.98 121.58 25.98L121.59 25.99L121.58 25.98Q122.05 26.00 122.36 26.00L122.39 26.03L122.37 26.01Q123.66 26.01 124.92 26.70L124.86 26.64L124.86 26.64Q123.51 27.95 122.37 29.44ZM124.11 31.56L124.14 31.44L124.21 31.51Q125.05 30.29 126.72 27.85L126.59 27.72L126.60 27.73Q126.31 27.55 124.78 27.28L124.70 27.20L124.61 27.11Q125.13 26.99 125.59 26.38L125.56 26.35L125.46 26.25Q123.62 25.40 121.68 25.59L121.62 25.53L121.63 25.54Q119.63 25.67 118.90 25.93L119.09 26.12L119.01 26.04Q117.50 26.36 116.70 27.47L116.69 27.46L116.69 26.81L116.45 25.92L116.38 25.84Q113.96 25.41 111.98 24.07L111.95 24.04L112.02 24.11Q114.25 28.59 114.48 33.46L114.41 33.40L114.38 33.37Q114.67 38.34 112.92 42.87L112.83 42.78L112.82 42.76Q113.96 42.34 114.83 42.04L114.81 42.01L114.80 42.01Q114.61 43.18 114.11 44.25L113.98 44.12L113.96 44.10Q116.88 43.33 119.02 43.22L119.04 43.24L119.17 38.65L119.27 38.75Q119.34 36.46 119.34 34.21L119.27 34.14L119.38 34.26Q119.28 32.98 120.20 32.00L120.34 32.15L120.25 32.06Q121.26 31.19 122.40 31.11L122.33 31.04L122.25 30.96Q122.91 30.85 123.63 31.54L123.62 31.53L124.04 31.49ZM119.01 29.66L119.17 29.74L119.10 29.78L119.09 29.74Z"/><path fill="#e5e561" d="M51.08 41.18L50.96 41.06L49.37 41.18L49.25 41.07Q45.85 41.06 44.90 38.93L44.90 38.93L44.99 39.01Q46.12 37.94 47.57 36.83L47.53 36.80L47.67 36.93Q48.20 39.07 51.06 38.91L51.10 38.95L51.08 38.94Q51.86 38.88 52.89 38.65L52.93 38.69L52.87 38.63Q53.73 38.04 53.65 37.09L53.78 37.22L53.67 37.11Q53.65 36.07 51.87 35.38L51.83 35.35L47.99 33.79L47.98 33.78Q45.65 32.44 45.31 28.90L45.40 28.99L45.33 28.93Q45.23 26.88 47.40 26.31L47.35 26.26L47.41 26.32Q48.29 26.02 51.26 26.02L51.24 26.00L51.27 26.03Q56.05 25.93 56.96 28.45L56.98 28.47L57.02 28.51Q56.34 29.00 55.61 29.46L55.69 29.54L54.23 30.43L54.19 30.40Q53.83 28.63 50.60 28.40L50.51 28.32L50.48 28.29Q50.04 28.46 49.02 28.88L48.86 28.72L48.98 28.84Q48.29 29.07 48.29 30.17L48.39 30.27L48.47 30.35Q48.69 31.29 50.52 31.98L50.64 32.10L50.45 31.91Q51.57 32.35 54.24 33.45L54.34 33.56L54.21 33.43Q56.14 34.37 56.33 36.92L56.26 36.84L56.38 36.97Q56.42 37.57 56.34 38.56L56.39 38.61L56.26 38.48Q56.22 39.35 55.65 40.00L55.71 40.06L55.70 40.05Q54.14 41.20 51.09 41.20ZM55.70 43.64L55.76 43.70L55.77 43.70Q56.68 43.74 58.05 43.43L58.16 43.54L58.17 43.55Q59.18 42.81 58.99 41.59L58.93 41.54L58.94 41.54Q58.88 40.98 58.57 39.38L58.64 39.46L58.59 39.40Q57.97 36.39 56.18 35.17L56.27 35.25L56.27 35.25Q55.76 33.87 54.50 33.15L54.40 33.05L54.41 33.06Q53.22 32.70 50.75 31.75L50.72 31.72L50.73 31.74Q50.88 31.27 51.14 31.16L51.09 31.10L51.10 31.11Q51.84 30.78 52.48 30.75L52.40 30.66L52.38 30.64Q53.29 30.71 54.05 30.98L54.07 31.00L53.92 30.93L54.07 30.96L54.31 31.01L54.41 31.15L54.41 31.15Q55.37 31.50 55.56 32.75L55.56 32.76L55.55 32.74Q56.87 31.97 58.77 30.29L58.70 30.23L58.83 30.35Q58.54 29.60 57.55 28.42L57.56 28.44L57.57 28.45Q56.34 25.66 51.24 25.54L51.33 25.63L51.32 25.63Q48.10 25.53 46.12 26.10L46.20 26.18L46.18 26.16Q44.66 26.62 44.89 28.71L44.95 28.77L45.04 28.86Q44.96 29.93 45.88 32.02L45.94 32.08L46.02 32.16Q46.56 33.27 47.58 33.99L47.46 33.87L47.51 33.92Q48.22 35.43 49.51 36.11L49.46 36.06L49.57 36.17Q50.55 36.46 51.50 36.84L51.46 36.80L53.23 37.43L53.42 37.62Q52.96 38.61 51.02 38.49L51.08 38.55L51.13 38.60Q50.65 38.62 49.43 38.32L49.47 38.35L49.43 38.16L49.19 38.15L49.28 38.24Q48.45 37.90 47.80 36.42L47.66 36.28L47.64 36.26Q45.69 38.00 44.58 39.14L44.50 39.06L44.43 38.98Q44.73 39.89 45.75 40.69L45.88 40.82L45.70 40.94L45.67 40.91Q47.12 43.05 51.35 43.43L51.25 43.33L51.35 43.43Q52.46 43.40 55.70 43.63Z"/><path fill="#9e87e2" d="M79.34 40.14L79.35 40.14L79.47 40.26Q77.43 40.02 75.76 40.59L75.89 40.72L75.88 40.71Q76.43 37.11 76.54 33.99L76.60 34.04L76.46 33.90Q76.63 30.92 76.41 27.26L76.47 27.33L76.34 27.20Q74.96 26.84 74.19 26.46L74.24 26.51L73.79 23.43L73.92 23.56Q74.59 24.11 76.19 24.68L76.10 24.60L76.12 24.61Q75.96 22.55 75.54 19.81L75.57 19.84L75.57 19.84Q77.84 20.51 79.47 20.36L79.39 20.27L79.27 24.88L79.43 25.04Q80.84 24.96 82.17 24.46L82.20 24.49L82.03 24.32Q82.05 25.29 81.82 27.04L81.76 26.98L81.86 27.08Q80.25 27.34 79.22 27.34L79.28 27.40L79.20 27.32Q79.33 29.62 79.33 33.88L79.27 33.82L79.29 33.84Q79.23 37.93 79.30 40.10ZM82.59 23.89L82.48 23.78L82.52 23.83Q82.22 23.91 81.61 24.13L81.58 24.11L82.06 21.42L81.99 21.35Q81.30 21.77 79.90 22.00L79.90 22.00L79.90 22.01Q79.82 21.24 79.97 19.87L79.94 19.84L79.92 19.82Q79.42 20.00 78.85 20.00L78.69 19.84L78.70 19.85Q76.70 19.98 75.06 19.26L75.01 19.21L74.97 19.16Q75.59 21.76 75.85 24.24L75.85 24.24L75.85 24.24Q74.94 23.85 73.41 22.83L73.34 22.76L73.29 22.70Q73.64 24.00 73.87 26.71L73.99 26.83L73.86 26.70Q74.46 27.07 75.64 27.49L75.66 27.51L75.62 27.47Q75.68 28.14 75.72 29.54L75.65 29.48L75.95 29.43L76.08 29.49L76.19 29.60Q76.18 30.77 76.18 31.95L76.25 32.02L76.24 32.01Q76.14 36.86 75.34 41.20L75.42 41.28L75.49 41.35Q75.56 41.11 77.50 40.58L77.50 40.57L77.60 40.68Q77.63 41.35 77.51 42.72L77.42 42.63L77.43 42.65Q78.21 42.54 79.01 42.54L79.14 42.67L79.04 42.58Q80.85 42.68 82.49 43.25L82.44 43.20L82.36 43.12Q81.05 37.43 81.24 29.51L81.32 29.59L83.75 29.24L83.61 29.10Q83.79 28.29 83.86 27.26L83.84 27.24L84.09 25.28L83.99 25.18Q83.44 25.47 82.26 25.93L82.22 25.88L82.29 25.96Q82.47 24.49 82.39 24.15L82.53 24.29L82.56 24.32Q82.40 23.97 82.48 23.78Z"/><path fill="#51ea9e" d="M131.91 19.74L131.75 19.57L131.84 19.67Q129.90 19.82 128.95 19.97L128.89 19.91L128.98 20.01Q127.32 20.21 126.10 20.74L126.14 20.78L126.09 20.73Q122.60 22.19 122.48 26.87L122.50 26.89L122.36 26.75Q122.30 29.43 122.95 32.36L123.09 32.50L122.94 32.35Q123.98 36.55 127.59 37.73L127.55 37.68L127.52 37.65Q129.31 38.12 130.76 37.97L130.85 38.05L131.22 37.97L131.29 38.04Q131.52 38.08 131.71 38.12L131.64 38.05L131.60 38.01Q131.86 38.12 132.02 38.08L131.86 37.92L131.95 38.01Q134.52 37.69 135.89 37.12L135.96 37.18L132.35 33.62L132.33 33.60Q132.66 33.28 133.27 32.67L133.33 32.73L134.32 31.90L134.26 31.83Q136.15 33.95 138.13 36.00L138.11 35.98L137.99 35.87Q140.29 34.02 140.56 28.65L140.57 28.67L140.65 28.74Q140.78 27.88 140.78 26.97L140.74 26.93L140.77 26.97Q140.67 21.19 135.61 20.09L135.67 20.15L135.57 20.04Q134.38 19.84 131.86 19.69ZM144.52 41.64L144.66 41.77L144.64 41.76Q143.95 42.10 142.77 42.97L142.83 43.03L138.42 39.34L138.40 39.32Q135.85 40.47 131.59 40.51L131.70 40.61L131.72 40.64Q125.10 40.68 122.28 38.44L122.39 38.54L122.25 38.41Q120.45 36.60 119.99 33.63L120.14 33.78L120.15 33.79Q119.96 32.00 119.57 28.42L119.48 28.33L119.51 28.35Q119.45 27.57 119.33 25.82L119.47 25.96L119.42 25.90Q119.29 24.36 119.32 23.48L119.29 23.45L119.36 23.52Q119.30 20.30 121.05 18.74L121.18 18.86L121.21 18.90Q122.65 17.49 125.85 16.99L125.87 17.01L125.94 17.08Q128.26 16.54 131.15 16.62L131.26 16.73L131.30 16.76Q138.72 16.80 141.84 19.17L141.81 19.13L141.88 19.20Q144.10 21.38 143.83 26.29L143.82 26.28L143.80 26.26Q143.59 29.89 143.40 31.23L143.29 31.12L143.41 31.23Q142.76 35.73 140.44 38.05L140.34 37.95L140.48 38.09Q141.92 39.30 144.66 41.78ZM139.77 17.47L139.69 17.39L139.73 17.43Q137.76 16.76 131.25 16.27L131.27 16.28L131.18 16.19Q129.85 16.27 127.07 16.38L127.02 16.33L127.13 16.44Q122.81 16.57 120.56 18.55L120.57 18.56L120.64 18.63Q119.01 20.12 119.01 23.28L118.86 23.13L118.90 23.17Q118.88 23.99 119.03 25.70L119.07 25.74L119.01 25.68Q119.17 27.41 119.17 28.28L119.15 28.26L119.30 28.41Q119.46 30.16 119.84 33.74L119.79 33.70L119.83 33.74Q120.18 36.59 121.78 38.65L121.66 38.53L121.70 38.58Q121.97 39.34 123.19 40.48L123.37 40.67L123.38 40.67Q125.92 42.49 131.10 42.76L131.22 42.87L131.11 42.77Q131.60 42.92 134.00 43.03L134.03 43.06L133.91 42.94Q138.63 43.02 140.92 41.96L141.02 42.05L140.97 42.01Q141.97 42.81 146.69 46.39L146.55 46.26L146.57 46.27Q147.23 45.79 148.53 44.81L148.45 44.73L148.54 44.82Q147.59 44.06 146.79 43.37L146.83 43.41L145.14 41.92L145.37 41.99L145.29 41.91Q144.68 41.41 143.46 40.38L143.47 40.40L143.54 40.46Q145.42 37.93 145.42 33.40L145.30 33.28L145.33 33.31Q145.35 32.91 145.39 32.07L145.37 32.05L145.38 32.06Q145.43 31.24 145.43 30.82L145.45 30.84L145.49 30.88Q145.56 25.43 144.83 23.07L144.69 22.93L144.77 23.00Q144.46 21.78 143.58 20.71L143.40 20.53L143.49 20.62Q142.60 18.40 139.67 17.37ZM133.82 22.11L133.74 22.02L133.68 21.96Q137.79 21.92 139.62 23.52L139.74 23.64L139.68 23.59Q140.12 24.68 140.24 26.01L140.36 26.13L140.39 26.17Q140.40 27.35 140.32 28.72L140.35 28.75L140.26 28.66Q139.95 33.64 138.01 35.35L137.98 35.32L137.99 35.33Q136.79 34.14 134.28 31.40L134.32 31.44L134.17 31.28Q133.36 31.99 131.79 33.56L131.87 33.63L131.93 33.69Q132.36 34.16 133.50 35.34L133.69 35.53L133.59 35.54L133.60 35.55Q134.15 36.06 135.18 37.13L135.03 36.98L135.06 37.01Q134.03 37.24 131.71 37.54L131.79 37.63L131.36 37.72L130.94 37.72L130.76 37.59L130.83 37.66Q127.40 37.69 125.42 36.05L125.41 36.04L125.32 35.95Q124.36 33.93 124.40 30.80L124.40 30.81L124.50 30.91Q124.67 22.20 133.84 22.13Z"/></svg>