<svg xmlns="http://www.w3.org/2000/svg" width="150" height="50" viewBox="0,0,150,50"><path fill="#86e8d0" d="M20.71 34.71L20.70 34.70L20.76 34.76Q20.63 38.21 17.47 39.50L17.51 39.55L17.61 39.64Q15.65 40.39 11.24 40.54L11.14 40.45L11.33 40.63Q6.51 40.73 4.26 39.55L4.28 39.57L4.14 39.42Q2.41 38.22 2.56 34.87L2.49 34.80L2.55 34.86Q2.56 34.23 2.75 32.25L2.77 32.26L2.78 32.27Q2.89 30.67 2.89 29.68L2.87 29.66L2.91 29.70Q2.91 21.71-1.28 14.28L-1.31 14.25L-1.32 14.24Q-0.29 14.77 2.68 15.84L2.88 16.04L2.71 15.88Q5.60 22.60 5.60 29.99L5.70 30.09L5.64 30.03Q5.65 30.65 5.56 31.83L5.53 31.81L5.67 31.94Q5.42 32.98 5.42 33.59L5.54 33.70L5.57 33.73Q5.40 35.84 6.96 36.83L6.98 36.86L7.06 36.94Q8.65 37.69 11.62 37.69L11.61 37.67L11.55 37.62Q14.30 37.74 15.93 36.56L15.84 36.46L15.98 36.61Q17.68 35.11 17.53 32.59L17.61 32.67L17.58 32.65Q17.56 31.33 17.56 30.00L17.41 29.85L17.47 29.91Q17.50 22.89 19.90 16.38L19.90 16.39L22.09 15.84L22.12 15.86Q23.14 15.63 24.25 15.18L24.08 15.01L24.08 15.01Q20.42 22.20 20.42 29.77L20.44 29.80L20.45 29.81Q20.50 30.69 20.63 32.33L20.55 32.25L20.52 32.22Q20.71 33.91 20.71 34.71ZM22.82 35.57L22.90 35.65L22.78 35.53Q21.88 30.56 22.61 25.45L22.62 25.46L22.70 25.55Q23.43 20.33 25.82 15.96L25.81 15.94L25.78 15.91Q25.29 16.33 23.84 16.98L23.85 16.98L23.67 16.81Q24.10 16.02 24.90 14.46L24.91 14.47L24.99 14.55Q21.53 15.77 19.62 16.11L19.60 16.09L19.54 16.03Q17.28 22.63 17.28 29.91L17.27 29.90L17.20 29.83Q17.21 31.21 17.28 32.62L17.20 32.53L17.34 32.68Q17.48 35.06 15.69 36.28L15.70 36.29L15.59 36.18Q14.12 37.26 11.61 37.29L11.67 37.36L11.62 37.31Q8.91 37.41 7.46 36.65L7.51 36.70L7.36 36.55Q7.43 36.20 7.36 35.75L7.19 35.59L7.34 35.74Q7.15 35.08 7.26 34.58L7.29 34.62L7.27 34.59Q7.63 32.40 7.63 30.08L7.59 30.04L7.59 30.04Q7.52 24.15 6.00 18.25L6.14 18.39L6.08 18.33Q5.32 18.18 3.91 17.84L3.83 17.76L3.99 17.91Q3.52 16.53 3.06 15.62L3.05 15.61L2.99 15.55Q0.36 14.85-2.04 13.48L-2.02 13.50L-2.07 13.46Q2.54 21.04 2.54 29.75L2.56 29.77L2.47 29.68Q2.58 31.43 2.43 33.14L2.49 33.20L2.44 33.15Q2.22 35.56 2.29 36.74L2.25 36.69L2.21 36.65Q2.38 38.61 3.64 39.76L3.59 39.70L3.68 39.80Q4.62 42.22 9.26 42.60L9.33 42.67L9.20 42.54Q11.45 42.85 13.58 42.92L13.46 42.80L13.54 42.89Q18.80 42.96 21.58 42.01L21.68 42.12L21.66 42.09Q23.27 41.23 23.27 39.18L23.29 39.19L23.26 39.16Q23.35 38.11 22.89 35.64Z"/><path fill="#e9a058" d="M56.75 41.03L56.69 40.96L56.74 41.01Q55.38 39.27 54.08 36.19L54.10 36.21L51.97 31.07L51.94 31.04Q50.42 35.11 49.81 36.41L49.72 36.32L49.83 36.43Q48.38 39.36 46.78 41.26L46.76 41.24L46.75 41.23Q46.25 41.11 45.49 41.22L45.65 41.39L45.65 41.38Q45.59 33.90 39.77 27.96L39.73 27.93L39.79 27.99Q38.02 26.14 36.00 24.65L35.86 24.52L35.94 24.60Q37.75 25.11 39.62 25.42L39.65 25.45L39.64 25.44Q45.69 30.39 47.14 36.63L47.17 36.66L47.18 36.67Q48.08 34.83 49.26 31.63L49.21 31.59L49.30 31.67Q50.66 27.94 51.23 26.64L51.15 26.56L52.57 26.57L52.54 26.53Q53.47 28.30 54.65 31.58L54.64 31.57L54.60 31.53Q55.92 35.17 56.57 36.58L56.60 36.62L56.66 36.67Q58.51 30.41 63.99 25.84L63.81 25.66L63.90 25.76Q65.04 25.60 67.78 25.03L67.96 25.21L67.79 25.04Q59.19 31.10 58.01 41.07L57.94 41.00L57.42 41.02L57.42 41.02Q57.01 40.91 56.67 40.94ZM59.69 43.43L61.72 43.60L61.81 43.69Q61.35 42.01 61.35 40.49L61.34 40.48L61.37 40.51Q61.36 37.26 62.77 34.02L62.81 34.07L62.80 34.06Q64.74 29.49 68.85 26.41L68.96 26.51L68.86 26.42Q67.67 26.70 65.80 27.05L65.86 27.10L65.71 26.96Q67.84 25.47 69.13 24.56L69.01 24.44L66.61 25.00L66.50 24.89Q65.41 25.24 64.07 25.39L64.03 25.35L64.11 25.43Q58.93 29.66 56.99 34.68L56.87 34.56L56.94 34.63Q56.27 32.44 54.90 28.17L54.89 28.17L54.82 28.09Q54.53 28.14 54.26 28.14L54.40 28.29L53.74 28.16L53.82 28.23Q53.58 27.81 52.78 26.06L52.87 26.15L50.87 26.20L50.85 26.18Q49.95 29.05 47.85 34.68L47.86 34.69L47.83 34.66Q46.53 31.00 43.44 27.72L43.31 27.59L43.34 27.61Q43.12 27.67 42.82 27.63L42.83 27.64L42.22 27.49L42.18 27.44Q41.33 26.64 39.54 25.04L39.65 25.14L39.56 25.05Q36.50 24.51 34.83 24.02L34.82 24.01L34.81 23.99Q45.50 31.41 45.12 41.73L45.18 41.79L45.08 41.69Q45.32 41.74 45.68 41.71L45.56 41.58L45.71 41.73Q46.11 41.73 46.30 41.73L46.12 41.55L46.28 41.71Q46.26 41.54 46.45 43.63L46.47 43.66L48.30 43.39L48.42 43.51Q51.01 40.69 53.25 34.94L53.16 34.85L53.07 34.76Q54.65 38.70 56.52 41.36L56.54 41.39L56.52 41.37Q56.75 41.26 57.02 41.28L57.12 41.38L57.05 41.31Q57.43 41.44 57.69 41.44L57.58 41.32L59.77 43.52Z"/><path fill="#e76363" d="M71.15 21.43L71.23 21.51L71.13 21.41Q69.60 20.19 67.96 19.81L67.94 19.79L67.89 19.73Q66.80 19.48 64.02 19.44L64.08 19.50L64.11 19.53Q58.83 19.40 56.78 21.42L56.72 21.36L56.78 21.41Q55.10 22.94 55.22 26.63L55.34 26.75L55.35 26.77Q55.43 30.50 55.59 31.45L55.64 31.50L55.59 31.45Q56.64 37.53 64.36 37.53L64.35 37.52L64.38 37.54Q69.07 37.56 71.17 35.16L71.04 35.03L71.20 35.19Q72.99 32.90 73.22 28.15L73.34 28.27L73.33 28.26Q73.62 23.49 71.30 21.59ZM64.37 40.54L64.26 40.44L64.41 40.58Q57.75 40.59 54.78 38.23L54.89 38.33L54.78 38.22Q52.73 36.09 52.61 31.03L52.60 31.01L52.69 31.11Q52.67 30.59 52.51 27.31L52.42 27.23L52.34 27.15Q52.20 24.52 52.24 23.46L52.24 23.46L52.40 23.62Q52.39 20.61 53.80 18.89L53.98 19.07L53.80 18.90Q56.49 16.75 61.36 16.60L61.26 16.49L61.36 16.59Q63.12 16.53 64.00 16.57L64.04 16.61L63.94 16.51Q73.89 16.60 75.64 20.94L75.68 20.98L75.65 20.95Q76.41 22.92 76.26 25.66L76.36 25.77L76.34 25.75Q76.31 27.43 76.12 30.70L76.22 30.80L76.21 30.79Q75.91 33.50 74.99 35.56L74.95 35.51L75.07 35.63Q72.89 40.23 64.25 40.43ZM76.78 40.58L76.60 40.40L76.75 40.55Q78.12 38.76 78.23 35.68L78.11 35.55L78.22 35.66Q78.13 34.47 78.10 32.87L78.11 32.89L78.17 32.95Q78.20 32.26 78.17 30.43L78.06 30.33L78.14 30.40Q78.04 23.23 76.10 20.75L76.10 20.75L76.04 20.69Q75.65 19.69 74.55 18.59L74.67 18.71L74.59 18.63Q71.36 16.20 63.90 16.05L63.92 16.07L63.90 16.05Q56.61 16.03 53.56 18.62L53.39 18.45L53.50 18.55Q52.03 20.40 52.03 23.33L52.03 23.33L52.03 23.33Q51.96 24.55 52.11 25.88L52.08 25.86L52.19 25.96Q52.14 26.98 52.18 28.43L52.24 28.49L52.09 28.34Q52.30 32.36 52.46 33.54L52.48 33.56L52.40 33.49Q52.96 36.59 54.29 38.38L54.13 38.22L54.22 38.31Q54.69 39.61 55.75 40.37L55.67 40.30L55.72 40.34Q59.04 42.75 66.81 42.94L66.76 42.89L66.68 42.82Q74.08 43.09 76.74 40.54ZM73.02 28.21L72.96 28.16L72.94 28.13Q72.75 32.70 70.85 34.80L70.87 34.82L70.82 34.78Q68.89 37.18 64.43 37.22L64.43 37.21L64.44 37.23Q60.09 37.25 57.96 35.35L57.95 35.34L57.81 35.20Q57.12 33.59 57.19 30.70L57.22 30.73L57.11 30.62Q57.34 26.12 59.35 23.95L59.40 23.99L59.24 23.84Q61.33 21.75 65.94 21.75L65.96 21.76L65.94 21.75Q70.22 21.84 72.32 23.70L72.31 23.70L72.19 23.58Q73.17 25.47 73.05 28.25Z"/><path fill="#db934c" d="M102.09 29.58L102.21 29.70L102.10 29.59Q102.20 33.96 101.48 38.11L101.51 38.14L101.52 38.15Q103.77 37.58 106.85 37.46L106.70 37.31L106.75 37.36Q108.07 37.54 109.13 36.53L109.08 36.47L109.21 36.61Q110.20 35.52 110.20 34.19L110.17 34.16L110.14 34.13Q110.14 33.82 110.10 33.56L110.20 33.66L110.28 33.73Q110.12 30.80 107.87 29.96L107.78 29.87L107.85 29.93Q107.08 29.63 106.40 29.70L106.41 29.71L106.34 29.64Q105.23 29.53 104.21 29.56L104.32 29.68L104.25 29.61Q103.19 29.65 102.16 29.65ZM100.90 19.18L100.85 19.13L100.89 19.16Q101.83 22.54 102.09 26.92L102.10 26.93L102.15 26.97Q103.52 27.01 106.19 27.05L106.20 27.07L106.10 26.97Q109.09 27.06 109.43 23.52L109.54 23.63L109.51 23.60Q109.75 21.70 108.34 20.87L108.33 20.86L108.26 20.79Q107.31 20.22 102.89 19.57L102.94 19.62L103.00 19.67Q101.87 19.46 100.96 19.23ZM97.27 42.08L97.33 42.14L97.19 42.00Q99.85 35.53 99.59 28.14L99.50 28.06L99.50 28.05Q99.21 20.76 96.28 14.29L96.34 14.35L96.18 14.19Q100.03 16.79 106.26 17.03L106.27 17.05L106.22 16.99Q112.48 17.28 112.82 20.17L112.87 20.22L112.84 20.19Q113.21 23.00 111.80 25.66L111.89 25.75L111.83 25.69Q111.07 27.17 109.47 27.86L109.41 27.80L109.42 27.81Q113.04 28.46 113.27 33.83L113.39 33.95L113.25 33.82Q113.47 35.06 113.39 36.46L113.36 36.43L113.28 36.35Q113.27 37.72 112.34 38.65L112.28 38.59L112.26 38.57Q111.49 39.67 110.16 39.82L110.14 39.80L110.16 39.82Q108.66 39.88 107.59 39.88L107.63 39.91L107.61 39.90Q101.76 39.76 97.23 42.04ZM110.07 42.40L109.98 42.30L109.99 42.32Q111.06 42.51 112.93 42.62L112.94 42.64L112.96 42.66Q114.28 42.61 115.39 41.73L115.40 41.74L115.49 41.84Q116.27 40.90 116.15 39.34L116.16 39.35L116.04 39.22Q116.09 38.40 115.36 34.94L115.31 34.88L115.32 34.90Q114.67 31.69 112.80 30.20L112.82 30.22L112.25 29.23L112.38 29.36Q113.95 27.85 114.52 24.08L114.51 24.07L114.54 24.10Q114.79 23.06 114.72 21.65L114.70 21.63L114.56 21.49Q114.68 20.36 113.58 19.52L113.46 19.40L113.43 19.37Q113.19 19.24 113.07 19.21L112.99 19.12L112.98 19.11Q112.78 18.65 111.95 17.85L112.02 17.92L112.01 17.91Q110.51 16.88 106.29 16.69L106.15 16.54L106.21 16.61Q99.55 16.30 95.55 13.41L95.60 13.46L95.59 13.45Q98.83 20.42 99.13 27.95L99.24 28.06L99.17 27.99Q99.59 35.91 96.77 42.84L96.63 42.70L98.81 41.87L98.75 41.81Q98.45 43.03 97.96 44.18L97.82 44.04L97.92 44.14Q102.27 42.33 107.30 42.33L107.27 42.30L107.32 42.34Q108.53 42.15 109.98 42.30ZM107.97 31.88L107.99 31.90L107.95 31.87Q108.63 31.74 109.54 32.20L109.52 32.17L109.65 32.31Q109.60 32.49 109.76 33.55L109.90 33.70L109.88 33.68Q109.99 34.97 109.05 36.01L109.10 36.06L109.03 35.99Q108.18 37.12 106.77 37.00L106.69 36.92L105.35 37.18L105.21 37.04Q104.43 37.06 103.71 37.17L103.72 37.19L103.88 37.34Q104.15 35.48 104.23 32.02L104.18 31.98L104.08 31.87Q104.72 31.79 105.98 31.76L106.15 31.92L106.03 31.80Q107.42 31.90 108.03 31.94ZM106.99 22.34L106.96 22.31L107.26 22.23L107.37 22.34Q107.54 22.28 107.73 22.32L107.63 22.22L108.07 22.27L108.36 22.37L109.02 22.50L109.01 22.49Q109.12 22.75 109.12 23.06L109.13 23.06L109.21 23.68L109.13 23.60Q109.16 24.89 108.29 25.82L108.24 25.78L108.29 25.82Q107.29 26.63 106.07 26.63L106.21 26.77L106.13 26.69Q105.22 26.81 105.22 26.81L105.06 26.65L105.21 26.80Q103.88 26.76 104.22 26.76L104.10 26.64L104.10 26.64Q104.09 25.15 103.78 22.10L103.84 22.15L103.72 22.04Q105.40 22.27 106.92 22.27Z"/><path d="M20 47 C65 28,94 16,140 35" stroke="#4f96dd" fill="none"/><path fill="#6845d3" d="M31.62 49.57L31.73 49.68L31.74 49.69Q34.64 45.81 37.53 39.61L37.49 39.57L37.43 39.50Q34.35 33.00 28.26 24.93L28.22 24.89L28.19 24.86Q30.18 26.09 32.96 26.73L32.92 26.70L32.95 26.72Q36.44 31.35 38.88 36.57L38.83 36.52L38.92 36.61Q41.08 31.31 44.16 26.89L44.09 26.83L44.08 26.82Q46.48 26.66 48.57 25.86L48.43 25.72L48.57 25.85Q45.05 29.57 41.59 37.00L41.62 37.03L38.72 42.96L38.75 42.99Q37.36 46.17 35.61 48.79L35.48 48.67L35.52 48.71Q33.21 49.18 31.77 49.71ZM37.84 50.95L37.85 50.96L37.79 50.91Q39.66 48.17 41.11 44.89L41.10 44.89L43.70 38.42L43.72 38.44Q47.21 30.40 50.53 26.41L50.58 26.46L50.49 26.37Q49.31 27.21 47.41 27.90L47.28 27.77L48.33 26.38L48.45 26.50Q48.99 25.78 49.60 25.10L49.52 25.02L49.60 25.10Q46.75 25.98 43.90 26.44L44.07 26.61L43.95 26.49Q41.30 30.50 39.36 34.96L39.21 34.81L39.30 34.90Q37.58 31.50 35.79 28.69L35.87 28.77L35.85 28.75Q35.75 28.84 35.39 28.80L35.32 28.74L35.23 28.64Q34.91 28.65 34.72 28.65L34.68 28.61L34.77 28.70Q34.05 27.48 33.09 26.33L33.03 26.27L33.03 26.27Q29.89 25.64 27.14 23.92L27.14 23.92L27.17 23.95Q33.42 31.95 37.11 39.57L37.13 39.59L37.14 39.60Q34.90 44.59 30.83 50.22L30.78 50.17L30.86 50.25Q31.73 50.02 32.53 49.87L32.55 49.89L34.03 49.39L34.17 49.53Q33.53 50.22 32.35 51.86L32.22 51.72L32.30 51.81Q34.55 51.17 37.83 50.94Z"/><path fill="#718fe9" d="M131.67 41.04L131.71 41.09L130.06 41.14L130.11 41.19Q126.58 41.06 125.63 38.93L125.71 39.01L125.72 39.01Q126.85 37.94 128.30 36.84L128.28 36.82L128.41 36.94Q128.94 39.08 131.80 38.92L131.72 38.84L131.69 38.82Q132.65 38.95 133.68 38.72L133.52 38.56L133.56 38.59Q134.46 38.05 134.39 37.10L134.46 37.17L134.53 37.24Q134.27 35.95 132.48 35.27L132.48 35.27L128.73 33.81L128.68 33.76Q126.45 32.52 126.11 28.97L126.04 28.91L126.19 29.06Q125.81 26.73 127.98 26.16L128.07 26.25L128.00 26.19Q129.07 26.07 132.04 26.07L131.90 25.94L131.95 25.99Q136.96 26.12 137.88 28.64L137.77 28.53L137.79 28.55Q137.07 29.01 136.34 29.46L136.43 29.55L135.03 30.50L135.07 30.55Q134.48 28.55 131.24 28.32L131.26 28.34L131.27 28.34Q130.68 28.37 129.65 28.79L129.73 28.86L129.62 28.76Q129.02 29.07 129.02 30.17L129.10 30.26L129.08 30.23Q129.44 31.32 131.27 32.00L131.19 31.93L131.20 31.94Q132.26 32.31 134.93 33.42L135.10 33.58L134.94 33.42Q136.76 34.26 136.95 36.81L136.98 36.83L137.02 36.87Q137.16 37.59 137.08 38.58L136.93 38.43L136.98 38.48Q136.91 39.32 136.34 39.97L136.33 39.95L136.42 40.05Q134.72 41.05 131.68 41.05ZM136.60 43.81L136.62 43.82L136.46 43.67Q137.43 43.76 138.80 43.45L138.73 43.39L138.80 43.45Q139.82 42.73 139.63 41.51L139.59 41.46L139.64 41.52Q139.52 40.90 139.22 39.30L139.32 39.40L139.26 39.35Q138.69 36.38 136.90 35.16L137.05 35.31L137.04 35.29Q136.53 33.91 135.27 33.19L135.12 33.04L135.21 33.12Q133.95 32.70 131.48 31.75L131.55 31.83L131.38 31.66Q131.64 31.31 131.91 31.19L131.85 31.14L131.95 31.23Q132.44 30.66 133.08 30.62L133.22 30.76L133.17 30.70Q134.00 30.69 134.76 30.96L134.76 30.96L134.82 31.10L134.72 30.88L135.06 31.04L135.05 31.07L134.96 30.97Q136.05 31.46 136.24 32.71L136.27 32.74L136.24 32.71Q137.51 31.88 139.41 30.21L139.48 30.27L139.55 30.35Q139.14 29.48 138.15 28.30L138.28 28.43L138.18 28.33Q137.06 25.65 131.96 25.54L131.96 25.54L132.08 25.66Q128.85 25.55 126.87 26.12L126.82 26.07L126.86 26.11Q125.44 26.67 125.67 28.76L125.63 28.72L125.74 28.84Q125.75 29.99 126.66 32.08L126.71 32.13L126.79 32.21Q127.29 33.28 128.32 34.00L128.30 33.99L128.23 33.92Q128.97 35.46 130.27 36.14L130.34 36.21L130.27 36.15Q131.16 36.35 132.11 36.73L132.14 36.75L134.00 37.47L134.03 37.51Q133.72 38.64 131.78 38.52L131.79 38.54L131.73 38.48Q131.42 38.66 130.20 38.36L130.07 38.23L130.12 38.12L129.97 38.21L129.96 38.19Q129.03 37.76 128.39 36.28L128.40 36.29L128.47 36.36Q126.24 37.83 125.14 38.97L125.24 39.07L125.13 38.96Q125.45 39.89 126.48 40.68L126.50 40.71L126.28 40.80L126.40 40.91Q127.83 43.03 132.05 43.41L132.01 43.36L131.96 43.31Q133.37 43.58 136.60 43.81Z"/><path fill="#6ceead" d="M32.61 30.25L32.63 30.27L32.73 30.36Q32.81 29.95 32.78 29.53L32.87 29.63L32.84 29.60Q32.61 29.07 32.31 28.88L32.47 29.04L32.40 28.97Q31.63 28.35 30.76 28.51L30.89 28.64L30.76 28.51Q29.82 28.63 28.18 29.73L28.02 29.57L28.17 29.73Q26.72 30.60 26.72 31.78L26.72 31.78L26.61 31.66Q26.73 33.04 26.73 36.35L26.63 36.25L26.70 36.33Q26.62 38.83 26.77 40.85L26.81 40.89L26.89 40.97Q25.09 40.88 25.09 40.88L25.14 40.93L25.12 40.91Q23.99 40.74 23.27 40.81L23.35 40.89L23.31 40.85Q23.78 38.40 23.86 36.15L23.96 36.25L23.81 36.10Q24.02 31.51 23.37 30.22L23.43 30.28L23.45 30.29Q23.12 29.67 22.55 29.36L22.49 29.30L22.62 29.43Q21.61 28.53 20.05 28.42L20.15 28.52L20.23 28.60Q18.05 28.21 17.51 29.81L17.56 29.86L17.64 29.93Q17.47 30.41 17.58 30.90L17.54 30.86L17.63 30.95Q18.28 33.69 17.94 36.47L17.93 36.47L17.77 36.30Q17.55 39.21 16.14 41.64L16.08 41.58L16.21 41.71Q15.20 41.88 13.11 42.30L13.10 42.29L13.14 42.33Q15.52 38.96 15.52 34.66L15.56 34.70L15.51 34.65Q15.50 28.78 11.46 24.55L11.58 24.67L11.51 24.60Q12.23 24.86 13.18 25.09L13.15 25.06L14.84 25.42L14.92 25.50Q15.35 26.08 16.22 27.75L16.33 27.86L16.38 27.91Q16.43 25.90 18.87 25.86L18.97 25.97L18.96 25.95Q18.99 25.80 19.98 25.88L20.00 25.89L19.93 25.82Q25.10 26.31 26.24 29.13L26.25 29.14L26.17 29.05Q27.80 26.31 32.83 25.78L32.81 25.76L32.80 25.75Q33.57 25.65 34.45 25.76L34.52 25.84L34.55 25.86Q36.81 26.11 36.66 27.67L36.52 27.53L36.49 27.50Q36.57 28.30 36.30 29.06L36.32 29.08L36.14 28.90Q34.76 31.94 34.99 35.48L35.10 35.58L35.06 35.55Q35.16 38.92 37.06 41.74L37.09 41.77L37.19 41.86Q35.52 41.53 33.70 41.30L33.56 41.17L33.63 41.24Q32.44 38.72 32.25 35.94L32.25 35.94L32.25 35.94Q32.04 33.06 32.68 30.32ZM33.52 41.74L33.50 41.71L33.44 41.66Q34.15 41.72 35.48 41.91L35.42 41.85L35.47 41.90Q35.95 42.57 37.09 43.98L37.15 44.03L37.21 44.09Q40.14 44.67 42.24 45.32L42.11 45.19L42.24 45.32Q37.17 41.35 36.90 34.84L36.93 34.87L36.80 34.74Q36.76 32.68 37.37 30.78L37.32 30.73L37.45 30.85Q37.54 29.85 37.54 29.12L37.63 29.21L37.57 29.15Q37.62 28.29 37.01 27.71L37.09 27.79L37.06 27.73L36.91 27.58Q36.98 27.08 36.91 26.58L36.95 26.63L36.99 26.67Q36.85 26.11 36.40 25.85L36.41 25.86L36.43 25.88Q35.76 25.40 34.89 25.36L34.94 25.42L34.95 25.43Q31.97 25.19 29.31 26.14L29.29 26.12L29.47 26.30Q27.49 26.99 26.31 28.39L26.24 28.33L26.15 28.24Q24.73 25.91 19.90 25.56L19.86 25.53L19.85 25.52Q19.09 25.40 18.67 25.40L18.66 25.39L18.82 25.55Q16.61 25.40 16.00 26.66L16.03 26.69L16.09 26.74Q15.84 26.30 15.15 25.24L15.13 25.21L15.05 25.13Q12.67 24.70 10.70 24.05L10.61 23.97L10.67 24.03Q15.23 28.32 15.23 34.60L15.29 34.66L15.35 34.72Q15.26 39.35 12.40 42.81L12.34 42.75L12.46 42.87Q12.94 42.74 13.43 42.66L13.28 42.51L14.37 42.46L14.26 42.35Q13.70 43.54 12.60 44.76L12.46 44.62L12.59 44.75Q14.19 44.41 17.31 43.80L17.26 43.75L17.34 43.83Q19.92 39.63 19.92 34.72L20.00 34.81L20.01 34.81Q19.86 33.87 19.79 33.03L19.85 33.09L19.87 33.11Q19.76 32.32 20.75 31.52L20.79 31.56L20.69 31.50L20.78 31.59Q21.37 31.11 22.55 31.00L22.50 30.95L22.59 31.04Q22.98 31.01 23.29 31.01L23.29 31.02L23.42 31.33L23.34 31.26Q23.66 34.01 23.54 36.37L23.57 36.40L23.44 36.26Q23.47 38.69 22.97 41.35L22.90 41.28L22.86 41.25Q23.92 41.28 23.92 41.28L23.98 41.34L23.97 41.32Q25.30 41.21 24.96 41.21L24.92 41.17L24.94 41.19Q25.12 41.86 25.08 42.32L24.97 42.21L24.92 42.16Q24.87 42.60 24.87 43.10L24.95 43.18L27.41 43.16L27.47 43.23Q28.73 43.23 29.98 43.30L29.89 43.21L29.93 43.25Q28.35 39.50 28.54 33.56L28.61 33.63L28.65 33.67Q28.62 32.50 29.80 31.74L29.75 31.69L29.81 31.74Q30.69 30.91 31.94 30.72L31.98 30.75L32.38 30.85L32.40 30.87Q31.87 32.70 31.87 34.68L31.80 34.61L31.99 34.80Q31.87 38.45 33.39 41.61ZM28.00 30.21L28.16 30.13L27.84 30.15L27.87 30.07Z"/><path fill="#72cae8" d="M88.36 22.96L88.46 23.06L88.42 23.02Q86.63 25.77 83.97 31.40L83.91 31.34L82.04 35.71L82.01 35.68Q81.02 37.48 79.69 39.72L79.82 39.85L79.84 39.88Q80.14 39.72 78.47 39.76L78.53 39.82L78.46 39.75Q78.47 39.76 77.22 39.76L77.28 39.82L77.23 39.78Q76.50 38.29 73.57 31.13L73.58 31.13L73.68 31.24Q71.52 25.88 69.43 22.88L69.29 22.73L69.31 22.76Q70.08 25.85 70.08 29.01L70.08 29.00L70.15 29.08Q70.11 35.55 67.14 41.10L67.11 41.08L67.24 41.21Q65.78 41.42 63.42 42.15L63.47 42.19L63.45 42.17Q67.09 36.45 67.09 29.22L67.13 29.26L67.08 29.21Q67.11 20.29 61.71 13.33L61.67 13.29L61.87 13.49Q63.38 14.09 65.74 14.78L65.75 14.78L65.73 14.76Q72.76 21.49 78.85 34.81L78.96 34.92L79.00 34.96Q82.47 27.92 84.68 24.42L84.59 24.33L84.63 24.37Q88.16 18.53 92.12 15.07L92.09 15.04L92.06 15.01Q93.43 14.90 95.79 14.14L95.76 14.11L95.80 14.15Q90.79 20.75 90.79 29.35L90.72 29.28L90.71 29.28Q90.71 35.94 94.14 41.46L94.27 41.59L94.15 41.46Q92.78 41.13 90.04 40.52L90.23 40.70L90.08 40.56Q87.77 35.81 87.77 29.84L87.76 29.82L87.79 29.85Q87.74 26.38 88.43 23.03ZM89.96 41.01L89.88 40.92L89.98 41.03Q90.58 41.06 92.03 41.33L92.16 41.46L92.06 41.36Q92.46 42.06 93.41 43.54L93.50 43.63L93.42 43.56Q95.58 44.00 99.04 45.22L99.16 45.34L99.16 45.33Q92.79 38.89 92.79 29.06L92.75 29.03L92.70 28.98Q92.88 21.43 97.26 15.30L97.18 15.23L95.01 15.94L95.04 15.98Q96.06 14.45 96.71 13.57L96.69 13.55L96.56 13.42Q94.80 14.18 92.17 14.71L92.15 14.69L92.12 14.65Q85.44 20.84 79.38 33.44L79.29 33.34L79.33 33.39Q74.07 22.34 69.12 17.08L69.14 17.10L69.15 17.11Q68.88 17.15 68.31 17.04L68.33 17.05L67.05 15.70L66.93 15.58Q66.36 14.93 65.67 14.32L65.72 14.37L65.83 14.48Q62.64 13.34 60.85 12.62L60.95 12.73L60.95 12.72Q66.89 19.88 66.89 29.28L66.96 29.36L66.92 29.31Q66.96 36.97 62.81 42.83L62.72 42.74L62.73 42.75Q63.49 42.59 64.78 42.18L64.65 42.05L64.77 42.16Q64.55 42.32 63.14 44.42L63.17 44.45L63.22 44.50Q65.01 44.01 68.52 43.24L68.42 43.15L68.54 43.27Q72.33 36.29 72.14 28.52L72.07 28.45L71.95 28.33Q73.53 32.38 76.99 40.26L77.12 40.39L76.97 40.24Q77.23 40.20 77.46 40.20L77.52 40.25L77.94 40.14L78.08 40.29Q78.46 40.90 79.26 42.19L79.37 42.29L79.27 42.20Q80.91 42.20 80.91 42.20L81.00 42.29L80.91 42.20Q81.84 42.10 82.49 42.18L82.59 42.28L82.52 42.21Q84.16 38.25 87.51 30.26L87.55 30.30L87.37 30.12Q87.35 35.65 89.94 40.98Z"/><path fill="#c779e0" d="M111.22 14.35L111.27 14.40L111.22 14.35Q113.75 16.04 115.50 16.46L115.54 16.50L115.54 16.50Q116.73 22.87 116.73 29.45L116.86 29.58L116.85 29.57Q116.73 33.44 116.19 37.44L116.18 37.43L116.34 37.59Q118.54 37.09 121.02 37.16L120.90 37.05L120.86 37.01Q123.51 37.26 125.64 37.98L125.61 37.96L125.64 37.98Q125.88 39.44 126.34 41.00L126.35 41.01L126.25 40.91Q122.88 39.56 119.04 39.83L119.12 39.92L119.01 39.80Q115.26 40.16 112.02 42.07L112.06 42.11L112.02 42.07Q114.27 35.25 114.00 28.25L113.96 28.21L113.97 28.21Q113.58 21.01 111.14 14.27ZM111.41 42.71L111.41 42.71L111.42 42.72Q112.14 42.38 113.51 41.65L113.53 41.67L113.45 41.59Q113.33 42.38 112.80 43.87L112.75 43.83L112.82 43.89Q116.38 42.24 120.23 42.24L120.31 42.32L120.26 42.27Q125.85 42.23 129.96 45.27L129.94 45.25L129.88 45.19Q129.21 43.69 128.18 40.72L128.30 40.83L128.17 40.70Q127.19 40.14 126.31 39.75L126.37 39.82L126.40 39.84Q126.17 39.05 125.87 37.64L125.97 37.74L125.83 37.60Q123.17 36.65 120.16 36.65L120.25 36.74L120.30 36.79Q119.51 36.76 118.71 36.80L118.58 36.67L118.60 36.69Q118.92 31.84 118.85 27.72L118.83 27.71L118.87 27.74Q118.74 23.58 118.40 18.59L118.38 18.58L118.44 18.64Q116.99 18.48 116.19 18.29L116.24 18.34L116.14 18.24Q116.06 17.55 115.83 16.14L115.79 16.10L115.94 16.25Q112.82 15.41 110.57 13.47L110.55 13.45L110.59 13.49Q113.25 20.49 113.52 27.99L113.54 28.01L113.48 27.96Q113.93 35.67 111.53 42.83Z"/><path fill="#52dab8" d="M88.66 29.61L88.71 29.65L88.73 29.68Q88.76 33.97 88.04 38.12L87.98 38.06L87.92 38.00Q90.16 37.43 93.25 37.31L93.40 37.46L93.21 37.28Q94.66 37.59 95.73 36.58L95.70 36.55L95.72 36.57Q96.68 35.45 96.68 34.12L96.71 34.15L96.80 34.25Q96.70 33.84 96.66 33.57L96.76 33.66L96.82 33.73Q96.50 30.63 94.26 29.79L94.31 29.85L94.31 29.85Q93.55 29.54 92.86 29.62L92.81 29.57L92.90 29.66Q91.78 29.53 90.75 29.56L90.76 29.58L90.83 29.64Q89.69 29.60 88.66 29.60ZM87.56 19.30L87.42 19.15L87.49 19.22Q88.28 22.45 88.55 26.83L88.66 26.94L88.55 26.83Q90.16 27.11 92.82 27.14L92.82 27.14L92.73 27.05Q95.70 27.13 96.05 23.59L96.03 23.57L96.03 23.58Q96.19 21.61 94.79 20.77L94.86 20.85L94.71 20.69Q93.82 20.19 89.41 19.54L89.44 19.57L89.44 19.57Q88.45 19.50 87.54 19.27ZM83.75 42.02L83.78 42.05L83.87 42.14Q86.37 35.50 86.11 28.12L85.98 27.99L86.09 28.10Q85.77 20.77 82.83 14.30L82.88 14.35L82.73 14.19Q86.51 16.72 92.73 16.97L92.82 17.05L92.82 17.05Q99.03 17.28 99.37 20.18L99.30 20.10L99.48 20.28Q99.75 22.99 98.34 25.66L98.27 25.59L98.33 25.64Q97.56 27.12 95.96 27.80L95.95 27.80L95.91 27.76Q99.56 28.44 99.79 33.81L99.93 33.94L99.84 33.85Q99.97 35.02 99.90 36.42L99.92 36.45L99.93 36.46Q99.75 37.65 98.82 38.58L98.92 38.69L98.88 38.64Q98.04 39.67 96.71 39.83L96.62 39.73L96.67 39.78Q95.10 39.77 94.03 39.77L94.12 39.86L94.17 39.91Q88.37 39.83 83.84 42.11ZM96.69 42.47L96.68 42.46L96.61 42.39Q97.65 42.55 99.51 42.67L99.45 42.61L99.38 42.54Q100.94 42.72 102.04 41.85L101.93 41.74L102.02 41.82Q102.77 40.86 102.66 39.30L102.63 39.27L102.67 39.31Q102.56 38.32 101.83 34.86L101.89 34.92L101.75 34.77Q101.07 31.55 99.21 30.06L99.29 30.15L98.79 29.23L98.89 29.33Q100.55 27.90 101.12 24.13L101.12 24.13L101.13 24.14Q101.24 22.96 101.16 21.55L101.15 21.53L101.23 21.62Q101.13 20.26 100.02 19.42L100.10 19.49L99.99 19.39Q99.63 19.14 99.52 19.11L99.55 19.14L99.68 19.27Q99.32 18.64 98.48 17.84L98.54 17.90L98.48 17.84Q97.09 16.90 92.86 16.71L92.74 16.59L92.70 16.55Q86.12 16.33 82.12 13.43L82.10 13.41L82.08 13.39Q85.49 20.53 85.79 28.07L85.66 27.94L85.68 27.96Q86.13 35.91 83.32 42.84L83.28 42.80L85.37 41.89L85.40 41.91Q84.87 42.91 84.37 44.05L84.36 44.03L84.49 44.16Q88.75 42.26 93.77 42.26L93.78 42.26L93.86 42.34Q95.14 42.21 96.59 42.36ZM94.44 31.80L94.55 31.91L94.53 31.90Q95.22 31.79 96.14 32.25L96.07 32.18L96.05 32.16Q96.17 32.50 96.32 33.57L96.31 33.56L96.43 33.69Q96.50 34.93 95.57 35.98L95.55 35.96L95.74 36.16Q94.62 37.02 93.22 36.90L93.35 37.04L91.74 37.03L91.74 37.02Q91.05 37.13 90.33 37.25L90.32 37.24L90.35 37.27Q90.57 35.36 90.65 31.90L90.77 32.02L90.68 31.93Q91.44 31.96 92.69 31.93L92.61 31.84L92.62 31.85Q93.97 31.90 94.58 31.94ZM93.52 22.32L93.40 22.20L93.80 22.22L93.84 22.26Q94.06 22.25 94.25 22.29L94.23 22.27L94.64 22.30L95.06 22.53L95.66 22.60L95.57 22.50Q95.58 22.66 95.58 22.97L95.74 23.14L95.73 23.65L95.57 23.49Q95.59 24.77 94.72 25.71L94.84 25.83L94.87 25.85Q93.92 26.72 92.71 26.72L92.74 26.76L92.75 26.76Q91.71 26.75 91.71 26.75L91.59 26.63L91.58 26.63Q90.28 26.62 90.62 26.62L90.73 26.72L90.72 26.71Q90.71 25.22 90.41 22.18L90.29 22.06L90.26 22.03Q91.85 22.18 93.38 22.18Z"/></svg>