<svg xmlns="http://www.w3.org/2000/svg" width="150" height="50" viewBox="0,0,150,50"><path fill="#3f66de" d="M43.25 40.98L43.31 41.04L43.15 40.88Q41.84 39.19 40.54 36.11L40.54 36.10L38.51 31.07L38.46 31.01Q36.82 34.97 36.21 36.26L36.23 36.28L36.24 36.30Q34.91 39.34 33.31 41.24L33.23 41.17L33.32 41.25Q32.81 41.12 32.05 41.24L32.11 41.30L32.19 41.38Q32.04 33.80 26.21 27.86L26.32 27.97L26.23 27.88Q24.58 26.15 22.56 24.67L22.57 24.68L22.49 24.60Q24.36 25.17 26.22 25.48L26.19 25.44L26.32 25.58Q32.38 30.53 33.83 36.78L33.66 36.61L33.65 36.60Q34.71 34.92 35.89 31.72L35.83 31.66L35.86 31.69Q37.14 27.87 37.71 26.57L37.81 26.67L39.14 26.59L39.17 26.63Q40.03 28.32 41.21 31.59L41.15 31.54L41.21 31.60Q42.48 35.19 43.13 36.60L43.08 36.54L43.07 36.54Q44.92 30.28 50.41 25.72L50.47 25.78L50.51 25.82Q51.63 25.64 54.37 25.07L54.51 25.21L54.44 25.14Q45.72 31.08 44.54 41.05L44.52 41.04L43.94 40.99L43.99 41.04Q43.53 40.88 43.19 40.92ZM46.30 43.50L48.24 43.57L48.26 43.59Q47.90 42.02 47.90 40.50L47.89 40.49L48.04 40.63Q47.90 37.26 49.31 34.02L49.42 34.13L49.35 34.06Q51.23 29.43 55.34 26.35L55.34 26.35L55.52 26.52Q54.18 26.68 52.32 27.02L52.43 27.13L52.41 27.11Q54.24 25.33 55.54 24.41L55.58 24.45L53.10 24.94L53.21 25.06Q51.99 25.28 50.65 25.43L50.58 25.36L50.56 25.33Q45.32 29.50 43.38 34.52L43.50 34.65L43.45 34.59Q42.89 32.51 41.52 28.25L41.51 28.24L41.33 28.06Q41.07 28.14 40.80 28.14L40.89 28.23L40.29 28.16L40.26 28.13Q40.26 27.94 39.46 26.19L39.50 26.23L37.27 26.05L37.42 26.21Q36.44 28.99 34.34 34.63L34.30 34.58L34.34 34.62Q32.92 30.85 29.84 27.57L29.85 27.58L29.98 27.72Q29.58 27.58 29.28 27.54L29.40 27.67L28.76 27.48L28.72 27.45Q28.00 26.76 26.21 25.16L26.14 25.09L26.09 25.04Q22.98 24.45 21.31 23.95L21.33 23.97L21.37 24.02Q31.95 31.32 31.57 41.64L31.65 41.72L31.56 41.63Q31.89 41.77 32.25 41.73L32.11 41.59L32.23 41.71Q32.62 41.69 32.81 41.69L32.83 41.72L32.82 41.71Q32.84 41.57 33.03 43.67L32.87 43.51L34.94 43.48L34.89 43.43Q37.49 40.63 39.74 34.88L39.67 34.81L39.69 34.84Q41.24 38.74 43.10 41.41L43.15 41.46L43.00 41.30Q43.28 41.24 43.55 41.26L43.67 41.38L43.59 41.31Q43.81 41.28 44.08 41.28L44.09 41.29L46.29 43.49Z"/><path fill="#90a5e4" d="M90.27 39.99L90.17 39.89L90.22 39.94Q86.01 39.34 84.18 37.90L84.10 37.81L84.26 37.98Q82.32 36.42 81.90 33.41L81.94 33.45L82.01 33.52Q81.96 33.13 81.62 28.37L81.49 28.24L81.52 28.27Q81.72 27.25 81.64 25.99L81.49 25.85L81.62 25.98Q81.39 20.87 83.60 19.12L83.67 19.19L83.54 19.06Q86.29 17.05 94.05 16.36L94.02 16.33L93.98 16.29Q95.31 16.13 96.94 16.17L97.07 16.30L96.98 16.21Q96.94 16.17 99.91 16.17L99.96 16.22L99.88 16.13Q100.80 16.21 102.51 16.37L102.56 16.42L102.60 16.45Q102.08 17.39 101.05 20.47L100.90 20.31L100.88 20.29Q98.96 19.25 95.95 19.25L95.88 19.18L95.85 19.15Q95.07 19.13 94.27 19.21L94.33 19.27L94.30 19.23Q89.29 19.78 86.78 21.76L86.60 21.59L86.70 21.69Q84.62 23.23 84.47 26.58L84.62 26.73L84.43 26.54Q84.58 27.33 84.62 28.59L84.50 28.47L84.52 28.49Q84.73 33.42 87.13 35.52L87.05 35.44L87.14 35.53Q89.27 37.43 94.25 37.73L94.10 37.58L94.18 37.66Q97.35 37.85 100.35 36.06L100.26 35.97L100.35 36.06Q100.98 38.82 101.59 40.19L101.60 40.21L101.58 40.18Q99.42 40.39 97.79 40.35L97.85 40.42L97.86 40.42Q93.35 40.33 90.23 39.94ZM105.35 43.69L105.41 43.75L105.40 43.73Q103.45 40.57 102.77 37.98L102.90 38.11L102.84 38.05Q102.51 38.41 101.52 38.79L101.38 38.65L101.45 38.72Q101.17 37.98 100.98 37.14L100.97 37.14L100.60 35.44L100.49 35.32Q97.34 37.51 94.22 37.39L94.17 37.34L94.09 37.26Q89.83 37.07 87.50 35.32L87.61 35.43L87.53 35.35Q86.44 33.57 86.52 30.64L86.47 30.59L86.40 30.52Q86.66 26.13 89.13 24.00L89.19 24.06L89.15 24.02Q91.29 22.12 95.97 21.52L95.87 21.42L95.83 21.37Q96.66 21.30 97.39 21.30L97.34 21.25L97.36 21.27Q100.19 21.32 102.28 22.84L102.40 22.96L102.28 22.84Q102.76 20.70 103.98 17.46L104.00 17.48L104.10 17.58Q103.83 17.58 103.28 17.52L103.20 17.44L103.20 17.44Q102.65 17.38 102.38 17.38L102.37 17.37L102.33 17.33Q102.52 16.80 102.98 15.81L103.02 15.85L103.07 15.90Q102.73 15.79 100.23 15.71L100.31 15.78L100.39 15.87Q97.79 15.69 97.15 15.73L97.25 15.82L97.22 15.80Q86.63 16.06 83.16 18.64L83.20 18.68L83.27 18.75Q81.27 20.60 81.27 24.52L81.13 24.38L81.24 24.49Q81.14 25.49 81.25 28.19L81.25 28.19L81.23 28.17Q81.42 31.78 81.64 33.50L81.64 33.49L81.55 33.40Q82.09 36.68 83.69 38.20L83.56 38.08L83.60 38.12Q84.19 38.90 85.45 40.04L85.32 39.91L85.43 40.02Q88.65 41.76 93.90 42.52L93.82 42.44L93.95 42.57Q100.37 43.51 105.36 43.70Z"/><path fill="#59e759" d="M112.67 37.94L112.60 37.87L112.54 37.81Q113.01 38.95 113.54 40.97L113.40 40.84L113.41 40.85Q109.19 39.52 104.59 39.79L104.64 39.84L104.63 39.83Q100.17 40.20 96.17 42.18L96.03 42.04L96.00 42.01Q96.39 41.48 96.42 41.56L96.39 41.52L96.35 41.49Q100.03 37.47 103.95 33.06L104.04 33.15L104.10 33.21Q108.40 28.10 109.58 23.42L109.52 23.36L109.60 23.44Q110.06 21.70 108.79 20.52L108.69 20.42L108.85 20.58Q107.55 19.38 105.77 19.53L105.65 19.42L105.75 19.52Q105.43 19.50 105.09 19.50L105.09 19.50L105.13 19.54Q103.49 19.43 102.24 20.34L102.26 20.37L102.33 20.43Q100.93 21.70 101.16 24.36L101.25 24.46L101.20 24.41Q99.31 23.96 98.09 23.51L98.09 23.50L98.23 23.65Q97.91 22.11 97.84 20.66L97.82 20.64L98.00 20.82Q97.86 19.12 98.46 17.98L98.38 17.90L98.48 18.00Q100.30 16.65 103.65 16.65L103.55 16.55L105.32 16.58L105.41 16.67Q107.66 16.67 108.61 16.78L108.59 16.76L108.50 16.67Q112.90 17.15 113.17 19.59L113.16 19.58L113.21 19.63Q113.31 20.22 113.23 21.02L113.21 21.00L113.12 20.91Q113.12 21.60 112.97 22.28L112.97 22.28L113.01 22.33Q111.39 30.45 103.81 37.30L103.76 37.25L103.81 37.30Q105.12 37.05 106.49 37.05L106.58 37.13L106.49 37.05Q109.84 37.16 112.69 37.96ZM112.11 17.12L112.03 17.04L112.02 17.03Q110.39 16.35 108.67 16.27L108.70 16.30L105.40 16.23L105.27 16.10Q100.81 15.83 98.60 16.94L98.60 16.94L98.62 16.95Q97.63 18.40 97.63 20.46L97.56 20.38L97.54 20.37Q97.67 21.18 97.97 24.00L98.01 24.03L98.02 24.05Q98.49 24.21 99.67 24.52L99.58 24.42L99.62 25.49L99.64 25.51Q99.57 25.94 99.65 26.47L99.62 26.45L99.71 26.53Q100.98 26.67 103.46 26.89L103.46 26.90L103.34 26.78Q103.40 26.49 103.40 26.15L103.47 26.23L103.44 26.19Q103.35 24.27 104.57 22.92L104.70 23.06L104.65 23.01Q105.76 21.55 107.55 21.66L107.71 21.81L107.63 21.74Q108.30 21.68 109.06 21.83L109.09 21.87L109.06 21.84Q109.33 22.38 109.41 22.79L109.43 22.81L109.23 22.62Q109.39 23.16 109.31 23.50L109.20 23.39L109.39 23.57Q108.08 28.28 103.67 33.12L103.58 33.03L103.57 33.02Q101.43 35.26 95.99 41.31L96.05 41.38L96.11 41.44Q95.77 42.12 95.43 42.69L95.53 42.80L95.51 42.78Q97.03 41.82 98.55 41.29L98.61 41.34L98.64 41.37Q97.96 42.00 97.01 43.48L96.87 43.34L96.88 43.35Q96.94 43.86 96.83 44.21L96.82 44.20L96.71 44.10Q101.59 42.05 107.07 42.24L107.02 42.18L107.08 42.24Q112.74 42.38 117.31 44.74L117.35 44.78L116.42 42.71L116.37 42.66Q115.61 41.22 115.35 40.42L115.38 40.46L115.35 40.43Q114.70 40.08 113.49 39.66L113.49 39.66L113.43 39.61Q113.31 38.91 112.93 37.54L113.03 37.65L113.03 37.65Q110.81 37.07 108.53 36.88L108.45 36.80L108.42 36.77Q113.11 32.21 114.64 23.95L114.58 23.89L114.95 21.17L114.91 21.14Q114.76 19.28 113.54 18.59L113.51 18.56L113.44 18.52L113.54 18.62Q113.51 18.56 113.43 18.56L113.40 18.52L113.32 18.44Q113.22 17.74 112.12 17.13Z"/><path d="M5 14 C73 22,71 38,147 33" stroke="#48e970" fill="none"/><path fill="#dd3a3a" d="M141.73 34.64L141.73 34.64L141.86 34.77Q141.88 38.37 138.72 39.66L138.67 39.61L138.68 39.63Q136.77 40.42 132.36 40.57L132.28 40.49L132.23 40.45Q127.51 40.64 125.26 39.45L125.25 39.44L125.29 39.48Q123.38 38.10 123.53 34.75L123.60 34.82L123.65 34.87Q123.63 34.21 123.82 32.23L123.87 32.27L123.84 32.25Q123.93 30.63 123.93 29.64L124.00 29.70L124.01 29.71Q123.90 21.61 119.72 14.19L119.77 14.24L119.66 14.14Q120.88 14.86 123.85 15.93L123.90 15.97L123.79 15.87Q126.68 22.59 126.68 29.98L126.76 30.06L126.78 30.08Q126.67 30.58 126.57 31.76L126.75 31.93L126.61 31.80Q126.64 33.11 126.64 33.72L126.49 33.56L126.55 33.62Q126.58 35.94 128.14 36.93L128.12 36.90L128.10 36.89Q129.75 37.70 132.72 37.70L132.68 37.66L132.73 37.71Q135.44 37.79 137.08 36.61L137.04 36.57L137.00 36.54Q138.85 35.18 138.69 32.67L138.67 32.65L138.78 32.76Q138.52 31.20 138.52 29.87L138.57 29.92L138.62 29.97Q138.57 22.88 140.97 16.37L141.03 16.43L143.10 15.76L143.17 15.83Q144.15 15.55 145.25 15.09L145.24 15.08L145.30 15.14Q141.61 22.30 141.61 29.88L141.58 29.85L141.58 29.85Q141.60 30.70 141.73 32.34L141.64 32.25L141.75 32.36Q141.83 33.95 141.83 34.74ZM143.94 35.59L143.92 35.58L143.94 35.59Q142.97 30.55 143.69 25.45L143.84 25.60L143.75 25.50Q144.58 20.39 146.98 16.02L146.99 16.03L147.00 16.04Q146.24 16.19 144.79 16.84L144.75 16.80L144.89 16.94Q145.25 16.08 146.05 14.52L145.97 14.44L146.05 14.52Q142.56 15.71 140.65 16.05L140.64 16.04L140.62 16.02Q138.29 22.56 138.29 29.83L138.29 29.83L138.35 29.89Q138.20 31.11 138.28 32.52L138.44 32.68L138.45 32.69Q138.48 34.97 136.69 36.19L136.66 36.16L136.74 36.23Q135.33 37.38 132.82 37.42L132.66 37.26L132.83 37.43Q129.94 37.35 128.49 36.59L128.43 36.53L128.47 36.57Q128.49 36.17 128.42 35.72L128.35 35.65L128.45 35.75Q128.24 35.09 128.36 34.59L128.50 34.73L128.39 34.62Q128.58 32.26 128.58 29.94L128.63 29.99L128.70 30.06Q128.58 24.11 127.05 18.21L127.14 18.30L127.09 18.24Q126.38 18.15 124.97 17.81L125.04 17.88L125.04 17.88Q124.55 16.47 124.09 15.56L124.20 15.66L124.11 15.58Q121.49 14.89 119.09 13.52L119.13 13.56L119.05 13.48Q123.72 21.13 123.72 29.84L123.58 29.70L123.58 29.70Q123.66 31.41 123.50 33.13L123.51 33.13L123.44 33.06Q123.19 35.44 123.27 36.62L123.32 36.67L123.25 36.61Q123.40 38.54 124.66 39.69L124.65 39.68L124.78 39.80Q125.76 42.27 130.41 42.66L130.45 42.70L130.32 42.57Q132.48 42.79 134.62 42.87L134.68 42.93L134.65 42.91Q140.02 43.09 142.79 42.14L142.84 42.19L142.68 42.02Q144.37 41.24 144.37 39.19L144.25 39.07L144.32 39.14Q144.46 38.13 144.01 35.66Z"/><path fill="#b787e7" d="M50.14 29.01L50.01 28.89L50.01 28.88Q47.50 28.92 46.47 30.10L46.38 30.01L46.43 30.07Q45.41 31.25 45.41 33.87L45.54 34.01L45.48 33.95Q45.47 39.04 50.08 38.85L50.14 38.91L50.10 38.87Q52.12 38.99 53.47 37.43L53.52 37.48L53.50 37.46Q54.83 35.88 54.61 33.82L54.56 33.77L54.61 33.82Q54.65 31.31 53.77 30.28L53.73 30.24L53.69 30.20Q52.18 28.84 49.97 28.84ZM55.07 38.70L55.05 38.68L55.13 38.76Q53.82 41.10 49.13 41.10L49.24 41.20L47.71 41.12L47.75 41.16Q45.34 41.12 44.24 39.98L44.28 40.02L44.22 39.96Q43.36 39.10 43.10 36.70L43.09 36.69L43.09 36.69Q42.77 35.04 42.69 33.25L42.79 33.35L42.83 33.39Q42.75 32.35 42.59 30.41L42.53 30.34L42.51 30.33Q42.47 26.10 47.64 26.10L47.59 26.05L49.20 26.09L49.27 26.16Q52.17 26.17 54.26 27.46L54.28 27.48L54.24 27.43Q54.94 27.84 55.43 28.52L55.41 28.49L55.46 28.54Q55.76 27.77 56.29 26.14L56.31 26.16L56.21 26.06Q57.54 25.98 59.86 25.37L59.76 25.27L59.92 25.43Q57.29 29.61 57.29 34.87L57.17 34.74L57.29 34.86Q57.27 38.57 58.64 41.66L58.71 41.73L58.56 41.58Q57.47 41.33 55.57 41.10L55.58 41.11L55.49 41.03Q55.37 40.25 55.06 38.69ZM58.30 43.83L58.40 43.94L60.68 44.58L60.52 44.42Q61.76 44.74 62.75 45.20L62.79 45.25L62.70 45.15Q59.17 40.94 59.17 34.85L59.24 34.92L59.11 34.79Q59.18 30.32 61.31 26.52L61.22 26.42L61.27 26.47Q60.57 26.65 59.24 27.03L59.32 27.12L59.40 27.19Q59.63 26.32 60.51 24.80L60.51 24.80L60.49 24.78Q59.99 25.04 55.99 25.88L55.85 25.74L55.44 27.72L55.28 27.57Q53.54 25.86 49.12 25.64L49.22 25.73L49.25 25.76Q48.03 25.68 45.78 25.83L45.76 25.82L45.82 25.88Q42.15 26.24 42.27 30.27L42.29 30.30L42.31 30.32Q42.30 33.50 42.87 37.96L43.00 38.09L43.06 38.56L43.05 38.55Q43.13 39.36 43.93 40.46L43.98 40.52L43.95 40.49Q44.02 40.55 44.21 40.67L44.31 40.77L44.14 40.60Q44.51 41.19 44.89 41.76L44.82 41.70L44.89 41.77Q46.31 43.30 49.70 43.49L49.69 43.48L49.58 43.38Q51.29 43.56 51.44 43.56L51.50 43.62L52.95 43.51L53.01 43.57Q56.22 43.58 57.44 42.02L57.44 42.02L57.51 42.09Q57.77 42.62 58.38 43.91ZM51.89 31.22L51.80 31.13L51.84 31.17Q53.18 31.18 54.02 31.63L54.10 31.72L53.98 31.59Q54.32 32.43 54.32 33.87L54.36 33.92L54.30 33.85Q54.43 35.70 53.16 37.13L53.23 37.21L53.14 37.12Q51.97 38.65 50.07 38.46L49.99 38.38L49.99 38.38Q48.68 38.51 47.65 38.10L47.52 37.97L47.62 38.06Q47.33 37.13 47.33 35.91L47.35 35.93L47.36 35.94Q47.57 32.49 50.19 31.54L50.19 31.54L50.12 31.47Q51.00 31.12 51.80 31.12Z"/><path fill="#4ec1e8" d="M12.80 20.16L12.82 20.18L12.76 20.12Q8.43 20.09 4.73 19.10L4.67 19.03L4.70 19.06Q6.27 23.68 6.46 28.52L6.53 28.58L6.54 28.60Q6.70 33.36 5.48 37.96L5.35 37.84L5.46 37.95Q8.32 37.38 11.82 37.23L11.66 37.07L11.65 37.05Q15.63 36.92 17.42 34.49L17.41 34.48L17.48 34.55Q19.01 32.50 19.20 28.39L19.26 28.45L19.08 28.26Q19.33 26.69 18.88 24.98L18.76 24.86L18.77 24.87Q17.59 20.22 12.87 20.22ZM0.76 42.03L0.92 42.20L0.84 42.12Q3.68 36.39 3.68 29.69L3.65 29.66L3.70 29.71Q3.72 21.20-0.58 14.20L-0.59 14.19L-0.53 14.25Q4.67 16.86 12.93 17.05L12.97 17.09L13.00 17.12Q21.87 17.31 22.21 24.47L22.09 24.35L22.14 24.40Q22.33 27.18 22.30 28.63L22.18 28.51L22.15 28.48Q22.20 33.29 21.36 35.46L21.28 35.38L21.25 35.35Q20.95 36.56 20.18 37.40L20.09 37.30L20.22 37.44Q18.69 38.80 16.06 39.30L16.21 39.45L16.23 39.46Q14.56 39.66 11.56 39.89L11.57 39.90L11.60 39.94Q5.36 40.28 0.76 42.03ZM18.84 42.08L18.74 41.97L18.85 42.08Q21.44 41.59 23.08 40.11L23.15 40.17L23.10 40.13Q24.37 38.43 24.33 35.69L24.27 35.63L24.37 35.73Q24.31 34.30 24.16 30.79L24.26 30.89L23.79 26.24L23.91 26.35Q23.53 23.88 22.58 21.79L22.58 21.79L22.73 21.94Q22.14 20.94 21.46 20.29L21.47 20.30L21.49 20.16L21.44 20.12Q19.68 17.10 15.26 16.72L15.27 16.73L15.44 16.90Q12.73 16.74 5.73 16.02L5.59 15.88L5.56 15.85Q2.39 15.50-1.30 13.48L-1.30 13.48L-1.37 13.41Q3.51 20.85 3.51 29.60L3.42 29.51L3.57 29.66Q3.51 36.61 0.16 42.77L0.24 42.85L0.18 42.79Q0.80 42.46 2.13 41.96L2.21 42.04L2.20 42.03Q1.86 42.87 0.99 44.36L0.88 44.25L1.04 44.41Q4.04 43.30 7.39 42.80L7.41 42.82L7.42 42.84Q9.48 42.50 13.14 42.39L13.11 42.36L13.03 42.28Q16.89 42.14 18.71 41.95ZM18.77 28.34L18.79 28.35L18.76 28.33Q18.47 36.41 11.77 36.79L11.74 36.76L11.76 36.78Q9.74 36.82 7.68 37.08L7.65 37.05L7.82 37.22Q8.55 33.38 8.55 29.72L8.51 29.69L8.45 29.63Q8.39 25.87 7.67 22.03L7.80 22.17L7.81 22.17Q9.94 22.40 14.63 22.40L14.63 22.41L14.77 22.54Q16.05 22.30 17.68 23.25L17.70 23.27L17.71 23.28Q18.89 25.45 18.74 28.31Z"/><path fill="#96e349" d="M23.91 29.10L23.88 29.07L24.02 29.21Q22.08 28.99 20.84 30.41L20.86 30.43L20.90 30.47Q19.58 31.81 19.39 33.72L19.43 33.75L19.39 33.72Q19.11 35.72 20.19 36.69L20.19 36.69L20.30 36.80Q21.42 37.80 23.51 37.69L23.41 37.59L23.50 37.68Q25.52 37.45 26.63 36.77L26.74 36.88L26.66 36.80Q27.77 35.66 27.77 34.10L27.87 34.20L27.82 34.16Q27.83 33.79 27.76 33.41L27.72 33.36L27.80 33.45Q27.77 31.66 26.66 30.31L26.74 30.39L26.68 30.33Q25.54 28.94 23.87 29.06ZM23.54 40.27L23.43 40.15L23.46 40.18Q19.14 40.25 17.74 39.49L17.66 39.41L17.77 39.52Q16.63 38.65 16.44 36.93L16.42 36.91L16.42 36.91Q16.45 36.30 16.49 35.57L16.53 35.62L16.42 35.51Q16.63 34.62 16.63 34.16L16.63 34.16L16.62 34.14Q17.00 31.21 17.15 30.53L17.15 30.53L17.31 30.68Q17.68 28.66 18.52 27.25L18.61 27.35L18.56 27.29Q21.11 22.79 27.04 16.44L27.04 16.43L27.07 16.46Q29.76 16.18 31.97 15.39L32.05 15.47L32.04 15.46Q25.06 22.79 21.86 27.01L21.90 27.06L21.94 27.10Q22.94 26.61 24.24 26.61L24.28 26.66L24.32 26.70Q27.61 26.67 29.13 28.61L29.13 28.61L29.03 28.51Q30.41 30.20 30.76 33.74L30.78 33.76L30.71 33.69Q30.72 34.35 30.72 34.96L30.84 35.08L30.74 34.98Q30.72 38.08 28.51 39.15L28.52 39.15L28.57 39.21Q27.29 39.75 23.41 40.13ZM25.83 42.67L25.85 42.69L25.88 42.72Q27.11 42.62 29.09 42.69L29.02 42.63L29.09 42.69Q30.76 42.80 32.32 42.08L32.23 41.99L32.23 41.99Q33.45 41.31 33.45 39.52L33.27 39.34L33.29 39.35Q33.40 38.97 33.23 37.98L33.28 38.03L33.10 37.85Q33.05 36.99 33.05 36.53L33.07 36.55L32.99 36.47Q32.07 31.70 30.47 29.80L30.61 29.94L30.53 29.86Q30.40 29.69 30.25 29.46L30.41 29.62L30.04 29.34L29.93 29.26L30.02 29.35Q29.55 28.73 28.94 27.78L28.97 27.80L29.02 27.85Q28.04 26.84 26.06 26.38L26.18 26.50L26.19 26.51Q27.39 24.89 30.36 21.20L30.35 21.19L34.43 15.75L34.46 15.78Q32.87 16.62 30.47 17.39L30.50 17.42L30.46 17.38Q31.50 16.51 33.29 14.53L33.25 14.49L33.34 14.58Q30.77 15.48 26.89 16.05L27.06 16.22L26.95 16.11Q21.31 22.09 18.34 27.03L18.29 26.98L18.32 27.01Q16.81 29.54 16.24 35.78L16.13 35.67L16.17 35.71Q16.06 36.25 16.13 37.20L16.10 37.17L16.19 37.26Q16.30 39.05 17.41 39.96L17.33 39.88L17.47 40.02Q17.77 40.09 17.73 40.13L17.71 40.11L17.74 40.14Q18.02 40.95 18.82 41.37L18.82 41.37L18.94 41.49Q20.36 42.15 22.30 42.34L22.38 42.42L22.21 42.25Q22.21 42.24 25.71 42.55ZM25.64 31.48L25.63 31.47L25.56 31.40Q26.12 31.27 27.07 31.77L26.99 31.69L27.01 31.71Q27.38 32.69 27.38 33.34L27.44 33.39L27.52 33.47Q27.56 35.18 26.60 36.17L26.59 36.16L26.71 36.27Q25.57 36.93 23.48 37.24L23.57 37.33L23.45 37.21Q22.14 37.35 21.61 37.08L21.57 37.04L21.44 36.91Q21.31 36.51 21.31 36.21L21.35 36.25L21.27 36.17Q21.08 32.93 24.01 31.64L24.08 31.71L23.97 31.59Q24.70 31.23 25.46 31.30Z"/><path fill="#bfe452" d="M72.29 37.91L72.24 37.86L72.35 37.97Q72.67 38.98 73.20 40.99L73.09 40.89L73.10 40.90Q68.99 39.68 64.38 39.94L64.30 39.86L64.20 39.77Q59.78 40.17 55.78 42.15L55.64 42.02L55.66 42.03Q55.89 41.35 55.92 41.42L56.00 41.49L56.03 41.53Q59.70 37.51 63.62 33.09L63.73 33.21L63.57 33.05Q68.13 28.20 69.31 23.52L69.32 23.53L69.18 23.39Q69.66 21.66 68.39 20.48L68.51 20.60L68.44 20.54Q67.06 19.25 65.28 19.40L65.36 19.49L65.44 19.57Q64.93 19.37 64.59 19.37L64.76 19.54L64.66 19.44Q63.14 19.43 61.88 20.35L61.85 20.32L61.92 20.39Q60.68 21.81 60.91 24.48L60.80 24.37L60.80 24.37Q59.03 24.04 57.81 23.59L57.75 23.53L57.88 23.66Q57.69 22.25 57.61 20.80L57.46 20.65L57.62 20.81Q57.47 19.10 58.08 17.96L58.11 17.99L57.99 17.87Q59.78 16.49 63.13 16.49L63.15 16.52L64.94 16.56L64.90 16.52Q67.18 16.55 68.13 16.67L68.12 16.65L68.27 16.80Q72.49 17.10 72.76 19.54L72.90 19.68L72.88 19.66Q72.92 20.19 72.84 20.99L72.73 20.88L72.75 20.90Q72.87 21.70 72.71 22.39L72.72 22.40L72.71 22.39Q70.99 30.41 63.41 37.26L63.51 37.36L63.43 37.28Q64.85 37.14 66.22 37.14L66.24 37.16L66.21 37.13Q69.39 37.07 72.24 37.87ZM71.63 17.01L71.71 17.08L71.66 17.03Q70.06 16.39 68.35 16.31L68.48 16.44L64.87 16.07L64.94 16.14Q60.49 15.88 58.28 16.98L58.24 16.94L58.40 17.10Q57.34 18.47 57.34 20.53L57.27 20.46L57.21 20.40Q57.28 21.16 57.59 23.97L57.62 24.00L57.55 23.94Q58.14 24.22 59.32 24.53L59.35 24.55L59.38 25.62L59.35 25.58Q59.25 25.99 59.33 26.52L59.41 26.60L59.29 26.48Q60.63 26.68 63.11 26.90L63.14 26.94L63.11 26.91Q63.08 26.53 63.08 26.19L63.06 26.17L63.04 26.16Q62.96 24.25 64.18 22.90L64.17 22.89L64.34 23.06Q65.40 21.55 67.19 21.66L67.27 21.74L67.32 21.79Q67.93 21.68 68.69 21.83L68.75 21.89L68.76 21.90Q68.98 22.39 69.06 22.81L69.02 22.76L68.88 22.63Q69.02 23.15 68.94 23.49L69.03 23.57L68.87 23.42Q67.74 28.30 63.32 33.13L63.26 33.07L63.30 33.12Q61.15 35.35 55.71 41.40L55.59 41.28L55.76 41.45Q55.40 42.12 55.06 42.69L55.08 42.71L55.23 42.86Q56.79 41.95 58.32 41.42L58.22 41.32L58.18 41.28Q57.59 41.99 56.64 43.47L56.61 43.44L56.66 43.49Q56.39 43.68 56.28 44.02L56.41 44.15L56.38 44.12Q61.27 42.08 66.75 42.27L66.74 42.27L66.74 42.26Q72.30 42.31 76.87 44.67L76.91 44.71L75.93 42.58L75.90 42.55Q75.30 41.27 75.03 40.47L75.15 40.58L75.09 40.53Q74.32 40.06 73.10 39.64L73.19 39.73L73.03 39.57Q73.00 38.97 72.62 37.60L72.49 37.47L72.60 37.58Q70.40 37.02 68.12 36.83L68.09 36.80L68.08 36.79Q72.83 32.29 74.36 24.03L74.25 23.93L74.51 21.10L74.47 21.06Q74.44 19.32 73.22 18.64L73.16 18.58L73.21 18.66L73.24 18.69Q73.18 18.59 73.11 18.59L73.08 18.57L73.03 18.52Q72.88 17.76 71.77 17.15Z"/><path fill="#ef9f84" d="M118.10 29.11L118.15 29.16L118.15 29.16Q116.26 29.14 115.04 30.47L115.08 30.50L115.00 30.42Q113.91 31.88 113.75 33.79L113.68 33.71L113.77 33.80Q113.56 35.91 114.78 36.92L114.71 36.86L114.81 36.95Q115.93 37.87 118.06 37.79L118.13 37.86L118.09 37.82Q120.52 37.77 121.47 36.82L121.38 36.73L121.44 36.79Q122.33 35.20 122.21 33.38L122.32 33.49L122.38 33.54Q122.14 31.55 121.06 30.35L121.11 30.41L121.03 30.32Q120.06 29.24 118.23 29.24ZM118.13 19.73L118.17 19.78L118.07 19.68Q116.79 19.70 115.46 20.19L115.47 20.19L115.34 20.07Q114.13 20.95 114.36 22.82L114.31 22.77L114.25 22.71Q114.83 26.52 118.18 26.52L118.10 26.44L118.14 26.48Q119.64 26.62 120.63 25.48L120.70 25.54L120.78 25.62Q121.68 24.39 121.72 22.83L121.66 22.77L121.83 22.94Q121.89 21.17 121.17 20.56L121.16 20.56L121.10 20.50Q119.47 19.71 118.18 19.78ZM117.88 40.31L117.95 40.38L114.85 40.32L114.88 40.35Q113.27 40.27 111.94 39.40L112.02 39.47L111.89 39.34Q110.52 38.20 110.67 35.34L110.77 35.45L110.83 35.50Q111.21 28.58 114.83 27.59L114.81 27.57L114.83 27.59Q112.52 26.65 111.19 21.29L111.19 21.28L111.20 21.30Q110.96 19.99 111.04 19.19L110.87 19.02L110.85 19.00Q111.24 16.96 114.94 16.92L115.03 17.02L114.96 16.94Q119.21 16.90 120.66 17.09L120.66 17.09L120.58 17.01Q124.39 17.51 124.85 19.53L124.87 19.55L124.87 19.55Q125.05 20.22 125.05 20.60L124.97 20.53L125.03 20.58Q125.08 21.32 124.89 21.93L124.82 21.86L124.75 21.79Q124.17 26.04 121.23 27.56L121.23 27.55L121.29 27.61Q124.84 28.47 125.34 33.76L125.29 33.71L125.21 33.63Q125.20 33.78 125.24 35.07L125.24 35.07L125.26 35.09Q125.43 37.93 123.84 38.99L123.87 39.03L123.80 38.96Q122.43 39.83 117.86 40.29ZM120.22 42.69L120.13 42.60L123.44 42.64L123.44 42.63Q125.29 42.85 126.81 42.12L126.81 42.12L126.76 42.07Q127.83 41.27 127.90 39.41L127.94 39.45L128.04 39.54Q127.94 38.30 127.56 36.36L127.68 36.48L127.57 36.38Q126.70 31.77 124.60 29.90L124.63 29.93L124.48 29.59L124.28 29.32L124.02 28.94L124.05 28.97Q125.70 27.61 126.62 23.46L126.65 23.49L126.58 23.42Q126.70 23.17 126.78 22.33L126.63 22.19L126.73 22.28Q126.83 21.62 126.76 21.01L126.70 20.95L126.65 20.91Q126.50 19.47 125.32 18.97L125.35 19.00L125.51 19.12L125.13 18.81L125.12 18.81Q124.92 18.15 123.74 17.35L123.69 17.30L123.74 17.32L123.72 17.29Q121.92 16.79 117.85 16.60L117.76 16.51L117.82 16.57Q116.25 16.44 114.88 16.56L114.85 16.53L114.74 16.42Q114.03 16.55 112.73 16.70L112.75 16.72L112.68 16.65Q110.70 16.99 110.47 18.63L110.48 18.63L110.59 18.75Q110.53 19.22 110.57 20.02L110.51 19.96L110.52 19.97Q110.70 20.57 111.27 22.93L111.23 22.89L111.32 22.98Q112.00 26.09 113.75 27.42L113.73 27.41L113.96 27.63L113.82 27.49Q111.10 28.84 110.56 34.02L110.47 33.92L110.60 34.05Q110.41 36.27 110.41 37.18L110.36 37.13L110.43 37.20Q110.53 39.01 111.71 39.92L111.62 39.83L111.73 39.95Q111.68 39.86 111.95 40.05L111.97 40.07L112.05 40.16Q112.95 42.30 120.06 42.53ZM119.78 31.51L119.72 31.45L119.89 31.62Q120.77 31.51 121.65 31.97L121.69 32.01L121.64 31.97Q121.92 32.86 121.88 33.39L122.03 33.53L121.95 33.45Q121.96 33.73 121.96 34.03L121.97 34.04L122.03 34.10Q121.91 36.35 119.63 37.18L119.66 37.21L119.65 37.20Q118.84 37.50 118.04 37.39L118.03 37.37L118.03 37.37Q117.02 37.58 115.87 37.12L115.86 37.11L115.77 37.02Q115.53 36.40 115.60 35.41L115.76 35.57L115.67 35.47Q115.83 33.89 117.03 32.67L116.92 32.55L117.00 32.63Q118.19 31.40 119.78 31.52ZM120.14 22.17L120.00 22.02L120.03 22.06Q120.88 21.99 121.41 22.14L121.29 22.02L121.44 22.97L121.33 22.86Q121.28 24.22 120.36 25.22L120.53 25.39L120.55 25.41Q119.54 26.32 118.17 26.13L118.16 26.12L118.11 26.07Q117.29 26.24 116.87 26.01L116.78 25.93L116.75 25.90Q116.68 25.60 116.57 24.91L116.64 24.99L116.53 24.87Q116.34 23.54 117.55 22.70L117.51 22.66L117.47 22.62Q118.63 22.02 120.04 22.06Z"/><path fill="#3c8ee0" d="M80.01 20.09L80.00 20.09L80.06 20.15Q75.67 20.06 71.98 19.07L72.11 19.20L71.99 19.08Q73.52 23.65 73.71 28.49L73.76 28.54L73.64 28.42Q73.88 33.27 72.66 37.88L72.69 37.90L72.72 37.93Q75.43 37.21 78.93 37.06L79.05 37.18L78.95 37.08Q82.84 36.86 84.63 34.43L84.80 34.59L84.63 34.42Q86.30 32.52 86.49 28.40L86.39 28.30L86.44 28.35Q86.52 26.60 86.06 24.89L86.05 24.88L86.09 24.92Q84.67 20.03 79.95 20.03ZM68.11 42.11L68.11 42.11L68.09 42.10Q70.97 36.41 70.97 29.71L71.11 29.85L70.98 29.72Q71.00 21.21 66.70 14.21L66.63 14.14L66.73 14.24Q71.92 16.84 80.18 17.03L80.23 17.08L80.26 17.11Q89.06 17.23 89.40 24.38L89.41 24.40L89.49 24.47Q89.65 27.22 89.61 28.67L89.61 28.67L89.46 28.51Q89.48 33.29 88.64 35.46L88.53 35.35L88.62 35.45Q88.21 36.56 87.45 37.40L87.41 37.36L87.47 37.42Q86.14 38.98 83.51 39.47L83.49 39.45L83.42 39.38Q81.93 39.75 78.92 39.98L78.89 39.95L78.92 39.98Q72.73 40.38 68.12 42.13ZM86.11 42.07L86.06 42.02L86.10 42.06Q88.84 41.72 90.48 40.24L90.43 40.18L90.45 40.20Q91.61 38.39 91.57 35.65L91.52 35.60L91.51 35.59Q91.66 34.38 91.51 30.87L91.38 30.74L91.15 26.32L91.06 26.23Q90.85 23.93 89.90 21.84L89.85 21.79L89.97 21.91Q89.50 21.02 88.81 20.37L88.79 20.35L88.77 20.17L88.74 20.15Q87.00 17.14 82.58 16.76L82.68 16.87L82.68 16.87Q79.88 16.62 72.88 15.89L72.97 15.99L72.84 15.85Q69.62 15.46 65.93 13.44L66.02 13.53L66.04 13.55Q70.77 20.83 70.77 29.59L70.77 29.58L70.74 29.55Q70.87 36.69 67.52 42.86L67.54 42.88L67.36 42.70Q68.06 42.45 69.40 41.95L69.39 41.94L69.55 42.11Q69.21 42.95 68.33 44.43L68.26 44.35L68.28 44.37Q71.29 43.28 74.64 42.78L74.64 42.78L74.72 42.87Q76.62 42.37 80.28 42.25L80.35 42.32L80.36 42.34Q84.30 42.27 86.12 42.08ZM86.14 28.44L86.09 28.39L86.00 28.30Q85.66 36.33 78.96 36.71L79.07 36.82L78.94 36.69Q77.10 36.91 75.05 37.17L75.07 37.20L75.04 37.17Q75.66 33.22 75.66 29.56L75.66 29.56L75.66 29.56Q75.75 25.96 75.03 22.12L75.00 22.09L74.92 22.01Q77.28 22.47 81.96 22.47L81.90 22.40L81.87 22.37Q83.40 22.38 85.03 23.33L84.93 23.22L84.97 23.26Q86.23 25.52 86.08 28.37Z"/></svg>