<svg xmlns="http://www.w3.org/2000/svg" width="150" height="50" viewBox="0,0,150,50"><path fill="#9073e7" d="M39.06 40.10L39.11 40.16L37.03 40.36L37.01 40.33Q36.45 40.24 35.48 40.29L35.59 40.41L35.45 40.26Q34.55 40.39 34.05 40.39L34.13 40.47L34.06 40.40Q32.48 40.46 31.45 39.62L31.46 39.62L31.45 39.61Q32.16 38.42 33.79 36.28L33.94 36.43L33.85 36.34Q35.19 37.99 37.40 37.76L37.24 37.60L37.27 37.63Q38.33 37.66 38.97 37.01L38.83 36.86L38.97 37.01Q39.49 36.23 39.37 35.36L39.39 35.37L39.39 35.37Q39.21 30.70 39.28 26.13L39.43 26.27L39.31 26.16Q39.40 21.60 39.93 16.99L39.88 16.94L40.04 17.10Q41.80 16.73 43.93 15.70L44.00 15.77L43.93 15.69Q42.19 22.56 42.19 29.80L42.21 29.82L42.08 29.68Q42.21 33.36 42.67 36.86L42.59 36.78L42.64 36.83Q42.70 37.16 42.70 37.50L42.71 37.51L42.75 37.55Q42.76 38.13 42.53 38.66L42.48 38.61L42.41 38.54Q41.92 39.88 39.11 40.15ZM44.09 43.04L44.06 43.01L44.27 42.88L44.55 42.74L44.80 42.61L44.89 42.70Q45.25 42.49 45.33 42.37L45.36 42.41L45.23 42.28Q45.44 41.12 45.18 40.13L45.15 40.10L45.16 40.12Q43.94 34.44 44.21 28.08L44.14 28.02L44.14 28.01Q44.37 21.88 46.15 15.98L46.25 16.07L46.16 15.99Q45.22 16.57 43.96 17.29L44.09 17.42L44.02 17.35Q44.18 16.56 44.60 15.04L44.55 14.99L44.66 15.09Q42.10 16.38 39.43 16.68L39.52 16.77L39.51 16.76Q39.19 21.20 39.12 26.15L39.05 26.09L39.05 26.08Q38.98 32.00 39.06 35.42L39.02 35.38L39.00 35.36Q39.07 37.15 37.32 37.30L37.37 37.35L37.36 37.34Q35.59 37.39 33.91 35.76L33.90 35.74L33.95 35.80Q31.89 38.30 30.94 39.86L30.95 39.87L31.02 39.94Q31.56 40.49 32.59 40.72L32.58 40.70L32.67 40.80Q32.49 40.84 32.22 41.07L32.21 41.06L32.19 41.04Q33.61 41.97 35.59 42.23L35.70 42.34L35.78 42.42Q36.07 42.37 39.37 42.68L39.30 42.61L39.33 42.64Q42.62 42.94 43.99 42.94Z"/><path fill="#599bdd" d="M15.85 14.27L15.92 14.33L15.95 14.36Q19.60 16.76 24.36 16.99L24.51 17.13L24.44 17.06Q29.06 17.23 33.32 15.48L33.41 15.57L33.31 15.47Q33.17 16.13 32.41 18.91L32.35 18.85L32.28 18.77Q29.59 19.85 26.62 20.01L26.61 20.00L26.64 20.03Q23.61 20.13 20.72 19.40L20.84 19.52L20.71 19.39Q21.54 23.15 21.73 26.80L21.73 26.81L21.65 26.73Q23.68 26.96 25.27 26.92L25.32 26.97L25.19 26.84Q26.39 26.82 28.79 26.71L28.91 26.83L28.81 26.73Q28.84 27.44 28.84 28.13L28.92 28.21L28.92 29.54L28.78 29.40Q26.37 29.39 21.58 29.47L21.72 29.61L21.65 29.55Q21.56 33.56 20.99 37.56L21.15 37.72L21.15 37.72Q23.76 37.06 26.50 37.17L26.47 37.14L26.38 37.06Q29.07 37.12 31.66 37.96L31.65 37.94L31.71 38.00Q31.89 38.91 32.16 39.67L32.13 39.65L32.44 41.02L32.59 41.17Q29.39 39.88 25.97 39.88L25.81 39.72L25.90 39.81Q21.01 39.79 16.75 42.04L16.72 42.01L16.84 42.14Q19.07 35.23 18.80 28.11L18.91 28.22L18.74 28.04Q18.46 20.87 15.80 14.21ZM16.19 42.70L16.28 42.79L16.24 42.75Q17.57 42.10 18.33 41.76L18.24 41.66L18.19 41.62Q18.17 42.54 17.60 44.07L17.44 43.92L17.59 44.06Q21.99 41.95 27.06 42.22L27.15 42.31L27.08 42.24Q32.20 42.49 36.20 45.19L36.36 45.36L36.36 45.36Q35.08 42.71 34.40 40.77L34.41 40.78L34.35 40.72Q33.40 40.15 32.41 39.81L32.41 39.80L32.36 39.76Q32.13 38.54 31.98 37.74L31.86 37.62L32.00 37.76Q28.86 36.72 25.70 36.72L25.61 36.63L25.72 36.74Q24.56 36.71 23.41 36.83L23.40 36.81L23.30 36.72Q23.45 35.50 23.49 34.28L23.49 34.27L23.60 31.80L23.62 31.82Q25.35 31.64 27.14 31.68L27.24 31.78L27.27 31.81Q29.07 31.82 30.85 31.97L30.78 31.90L30.78 31.90Q30.74 30.99 30.74 30.03L30.76 30.05L30.79 28.18L30.00 28.26L29.91 28.17Q29.62 28.38 29.17 28.38L29.06 28.28L29.01 28.23Q29.19 27.72 29.34 26.43L29.17 26.26L29.27 26.35Q27.60 26.51 26.42 26.55L26.44 26.57L26.43 26.55Q25.55 26.63 23.72 26.55L23.66 26.49L23.66 26.49Q23.65 25.15 23.46 22.33L23.48 22.35L23.51 22.38Q24.53 22.48 25.51 22.48L25.49 22.46L25.53 22.50Q30.25 22.50 33.95 20.60L33.90 20.56L33.79 20.44Q34.51 18.23 35.38 16.02L35.35 15.98L35.32 15.95Q33.88 16.69 33.05 17.03L33.18 17.17L33.21 17.20Q33.49 16.41 33.95 14.85L33.99 14.89L33.83 14.73Q29.24 16.92 24.37 16.62L24.45 16.70L24.38 16.62Q18.99 16.22 15.14 13.37L15.19 13.42L15.32 13.54Q18.07 20.37 18.37 27.98L18.38 27.98L18.48 28.09Q18.74 35.96 16.23 42.74Z"/><path fill="#e448e4" d="M131.83 40.25L131.76 40.18L129.28 33.24L129.27 33.24Q125.06 20.81 119.12 14.41L119.04 14.33L119.15 14.44Q121.09 15.43 123.68 16.04L123.60 15.95L123.67 16.03Q128.86 22.36 133.20 35.11L133.21 35.13L133.14 35.06Q136.24 27.00 136.93 25.40L136.92 25.39L136.86 25.34Q139.19 19.67 142.01 16.36L142.00 16.36L142.15 16.50Q144.10 16.01 146.72 15.14L146.70 15.11L146.73 15.15Q142.16 19.74 139.11 26.98L139.11 26.98L139.09 26.95Q137.77 30.70 134.08 40.22L133.96 40.10L134.11 40.25Q133.41 40.12 132.84 40.08L132.97 40.21L132.81 40.05Q132.37 40.19 131.80 40.22ZM136.73 42.57L136.84 42.67L136.76 42.60Q139.49 32.54 141.06 28.50L141.10 28.55L141.10 28.55Q144.04 20.79 148.46 15.92L148.54 16.00L148.59 16.05Q147.62 16.49 145.53 17.21L145.45 17.14L146.62 15.84L146.61 15.82Q147.24 15.19 147.85 14.54L147.84 14.54L147.69 14.39Q144.91 15.42 141.91 15.99L141.90 15.98L141.95 16.04Q137.52 21.31 133.64 32.77L133.65 32.78L133.57 32.71Q130.10 22.76 126.90 18.38L126.77 18.26L126.77 18.26Q126.45 18.24 125.57 18.08L125.64 18.15L125.53 18.04Q125.29 17.65 123.70 15.60L123.80 15.70L123.65 15.55Q120.68 14.83 117.98 13.42L117.99 13.43L118.15 13.59Q124.66 20.56 129.04 33.35L129.10 33.41L129.13 33.45Q130.31 37.06 131.49 40.64L131.42 40.56L131.54 40.68Q131.78 40.62 132.62 40.51L132.66 40.55L132.60 40.49Q133.09 41.33 133.78 42.66L133.66 42.54L133.67 42.55Q134.63 42.60 135.35 42.67L135.23 42.55L135.24 42.56Q135.99 42.58 136.75 42.58Z"/><path fill="#69cbec" d="M67.43 39.76L67.55 39.87L65.53 39.80L65.57 39.84Q64.61 39.83 63.65 39.94L63.63 39.92L63.59 39.87Q64.15 33.66 64.15 29.66L64.21 29.72L64.16 29.67Q60.27 23.08 52.62 14.40L52.65 14.43L52.60 14.38Q54.36 15.35 57.71 16.15L57.70 16.14L57.70 16.13Q62.91 21.88 65.92 27.09L65.84 27.02L65.91 27.08Q68.84 21.45 73.22 16.42L73.25 16.45L73.20 16.40Q75.65 16.04 78.16 15.24L78.20 15.27L78.13 15.21Q72.17 21.39 67.29 29.80L67.23 29.73L67.25 29.75Q67.28 36.83 67.58 39.91ZM76.72 17.37L79.34 14.43L79.34 14.43Q76.31 15.67 73.19 16.12L73.12 16.05L73.17 16.11Q68.85 20.73 66.03 25.83L66.17 25.97L66.16 25.96Q63.96 22.24 60.77 18.36L60.76 18.35L60.77 18.36Q60.46 18.32 59.97 18.25L59.90 18.18L60.08 18.36Q59.23 17.39 57.71 15.72L57.68 15.70L57.70 15.72Q54.42 15.06 51.45 13.50L51.49 13.54L51.32 13.37Q59.12 21.93 63.88 29.85L63.93 29.90L64.00 29.97Q63.77 36.17 63.16 40.32L63.10 40.26L63.19 40.35Q63.89 40.29 65.34 40.18L65.45 40.29L65.33 41.20L65.29 41.16Q65.46 41.78 65.38 42.32L65.22 42.15L65.35 42.28Q68.95 42.34 70.70 42.53L70.68 42.51L70.54 42.37Q69.44 37.84 69.32 31.87L69.23 31.77L69.32 31.86Q73.53 23.25 80.08 15.90L80.09 15.91L76.56 17.21Z"/><path fill="#dd4fdd" d="M99.12 37.84L99.13 37.84L99.22 37.94Q99.45 38.86 99.99 40.87L99.97 40.86L100.03 40.91Q95.89 39.68 91.29 39.94L91.10 39.75L91.22 39.87Q86.72 40.20 82.72 42.18L82.65 42.11L82.58 42.04Q82.81 41.36 82.85 41.44L82.81 41.40L82.98 41.57Q86.58 37.48 90.50 33.06L90.59 33.15L90.46 33.03Q94.93 28.09 96.11 23.41L96.09 23.39L96.21 23.51Q96.69 21.78 95.41 20.60L95.33 20.52L95.32 20.51Q94.10 19.37 92.31 19.53L92.23 19.45L92.31 19.53Q91.87 19.39 91.52 19.39L91.61 19.48L91.54 19.41Q89.98 19.37 88.72 20.28L88.87 20.43L88.79 20.35Q87.46 21.68 87.69 24.35L87.73 24.39L87.73 24.40Q86.01 24.12 84.79 23.66L84.80 23.67L84.73 23.60Q84.48 22.14 84.41 20.69L84.36 20.64L84.46 20.74Q84.33 19.05 84.94 17.91L84.98 17.95L84.98 17.95Q86.79 16.60 90.14 16.60L90.16 16.62L91.95 16.66L91.78 16.49Q94.20 16.66 95.15 16.77L95.17 16.79L95.15 16.77Q99.36 17.06 99.62 19.50L99.65 19.53L99.64 19.51Q99.74 20.11 99.67 20.91L99.77 21.02L99.66 20.90Q99.71 21.64 99.56 22.32L99.59 22.36L99.44 22.21Q97.97 30.48 90.40 37.34L90.39 37.33L90.31 37.25Q91.69 37.07 93.06 37.07L93.04 37.05L93.18 37.19Q96.40 37.18 99.26 37.97ZM98.67 17.14L98.68 17.14L98.60 17.06Q96.94 16.35 95.22 16.28L95.30 16.36L91.95 16.24L91.84 16.13Q87.42 15.90 85.21 17.00L85.19 16.98L85.29 17.08Q84.21 18.43 84.21 20.49L84.21 20.49L84.23 20.51Q84.15 21.11 84.45 23.93L84.42 23.90L84.40 23.87Q85.12 24.30 86.30 24.60L86.26 24.56L86.19 25.52L86.25 25.58Q86.23 26.05 86.30 26.58L86.33 26.61L86.15 26.43Q87.52 26.65 89.99 26.88L89.95 26.84L90.00 26.89Q89.88 26.42 89.88 26.08L89.99 26.19L89.90 26.11Q90.02 24.40 91.24 23.04L91.11 22.92L91.14 22.95Q92.47 21.71 94.26 21.82L94.13 21.70L94.09 21.66Q94.87 21.71 95.63 21.87L95.66 21.89L95.61 21.85Q95.76 22.26 95.83 22.67L95.82 22.66L95.89 22.73Q95.97 23.20 95.90 23.54L95.88 23.52L95.81 23.45Q94.57 28.23 90.16 33.06L90.20 33.10L90.14 33.05Q88.06 35.35 82.62 41.40L82.64 41.42L82.62 41.40Q82.49 42.30 82.15 42.87L82.01 42.73L82.11 42.83Q83.71 41.96 85.24 41.43L85.17 41.36L85.26 41.45Q84.40 41.89 83.45 43.37L83.53 43.45L83.41 43.33Q83.33 43.71 83.21 44.05L83.33 44.17L83.37 44.21Q88.18 42.09 93.66 42.28L93.54 42.16L93.65 42.27Q99.27 42.37 103.84 44.73L103.86 44.75L102.91 42.66L102.93 42.68Q102.27 41.33 102.01 40.53L102.03 40.56L101.89 40.42Q101.28 40.11 100.06 39.69L100.12 39.75L100.02 39.65Q99.95 39.01 99.57 37.64L99.45 37.52L99.45 37.52Q97.25 36.95 94.96 36.76L94.93 36.74L94.99 36.79Q99.67 32.22 101.19 23.96L101.24 24.00L101.32 21.00L101.45 21.13Q101.23 19.20 100.01 18.52L100.06 18.57L99.96 18.50L100.15 18.69Q100.07 18.57 99.99 18.57L99.99 18.57L99.86 18.44Q99.81 17.78 98.71 17.17Z"/><path fill="#e4b280" d="M51.47 23.36L51.60 23.49L51.54 23.43Q48.37 23.45 46.54 22.38L46.46 22.30L46.42 22.27Q49.07 21.03 53.94 16.81L53.96 16.83L53.85 16.71Q54.69 16.64 55.98 16.03L55.90 15.94L55.83 15.87Q54.55 21.87 54.43 28.22L54.50 28.29L54.47 28.26Q54.43 34.69 55.50 40.78L55.37 40.65L55.32 40.60Q53.66 39.90 51.53 39.78L51.61 39.87L51.68 39.94Q51.39 35.61 51.39 31.53L51.51 31.66L51.49 31.64Q51.54 27.58 51.58 23.47ZM51.10 25.62L51.07 40.17L51.13 40.22Q52.38 40.26 53.33 40.45L53.23 40.34L53.34 40.45Q53.30 41.02 53.49 42.39L53.66 42.57L53.62 42.52Q56.51 43.09 58.95 45.34L58.84 45.23L58.87 45.26Q56.37 38.11 56.33 30.65L56.43 30.75L56.26 30.58Q56.28 23.22 58.11 15.99L58.06 15.94L58.07 15.95Q57.62 16.45 56.03 17.56L55.92 17.45L55.92 17.45Q56.16 16.74 56.47 15.22L56.46 15.21L56.45 15.20Q55.17 16.02 53.73 16.40L53.72 16.39L53.65 16.32Q49.89 19.91 45.58 22.19L45.59 22.20L45.56 22.17Q46.98 23.28 49.34 23.63L49.33 23.61L49.46 23.74Q48.70 24.16 47.40 25.23L47.40 25.22L47.36 25.18Q48.83 25.55 51.04 25.55L51.17 25.68Z"/><path fill="#9b4fe7" d="M79.42 40.10L79.46 40.14L77.36 40.33L77.29 40.25Q76.87 40.29 75.90 40.35L75.91 40.36L75.92 40.37Q74.87 40.35 74.37 40.35L74.36 40.34L74.51 40.48Q72.90 40.51 71.88 39.68L71.71 39.51L71.84 39.64Q72.55 38.45 74.19 36.32L74.18 36.31L74.18 36.30Q75.55 37.98 77.75 37.75L77.73 37.73L77.68 37.67Q78.56 37.52 79.20 36.88L79.22 36.89L79.18 36.85Q79.81 36.19 79.70 35.32L79.69 35.31L79.74 35.36Q79.68 30.80 79.75 26.23L79.82 26.30L79.72 26.20Q79.77 21.61 80.30 17.00L80.32 17.02L80.29 16.98Q82.23 16.80 84.37 15.77L84.38 15.78L84.39 15.80Q82.59 22.60 82.59 29.84L82.49 29.73L82.49 29.73Q82.61 33.40 83.07 36.90L82.89 36.71L83.00 36.83Q82.98 37.08 82.98 37.42L82.98 37.42L83.05 37.49Q83.05 38.06 82.82 38.59L82.84 38.61L82.83 38.60Q82.24 39.84 79.43 40.11ZM84.35 42.94L84.45 43.04L84.71 42.95L85.06 42.88L85.24 42.69L85.30 42.74Q85.61 42.49 85.69 42.37L85.63 42.31L85.57 42.26Q85.73 41.04 85.46 40.05L85.57 40.16L85.52 40.11Q84.32 34.46 84.59 28.10L84.50 28.01L84.45 27.96Q84.68 21.83 86.47 15.93L86.44 15.90L86.49 15.96Q85.59 16.57 84.33 17.30L84.46 17.42L84.33 17.30Q84.52 16.53 84.94 15.01L85.06 15.13L84.93 15.00Q82.48 16.40 79.82 16.71L79.78 16.67L79.73 16.62Q79.52 21.17 79.44 26.11L79.41 26.08L79.33 26.00Q79.24 31.89 79.32 35.32L79.36 35.36L79.41 35.41Q79.44 37.15 77.69 37.30L77.78 37.39L77.68 37.29Q76.00 37.44 74.32 35.80L74.37 35.85L74.21 35.69Q72.20 38.25 71.25 39.81L71.20 39.76L71.24 39.80Q71.84 40.40 72.87 40.63L72.89 40.65L72.93 40.69Q72.93 40.92 72.67 41.15L72.56 41.04L72.60 41.09Q74.15 42.14 76.13 42.40L76.14 42.42L75.99 42.27Q76.50 42.43 79.79 42.74L79.73 42.68L79.79 42.74Q83.06 43.02 84.43 43.02Z"/><path fill="#b5ef7a" d="M19.90 41.55L19.85 41.50L19.99 41.64Q17.81 41.18 15.64 41.02L15.70 41.08L15.55 40.93Q14.20 39.58 11.53 35.74L11.62 35.83L11.55 35.75Q9.31 38.80 6.91 41.24L6.97 41.30L4.79 41.59L4.91 41.72Q3.81 41.88 2.82 42.14L2.78 42.10L2.79 42.11Q7.02 38.04 10.03 33.93L9.93 33.83L9.93 33.83Q6.76 29.75 1.36 24.95L1.28 24.87L1.24 24.83Q3.60 25.71 6.30 26.13L6.26 26.08L6.30 26.13Q9.65 29.13 11.55 31.83L11.60 31.89L11.67 31.95Q13.72 28.83 16.46 26.31L16.37 26.22L16.54 26.39Q19.57 26.03 21.40 25.54L21.33 25.47L21.36 25.50Q16.74 29.07 13.05 33.64L13.07 33.66L13.07 33.65Q16.42 38.30 19.88 41.54ZM22.74 24.68L22.77 24.70L22.86 24.79Q19.83 25.50 16.29 25.84L16.30 25.85L16.26 25.80Q13.34 28.44 11.63 30.92L11.63 30.92L11.62 30.92Q10.92 30.06 9.29 28.08L9.25 28.05L8.95 27.93L8.95 27.93Q8.91 28.01 8.79 28.01L8.79 28.01L8.78 28.00Q7.89 27.04 6.26 25.59L6.45 25.78L6.43 25.77Q2.82 25.19-0.04 23.97L-0.03 23.98L-0.03 23.98Q5.44 28.73 9.47 33.87L9.49 33.88L9.53 33.92Q6.14 38.52 1.72 42.83L1.70 42.81L1.68 42.79Q2.01 42.78 5.52 41.94L5.44 41.87L5.43 41.86Q3.86 43.14 2.22 44.47L2.26 44.51L2.37 44.62Q5.52 43.66 8.68 43.47L8.56 43.35L8.57 43.36Q11.13 41.27 13.03 38.53L12.90 38.40L13.02 38.52Q14.43 40.27 15.64 41.45L15.62 41.42L15.59 41.39Q15.60 41.29 15.67 41.36L15.76 41.45L15.85 41.35L15.99 41.48Q17.14 42.49 18.48 43.55L18.47 43.55L18.49 43.57Q22.08 44.12 24.98 45.15L24.99 45.15L24.96 45.12Q18.85 40.74 15.16 35.56L15.16 35.56L15.23 35.62Q18.75 30.47 23.32 26.39L23.36 26.43L23.40 26.47Q22.39 26.76 21.40 26.99L21.42 27.00L19.41 27.47L19.42 27.49Q20.56 26.53 22.73 24.66Z"/><path d="M8 13 C94 32,91 32,137 35" stroke="#5dc6e8" fill="none"/><path fill="#b2ea7a" d="M98.68 47.18L98.55 47.05L98.59 47.10Q97.70 47.35 95.80 47.65L95.76 47.61L95.68 47.54Q96.96 45.35 97.99 44.06L98.13 44.20L98.12 44.19Q99.83 44.45 99.98 44.45L100.01 44.48L99.89 44.36Q100.23 44.47 100.76 44.35L100.79 44.39L100.79 44.38Q101.53 44.36 101.72 44.36L101.59 44.23L101.71 44.35Q104.12 43.94 104.04 41.77L104.15 41.88L104.19 41.92Q104.15 40.43 104.03 34.19L104.08 34.23L104.08 34.23Q103.98 30.64 104.06 26.49L103.99 26.41L105.43 26.26L105.45 26.28Q106.00 26.07 106.69 25.84L106.79 25.95L106.86 26.01Q106.47 30.27 106.51 34.64L106.65 34.78L106.52 34.66Q106.63 39.10 107.16 43.48L107.18 43.51L107.05 43.37Q107.28 43.83 107.28 44.09L107.13 43.95L107.19 44.00Q107.21 45.66 105.53 46.04L105.56 46.07L105.45 45.96Q102.46 46.47 98.61 47.12ZM105.28 22.79L103.20 19.73L103.19 19.72Q104.17 18.26 105.99 15.48L106.06 15.54L106.07 15.55Q106.85 16.56 108.18 18.39L108.12 18.33L105.27 22.79ZM108.28 49.40L108.27 49.39L108.34 49.46Q108.95 49.58 109.71 49.23L109.69 49.21L109.75 49.27Q109.91 48.40 109.91 47.94L109.92 47.95L110.02 48.05Q109.91 47.60 109.79 46.99L109.86 47.06L109.82 47.02Q108.52 40.65 108.52 32.73L108.43 32.64L108.43 32.64Q108.45 29.81 108.60 26.91L108.72 27.03L108.60 26.91Q108.03 27.07 106.89 27.38L107.07 27.56L106.94 27.42Q106.91 26.90 106.95 26.37L107.09 26.51L107.17 25.41L107.12 25.36Q105.51 26.11 103.72 26.15L103.54 25.97L103.60 26.03Q103.63 30.43 103.66 34.01L103.62 33.97L103.69 41.77L103.77 41.84Q103.76 43.73 101.59 43.85L101.75 44.01L101.61 43.87Q101.49 43.98 100.97 44.03L100.88 43.94L100.84 43.90Q100.39 44.03 100.13 44.03L100.09 43.99L100.16 44.06Q99.63 43.98 98.06 43.56L98.03 43.53L98.07 43.57Q97.56 44.12 96.45 45.80L96.57 45.91L95.01 48.20L94.94 48.12Q95.93 48.05 97.57 47.67L97.54 47.64L97.00 48.28L96.59 49.06L96.52 48.98Q98.79 48.82 100.12 48.89L100.06 48.83L100.08 48.85Q102.47 49.11 108.41 49.53ZM105.30 23.58L105.24 23.52L105.62 23.03L105.75 23.15Q106.07 23.54 107.02 25.14L106.89 25.02L106.89 25.02Q108.58 22.06 110.14 18.98L110.11 18.95L110.17 19.01Q109.06 17.28 108.11 15.99L108.10 15.98L108.23 16.11Q108.01 16.31 107.67 16.84L107.58 16.76L107.69 16.87Q107.28 16.23 106.29 14.94L106.11 14.75L106.28 14.92Q105.00 16.42 102.67 19.77L102.73 19.82L102.59 19.69Q103.70 21.10 105.41 23.69Z"/><path fill="#eb8dd4" d="M119.86 40.29L119.81 40.24L119.82 40.26Q117.89 40.11 116.22 40.68L116.14 40.61L116.23 40.69Q116.74 37.06 116.85 33.93L116.83 33.91L116.77 33.85Q117.04 30.97 116.82 27.31L116.67 27.16L116.75 27.25Q115.43 26.95 114.67 26.57L114.59 26.50L114.14 23.41L114.24 23.51Q114.95 24.12 116.55 24.69L116.49 24.63L116.65 24.79Q116.39 22.62 115.97 19.88L115.91 19.82L115.94 19.85Q118.12 20.43 119.76 20.28L119.78 20.30L119.72 24.96L119.81 25.05Q121.11 24.86 122.44 24.37L122.38 24.31L122.53 24.46Q122.45 25.34 122.23 27.09L122.10 26.96L122.25 27.11Q120.75 27.47 119.72 27.47L119.55 27.31L119.71 27.46Q119.69 29.61 119.69 33.87L119.73 33.92L119.64 33.83Q119.73 38.07 119.81 40.24ZM122.78 23.72L122.89 23.83L122.82 23.76Q122.70 24.02 122.09 24.25L122.02 24.17L122.46 21.45L122.37 21.37Q121.51 21.61 120.10 21.84L120.20 21.94L120.26 22.00Q120.15 21.21 120.31 19.84L120.25 19.78L120.26 19.79Q119.74 19.96 119.17 19.96L119.11 19.89L119.05 19.84Q116.97 19.89 115.34 19.17L115.36 19.20L115.41 19.24Q115.82 21.63 116.08 24.10L116.23 24.25L116.17 24.19Q115.30 23.86 113.78 22.83L113.68 22.73L113.67 22.72Q113.99 23.99 114.22 26.70L114.29 26.76L114.30 26.78Q114.85 27.10 116.03 27.52L115.92 27.40L115.89 27.37Q115.95 28.04 115.99 29.45L115.98 29.45L116.49 29.62L116.54 29.59L116.61 29.65Q116.58 30.80 116.58 31.98L116.48 31.89L116.65 32.06Q116.59 36.95 115.79 41.29L115.70 41.20L115.84 41.33Q115.86 41.05 117.80 40.51L117.91 40.62L117.97 40.69Q117.90 41.27 117.79 42.64L117.80 42.65L117.85 42.70Q118.63 42.60 119.43 42.60L119.41 42.58L119.40 42.58Q121.12 42.57 122.75 43.15L122.72 43.12L122.76 43.15Q121.50 37.52 121.69 29.60L121.71 29.61L124.02 29.15L124.10 29.23Q124.05 28.18 124.12 27.15L124.23 27.27L124.41 25.24L124.37 25.20Q123.81 25.47 122.63 25.93L122.55 25.85L122.52 25.82Q122.94 24.61 122.87 24.26L122.82 24.22L122.92 24.31Q122.72 23.93 122.80 23.73Z"/></svg>