<svg xmlns="http://www.w3.org/2000/svg" width="150" height="50" viewBox="0,0,150,50"><path d="M16 45 C81 11,55 25,148 49" stroke="#e6ce89" fill="none"/><path fill="#ea7f5b" d="M6.64 32.97L6.54 32.87L6.70 33.04Q9.70 32.57 12.89 32.68L12.80 32.59L12.88 32.67Q12.77 30.05 12.77 27.65L12.79 27.66L12.95 27.83Q12.81 25.21 13.00 22.66L13.11 22.77L13.02 22.68Q11.76 24.35 6.54 32.88ZM16.46 40.25L16.48 40.27L16.43 40.21Q14.84 40.00 13.05 39.92L13.04 39.91L13.00 39.86Q12.88 37.58 12.77 35.11L12.79 35.13L12.67 35.01Q7.51 34.99 2.79 36.40L2.64 36.25L2.73 36.33Q2.82 35.82 3.01 34.83L3.05 34.87L2.93 34.75Q4.70 31.57 8.28 25.29L8.28 25.29L8.47 25.48Q11.22 20.46 14.64 16.58L14.66 16.60L14.77 16.70Q15.54 16.41 17.22 16.14L17.14 16.07L17.17 16.10Q15.26 22.52 15.26 29.56L15.41 29.72L15.41 29.71Q15.28 31.07 15.36 32.56L15.33 32.53L16.79 32.81L16.61 32.63Q17.25 32.70 17.86 32.81L17.87 32.83L18.03 32.98Q18.04 33.87 18.31 35.81L18.25 35.75L18.21 35.72Q17.15 35.61 15.67 35.42L15.53 35.27L15.70 35.45Q15.80 37.34 16.49 40.27ZM18.12 32.43L18.23 32.53L18.25 32.55Q17.93 32.35 17.73 32.35L17.88 32.49L17.50 32.50L17.51 32.50Q17.29 30.91 17.29 29.50L17.36 29.58L17.42 29.63Q17.26 23.07 19.31 17.06L19.43 17.18L19.47 17.21Q18.66 17.43 17.21 17.81L17.08 17.68L17.18 17.78Q17.33 16.94 17.79 15.53L17.76 15.51L17.86 15.61Q16.50 15.92 14.45 16.15L14.52 16.23L14.46 16.16Q10.60 20.56 5.38 29.93L5.37 29.91L7.49 26.29L7.39 26.19Q7.13 27.38 6.87 27.95L6.74 27.82L2.36 36.92L2.39 36.95Q2.91 36.67 4.05 36.28L4.10 36.33L3.95 36.56L4.00 36.62Q3.81 37.23 3.51 38.48L3.50 38.48L3.44 38.42Q7.62 37.15 12.45 37.34L12.56 37.45L12.56 37.45Q12.50 38.30 12.69 40.28L12.78 40.38L12.70 40.29Q13.77 40.30 14.84 40.41L14.78 40.35L14.79 40.37Q15.05 41.16 15.32 42.53L15.35 42.56L15.34 42.55Q17.18 42.71 20.19 43.63L20.11 43.55L20.09 43.53Q19.23 41.53 18.31 38.25L18.30 38.24L19.73 38.68L19.62 38.57Q20.35 38.85 21.04 39.19L21.09 39.24L21.02 39.17Q20.24 36.68 20.09 35.01L20.20 35.11L20.22 35.14Q19.56 34.90 18.42 34.67L18.48 34.73L18.49 34.74Q18.18 33.37 18.18 32.49ZM10.22 32.37L10.18 32.33L10.29 32.44Q10.96 31.05 12.52 28.50L12.52 28.50L12.46 28.44Q12.56 29.50 12.53 30.45L12.50 30.43L12.39 30.32Q12.57 31.49 12.61 32.44L12.60 32.43L12.62 32.44Q12.05 32.41 11.48 32.41L11.33 32.26L11.36 32.29Q10.76 32.29 10.15 32.29Z"/><path fill="#8ee6ba" d="M21.33 36.88L21.30 36.85L21.30 36.85Q22.52 37.84 23.93 37.69L23.87 37.63L23.85 37.61Q26.89 37.90 27.53 34.55L27.42 34.44L27.45 34.47Q28.12 31.37 28.12 27.98L28.15 28.01L28.18 25.45L28.04 25.32Q28.07 24.09 27.73 22.83L27.79 22.89L27.76 22.86Q26.57 25.21 24.59 29.97L24.55 29.94L24.58 29.96Q22.62 34.74 21.41 36.95ZM26.45 20.49L26.43 20.46L26.49 20.53Q25.25 19.63 23.91 19.63L23.98 19.69L23.95 19.66Q22.42 19.46 21.32 20.38L21.27 20.33L21.30 20.37Q20.26 21.34 20.07 22.83L20.09 22.84L20.00 22.76Q19.74 24.21 19.71 25.70L19.63 25.62L19.61 25.60Q19.67 25.66 19.67 28.51L19.65 28.49L19.62 28.46Q19.63 30.84 20.09 34.45L20.03 34.39L20.21 34.57Q21.99 29.69 26.36 20.40ZM28.05 39.34L27.92 39.20L27.98 39.26Q26.17 40.12 23.85 40.12L23.97 40.24L22.30 40.21L22.19 40.09Q18.98 40.13 17.84 38.41L17.84 38.41L17.94 38.51Q17.12 36.32 17.04 33.39L17.07 33.42L16.95 33.29Q16.87 31.51 16.80 28.04L16.80 28.04L16.78 28.02Q16.88 26.95 16.73 23.90L16.66 23.83L16.65 23.82Q16.68 21.64 16.98 19.66L16.89 19.57L16.97 19.65Q17.46 16.72 21.80 16.49L21.80 16.48L21.67 16.35Q22.61 16.49 23.94 16.53L23.91 16.50L23.91 16.50Q29.43 16.50 30.50 19.96L30.62 20.09L30.61 20.08Q31.29 22.05 31.25 23.92L31.25 23.92L31.07 23.74Q31.11 28.84 31.04 30.06L30.96 29.99L30.99 30.01Q30.81 33.83 30.51 35.13L30.54 35.16L30.47 35.09Q29.76 38.15 27.86 39.14ZM32.90 39.01L32.94 39.05L32.89 38.99Q33.10 36.20 33.06 34.41L33.12 34.47L32.94 29.76L32.92 29.74Q33.02 26.90 32.48 21.38L32.37 21.26L32.51 21.40Q31.88 19.48 30.59 18.72L30.61 18.75L30.48 18.62Q29.03 16.17 23.85 16.02L23.76 15.94L23.80 15.97Q22.91 15.91 21.57 15.95L21.56 15.94L21.62 16.00Q17.16 16.14 16.66 19.27L16.64 19.24L16.67 19.27Q16.32 21.63 16.44 23.72L16.26 23.55L16.29 23.57Q16.62 27.94 16.58 31.29L16.55 31.26L16.59 31.30Q16.66 35.10 16.78 36.13L16.74 36.09L16.82 36.17Q17.17 39.23 18.70 40.03L18.60 39.93L18.68 40.01Q20.12 42.18 24.12 42.45L24.11 42.44L24.10 42.43Q27.73 42.70 28.37 42.66L28.39 42.68L28.30 42.59Q31.22 42.50 32.36 40.90L32.39 40.93L32.39 40.93Q32.88 40.24 32.96 39.06ZM24.30 37.30L24.31 37.30L24.24 37.24Q25.04 35.90 26.11 33.20L26.09 33.19L27.74 28.90L27.83 28.99Q27.75 30.58 27.37 33.93L27.42 33.99L27.25 33.81Q26.72 36.82 24.32 37.31ZM22.35 25.02L22.32 25.00L22.27 24.95Q22.73 23.16 23.41 22.59L23.47 22.65L23.49 22.66Q24.02 22.32 25.31 22.13L25.30 22.12L25.26 22.07Q23.42 25.60 21.56 30.25L21.62 30.32L21.64 30.33Q21.57 27.56 22.25 24.93Z"/><path fill="#57df57" d="M34.88 36.97L34.91 37.00L34.80 36.89Q36.00 37.86 37.40 37.71L37.32 37.62L37.31 37.61Q40.21 37.77 40.86 34.42L40.90 34.46L40.85 34.42Q41.57 31.36 41.57 27.98L41.61 28.02L41.56 25.38L41.49 25.31Q41.60 24.16 41.26 22.91L41.20 22.85L41.15 22.80Q39.94 25.13 37.96 29.89L38.02 29.94L38.07 30.00Q36.05 34.72 34.83 36.92ZM39.83 20.41L39.87 20.46L39.75 20.33Q38.77 19.70 37.44 19.70L37.30 19.56L37.44 19.70Q35.79 19.38 34.69 20.29L34.72 20.33L34.77 20.38Q33.64 21.26 33.45 22.75L33.52 22.82L33.45 22.75Q33.08 24.09 33.04 25.58L33.14 25.67L33.11 25.65Q33.12 25.66 33.12 28.51L33.01 28.40L33.06 28.45Q33.16 30.91 33.62 34.53L33.58 34.49L33.57 34.48Q35.38 29.63 39.76 20.34ZM41.47 39.30L41.49 39.32L41.46 39.28Q39.57 40.07 37.25 40.07L37.29 40.11L35.79 40.24L35.75 40.20Q32.41 40.10 31.27 38.39L31.24 38.36L31.39 38.51Q30.46 36.21 30.38 33.27L30.45 33.35L30.54 33.43Q30.45 31.63 30.37 28.16L30.32 28.11L30.38 28.17Q30.20 26.81 30.05 23.76L30.08 23.79L30.11 23.83Q30.10 21.61 30.40 19.63L30.44 19.67L30.32 19.54Q30.81 16.61 35.15 16.38L35.22 16.45L35.15 16.38Q35.87 16.30 37.21 16.34L37.25 16.38L37.23 16.37Q42.99 16.60 44.05 20.07L44.05 20.07L44.10 20.12Q44.67 21.98 44.63 23.84L44.68 23.89L44.57 23.78Q44.44 28.72 44.37 29.94L44.49 30.06L44.54 30.10Q44.24 33.80 43.93 35.10L43.92 35.09L43.94 35.10Q43.24 38.17 41.34 39.16ZM46.30 38.95L46.31 38.96L46.44 39.09Q46.64 36.29 46.60 34.50L46.56 34.45L46.50 29.86L46.50 29.87Q46.43 26.86 45.90 21.34L45.81 21.25L45.96 21.41Q45.29 19.43 43.99 18.67L44.00 18.69L44.04 18.73Q42.48 16.18 37.31 16.02L37.34 16.06L37.38 16.10Q36.51 16.06 35.17 16.10L35.13 16.06L35.04 15.96Q30.47 16.00 29.97 19.12L30.13 19.28L30.00 19.14Q29.65 21.50 29.76 23.59L29.82 23.65L29.86 23.69Q30.23 28.09 30.19 31.44L30.06 31.31L30.07 31.32Q30.00 34.98 30.11 36.01L30.18 36.08L30.15 36.05Q30.55 39.15 32.07 39.95L32.01 39.89L31.99 39.87Q33.48 42.08 37.47 42.34L37.48 42.35L37.56 42.43Q41.06 42.58 41.71 42.54L41.74 42.58L41.86 42.70Q44.60 42.42 45.74 40.83L45.71 40.80L45.82 40.90Q46.20 40.11 46.28 38.93ZM37.84 37.38L37.74 37.28L37.85 37.39Q38.43 35.84 39.49 33.13L39.58 33.22L41.16 28.87L41.19 28.90Q41.25 30.63 40.87 33.98L40.74 33.84L40.74 33.84Q40.07 36.72 37.67 37.21ZM35.88 25.10L35.73 24.95L35.87 25.09Q36.30 23.27 36.98 22.70L36.87 22.59L36.96 22.68Q37.34 22.19 38.64 22.00L38.76 22.12L38.71 22.07Q36.94 25.66 35.07 30.31L35.05 30.29L35.09 30.33Q35.04 27.58 35.73 24.95Z"/><path fill="#6944d8" d="M106.91 20.08L106.96 20.13L106.97 20.15Q102.69 20.17 99.00 19.18L98.97 19.15L98.84 19.02Q100.40 23.62 100.59 28.46L100.63 28.50L100.63 28.50Q100.91 33.39 99.70 38.00L99.65 37.96L99.68 37.98Q102.48 37.36 105.99 37.21L105.95 37.17L105.95 37.17Q109.77 36.88 111.56 34.44L111.54 34.42L111.72 34.60Q113.24 32.55 113.43 28.44L113.27 28.28L113.34 28.35Q113.39 26.56 112.93 24.85L112.89 24.81L112.98 24.90Q111.67 20.12 106.95 20.12ZM95.10 42.19L95.03 42.13L95.10 42.19Q97.98 36.51 97.98 29.81L97.97 29.80L98.02 29.85Q97.86 21.16 93.56 14.16L93.70 14.30L93.64 14.24Q98.98 16.99 107.24 17.18L107.09 17.03L107.12 17.06Q115.92 17.18 116.27 24.34L116.32 24.40L116.36 24.43Q116.40 27.06 116.36 28.51L116.50 28.65L116.40 28.55Q116.39 33.30 115.55 35.47L115.49 35.40L115.60 35.52Q115.11 36.55 114.35 37.39L114.28 37.32L114.39 37.42Q112.94 38.87 110.31 39.36L110.39 39.44L110.38 39.43Q108.79 39.71 105.78 39.94L105.69 39.84L105.72 39.87Q99.56 40.29 94.95 42.04ZM113.03 42.08L112.95 42.01L113.05 42.10Q115.68 41.65 117.32 40.16L117.42 40.27L117.30 40.14Q118.47 38.35 118.43 35.61L118.45 35.62L118.48 35.65Q118.48 34.28 118.32 30.78L118.39 30.84L118.00 26.26L117.96 26.22Q117.77 23.94 116.82 21.85L116.89 21.92L116.83 21.86Q116.43 21.04 115.74 20.39L115.73 20.38L115.73 20.22L115.60 20.10Q113.90 17.14 109.49 16.76L109.60 16.88L109.56 16.84Q106.88 16.70 99.87 15.98L99.83 15.94L99.84 15.95Q96.57 15.50 92.88 13.48L92.81 13.41L92.81 13.41Q97.67 20.82 97.67 29.58L97.70 29.61L97.66 29.56Q97.75 36.66 94.40 42.83L94.42 42.85L94.39 42.82Q94.94 42.42 96.27 41.92L96.43 42.08L96.35 42.00Q96.03 42.86 95.15 44.34L95.20 44.39L95.17 44.36Q98.24 43.32 101.59 42.83L101.57 42.80L101.61 42.85Q103.64 42.47 107.29 42.36L107.27 42.34L107.19 42.25Q111.11 42.17 112.93 41.98ZM112.94 28.33L112.92 28.31L113.10 28.49Q112.62 36.38 105.92 36.76L105.89 36.73L106.02 36.86Q104.06 36.96 102.00 37.22L102.02 37.24L101.84 37.06Q102.66 33.31 102.66 29.65L102.74 29.73L102.56 29.55Q102.57 25.87 101.85 22.03L101.81 21.99L101.91 22.09Q104.12 22.39 108.80 22.39L108.81 22.40L108.84 22.43Q110.29 22.36 111.93 23.31L111.83 23.22L111.88 23.27Q113.24 25.62 113.09 28.47Z"/><path fill="#79e6af" d="M88.67 40.43L88.63 40.39L88.72 40.48Q84.46 40.52 83.47 38.20L83.50 38.22L83.47 38.19Q84.30 37.31 85.86 35.52L85.80 35.46L85.82 35.48Q86.45 37.63 89.46 37.75L89.43 37.72L89.46 37.75Q92.87 37.85 94.51 36.52L94.35 36.36L94.41 36.42Q95.78 34.78 95.71 32.08L95.70 32.08L95.66 32.04Q95.64 27.11 90.84 27.33L90.71 27.20L90.85 27.34Q87.93 27.39 86.18 28.65L86.31 28.78L85.89 28.51L85.61 28.31L85.64 28.33Q86.12 25.31 86.00 22.57L85.97 22.54L85.88 22.45Q85.72 19.77 85.38 16.46L85.45 16.54L85.55 16.63Q89.06 17.44 92.87 17.33L92.86 17.32L92.91 17.37Q96.66 17.24 100.24 15.99L100.23 15.97L99.76 17.60L99.71 17.54Q99.37 18.28 99.18 19.11L99.22 19.16L99.31 19.24Q96.19 20.27 92.30 20.27L92.21 20.17L92.15 20.12Q90.88 20.29 89.39 20.14L89.33 20.07L89.28 20.03Q89.18 20.69 88.84 25.14L88.85 25.15L88.81 25.11Q89.82 24.82 91.87 24.67L91.70 24.50L91.70 24.50Q95.44 24.73 96.88 26.41L96.90 26.42L96.93 26.45Q98.26 27.93 98.52 31.78L98.66 31.91L98.60 31.86Q98.88 36.06 97.66 38.07L97.57 37.99L97.72 38.13Q95.58 39.92 92.27 40.14L92.35 40.22L92.42 40.29Q91.29 40.23 88.63 40.38ZM94.75 42.74L94.77 42.76L94.63 42.62Q98.13 42.77 100.04 41.67L100.08 41.71L99.97 41.60Q100.92 40.04 100.92 37.94L101.09 38.11L101.07 38.10Q101.05 34.99 100.10 30.88L100.03 30.81L100.02 30.80Q99.76 29.17 98.54 27.76L98.39 27.61L98.52 27.78L98.20 27.38L97.89 27.22L97.84 27.17Q97.64 26.56 97.00 25.87L97.03 25.90L97.01 25.92L96.96 25.88Q95.41 24.17 91.71 24.17L91.77 24.23L91.44 24.16L91.49 24.21Q91.49 23.56 91.68 22.46L91.84 22.62L91.69 22.47Q96.67 22.58 100.70 20.94L100.84 21.07L100.82 21.05Q101.11 19.51 102.06 16.70L102.19 16.83L100.04 17.72L100.13 17.81Q100.41 16.57 100.91 15.43L100.87 15.39L100.99 15.52Q97.17 16.99 93.06 17.06L92.93 16.94L93.02 17.02Q88.83 17.06 84.87 15.95L84.99 16.07L84.81 15.89Q85.60 20.42 85.60 24.83L85.50 24.73L85.58 24.82Q85.58 26.72 85.47 28.62L85.43 28.58L85.54 28.69Q85.71 28.78 86.28 29.09L86.26 29.07L86.37 29.18Q86.71 28.94 87.35 28.60L87.27 28.52L87.23 28.48Q87.32 29.37 87.09 30.89L87.10 30.90L87.11 30.91Q87.37 30.94 87.79 31.17L87.84 31.22L87.81 31.19Q90.64 29.49 92.51 29.49L92.56 29.54L92.41 29.40Q93.77 29.43 94.96 30.08L94.94 30.06L95.10 30.22Q95.38 31.19 95.42 32.14L95.41 32.13L95.42 32.14Q95.46 34.69 94.43 35.80L94.49 35.85L94.49 35.86Q93.08 37.04 90.84 37.27L90.79 37.22L90.86 37.28Q89.84 37.29 89.15 37.22L89.11 37.18L89.15 37.21Q88.28 37.07 87.52 36.73L87.65 36.85L87.50 36.51L87.47 36.72L87.40 36.65Q86.65 36.19 86.11 34.86L86.02 34.77L86.03 34.78Q84.74 36.23 83.07 38.36L83.19 38.48L83.15 38.45Q83.37 39.01 84.21 39.96L84.25 40.00L84.19 39.95Q85.39 41.90 88.20 42.40L88.14 42.33L88.08 42.27Q89.27 42.51 94.64 42.63Z"/><path fill="#4d91d5" d="M51.81 30.42L51.84 30.44L51.86 30.47Q48.35 36.77 44.92 40.73L44.82 40.63L44.86 40.68Q42.98 41.08 40.55 41.95L40.62 42.03L40.59 42.00Q45.57 36.48 50.33 28.06L50.26 27.99L50.29 28.02Q45.65 21.02 39.67 14.62L39.69 14.64L39.68 14.63Q42.69 15.93 44.97 16.42L44.97 16.42L44.96 16.40Q49.62 21.64 52.06 25.60L52.06 25.60L51.93 25.47Q54.43 21.04 58.35 16.63L58.44 16.72L58.49 16.76Q60.02 16.40 63.22 15.63L63.17 15.59L63.15 15.56Q57.19 22.13 53.73 28.07L53.66 28.00L53.58 27.92Q58.74 36.59 63.12 41.16L63.23 41.26L63.15 41.19Q60.67 40.49 58.57 40.26L58.57 40.26L58.57 40.26Q55.81 37.31 51.89 30.49ZM58.51 40.62L58.44 40.55L58.44 40.55Q58.72 40.56 59.18 40.68L59.28 40.78L59.18 40.68Q60.02 41.48 61.55 43.08L61.60 43.14L61.49 43.03Q64.85 43.83 67.89 45.20L67.88 45.19L68.01 45.33Q60.79 38.63 55.69 29.87L55.68 29.87L55.76 29.95Q59.38 23.18 65.28 16.32L65.44 16.48L65.29 16.33Q64.00 17.14 61.83 17.67L61.64 17.48L61.72 17.56Q62.62 16.67 64.37 14.88L64.41 14.92L64.33 14.84Q61.99 15.78 58.30 16.35L58.29 16.34L58.28 16.33Q54.77 20.05 52.18 24.35L52.29 24.46L52.25 24.42Q51.34 22.82 50.16 21.34L50.21 21.39L47.90 18.44L47.47 18.39L47.52 18.43Q47.26 18.33 47.04 18.26L47.19 18.41L47.15 18.37Q46.52 17.59 45.04 16.03L44.96 15.95L44.99 15.98Q41.06 14.98 38.47 13.61L38.55 13.69L38.52 13.66Q45.23 20.90 49.80 27.94L49.83 27.97L49.89 28.04Q45.38 36.20 39.63 42.79L39.64 42.80L39.64 42.80Q41.03 42.21 43.16 41.64L43.09 41.57L41.69 42.91L41.83 43.05Q41.84 43.06 40.51 44.39L40.39 44.27L40.37 44.25Q43.54 43.35 46.70 42.85L46.69 42.85L46.63 42.79Q50.67 38.29 53.25 33.53L53.20 33.48L53.22 33.50Q55.82 37.77 58.52 40.63Z"/><path fill="#a0e65a" d="M68.59 29.48L68.57 29.45L68.54 29.42Q67.39 28.69 66.74 28.73L66.81 28.80L66.74 28.73Q65.43 28.87 64.38 29.88L64.40 29.90L64.28 29.78Q63.29 30.84 63.40 32.21L63.49 32.29L63.47 32.27Q63.64 36.48 62.76 41.01L62.90 41.15L62.85 41.09Q60.67 41.58 59.57 42.12L59.62 42.17L59.59 42.14Q61.07 37.95 60.84 33.50L60.76 33.41L60.85 33.50Q60.58 28.97 58.87 24.89L58.92 24.94L58.76 24.79Q60.01 25.58 62.29 26.23L62.23 26.17L62.82 28.88L62.85 28.91Q63.58 26.07 67.84 26.07L67.75 25.97L67.85 26.07Q68.09 25.85 68.39 25.85L68.53 26.00L68.42 25.88Q69.78 25.94 71.03 26.63L70.95 26.55L71.07 26.67Q69.65 27.91 68.51 29.40ZM70.19 31.46L70.28 31.39L70.22 31.34Q71.22 30.28 72.89 27.84L72.77 27.72L72.85 27.80Q72.34 27.40 70.82 27.14L70.92 27.24L70.83 27.15Q71.25 26.92 71.71 26.31L71.76 26.36L71.72 26.32Q69.82 25.42 67.88 25.61L67.83 25.56L67.88 25.61Q66.00 25.86 65.27 26.12L65.20 26.05L65.11 25.96Q63.77 26.44 62.97 27.55L62.95 27.53L62.74 26.67L62.64 25.93L62.68 25.96Q60.21 25.48 58.23 24.14L58.13 24.04L58.14 24.05Q60.25 28.41 60.48 33.28L60.62 33.42L60.55 33.36Q60.75 38.24 59.00 42.77L59.10 42.86L59.11 42.88Q60.21 42.42 61.09 42.11L60.93 41.95L61.04 42.07Q60.63 43.03 60.14 44.09L60.23 44.19L60.31 44.26Q63.09 43.35 65.22 43.24L65.24 43.26L65.34 38.64L65.37 38.67Q65.46 36.40 65.46 34.15L65.49 34.18L65.62 34.31Q65.55 33.06 66.46 32.09L66.52 32.15L66.38 32.01Q67.35 31.09 68.49 31.02L68.39 30.92L68.50 31.02Q69.18 30.94 69.90 31.62L69.83 31.55L70.20 31.47ZM65.23 29.70L65.20 29.59L65.26 29.76L65.26 29.72Z"/><path fill="#86e89e" d="M136.04 41.19L136.09 41.24L133.16 41.16L133.16 41.17Q130.79 41.08 129.99 40.96L129.98 40.95L129.87 40.84Q128.13 40.59 126.95 39.71L126.92 39.68L126.95 39.71Q125.55 38.20 125.33 34.85L125.42 34.94L125.46 34.99Q125.24 34.31 125.16 33.09L125.22 33.15L125.28 33.21Q125.33 32.84 125.25 31.74L125.12 31.60L125.22 31.70Q125.12 30.80 125.15 30.07L125.17 30.09L125.26 30.18Q125.44 28.23 126.47 27.46L126.47 27.47L126.33 27.33Q128.29 26.21 133.13 25.98L133.26 26.12L133.25 26.10Q135.18 25.90 135.98 25.90L135.94 25.86L135.97 25.89Q137.57 26.01 138.94 26.31L138.92 26.29L138.91 26.28Q138.21 27.41 137.67 29.23L137.82 29.38L137.82 29.37Q137.23 29.36 136.74 29.32L136.72 29.31L136.74 29.32Q136.65 29.31 136.11 29.19L136.12 29.20L135.19 28.99L135.13 28.93Q134.17 28.77 133.56 28.81L133.53 28.78L133.39 28.64Q128.76 28.81 128.15 31.62L128.22 31.69L128.24 31.71Q127.92 32.80 128.00 33.75L127.95 33.71L127.98 33.74Q128.06 36.26 129.30 37.34L129.26 37.30L129.30 37.35Q130.53 38.42 133.12 38.46L133.26 38.60L133.15 38.49Q134.64 38.54 135.37 38.23L135.34 38.21L136.40 37.75L136.41 37.75Q136.98 37.56 137.55 37.48L137.43 37.37L137.57 37.50Q137.83 39.32 138.21 40.62L138.15 40.56L138.09 40.49Q137.89 40.91 136.10 41.25ZM139.38 44.22L139.38 44.22L139.32 44.17Q139.71 44.21 140.55 44.29L140.60 44.34L140.59 44.33Q141.13 44.26 141.47 43.69L141.46 43.68L141.54 43.76Q140.32 41.66 139.82 39.56L139.78 39.52L139.89 39.64Q139.41 39.46 138.96 39.46L139.04 39.55L138.97 39.48Q138.65 39.57 138.26 39.76L138.32 39.82L138.30 39.79Q137.86 38.44 137.70 37.03L137.64 36.97L137.73 37.06Q137.20 37.06 135.98 37.63L135.89 37.54L135.95 37.59Q134.64 38.07 134.14 38.07L134.12 38.05L134.23 38.16Q133.74 38.16 133.13 38.13L133.15 38.14L133.16 38.16Q132.28 38.15 130.30 37.58L130.18 37.47L130.22 37.50Q129.92 36.82 129.96 35.68L130.03 35.75L130.02 35.74Q130.22 31.52 135.16 30.99L135.04 30.87L135.00 30.82Q135.83 30.97 137.20 31.31L137.11 31.22L137.14 31.25Q138.47 31.55 139.19 31.51L139.32 31.64L139.27 31.59Q139.57 29.23 140.26 27.40L140.37 27.51L140.35 27.49Q139.89 27.29 139.50 27.22L139.59 27.30L138.79 27.19L138.83 27.23Q138.96 26.67 139.34 25.80L139.37 25.82L139.47 25.93Q137.76 25.40 136.20 25.40L136.27 25.47L136.26 25.45Q133.95 25.55 129.58 25.93L129.57 25.93L129.46 25.81Q127.68 26.13 126.12 27.12L126.10 27.10L125.97 26.97Q124.75 27.92 124.75 29.83L124.81 29.88L124.70 29.77Q124.88 30.37 124.99 31.59L124.97 31.57L124.90 31.50Q124.93 32.48 124.89 33.09L124.93 33.13L124.85 33.05Q125.06 35.12 125.79 38.85L125.78 38.85L125.81 38.88Q126.11 39.64 126.61 40.13L126.65 40.18L126.75 40.27L126.93 40.42L126.93 40.42Q127.85 42.44 131.77 43.05L131.79 43.07L131.84 43.12Q134.96 43.57 137.62 43.84L137.64 43.85L137.68 43.90Q138.49 43.98 139.40 44.25Z"/><path fill="#e0bd56" d="M81.64 27.17L81.68 27.21L81.62 27.15Q82.53 27.26 83.94 27.11L83.93 27.10L83.80 26.97Q83.85 27.71 83.85 28.35L83.82 28.32L83.84 29.59L83.77 29.53Q83.05 29.64 82.21 29.72L82.16 29.67L82.11 29.61Q81.40 29.78 80.56 29.74L80.50 29.68L80.47 29.66Q77.66 35.87 74.24 40.48L74.27 40.51L74.23 40.47Q71.63 41.03 70.33 41.63L70.43 41.73L70.45 41.75Q74.50 35.98 77.54 29.69L77.53 29.68L74.94 29.72L74.90 29.68Q75.00 28.45 74.89 27.12L74.76 26.99L74.83 27.05Q76.76 27.24 78.82 27.24L78.83 27.25L80.74 23.57L80.68 23.51Q81.64 21.57 82.86 19.98L82.95 20.07L82.81 19.93Q81.35 20.18 79.75 20.18L79.64 20.07L79.69 20.12Q73.69 20.20 69.92 18.00L69.79 17.87L69.19 16.21L69.23 16.24Q68.81 15.32 68.42 14.45L68.49 14.52L68.39 14.42Q72.87 17.18 78.58 17.41L78.57 17.40L78.62 17.45Q83.74 17.66 88.88 15.68L88.72 15.52L88.83 15.63Q88.53 15.93 88.03 16.81L88.19 16.97L88.16 16.94Q84.57 21.72 81.71 27.24ZM89.66 18.21L89.64 18.19L90.79 16.33L90.62 16.16Q89.68 16.67 88.01 17.39L88.14 17.53L88.28 17.17L88.20 17.10Q88.31 16.94 88.43 16.83L88.50 16.89L88.45 16.85Q88.85 16.18 89.57 14.85L89.61 14.89L89.57 14.84Q84.32 17.21 78.57 16.98L78.50 16.91L78.46 16.87Q72.56 16.72 67.80 13.75L67.76 13.71L67.75 13.70Q68.83 15.62 69.67 18.28L69.54 18.15L69.69 18.30Q70.62 18.77 71.42 19.08L71.45 19.11L71.49 19.15Q71.64 19.49 72.10 21.36L72.05 21.31L72.17 21.43Q75.18 22.54 80.70 22.39L80.79 22.48L80.76 22.44Q80.56 23.12 78.58 26.89L78.56 26.87L78.54 26.85Q76.55 26.91 74.57 26.72L74.51 26.66L74.46 26.62Q74.62 27.53 74.62 28.41L74.66 28.45L74.54 30.05L76.15 29.98L76.15 31.38L76.30 31.53Q72.25 38.79 69.47 42.37L69.44 42.34L69.55 42.45Q71.11 41.65 72.74 41.15L72.82 41.23L72.73 41.13Q71.99 42.00 70.62 43.71L70.69 43.78L70.67 43.76Q73.80 42.63 76.24 42.40L76.23 42.40L76.25 42.42Q79.28 38.74 82.40 31.97L82.45 32.01L85.85 32.18L85.86 32.19Q85.79 31.29 85.79 30.37L85.70 30.28L85.74 28.52L85.72 28.51Q85.36 28.41 84.81 28.45L84.89 28.54L84.97 28.61Q84.30 28.53 84.03 28.53L84.01 28.51L84.04 28.55Q84.13 28.52 84.17 28.37L84.02 28.21L84.06 27.99L84.11 28.04Q86.68 22.95 89.76 18.31Z"/><path fill="#964ae2" d="M117.18 39.99L117.08 39.89L117.02 39.83Q112.93 39.36 111.10 37.91L111.09 37.90L111.12 37.92Q109.24 36.43 108.82 33.42L108.90 33.50L108.78 33.38Q108.73 32.99 108.39 28.23L108.48 28.32L108.38 28.22Q108.55 27.18 108.48 25.92L108.40 25.84L108.50 25.94Q108.33 20.90 110.54 19.15L110.48 19.09L110.54 19.15Q113.06 16.91 120.82 16.22L120.87 16.27L120.92 16.32Q122.18 16.10 123.82 16.13L123.86 16.17L123.98 16.30Q123.81 16.13 126.78 16.13L126.94 16.29L126.89 16.24Q127.60 16.11 129.31 16.26L129.37 16.32L129.35 16.30Q129.00 17.40 127.97 20.48L127.87 20.38L127.87 20.38Q125.77 19.15 122.76 19.15L122.86 19.25L122.80 19.19Q122.11 19.26 121.31 19.33L121.16 19.18L121.30 19.33Q116.09 19.67 113.57 21.65L113.55 21.63L113.60 21.68Q111.62 23.32 111.47 26.67L111.41 26.60L111.53 26.72Q111.34 27.19 111.38 28.44L111.48 28.55L111.39 28.45Q111.63 33.41 114.02 35.50L113.88 35.36L113.95 35.42Q116.15 37.40 121.14 37.71L121.12 37.69L121.04 37.61Q124.17 37.77 127.18 35.98L127.33 36.13L127.30 36.10Q127.81 38.75 128.42 40.12L128.36 40.05L128.51 40.21Q126.38 40.44 124.74 40.40L124.75 40.40L124.77 40.42Q120.21 40.28 117.09 39.90ZM132.21 43.64L132.32 43.75L132.17 43.60Q130.39 40.60 129.70 38.01L129.72 38.03L129.68 37.99Q129.39 38.39 128.40 38.77L128.38 38.74L128.27 38.63Q128.09 38.00 127.90 37.16L127.82 37.08L127.52 35.45L127.48 35.40Q124.12 37.38 121.00 37.26L121.13 37.39L121.12 37.38Q116.78 37.11 114.45 35.36L114.42 35.33L114.39 35.30Q113.39 33.61 113.47 30.68L113.48 30.69L113.32 30.54Q113.58 26.15 116.05 24.01L115.99 23.95L116.06 24.03Q118.14 22.07 122.82 21.46L122.73 21.37L122.92 21.55Q123.58 21.30 124.30 21.30L124.37 21.37L124.25 21.25Q127.04 21.26 129.14 22.79L129.14 22.79L129.28 22.93Q129.73 20.76 130.95 17.52L130.89 17.46L131.03 17.60Q130.76 17.60 130.21 17.54L130.05 17.38L130.21 17.54Q129.49 17.32 129.23 17.32L129.39 17.48L129.24 17.33Q129.48 16.85 129.93 15.86L129.90 15.82L129.86 15.78Q129.76 15.91 127.27 15.84L127.24 15.81L127.29 15.86Q124.74 15.72 124.09 15.76L124.16 15.83L124.15 15.82Q113.57 16.09 110.10 18.68L110.06 18.63L110.16 18.73Q108.18 20.60 108.18 24.52L108.01 24.35L108.00 24.34Q108.03 25.48 108.15 28.18L108.15 28.18L108.12 28.16Q108.32 31.78 108.55 33.49L108.49 33.43L108.49 33.43Q108.84 36.52 110.44 38.04L110.48 38.09L110.48 38.09Q111.08 38.88 112.33 40.02L112.21 39.89L112.32 40.00Q115.57 41.77 120.82 42.53L120.78 42.48L120.88 42.58Q127.17 43.39 132.15 43.58Z"/></svg>