<svg xmlns="http://www.w3.org/2000/svg" width="150" height="50" viewBox="0,0,150,50"><path fill="#e68989" d="M37.54 40.15L37.65 40.26L35.24 33.39L35.27 33.42Q30.91 20.84 24.97 14.44L24.79 14.26L24.81 14.28Q26.90 15.42 29.49 16.03L29.51 16.05L29.46 16.00Q34.62 22.30 38.96 35.05L39.00 35.09L38.87 34.97Q42.03 26.97 42.71 25.37L42.68 25.34L42.72 25.38Q45.06 19.72 47.88 16.41L47.94 16.48L47.97 16.50Q50.01 16.10 52.63 15.23L52.52 15.11L52.62 15.22Q47.97 19.74 44.93 26.97L45.03 27.08L44.93 26.98Q43.56 30.67 39.87 40.19L39.91 40.23L39.78 40.10Q39.22 40.11 38.65 40.08L38.74 40.17L38.77 40.19Q38.08 40.07 37.51 40.11ZM42.64 42.66L42.70 42.71L42.60 42.61Q45.46 32.69 47.02 28.65L46.93 28.56L46.86 28.49Q50.04 20.97 54.46 16.10L54.32 15.96L54.42 16.07Q53.41 16.46 51.31 17.18L51.16 17.03L52.33 15.72L52.49 15.89Q52.99 15.13 53.60 14.48L53.61 14.49L53.51 14.39Q50.66 15.35 47.65 15.92L47.77 16.04L47.70 15.97Q43.39 21.36 39.51 32.82L39.56 32.88L39.51 32.83Q35.93 22.78 32.73 18.40L32.63 18.29L32.64 18.30Q32.28 18.25 31.41 18.10L31.33 18.02L31.46 18.15Q31.25 17.79 29.65 15.73L29.46 15.55L29.53 15.61Q26.66 14.99 23.96 13.58L23.96 13.58L23.96 13.58Q30.41 20.49 34.79 33.28L34.79 33.28L34.86 33.35Q36.18 37.11 37.36 40.69L37.35 40.68L37.21 40.53Q37.74 40.76 38.58 40.65L38.42 40.49L38.55 40.62Q38.84 41.25 39.53 42.59L39.50 42.56L39.58 42.64Q40.32 42.47 41.05 42.55L41.19 42.69L41.09 42.59Q41.85 42.63 42.61 42.63Z"/><path d="M16 34 C89 15,94 4,136 33" stroke="#e5984c" fill="none"/><path fill="#c565e6" d="M63.55 27.54L63.56 27.55L63.69 27.68Q61.48 27.72 60.21 29.22L60.23 29.24L60.08 29.10Q58.93 30.73 58.82 33.01L58.74 32.93L58.77 32.96Q58.73 35.71 59.57 36.66L59.44 36.52L59.40 36.48Q60.68 37.92 63.00 37.77L62.89 37.66L62.82 37.59Q67.60 37.42 67.98 34.41L67.96 34.38L67.82 34.25Q67.95 33.46 67.95 32.66L68.07 32.78L68.03 32.74Q68.07 30.81 66.93 29.28L66.93 29.29L66.78 29.13Q65.63 27.64 63.69 27.68ZM68.40 37.64L68.48 37.72L68.55 37.79Q67.10 39.96 62.73 40.19L62.57 40.03L62.60 40.07Q58.42 40.23 56.79 39.12L56.82 39.16L56.90 39.24Q55.95 38.32 55.79 36.61L55.74 36.56L55.71 36.53Q55.76 35.51 55.95 33.64L55.79 33.49L55.77 33.47Q56.41 29.31 57.63 27.48L57.56 27.41L57.67 27.53Q59.21 24.95 63.05 24.99L63.00 24.94L63.02 24.96Q65.66 25.11 67.94 27.44L67.77 27.27L67.87 27.36Q68.07 21.63 69.67 15.12L69.50 14.95L69.66 15.11Q71.40 14.52 73.26 13.69L73.31 13.74L73.37 13.79Q70.69 20.33 70.42 27.33L70.51 27.42L70.50 27.41Q70.23 34.60 72.36 41.19L72.20 41.03L72.30 41.12Q70.68 40.53 68.96 40.15L68.89 40.08L68.91 40.09Q68.62 38.81 68.47 37.71ZM71.47 43.15L71.43 43.11L71.59 43.27Q73.63 43.79 76.18 45.31L76.23 45.36L76.22 45.34Q72.41 38.18 72.25 29.88L72.29 29.92L72.35 29.98Q72.19 21.75 75.28 14.37L75.26 14.35L75.25 14.35Q74.64 14.88 73.19 15.52L73.07 15.40L73.07 15.40Q73.36 14.21 73.97 12.99L74.03 13.04L74.09 13.10Q71.61 14.09 69.17 14.66L69.24 14.72L69.27 14.76Q67.79 20.51 67.52 26.60L67.51 26.59L67.52 26.60Q65.51 24.66 62.99 24.55L63.09 24.64L63.14 24.69Q59.73 24.59 57.82 26.68L57.69 26.55L57.71 26.57Q55.92 28.86 55.51 33.54L55.68 33.72L55.51 33.55Q55.35 36.40 55.35 36.82L55.37 36.84L55.36 36.82Q55.33 38.47 56.48 39.54L56.50 39.56L56.55 39.61Q56.77 39.83 56.96 39.91L57.03 39.98L57.42 40.56L57.42 40.56Q58.39 41.91 61.36 42.18L61.35 42.17L61.32 42.14Q63.69 42.45 65.06 42.52L65.03 42.49L64.92 42.39Q69.07 42.54 70.79 41.21L70.92 41.35L70.89 41.31Q70.97 41.96 71.43 43.11ZM65.33 30.00L65.17 29.85L65.29 29.97Q66.24 29.89 67.08 30.38L67.19 30.49L67.16 30.46Q67.69 31.80 67.77 32.83L67.68 32.74L67.65 32.71Q68.00 36.98 62.98 37.32L62.95 37.30L62.93 37.27Q61.99 37.25 60.89 36.98L61.06 37.15L60.99 37.09Q60.74 36.45 60.66 35.92L60.67 35.93L60.75 36.01Q60.67 35.32 60.71 34.71L60.69 34.69L60.73 34.74Q61.00 31.27 63.63 30.28L63.51 30.17L63.70 30.35Q64.53 29.86 65.22 29.89Z"/><path fill="#5555e6" d="M117.51 29.87L117.44 29.80L117.61 29.97Q117.24 29.83 116.93 29.83L116.98 29.88L116.89 29.78Q115.62 29.84 114.17 30.68L114.15 30.66L114.17 30.68Q112.83 31.77 112.83 33.68L112.84 33.69L112.87 33.72Q112.75 37.02 114.27 38.36L114.27 38.35L114.31 38.40Q115.27 39.59 117.56 39.59L117.63 39.66L117.67 39.70Q117.94 39.74 118.25 39.74L118.26 39.76L118.09 39.58Q119.93 39.71 121.07 38.08L120.99 38.00L121.09 38.10Q122.06 36.51 121.98 34.72L121.90 34.64L121.97 34.71Q122.06 34.27 122.06 33.85L122.03 33.82L122.13 33.92Q122.02 32.02 120.65 30.86L120.62 30.83L120.60 30.81Q119.33 29.74 117.54 29.90ZM121.99 40.02L121.97 40.01L121.94 39.97Q120.95 41.91 117.22 42.03L117.34 42.15L117.28 42.09Q113.84 42.16 112.24 40.56L112.23 40.55L112.24 40.55Q110.72 38.73 109.92 33.93L110.10 34.11L110.01 34.02Q109.76 32.32 109.76 31.06L109.81 31.11L109.68 30.99Q109.64 29.16 110.36 28.09L110.38 28.11L110.33 28.06Q111.82 26.81 114.79 26.81L114.74 26.76L114.69 26.71Q121.06 26.75 122.96 29.34L123.02 29.41L122.91 29.30Q123.13 28.53 123.55 26.93L123.66 27.03L123.57 26.95Q124.94 26.75 127.38 25.95L127.21 25.79L127.35 25.93Q124.88 31.53 124.65 37.85L124.60 37.80L124.57 37.77Q124.45 44.05 126.59 49.87L126.47 49.76L126.52 49.81Q124.75 49.14 122.96 48.87L123.01 48.92L123.09 49.00Q122.20 45.07 122.09 40.12ZM122.77 49.25L122.71 49.19L122.74 49.23Q123.48 49.39 124.88 49.69L124.81 49.62L124.86 49.67Q125.09 50.40 125.66 51.81L125.68 51.83L125.62 51.76Q128.32 52.59 130.60 53.89L130.65 53.93L130.55 53.83Q126.61 47.35 126.61 38.82L126.49 38.70L126.46 38.67Q126.53 32.38 129.00 26.59L128.99 26.58L129.07 26.65Q128.27 26.85 126.90 27.50L126.92 27.52L126.97 27.57Q127.22 26.71 127.87 25.15L127.85 25.13L127.89 25.18Q126.30 25.68 123.10 26.56L123.16 26.61L123.20 26.65Q123.03 27.17 122.73 28.35L122.72 28.34L122.77 28.39Q120.85 26.58 114.72 26.43L114.55 26.26L114.58 26.29Q111.34 26.18 109.97 27.66L110.13 27.82L110.12 27.81Q109.35 28.95 109.39 30.85L109.37 30.83L109.24 30.70Q109.40 33.75 110.39 37.52L110.53 37.66L110.38 37.51Q111.06 39.94 111.97 40.89L112.03 40.95L112.46 41.38L112.38 41.30Q113.49 44.01 118.94 44.24L118.93 44.23L118.99 44.29Q120.04 44.36 121.87 44.05L121.89 44.07L121.82 44.00Q122.19 47.00 122.80 49.28ZM119.28 32.06L119.47 32.25L119.31 32.09Q120.42 32.13 121.26 32.44L121.38 32.56L121.41 32.59Q121.44 32.96 121.55 33.57L121.70 33.72L121.63 33.65Q121.69 34.17 121.62 34.78L121.67 34.83L121.68 34.84Q121.68 36.74 120.65 38.04L120.67 38.05L120.63 38.01Q119.48 39.45 117.61 39.26L117.50 39.15L117.55 39.20Q116.32 39.26 115.37 38.84L115.25 38.73L115.39 38.86Q115.08 38.10 115.08 36.88L115.08 36.89L115.10 36.90Q114.94 36.44 114.94 36.14L114.86 36.06L114.97 36.16Q114.97 34.41 116.30 33.25L116.32 33.27L116.35 33.30Q117.54 32.00 119.29 32.07Z"/><path fill="#8fbce9" d="M11.28 41.27L11.38 41.37L11.40 41.39Q8.56 41.59 7.30 41.06L7.31 41.07L7.30 41.06Q5.31 40.22 5.39 37.74L5.31 37.66L5.44 37.79Q5.54 34.35 5.54 34.92L5.58 34.96L5.60 34.98Q5.58 29.63 2.72 24.79L2.69 24.76L2.69 24.76Q4.67 25.71 6.65 26.09L6.66 26.10L6.54 25.99Q8.26 30.60 8.15 35.09L8.24 35.18L8.29 35.23Q8.08 36.66 8.92 37.88L8.86 37.82L8.84 37.81Q9.83 39.21 11.35 39.02L11.36 39.03L11.71 38.88L11.63 38.80Q13.09 38.85 13.91 38.09L13.94 38.13L13.91 38.10Q14.76 37.36 14.76 36.41L14.73 36.39L14.71 36.36Q14.70 36.12 14.66 35.93L14.67 35.94L14.66 35.93Q14.49 30.59 15.63 26.25L15.63 26.24L15.70 26.31Q16.71 26.22 17.70 25.99L17.83 26.12L19.73 25.50L19.72 25.50Q17.26 30.61 17.57 36.17L17.56 36.16L17.53 36.14Q17.70 39.20 15.99 40.34L16.08 40.44L16.01 40.36Q14.77 41.30 11.46 41.45ZM13.77 43.84L13.78 43.84L13.79 43.86Q17.12 43.88 18.95 43.12L18.94 43.10L19.06 43.22Q19.83 42.32 19.83 40.91L19.85 40.93L19.93 41.01Q20.00 40.17 19.74 38.61L19.71 38.59L19.58 38.46Q19.25 35.46 19.63 32.46L19.62 32.44L19.49 32.31Q19.97 29.25 21.37 26.50L21.42 26.55L21.39 26.52Q20.80 26.88 19.47 27.30L19.38 27.22L19.28 27.11Q19.69 26.68 19.99 26.11L19.96 26.08L20.44 24.85L20.58 24.98Q18.52 25.51 15.36 26.01L15.29 25.94L15.47 26.12Q14.09 30.76 14.25 35.86L14.29 35.90L14.26 35.87Q14.31 37.95 11.65 38.44L11.76 38.55L11.31 38.56L11.27 38.67L10.30 38.50L10.36 38.57Q10.15 37.55 10.19 37.05L10.11 36.98L10.18 37.05Q10.41 32.56 9.72 28.14L9.79 28.21L8.68 28.01L8.68 28.01Q8.05 27.88 7.52 27.76L7.66 27.90L7.65 27.89Q7.20 26.41 6.93 25.65L7.01 25.73L7.06 25.78Q4.10 25.19 1.86 23.89L1.84 23.87L1.98 24.02Q3.98 27.38 4.70 30.77L4.81 30.88L4.78 30.84Q5.22 33.00 5.07 36.51L5.07 36.51L5.18 36.62Q5.10 36.65 5.02 37.75L5.14 37.87L5.03 37.76Q4.85 40.09 6.22 41.04L6.22 41.04L6.37 41.19Q6.69 43.38 13.70 43.76Z"/><path fill="#a871de" d="M75.72 14.17L75.64 14.09L75.68 14.13Q76.62 16.13 78.30 16.48L78.28 16.46L78.31 16.49Q78.83 16.59 79.52 16.40L79.36 16.25L79.35 16.24Q79.22 22.23 79.14 28.10L79.24 28.19L79.07 28.03Q79.17 33.95 79.39 39.88L79.32 39.81L79.40 39.89Q79.15 39.87 78.84 39.87L78.87 39.89L78.75 39.78Q77.31 39.90 76.02 41.72L75.86 41.57L75.84 41.55Q76.62 34.72 76.59 27.86L76.48 27.76L76.58 27.86Q76.52 20.98 75.68 14.13ZM75.42 42.69L75.51 42.78L75.46 42.72Q76.60 40.97 77.66 40.51L77.71 40.56L77.69 40.54Q77.48 41.43 77.48 42.42L77.47 42.42L77.56 42.51Q78.27 42.11 79.07 42.22L79.02 42.18L79.07 42.23Q81.04 42.48 82.26 45.19L82.35 45.28L82.36 45.28Q81.09 37.66 81.09 30.20L81.16 30.27L81.09 30.20Q81.14 22.52 81.98 15.21L82.05 15.29L82.07 15.30Q81.07 17.20 79.93 17.81L79.78 17.65L79.78 17.66Q79.93 16.78 80.01 15.72L79.92 15.63L79.93 15.64Q79.17 16.17 78.40 16.01L78.31 15.92L78.47 16.08Q76.26 15.66 75.27 12.80L75.16 12.69L75.11 12.64Q76.16 20.16 76.23 27.70L76.21 27.68L76.25 27.71Q76.31 35.16 75.43 42.70Z"/><path fill="#43d9d9" d="M100.56 41.49L100.70 41.63L100.72 41.64Q98.56 41.20 96.39 41.04L96.39 41.04L96.40 41.06Q94.83 39.49 92.17 35.64L92.30 35.77L92.25 35.72Q90.07 38.84 87.67 41.27L87.57 41.17L85.49 41.57L85.49 41.56Q84.55 41.89 83.56 42.15L83.45 42.04L83.47 42.06Q87.72 38.01 90.72 33.90L90.77 33.94L90.67 33.84Q87.52 29.78 82.12 24.98L81.96 24.83L82.00 24.86Q84.27 25.66 86.98 26.07L87.02 26.12L86.94 26.03Q90.49 29.25 92.40 31.95L92.21 31.76L92.23 31.79Q94.49 28.87 97.24 26.36L97.24 26.36L97.13 26.26Q100.27 26.00 102.09 25.51L101.99 25.40L101.98 25.39Q97.49 29.09 93.79 33.65L93.81 33.67L93.79 33.65Q97.15 38.31 100.62 41.54ZM103.42 24.63L103.58 24.78L103.48 24.68Q100.64 25.58 97.10 25.92L97.07 25.89L97.07 25.89Q94.22 28.60 92.51 31.07L92.36 30.92L92.45 31.02Q91.62 30.03 89.98 28.05L89.93 28.00L89.76 28.02L89.75 28.01Q89.60 27.98 89.49 27.98L89.39 27.88L89.53 28.02Q88.65 27.06 87.01 25.61L87.04 25.65L87.02 25.62Q83.44 25.09 80.59 23.87L80.71 24.00L80.60 23.89Q86.20 28.76 90.23 33.90L90.14 33.81L90.12 33.79Q86.77 38.43 82.35 42.73L82.39 42.77L82.52 42.89Q82.57 42.61 86.08 41.77L86.09 41.79L86.09 41.79Q84.66 43.21 83.03 44.55L82.97 44.49L83.07 44.60Q86.21 43.62 89.37 43.43L89.46 43.52L89.35 43.41Q91.70 41.11 93.60 38.37L93.72 38.49L93.65 38.42Q95.10 40.21 96.31 41.39L96.20 41.28L96.37 41.44Q96.40 41.36 96.48 41.44L96.57 41.54L96.67 41.44L96.65 41.42Q97.99 42.61 99.32 43.68L99.20 43.55L99.32 43.67Q102.75 44.06 105.65 45.09L105.65 45.09L105.76 45.20Q99.65 40.81 95.96 35.63L95.80 35.47L95.92 35.59Q99.44 30.43 104.01 26.36L104.12 26.46L104.01 26.36Q103.21 26.85 102.22 27.08L102.21 27.07L100.06 27.39L100.23 27.56Q101.37 26.61 103.54 24.75Z"/><path fill="#4fdd72" d="M28.44 41.23L28.38 41.17L25.53 41.17L25.38 41.02Q22.97 40.90 22.17 40.78L22.28 40.89L22.22 40.83Q20.53 40.63 19.35 39.75L19.23 39.63L19.28 39.68Q17.93 38.22 17.70 34.87L17.64 34.81L17.66 34.82Q17.72 34.42 17.64 33.20L17.55 33.11L17.61 33.18Q17.71 32.85 17.63 31.75L17.56 31.68L17.55 31.66Q17.49 30.81 17.53 30.08L17.62 30.18L17.53 30.09Q17.68 28.11 18.71 27.35L18.76 27.39L18.76 27.39Q20.67 26.22 25.50 25.99L25.63 26.12L25.54 26.03Q27.50 25.86 28.30 25.86L28.30 25.85L28.34 25.89Q29.79 25.86 31.16 26.16L31.22 26.23L31.23 26.24Q30.65 27.49 30.12 29.32L30.05 29.24L30.01 29.21Q29.63 29.40 29.14 29.36L29.17 29.39L29.02 29.24Q29.00 29.30 28.46 29.18L28.56 29.28L27.56 29.00L27.49 28.93Q26.37 28.61 25.76 28.64L25.80 28.69L25.94 28.83Q21.13 28.81 20.52 31.63L20.50 31.61L20.60 31.71Q20.22 32.74 20.29 33.69L20.39 33.78L20.41 33.80Q20.44 36.28 21.68 37.36L21.65 37.33L21.72 37.40Q22.89 38.41 25.48 38.45L25.49 38.47L25.45 38.43Q26.94 38.46 27.66 38.16L27.79 38.29L28.69 37.67L28.76 37.74Q29.31 37.53 29.88 37.45L29.97 37.54L29.84 37.41Q30.14 39.27 30.52 40.57L30.45 40.49L30.53 40.58Q30.21 40.86 28.42 41.21ZM31.69 44.17L31.77 44.25L31.65 44.13Q32.01 44.15 32.85 44.22L32.92 44.30L32.84 44.21Q33.65 44.42 34.00 43.85L33.97 43.83L33.86 43.72Q32.68 41.66 32.18 39.56L32.25 39.63L32.23 39.61Q31.90 39.58 31.44 39.58L31.47 39.62L31.37 39.51Q31.02 39.58 30.64 39.77L30.61 39.74L30.53 39.66Q30.34 38.56 30.19 37.15L30.03 37.00L30.21 37.17Q29.57 37.07 28.35 37.64L28.36 37.65L28.29 37.58Q27.08 38.15 26.58 38.15L26.53 38.10L26.62 38.18Q26.09 38.15 25.48 38.11L25.56 38.19L25.50 38.13Q24.58 38.09 22.60 37.52L22.67 37.59L22.60 37.52Q22.22 36.76 22.26 35.61L22.26 35.61L22.40 35.76Q22.59 31.53 27.54 31.00L27.42 30.88L27.53 30.99Q28.10 30.87 29.47 31.22L29.40 31.15L29.47 31.22Q30.85 31.57 31.58 31.53L31.58 31.54L31.50 31.46Q32.04 29.33 32.73 27.51L32.73 27.51L32.74 27.52Q32.25 27.29 31.87 27.22L31.94 27.29L31.09 27.13L31.21 27.24Q31.43 26.78 31.82 25.91L31.68 25.78L31.69 25.79Q30.19 25.46 28.63 25.46L28.63 25.46L28.68 25.51Q26.28 25.51 21.90 25.90L21.84 25.83L21.94 25.93Q20.01 26.10 18.45 27.09L18.36 27.00L18.38 27.02Q17.15 27.95 17.15 29.86L17.09 29.80L17.10 29.81Q17.16 30.29 17.28 31.51L17.29 31.53L17.27 31.50Q17.40 32.58 17.36 33.19L17.24 33.07L17.39 33.22Q17.36 35.05 18.08 38.79L18.00 38.70L18.08 38.78Q18.52 39.68 19.01 40.17L18.95 40.12L19.10 40.26L19.23 40.35L19.27 40.39Q20.23 42.46 24.15 43.06L24.26 43.18L24.07 42.98Q27.42 43.67 30.08 43.93L29.96 43.81L30.03 43.89Q30.82 43.95 31.74 44.22Z"/><path fill="#d75555" d="M50.97 41.08L50.98 41.08L49.35 41.17L49.26 41.08Q45.85 41.06 44.90 38.93L45.04 39.06L45.03 39.05Q46.09 37.91 47.54 36.80L47.54 36.80L47.67 36.93Q48.24 39.10 51.09 38.95L51.13 38.99L51.11 38.96Q51.86 38.88 52.89 38.65L52.87 38.63L52.92 38.68Q53.73 38.04 53.65 37.09L53.79 37.23L53.73 37.17Q53.54 35.95 51.75 35.27L51.85 35.36L48.08 33.88L48.09 33.89Q45.77 32.56 45.43 29.02L45.33 28.92L45.28 28.87Q45.15 26.80 47.32 26.23L47.33 26.24L47.29 26.20Q48.38 26.11 51.35 26.11L51.25 26.01L51.31 26.07Q56.12 26.01 57.04 28.52L57.01 28.50L57.15 28.64Q56.49 29.15 55.76 29.61L55.67 29.51L54.18 30.39L54.22 30.43Q53.69 28.49 50.46 28.26L50.49 28.30L50.64 28.45Q49.90 28.32 48.87 28.73L48.88 28.74L48.95 28.82Q48.35 29.13 48.35 30.23L48.29 30.17L48.44 30.32Q48.74 31.34 50.57 32.03L50.46 31.92L50.60 32.06Q51.56 32.34 54.22 33.44L54.27 33.49L54.36 33.57Q56.15 34.37 56.34 36.92L56.39 36.97L56.21 36.79Q56.42 37.57 56.34 38.56L56.33 38.56L56.35 38.57Q56.15 39.29 55.58 39.94L55.64 40.00L55.65 40.00Q54.12 41.18 51.08 41.18ZM55.80 43.74L55.74 43.67L55.77 43.70Q56.64 43.69 58.01 43.39L58.12 43.50L57.99 43.37Q59.07 42.71 58.88 41.49L58.97 41.57L59.00 41.60Q58.84 40.95 58.54 39.35L58.61 39.42L58.49 39.31Q58.03 36.45 56.25 35.23L56.33 35.32L56.33 35.32Q55.80 33.91 54.55 33.19L54.42 33.06L54.51 33.15Q53.13 32.61 50.65 31.65L50.69 31.70L50.68 31.68Q50.95 31.34 51.22 31.23L51.20 31.22L51.13 31.14Q51.76 30.71 52.41 30.67L52.48 30.74L52.39 30.65Q53.29 30.72 54.05 30.98L53.92 30.85L53.92 30.93L54.10 30.99L54.44 31.14L54.33 31.07L54.22 30.96Q55.35 31.48 55.54 32.73L55.62 32.82L55.53 32.73Q56.81 31.91 58.71 30.24L58.69 30.22L58.71 30.23Q58.54 29.61 57.55 28.43L57.51 28.39L57.52 28.40Q56.46 25.78 51.36 25.67L51.30 25.60L51.19 25.50Q48.05 25.48 46.07 26.05L46.22 26.20L46.21 26.19Q44.74 26.70 44.97 28.79L44.99 28.81L45.04 28.86Q44.97 29.94 45.89 32.03L46.07 32.21L45.91 32.05Q46.56 33.27 47.58 33.99L47.51 33.92L47.46 33.87Q48.18 35.39 49.47 36.07L49.51 36.11L49.56 36.16Q50.38 36.30 51.33 36.68L51.46 36.80L53.25 37.45L53.26 37.46Q52.95 38.60 51.01 38.49L51.09 38.56L51.06 38.53Q50.68 38.65 49.46 38.35L49.32 38.21L49.31 38.04L49.28 38.24L49.32 38.28Q48.37 37.82 47.72 36.34L47.68 36.30L47.74 36.36Q45.59 37.91 44.49 39.05L44.48 39.04L44.56 39.12Q44.79 39.96 45.82 40.76L45.86 40.80L45.56 40.80L45.61 40.85Q47.17 43.10 51.40 43.48L51.37 43.46L51.29 43.37Q52.50 43.44 55.73 43.67Z"/><path fill="#e183c9" d="M129.12 29.70L128.99 29.57L129.06 29.64Q129.09 33.94 128.37 38.09L128.30 38.02L128.28 38.00Q130.50 37.40 133.58 37.28L133.68 37.38L133.59 37.29Q135.09 37.65 136.15 36.64L135.99 36.48L136.05 36.54Q137.19 35.60 137.19 34.27L137.19 34.27L137.06 34.14Q137.11 33.89 137.08 33.62L137.14 33.69L137.01 33.55Q136.91 30.67 134.66 29.83L134.60 29.77L134.77 29.94Q133.94 29.57 133.25 29.64L133.24 29.63L133.24 29.64Q132.11 29.49 131.08 29.53L131.09 29.53L131.22 29.67Q130.12 29.68 129.10 29.68ZM127.86 19.23L127.78 19.15L127.91 19.28Q128.78 22.59 129.05 26.96L128.93 26.85L128.94 26.86Q130.51 27.09 133.17 27.13L133.18 27.14L133.16 27.11Q135.94 27.00 136.28 23.46L136.36 23.54L136.43 23.61Q136.54 21.58 135.13 20.75L135.06 20.68L135.13 20.75Q134.25 20.25 129.84 19.61L129.76 19.53L129.75 19.52Q128.73 19.41 127.81 19.18ZM124.21 42.12L124.25 42.15L124.15 42.05Q126.69 35.45 126.42 28.07L126.37 28.02L126.37 28.01Q126.05 20.69 123.12 14.22L123.10 14.20L123.25 14.35Q126.95 16.80 133.18 17.05L133.11 16.98L133.29 17.16Q139.43 17.32 139.77 20.21L139.84 20.28L139.83 20.27Q140.12 22.99 138.71 25.66L138.68 25.63L138.65 25.60Q137.95 27.15 136.36 27.84L136.29 27.77L136.34 27.82Q140.02 28.53 140.25 33.90L140.16 33.81L140.24 33.89Q140.39 35.07 140.31 36.48L140.25 36.41L140.30 36.46Q140.27 37.81 139.34 38.74L139.34 38.74L139.20 38.60Q138.24 39.51 136.91 39.66L137.00 39.75L136.95 39.70Q135.50 39.81 134.43 39.81L134.42 39.80L134.48 39.86Q128.70 39.79 124.17 42.07ZM137.02 42.44L136.92 42.33L137.04 42.46Q137.99 42.53 139.86 42.65L139.79 42.58L139.89 42.68Q141.30 42.72 142.40 41.84L142.25 41.69L142.29 41.73Q143.09 40.81 142.97 39.25L143.06 39.34L142.91 39.19Q142.98 38.38 142.25 34.92L142.27 34.93L142.19 34.85Q141.44 31.55 139.58 30.07L139.64 30.14L139.24 29.31L139.24 29.31Q140.92 27.91 141.49 24.14L141.56 24.21L141.57 24.22Q141.69 23.04 141.61 21.63L141.61 21.64L141.55 21.58Q141.43 20.19 140.32 19.35L140.48 19.51L140.47 19.50Q139.98 19.12 139.86 19.09L140.01 19.23L139.95 19.17Q139.76 18.72 138.92 17.92L138.88 17.87L138.91 17.91Q137.35 16.80 133.12 16.61L133.22 16.71L133.23 16.72Q126.51 16.36 122.51 13.46L122.60 13.55L122.52 13.47Q125.88 20.56 126.19 28.10L126.12 28.03L126.05 27.96Q126.35 35.76 123.53 42.69L123.64 42.80L125.73 41.88L125.63 41.78Q125.22 42.90 124.73 44.04L124.81 44.12L124.74 44.05Q129.08 42.23 134.11 42.23L134.11 42.23L134.04 42.16Q135.63 42.34 137.08 42.49ZM134.93 31.94L134.79 31.80L134.82 31.82Q135.49 31.69 136.40 32.15L136.58 32.33L136.57 32.32Q136.57 32.55 136.72 33.61L136.75 33.63L136.69 33.58Q136.97 35.04 136.04 36.09L136.08 36.13L135.91 35.96Q135.15 37.17 133.74 37.06L133.72 37.04L132.20 37.12L132.21 37.13Q131.46 37.18 130.74 37.30L130.79 37.35L130.65 37.21Q130.91 35.34 130.99 31.87L131.13 32.01L131.17 32.06Q131.78 31.95 133.04 31.91L132.97 31.84L132.89 31.76Q134.18 31.76 134.79 31.80ZM133.86 22.30L133.86 22.30L134.12 22.18L134.30 22.36Q134.48 22.31 134.67 22.35L134.71 22.39L135.01 22.30L135.42 22.52L136.05 22.62L135.99 22.56Q136.06 22.78 136.06 23.08L136.00 23.03L136.10 23.66L135.98 23.54Q136.03 24.85 135.16 25.78L135.23 25.86L135.17 25.80Q134.36 26.80 133.15 26.80L133.09 26.75L132.99 26.64Q132.10 26.78 132.10 26.78L132.00 26.68L132.12 26.80Q130.70 26.68 131.05 26.68L131.06 26.69L131.08 26.71Q131.07 25.22 130.77 22.17L130.62 22.02L130.74 22.15Q132.26 22.22 133.78 22.22Z"/><path fill="#dab647" d="M103.87 28.93L103.84 28.89L103.80 28.85Q101.40 29.00 100.37 30.18L100.37 30.18L100.27 30.08Q99.25 31.27 99.25 33.90L99.28 33.93L99.35 34.00Q99.22 38.96 103.82 38.77L103.83 38.78L103.93 38.88Q106.04 39.08 107.39 37.52L107.26 37.40L107.27 37.41Q108.71 35.94 108.48 33.88L108.39 33.78L108.41 33.81Q108.48 31.32 107.60 30.30L107.50 30.19L107.63 30.32Q106.02 28.86 103.81 28.86ZM108.84 38.66L108.81 38.62L108.99 38.80Q107.66 41.13 102.98 41.13L102.95 41.10L101.48 41.08L101.65 41.24Q99.20 41.16 98.10 40.02L98.03 39.95L98.12 40.04Q97.16 39.08 96.89 36.68L96.87 36.65L96.90 36.68Q96.63 35.08 96.55 33.29L96.56 33.30L96.68 33.42Q96.61 32.39 96.45 30.45L96.48 30.48L96.48 30.48Q96.30 26.11 101.48 26.11L101.51 26.14L103.12 26.20L103.04 26.11Q105.89 26.07 107.98 27.36L108.00 27.38L107.97 27.35Q108.90 27.97 109.39 28.66L109.26 28.52L109.24 28.51Q109.62 27.82 110.15 26.18L110.05 26.08L110.09 26.12Q111.42 26.04 113.74 25.43L113.71 25.40L113.68 25.37Q111.07 29.57 111.07 34.83L111.02 34.78L110.99 34.75Q111.08 38.57 112.45 41.65L112.46 41.66L112.42 41.63Q111.25 41.29 109.34 41.06L109.40 41.11L109.36 41.07Q109.13 40.20 108.83 38.64ZM112.19 43.91L112.14 43.85L114.47 44.55L114.39 44.47Q115.73 44.89 116.72 45.35L116.60 45.23L116.69 45.32Q112.97 40.92 112.97 34.83L112.94 34.80L112.92 34.78Q112.98 30.31 115.12 26.50L115.06 26.45L115.09 26.48Q114.38 26.64 113.05 27.02L113.14 27.12L113.12 27.09Q113.48 26.35 114.36 24.83L114.31 24.79L114.43 24.91Q113.84 25.08 109.85 25.91L109.86 25.93L109.27 27.74L109.11 27.58Q107.43 25.94 103.01 25.71L103.04 25.73L102.93 25.62Q101.83 25.67 99.59 25.82L99.68 25.91L99.59 25.82Q96.03 26.30 96.15 30.34L96.05 30.24L96.14 30.33Q96.10 33.48 96.67 37.94L96.70 37.97L96.75 38.44L96.80 38.49Q96.82 39.23 97.62 40.33L97.69 40.40L97.65 40.37Q97.79 40.51 97.98 40.62L98.13 40.77L98.11 40.75Q98.24 41.11 98.62 41.68L98.70 41.76L98.72 41.78Q100.15 43.33 103.54 43.52L103.58 43.55L103.40 43.37Q105.17 43.62 105.32 43.62L105.33 43.63L106.91 43.65L106.82 43.57Q109.98 43.52 111.20 41.96L111.19 41.95L111.34 42.10Q111.58 42.61 112.19 43.90ZM105.71 31.22L105.73 31.24L105.75 31.26Q107.01 31.18 107.84 31.64L107.85 31.65L107.86 31.65Q108.12 32.41 108.12 33.86L108.08 33.82L108.11 33.85Q108.34 35.79 107.06 37.22L106.96 37.11L106.97 37.13Q105.68 38.54 103.77 38.35L103.87 38.44L103.80 38.37Q102.45 38.46 101.42 38.04L101.34 37.97L101.41 38.04Q101.14 37.12 101.14 35.91L101.27 36.03L101.15 35.91Q101.39 32.50 104.02 31.55L103.86 31.39L103.94 31.47Q104.86 31.17 105.66 31.17Z"/></svg>