<svg xmlns="http://www.w3.org/2000/svg" width="150" height="50" viewBox="0,0,150,50"><path fill="#7651e5" d="M77.89 41.04L77.78 40.94L77.88 41.04Q73.76 29.84 68.62 24.85L68.48 24.70L68.45 24.67Q70.05 25.44 73.02 26.08L72.94 26.01L72.95 26.02Q76.57 30.02 79.12 36.68L79.01 36.57L79.14 36.70Q81.75 29.30 84.38 26.25L84.37 26.25L84.29 26.17Q86.24 26.02 88.67 25.33L88.73 25.39L88.68 25.34Q85.60 28.16 83.43 32.73L83.49 32.78L83.43 32.73Q82.98 33.31 79.59 40.92L79.58 40.91L79.69 41.02Q78.98 40.99 77.76 40.91ZM82.40 43.34L82.55 43.49L82.43 43.38Q85.87 31.17 90.44 26.49L90.39 26.44L88.85 26.88L88.88 26.90Q88.18 27.24 87.34 27.35L87.26 27.27L87.18 27.19Q87.71 26.84 88.52 25.96L88.51 25.95L88.57 26.01Q89.40 25.14 89.85 24.72L89.85 24.72L89.85 24.72Q87.71 25.44 84.29 25.93L84.13 25.78L84.11 25.76Q81.40 28.94 79.34 34.54L79.49 34.69L79.46 34.66Q77.73 30.38 75.90 27.90L76.04 28.04L75.35 27.88L75.41 27.95Q75.06 27.86 74.83 27.86L74.87 27.90L74.87 27.90Q74.73 27.65 73.02 25.59L73.07 25.64L72.95 25.52Q69.67 25.10 67.42 23.95L67.37 23.90L67.40 23.93Q73.58 29.69 77.58 41.42L77.53 41.37L78.44 41.29L78.52 41.37Q78.99 42.14 79.82 43.44L79.78 43.39L81.18 43.42L81.07 43.32Q81.84 43.36 82.49 43.44Z"/><path fill="#e0e07f" d="M91.37 41.07L91.27 40.97L91.25 40.95Q87.05 29.67 81.91 24.68L82.06 24.83L81.95 24.72Q83.38 25.31 86.35 25.96L86.44 26.05L86.34 25.95Q90.02 30.01 92.57 36.67L92.43 36.54L92.58 36.68Q95.23 29.32 97.86 26.28L97.86 26.28L97.80 26.22Q99.74 26.07 102.18 25.38L102.13 25.33L102.21 25.42Q99.08 28.19 96.91 32.76L96.86 32.70L96.79 32.63Q96.52 33.39 93.14 41.01L93.04 40.91L93.10 40.98Q92.52 41.08 91.31 41.01ZM95.85 43.35L96.03 43.53L95.96 43.45Q99.29 31.13 103.85 26.45L103.76 26.35L102.34 26.92L102.37 26.94Q101.54 27.14 100.70 27.26L100.82 27.37L100.75 27.31Q101.16 26.84 101.98 25.96L102.10 26.08L101.93 25.91Q102.92 25.21 103.38 24.79L103.22 24.63L103.37 24.78Q101.16 25.43 97.73 25.92L97.56 25.75L97.63 25.82Q94.90 28.99 92.84 34.59L92.79 34.54L92.85 34.59Q91.20 30.39 89.37 27.92L89.49 28.04L88.81 27.89L88.86 27.94Q88.55 27.89 88.32 27.89L88.40 27.98L88.33 27.90Q88.08 27.54 86.37 25.49L86.44 25.56L86.49 25.60Q83.05 25.03 80.81 23.88L80.78 23.86L80.90 23.97Q87.02 29.68 91.02 41.40L90.96 41.35L92.06 41.46L91.90 41.29Q92.41 42.11 93.25 43.41L93.24 43.40L94.49 43.28L94.55 43.34Q95.36 43.42 96.01 43.50Z"/><path fill="#e07474" d="M132.89 18.53L132.72 18.36L132.88 18.52Q132.10 18.84 131.95 19.64L131.89 19.58L131.92 24.75L131.85 24.68Q133.01 24.70 135.21 24.43L135.31 24.53L135.27 24.49Q135.24 24.91 135.20 25.75L135.16 25.71L135.18 25.73Q135.30 26.65 135.30 27.10L135.14 26.94L133.65 27.13L133.63 27.11Q132.77 27.13 131.90 27.13L131.98 27.21L131.97 27.20Q131.97 31.39 131.89 39.76L131.78 39.65L131.92 39.79Q129.74 39.89 128.25 40.58L128.25 40.58L128.08 40.41Q129.30 34.39 129.19 27.16L129.15 27.12L129.18 27.15Q128.44 27.02 127.14 26.75L127.08 26.69L127.15 26.76Q127.16 25.78 126.97 23.84L127.00 23.87L126.95 23.82Q128.06 24.32 129.01 24.51L128.99 24.49L129.00 24.50Q128.91 23.80 128.61 21.33L128.70 21.42L128.74 21.46Q128.39 19.28 128.39 18.33L128.43 18.37L128.43 18.37Q128.44 16.70 129.84 16.13L129.92 16.21L129.83 16.12Q130.63 15.73 135.46 14.90L135.50 14.93L135.65 15.08Q136.39 14.87 137.22 14.75L137.24 14.77L137.17 14.70Q137.00 15.52 136.85 16.39L136.87 16.42L136.51 17.93L136.54 17.96Q135.94 17.85 135.45 17.97L135.40 17.91L135.38 17.89Q134.63 17.76 132.73 18.37ZM138.19 19.53L138.32 19.66L138.34 19.68Q138.55 17.34 139.16 14.79L139.15 14.77L139.20 14.83Q138.64 15.22 137.34 15.83L137.35 15.83L137.61 14.00L137.78 14.17Q136.55 14.35 134.08 14.88L134.04 14.84L133.92 14.72Q132.91 14.97 129.71 15.88L129.68 15.85L129.62 15.79Q128.10 16.25 128.10 18.12L128.01 18.02L128.08 18.10Q128.12 18.44 128.19 18.78L128.08 18.67L128.21 18.80Q128.35 20.04 128.47 21.38L128.50 21.41L128.63 24.01L128.70 24.08Q127.39 23.76 126.74 23.31L126.61 23.17L126.62 23.19Q126.82 24.22 126.86 25.25L126.89 25.28L126.86 27.12L126.89 27.15Q127.70 27.42 128.50 27.50L128.51 27.51L128.37 29.47L128.75 29.47L128.79 29.51Q128.77 35.73 127.78 41.17L127.69 41.09L127.80 41.19Q128.75 40.66 129.93 40.39L129.97 40.43L129.75 42.46L129.74 42.45Q131.04 42.23 132.34 42.19L132.24 42.09L132.23 42.08Q133.37 41.96 134.62 42.23L134.74 42.34L134.70 42.30Q133.88 37.34 133.88 29.38L133.85 29.35L133.79 29.29Q134.90 29.30 136.99 29.37L137.10 29.47L137.17 27.68L137.08 27.59Q137.11 26.67 137.14 25.71L137.19 25.76L137.04 25.61Q136.67 25.81 135.60 26.08L135.48 25.95L135.60 26.07Q135.54 25.32 135.65 23.99L135.76 24.10L135.57 23.92Q134.77 24.18 133.97 24.25L134.01 24.29L134.07 24.35Q134.07 22.94 134.18 21.53L134.17 21.53L134.05 21.40Q134.31 20.87 134.85 20.52L134.74 20.42L134.85 20.52Q135.86 19.90 136.68 19.83L136.62 19.76L136.64 19.79Q137.41 19.66 138.25 19.59Z"/><path fill="#ee809c" d="M38.11 23.45L37.96 23.30L38.03 23.37Q34.92 23.46 33.09 22.39L32.97 22.27L32.98 22.28Q35.64 21.05 40.51 16.83L40.46 16.78L40.42 16.74Q41.21 16.61 42.50 16.00L42.38 15.88L42.43 15.93Q41.03 21.80 40.91 28.16L40.93 28.17L40.90 28.14Q40.84 34.55 41.90 40.64L42.00 40.74L41.99 40.73Q40.25 39.94 38.12 39.83L38.22 39.94L38.07 39.78Q37.93 35.61 37.93 31.54L38.06 31.66L37.96 31.56Q38.06 27.55 38.10 23.44ZM37.61 25.58L37.59 40.14L37.62 40.16Q38.91 40.24 39.86 40.43L39.93 40.50L39.94 40.51Q39.95 41.13 40.14 42.50L40.13 42.49L40.20 42.56Q43.03 43.06 45.46 45.31L45.49 45.34L45.43 45.27Q42.85 38.05 42.81 30.59L42.89 30.67L42.93 30.71Q42.89 23.29 44.72 16.05L44.57 15.90L44.64 15.97Q44.12 16.40 42.52 17.50L42.46 17.44L42.51 17.49Q42.67 16.70 42.97 15.18L43.00 15.21L43.06 15.27Q41.59 15.89 40.14 16.27L40.26 16.38L40.18 16.30Q36.41 19.89 32.11 22.17L32.14 22.20L32.10 22.16Q33.55 23.30 35.91 23.65L35.89 23.63L35.84 23.57Q35.30 24.22 34.01 25.29L33.91 25.19L33.92 25.20Q35.41 25.59 37.62 25.59L37.68 25.65Z"/><path fill="#eb4b9b" d="M17.48 21.58L17.43 21.54L17.44 21.54Q15.67 20.08 14.03 19.70L14.06 19.72L14.04 19.70Q13.06 19.56 10.28 19.52L10.26 19.50L10.22 19.46Q5.10 19.48 3.04 21.49L2.95 21.40L3.05 21.50Q1.27 22.93 1.39 26.62L1.39 26.62L1.49 26.72Q1.54 30.43 1.69 31.38L1.77 31.46L1.75 31.44Q2.89 37.60 10.61 37.60L10.48 37.46L10.54 37.52Q15.21 37.51 17.30 35.11L17.26 35.07L17.24 35.05Q19.20 32.93 19.43 28.18L19.50 28.24L19.53 28.27Q19.70 23.38 17.37 21.48ZM10.57 40.56L10.54 40.53L10.60 40.59Q3.92 40.57 0.95 38.21L0.95 38.21L1.00 38.26Q-1.16 36.02-1.28 30.96L-1.25 30.98L-1.18 31.06Q-1.32 30.42-1.47 27.15L-1.46 27.16L-1.33 27.29Q-1.54 24.60-1.50 23.54L-1.41 23.63L-1.56 23.48Q-1.26 20.77 0.15 19.06L0.01 18.92L-0.00 18.91Q2.70 16.78 7.58 16.63L7.51 16.56L7.56 16.62Q9.32 16.54 10.19 16.58L10.14 16.53L10.06 16.45Q20.04 16.57 21.79 20.91L21.88 21.00L21.98 21.10Q22.68 23.02 22.53 25.76L22.53 25.76L22.56 25.79Q22.56 27.50 22.37 30.77L22.22 30.62L22.31 30.71Q22.21 33.62 21.29 35.67L21.20 35.58L21.18 35.56Q19.19 40.34 10.54 40.54ZM22.84 40.46L22.96 40.57L22.80 40.42Q24.22 38.68 24.34 35.60L24.33 35.59L24.31 35.57Q24.38 34.54 24.35 32.94L24.34 32.94L24.43 33.03Q24.31 32.18 24.27 30.35L24.34 30.43L24.42 30.50Q24.30 23.30 22.35 20.82L22.27 20.73L22.27 20.74Q21.96 19.82 20.86 18.72L20.90 18.76L20.79 18.65Q17.60 16.26 10.14 16.11L10.00 15.96L10.02 15.99Q2.73 15.97-0.31 18.56L-0.36 18.51L-0.27 18.60Q-1.83 20.35-1.83 23.28L-1.78 23.34L-1.77 23.35Q-1.83 24.58-1.67 25.92L-1.77 25.82L-1.71 25.89Q-1.66 27.00-1.62 28.44L-1.68 28.39L-1.59 28.48Q-1.40 32.47-1.25 33.65L-1.29 33.62L-1.38 33.53Q-0.91 36.54 0.42 38.33L0.47 38.38L0.43 38.34Q0.88 39.63 1.95 40.39L1.80 40.25L1.88 40.32Q5.15 42.68 12.92 42.87L12.89 42.84L12.91 42.87Q20.23 43.06 22.89 40.51ZM19.26 28.27L19.20 28.22L19.26 28.28Q18.95 32.72 17.05 34.82L17.04 34.81L16.98 34.75Q15.03 37.14 10.58 37.18L10.64 37.24L10.60 37.20Q6.16 37.14 4.03 35.24L4.10 35.31L4.01 35.22Q3.27 33.57 3.35 30.67L3.39 30.71L3.46 30.78Q3.55 26.15 5.57 23.98L5.46 23.88L5.53 23.94Q7.49 21.72 12.09 21.72L12.09 21.71L12.19 21.81Q16.33 21.77 18.43 23.63L18.38 23.59L18.35 23.56Q19.38 25.50 19.27 28.28Z"/><path fill="#e377e3" d="M23.12 28.56L23.15 28.58L23.23 28.67Q20.36 28.62 19.60 30.86L19.69 30.95L19.53 30.79Q19.42 31.64 19.31 32.29L19.17 32.15L19.33 32.30Q21.82 32.40 23.46 32.40L23.55 32.49L23.41 32.35Q25.16 32.47 27.75 32.35L27.77 32.37L27.82 32.42Q27.63 30.63 26.22 29.57L26.20 29.54L26.22 29.57Q24.90 28.55 23.11 28.55ZM23.30 41.23L23.29 41.21L23.30 41.22Q18.95 41.10 17.66 39.69L17.67 39.71L17.79 39.83Q16.70 38.24 16.55 34.97L16.69 35.11L16.58 35.00Q16.63 34.82 16.55 33.45L16.57 33.47L16.50 33.40Q16.48 31.21 16.48 30.48L16.44 30.45L16.41 30.41Q16.33 28.47 17.05 27.36L17.15 27.46L17.19 27.50Q18.48 25.97 21.45 25.97L21.54 26.06L23.01 25.97L23.10 26.06Q25.03 25.94 26.55 26.24L26.58 26.27L26.71 26.39Q28.76 26.85 29.75 28.07L29.70 28.02L29.64 27.95Q30.26 29.04 30.34 31.13L30.50 31.30L30.43 31.22Q30.47 32.41 30.51 34.58L30.37 34.44L30.34 34.41Q27.59 34.55 24.81 34.55L24.74 34.48L19.14 34.47L19.10 34.44Q19.29 38.89 23.36 38.66L23.44 38.73L23.38 38.68Q27.10 38.43 28.31 36.61L28.45 36.74L28.35 36.64Q29.34 37.29 30.94 38.47L30.96 38.50L30.96 38.49Q29.47 40.77 25.32 41.03L25.38 41.09L25.34 41.06Q24.72 41.19 23.35 41.27ZM25.54 43.50L25.59 43.55L25.57 43.53Q26.55 43.37 27.77 43.44L27.85 43.53L27.77 43.45Q32.82 43.71 33.74 40.93L33.77 40.96L33.77 40.96Q32.08 39.65 30.98 38.89L31.00 38.91L30.96 38.88Q31.21 38.55 31.40 38.32L31.47 38.40L31.38 38.31Q30.68 37.87 29.31 36.91L29.37 36.98L29.36 36.97Q30.44 37.02 32.50 37.33L32.36 37.19L32.48 37.31Q32.19 35.84 32.11 35.15L32.12 35.16L32.00 33.25L32.04 33.29Q31.82 30.86 31.18 29.38L31.29 29.50L31.20 29.40Q30.98 29.11 30.41 28.50L30.47 28.56L30.48 28.57Q30.28 28.21 30.05 27.64L30.06 27.65L29.97 27.56Q28.08 25.52 23.02 25.52L23.02 25.53L21.47 25.65L21.34 25.53Q18.23 25.65 16.78 27.13L16.77 27.12L16.79 27.13Q16.12 28.25 16.15 30.31L16.13 30.28L16.04 30.19Q16.08 31.15 16.19 33.39L16.21 33.41L16.18 33.38Q16.31 35.03 16.42 37.09L16.43 37.10L16.48 37.14Q16.74 39.39 17.62 40.45L17.52 40.36L17.51 40.35Q17.82 40.66 18.02 40.78L17.87 40.63L18.15 41.25L18.14 41.24Q19.08 43.25 25.67 43.63ZM23.37 38.25L23.41 38.29L23.35 38.23Q22.31 38.44 21.40 37.99L21.37 37.96L21.26 37.85Q21.25 37.50 21.06 36.81L21.09 36.85L21.15 36.91Q22.88 36.85 24.48 36.85L24.45 36.82L24.30 36.67Q26.12 36.81 27.79 36.92L27.68 36.81L27.79 36.92Q26.48 38.23 23.47 38.35ZM25.04 30.94L25.18 31.07L25.17 31.06Q25.76 31.05 27.09 31.43L27.03 31.36L27.26 31.78L27.28 32.00L27.21 31.93Q25.80 32.00 24.88 31.96L24.93 32.00L24.97 32.04Q22.73 32.05 22.69 32.05L22.59 31.95L22.64 32.00Q23.39 31.08 25.07 30.96Z"/><path d="M14 42 C64 15,58 24,145 27" stroke="#9e56e5" fill="none"/><path fill="#e5e57f" d="M110.48 40.94L110.48 40.93L110.43 40.89Q109.16 39.24 107.86 36.15L107.89 36.18L105.85 31.13L105.74 31.03Q104.21 35.09 103.60 36.39L103.49 36.27L103.51 36.30Q102.21 39.37 100.61 41.27L100.43 41.09L100.51 41.17Q100.10 41.14 99.34 41.26L99.41 41.33L99.42 41.34Q99.36 33.86 93.54 27.92L93.48 27.87L93.50 27.88Q91.74 26.05 89.72 24.56L89.83 24.67L89.76 24.59Q91.61 25.15 93.48 25.46L93.46 25.44L93.54 25.52Q99.57 30.45 101.02 36.69L101.08 36.76L101.09 36.77Q101.88 34.81 103.06 31.61L103.08 31.64L103.04 31.60Q104.53 27.98 105.10 26.69L105.02 26.61L106.44 26.63L106.38 26.56Q107.38 28.40 108.56 31.68L108.49 31.61L108.37 31.49Q109.68 35.11 110.32 36.52L110.44 36.63L110.33 36.52Q112.17 30.26 117.65 25.69L117.79 25.82L117.65 25.68Q118.86 25.60 121.60 25.03L121.72 25.15L121.77 25.20Q113.04 31.12 111.86 41.10L111.89 41.13L111.19 40.96L111.24 41.02Q110.80 40.88 110.46 40.92ZM113.60 43.52L115.47 43.53L115.58 43.64Q115.23 42.08 115.23 40.55L115.15 40.47L115.29 40.61Q115.13 37.21 116.53 33.97L116.70 34.14L116.68 34.12Q118.54 29.47 122.66 26.39L122.65 26.38L122.63 26.37Q121.40 26.62 119.54 26.96L119.72 27.14L119.69 27.12Q121.64 25.45 122.94 24.54L122.97 24.57L120.39 24.96L120.35 24.92Q119.22 25.24 117.89 25.39L117.87 25.37L117.91 25.41Q112.66 29.56 110.72 34.59L110.75 34.62L110.77 34.64Q110.02 32.38 108.65 28.11L108.67 28.13L108.71 28.17Q108.37 28.17 108.10 28.17L108.07 28.14L107.59 28.19L107.69 28.29Q107.44 27.85 106.64 26.09L106.73 26.18L104.64 26.16L104.56 26.07Q103.63 28.92 101.54 34.55L101.62 34.63L101.66 34.67Q100.17 30.82 97.09 27.55L97.11 27.57L97.08 27.53Q96.90 27.62 96.59 27.59L96.66 27.65L96.09 27.54L95.99 27.44Q95.17 26.66 93.38 25.06L93.36 25.04L93.39 25.07Q90.24 24.43 88.56 23.93L88.64 24.01L88.61 23.98Q99.31 31.41 98.93 41.73L98.90 41.69L98.91 41.70Q99.16 41.77 99.53 41.73L99.43 41.63L99.56 41.77Q99.86 41.66 100.05 41.66L100.07 41.68L100.10 41.72Q100.02 41.48 100.21 43.57L100.29 43.65L102.06 43.33L102.12 43.39Q104.76 40.63 107.01 34.88L107.09 34.96L106.92 34.79Q108.53 38.76 110.39 41.43L110.36 41.39L110.33 41.36Q110.64 41.33 110.91 41.35L110.89 41.33L110.98 41.42Q111.15 41.34 111.41 41.34L111.45 41.38L113.53 43.45Z"/><path fill="#e6e689" d="M50.97 41.04L50.86 40.92L51.00 41.07Q46.83 29.81 41.69 24.83L41.69 24.83L41.65 24.78Q43.00 25.30 45.97 25.95L45.99 25.96L46.11 26.09Q49.65 30.00 52.20 36.66L52.17 36.64L52.20 36.67Q54.72 29.17 57.35 26.13L57.37 26.15L57.48 26.26Q59.38 26.07 61.82 25.39L61.87 25.44L61.73 25.30Q58.75 28.22 56.58 32.79L56.42 32.62L56.52 32.73Q56.09 33.33 52.71 40.94L52.73 40.97L52.74 40.98Q52.19 41.11 50.97 41.03ZM55.51 43.37L55.52 43.37L55.50 43.36Q59.01 31.22 63.58 26.54L63.56 26.52L61.91 26.85L61.93 26.87Q61.14 27.10 60.30 27.22L60.38 27.29L60.43 27.35Q60.85 26.89 61.66 26.01L61.63 25.97L61.71 26.06Q62.48 25.13 62.94 24.72L62.95 24.73L62.88 24.66Q60.80 25.43 57.37 25.92L57.32 25.87L57.34 25.90Q54.52 28.97 52.46 34.57L52.48 34.59L52.54 34.65Q50.91 30.47 49.08 27.99L49.11 28.02L48.62 28.06L48.49 27.93Q48.18 27.89 47.95 27.89L48.02 27.95L47.93 27.87Q47.90 27.73 46.19 25.67L46.11 25.59L46.03 25.51Q42.79 25.12 40.54 23.98L40.49 23.93L40.42 23.86Q46.54 29.56 50.54 41.29L50.67 41.42L51.61 41.37L51.61 41.37Q51.91 41.98 52.75 43.27L52.79 43.31L54.17 43.32L54.22 43.37Q54.96 43.39 55.61 43.47Z"/><path fill="#c55fe7" d="M124.87 28.76L124.80 28.69L118.97 28.84L118.92 28.79Q115.96 28.80 113.03 28.72L113.11 28.81L113.08 28.78Q113.13 35.41 111.08 40.93L111.01 40.86L111.18 41.03Q109.29 41.47 107.54 42.15L107.54 42.15L107.53 42.14Q110.32 36.45 110.32 29.78L110.38 29.84L110.38 29.85Q110.31 21.28 106.19 14.23L106.27 14.31L106.11 14.15Q107.80 15.12 110.28 15.92L110.17 15.81L110.23 15.87Q112.24 20.82 112.78 25.69L112.82 25.73L112.77 25.69Q116.13 26.26 118.99 26.23L118.83 26.07L118.89 26.13Q121.52 26.10 124.83 25.83L124.80 25.79L124.78 25.78Q125.25 21.37 127.00 16.27L127.03 16.30L126.99 16.26Q129.07 15.98 131.32 15.15L131.31 15.14L131.31 15.13Q127.68 21.86 127.68 29.82L127.74 29.88L127.63 29.77Q127.69 36.03 130.05 41.36L130.01 41.32L130.06 41.38Q128.50 40.80 126.44 40.50L126.28 40.34L126.31 40.37Q124.68 35.39 124.80 28.69ZM126.10 40.76L126.05 40.71L126.05 40.72Q127.14 40.93 128.24 41.19L128.20 41.15L128.22 41.18Q128.55 41.88 129.19 43.36L129.16 43.33L129.17 43.33Q132.57 44.34 134.36 45.25L134.30 45.20L134.27 45.16Q129.82 39.00 129.52 30.74L129.59 30.82L129.68 30.90Q129.21 22.70 132.86 15.89L132.93 15.96L131.90 16.45L131.86 16.41Q131.42 16.70 130.81 16.85L130.83 16.87L130.87 16.90Q131.23 16.04 132.06 14.48L132.09 14.51L132.10 14.52Q129.42 15.54 126.80 16.03L126.77 16.00L126.78 16.02Q125.16 20.91 124.71 25.59L124.54 25.43L124.65 25.53Q122.22 25.80 119.78 25.80L119.69 25.71L119.79 25.81Q117.31 25.73 114.79 25.58L114.88 25.66L114.88 25.66Q114.48 22.22 113.38 18.14L113.36 18.13L113.41 18.17Q112.81 18.15 111.37 17.77L111.40 17.80L111.41 17.81Q110.89 16.45 110.43 15.43L110.43 15.43L110.43 15.43Q107.66 14.63 105.37 13.37L105.45 13.45L105.37 13.37Q110.06 20.92 110.06 29.71L110.04 29.69L110.01 29.66Q109.99 36.61 106.87 42.74L106.98 42.85L106.92 42.79Q107.63 42.51 108.96 41.94L109.06 42.03L108.98 41.96Q108.55 42.70 107.75 44.22L107.75 44.23L107.77 44.24Q110.60 43.27 112.84 42.85L112.91 42.91L112.86 42.86Q114.75 37.33 114.94 31.16L114.91 31.14L115.03 31.25Q116.47 31.02 119.67 30.99L119.70 31.01L119.68 30.99Q122.64 31.06 124.54 31.14L124.49 31.08L124.43 31.02Q124.84 36.91 126.17 40.83Z"/><path fill="#be6cda" d="M57.64 41.08L57.63 41.07L57.61 41.05Q60.84 36.86 67.54 28.94L67.56 28.96L67.44 28.84Q61.66 29.19 57.89 27.82L57.85 27.78L57.85 27.77Q57.23 26.39 56.46 24.98L56.32 24.84L56.48 25.00Q60.51 26.44 64.96 26.48L64.95 26.46L65.06 26.58Q69.43 26.53 73.62 25.46L73.64 25.48L73.62 25.47Q73.23 26.14 72.96 26.68L73.02 26.73L72.97 26.68Q70.43 28.90 67.61 32.51L67.52 32.42L62.70 38.72L62.71 38.73Q64.84 38.43 67.09 38.50L67.20 38.61L67.13 38.55Q69.27 38.55 71.52 38.93L71.68 39.09L71.64 39.06Q71.68 39.55 72.40 41.57L72.40 41.57L72.45 41.61Q68.82 40.88 64.83 41.00L64.78 40.95L64.68 40.85Q60.68 40.93 57.03 42.11L57.05 42.13L57.08 42.16Q57.21 42.06 57.66 41.11ZM56.58 42.85L56.66 42.92L56.59 42.85Q57.26 42.41 58.86 42.00L59.03 42.16L58.94 42.07Q58.64 42.24 58.23 42.66L58.31 42.74L58.23 42.66Q57.97 43.20 57.36 44.34L57.50 44.49L57.42 44.40Q62.12 43.05 67.10 43.20L67.07 43.17L67.12 43.22Q72.18 43.48 76.74 45.34L76.59 45.19L76.72 45.32Q75.31 43.48 74.39 41.43L74.37 41.40L74.28 41.31Q73.58 41.07 72.51 40.84L72.39 40.72L72.45 40.78Q72.25 40.05 71.87 38.60L71.92 38.66L71.89 38.62Q70.47 38.42 66.90 38.31L66.86 38.27L66.74 38.16Q69.12 34.83 74.15 28.47L74.26 28.58L74.17 28.49Q74.54 27.87 75.23 26.54L75.15 26.46L72.92 27.28L72.77 27.12Q72.98 27.18 73.13 27.07L73.16 27.10L73.36 26.91L73.36 26.91Q73.79 25.82 74.36 24.87L74.36 24.87L74.36 24.88Q69.69 26.22 64.97 26.14L64.95 26.12L64.90 26.07Q60.13 26.03 55.64 24.20L55.58 24.14L55.56 24.12Q56.78 26.02 57.58 28.08L57.63 28.13L57.63 28.13Q58.40 28.37 59.47 28.64L59.57 28.74L59.54 28.71Q59.81 29.47 60.11 30.92L60.06 30.86L60.06 30.87Q61.62 31.09 64.93 31.24L64.97 31.28L64.98 31.29Q62.47 34.49 57.29 40.93L57.29 40.92L57.31 40.95Q57.04 41.51 56.47 42.73Z"/></svg>