<svg xmlns="http://www.w3.org/2000/svg" width="150" height="50" viewBox="0,0,150,50"><path fill="#60dc7f" d="M128.88 23.12L128.81 23.05L128.73 22.97Q126.94 25.71 124.28 31.35L124.31 31.38L122.25 35.56L122.44 35.75Q121.38 37.47 120.04 39.71L120.12 39.79L120.15 39.82Q120.64 39.85 118.96 39.89L118.94 39.86L118.92 39.85Q119.00 39.92 117.74 39.92L117.57 39.75L117.57 39.76Q116.86 38.28 113.92 31.12L114.09 31.29L113.94 31.13Q111.81 25.81 109.71 22.80L109.71 22.79L109.75 22.83Q110.45 25.85 110.45 29.01L110.60 29.16L110.54 29.10Q110.42 35.50 107.45 41.06L107.59 41.19L107.54 41.14Q106.24 41.52 103.88 42.25L103.89 42.25L103.86 42.22Q107.52 36.52 107.52 29.28L107.54 29.31L107.46 29.22Q107.47 20.29 102.06 13.32L102.12 13.38L102.21 13.47Q103.86 14.20 106.22 14.89L106.18 14.85L106.05 14.72Q113.17 21.53 119.26 34.86L119.30 34.90L119.29 34.89Q122.79 27.88 125.00 24.37L125.05 24.43L124.98 24.36Q128.55 18.56 132.51 15.10L132.53 15.12L132.59 15.18Q133.68 14.79 136.04 14.02L136.15 14.13L136.07 14.06Q131.23 20.82 131.23 29.42L131.12 29.32L131.19 29.39Q131.13 35.99 134.55 41.51L134.51 41.47L134.49 41.44Q133.30 41.28 130.56 40.67L130.59 40.71L130.51 40.63Q128.23 35.91 128.23 29.93L128.16 29.86L128.20 29.90Q128.06 26.34 128.75 22.99ZM130.32 41.01L130.21 40.89L130.38 41.07Q130.95 41.07 132.40 41.33L132.50 41.43L132.46 41.40Q132.83 42.07 133.78 43.55L133.84 43.62L133.94 43.71Q135.94 44.00 139.41 45.22L139.40 45.22L139.48 45.29Q133.10 38.84 133.10 29.02L133.17 29.09L133.12 29.03Q133.12 21.31 137.50 15.18L137.47 15.15L135.42 15.99L135.42 15.99Q136.26 14.28 136.91 13.41L137.03 13.53L137.01 13.51Q135.17 14.18 132.54 14.72L132.59 14.76L132.51 14.68Q125.69 20.73 119.64 33.33L119.66 33.35L119.68 33.38Q114.46 22.37 109.52 17.12L109.53 17.13L109.63 17.23Q109.24 17.15 108.67 17.04L108.54 16.90L107.34 15.63L107.31 15.59Q106.91 15.12 106.23 14.51L106.07 14.35L106.11 14.39Q103.14 13.49 101.35 12.76L101.25 12.66L101.36 12.77Q107.18 19.81 107.18 29.21L107.29 29.32L107.20 29.23Q107.35 36.99 103.20 42.86L103.20 42.85L103.17 42.83Q103.83 42.58 105.13 42.16L105.08 42.10L105.14 42.17Q105.08 42.49 103.67 44.58L103.66 44.57L103.50 44.41Q105.37 44.00 108.87 43.24L108.89 43.25L108.86 43.22Q112.56 36.16 112.37 28.39L112.49 28.50L112.51 28.52Q113.98 32.47 117.45 40.35L117.38 40.28L117.35 40.25Q117.62 40.22 117.85 40.22L117.79 40.17L118.38 40.22L118.42 40.26Q118.76 40.82 119.56 42.12L119.59 42.15L119.66 42.23Q121.28 42.20 121.28 42.20L121.26 42.19L121.37 42.30Q122.29 42.19 122.94 42.27L123.00 42.33L122.88 42.21Q124.52 38.26 127.87 30.26L127.74 30.13L127.89 30.27Q127.78 35.73 130.37 41.06Z"/><path fill="#79eb96" d="M35.34 14.15L35.33 14.15L35.21 14.02Q36.09 15.96 37.76 16.31L37.93 16.48L37.78 16.33Q38.46 16.58 39.14 16.39L38.99 16.24L39.16 16.41Q38.79 22.17 38.72 28.03L38.74 28.06L38.85 28.17Q38.70 33.85 38.93 39.79L38.93 39.78L39.05 39.91Q38.79 39.88 38.49 39.88L38.39 39.78L38.40 39.79Q36.85 39.80 35.55 41.62L35.48 41.55L35.57 41.64Q36.30 34.76 36.26 27.90L36.16 27.81L36.30 27.94Q36.11 20.94 35.27 14.09ZM35.24 42.87L35.23 42.86L35.16 42.79Q36.20 40.94 37.27 40.48L37.24 40.46L37.33 40.55Q37.12 41.44 37.12 42.43L37.14 42.45L37.18 42.49Q37.87 42.07 38.67 42.18L38.75 42.27L38.71 42.23Q40.78 42.59 42.00 45.29L42.00 45.29L42.02 45.31Q40.77 37.70 40.77 30.24L40.73 30.20L40.85 30.32Q40.86 22.61 41.70 15.30L41.53 15.13L41.68 15.28Q40.61 17.10 39.46 17.70L39.57 17.81L39.43 17.67Q39.40 16.62 39.48 15.55L39.60 15.67L39.51 15.58Q38.81 16.17 38.05 16.02L38.10 16.07L38.10 16.07Q35.72 15.48 34.73 12.63L34.79 12.69L34.72 12.62Q35.82 20.19 35.89 27.72L35.97 27.80L35.96 27.79Q36.08 35.29 35.20 42.83Z"/><path fill="#90a7ee" d="M27.15 39.84L27.17 39.86L25.23 39.86L25.22 39.85Q24.17 39.75 23.22 39.87L23.41 40.06L23.22 39.87Q23.92 33.80 23.92 29.80L23.95 29.83L23.80 29.68Q19.92 23.09 12.27 14.41L12.24 14.38L12.25 14.40Q14.03 15.38 17.38 16.18L17.43 16.23L17.33 16.12Q22.49 21.81 25.49 27.03L25.57 27.10L25.43 26.97Q28.43 21.40 32.80 16.37L32.90 16.46L32.89 16.46Q35.31 16.06 37.82 15.26L37.85 15.29L37.80 15.24Q31.68 21.26 26.81 29.68L26.95 29.81L26.87 29.74Q26.94 36.85 27.25 39.94ZM36.28 17.30L39.00 14.46L38.88 14.34Q35.97 15.69 32.84 16.14L32.74 16.04L32.78 16.08Q28.62 20.87 25.80 25.97L25.72 25.88L25.80 25.96Q23.55 22.20 20.36 18.31L20.36 18.32L20.28 18.24Q20.14 18.37 19.65 18.29L19.53 18.17L19.53 18.17Q18.97 17.50 17.45 15.83L17.45 15.82L17.41 15.79Q14.09 15.09 11.12 13.53L11.12 13.53L11.14 13.55Q18.69 21.86 23.45 29.78L23.61 29.94L23.57 29.90Q23.42 36.19 22.82 40.34L22.80 40.32L22.90 40.43Q23.64 40.41 25.09 40.29L24.99 40.20L24.98 41.21L25.06 41.29Q25.04 41.73 24.96 42.26L24.98 42.27L24.92 42.22Q28.46 42.22 30.21 42.41L30.25 42.45L30.24 42.44Q29.03 37.80 28.91 31.82L28.94 31.85L28.88 31.79Q33.24 23.31 39.78 15.97L39.85 16.03L36.29 17.30Z"/><path fill="#d282ec" d="M98.13 21.50L98.19 21.57L98.03 21.40Q96.49 20.17 94.85 19.79L94.91 19.85L94.91 19.85Q93.84 19.62 91.06 19.58L90.92 19.43L91.05 19.57Q85.72 19.38 83.67 21.39L83.63 21.36L83.79 21.52Q82.06 22.99 82.17 26.68L82.30 26.81L82.11 26.62Q82.30 30.46 82.46 31.41L82.44 31.39L82.49 31.45Q83.56 37.54 91.29 37.54L91.28 37.53L91.27 37.53Q96.00 37.58 98.10 35.18L98.07 35.15L98.13 35.21Q99.89 32.90 100.12 28.14L100.12 28.14L100.10 28.12Q100.42 23.37 98.09 21.47ZM91.21 40.47L91.23 40.49L91.29 40.55Q84.68 40.60 81.71 38.24L81.74 38.28L81.64 38.17Q79.75 36.21 79.64 31.14L79.54 31.05L79.55 31.06Q79.51 30.52 79.35 27.25L79.38 27.27L79.33 27.22Q79.11 24.52 79.14 23.46L79.27 23.59L79.21 23.53Q79.41 20.71 80.81 19.00L80.72 18.91L80.81 19.00Q83.36 16.71 88.24 16.56L88.21 16.53L88.21 16.53Q89.89 16.39 90.77 16.43L90.79 16.45L90.80 16.46Q100.93 16.73 102.68 21.07L102.62 21.01L102.70 21.09Q103.40 23.01 103.25 25.75L103.26 25.76L103.20 25.70Q103.16 27.38 102.97 30.65L102.96 30.64L102.99 30.67Q102.77 33.46 101.86 35.51L101.94 35.60L101.94 35.59Q99.91 40.34 91.26 40.53ZM103.56 40.45L103.58 40.47L103.56 40.45Q105.04 38.77 105.16 35.69L105.08 35.61L105.01 35.54Q105.16 34.59 105.12 32.99L105.17 33.04L105.08 32.95Q105.08 32.22 105.04 30.39L104.97 30.33L105.04 30.40Q105.05 23.32 103.11 20.85L102.94 20.68L103.01 20.75Q102.57 19.70 101.46 18.60L101.61 18.74L101.49 18.63Q98.29 16.22 90.82 16.06L90.90 16.14L90.84 16.08Q83.41 15.92 80.37 18.51L80.28 18.43L80.33 18.48Q78.98 20.43 78.98 23.37L78.93 23.32L78.92 23.31Q78.84 24.52 78.99 25.85L79.08 25.94L78.96 25.83Q79.14 27.07 79.18 28.52L79.18 28.52L79.14 28.48Q79.15 32.30 79.30 33.48L79.48 33.66L79.38 33.55Q79.79 36.51 81.12 38.30L81.05 38.23L81.19 38.37Q81.57 39.58 82.63 40.35L82.62 40.33L82.69 40.41Q85.89 42.69 93.65 42.88L93.61 42.83L93.60 42.82Q100.91 43.02 103.57 40.46ZM99.90 28.19L99.84 28.13L99.88 28.17Q99.71 32.76 97.81 34.85L97.68 34.72L97.86 34.91Q95.67 37.05 91.21 37.09L91.21 37.09L91.25 37.13Q86.87 37.13 84.74 35.22L84.75 35.23L84.79 35.27Q83.96 33.52 84.03 30.63L84.08 30.68L84.18 30.77Q84.31 26.18 86.32 24.01L86.25 23.94L86.17 23.86Q88.32 21.82 92.93 21.82L92.96 21.86L92.88 21.77Q97.02 21.73 99.12 23.60L99.25 23.73L99.07 23.55Q100.01 25.40 99.89 28.18Z"/><path fill="#dc55ba" d="M10.71 40.23L10.75 40.26L8.34 33.40L8.29 33.35Q3.86 20.70-2.08 14.30L-1.95 14.43L-2.13 14.25Q-0.10 15.33 2.49 15.94L2.52 15.97L2.66 16.11Q7.76 22.35 12.10 35.10L12.01 35.01L12.10 35.11Q15.08 26.93 15.77 25.33L15.82 25.39L15.79 25.36Q18.15 19.72 20.97 16.41L21.08 16.53L21.08 16.52Q23.13 16.13 25.76 15.26L25.77 15.27L25.62 15.12Q21.13 19.80 18.08 27.04L18.15 27.11L17.98 26.93Q16.75 30.77 13.06 40.29L12.99 40.22L12.97 40.20Q12.33 40.13 11.76 40.09L11.83 40.17L11.79 40.12Q11.26 40.16 10.69 40.20ZM15.76 42.69L15.68 42.60L15.67 42.60Q18.56 32.70 20.13 28.66L20.00 28.54L20.13 28.67Q23.03 20.87 27.44 16.00L27.48 16.03L27.38 15.93Q26.36 16.32 24.27 17.04L24.27 17.05L25.52 15.82L25.53 15.84Q26.08 15.13 26.69 14.48L26.69 14.48L26.62 14.41Q23.94 15.53 20.93 16.10L20.93 16.10L20.75 15.92Q16.45 21.33 12.56 32.79L12.62 32.85L12.62 32.85Q8.83 22.59 5.63 18.21L5.79 18.36L5.74 18.31Q5.28 18.15 4.40 18.00L4.51 18.11L4.40 18.00Q4.32 17.77 2.72 15.72L2.57 15.56L2.74 15.73Q-0.36 14.87-3.07 13.47L-2.97 13.56L-3.13 13.40Q3.56 20.55 7.94 33.34L7.97 33.37L8.06 33.46Q9.12 36.96 10.30 40.53L10.35 40.59L10.29 40.52Q10.77 40.70 11.60 40.59L11.59 40.57L11.63 40.61Q11.97 41.29 12.65 42.63L12.69 42.67L12.52 42.49Q13.54 42.60 14.27 42.68L14.14 42.55L14.20 42.61Q14.85 42.54 15.61 42.54Z"/><path fill="#bf8cf1" d="M46.92 32.89L46.97 32.94L46.92 32.89Q50.11 32.61 53.30 32.73L53.33 32.75L53.17 32.59Q53.30 30.21 53.30 27.82L53.25 27.77L53.23 27.75Q53.31 25.35 53.50 22.80L53.46 22.76L53.49 22.78Q52.26 24.49 47.05 33.02ZM56.79 40.21L56.86 40.28L56.93 40.35Q55.24 40.04 53.46 39.96L53.36 39.87L53.33 39.84Q53.18 37.51 53.06 35.04L53.07 35.04L53.13 35.10Q47.79 34.90 43.07 36.31L43.09 36.33L43.12 36.36Q43.17 35.80 43.36 34.81L43.40 34.85L43.43 34.89Q45.08 31.58 48.66 25.30L48.73 25.37L48.65 25.29Q51.72 20.60 55.14 16.71L54.96 16.53L54.99 16.55Q56.02 16.52 57.69 16.25L57.70 16.26L57.66 16.22Q55.75 22.64 55.75 29.69L55.78 29.72L55.61 29.56Q55.68 31.11 55.76 32.59L55.87 32.71L56.98 32.64L57.02 32.67Q57.70 32.79 58.31 32.90L58.31 32.90L58.30 32.89Q58.35 33.82 58.62 35.76L58.74 35.88L58.76 35.90Q57.46 35.55 55.98 35.36L55.92 35.30L55.93 35.32Q56.10 37.27 56.78 40.20ZM58.65 32.59L58.55 32.49L58.61 32.56Q58.43 32.48 58.24 32.48L58.09 32.34L57.71 32.34L57.84 32.47Q57.63 30.89 57.63 29.48L57.71 29.56L57.72 29.57Q57.71 23.17 59.77 17.15L59.82 17.21L59.67 17.06Q58.91 17.31 57.46 17.70L57.51 17.75L57.59 17.83Q57.70 16.95 58.16 15.54L58.21 15.60L58.12 15.50Q57.00 16.05 54.94 16.28L54.92 16.26L54.91 16.25Q50.97 20.57 45.75 29.94L45.64 29.82L47.83 26.27L47.86 26.29Q47.43 27.31 47.16 27.88L47.10 27.82L42.78 36.97L42.60 36.80Q43.25 36.64 44.39 36.26L44.53 36.40L44.34 36.59L44.37 36.62Q44.23 37.29 43.93 38.54L43.93 38.54L44.00 38.61Q48.05 37.22 52.89 37.41L52.83 37.35L52.93 37.45Q52.98 38.42 53.17 40.40L53.07 40.30L53.07 40.30Q54.06 40.22 55.12 40.33L55.16 40.37L55.17 40.38Q55.31 41.06 55.58 42.43L55.63 42.48L55.53 42.38Q57.52 42.69 60.53 43.61L60.60 43.68L60.63 43.71Q59.61 41.54 58.69 38.27L58.62 38.19L60.18 38.76L60.05 38.63Q60.84 38.97 61.53 39.31L61.39 39.18L61.40 39.19Q60.71 36.79 60.56 35.11L60.44 34.99L60.48 35.03Q59.98 34.95 58.83 34.72L58.72 34.60L58.86 34.75Q58.57 33.39 58.57 32.51ZM50.53 32.32L50.51 32.29L50.66 32.44Q51.40 31.13 52.96 28.58L52.88 28.50L52.81 28.43Q52.98 29.55 52.95 30.51L52.83 30.39L52.77 30.33Q52.87 31.42 52.91 32.37L52.91 32.37L52.98 32.44Q52.22 32.21 51.65 32.21L51.68 32.25L51.84 32.40Q51.23 32.41 50.63 32.41Z"/><path fill="#418edc" d="M107.57 39.76L107.57 39.76L107.75 39.94Q105.80 39.90 103.78 40.09L103.61 39.91L103.74 40.04Q104.38 34.79 104.38 29.95L104.34 29.91L104.25 29.82Q104.38 25.04 103.73 19.82L103.67 19.76L103.65 19.74Q99.14 19.42 95.95 17.74L95.98 17.78L95.18 15.95L95.20 15.97Q95.07 15.54 94.46 14.32L94.36 14.22L94.48 14.33Q99.52 16.98 105.54 17.17L105.57 17.21L105.52 17.15Q111.39 17.31 116.83 15.25L116.86 15.29L116.73 15.16Q116.19 16.75 115.55 18.58L115.50 18.54L115.52 18.55Q111.93 19.87 107.67 20.06L107.52 19.92L107.55 19.95Q107.26 24.87 107.26 29.82L107.42 29.98L107.39 29.95Q107.36 34.87 107.66 39.85ZM117.45 14.50L117.54 14.60L117.55 14.60Q111.62 16.78 105.42 16.59L105.47 16.65L105.42 16.60Q98.87 16.52 93.77 13.55L93.63 13.41L93.67 13.45Q94.39 14.71 95.69 17.98L95.75 18.04L95.69 17.98Q96.46 18.42 97.72 18.99L97.59 18.85L97.63 18.89Q97.97 19.69 98.31 21.21L98.22 21.13L98.29 21.19Q100.53 21.99 103.58 22.22L103.52 22.15L103.50 22.14Q104.03 25.98 104.03 29.75L103.99 29.71L103.92 29.64Q103.94 35.03 103.14 40.39L103.20 40.45L103.08 40.33Q104.79 40.25 105.32 40.25L105.44 40.37L105.43 40.36Q105.31 40.55 105.26 41.22L105.33 41.29L105.23 41.19Q105.18 41.87 105.18 42.21L105.22 42.24L105.17 42.20Q106.53 42.30 108.05 42.37L107.98 42.31L107.91 42.24Q108.83 42.28 110.66 42.43L110.75 42.53L110.77 42.55Q109.55 37.63 109.44 32.45L109.46 32.47L109.28 32.29Q109.25 27.09 109.79 22.18L109.73 22.12L109.82 22.22Q113.79 21.69 116.95 20.48L116.77 20.30L116.81 20.33Q117.62 18.06 118.65 16.00L118.57 15.93L118.56 15.92Q117.32 16.69 116.52 17.00L116.53 17.01L116.55 17.03Q116.86 15.63 117.43 14.48Z"/><path fill="#e75fe7" d="M74.74 33.37L74.62 33.25L74.75 33.37Q74.57 36.16 73.39 40.80L73.26 40.68L73.38 40.79Q71.63 41.37 70.03 42.17L69.87 42.01L69.87 42.00Q72.62 35.12 72.35 27.70L72.38 27.73L72.26 27.61Q71.97 20.20 68.88 13.46L68.97 13.55L68.92 13.49Q70.88 14.77 72.74 15.34L72.77 15.37L72.73 15.33Q74.95 22.38 74.95 29.05L74.89 28.99L75.00 29.09Q74.84 30.38 74.77 31.87L74.79 31.89L74.92 32.02Q75.88 30.62 81.09 25.67L81.14 25.72L81.26 25.83Q82.27 25.74 83.26 25.67L83.22 25.63L85.28 25.44L85.41 25.57Q82.22 28.55 77.92 32.32L77.92 32.32L77.84 32.24Q81.35 35.14 87.82 40.97L87.73 40.87L87.73 40.87Q84.94 39.91 81.97 39.72L82.13 39.88L82.09 39.84Q79.56 37.72 74.68 33.31ZM84.52 42.42L84.52 42.42L84.52 42.42Q89.36 43.38 92.49 45.33L92.44 45.28L92.47 45.31Q91.27 44.00 88.64 41.60L88.63 41.58L88.67 41.62Q88.92 41.72 89.18 41.83L89.05 41.70L89.15 41.79Q86.91 39.64 84.67 37.73L84.82 37.88L80.38 33.98L80.28 33.88Q85.36 29.78 87.80 26.89L87.81 26.91L87.75 26.85Q86.44 26.83 83.97 27.10L83.96 27.09L84.07 27.20Q85.68 25.77 86.37 24.93L86.42 24.98L86.25 24.81Q83.46 25.29 80.98 25.29L81.05 25.36L81.15 25.46Q79.73 26.75 76.99 29.41L76.90 29.32L76.91 29.33Q76.97 23.60 75.98 17.78L75.88 17.68L75.85 17.64Q75.17 17.50 73.69 17.23L73.62 17.17L73.77 17.32Q73.63 16.61 73.18 15.13L73.13 15.08L73.21 15.16Q70.58 14.36 68.33 12.79L68.15 12.61L68.27 12.74Q71.74 19.59 72.08 27.70L72.05 27.67L71.99 27.61Q72.43 35.62 69.42 42.86L69.42 42.86L69.31 42.75Q70.09 42.54 71.43 41.89L71.45 41.91L71.35 41.81Q71.20 42.73 70.55 44.18L70.52 44.14L70.44 44.07Q73.26 42.96 75.39 42.58L75.39 42.58L75.53 42.72Q76.00 40.11 76.50 35.84L76.55 35.90L76.42 35.77Q79.05 38.05 84.49 42.39Z"/><path d="M13 36 C84 34,79 22,134 15" stroke="#8282ed" fill="none"/><path fill="#de77de" d="M65.95 40.20L66.04 40.28L65.87 40.12Q64.01 40.05 62.33 40.62L62.41 40.69L62.31 40.60Q62.90 37.03 63.01 33.91L62.99 33.89L63.01 33.91Q63.13 30.87 62.90 27.21L62.92 27.23L62.89 27.21Q61.51 26.85 60.75 26.47L60.69 26.41L60.39 23.48L60.33 23.42Q61.24 24.22 62.84 24.79L62.72 24.67L62.73 24.68Q62.58 22.63 62.16 19.89L62.09 19.81L62.08 19.80Q64.39 20.52 66.03 20.37L65.95 20.28L65.94 25.00L65.87 24.93Q67.34 24.91 68.67 24.42L68.58 24.33L68.65 24.39Q68.54 25.24 68.31 26.99L68.44 27.12L68.30 26.97Q66.87 27.41 65.84 27.41L65.82 27.39L65.84 27.41Q65.77 29.51 65.77 33.78L65.83 33.84L65.78 33.79Q65.90 38.05 65.97 40.22ZM69.00 23.76L68.97 23.73L68.99 23.75Q68.82 23.95 68.21 24.18L68.20 24.17L68.51 21.33L68.65 21.46Q67.74 21.66 66.33 21.89L66.40 21.96L66.26 21.82Q66.42 21.30 66.58 19.93L66.54 19.89L66.45 19.80Q65.99 20.02 65.42 20.02L65.35 19.95L65.28 19.88Q63.16 19.89 61.52 19.17L61.55 19.20L61.64 19.29Q62.09 21.73 62.36 24.20L62.35 24.19L62.28 24.11Q61.53 23.91 60.01 22.88L59.92 22.79L59.85 22.72Q60.19 24.01 60.42 26.71L60.54 26.83L60.50 26.79Q60.92 26.98 62.10 27.40L62.06 27.37L62.19 27.49Q62.11 28.02 62.15 29.43L62.25 29.54L62.53 29.47L62.77 29.64L62.67 29.54Q62.80 30.84 62.80 32.02L62.72 31.94L62.77 32.00Q62.74 36.92 61.95 41.26L61.89 41.20L61.88 41.20Q62.14 41.15 64.08 40.62L64.07 40.61L64.06 40.59Q64.13 41.31 64.01 42.68L64.07 42.74L63.94 42.61Q64.75 42.54 65.55 42.54L65.57 42.56L65.61 42.60Q67.38 42.65 69.01 43.23L68.98 43.19L69.04 43.25Q67.63 37.46 67.82 29.54L67.77 29.49L70.12 29.06L70.24 29.18Q70.36 28.32 70.44 27.29L70.27 27.12L70.62 25.26L70.58 25.23Q69.98 25.46 68.80 25.92L68.83 25.95L68.75 25.87Q69.07 24.55 68.99 24.21L69.00 24.22L69.07 24.28Q69.08 24.10 69.15 23.91Z"/><path fill="#3f68e3" d="M132.79 28.77L132.87 28.84L132.92 28.90Q130.32 28.81 129.02 29.95L128.99 29.92L128.92 29.84Q127.58 31.17 127.77 33.68L127.69 33.60L127.71 33.63Q128.09 36.66 129.27 37.73L129.15 37.61L129.11 37.57Q130.59 38.86 132.68 38.71L132.80 38.82L132.82 38.84Q134.81 38.71 136.22 37.45L136.20 37.43L136.37 37.60Q137.69 36.44 137.88 33.89L137.86 33.87L137.77 33.79Q138.16 28.88 132.79 28.77ZM132.64 41.29L132.61 41.26L131.13 41.35L131.11 41.32Q128.28 41.35 126.79 39.94L126.86 40.01L126.76 39.90Q125.87 38.97 125.60 37.03L125.60 37.03L125.57 37.00Q125.34 35.82 125.19 33.61L125.24 33.66L125.28 33.70Q125.05 32.56 124.94 30.31L125.09 30.47L125.02 30.40Q124.97 28.56 125.92 27.42L125.86 27.36L125.87 27.37Q127.57 25.83 132.29 25.98L132.47 26.16L132.37 26.06Q137.35 26.28 139.17 27.80L139.08 27.71L139.09 27.72Q140.52 28.88 140.33 32.08L140.46 32.20L140.42 32.17Q140.27 35.78 140.19 36.20L140.13 36.14L140.11 36.12Q139.76 38.36 138.43 39.54L138.44 39.56L138.39 39.50Q136.47 41.31 132.66 41.31ZM137.30 43.67L137.36 43.72L137.36 43.72Q138.78 43.70 140.68 43.54L140.85 43.71L140.70 43.57Q141.20 43.49 141.20 43.34L141.22 43.36L141.25 43.39Q141.17 43.24 141.13 43.08L141.17 43.12L141.29 43.24Q141.10 42.94 141.10 42.82L141.18 42.90L141.20 42.92Q141.22 42.68 141.56 42.37L141.56 42.37L141.59 42.40Q142.35 41.14 142.35 39.24L142.42 39.31L142.45 39.33Q142.42 38.36 142.33 35.94L142.29 35.90L142.30 35.91Q142.21 33.50 142.05 32.40L141.96 32.30L141.97 32.31Q141.72 30.31 140.81 29.17L140.71 29.07L140.54 29.01L140.38 28.85Q140.37 28.35 139.57 27.44L139.50 27.36L139.49 27.36Q137.23 25.67 132.32 25.67L132.27 25.62L130.52 25.61L130.54 25.64Q127.21 25.62 125.49 26.99L125.58 27.08L125.56 27.06Q124.69 28.16 124.72 30.18L124.59 30.04L124.60 30.06Q124.64 30.51 124.78 31.77L124.76 31.76L124.91 31.91Q124.95 33.07 124.91 33.52L125.05 33.66L125.01 33.62Q125.16 36.59 125.23 37.05L125.26 37.07L125.27 37.08Q125.65 39.21 126.57 40.36L126.55 40.34L126.63 40.50L126.67 40.53Q127.41 42.92 131.14 43.34L131.19 43.38L131.14 43.33Q132.02 43.45 137.28 43.64ZM134.56 30.99L134.66 31.09L134.72 31.15Q135.56 31.15 137.23 31.68L137.24 31.70L137.19 31.64Q137.64 32.48 137.60 33.96L137.53 33.88L137.61 33.97Q137.45 37.38 134.56 38.14L134.46 38.05L134.60 38.18Q133.81 38.32 132.79 38.43L132.74 38.38L132.73 38.37Q131.65 38.40 129.93 37.79L129.97 37.83L130.00 37.85Q129.80 37.20 129.84 35.71L129.83 35.70L129.76 35.63Q129.83 33.30 131.20 32.28L131.32 32.40L131.22 32.30Q132.07 31.36 134.62 31.05Z"/></svg>