<svg xmlns="http://www.w3.org/2000/svg" width="150" height="50" viewBox="0,0,150,50"><path fill="#ecaf73" d="M49.90 39.98L49.82 39.91L49.75 39.83Q45.62 39.32 43.80 37.88L43.78 37.86L43.77 37.85Q42.00 36.46 41.58 33.45L41.57 33.44L41.57 33.44Q41.47 33.00 41.13 28.24L41.16 28.27L41.24 28.35Q41.17 27.07 41.10 25.81L41.30 26.01L41.23 25.94Q41.02 20.87 43.23 19.11L43.28 19.17L43.18 19.06Q45.80 16.92 53.56 16.24L53.70 16.37L53.62 16.30Q54.99 16.18 56.63 16.22L56.62 16.21L56.69 16.28Q56.57 16.16 59.54 16.16L59.57 16.19L59.52 16.14Q60.52 16.30 62.23 16.46L62.23 16.46L62.11 16.33Q61.62 17.29 60.59 20.37L60.62 20.40L60.70 20.48Q58.52 19.18 55.51 19.18L55.42 19.09L55.44 19.11Q54.71 19.14 53.91 19.21L53.96 19.27L54.01 19.31Q48.94 19.79 46.42 21.77L46.29 21.64L46.29 21.64Q44.35 23.31 44.19 26.66L44.16 26.63L44.25 26.72Q44.21 27.33 44.25 28.59L44.27 28.60L44.25 28.58Q44.36 33.42 46.76 35.51L46.59 35.34L46.73 35.48Q48.79 37.31 53.78 37.62L53.85 37.69L53.75 37.59Q56.88 37.75 59.88 35.96L59.88 35.95L60.04 36.11Q60.55 38.76 61.16 40.13L61.23 40.20L61.11 40.07Q59.08 40.41 57.45 40.37L57.51 40.44L57.51 40.43Q52.99 40.33 49.87 39.95ZM64.96 43.66L64.87 43.57L65.01 43.71Q63.25 40.73 62.57 38.15L62.49 38.07L62.43 38.01Q62.08 38.34 61.09 38.72L61.03 38.66L60.99 38.62Q60.64 37.81 60.44 36.98L60.58 37.11L60.19 35.39L60.14 35.34Q56.90 37.42 53.77 37.31L53.70 37.24L53.82 37.36Q49.51 37.12 47.19 35.37L47.20 35.38L47.09 35.27Q45.99 33.49 46.07 30.56L46.14 30.62L46.16 30.64Q46.35 26.19 48.82 24.06L48.69 23.92L48.73 23.96Q50.78 21.98 55.46 21.37L55.54 21.45L55.57 21.48Q56.43 21.42 57.15 21.42L57.05 21.32L57.10 21.37Q59.95 21.44 62.04 22.97L61.85 22.78L61.98 22.90Q62.45 20.74 63.67 17.51L63.57 17.41L63.62 17.46Q63.30 17.41 62.75 17.35L62.77 17.37L62.88 17.48Q62.29 17.39 62.03 17.39L62.07 17.43L61.98 17.35Q62.31 16.95 62.76 15.96L62.77 15.96L62.60 15.80Q62.35 15.77 59.85 15.69L59.91 15.75L59.97 15.81Q57.51 15.77 56.86 15.81L56.73 15.67L56.85 15.79Q46.21 16.00 42.74 18.59L42.83 18.67L42.92 18.77Q40.92 20.61 40.92 24.53L40.76 24.37L40.82 24.43Q40.80 25.52 40.92 28.22L40.96 28.27L40.95 28.25Q41.13 31.86 41.36 33.58L41.34 33.55L41.34 33.55Q41.58 36.54 43.18 38.06L43.30 38.18L43.23 38.11Q43.83 38.90 45.08 40.04L45.08 40.04L45.10 40.06Q48.37 41.84 53.63 42.61L53.56 42.54L53.63 42.61Q60.00 43.50 64.99 43.69Z"/><path fill="#49e3e3" d="M24.08 41.09L24.03 41.04L22.40 41.13L22.46 41.18Q18.98 41.10 18.03 38.96L18.07 39.01L18.16 39.09Q19.29 38.01 20.74 36.91L20.67 36.85L20.70 36.88Q21.25 39.02 24.10 38.87L24.20 38.97L24.10 38.87Q24.94 38.87 25.97 38.64L25.98 38.65L26.03 38.70Q26.80 38.02 26.72 37.07L26.73 37.08L26.78 37.13Q26.78 36.10 24.99 35.42L24.85 35.27L21.08 33.79L21.10 33.80Q18.74 32.44 18.39 28.90L18.55 29.05L18.38 28.89Q18.31 26.87 20.48 26.30L20.46 26.28L20.43 26.25Q21.42 26.06 24.39 26.06L24.28 25.95L24.30 25.97Q29.19 25.99 30.10 28.50L30.06 28.46L30.10 28.49Q29.54 29.11 28.81 29.57L28.86 29.62L27.32 30.43L27.28 30.40Q26.90 28.61 23.66 28.38L23.66 28.37L23.66 28.38Q23.14 28.47 22.12 28.89L22.09 28.86L22.12 28.89Q21.51 29.19 21.51 30.30L21.49 30.28L21.43 30.22Q21.90 31.41 23.72 32.09L23.56 31.93L23.72 32.09Q24.73 32.41 27.39 33.52L27.43 33.55L27.34 33.46Q29.27 34.40 29.46 36.95L29.41 36.90L29.34 36.83Q29.45 37.52 29.38 38.51L29.38 38.51L29.37 38.50Q29.37 39.42 28.80 40.07L28.78 40.04L28.78 40.04Q27.11 41.08 24.06 41.08ZM28.86 43.70L28.90 43.74L28.95 43.79Q29.73 43.69 31.10 43.39L31.20 43.49L31.14 43.43Q32.22 42.76 32.03 41.54L31.99 41.50L31.99 41.50Q32.01 41.02 31.70 39.43L31.74 39.47L31.74 39.46Q31.15 36.47 29.36 35.26L29.38 35.27L29.30 35.19Q28.86 33.88 27.61 33.16L27.46 33.01L27.56 33.11Q26.28 32.67 23.81 31.72L23.73 31.64L23.73 31.64Q24.06 31.36 24.32 31.25L24.19 31.11L24.30 31.22Q24.77 30.63 25.42 30.59L25.55 30.73L25.42 30.60Q26.25 30.58 27.01 30.85L27.03 30.87L27.05 30.97L27.17 30.97L27.53 31.15L27.42 31.07L27.39 31.03Q28.53 31.57 28.72 32.83L28.76 32.87L28.75 32.85Q29.87 31.88 31.77 30.21L31.91 30.35L31.88 30.32Q31.56 29.53 30.57 28.35L30.67 28.46L30.61 28.39Q29.42 25.64 24.32 25.53L24.46 25.67L24.28 25.49Q21.20 25.54 19.22 26.11L19.18 26.07L19.22 26.10Q17.81 26.68 18.04 28.77L17.98 28.71L18.04 28.77Q18.16 30.04 19.08 32.13L19.17 32.22L19.04 32.10Q19.56 33.18 20.58 33.90L20.67 33.99L20.65 33.97Q21.30 35.42 22.60 36.11L22.62 36.13L22.65 36.16Q23.63 36.46 24.59 36.84L24.57 36.82L26.36 37.47L26.50 37.61Q26.07 38.63 24.13 38.51L24.07 38.46L24.15 38.53Q23.74 38.62 22.52 38.31L22.52 38.32L22.47 38.12L22.38 38.25L22.37 38.24Q21.40 37.76 20.75 36.28L20.79 36.31L20.80 36.32Q18.61 37.83 17.50 38.97L17.52 38.98L17.65 39.12Q17.78 39.85 18.80 40.65L18.82 40.67L18.75 40.91L18.71 40.86Q20.15 42.99 24.38 43.37L24.42 43.41L24.40 43.39Q25.74 43.59 28.97 43.82Z"/><path fill="#7048e9" d="M79.31 40.11L79.43 40.22L79.31 40.10Q77.49 40.07 75.81 40.64L75.88 40.71L75.81 40.64Q76.34 37.02 76.46 33.90L76.50 33.95L76.56 34.00Q76.71 31.00 76.49 27.34L76.48 27.34L76.30 27.15Q75.00 26.89 74.24 26.51L74.25 26.52L73.86 23.50L73.87 23.51Q74.58 24.11 76.18 24.68L76.20 24.70L76.23 24.72Q75.91 22.50 75.49 19.76L75.50 19.78L75.62 19.89Q77.79 20.46 79.42 20.31L79.57 20.45L79.32 24.92L79.35 24.95Q80.78 24.90 82.11 24.40L82.08 24.37L82.15 24.44Q82.11 25.35 81.88 27.11L81.81 27.03L81.85 27.07Q80.30 27.39 79.27 27.39L79.20 27.32L79.34 27.46Q79.38 29.67 79.38 33.93L79.20 33.75L79.26 33.81Q79.29 37.99 79.37 40.16ZM82.54 23.85L82.55 23.86L82.45 23.76Q82.18 23.86 81.57 24.09L81.63 24.15L82.04 21.40L82.10 21.47Q81.22 21.68 79.81 21.91L79.76 21.86L79.73 21.84Q79.90 21.32 80.06 19.95L80.03 19.92L79.91 19.81Q79.35 19.93 78.78 19.93L78.82 19.97L78.70 19.85Q76.64 19.92 75.00 19.20L75.01 19.20L74.93 19.12Q75.58 21.75 75.84 24.23L75.75 24.13L75.69 24.07Q74.81 23.73 73.29 22.70L73.38 22.79L73.37 22.78Q73.75 24.12 73.98 26.82L73.96 26.80L74.02 26.86Q74.36 26.97 75.54 27.39L75.63 27.48L75.57 27.42Q75.69 28.15 75.73 29.56L75.58 29.41L76.05 29.54L76.09 29.49L76.24 29.65Q76.10 30.69 76.10 31.87L76.20 31.97L76.14 31.90Q76.17 36.88 75.37 41.22L75.40 41.26L75.36 41.21Q75.67 41.23 77.61 40.69L77.50 40.58L77.53 40.61Q77.49 41.21 77.37 42.59L77.53 42.74L77.48 42.69Q78.32 42.66 79.12 42.66L79.12 42.66L79.07 42.61Q80.75 42.57 82.39 43.14L82.48 43.24L82.33 43.09Q81.00 37.38 81.19 29.46L81.23 29.50L83.68 29.17L83.59 29.08Q83.83 28.33 83.91 27.30L83.72 27.12L84.00 25.19L84.08 25.27Q83.45 25.48 82.27 25.93L82.19 25.85L82.23 25.90Q82.52 24.55 82.44 24.20L82.52 24.28L82.57 24.33Q82.54 24.11 82.61 23.92Z"/><path fill="#dd68a3" d="M113.33 19.08L113.38 19.13L113.50 19.25Q114.55 23.65 114.70 26.85L114.77 26.92L114.74 26.89Q115.28 26.98 119.66 27.09L119.62 27.05L119.56 26.99Q122.06 26.98 122.45 23.52L122.61 23.68L122.42 23.50Q122.69 21.82 121.77 20.90L121.74 20.87L121.84 20.98Q120.53 20.04 118.55 19.89L118.45 19.79L118.49 19.83Q115.25 19.60 113.39 19.14ZM114.92 28.90L114.90 28.87L114.91 28.89Q115.00 34.81 113.22 40.75L113.25 40.78L113.27 40.81Q111.98 41.07 109.39 42.10L109.34 42.05L109.33 42.04Q112.17 35.55 111.83 28.09L111.87 28.14L111.79 28.05Q111.60 20.82 108.29 14.31L108.30 14.32L108.30 14.32Q113.13 17.09 120.10 17.09L120.11 17.11L120.16 17.16Q125.75 17.11 126.01 20.65L125.97 20.61L126.04 20.68Q125.96 21.13 125.89 21.74L125.98 21.83L125.97 23.04L125.90 22.98Q125.02 26.85 122.89 28.57L123.03 28.71L122.95 28.63Q122.23 29.39 121.20 29.39L121.12 29.31L118.52 29.30L118.43 29.22Q124.07 36.48 128.60 41.05L128.68 41.14L128.59 41.05Q126.39 40.30 123.46 39.95L123.50 39.99L123.54 40.04Q119.79 36.09 114.88 28.85ZM123.45 40.43L123.37 40.35L123.75 40.43L124.99 41.67L124.88 41.56Q125.44 42.08 126.09 42.69L126.16 42.76L126.17 42.78Q129.76 43.44 133.34 45.30L133.29 45.25L133.39 45.35Q126.34 38.49 120.94 31.57L120.91 31.53L122.75 31.63L122.70 31.58Q125.82 31.61 127.15 27.08L127.22 27.15L127.04 26.97Q127.83 24.86 127.83 22.16L127.88 22.22L127.82 22.16Q127.86 19.91 126.15 19.26L126.17 19.28L126.04 19.15Q126.08 18.93 125.50 18.24L125.47 18.21L125.33 18.06Q123.78 16.74 120.12 16.67L120.17 16.71L119.98 16.52Q112.19 16.46 107.50 13.45L107.61 13.56L107.54 13.48Q111.21 20.24 111.55 27.93L111.63 28.01L111.51 27.88Q111.96 35.95 108.83 42.80L108.84 42.81L108.86 42.82Q110.01 42.14 110.81 41.84L110.93 41.96L109.92 44.22L109.94 44.25Q112.68 43.22 115.34 42.72L115.28 42.66L115.21 42.59Q116.59 37.57 116.78 32.36L116.71 32.29L116.79 32.37Q120.24 37.27 123.40 40.39ZM122.05 22.36L122.06 22.38L122.07 22.38Q122.10 22.64 122.10 22.98L122.14 23.02L122.27 23.73L122.21 23.67Q122.10 24.66 121.42 25.61L121.51 25.71L121.42 25.61Q120.78 26.35 119.87 26.54L119.91 26.58L120.01 26.68Q119.69 26.62 118.09 26.66L118.16 26.74L118.13 26.70Q117.47 26.65 116.64 26.54L116.79 26.70L116.69 26.60Q116.63 25.13 116.29 22.08L116.23 22.02L116.19 21.98Q117.66 22.23 118.34 22.23L118.44 22.33L118.42 22.31Q120.26 22.33 122.21 22.52Z"/><path fill="#7a58de" d="M72.28 37.91L72.18 37.81L72.21 37.83Q72.50 38.81 73.03 40.83L73.06 40.86L73.18 40.97Q68.97 39.66 64.36 39.92L64.29 39.85L64.23 39.79Q59.70 40.10 55.70 42.08L55.68 42.05L55.66 42.04Q56.04 41.50 56.08 41.58L55.91 41.41L56.05 41.55Q59.75 37.56 63.67 33.14L63.60 33.08L63.58 33.05Q68.04 28.11 69.22 23.43L69.14 23.34L69.23 23.44Q69.72 21.72 68.45 20.54L68.42 20.52L68.38 20.47Q67.24 19.43 65.45 19.58L65.29 19.42L65.38 19.51Q64.98 19.41 64.63 19.41L64.64 19.42L64.67 19.45Q63.23 19.53 61.98 20.44L61.82 20.29L61.80 20.27Q60.64 21.78 60.87 24.44L60.88 24.45L60.80 24.37Q59.08 24.10 57.86 23.64L57.89 23.67L57.78 23.56Q57.71 22.27 57.63 20.82L57.58 20.77L57.54 20.73Q57.42 19.05 58.03 17.91L58.07 17.95L58.00 17.87Q59.80 16.52 63.15 16.52L63.15 16.51L64.99 16.61L65.04 16.65Q67.27 16.64 68.22 16.75L68.14 16.67L68.12 16.66Q72.50 17.11 72.76 19.55L72.73 19.51L72.77 19.55Q72.92 20.20 72.85 21.00L72.78 20.94L72.83 20.99Q72.72 21.56 72.57 22.25L72.64 22.31L72.56 22.23Q71.06 30.49 63.49 37.34L63.50 37.35L63.39 37.24Q64.78 37.06 66.15 37.06L66.25 37.17L66.27 37.19Q69.49 37.17 72.35 37.97ZM71.66 17.03L71.69 17.07L71.78 17.15Q70.07 16.39 68.35 16.31L68.41 16.37L64.91 16.11L64.95 16.15Q60.42 15.81 58.21 16.91L58.35 17.04L58.21 16.91Q57.15 18.29 57.15 20.34L57.14 20.33L57.27 20.46Q57.34 21.22 57.65 24.03L57.61 24.00L57.53 23.92Q58.15 24.23 59.33 24.54L59.28 24.48L59.27 25.50L59.32 25.55Q59.25 25.98 59.32 26.51L59.29 26.47L59.37 26.55Q60.59 26.63 63.06 26.86L62.97 26.77L63.14 26.94Q62.93 26.39 62.93 26.05L63.09 26.20L62.99 26.11Q62.99 24.28 64.21 22.93L64.27 22.98L64.32 23.04Q65.56 21.70 67.35 21.82L67.21 21.68L67.20 21.67Q68.09 21.84 68.85 21.99L68.76 21.90L68.80 21.94Q68.88 22.29 68.96 22.71L68.89 22.64L68.99 22.73Q69.00 23.13 68.92 23.47L68.88 23.43L68.90 23.45Q67.66 28.22 63.24 33.05L63.25 33.07L63.17 32.99Q61.14 35.33 55.70 41.39L55.67 41.35L55.70 41.39Q55.51 42.23 55.17 42.80L55.13 42.76L55.14 42.77Q56.75 41.91 58.28 41.38L58.24 41.34L58.25 41.35Q57.49 41.89 56.54 43.37L56.67 43.50L56.60 43.43Q56.54 43.82 56.42 44.17L56.45 44.19L56.35 44.09Q61.19 42.01 66.67 42.20L66.67 42.20L66.76 42.29Q72.36 42.36 76.93 44.72L77.01 44.80L76.01 42.66L75.90 42.56Q75.29 41.26 75.02 40.46L75.05 40.48L75.00 40.43Q74.42 40.17 73.21 39.75L73.21 39.75L73.06 39.60Q73.03 38.99 72.64 37.62L72.51 37.49L72.57 37.55Q70.42 37.04 68.14 36.85L68.03 36.74L68.06 36.77Q72.74 32.20 74.26 23.94L74.32 23.99L74.41 21.00L74.46 21.05Q74.33 19.21 73.11 18.52L73.18 18.60L73.18 18.63L73.15 18.60Q73.17 18.59 73.10 18.59L73.00 18.48L72.96 18.44Q72.74 17.62 71.63 17.01Z"/><path fill="#43e4e4" d="M97.84 28.64L97.93 28.73L91.94 28.71L92.08 28.86Q89.08 28.83 86.15 28.75L86.09 28.69L86.11 28.71Q86.16 35.34 84.10 40.86L84.09 40.86L84.29 41.05Q82.31 41.40 80.56 42.08L80.63 42.15L80.69 42.21Q83.42 36.46 83.42 29.79L83.47 29.84L83.41 29.78Q83.36 21.24 79.25 14.20L79.28 14.22L79.30 14.25Q80.72 14.95 83.20 15.75L83.32 15.87L83.25 15.80Q85.31 20.80 85.85 25.67L85.90 25.72L85.84 25.67Q89.13 26.17 91.98 26.13L91.92 26.07L91.99 26.14Q94.64 26.12 97.95 25.86L97.88 25.78L97.91 25.82Q98.47 21.51 100.22 16.41L100.17 16.35L100.18 16.36Q102.07 15.89 104.32 15.06L104.36 15.10L104.34 15.08Q100.76 21.85 100.76 29.81L100.67 29.72L100.65 29.70Q100.81 36.06 103.17 41.39L103.09 41.31L103.07 41.29Q101.44 40.65 99.39 40.35L99.47 40.44L99.43 40.40Q97.68 35.30 97.80 28.60ZM99.14 40.71L99.24 40.81L99.21 40.78Q100.16 40.85 101.26 41.12L101.33 41.19L101.29 41.15Q101.70 41.94 102.34 43.42L102.23 43.31L102.31 43.38Q105.66 44.34 107.45 45.26L107.49 45.30L107.40 45.20Q103.08 39.17 102.77 30.91L102.59 30.73L102.74 30.88Q102.34 22.75 106.00 15.94L106.04 15.98L104.95 16.41L104.99 16.45Q104.48 16.66 103.87 16.81L103.78 16.73L103.84 16.79Q104.25 15.98 105.09 14.42L105.14 14.47L105.15 14.48Q102.36 15.38 99.74 15.88L99.81 15.95L99.87 16.01Q98.20 20.85 97.74 25.53L97.69 25.48L97.77 25.56Q95.20 25.70 92.76 25.70L92.86 25.79L92.80 25.73Q90.31 25.64 87.80 25.49L87.95 25.64L87.96 25.65Q87.68 22.33 86.58 18.25L86.47 18.15L86.58 18.25Q85.91 18.16 84.47 17.78L84.36 17.67L84.46 17.77Q83.99 16.46 83.53 15.43L83.60 15.50L83.64 15.54Q80.75 14.64 78.47 13.38L78.52 13.43L78.59 13.50Q83.03 20.80 83.03 29.59L83.07 29.63L83.15 29.71Q83.14 36.66 80.02 42.79L80.01 42.79L79.92 42.70Q80.78 42.57 82.11 42.00L82.11 42.00L82.12 42.01Q81.63 42.69 80.83 44.22L80.85 44.23L80.82 44.20Q83.79 43.37 86.04 42.95L85.99 42.91L85.89 42.81Q87.79 37.28 87.98 31.11L87.99 31.13L88.00 31.14Q89.71 31.17 92.91 31.13L92.81 31.03L92.81 31.03Q95.69 31.02 97.59 31.09L97.68 31.18L97.50 31.00Q97.82 36.80 99.15 40.72Z"/><path fill="#e3e372" d="M29.27 14.23L29.27 14.23L29.30 14.26Q33.22 16.92 37.98 17.15L37.96 17.13L37.99 17.16Q42.43 17.15 46.70 15.40L46.76 15.46L46.76 15.47Q46.54 16.05 45.78 18.83L45.76 18.81L45.69 18.74Q43.14 19.95 40.17 20.10L39.99 19.93L40.01 19.94Q37.04 20.10 34.15 19.37L34.26 19.48L34.13 19.35Q34.83 22.99 35.02 26.65L35.06 26.68L35.10 26.72Q37.10 26.93 38.70 26.90L38.75 26.94L38.77 26.96Q40.00 26.97 42.40 26.86L42.42 26.89L42.22 26.69Q42.34 27.50 42.34 28.18L42.24 28.08L42.34 29.51L42.29 29.46Q39.81 29.38 35.02 29.46L35.02 29.46L35.14 29.58Q35.05 33.60 34.48 37.59L34.56 37.68L34.45 37.57Q37.06 36.91 39.80 37.02L39.86 37.08L39.84 37.05Q42.60 37.19 45.19 38.03L45.17 38.01L45.20 38.04Q45.18 38.75 45.45 39.51L45.57 39.63L45.91 41.03L46.01 41.13Q42.69 39.72 39.27 39.72L39.26 39.71L39.42 39.88Q34.38 39.71 30.12 41.96L30.16 42.00L30.27 42.10Q32.60 35.30 32.33 28.18L32.36 28.20L32.21 28.06Q32.01 20.97 29.34 14.30ZM29.78 42.84L29.77 42.82L29.74 42.80Q31.07 42.14 31.83 41.80L31.65 41.62L31.67 41.64Q31.64 42.56 31.07 44.08L30.95 43.96L30.98 43.99Q35.45 41.96 40.52 42.23L40.60 42.31L40.55 42.26Q45.73 42.56 49.72 45.27L49.78 45.32L49.74 45.29Q48.67 42.84 47.98 40.90L47.91 40.83L47.85 40.77Q46.97 40.26 45.98 39.92L45.82 39.76L45.84 39.78Q45.45 38.41 45.30 37.61L45.47 37.77L45.44 37.74Q42.31 36.71 39.15 36.71L39.10 36.67L39.16 36.72Q38.00 36.71 36.86 36.82L36.87 36.83L36.77 36.73Q37.02 35.61 37.06 34.39L36.98 34.31L37.08 31.83L36.98 31.72Q38.84 31.68 40.63 31.72L40.63 31.72L40.65 31.74Q42.42 31.72 44.21 31.88L44.21 31.88L44.24 31.91Q44.32 31.11 44.32 30.16L44.15 29.98L44.22 28.15L43.44 28.25L43.47 28.28Q43.08 28.38 42.62 28.38L42.58 28.34L42.60 28.35Q42.55 27.62 42.70 26.33L42.61 26.24L42.62 26.24Q41.09 26.54 39.91 26.58L39.99 26.66L39.87 26.55Q38.88 26.51 37.06 26.43L37.10 26.47L37.10 26.48Q37.12 25.16 36.93 22.35L36.82 22.24L36.88 22.30Q37.82 22.32 38.81 22.32L38.88 22.39L38.83 22.35Q43.68 22.48 47.38 20.57L47.29 20.49L47.35 20.55Q47.94 18.21 48.82 16.00L48.84 16.02L48.82 16.01Q47.43 16.78 46.59 17.12L46.63 17.17L46.60 17.13Q46.99 16.46 47.45 14.90L47.28 14.73L47.28 14.72Q42.74 16.97 37.87 16.66L37.75 16.55L37.76 16.56Q32.62 16.40 28.77 13.54L28.62 13.39L28.75 13.52Q31.61 20.45 31.92 28.07L31.90 28.05L31.99 28.14Q32.33 36.10 29.82 42.87Z"/><path fill="#964ce0" d="M3.90 15.87L3.91 15.87L3.98 15.94Q5.71 20.65 6.28 25.82L6.36 25.90L6.45 25.99Q10.07 21.77 15.97 16.93L15.98 16.95L15.95 16.91Q19.15 16.61 21.78 15.81L21.73 15.76L15.17 21.38L15.23 21.44Q11.92 24.49 9.06 27.34L9.04 27.32L9.04 27.32Q16.85 36.31 21.91 41.03L21.92 41.04L21.98 41.11Q19.00 40.29 16.67 40.14L16.58 40.04L16.63 40.09Q10.81 34.65 6.50 28.82L6.54 28.86L6.50 28.82Q6.58 35.41 4.71 40.74L4.69 40.72L4.69 40.71Q4.54 40.83 4.04 41.02L3.96 40.93L4.04 41.21L3.99 41.16Q3.70 41.09 1.15 42.00L1.14 42.00L1.19 42.04Q4.18 35.52 3.84 28.06L3.75 27.97L3.86 28.08Q3.51 20.73-0.03 14.22L0.03 14.28L0.59 14.57L0.89 14.75L0.91 14.74L1.02 14.85Q1.77 15.26 3.98 15.94ZM4.26 15.66L4.11 15.51L4.08 15.47Q1.81 14.91-0.82 13.39L-0.68 13.53L-0.76 13.45Q3.48 20.70 3.48 29.64L3.63 29.80L3.49 29.65Q3.53 36.70 0.56 42.75L0.63 42.82L2.53 41.83L2.56 41.86Q2.28 42.99 1.59 44.28L1.56 44.24L1.44 44.13Q3.71 43.35 5.65 42.93L5.64 42.92L5.72 42.77L5.81 42.86Q6.12 42.86 6.69 42.71L6.60 42.63L6.63 42.65Q8.36 36.80 8.47 32.01L8.34 31.88L8.47 32.01Q10.53 34.49 12.36 36.35L12.34 36.34L12.38 36.37Q13.46 37.38 16.47 40.35L16.41 40.29L16.47 40.35L16.46 40.34Q17.62 41.31 19.49 42.91L19.37 42.79L19.37 42.79Q23.20 43.46 26.66 45.18L26.83 45.34L26.84 45.35Q17.51 36.75 11.27 29.32L11.27 29.33L11.24 29.30Q15.54 24.92 24.30 16.32L24.28 16.30L24.38 16.39Q21.73 17.44 19.71 17.82L19.88 17.98L19.76 17.87Q20.96 16.86 23.28 14.84L23.38 14.94L23.25 14.81Q19.25 16.33 15.90 16.52L15.89 16.51L15.80 16.42Q13.03 18.79 8.16 23.48L8.10 23.42L8.18 23.49Q7.68 20.79 7.11 18.23L7.04 18.16L7.15 18.28Q5.91 18.06 4.92 17.72L4.99 17.79L5.03 17.83Q4.71 16.98 4.14 15.53Z"/><path d="M8 46 C93 8,79 10,131 3" stroke="#84ebb7" fill="none"/><path fill="#66a5e5" d="M132.50 30.37L132.48 30.36L132.60 30.48Q129.05 36.75 125.62 40.71L125.56 40.64L125.61 40.70Q123.83 41.20 121.39 42.07L121.42 42.10L121.25 41.93Q126.33 36.51 131.09 28.09L131.07 28.07L130.93 27.94Q126.43 21.07 120.45 14.67L120.34 14.56L120.47 14.70Q123.44 15.95 125.72 16.44L125.70 16.42L125.68 16.40Q130.26 21.55 132.69 25.51L132.75 25.56L132.66 25.48Q135.32 21.21 139.24 16.79L139.24 16.79L139.14 16.69Q140.84 16.48 144.03 15.72L144.01 15.69L143.90 15.58Q137.81 22.02 134.34 27.96L134.39 28.01L134.40 28.01Q139.64 36.75 144.01 41.32L144.02 41.33L143.93 41.24Q141.30 40.39 139.20 40.17L139.19 40.15L139.36 40.32Q136.46 37.23 132.54 30.42ZM139.13 40.51L139.17 40.55L139.21 40.59Q139.56 40.67 140.02 40.79L139.90 40.67L140.00 40.77Q140.72 41.45 142.24 43.05L142.20 43.01L142.35 43.16Q145.71 43.97 148.75 45.34L148.70 45.28L148.71 45.29Q141.48 38.60 136.38 29.84L136.40 29.87L136.34 29.80Q140.28 23.35 146.18 16.49L146.17 16.48L146.15 16.47Q144.62 17.03 142.45 17.56L142.49 17.60L142.37 17.48Q143.34 16.66 145.09 14.87L145.13 14.92L145.04 14.82Q142.65 15.71 138.96 16.28L138.98 16.31L138.95 16.27Q135.59 20.15 133.00 24.45L133.04 24.49L133.00 24.45Q132.00 22.76 130.82 21.28L130.92 21.38L128.59 18.40L128.18 18.37L128.28 18.47Q128.07 18.41 127.84 18.33L127.92 18.41L127.76 18.25Q127.14 17.48 125.65 15.92L125.70 15.96L125.59 15.85Q121.83 15.02 119.24 13.65L119.29 13.70L119.21 13.62Q125.99 20.94 130.56 27.98L130.59 28.01L130.54 27.96Q126.16 36.25 120.41 42.84L120.28 42.71L120.37 42.80Q121.67 42.13 123.81 41.56L123.91 41.66L122.43 42.92L122.53 43.02Q122.47 42.96 121.14 44.30L121.10 44.26L121.26 44.42Q124.15 43.23 127.31 42.74L127.38 42.80L127.30 42.73Q131.30 38.20 133.89 33.45L133.91 33.47L133.99 33.54Q136.45 37.68 139.15 40.53Z"/><path fill="#ebc860" d="M101.41 40.32L101.48 40.39L101.53 40.44Q100.06 40.45 98.50 40.03L98.40 39.94L98.47 40.00Q97.15 38.99 96.99 37.35L97.13 37.49L97.04 37.39Q97.07 37.27 97.26 34.65L97.26 34.65L97.26 34.65Q98.18 34.35 100.20 33.97L100.27 34.04L100.18 34.90L100.09 34.81Q99.86 36.60 101.27 37.17L101.14 37.05L101.27 37.17Q102.11 37.56 104.21 37.56L104.16 37.52L104.16 37.52Q105.74 37.34 105.93 37.27L105.90 37.23L105.93 37.26Q106.77 37.03 107.49 36.54L107.49 36.54L107.63 36.68Q108.95 35.64 108.76 33.55L108.84 33.63L108.85 33.64Q108.50 31.04 106.77 29.48L106.86 29.57L106.82 29.53Q105.18 28.07 102.71 28.07L102.67 28.03L102.65 27.78L102.68 27.81Q103.12 27.83 103.99 27.75L103.94 27.70L104.00 27.76Q105.78 27.52 107.15 26.29L107.14 26.27L107.12 26.25Q108.63 25.16 108.78 23.29L108.78 23.29L108.79 23.30Q108.71 22.80 108.71 22.46L108.77 22.52L108.87 22.61Q108.71 20.93 107.34 20.02L107.48 20.16L107.41 20.10Q106.14 19.24 104.54 19.35L104.63 19.44L104.51 19.32Q103.36 19.32 102.14 19.74L102.04 19.63L102.03 19.62Q100.67 20.25 100.37 21.39L100.25 21.27L100.40 21.42Q100.15 22.12 100.23 22.88L100.12 22.78L100.24 22.89Q99.16 22.62 97.11 21.89L97.22 22.00L97.06 21.85Q97.00 20.34 97.04 19.50L97.01 19.47L96.92 19.39Q96.99 17.81 98.05 17.13L98.20 17.28L98.19 17.27Q99.51 16.56 101.10 16.56L101.18 16.64L101.21 16.67Q104.25 16.51 107.41 16.78L107.41 16.78L107.52 16.89Q112.46 17.19 112.16 20.96L112.26 21.05L112.26 21.06Q112.18 22.54 111.69 24.10L111.59 24.00L111.69 24.10Q110.69 27.11 108.33 28.02L108.36 28.04L108.39 28.08Q110.91 28.50 111.52 31.85L111.69 32.03L111.65 31.98Q111.81 33.06 111.89 35.08L111.85 35.04L111.86 35.05Q112.07 39.56 107.47 40.02L107.54 40.09L107.43 39.98Q106.65 40.00 101.35 40.27ZM106.71 42.66L106.73 42.67L106.65 42.59Q107.32 42.69 110.17 42.76L110.09 42.68L110.18 42.77Q111.93 42.85 113.57 42.20L113.52 42.15L113.47 42.11Q114.60 41.10 114.41 39.35L114.58 39.52L114.56 39.50Q114.32 38.04 114.01 36.29L114.01 36.28L114.12 36.39Q113.26 31.77 111.32 30.13L111.36 30.17L111.18 29.80L111.18 29.76L111.14 29.72Q112.89 28.27 113.65 23.90L113.61 23.86L113.75 24.00Q113.68 23.43 113.79 22.47L113.84 22.52L113.77 22.45Q114.01 21.86 113.93 21.17L113.92 21.16L113.79 21.02Q113.62 19.33 112.32 18.64L112.44 18.77L112.27 18.67L112.38 18.78Q112.08 17.80 110.94 17.26L110.93 17.25L110.86 17.18Q109.45 16.61 104.31 16.31L104.31 16.30L104.18 16.18Q102.52 16.11 100.92 16.11L101.01 16.21L100.98 16.18Q99.38 16.17 97.85 16.82L97.84 16.80L97.72 16.68Q96.66 17.61 96.66 19.36L96.69 19.38L96.57 19.27Q96.51 18.78 96.78 22.13L96.77 22.13L96.86 22.22Q97.08 22.21 98.72 22.82L98.90 23.00L98.79 22.89Q98.79 23.42 98.75 23.92L98.75 23.92L98.70 23.87Q98.72 24.38 98.75 24.91L98.81 24.96L98.85 25.00Q100.53 25.28 102.55 25.39L102.63 25.47L102.59 25.44Q102.57 23.48 103.68 22.64L103.60 22.57L103.65 22.61Q104.45 21.93 106.46 21.70L106.44 21.67L106.57 21.80Q107.71 21.80 108.28 21.99L108.16 21.87L108.23 21.93Q108.25 22.03 108.28 22.15L108.31 22.17L108.28 22.33L108.31 22.82L108.32 22.83Q108.43 23.12 108.39 23.28L108.30 23.19L108.37 23.26Q108.21 24.88 106.68 26.06L106.74 26.12L106.71 26.09Q105.85 27.06 103.84 27.25L103.91 27.33L103.77 27.18Q103.17 27.46 102.29 27.46L102.20 27.37L102.15 27.32Q102.31 27.78 102.46 28.46L102.35 28.36L102.35 28.35Q104.25 28.50 105.69 29.23L105.52 29.06L105.41 29.06L103.98 29.37L103.91 29.31Q103.98 29.68 104.09 30.29L104.11 30.30L104.04 30.23Q106.16 30.15 107.87 31.48L107.91 31.52L107.97 31.57Q108.10 31.86 108.40 33.50L108.52 33.61L108.55 33.64Q108.66 36.50 105.73 36.91L105.81 37.00L105.76 36.94Q103.59 37.13 103.02 37.09L103.10 37.18L103.02 37.10Q102.61 37.03 102.07 36.95L102.04 36.92L102.05 36.47L102.19 36.03L102.19 35.61L102.34 35.42L102.34 35.43Q101.26 35.37 100.46 35.57L100.52 35.62L100.50 35.61Q100.49 35.40 100.49 35.21L100.39 35.11L100.58 35.30Q100.47 34.97 100.47 34.74L100.50 34.76L100.46 34.73Q100.58 34.39 100.74 33.67L100.74 33.68L100.77 33.71Q98.76 33.79 96.90 34.14L97.02 34.26L97.04 34.27Q97.03 34.76 96.91 35.88L96.79 35.76L96.79 35.75Q96.68 36.88 96.68 37.49L96.71 37.53L96.72 37.54Q96.75 39.54 98.12 40.30L98.25 40.44L98.14 40.32Q99.74 42.73 104.46 42.54L104.45 42.53L104.34 42.41Q105.18 42.49 106.70 42.64Z"/></svg>