<svg xmlns="http://www.w3.org/2000/svg" width="150" height="50" viewBox="0,0,150,50"><path fill="#74e150" d="M53.40 32.21L44.11 22.16L44.11 22.16Q44.92 25.83 44.92 29.56L45.00 29.64L44.90 29.54Q44.84 35.46 42.79 41.02L42.90 41.13L42.92 41.15Q41.84 41.40 39.59 42.16L39.55 42.12L39.63 42.20Q42.34 36.31 42.34 29.61L42.30 29.56L42.28 29.55Q42.36 20.99 37.87 13.57L37.91 13.60L37.81 13.50Q38.31 13.74 39.00 14.16L38.89 14.05L39.01 14.17Q51.07 25.36 58.92 34.61L58.87 34.57L58.90 34.59Q58.65 32.21 58.65 29.77L58.54 29.67L58.56 29.69Q58.58 22.47 61.09 16.27L61.21 16.38L61.21 16.38Q63.39 15.71 64.99 15.03L65.16 15.20L65.01 15.05Q61.71 21.22 61.40 28.38L61.55 28.52L61.43 28.40Q61.09 35.72 64.06 41.89L64.03 41.86L64.05 41.88Q63.62 41.94 63.20 41.75L63.07 41.62L63.17 41.71Q58.51 37.67 53.29 32.11L53.35 32.16ZM66.80 45.20L66.73 45.12L66.69 45.08Q67.22 45.31 67.64 45.51L67.68 45.54L68.55 45.92L68.41 45.78Q63.27 38.85 63.27 29.48L63.34 29.55L63.32 29.53Q63.40 22.38 66.71 16.14L66.55 15.98L66.66 16.08Q65.90 16.20 64.49 16.81L64.59 16.91L64.61 16.93Q65.05 16.15 65.88 14.58L65.78 14.48L65.83 14.53Q63.34 15.39 60.90 15.96L60.79 15.85L60.85 15.91Q58.27 22.43 58.27 29.85L58.18 29.76L58.16 29.74Q58.31 31.75 58.50 33.73L58.47 33.70L58.38 33.62Q53.86 28.07 49.11 23.47L48.96 23.32L38.98 13.72L38.99 13.73Q38.45 13.46 37.24 12.89L37.25 12.91L37.17 12.82Q42.06 20.57 42.06 29.67L41.95 29.56L42.13 29.74Q42.12 36.84 39.03 42.86L38.86 42.69L39.03 42.85Q39.32 42.73 40.96 42.12L40.88 42.05L40.81 41.97Q40.59 42.86 39.75 44.34L39.72 44.31L39.69 44.27Q41.06 43.78 44.53 42.98L44.63 43.09L44.57 43.03Q46.87 36.88 46.87 29.68L46.94 29.75L46.93 29.74Q46.95 27.66 46.72 25.53L46.55 25.36L46.57 25.39Q58.18 38.33 66.78 45.18Z"/><path fill="#e4b280" d="M121.11 39.85L121.03 39.77L121.08 39.82Q119.07 39.71 117.05 39.90L117.18 40.03L117.08 39.93Q117.74 34.69 117.74 29.86L117.72 29.83L117.84 29.96Q117.85 25.05 117.21 19.84L117.16 19.79L117.15 19.78Q112.51 19.33 109.31 17.66L109.46 17.80L108.59 15.91L108.75 16.06Q108.50 15.52 107.89 14.30L107.94 14.35L107.80 14.20Q112.96 16.97 118.98 17.16L118.85 17.03L118.85 17.03Q124.86 17.33 130.31 15.27L130.21 15.18L130.26 15.23Q129.60 16.71 128.96 18.53L128.94 18.51L128.91 18.48Q125.25 19.73 120.98 19.92L121.00 19.94L121.03 19.97Q120.88 25.04 120.88 29.99L120.79 29.89L120.76 29.86Q120.79 34.84 121.09 39.83ZM131.01 14.61L130.95 14.55L130.90 14.50Q125.06 16.76 118.85 16.57L118.89 16.61L118.90 16.62Q112.18 16.38 107.08 13.41L107.09 13.41L107.20 13.53Q107.99 14.85 109.28 18.12L109.24 18.08L109.20 18.04Q109.92 18.42 111.18 18.99L111.05 18.86L111.06 18.87Q111.28 19.55 111.62 21.07L111.61 21.06L111.67 21.12Q113.91 21.91 116.95 22.14L117.00 22.19L117.05 22.23Q117.42 25.92 117.42 29.69L117.34 29.61L117.49 29.76Q117.44 35.07 116.64 40.44L116.66 40.46L116.62 40.42Q118.28 40.29 118.81 40.29L118.82 40.30L118.92 40.40Q118.76 40.54 118.70 41.21L118.81 41.31L118.70 41.21Q118.79 42.02 118.79 42.36L118.66 42.23L118.66 42.23Q119.79 42.11 121.31 42.18L121.44 42.31L121.32 42.18Q122.24 42.23 124.06 42.38L124.22 42.53L124.23 42.55Q122.98 37.61 122.87 32.43L122.77 32.33L122.89 32.45Q122.66 27.05 123.20 22.14L123.30 22.24L123.15 22.09Q127.07 21.52 130.23 20.30L130.39 20.46L130.24 20.31Q130.99 17.97 132.01 15.92L132.02 15.92L132.06 15.96Q130.74 16.66 129.94 16.97L129.99 17.01L129.81 16.84Q130.38 15.69 130.95 14.55Z"/><path fill="#7aaddf" d="M41.91 41.24L41.83 41.16L39.01 41.19L39.02 41.20Q36.43 40.91 35.64 40.79L35.71 40.86L35.69 40.85Q33.87 40.51 32.69 39.63L32.77 39.72L32.74 39.69Q31.36 38.19 31.13 34.84L31.11 34.82L31.13 34.84Q31.09 34.34 31.01 33.12L31.09 33.20L31.05 33.16Q31.01 32.70 30.93 31.59L31.07 31.74L30.92 31.58Q30.96 30.82 31.00 30.10L30.90 30.00L30.91 30.01Q31.23 28.20 32.26 27.44L32.16 27.34L32.22 27.41Q34.22 26.32 39.06 26.09L39.01 26.04L38.91 25.94Q41.01 25.92 41.81 25.92L41.86 25.96L41.78 25.88Q43.31 25.92 44.68 26.23L44.59 26.14L44.76 26.32Q44.10 27.48 43.57 29.31L43.53 29.27L43.60 29.35Q43.09 29.40 42.59 29.36L42.49 29.26L42.53 29.29Q42.44 29.29 41.91 29.17L41.95 29.21L41.05 29.04L40.93 28.92Q39.87 28.66 39.26 28.70L39.32 28.75L39.39 28.82Q34.63 28.86 34.02 31.68L33.95 31.61L33.87 31.53Q33.69 32.75 33.76 33.70L33.72 33.66L33.73 33.67Q33.93 36.31 35.17 37.40L35.26 37.49L35.09 37.31Q36.43 38.50 39.02 38.54L39.05 38.57L39.09 38.61Q40.53 38.60 41.25 38.30L41.19 38.23L42.16 37.68L42.26 37.79Q42.67 37.44 43.25 37.36L43.41 37.53L43.39 37.51Q43.56 39.23 43.94 40.53L43.98 40.57L43.87 40.46Q43.78 40.98 41.99 41.32ZM45.21 44.23L45.19 44.22L45.19 44.21Q45.49 44.18 46.33 44.25L46.43 44.35L46.45 44.37Q47.06 44.37 47.40 43.80L47.33 43.73L47.44 43.84Q46.13 41.65 45.63 39.56L45.60 39.53L45.67 39.60Q45.38 39.60 44.92 39.60L44.82 39.51L44.82 39.51Q44.54 39.64 44.15 39.83L44.15 39.82L44.15 39.83Q43.62 38.38 43.47 36.97L43.51 37.02L43.47 36.97Q42.99 37.02 41.77 37.60L41.66 37.49L41.67 37.50Q40.52 38.14 40.02 38.14L40.08 38.19L40.04 38.15Q39.63 38.24 39.02 38.20L38.99 38.17L38.87 38.04Q37.99 38.05 36.01 37.47L35.99 37.45L35.98 37.44Q35.70 36.78 35.74 35.64L35.77 35.67L35.76 35.66Q35.96 31.44 40.91 30.91L40.91 30.91L40.96 30.97Q41.51 30.83 42.88 31.17L42.88 31.17L42.97 31.26Q44.26 31.53 44.99 31.49L44.95 31.45L45.02 31.52Q45.54 29.38 46.23 27.55L46.22 27.55L46.05 27.38Q45.71 27.30 45.33 27.23L45.30 27.19L44.57 27.15L44.72 27.31Q44.74 26.64 45.12 25.76L45.18 25.82L45.11 25.75Q43.75 25.57 42.19 25.57L42.16 25.54L42.03 25.41Q39.79 25.57 35.41 25.95L35.35 25.88L35.34 25.88Q33.46 26.09 31.90 27.08L31.87 27.05L31.93 27.12Q30.61 27.96 30.61 29.87L30.59 29.84L30.58 29.83Q30.70 30.37 30.81 31.59L30.81 31.58L30.82 31.59Q30.87 32.60 30.84 33.21L30.84 33.22L30.81 33.19Q30.71 34.95 31.44 38.69L31.45 38.70L31.50 38.75Q31.86 39.57 32.36 40.06L32.36 40.06L32.64 40.35L32.77 40.44L32.68 40.35Q33.79 42.56 37.71 43.17L37.66 43.12L37.60 43.06Q40.87 43.67 43.54 43.93L43.46 43.86L43.47 43.87Q44.15 43.83 45.07 44.09Z"/><path fill="#e14693" d="M83.54 40.91L83.68 41.05L83.58 40.94Q82.20 39.19 80.91 36.10L81.02 36.22L78.88 31.07L78.88 31.07Q77.25 35.04 76.65 36.34L76.72 36.41L76.66 36.36Q75.27 39.34 73.68 41.25L73.62 41.19L73.64 41.21Q73.28 41.23 72.52 41.35L72.39 41.21L72.42 41.25Q72.47 33.88 66.65 27.94L66.62 27.91L66.59 27.88Q64.97 26.18 62.95 24.70L62.80 24.54L62.93 24.68Q64.79 25.24 66.65 25.54L66.67 25.56L66.61 25.50Q72.65 30.43 74.09 36.68L74.09 36.67L74.10 36.68Q74.94 34.78 76.12 31.59L76.23 31.70L76.18 31.65Q77.49 27.85 78.06 26.56L78.01 26.51L79.48 26.57L79.47 26.56Q80.42 28.35 81.60 31.62L81.48 31.50L81.55 31.57Q82.83 35.18 83.48 36.59L83.46 36.56L83.60 36.71Q85.33 30.32 90.81 25.76L90.87 25.81L90.80 25.74Q91.94 25.59 94.68 25.02L94.72 25.06L94.81 25.15Q86.08 31.07 84.90 41.05L84.84 40.99L84.19 40.87L84.20 40.88Q83.93 40.92 83.59 40.96ZM86.50 43.33L88.74 43.71L88.72 43.69Q88.40 42.15 88.40 40.63L88.40 40.63L88.33 40.56Q88.21 37.21 89.62 33.97L89.66 34.01L89.64 33.99Q91.66 29.49 95.77 26.41L95.86 26.51L95.74 26.39Q94.62 26.75 92.75 27.09L92.80 27.14L92.72 27.05Q94.70 25.42 96.00 24.51L96.07 24.58L93.53 25.01L93.48 24.96Q92.31 25.24 90.98 25.39L90.94 25.35L90.97 25.38Q85.76 29.57 83.81 34.60L83.79 34.58L83.77 34.55Q83.14 32.40 81.77 28.13L81.75 28.12L81.77 28.14Q81.57 28.28 81.30 28.28L81.15 28.13L80.76 28.27L80.76 28.27Q80.55 27.86 79.75 26.11L79.68 26.05L77.82 26.24L77.79 26.21Q76.76 28.95 74.66 34.58L74.75 34.67L74.61 34.53Q73.29 30.84 70.20 27.57L70.26 27.63L70.34 27.71Q69.96 27.60 69.66 27.56L69.76 27.66L69.02 27.38L69.02 27.38Q68.28 26.68 66.49 25.08L66.46 25.04L66.41 24.99Q63.24 24.34 61.56 23.84L61.69 23.97L61.59 23.87Q72.39 31.40 72.01 41.72L71.93 41.64L71.92 41.62Q72.25 41.76 72.61 41.72L72.50 41.61L72.65 41.77Q72.88 41.60 73.07 41.60L73.20 41.72L73.13 41.65Q73.17 41.54 73.36 43.63L73.35 43.63L75.32 43.50L75.17 43.35Q77.83 40.61 80.08 34.86L80.09 34.87L80.10 34.88Q81.53 38.67 83.40 41.33L83.42 41.36L83.52 41.46Q83.76 41.36 84.03 41.38L84.07 41.42L84.09 41.44Q84.36 41.46 84.63 41.46L84.51 41.35L86.56 43.40Z"/><path fill="#ea7047" d="M64.45 29.28L64.41 29.24L64.38 29.21Q62.48 29.17 61.26 30.50L61.37 30.61L61.23 30.48Q59.99 31.79 59.84 33.69L59.91 33.76L59.87 33.72Q59.79 35.96 61.01 36.97L60.90 36.86L60.88 36.84Q62.19 37.94 64.32 37.87L64.37 37.92L64.19 37.74Q66.65 37.72 67.61 36.77L67.51 36.68L67.61 36.78Q68.60 35.29 68.48 33.46L68.52 33.50L68.39 33.37Q68.45 31.68 67.37 30.48L67.35 30.46L67.22 30.33Q66.11 29.11 64.28 29.11ZM64.39 19.81L64.32 19.75L64.24 19.66Q62.83 19.55 61.50 20.04L61.53 20.08L61.52 20.07Q60.34 20.98 60.57 22.85L60.52 22.80L60.53 22.80Q61.06 26.57 64.41 26.57L64.42 26.59L64.31 26.47Q65.87 26.66 66.86 25.52L66.97 25.63L66.87 25.53Q67.82 24.35 67.86 22.79L68.00 22.93L67.96 22.89Q67.97 21.08 67.25 20.47L67.23 20.45L67.31 20.52Q65.65 19.71 64.36 19.78ZM64.11 40.36L63.96 40.21L61.01 40.30L61.10 40.40Q59.48 40.30 58.15 39.42L58.18 39.45L58.20 39.48Q56.88 38.38 57.04 35.53L57.03 35.52L56.92 35.42Q57.36 28.55 60.98 27.56L61.04 27.62L60.99 27.57Q58.76 26.71 57.43 21.34L57.46 21.37L57.35 21.27Q56.98 19.83 57.06 19.03L57.06 19.03L57.11 19.08Q57.44 16.97 61.13 16.94L61.18 16.99L61.22 17.03Q65.29 16.79 66.73 16.98L66.87 17.11L66.80 17.05Q70.61 17.55 71.07 19.57L71.10 19.59L71.20 19.69Q71.12 20.11 71.12 20.49L71.12 20.49L71.22 20.60Q71.17 21.22 70.98 21.83L71.11 21.96L70.93 21.78Q70.50 26.19 67.56 27.71L67.49 27.64L67.48 27.63Q71.03 28.48 71.53 33.77L71.55 33.79L71.40 33.64Q71.53 33.92 71.57 35.21L71.47 35.12L71.58 35.22Q71.50 37.82 69.90 38.88L69.93 38.91L69.99 38.97Q68.66 39.88 64.09 40.34ZM66.25 42.53L66.40 42.69L69.69 42.70L69.61 42.62Q71.49 42.87 73.01 42.14L72.84 41.97L73.02 42.15Q74.00 41.27 74.08 39.40L74.07 39.39L74.14 39.46Q74.15 38.33 73.77 36.39L73.86 36.48L73.71 36.32Q72.98 31.87 70.89 30.01L70.83 29.95L70.65 29.57L70.49 29.34L70.23 28.97L70.33 29.07Q71.86 27.59 72.78 23.44L72.71 23.38L72.75 23.41Q72.72 23.00 72.80 22.17L72.90 22.27L72.98 22.36Q73.00 21.61 72.92 21.00L72.90 20.98L72.82 20.90Q72.74 19.52 71.56 19.03L71.56 19.03L71.68 19.11L71.50 19.00L71.42 18.93Q71.12 18.17 69.94 17.37L70.00 17.43L70.06 17.46L70.05 17.44Q68.05 16.73 63.97 16.54L63.86 16.43L64.01 16.58Q62.44 16.45 61.07 16.57L60.99 16.49L60.92 16.42Q60.21 16.54 58.91 16.70L58.92 16.71L58.86 16.64Q56.91 17.02 56.68 18.66L56.82 18.80L56.72 18.69Q56.73 19.24 56.77 20.04L56.71 19.98L56.76 20.03Q56.90 20.59 57.47 22.95L57.40 22.88L57.42 22.90Q58.32 26.23 60.07 27.56L60.02 27.51L60.12 27.62L60.15 27.64Q57.19 28.75 56.65 33.93L56.71 33.98L56.76 34.03Q56.65 36.32 56.65 37.24L56.49 37.08L56.65 37.24Q56.54 38.84 57.72 39.75L57.72 39.76L57.76 39.79Q57.98 39.97 58.24 40.16L58.13 40.05L58.10 40.02Q59.23 42.40 66.35 42.63ZM65.91 31.46L65.91 31.46L66.05 31.60Q66.94 31.50 67.82 31.96L67.82 31.96L67.85 31.99Q68.16 32.91 68.12 33.44L68.17 33.49L68.04 33.36Q68.15 33.74 68.15 34.05L68.26 34.15L68.17 34.06Q68.11 36.36 65.82 37.20L65.94 37.31L65.89 37.26Q65.01 37.49 64.21 37.38L64.24 37.40L64.29 37.46Q63.21 37.59 62.07 37.13L62.13 37.19L62.00 37.07Q61.71 36.39 61.78 35.40L61.76 35.38L61.94 35.56Q62.00 33.87 63.20 32.66L63.15 32.61L63.19 32.64Q64.35 31.39 65.95 31.50ZM66.13 21.97L66.22 22.06L66.20 22.05Q66.97 21.90 67.50 22.05L67.61 22.16L67.51 22.86L67.56 22.91Q67.53 24.29 66.62 25.29L66.60 25.28L66.59 25.27Q65.69 26.29 64.32 26.10L64.39 26.17L64.34 26.13Q63.44 26.21 63.02 25.98L63.02 25.98L62.96 25.92Q62.90 25.63 62.79 24.95L62.71 24.87L62.73 24.89Q62.46 23.48 63.68 22.64L63.84 22.80L63.71 22.68Q64.90 22.12 66.31 22.16Z"/><path fill="#67ee67" d="M25.27 18.55L25.08 18.36L25.19 18.46Q24.37 18.75 24.22 19.55L24.28 19.61L24.38 24.85L24.36 24.83Q25.50 24.82 27.70 24.56L27.73 24.59L27.58 24.44Q27.56 24.87 27.52 25.71L27.60 25.79L27.48 25.67Q27.51 26.50 27.51 26.95L27.49 26.93L26.00 27.12L26.00 27.11Q25.14 27.13 24.26 27.13L24.24 27.11L24.21 27.07Q24.26 31.32 24.18 39.69L24.16 39.67L24.23 39.74Q22.05 39.84 20.56 40.53L20.46 40.42L20.49 40.45Q21.54 34.27 21.43 27.04L21.55 27.16L21.55 27.16Q20.81 27.02 19.51 26.76L19.60 26.85L19.50 26.75Q19.49 25.75 19.30 23.81L19.30 23.80L19.39 23.89Q20.52 24.42 21.47 24.61L21.48 24.62L21.44 24.57Q21.45 23.98 21.15 21.50L21.02 21.38L21.03 21.39Q20.82 19.34 20.82 18.39L20.84 18.42L20.84 18.42Q20.92 16.82 22.33 16.25L22.21 16.13L22.29 16.21Q23.10 15.85 27.94 15.01L27.92 14.99L27.90 14.97Q28.64 14.75 29.47 14.64L29.47 14.64L29.54 14.70Q29.38 15.53 29.22 16.41L29.26 16.44L28.81 17.86L28.97 18.02Q28.17 17.72 27.68 17.83L27.68 17.83L27.76 17.91Q27.03 17.79 25.12 18.40ZM30.55 19.52L30.60 19.57L30.57 19.54Q30.95 17.37 31.56 14.82L31.54 14.81L31.61 14.88Q30.87 15.09 29.58 15.69L29.68 15.80L30.10 14.12L30.07 14.09Q28.78 14.22 26.31 14.75L26.29 14.73L26.30 14.74Q25.20 14.90 22.00 15.81L21.95 15.76L22.08 15.88Q20.36 16.15 20.36 18.02L20.36 18.02L20.40 18.06Q20.34 18.30 20.42 18.64L20.59 18.81L20.57 18.80Q20.82 20.15 20.93 21.48L20.88 21.43L20.94 23.96L21.02 24.04Q19.56 23.57 18.92 23.12L19.11 23.31L19.01 23.21Q19.06 24.09 19.09 25.12L19.25 25.28L19.25 27.14L19.33 27.23Q20.07 27.43 20.87 27.50L20.75 27.39L20.74 29.47L21.13 29.48L21.23 29.58Q21.10 35.70 20.11 41.14L20.14 41.17L20.07 41.10Q21.07 40.62 22.25 40.35L22.28 40.37L21.96 42.31L22.06 42.40Q23.34 42.16 24.63 42.12L24.63 42.12L24.58 42.07Q25.82 42.05 27.08 42.32L27.17 42.41L27.13 42.37Q26.28 37.38 26.28 29.42L26.30 29.44L26.24 29.38Q27.26 29.29 29.36 29.37L29.53 29.54L29.41 27.56L29.45 27.60Q29.51 26.71 29.55 25.76L29.53 25.74L29.56 25.77Q29.04 25.82 27.98 26.09L27.87 25.98L28.00 26.11Q27.84 25.27 27.96 23.93L28.06 24.03L28.00 23.97Q27.25 24.29 26.45 24.37L26.32 24.24L26.31 24.23Q26.46 22.97 26.57 21.56L26.44 21.43L26.53 21.52Q26.72 20.91 27.26 20.57L27.14 20.45L27.21 20.53Q28.18 19.86 29.00 19.78L29.04 19.82L29.02 19.80Q29.78 19.67 30.62 19.59Z"/><path fill="#7d7dec" d="M91.45 19.64L91.41 19.60L91.50 19.69Q89.49 19.77 88.54 19.93L88.63 20.02L88.59 19.98Q86.93 20.19 85.72 20.72L85.63 20.64L85.75 20.75Q82.26 22.21 82.14 26.89L82.04 26.79L82.03 26.79Q81.97 29.47 82.62 32.40L82.64 32.42L82.60 32.37Q83.46 36.40 87.08 37.58L87.21 37.71L87.07 37.57Q89.02 38.18 90.46 38.03L90.55 38.12L90.94 38.05L90.96 38.07Q91.10 38.02 91.29 38.06L91.28 38.05L91.23 38.00Q91.43 38.04 91.58 38.00L91.55 37.97L91.59 38.01Q94.28 37.82 95.65 37.24L95.61 37.21L92.06 33.69L92.03 33.66Q92.37 33.35 92.98 32.74L92.99 32.76L93.88 31.82L93.84 31.78Q95.61 33.77 97.59 35.83L97.64 35.88L97.69 35.93Q99.95 34.05 100.22 28.68L100.20 28.66L100.18 28.64Q100.42 27.89 100.42 26.98L100.31 26.87L100.31 26.86Q100.31 21.19 95.25 20.09L95.20 20.05L95.25 20.09Q94.04 19.88 91.53 19.72ZM104.20 41.68L104.23 41.71L104.28 41.76Q103.56 42.07 102.38 42.95L102.45 43.02L98.10 39.39L98.13 39.42Q95.53 40.51 91.27 40.55L91.32 40.60L91.26 40.54Q84.87 40.81 82.05 38.57L81.89 38.40L82.06 38.57Q80.07 36.59 79.62 33.62L79.67 33.67L79.79 33.79Q79.60 32.01 79.22 28.43L79.24 28.44L79.06 28.27Q79.05 27.53 78.93 25.78L79.08 25.93L79.00 25.85Q78.96 24.40 79.00 23.52L78.97 23.49L78.92 23.44Q78.99 20.36 80.74 18.80L80.71 18.76L80.77 18.82Q82.28 17.48 85.48 16.99L85.53 17.04L85.53 17.04Q88.00 16.65 90.89 16.73L90.85 16.68L90.90 16.73Q98.27 16.72 101.39 19.08L101.46 19.15L101.47 19.15Q103.68 21.33 103.41 26.24L103.49 26.32L103.36 26.19Q103.19 29.86 103.00 31.19L103.07 31.26L102.96 31.15Q102.40 35.74 100.08 38.06L100.07 38.04L100.00 37.97Q101.44 39.19 104.18 41.66ZM99.31 17.38L99.42 17.49L99.31 17.38Q97.44 16.80 90.93 16.31L90.80 16.18L90.92 16.30Q89.42 16.20 86.64 16.32L86.76 16.44L86.65 16.32Q82.48 16.61 80.23 18.59L80.23 18.59L80.33 18.68Q78.67 20.15 78.67 23.31L78.49 23.13L78.61 23.25Q78.62 24.09 78.77 25.81L78.68 25.71L78.80 25.84Q78.97 27.56 78.97 28.44L78.86 28.33L78.82 28.29Q78.94 30.01 79.32 33.59L79.40 33.67L79.42 33.69Q79.82 36.61 81.42 38.66L81.35 38.59L81.34 38.58Q81.69 39.43 82.91 40.57L83.00 40.66L82.90 40.56Q85.71 42.64 90.89 42.91L90.77 42.79L90.77 42.79Q91.27 42.95 93.67 43.06L93.59 42.99L93.50 42.89Q98.45 43.20 100.73 42.13L100.58 41.98L100.68 42.08Q101.56 42.77 106.28 46.35L106.31 46.38L106.28 46.35Q106.87 45.80 108.16 44.81L108.17 44.81L108.23 44.87Q107.24 44.08 106.44 43.39L106.42 43.37L104.90 42.04L104.99 41.97L104.90 41.89Q104.33 41.43 103.11 40.40L103.16 40.45L103.16 40.45Q105.09 37.97 105.09 33.44L105.06 33.41L104.99 33.33Q105.07 33.00 105.11 32.16L104.99 32.04L104.98 32.03Q105.18 31.35 105.18 30.93L105.07 30.83L105.15 30.90Q105.09 25.32 104.36 22.96L104.31 22.90L104.36 22.96Q104.00 21.68 103.12 20.62L103.04 20.54L103.11 20.61Q102.39 18.55 99.45 17.52ZM93.48 22.12L93.43 22.08L93.42 22.06Q97.46 21.96 99.29 23.56L99.26 23.53L99.20 23.47Q99.90 24.82 100.01 26.15L99.87 26.00L99.99 26.13Q100.02 27.33 99.94 28.71L100.05 28.81L100.05 28.81Q99.66 33.71 97.72 35.43L97.68 35.39L97.64 35.35Q96.35 34.06 93.84 31.32L93.87 31.35L93.92 31.40Q93.06 32.06 91.50 33.62L91.43 33.55L91.58 33.71Q92.18 34.34 93.32 35.52L93.20 35.40L93.14 35.46L93.13 35.45Q93.66 35.94 94.69 37.00L94.73 37.05L94.79 37.10Q93.85 37.42 91.53 37.73L91.47 37.67L90.82 37.55L90.54 37.69L90.55 37.74L90.59 37.77Q87.02 37.67 85.04 36.03L84.98 35.98L85.14 36.13Q84.07 34.00 84.11 30.88L84.14 30.91L84.00 30.77Q84.28 22.18 93.46 22.11Z"/><path fill="#9350d7" d="M12.74 20.10L12.75 20.10L12.86 20.22Q8.35 20.01 4.65 19.02L4.64 19.00L4.66 19.02Q6.23 23.63 6.42 28.47L6.45 28.50L6.37 28.42Q6.68 33.34 5.47 37.95L5.39 37.87L5.49 37.98Q8.23 37.28 11.73 37.13L11.68 37.09L11.73 37.14Q15.76 37.05 17.55 34.62L17.53 34.59L17.49 34.55Q18.88 32.37 19.07 28.26L19.24 28.43L19.13 28.32Q19.19 26.55 18.73 24.84L18.73 24.83L18.80 24.90Q17.41 20.05 12.69 20.05ZM0.79 42.07L0.78 42.06L0.80 42.08Q3.77 36.48 3.77 29.78L3.80 29.81L3.75 29.77Q3.76 21.25-0.54 14.24L-0.58 14.20L-0.49 14.29Q4.62 16.81 12.88 17.00L12.95 17.07L12.91 17.03Q21.91 17.35 22.25 24.51L22.20 24.46L22.23 24.49Q22.39 27.23 22.35 28.68L22.21 28.54L22.26 28.59Q22.24 33.33 21.40 35.50L21.43 35.53L21.36 35.45Q20.99 36.61 20.23 37.44L20.07 37.29L20.16 37.38Q18.76 38.87 16.14 39.37L16.08 39.32L16.24 39.48Q14.65 39.75 11.65 39.98L11.57 39.91L11.60 39.94Q5.41 40.33 0.81 42.08ZM18.74 41.97L18.70 41.94L18.71 41.94Q21.49 41.64 23.12 40.15L23.16 40.18L23.18 40.21Q24.26 38.32 24.22 35.57L24.31 35.67L24.31 35.66Q24.33 34.32 24.18 30.82L24.19 30.83L23.78 26.23L23.75 26.20Q23.69 24.04 22.74 21.95L22.71 21.92L22.74 21.95Q22.10 20.89 21.41 20.24L21.50 20.33L21.51 20.19L21.37 20.05Q19.71 17.13 15.29 16.75L15.26 16.72L15.38 16.84Q12.70 16.71 5.70 15.99L5.57 15.86L5.65 15.93Q2.45 15.55-1.25 13.53L-1.25 13.53L-1.30 13.48Q3.48 20.81 3.48 29.57L3.60 29.69L3.52 29.61Q3.48 36.58 0.13 42.74L0.09 42.70L0.21 42.82Q0.78 42.44 2.11 41.94L2.25 42.08L2.23 42.06Q1.82 42.83 0.94 44.31L0.98 44.35L1.06 44.44Q3.97 43.23 7.32 42.73L7.29 42.70L7.39 42.80Q9.43 42.44 13.08 42.33L13.12 42.36L13.04 42.28Q16.89 42.14 18.72 41.95ZM18.85 28.41L18.82 28.38L18.75 28.32Q18.37 36.32 11.67 36.70L11.77 36.80L11.82 36.84Q9.75 36.83 7.70 37.09L7.73 37.13L7.77 37.17Q8.52 33.35 8.52 29.70L8.53 29.71L8.38 29.55Q8.45 25.93 7.72 22.09L7.64 22.00L7.79 22.15Q10.08 22.54 14.77 22.54L14.65 22.43L14.70 22.47Q15.98 22.24 17.62 23.19L17.64 23.21L17.67 23.24Q18.89 25.45 18.74 28.31Z"/><path d="M5 34 C57 29,93 12,141 44" stroke="#c664e6" fill="none"/><path fill="#dc6841" d="M113.45 30.36L113.47 30.38L113.44 30.35Q113.64 30.05 113.60 29.63L113.47 29.50L113.51 29.54Q113.43 29.16 113.12 28.96L113.06 28.90L113.08 28.92Q112.42 28.42 111.55 28.57L111.53 28.55L111.53 28.55Q110.49 28.58 108.85 29.68L108.87 29.69L108.84 29.67Q107.41 30.56 107.41 31.74L107.41 31.74L107.47 31.80Q107.49 33.08 107.49 36.39L107.33 36.23L107.35 36.25Q107.28 38.77 107.43 40.78L107.43 40.78L107.44 40.79Q105.85 40.92 105.85 40.92L105.80 40.87L105.81 40.87Q104.83 40.85 104.11 40.92L104.05 40.87L104.09 40.90Q104.43 38.31 104.50 36.07L104.53 36.10L104.57 36.14Q104.84 31.61 104.19 30.31L104.17 30.29L104.13 30.25Q103.74 29.56 103.17 29.25L103.30 29.38L103.26 29.34Q102.51 28.70 100.95 28.59L100.91 28.55L100.81 28.45Q98.92 28.36 98.39 29.95L98.38 29.94L98.25 29.81Q98.19 30.40 98.31 30.90L98.24 30.83L98.18 30.77Q98.89 33.58 98.55 36.36L98.52 36.32L98.59 36.39Q98.18 39.11 96.77 41.54L96.84 41.61L96.87 41.64Q95.80 41.75 93.71 42.17L93.74 42.20L93.81 42.28Q96.26 38.97 96.26 34.67L96.27 34.68L96.17 34.59Q96.16 28.71 92.12 24.48L92.27 24.64L92.28 24.64Q92.90 24.80 93.85 25.03L94.02 25.21L95.67 25.52L95.70 25.55Q96.15 26.15 97.03 27.83L96.99 27.79L96.96 27.76Q97.17 25.91 99.60 25.88L99.59 25.86L99.66 25.93Q99.85 25.93 100.84 26.01L100.66 25.83L100.83 25.99Q105.76 26.24 106.90 29.06L106.99 29.15L106.99 29.15Q108.58 26.36 113.60 25.83L113.54 25.77L113.61 25.83Q114.37 25.72 115.25 25.84L115.33 25.92L115.31 25.90Q117.48 26.05 117.32 27.61L117.34 27.62L117.30 27.58Q117.31 28.32 117.04 29.08L117.01 29.04L117.02 29.05Q115.46 31.91 115.69 35.46L115.84 35.60L115.75 35.51Q115.96 39.00 117.86 41.81L117.91 41.86L117.91 41.86Q116.27 41.55 114.44 41.32L114.32 41.20L114.40 41.28Q113.10 38.64 112.90 35.86L112.89 35.85L112.93 35.89Q112.69 32.98 113.33 30.24ZM114.13 41.62L114.05 41.54L114.24 41.73Q114.85 41.69 116.18 41.88L116.16 41.86L116.22 41.93Q116.73 42.62 117.87 44.03L117.96 44.12L117.92 44.08Q120.78 44.58 122.87 45.22L122.92 45.27L122.96 45.31Q117.81 41.27 117.54 34.76L117.57 34.79L117.64 34.85Q117.51 32.71 118.12 30.80L118.20 30.88L118.09 30.77Q118.28 29.85 118.28 29.13L118.42 29.27L118.31 29.16Q118.35 28.29 117.75 27.72L117.67 27.65L117.80 27.74L117.72 27.66Q117.89 27.26 117.81 26.76L117.73 26.68L117.78 26.73Q117.65 26.18 117.20 25.92L117.25 25.97L117.12 25.84Q116.50 25.41 115.62 25.37L115.52 25.27L115.60 25.35Q112.69 25.18 110.02 26.13L110.18 26.29L110.07 26.18Q108.07 26.84 106.89 28.25L106.98 28.34L106.90 28.26Q105.45 25.90 100.62 25.56L100.47 25.41L100.48 25.42Q99.93 25.51 99.51 25.51L99.46 25.47L99.38 25.39Q97.39 25.45 96.78 26.70L96.73 26.65L96.75 26.68Q96.55 26.29 95.87 25.22L95.72 25.08L95.79 25.14Q93.27 24.57 91.29 23.92L91.35 23.98L91.32 23.95Q95.93 28.29 95.93 34.57L95.98 34.62L96.08 34.72Q95.90 39.26 93.04 42.73L93.07 42.75L93.14 42.82Q93.64 42.72 94.14 42.64L94.02 42.52L94.98 42.34L95.00 42.37Q94.44 43.55 93.34 44.77L93.25 44.69L93.24 44.68Q94.82 44.31 97.94 43.70L98.01 43.78L97.96 43.72Q100.61 39.59 100.61 34.68L100.61 34.69L100.73 34.81Q100.59 33.87 100.52 33.03L100.65 33.17L100.66 33.18Q100.47 32.30 101.46 31.50L101.41 31.45L101.46 31.54L101.60 31.67Q102.17 31.18 103.35 31.07L103.36 31.07L103.22 30.94Q103.70 31.00 104.00 31.00L104.01 31.00L104.15 31.34L104.17 31.36Q104.38 34.00 104.27 36.36L104.35 36.44L104.34 36.44Q104.17 38.67 103.68 41.33L103.54 41.20L103.73 41.38Q104.63 41.26 104.63 41.26L104.58 41.21L104.60 41.23Q106.03 41.21 105.69 41.21L105.67 41.19L105.65 41.17Q105.71 41.73 105.67 42.19L105.67 42.18L105.68 42.19Q105.69 42.70 105.69 43.19L105.62 43.12L108.14 43.17L108.18 43.21Q109.35 43.12 110.60 43.20L110.74 43.33L110.67 43.26Q109.15 39.57 109.34 33.64L109.38 33.68L109.38 33.67Q109.44 32.59 110.62 31.83L110.54 31.75L110.59 31.80Q111.50 30.99 112.75 30.80L112.79 30.84L113.12 30.87L112.99 30.74Q112.71 32.81 112.71 34.79L112.68 34.77L112.60 34.69Q112.62 38.47 114.14 41.63ZM108.69 30.16L108.79 30.03L108.59 30.18L108.75 30.22Z"/><path fill="#e78c6e" d="M131.69 40.12L131.87 40.29L129.37 33.34L129.35 33.32Q125.04 20.79 119.10 14.39L119.12 14.41L119.00 14.29Q120.99 15.33 123.58 15.94L123.74 16.10L123.57 15.93Q128.78 22.28 133.12 35.03L133.20 35.12L133.11 35.02Q136.15 26.91 136.84 25.31L136.86 25.33L136.85 25.32Q139.30 19.78 142.12 16.47L142.08 16.43L141.99 16.34Q144.12 16.04 146.75 15.16L146.71 15.12L146.78 15.19Q142.22 19.81 139.18 27.04L139.22 27.08L139.19 27.06Q137.67 30.60 133.98 40.12L133.97 40.11L134.10 40.23Q133.57 40.28 133.00 40.24L132.90 40.15L132.99 40.23Q132.29 40.10 131.72 40.14ZM136.80 42.64L136.72 42.55L136.76 42.59Q139.58 32.62 141.14 28.59L141.11 28.56L141.04 28.48Q144.18 20.93 148.60 16.06L148.59 16.05L148.48 15.94Q147.60 16.47 145.50 17.19L145.38 17.06L146.61 15.82L146.48 15.69Q147.08 15.03 147.69 14.38L147.75 14.45L147.72 14.42Q144.96 15.46 141.95 16.04L141.99 16.08L142.01 16.09Q137.64 21.43 133.76 32.89L133.60 32.73L133.69 32.82Q130.11 22.77 126.91 18.39L126.76 18.24L126.85 18.33Q126.48 18.27 125.61 18.12L125.51 18.02L125.54 18.05Q125.32 17.68 123.72 15.62L123.75 15.65L123.67 15.57Q120.72 14.87 118.02 13.46L118.02 13.46L117.98 13.42Q124.71 20.61 129.09 33.40L129.13 33.44L129.06 33.37Q130.35 37.10 131.53 40.68L131.48 40.63L131.45 40.60Q131.75 40.59 132.58 40.47L132.75 40.64L132.75 40.64Q133.07 41.30 133.75 42.63L133.72 42.60L133.67 42.55Q134.63 42.60 135.36 42.68L135.32 42.64L135.26 42.58Q136.09 42.68 136.85 42.68Z"/></svg>