<svg xmlns="http://www.w3.org/2000/svg" width="150" height="50" viewBox="0,0,150,50"><path fill="#3fe391" d="M39.77 20.21L39.62 20.07L39.63 20.08Q35.25 20.00 31.55 19.01L31.69 19.15L31.62 19.07Q33.16 23.66 33.35 28.49L33.40 28.54L33.27 28.42Q33.62 33.37 32.40 37.98L32.41 37.99L32.39 37.96Q35.13 37.27 38.63 37.12L38.59 37.09L38.57 37.07Q42.67 37.05 44.46 34.61L44.42 34.57L44.42 34.58Q45.95 32.53 46.14 28.41L46.17 28.45L46.09 28.37Q46.08 26.53 45.62 24.82L45.71 24.90L45.61 24.80Q44.34 20.06 39.62 20.06ZM27.71 42.08L27.76 42.13L27.82 42.19Q30.72 36.53 30.72 29.83L30.60 29.70L30.75 29.85Q30.59 21.17 26.29 14.16L26.32 14.19L26.34 14.22Q31.55 16.83 39.81 17.02L39.95 17.16L39.95 17.16Q48.69 17.22 49.03 24.38L49.08 24.43L49.01 24.35Q49.24 27.17 49.20 28.62L49.12 28.54L49.19 28.61Q48.99 33.17 48.15 35.34L48.23 35.42L48.24 35.43Q47.79 36.50 47.02 37.33L47.00 37.31L47.12 37.43Q45.71 38.92 43.09 39.41L42.98 39.30L43.08 39.40Q41.53 39.72 38.52 39.95L38.57 39.99L38.48 39.90Q32.32 40.33 27.72 42.08ZM45.61 41.94L45.78 42.11L45.71 42.03Q48.39 41.63 50.02 40.14L50.08 40.20L50.09 40.21Q51.34 38.49 51.30 35.75L51.23 35.68L51.23 35.68Q51.25 34.33 51.10 30.83L51.06 30.79L50.79 26.33L50.77 26.31Q50.50 23.95 49.55 21.85L49.65 21.95L49.65 21.95Q49.04 20.93 48.36 20.28L48.35 20.28L48.37 20.14L48.40 20.17Q46.73 17.24 42.31 16.86L42.19 16.74L42.21 16.76Q39.64 16.74 32.64 16.02L32.65 16.03L32.54 15.92Q29.21 15.40 25.51 13.39L25.60 13.47L25.58 13.45Q30.48 20.90 30.48 29.66L30.53 29.71L30.36 29.54Q30.38 36.56 27.03 42.73L27.14 42.84L27.07 42.77Q27.67 42.42 29.00 41.93L29.18 42.11L29.05 41.97Q28.68 42.78 27.80 44.27L27.93 44.39L27.83 44.29Q30.93 43.28 34.28 42.78L34.29 42.79L34.33 42.84Q36.29 42.40 39.94 42.28L40.04 42.38L40.08 42.41Q43.86 42.20 45.69 42.01ZM45.76 28.42L45.76 28.41L45.75 28.41Q45.27 36.30 38.57 36.68L38.58 36.70L38.73 36.84Q36.68 36.85 34.62 37.12L34.69 37.18L34.59 37.08Q35.37 33.29 35.37 29.64L35.35 29.62L35.39 29.66Q35.43 26.01 34.71 22.16L34.57 22.03L34.71 22.16Q36.87 22.42 41.56 22.42L41.60 22.47L41.49 22.35Q42.94 22.29 44.58 23.24L44.59 23.25L44.53 23.19Q45.95 25.60 45.80 28.45Z"/><path fill="#7391ec" d="M11.31 41.30L11.43 41.42L11.41 41.40Q8.49 41.52 7.23 40.99L7.19 40.95L7.15 40.91Q5.31 40.21 5.38 37.73L5.41 37.76L5.36 37.71Q5.60 34.41 5.60 34.98L5.58 34.96L5.57 34.95Q5.42 29.47 2.57 24.64L2.63 24.70L2.60 24.67Q4.71 25.75 6.69 26.13L6.71 26.16L6.53 25.98Q8.42 30.76 8.31 35.25L8.14 35.08L8.23 35.18Q8.12 36.70 8.95 37.92L8.87 37.83L9.00 37.97Q9.82 39.21 11.35 39.02L11.36 39.03L11.72 38.90L11.68 38.85Q13.10 38.87 13.92 38.11L13.88 38.07L13.81 37.99Q14.59 37.20 14.59 36.25L14.78 36.43L14.72 36.37Q14.64 36.06 14.60 35.87L14.75 36.02L14.61 35.88Q14.63 30.73 15.77 26.39L15.73 26.34L15.76 26.37Q16.71 26.22 17.70 25.99L17.79 26.09L19.69 25.47L19.82 25.60Q17.23 30.58 17.53 36.14L17.50 36.10L17.59 36.20Q17.71 39.21 16.00 40.35L16.04 40.40L15.92 40.28Q14.70 41.23 11.39 41.38ZM13.78 43.85L13.79 43.86L13.75 43.82Q17.23 43.98 19.05 43.22L19.01 43.18L19.07 43.24Q19.87 42.36 19.87 40.95L19.82 40.90L19.86 40.94Q19.90 40.07 19.64 38.51L19.65 38.53L19.55 38.42Q19.24 35.44 19.62 32.44L19.59 32.41L19.49 32.31Q19.98 29.26 21.39 26.52L21.27 26.40L21.26 26.39Q20.78 26.86 19.44 27.28L19.46 27.29L19.29 27.12Q19.66 26.65 19.96 26.08L19.97 26.09L20.45 24.85L20.38 24.79Q18.62 25.62 15.46 26.11L15.34 25.99L15.31 25.96Q14.07 30.73 14.22 35.83L14.35 35.97L14.30 35.92Q14.41 38.04 11.74 38.54L11.69 38.48L11.30 38.55L11.31 38.71L10.25 38.45L10.30 38.50Q10.25 37.66 10.29 37.16L10.30 37.17L10.12 36.99Q10.42 32.57 9.74 28.15L9.74 28.16L8.60 27.93L8.75 28.08Q8.06 27.88 7.52 27.77L7.69 27.94L7.57 27.81Q7.27 26.49 7.01 25.73L6.99 25.71L6.89 25.61Q4.27 25.35 2.03 24.06L1.84 23.88L1.90 23.93Q3.98 27.38 4.70 30.77L4.77 30.84L4.71 30.78Q5.24 33.02 5.08 36.52L5.10 36.54L5.11 36.55Q5.17 36.72 5.10 37.83L5.20 37.93L5.06 37.79Q5.01 40.25 6.38 41.20L6.28 41.10L6.30 41.13Q6.65 43.34 13.65 43.72Z"/><path fill="#e5b789" d="M62.21 26.75L62.38 26.92L62.21 26.75Q64.00 26.90 65.83 26.90L65.88 26.95L65.89 26.97Q67.66 26.95 69.49 26.80L69.48 26.79L69.48 26.79Q69.45 27.52 69.45 28.25L69.49 28.28L69.37 29.49L69.34 29.46Q66.99 29.48 62.23 29.59L62.20 29.56L62.33 29.69Q62.36 35.65 61.21 40.64L61.08 40.51L61.16 40.59Q58.89 41.21 57.40 42.01L57.41 42.01L57.40 42.00Q59.80 35.27 59.54 28.15L59.60 28.22L59.59 28.21Q59.31 21.04 56.65 14.38L56.60 14.32L56.62 14.35Q60.36 16.94 65.11 17.17L64.99 17.05L64.93 16.99Q69.70 17.27 73.85 15.52L73.80 15.46L73.81 15.47Q73.55 16.32 73.32 17.12L73.34 17.13L72.74 18.63L72.87 18.76Q70.21 19.90 67.24 20.05L67.12 19.94L67.20 20.01Q64.18 20.08 61.33 19.36L61.43 19.47L61.38 19.41Q62.16 22.90 62.35 26.89ZM74.42 14.75L74.42 14.75L74.52 14.85Q69.77 16.83 64.89 16.53L65.01 16.64L64.93 16.57Q59.60 16.26 55.87 13.41L56.01 13.55L55.83 13.37Q58.76 20.37 59.06 27.98L59.17 28.09L59.06 27.98Q59.52 36.05 57.01 42.83L56.95 42.77L56.89 42.71Q57.62 42.37 58.99 41.72L59.07 41.81L58.93 41.67Q58.81 42.50 58.24 44.03L58.18 43.96L58.26 44.05Q60.49 42.89 63.39 42.40L63.41 42.42L63.36 42.37Q64.03 37.55 64.22 31.84L64.28 31.90L64.31 31.93Q66.08 31.88 67.91 31.88L67.80 31.77L67.89 31.86Q69.67 31.85 71.50 32.04L71.54 32.08L71.49 32.03Q71.31 31.01 71.31 30.10L71.40 30.19L71.42 28.31L71.41 28.30Q70.62 28.38 69.78 28.38L69.65 28.25L69.84 28.44Q69.67 27.40 69.75 26.37L69.85 26.47L69.73 26.35Q68.37 26.55 66.96 26.55L67.03 26.63L67.05 26.65Q65.69 26.69 64.32 26.65L64.21 26.54L64.11 24.31L64.12 24.32Q64.23 23.37 64.12 22.30L64.12 22.30L63.99 22.18Q65.08 22.35 66.07 22.35L66.08 22.36L65.96 22.24Q70.72 22.24 74.34 20.34L74.43 20.43L74.35 20.36Q74.83 18.51 75.74 15.88L75.73 15.87L75.71 15.85Q74.59 16.86 73.79 17.20L73.75 17.16L73.78 17.19Q74.02 16.40 74.51 14.84Z"/><path fill="#ba83f0" d="M103.77 28.82L103.79 28.85L103.77 28.82Q101.30 28.91 100.27 30.09L100.38 30.19L100.20 30.01Q99.28 31.30 99.28 33.93L99.20 33.84L99.30 33.94Q99.28 39.03 103.89 38.84L103.81 38.77L103.83 38.78Q105.87 38.92 107.22 37.36L107.31 37.45L107.33 37.47Q108.63 35.85 108.40 33.79L108.37 33.77L108.40 33.80Q108.48 31.33 107.61 30.30L107.53 30.22L107.47 30.17Q106.17 29.01 103.96 29.01ZM108.82 38.63L108.94 38.76L108.85 38.67Q107.66 41.13 102.98 41.13L103.05 41.20L101.54 41.14L101.49 41.08Q99.15 41.11 98.05 39.97L98.07 39.99L98.21 40.13Q97.01 38.93 96.75 36.53L96.76 36.55L96.84 36.63Q96.72 35.18 96.65 33.39L96.52 33.26L96.64 33.39Q96.64 32.43 96.49 30.49L96.49 30.49L96.41 30.41Q96.30 26.11 101.48 26.11L101.53 26.16L103.12 26.20L103.01 26.09Q106.01 26.19 108.10 27.48L108.03 27.41L108.09 27.47Q108.76 27.84 109.26 28.52L109.32 28.59L109.27 28.54Q109.51 27.71 110.04 26.08L110.16 26.19L110.16 26.19Q111.27 25.89 113.59 25.28L113.73 25.42L113.72 25.42Q111.14 29.65 111.14 34.90L111.15 34.91L110.99 34.75Q110.97 38.46 112.34 41.54L112.47 41.67L112.45 41.66Q111.26 41.30 109.35 41.07L109.43 41.15L109.42 41.13Q109.16 40.22 108.85 38.66ZM112.19 43.91L112.15 43.86L114.35 44.43L114.35 44.43Q115.60 44.77 116.59 45.22L116.67 45.30L116.66 45.29Q112.91 40.86 112.91 34.77L112.98 34.83L112.90 34.76Q112.97 30.30 115.11 26.49L115.09 26.48L115.01 26.40Q114.41 26.67 113.08 27.05L113.17 27.14L113.21 27.19Q113.52 26.39 114.40 24.87L114.26 24.73L114.30 24.78Q113.80 25.03 109.80 25.87L109.71 25.78L109.22 27.69L109.10 27.57Q107.47 25.97 103.05 25.75L102.98 25.67L102.94 25.63Q101.92 25.75 99.67 25.91L99.68 25.91L99.68 25.91Q95.93 26.20 96.04 30.23L95.97 30.16L96.16 30.35Q96.23 33.62 96.80 38.07L96.84 38.11L96.87 38.56L96.86 38.55Q96.94 39.36 97.74 40.46L97.72 40.43L97.77 40.49Q97.90 40.62 98.09 40.73L97.95 40.59L98.03 40.67Q98.36 41.23 98.74 41.80L98.66 41.72L98.76 41.82Q100.08 43.26 103.47 43.45L103.56 43.54L103.58 43.56Q105.22 43.68 105.37 43.68L105.25 43.55L106.89 43.63L106.78 43.52Q110.09 43.63 111.31 42.07L111.18 41.95L111.34 42.10Q111.68 42.71 112.28 44.00ZM105.57 31.08L105.61 31.12L105.76 31.27Q106.94 31.11 107.77 31.57L107.79 31.59L107.87 31.67Q108.09 32.38 108.09 33.83L108.17 33.91L108.09 33.83Q108.26 35.71 106.98 37.14L107.01 37.16L106.97 37.13Q105.78 38.64 103.88 38.45L103.82 38.40L103.96 38.53Q102.36 38.37 101.33 37.95L101.41 38.04L101.37 37.99Q101.12 37.10 101.12 35.89L101.12 35.88L101.28 36.04Q101.24 32.35 103.87 31.40L103.90 31.43L104.01 31.54Q104.78 31.09 105.58 31.09Z"/><path fill="#dd7e5f" d="M120.19 29.96L120.24 30.01L120.12 29.89Q117.61 29.78 116.28 31.00L116.26 30.98L116.21 30.93Q114.91 32.18 115.21 34.69L115.30 34.78L115.17 34.65Q115.57 37.25 116.79 38.51L116.78 38.51L116.82 38.55Q117.90 39.90 120.04 39.82L120.00 39.78L120.02 39.80Q120.55 39.76 120.74 39.76L120.79 39.81L120.76 39.78Q124.16 39.04 124.28 34.43L124.38 34.54L124.36 34.51Q124.49 32.20 123.80 31.40L123.82 31.42L123.85 31.45Q122.72 30.09 120.17 29.94ZM123.37 41.56L123.49 41.67L123.42 41.61Q122.20 42.29 120.64 42.21L120.64 42.21L120.56 42.13Q116.75 42.36 115.46 39.77L115.38 39.70L115.52 39.84Q115.30 45.14 113.97 49.40L113.87 49.30L113.98 49.41Q112.22 49.93 110.58 50.66L110.61 50.68L110.58 50.65Q113.02 44.57 112.76 37.61L112.73 37.58L112.70 37.54Q112.50 30.76 109.60 24.71L109.71 24.81L109.63 24.73Q111.60 25.94 113.31 26.39L113.31 26.40L113.84 27.87L113.84 27.87Q113.95 28.21 114.21 29.31L114.18 29.28L114.12 29.22Q115.23 27.25 118.81 27.06L118.75 27.00L118.85 27.10Q119.68 27.02 120.56 27.02L120.53 26.99L121.10 27.06L121.10 27.06Q121.07 26.92 121.26 26.96L121.30 27.00L121.61 27.01L121.74 27.13Q123.79 27.40 124.52 27.62L124.57 27.68L124.54 27.65Q125.93 28.02 126.81 28.97L126.94 29.09L126.80 28.96Q127.64 30.14 127.60 31.55L127.59 31.54L127.60 31.55Q127.59 34.39 126.79 37.06L126.88 37.14L126.77 37.03Q125.89 40.69 123.53 41.71ZM127.74 42.27L127.75 42.25L127.70 42.19Q128.73 40.14 129.03 36.03L129.12 36.11L129.12 36.11Q129.32 34.41 129.32 33.15L129.33 33.16L129.36 33.20Q129.39 31.70 128.63 30.29L128.55 30.22L128.46 30.13Q128.18 29.81 127.69 29.43L127.51 29.25L127.40 29.03L127.34 28.85L127.13 28.53L127.28 28.67Q125.46 26.55 121.12 26.55L121.12 26.55L120.56 26.60L120.65 26.70Q115.92 26.61 114.29 28.21L114.23 28.15L114.23 28.15Q114.04 27.62 113.89 27.12L113.88 27.12L113.65 26.09L113.64 26.08Q111.16 25.46 108.95 23.98L109.02 24.04L108.90 23.92Q112.17 30.24 112.47 37.47L112.43 37.43L112.43 37.43Q112.79 44.75 109.93 51.22L109.91 51.20L112.04 50.48L111.97 50.41Q111.62 51.04 110.93 52.60L110.91 52.58L110.96 52.63Q113.71 51.62 116.04 51.28L116.08 51.32L115.96 51.20Q117.06 46.36 117.22 42.63L117.25 42.67L117.20 42.62Q118.62 44.11 122.24 44.34L122.26 44.37L122.22 44.33Q126.18 44.59 127.63 42.16L127.78 42.31ZM122.04 32.15L122.14 32.26L122.11 32.22Q122.64 32.03 123.74 32.37L123.70 32.33L123.81 32.43Q124.10 33.45 124.06 34.63L124.00 34.57L124.02 34.59Q124.05 35.53 123.86 36.18L123.86 36.18L123.93 36.25Q123.13 39.07 120.62 39.38L120.65 39.41L120.78 39.42L120.61 39.25Q120.71 39.43 120.60 39.47L120.50 39.37L120.06 39.46L119.93 39.33Q118.90 39.48 117.91 38.99L117.76 38.84L117.50 36.86L117.38 36.75Q117.42 34.61 118.71 33.59L118.57 33.44L118.72 33.59Q119.58 32.36 121.98 32.09Z"/><path fill="#4dd591" d="M128.89 30.68L128.88 30.68L128.77 30.56Q128.88 30.68 132.27 30.64L132.13 30.51L132.19 30.56Q134.45 30.54 135.52 30.58L135.62 30.68L135.51 30.57Q134.58 27.81 132.14 22.17L132.08 22.11L131.99 22.03Q131.58 23.60 130.54 26.45L130.47 26.39L130.41 26.33Q129.43 29.25 128.86 30.66ZM136.69 33.12L136.77 33.20L136.73 33.16Q134.41 33.09 132.20 33.13L132.28 33.21L132.18 33.10Q129.86 33.07 127.58 33.26L127.64 33.32L127.72 33.41Q126.09 36.72 122.85 40.91L122.98 41.03L122.98 41.04Q120.35 41.60 118.98 42.10L118.87 41.99L118.93 42.04Q124.06 36.40 128.74 23.04L128.84 23.13L128.69 22.99Q129.98 19.59 131.35 16.36L131.32 16.33L131.29 16.30Q131.70 16.41 132.04 16.41L132.05 16.42L132.67 16.31L132.66 16.30Q133.48 17.73 138.31 29.38L138.23 29.30L138.32 29.38Q141.52 37.15 145.51 41.30L145.60 41.39L145.60 41.39Q145.10 41.27 141.22 40.39L141.23 40.40L141.14 40.31Q138.61 37.21 136.63 33.06ZM141.04 40.63L141.16 40.75L141.67 40.77L141.65 40.75Q141.92 40.78 142.22 40.90L142.26 40.94L142.26 40.94Q142.65 41.37 144.48 43.39L144.54 43.45L144.46 43.37Q148.00 44.16 150.40 45.19L150.36 45.16L150.50 45.30Q145.07 40.81 141.07 32.82L140.91 32.65L140.94 32.69Q139.25 29.33 137.81 25.37L137.99 25.55L135.17 17.97L135.11 17.91Q134.95 18.10 134.72 18.10L134.59 17.97L134.10 18.01L134.20 18.11Q133.72 17.32 132.99 15.95L133.02 15.97L133.04 16.00Q132.55 16.03 132.09 16.00L132.08 15.98L131.98 15.89Q131.53 15.86 131.00 15.86L131.08 15.94L131.02 15.87Q129.61 19.80 125.73 29.96L125.83 30.06L125.87 30.10Q122.72 38.03 118.07 42.83L117.95 42.70L117.96 42.71Q119.01 42.32 121.03 41.71L121.10 41.78L121.10 41.78Q120.37 42.69 118.81 44.48L118.79 44.46L118.71 44.38Q120.56 43.87 124.48 43.10L124.31 42.94L124.42 43.04Q127.87 38.73 129.43 35.49L129.37 35.43L129.37 35.43Q131.11 35.31 133.43 35.35L133.38 35.29L133.36 35.27Q136.12 35.33 137.49 35.41L137.60 35.52L137.49 35.41Q138.69 37.71 141.05 40.64ZM133.36 25.98L133.37 25.99L133.44 26.06Q134.25 28.09 135.01 30.19L135.03 30.21L131.77 30.26L131.63 30.12Q132.43 28.90 133.49 26.12Z"/><path fill="#d0eb7e" d="M86.53 19.20L86.56 19.23L86.44 19.10Q87.58 23.60 87.73 26.80L87.79 26.85L87.90 26.96Q88.35 26.95 92.73 27.07L92.73 27.07L92.73 27.07Q95.30 27.13 95.68 23.66L95.52 23.51L95.60 23.59Q95.80 21.84 94.88 20.92L94.88 20.92L94.93 20.97Q93.57 19.99 91.59 19.84L91.61 19.86L91.59 19.84Q88.32 19.58 86.46 19.12ZM87.89 28.78L87.91 28.80L88.00 28.88Q88.05 34.77 86.27 40.71L86.27 40.71L86.33 40.77Q85.15 41.15 82.56 42.18L82.41 42.03L82.50 42.12Q85.25 35.54 84.91 28.08L84.92 28.09L84.95 28.12Q84.55 20.68 81.24 14.17L81.35 14.28L81.25 14.18Q86.14 17.01 93.11 17.01L93.16 17.07L93.27 17.18Q98.71 16.99 98.98 20.53L99.02 20.57L99.04 20.59Q99.22 21.30 99.14 21.91L99.17 21.94L99.01 23.00L99.03 23.02Q98.10 26.84 95.97 28.56L96.08 28.67L95.96 28.55Q95.25 29.32 94.22 29.32L94.23 29.34L91.64 29.33L91.52 29.21Q97.17 36.50 101.70 41.07L101.74 41.11L101.77 41.13Q99.45 40.27 96.52 39.92L96.59 39.99L96.63 40.03Q92.88 36.09 87.97 28.86ZM96.48 40.38L96.43 40.33L96.85 40.45L98.05 41.64L97.97 41.56Q98.63 42.18 99.27 42.79L99.23 42.75L99.30 42.81Q102.74 43.33 106.32 45.19L106.41 45.28L106.35 45.22Q99.55 38.61 94.15 31.69L94.02 31.56L95.86 31.64L95.81 31.60Q98.80 31.51 100.14 26.98L100.24 27.08L100.22 27.06Q100.90 24.85 100.90 22.15L100.95 22.19L100.94 22.19Q100.81 19.77 99.10 19.13L99.13 19.15L99.20 19.22Q99.14 18.90 98.57 18.22L98.53 18.17L98.60 18.25Q96.82 16.69 93.17 16.62L93.08 16.53L93.12 16.57Q85.36 16.54 80.68 13.53L80.66 13.52L80.52 13.38Q84.29 20.23 84.64 27.92L84.74 28.02L84.63 27.92Q85.09 35.99 81.97 42.84L81.91 42.78L81.95 42.82Q83.06 42.11 83.86 41.81L83.88 41.82L82.88 44.10L82.99 44.21Q85.65 43.09 88.31 42.60L88.36 42.64L88.30 42.59Q89.72 37.61 89.91 32.40L89.72 32.21L89.76 32.24Q93.30 37.23 96.46 40.36ZM95.23 22.45L95.29 22.52L95.19 22.41Q95.20 22.65 95.20 22.99L95.34 23.13L95.29 23.65L95.22 23.59Q95.30 24.77 94.61 25.72L94.64 25.74L94.55 25.66Q93.93 26.40 93.01 26.59L93.13 26.71L92.97 26.55Q92.74 26.58 91.14 26.62L91.21 26.69L91.27 26.75Q90.68 26.77 89.84 26.66L89.78 26.59L89.76 26.57Q89.63 25.03 89.28 21.99L89.43 22.13L89.42 22.12Q90.68 22.16 91.36 22.16L91.46 22.26L91.40 22.20Q93.29 22.26 95.23 22.45Z"/><path fill="#e9a561" d="M51.01 40.16L51.06 40.21L48.72 33.41L48.63 33.33Q44.35 20.83 38.41 14.43L38.25 14.27L38.36 14.38Q40.43 15.50 43.02 16.11L42.95 16.04L42.94 16.03Q48.05 22.28 52.39 35.03L52.37 35.01L52.50 35.14Q55.44 26.93 56.13 25.33L56.11 25.31L56.20 25.40Q58.57 19.78 61.38 16.46L61.28 16.36L61.35 16.42Q63.36 16.00 65.99 15.13L66.03 15.17L66.12 15.26Q61.56 19.87 58.51 27.10L58.35 26.94L58.36 26.96Q56.98 30.63 53.28 40.15L53.38 40.24L53.34 40.21Q52.66 40.10 52.09 40.06L52.24 40.21L52.12 40.09Q51.63 40.17 51.06 40.21ZM56.08 42.64L56.05 42.61L56.02 42.59Q58.87 32.64 60.43 28.61L60.46 28.63L60.36 28.54Q63.35 20.83 67.77 15.96L67.82 16.00L67.88 16.07Q66.72 16.32 64.63 17.04L64.72 17.13L65.77 15.71L65.82 15.76Q66.36 15.05 66.97 14.40L67.00 14.43L67.11 14.54Q64.25 15.49 61.25 16.06L61.16 15.97L61.26 16.07Q56.82 21.34 52.94 32.80L52.96 32.82L52.85 32.72Q49.31 22.70 46.11 18.32L46.02 18.23L46.11 18.32Q45.77 18.29 44.90 18.13L44.84 18.08L44.75 17.99Q44.59 17.68 42.99 15.62L43.01 15.64L42.93 15.56Q39.98 14.86 37.28 13.45L37.31 13.48L37.28 13.45Q43.89 20.52 48.27 33.31L48.37 33.41L48.27 33.31Q49.63 37.11 50.81 40.69L50.79 40.67L50.80 40.68Q51.12 40.69 51.96 40.57L51.99 40.60L52.01 40.62Q52.31 41.27 52.99 42.60L53.06 42.67L52.89 42.50Q53.92 42.61 54.64 42.69L54.59 42.64L54.44 42.49Q55.27 42.59 56.03 42.59Z"/><path d="M16 2 C55 15,72 31,135 30" stroke="#984be6" fill="none"/><path fill="#e84971" d="M17.79 47.02L17.93 47.16L17.86 47.09Q16.83 47.21 14.93 47.51L14.96 47.54L15.03 47.61Q16.32 45.44 17.35 44.15L17.32 44.12L17.26 44.05Q19.07 44.42 19.23 44.42L19.18 44.37L19.31 44.50Q19.59 44.56 20.13 44.45L19.98 44.30L20.14 44.46Q20.71 44.27 20.90 44.27L20.87 44.24L21.01 44.38Q23.52 44.07 23.44 41.90L23.31 41.77L23.33 41.79Q23.46 40.47 23.34 34.23L23.34 34.22L23.30 34.18Q23.14 30.52 23.22 26.37L23.30 26.45L24.72 26.28L24.74 26.29Q25.26 26.06 25.95 25.83L26.06 25.94L25.96 25.84Q25.72 30.24 25.75 34.62L25.77 34.64L25.86 34.73Q25.88 39.09 26.41 43.46L26.34 43.39L26.46 43.51Q26.52 43.79 26.52 44.06L26.43 43.98L26.53 44.08Q26.57 45.75 24.89 46.13L24.76 46.00L24.83 46.07Q21.66 46.40 17.81 47.05ZM24.62 22.86L22.50 19.75L22.48 19.73Q23.54 18.36 25.37 15.58L25.27 15.48L25.41 15.62Q26.09 16.53 27.42 18.36L27.39 18.32L24.54 22.79ZM27.71 49.56L27.59 49.44L27.65 49.50Q28.21 49.56 28.97 49.22L28.98 49.23L28.97 49.22Q29.27 48.49 29.27 48.03L29.35 48.11L29.18 47.94Q29.15 47.57 29.03 46.96L29.09 47.01L29.02 46.95Q27.86 40.72 27.86 32.80L27.73 32.68L27.79 32.73Q27.85 29.93 28.00 27.04L27.86 26.90L27.87 26.91Q27.50 27.26 26.35 27.57L26.20 27.41L26.25 27.47Q26.28 27.00 26.32 26.46L26.29 26.44L26.42 25.38L26.41 25.38Q24.80 26.12 23.01 26.16L22.83 25.98L22.99 26.14Q22.82 30.35 22.86 33.93L22.81 33.88L23.01 41.81L22.97 41.77Q23.13 43.84 20.96 43.95L21.02 44.01L21.01 44.00Q20.68 43.90 20.17 43.95L20.15 43.94L20.23 44.01Q19.73 44.09 19.46 44.09L19.38 44.01L19.45 44.08Q18.88 43.96 17.32 43.54L17.31 43.54L17.39 43.61Q16.81 44.10 15.70 45.77L15.74 45.81L14.20 48.12L14.32 48.23Q15.14 47.98 16.77 47.60L16.80 47.63L16.34 48.35L15.76 48.95L15.83 49.02Q18.01 48.76 19.34 48.84L19.44 48.94L19.39 48.89Q21.72 49.08 27.66 49.50ZM24.50 23.51L24.65 23.65L24.83 22.96L24.88 23.01Q25.23 23.44 26.18 25.04L26.32 25.18L26.30 25.15Q27.71 21.92 29.27 18.84L29.28 18.84L29.39 18.96Q28.41 17.36 27.46 16.07L27.33 15.94L27.42 16.03Q27.30 16.33 26.96 16.86L26.88 16.78L26.86 16.76Q26.49 16.16 25.50 14.87L25.38 14.75L25.38 14.75Q24.29 16.44 21.96 19.79L21.96 19.79L21.99 19.81Q22.85 20.98 24.56 23.57Z"/><path fill="#e467c4" d="M79.00 28.79L79.08 28.88L79.06 28.85Q76.50 28.80 75.20 29.94L75.22 29.96L75.07 29.81Q73.70 31.11 73.89 33.62L73.97 33.70L73.84 33.57Q74.18 36.58 75.36 37.64L75.39 37.67L75.40 37.68Q76.86 38.95 78.95 38.79L79.01 38.85L78.91 38.76Q80.99 38.70 82.40 37.45L82.50 37.55L82.49 37.53Q83.83 36.41 84.02 33.86L84.02 33.85L83.94 33.77Q84.32 28.86 78.95 28.74ZM78.77 41.24L78.89 41.36L77.34 41.37L77.23 41.26Q74.50 41.38 73.01 39.97L72.88 39.84L72.89 39.85Q72.04 38.97 71.78 37.03L71.68 36.93L71.63 36.88Q71.60 35.90 71.45 33.69L71.31 33.55L71.33 33.57Q71.24 32.56 71.12 30.32L71.23 30.43L71.29 30.48Q71.18 28.59 72.13 27.44L72.14 27.45L72.07 27.38Q73.84 25.91 78.56 26.07L78.58 26.09L78.60 26.10Q83.54 26.29 85.36 27.81L85.38 27.82L85.27 27.71Q86.83 29.01 86.64 32.20L86.55 32.12L86.50 32.07Q86.38 35.71 86.30 36.13L86.19 36.02L86.24 36.07Q85.99 38.41 84.65 39.59L84.58 39.51L84.71 39.64Q82.77 41.43 78.96 41.43ZM83.54 43.72L83.61 43.80L83.59 43.77Q84.95 43.69 86.86 43.54L86.95 43.63L87.03 43.71Q87.36 43.48 87.36 43.32L87.39 43.35L87.34 43.30Q87.50 43.39 87.46 43.23L87.36 43.13L87.47 43.24Q87.36 43.01 87.36 42.90L87.31 42.85L87.37 42.91Q87.37 42.64 87.71 42.34L87.74 42.37L87.78 42.41Q88.53 41.14 88.53 39.23L88.56 39.27L88.50 39.21Q88.48 38.23 88.38 35.82L88.54 35.97L88.52 35.95Q88.31 33.42 88.16 32.32L88.21 32.37L88.25 32.41Q87.85 30.26 86.93 29.11L86.94 29.12L86.63 28.92L86.54 28.83Q86.49 28.29 85.69 27.37L85.60 27.28L85.68 27.36Q83.32 25.58 78.41 25.58L78.53 25.69L76.66 25.57L76.71 25.63Q73.50 25.73 71.79 27.10L71.75 27.06L71.73 27.04Q70.83 28.12 70.86 30.14L70.96 30.23L70.92 30.19Q70.91 30.60 71.04 31.86L71.10 31.92L71.04 31.85Q71.23 33.16 71.19 33.62L71.21 33.64L71.05 33.48Q71.43 36.67 71.50 37.13L71.53 37.16L71.38 37.01Q71.85 39.23 72.76 40.37L72.74 40.34L72.86 40.55L72.80 40.49Q73.74 43.06 77.47 43.48L77.47 43.49L77.50 43.51Q78.32 43.56 83.57 43.76ZM80.82 31.07L80.80 31.05L80.75 31.00Q81.79 31.20 83.47 31.74L83.48 31.75L83.43 31.70Q83.73 32.38 83.69 33.87L83.75 33.93L83.67 33.85Q83.66 37.41 80.76 38.17L80.67 38.08L80.62 38.03Q80.06 38.38 79.03 38.49L79.01 38.48L78.89 38.35Q77.98 38.55 76.27 37.94L76.10 37.77L76.24 37.91Q75.97 37.18 76.01 35.70L75.96 35.65L76.06 35.75Q76.05 33.34 77.42 32.32L77.46 32.36L77.48 32.37Q78.21 31.31 80.76 31.01Z"/></svg>