<svg xmlns="http://www.w3.org/2000/svg" width="150" height="50" viewBox="0,0,150,50"><path fill="#eb56a0" d="M46.02 40.33L45.98 40.28L46.00 40.30Q43.18 36.57 40.55 27.93L40.40 27.78L40.46 27.84Q39.71 25.61 38.91 23.47L38.91 23.47L36.06 32.26L36.10 32.31Q34.30 37.24 31.90 40.48L31.94 40.52L32.00 40.59Q31.10 40.59 29.46 40.75L29.51 40.79L29.38 40.66Q29.59 39.58 29.59 38.33L29.61 38.34L29.55 38.28Q29.56 32.28 26.82 26.15L26.86 26.19L26.74 26.07Q23.68 19.25 17.82 14.26L17.79 14.22L17.87 14.31Q19.95 14.94 22.31 15.47L22.25 15.41L22.28 15.44Q30.95 23.89 32.25 34.85L32.31 34.92L32.28 34.88Q33.84 31.50 35.29 26.13L35.47 26.31L35.33 26.17Q37.32 18.68 37.81 17.27L37.85 17.31L40.04 17.25L40.18 17.40Q40.72 19.27 41.37 21.59L41.52 21.74L42.69 26.11L42.69 26.11Q44.34 31.65 45.75 34.88L45.63 34.76L45.69 34.82Q47.27 23.12 55.19 15.77L55.26 15.84L55.18 15.76Q56.85 15.56 59.82 14.91L59.66 14.75L59.84 14.93Q54.45 19.17 51.40 25.30L51.32 25.22L51.32 25.22Q48.20 31.43 48.20 38.21L48.31 38.32L48.35 38.35Q48.25 39.36 48.33 40.51L48.32 40.49L47.30 40.50L47.20 40.40Q46.57 40.31 46.00 40.31ZM52.33 43.28L52.29 43.24L52.36 43.32Q51.12 39.76 51.24 35.87L51.23 35.87L51.25 35.88Q51.49 24.25 60.85 15.99L60.92 16.05L60.86 15.99Q59.89 16.21 57.95 16.74L58.09 16.88L58.04 16.83Q58.91 15.91 60.82 14.12L60.93 14.24L60.81 14.12Q58.18 14.91 55.25 15.40L55.25 15.40L55.31 15.46Q47.74 22.52 45.84 32.00L45.85 32.01L45.78 31.94Q45.36 30.45 42.50 18.99L42.45 18.94L42.50 18.99Q41.96 18.95 41.01 18.95L41.14 19.08L40.79 17.96L40.67 17.84Q40.73 17.49 40.50 16.99L40.41 16.90L37.58 16.96L37.54 16.92Q36.59 19.25 35.31 24.37L35.37 24.42L35.43 24.49Q34.18 29.62 33.19 32.10L33.13 32.04L33.15 32.06Q31.57 24.17 26.02 17.85L25.97 17.80L25.94 17.77Q25.51 17.76 24.56 17.57L24.54 17.55L24.55 17.56Q23.88 16.78 22.32 15.14L22.25 15.07L22.27 15.09Q18.80 14.21 16.63 13.41L16.77 13.55L16.75 13.53Q22.47 18.27 25.75 24.47L25.60 24.33L25.59 24.31Q29.12 31.00 29.12 38.01L29.17 38.06L29.23 38.12Q29.06 39.51 28.87 41.11L29.04 41.28L28.89 41.12Q29.27 41.28 29.73 41.18L29.70 41.16L29.71 41.16Q30.07 40.97 30.29 40.97L30.36 41.03L30.32 42.03L30.22 41.93Q30.40 42.56 30.48 43.10L30.36 42.98L30.37 42.99Q31.63 43.03 33.91 42.88L33.73 42.69L33.88 42.84Q37.52 37.46 40.26 28.05L40.18 27.97L40.09 27.88Q42.89 36.71 45.86 40.66L45.95 40.75L45.89 40.69Q46.35 40.69 47.19 40.81L47.23 40.85L47.34 40.97Q48.09 41.90 49.16 42.97L49.16 42.97L49.17 42.98Q49.87 42.96 52.27 43.23Z"/><path d="M13 47 C94 2,77 26,134 8" stroke="#74e08f" fill="none"/><path fill="#5bbfe0" d="M122.31 30.83L122.41 30.93L122.39 30.91Q122.22 29.63 120.27 28.90L120.38 29.01L120.42 29.05Q119.78 28.72 119.25 28.72L119.21 28.67L119.38 28.85Q117.96 28.80 116.89 29.37L116.93 29.40L116.82 29.30Q115.43 30.00 115.55 31.22L115.58 31.26L115.53 31.21Q115.94 34.08 115.78 36.33L115.84 36.38L115.84 36.39Q115.70 38.84 114.98 41.35L114.99 41.36L114.84 41.21Q112.89 41.89 111.71 42.30L111.64 42.23L111.63 42.22Q113.12 38.50 113.12 34.50L113.27 34.65L113.17 34.55Q113.27 29.21 110.69 24.76L110.56 24.63L110.54 24.61Q111.76 25.11 114.16 25.83L114.22 25.90L114.19 25.86Q114.62 26.71 115.00 28.24L114.91 28.14L114.90 28.13Q116.28 26.09 120.17 26.17L120.11 26.12L120.14 26.14Q121.54 26.10 122.34 26.21L122.38 26.25L122.40 26.27Q125.46 26.74 125.53 28.76L125.44 28.67L125.54 28.76Q125.50 29.60 125.31 30.62L125.41 30.73L125.35 30.66Q124.95 33.24 125.14 36.24L125.13 36.24L124.98 36.09Q125.24 39.05 126.23 41.60L126.24 41.61L126.27 41.63Q124.56 41.22 122.85 41.07L122.75 40.97L122.71 40.93Q122.22 38.54 122.14 35.88L122.14 35.87L122.17 35.90Q122.26 33.32 122.48 31.00ZM122.37 41.31L122.39 41.34L122.33 41.28Q123.24 41.39 124.54 41.62L124.48 41.56L124.87 42.64L124.84 42.60Q125.09 43.16 125.32 43.70L125.28 43.65L125.28 43.65Q127.59 44.10 130.30 45.28L130.27 45.25L130.33 45.31Q127.97 42.20 127.29 38.39L127.22 38.33L127.29 38.40Q126.90 36.22 127.02 32.53L127.00 32.50L127.03 32.53Q127.06 32.26 127.09 31.46L126.99 31.36L127.06 31.42Q127.19 30.87 127.12 30.38L127.07 30.34L126.97 30.23Q126.92 28.62 125.81 28.12L125.76 28.07L125.74 28.05Q125.70 27.32 124.93 26.71L124.92 26.69L124.83 26.61Q123.28 25.74 120.24 25.82L120.21 25.80L120.15 25.73Q118.34 25.83 117.50 26.02L117.46 25.98L117.36 25.88Q115.95 26.26 115.00 27.17L115.08 27.25L115.08 27.25Q114.84 26.59 114.46 25.57L114.60 25.71L114.58 25.68Q111.73 24.97 109.90 23.98L109.86 23.94L109.94 24.02Q112.87 28.77 112.87 34.52L112.92 34.57L112.97 34.62Q112.87 38.89 110.96 42.74L111.13 42.91L110.99 42.77Q111.78 42.57 113.07 42.19L113.06 42.17L113.04 42.15Q112.52 43.38 111.98 44.37L112.06 44.44L112.03 44.42Q113.40 43.92 116.94 43.35L116.86 43.26L116.85 43.26Q118.02 38.30 117.90 33.46L117.75 33.30L117.78 33.34Q117.84 32.60 119.02 31.88L118.86 31.72L118.97 31.83Q120.07 31.25 121.17 31.13L121.09 31.05L121.18 31.15Q121.46 30.93 121.88 31.12L122.06 31.29L121.93 31.17Q121.76 33.70 121.80 36.25L121.78 36.23L121.85 36.30Q121.98 38.91 122.48 41.42Z"/><path fill="#dd6740" d="M87.93 34.66L88.04 34.76L87.93 34.66Q87.96 38.27 84.80 39.56L84.82 39.58L84.88 39.64Q82.82 40.28 78.40 40.43L78.57 40.60L78.59 40.63Q73.66 40.61 71.42 39.43L71.53 39.54L71.38 39.38Q69.66 38.20 69.81 34.85L69.87 34.91L69.80 34.84Q69.80 34.19 69.99 32.21L69.94 32.17L69.95 32.17Q70.06 30.57 70.06 29.58L70.08 29.60L70.13 29.65Q70.22 21.75 66.04 14.33L66.02 14.31L65.88 14.17Q66.98 14.77 69.95 15.84L70.11 16.00L70.11 16.00Q72.91 22.64 72.91 30.03L72.91 30.03L72.85 29.97Q72.96 30.69 72.86 31.87L72.86 31.87L72.83 31.84Q72.84 33.12 72.84 33.73L72.82 33.71L72.71 33.60Q72.75 35.92 74.31 36.91L74.22 36.82L74.28 36.89Q76.01 37.77 78.98 37.77L78.86 37.65L78.98 37.77Q81.51 37.68 83.15 36.50L83.21 36.56L83.23 36.59Q85.07 35.23 84.92 32.72L84.89 32.69L84.87 32.66Q84.81 31.31 84.81 29.98L84.71 29.87L84.70 29.87Q84.80 22.92 87.19 16.41L87.12 16.33L89.31 15.78L89.37 15.84Q90.33 15.55 91.43 15.09L91.47 15.12L91.40 15.06Q87.78 22.29 87.78 29.86L87.81 29.89L87.75 29.83Q87.78 30.70 87.91 32.34L87.92 32.34L87.76 32.18Q87.95 33.88 87.95 34.68ZM90.20 35.67L90.04 35.51L90.09 35.57Q89.16 30.56 89.89 25.46L89.89 25.47L89.89 25.46Q90.63 20.27 93.03 15.89L93.04 15.89L93.17 16.03Q92.47 16.24 91.02 16.89L91.06 16.93L91.08 16.94Q91.35 15.99 92.15 14.43L92.18 14.47L92.12 14.41Q88.65 15.62 86.75 15.97L86.87 16.09L86.88 16.09Q84.56 22.65 84.56 29.92L84.57 29.93L84.42 29.78Q84.46 31.19 84.54 32.60L84.60 32.66L84.52 32.58Q84.75 35.05 82.96 36.27L82.94 36.26L82.83 36.14Q81.46 37.32 78.95 37.36L78.86 37.28L78.83 37.25Q76.16 37.39 74.71 36.63L74.63 36.55L74.60 36.52Q74.57 36.07 74.50 35.61L74.59 35.71L74.64 35.76Q74.58 35.24 74.69 34.75L74.64 34.69L74.54 34.59Q74.89 32.39 74.89 30.07L74.93 30.11L74.92 30.10Q74.86 24.22 73.34 18.32L73.25 18.23L73.34 18.32Q72.57 18.16 71.16 17.81L71.17 17.83L71.26 17.91Q70.74 16.48 70.28 15.56L70.38 15.66L70.25 15.54Q67.57 14.79 65.17 13.42L65.17 13.42L65.24 13.49Q69.84 21.06 69.84 29.78L69.81 29.74L69.82 29.76Q69.84 31.41 69.69 33.13L69.58 33.02L69.72 33.16Q69.48 35.55 69.55 36.73L69.57 36.74L69.44 36.61Q69.65 38.61 70.91 39.75L70.83 39.68L70.88 39.72Q71.90 42.23 76.54 42.61L76.52 42.59L76.53 42.60Q78.62 42.75 80.75 42.82L80.76 42.83L80.87 42.94Q86.12 43.02 88.90 42.06L88.88 42.05L88.85 42.01Q90.63 41.31 90.63 39.26L90.57 39.20L90.44 39.07Q90.60 38.09 90.15 35.62Z"/><path fill="#71ade8" d="M105.90 18.45L105.96 18.50L105.83 18.38Q105.17 18.82 105.02 19.62L104.93 19.53L105.01 24.76L105.01 24.76Q106.19 24.79 108.40 24.53L108.47 24.59L108.43 24.56Q108.32 24.90 108.28 25.74L108.39 25.85L108.23 25.69Q108.40 26.66 108.40 27.11L108.30 27.01L106.70 27.09L106.66 27.05Q105.86 27.13 104.98 27.13L105.08 27.22L105.05 27.19Q104.96 31.29 104.88 39.66L104.94 39.72L104.92 39.70Q102.81 39.87 101.32 40.56L101.28 40.52L101.32 40.56Q102.32 34.32 102.20 27.08L102.26 27.14L102.12 27.00Q101.63 27.13 100.34 26.86L100.32 26.84L100.35 26.87Q100.27 25.80 100.08 23.86L100.01 23.79L100.15 23.93Q101.20 24.36 102.15 24.55L102.15 24.56L102.13 24.53Q102.16 23.96 101.85 21.48L101.88 21.50L101.82 21.44Q101.61 19.41 101.61 18.46L101.62 18.47L101.48 18.33Q101.50 16.67 102.91 16.10L103.00 16.20L103.01 16.21Q103.82 15.83 108.65 14.99L108.67 15.01L108.58 14.92Q109.40 14.79 110.24 14.67L110.34 14.78L110.20 14.64Q110.03 15.46 109.88 16.33L109.99 16.45L109.59 17.91L109.54 17.86Q109.01 17.82 108.51 17.94L108.39 17.81L108.36 17.78Q107.74 17.77 105.83 18.38ZM111.36 19.61L111.40 19.65L111.35 19.60Q111.73 17.43 112.34 14.88L112.36 14.90L112.29 14.82Q111.70 15.18 110.40 15.79L110.43 15.82L110.75 14.04L110.76 14.06Q109.52 14.23 107.05 14.76L107.07 14.79L107.14 14.85Q105.96 14.93 102.76 15.84L102.70 15.78L102.75 15.83Q101.15 16.21 101.15 18.07L101.10 18.02L101.12 18.04Q101.20 18.43 101.27 18.77L101.22 18.72L101.24 18.74Q101.44 20.04 101.55 21.37L101.56 21.38L101.77 24.06L101.78 24.07Q100.33 23.61 99.68 23.15L99.81 23.28L99.76 23.24Q99.88 24.19 99.91 25.22L99.90 25.20L100.01 27.17L99.94 27.10Q100.70 27.33 101.50 27.41L101.61 27.52L101.62 29.62L101.87 29.50L101.89 29.51Q101.78 35.65 100.79 41.09L100.89 41.19L100.73 41.03Q101.79 40.60 102.97 40.34L103.04 40.41L102.69 42.30L102.81 42.42Q103.94 42.03 105.24 42.00L105.39 42.15L105.33 42.09Q106.64 42.15 107.90 42.41L107.91 42.42L107.77 42.28Q106.92 37.29 106.92 29.33L107.04 29.45L106.95 29.36Q108.11 29.42 110.21 29.49L110.20 29.48L110.13 27.55L110.08 27.50Q110.27 26.74 110.30 25.78L110.16 25.64L110.27 25.75Q109.77 25.82 108.71 26.09L108.63 26.01L108.72 26.10Q108.58 25.27 108.69 23.94L108.79 24.04L108.81 24.06Q107.98 24.30 107.18 24.38L107.10 24.29L107.11 24.31Q107.09 22.87 107.20 21.47L107.20 21.46L107.25 21.51Q107.48 20.94 108.01 20.60L107.88 20.46L107.86 20.44Q108.88 19.83 109.70 19.75L109.77 19.82L109.76 19.81Q110.61 19.77 111.45 19.69Z"/><path fill="#df6b88" d="M128.83 30.63L128.86 30.66L128.84 30.64Q128.92 30.71 132.30 30.68L132.28 30.65L132.13 30.50Q134.52 30.61 135.59 30.65L135.59 30.65L135.56 30.63Q134.52 27.76 132.09 22.12L132.14 22.18L132.04 22.07Q131.43 23.44 130.38 26.30L130.53 26.45L130.53 26.45Q129.48 29.29 128.90 30.70ZM136.69 33.12L136.67 33.10L136.58 33.01Q134.49 33.16 132.28 33.20L132.26 33.18L132.17 33.09Q129.84 33.05 127.56 33.24L127.68 33.36L127.70 33.38Q126.11 36.74 122.87 40.93L122.87 40.93L122.99 41.04Q120.28 41.53 118.91 42.02L118.87 41.99L118.97 42.09Q124.09 36.43 128.77 23.07L128.83 23.13L128.74 23.04Q129.92 19.54 131.29 16.31L131.39 16.40L131.44 16.45Q131.60 16.31 131.94 16.31L132.06 16.42L132.69 16.33L132.70 16.34Q133.54 17.79 138.38 29.44L138.23 29.29L138.34 29.40Q141.51 37.15 145.51 41.30L145.67 41.45L145.55 41.33Q145.05 41.21 141.16 40.34L141.17 40.34L141.15 40.32Q138.66 37.27 136.69 33.12ZM141.10 40.69L141.18 40.77L141.62 40.72L141.75 40.85Q142.04 40.91 142.34 41.02L142.33 41.01L142.30 40.98Q142.71 41.43 144.54 43.45L144.48 43.38L144.45 43.35Q148.09 44.25 150.48 45.28L150.38 45.18L150.37 45.16Q145.05 40.80 141.05 32.80L140.93 32.68L140.96 32.71Q139.33 29.40 137.88 25.44L137.84 25.40L135.19 17.99L135.12 17.92Q134.80 17.94 134.57 17.94L134.70 18.07L134.11 18.02L134.09 17.99Q133.68 17.28 132.96 15.91L133.00 15.96L133.03 15.98Q132.59 16.08 132.13 16.04L132.06 15.97L132.11 16.01Q131.59 15.91 131.06 15.91L131.05 15.91L131.06 15.92Q129.68 19.87 125.80 30.03L125.77 30.00L125.80 30.04Q122.77 38.08 118.12 42.88L118.12 42.87L118.05 42.81Q119.14 42.45 121.16 41.84L121.13 41.82L121.05 41.73Q120.27 42.59 118.71 44.38L118.81 44.48L118.80 44.47Q120.54 43.85 124.46 43.08L124.30 42.93L124.30 42.93Q127.76 38.62 129.32 35.38L129.44 35.50L129.46 35.52Q131.20 35.40 133.53 35.44L133.45 35.37L133.53 35.44Q136.20 35.41 137.57 35.49L137.49 35.41L137.58 35.49Q138.78 37.80 141.14 40.73ZM133.35 25.98L133.35 25.97L133.39 26.02Q134.21 28.06 134.97 30.15L135.02 30.20L131.64 30.12L131.68 30.17Q132.36 28.83 133.43 26.05Z"/><path fill="#8a8ae9" d="M93.24 29.92L93.25 29.93L93.17 29.85Q90.76 29.84 89.43 31.06L89.30 30.93L89.30 30.93Q88.01 32.19 88.32 34.71L88.28 34.67L88.34 34.73Q88.67 37.26 89.88 38.52L89.87 38.51L89.83 38.47Q90.88 39.78 93.02 39.71L93.03 39.73L93.08 39.77Q93.60 39.73 93.79 39.73L93.76 39.69L93.88 39.81Q97.31 39.09 97.42 34.48L97.48 34.54L97.52 34.59Q97.52 32.15 96.84 31.35L96.81 31.32L96.78 31.29Q95.87 30.15 93.32 30.00ZM96.62 41.71L96.57 41.66L96.57 41.67Q95.14 42.14 93.58 42.07L93.59 42.07L93.57 42.05Q89.82 42.33 88.52 39.75L88.49 39.72L88.56 39.79Q88.32 45.07 86.99 49.33L87.10 49.44L87.12 49.46Q85.26 49.88 83.62 50.61L83.65 50.63L83.51 50.50Q86.09 44.54 85.82 37.58L85.91 37.67L85.93 37.68Q85.60 30.77 82.71 24.72L82.79 24.80L82.81 24.82Q84.62 25.87 86.33 26.33L86.50 26.50L86.95 27.90L86.88 27.82Q87.00 28.17 87.27 29.28L87.20 29.21L87.33 29.34Q88.36 27.29 91.94 27.10L91.83 26.99L91.92 27.08Q92.69 26.94 93.57 26.94L93.64 27.01L94.08 26.95L94.22 27.09Q94.27 27.03 94.46 27.07L94.53 27.14L94.71 27.01L94.85 27.15Q96.76 27.27 97.48 27.50L97.53 27.55L97.63 27.65Q99.02 28.01 99.89 28.96L99.99 29.06L100.00 29.07Q100.79 30.20 100.76 31.61L100.75 31.61L100.78 31.64Q100.77 34.49 99.97 37.15L99.89 37.07L99.89 37.07Q98.82 40.52 96.46 41.55ZM100.71 42.15L100.85 42.25L100.84 42.24Q101.88 40.19 102.18 36.08L102.20 36.11L102.23 36.13Q102.32 34.32 102.32 33.06L102.46 33.20L102.39 33.13Q102.42 31.64 101.66 30.23L101.60 30.17L101.59 30.16Q101.25 29.79 100.76 29.41L100.79 29.43L100.57 29.10L100.32 28.74L100.26 28.57L100.30 28.61Q98.52 26.52 94.18 26.52L94.29 26.63L93.68 26.63L93.67 26.62Q88.93 26.53 87.29 28.12L87.28 28.11L87.30 28.13Q87.22 27.71 87.07 27.22L86.94 27.08L86.69 26.04L86.78 26.13Q84.21 25.42 82.00 23.93L82.06 23.99L82.06 24.00Q85.28 30.26 85.59 37.50L85.61 37.52L85.56 37.47Q85.87 44.75 83.02 51.22L83.01 51.21L85.05 50.39L85.04 50.39Q84.75 51.09 84.06 52.65L84.13 52.71L84.14 52.73Q86.81 51.63 89.13 51.28L89.14 51.28L89.17 51.31Q90.27 46.48 90.42 42.75L90.29 42.62L90.31 42.64Q91.81 44.21 95.42 44.44L95.41 44.43L95.37 44.39Q99.46 44.78 100.90 42.34L100.80 42.24ZM95.08 32.10L95.20 32.22L95.08 32.10Q95.76 32.06 96.86 32.40L96.84 32.38L96.88 32.41Q97.15 33.42 97.12 34.60L97.06 34.54L97.17 34.65Q97.02 35.41 96.83 36.06L96.97 36.20L96.86 36.09Q96.26 39.11 93.75 39.41L93.66 39.33L93.82 39.37L93.78 39.33Q93.63 39.26 93.51 39.29L93.57 39.34L93.11 39.42L93.07 39.38Q91.81 39.30 90.82 38.81L90.95 38.94L90.44 36.72L90.54 36.82Q90.42 34.52 91.71 33.50L91.66 33.45L91.65 33.43Q92.73 32.42 95.13 32.15Z"/><path fill="#c353e8" d="M50.03 28.56L50.13 28.66L49.99 28.52Q47.26 28.61 46.50 30.86L46.41 30.77L46.54 30.89Q46.26 31.56 46.14 32.21L46.09 32.16L46.19 32.25Q48.68 32.35 50.32 32.35L50.46 32.49L50.34 32.37Q52.04 32.43 54.63 32.32L54.66 32.35L54.59 32.28Q54.52 30.61 53.11 29.55L53.18 29.62L53.21 29.64Q51.92 28.66 50.13 28.66ZM50.07 41.09L50.22 41.23L50.10 41.11Q46.03 41.27 44.74 39.87L44.56 39.69L44.62 39.75Q43.76 38.39 43.61 35.12L43.51 35.02L43.45 34.96Q43.62 34.90 43.54 33.53L43.55 33.54L43.39 33.38Q43.35 31.17 43.35 30.45L43.23 30.32L43.21 30.31Q43.31 28.54 44.03 27.43L43.99 27.39L44.09 27.49Q45.36 25.94 48.33 25.94L48.35 25.96L50.02 26.07L50.05 26.10Q52.03 26.03 53.56 26.34L53.62 26.40L53.55 26.33Q55.65 26.83 56.64 28.05L56.50 27.91L56.50 27.91Q57.18 29.05 57.26 31.14L57.30 31.19L57.26 31.14Q57.22 32.24 57.26 34.41L57.42 34.58L57.28 34.44Q54.37 34.42 51.59 34.42L51.78 34.61L46.19 34.61L46.10 34.52Q46.24 38.93 50.32 38.71L50.37 38.76L50.37 38.76Q54.11 38.54 55.33 36.72L55.26 36.64L55.39 36.77Q56.22 37.26 57.82 38.44L57.76 38.38L57.75 38.37Q56.44 40.84 52.29 41.10L52.32 41.13L52.33 41.14Q51.59 41.16 50.22 41.24ZM52.51 43.57L52.57 43.62L52.57 43.63Q53.55 43.47 54.77 43.54L54.69 43.46L54.78 43.55Q59.73 43.71 60.65 40.93L60.74 41.02L60.68 40.96Q59.06 39.72 57.96 38.96L57.92 38.92L57.95 38.96Q58.02 38.45 58.21 38.22L58.30 38.31L58.24 38.26Q57.66 37.94 56.29 36.99L56.17 36.87L56.13 36.83Q57.21 36.88 59.26 37.18L59.34 37.26L59.29 37.21Q59.10 35.84 59.03 35.16L59.17 35.30L58.89 33.23L59.01 33.35Q58.86 30.99 58.21 29.51L58.17 29.47L58.06 29.36Q57.98 29.20 57.41 28.59L57.30 28.49L57.31 28.49Q57.24 28.27 57.01 27.70L56.99 27.68L56.86 27.55Q55.07 25.60 50.01 25.60L49.96 25.55L48.31 25.58L48.27 25.54Q45.03 25.54 43.59 27.03L43.67 27.11L43.52 26.97Q42.98 28.21 43.02 30.27L42.99 30.24L42.92 30.17Q43.13 31.30 43.25 33.54L43.11 33.41L43.24 33.53Q43.28 35.10 43.39 37.15L43.29 37.05L43.31 37.07Q43.59 39.33 44.47 40.39L44.42 40.35L44.54 40.47Q44.65 40.58 44.84 40.69L44.77 40.63L45.04 41.24L45.05 41.24Q45.95 43.21 52.53 43.59ZM50.29 38.26L50.27 38.24L50.27 38.24Q49.12 38.34 48.20 37.89L48.20 37.88L48.27 37.95Q48.17 37.51 47.98 36.82L48.11 36.96L48.04 36.88Q49.64 36.70 51.24 36.70L51.24 36.70L51.38 36.84Q52.94 36.72 54.62 36.84L54.62 36.84L54.60 36.82Q53.44 38.29 50.44 38.41ZM51.98 30.97L52.02 31.00L52.03 31.02Q52.67 31.05 54.00 31.43L53.90 31.33L54.06 31.68L54.21 32.02L54.24 32.04Q52.88 32.17 51.96 32.13L51.79 31.95L51.97 32.13Q49.60 32.02 49.57 32.02L49.55 32.00L49.51 31.96Q50.32 31.10 52.00 30.98Z"/><path fill="#93d750" d="M24.07 40.13L24.22 40.28L21.72 33.33L21.77 33.37Q17.31 20.70 11.37 14.30L11.41 14.34L11.37 14.30Q13.49 15.47 16.08 16.08L15.99 15.98L16.02 16.02Q21.13 22.27 25.47 35.02L25.60 35.15L25.45 35.00Q28.52 26.91 29.20 25.31L29.29 25.41L29.22 25.33Q31.71 19.83 34.53 16.51L34.52 16.50L34.53 16.51Q36.46 16.01 39.08 15.13L39.12 15.17L39.10 15.14Q34.56 19.78 31.51 27.02L31.55 27.05L31.52 27.02Q30.11 30.67 26.41 40.19L26.42 40.20L26.40 40.17Q25.89 40.24 25.32 40.20L25.25 40.13L25.34 40.22Q24.75 40.20 24.18 40.24ZM29.24 42.71L29.11 42.58L29.08 42.55Q31.97 32.65 33.53 28.61L33.47 28.55L33.45 28.53Q36.51 20.90 40.93 16.02L40.93 16.03L40.90 15.99Q39.82 16.32 37.72 17.04L37.82 17.14L38.98 15.83L39.01 15.86Q39.54 15.13 40.15 14.49L40.04 14.37L40.04 14.38Q37.30 15.44 34.29 16.01L34.34 16.07L34.32 16.04Q30.01 21.44 26.13 32.90L26.04 32.81L26.10 32.87Q22.35 22.65 19.16 18.27L19.23 18.34L19.24 18.36Q18.89 18.31 18.01 18.16L17.99 18.13L18.00 18.15Q17.60 17.60 16.00 15.54L16.11 15.65L16.13 15.67Q13.11 14.89 10.40 13.48L10.36 13.43L10.36 13.44Q17.09 20.63 21.47 33.42L21.40 33.34L21.38 33.33Q22.74 37.12 23.92 40.70L23.87 40.65L23.85 40.63Q24.20 40.68 25.04 40.56L24.99 40.52L25.08 40.60Q25.48 41.35 26.16 42.68L26.03 42.54L26.09 42.61Q26.93 42.54 27.66 42.61L27.65 42.61L27.58 42.53Q28.47 42.70 29.23 42.70Z"/><path fill="#e877cc" d="M17.46 21.56L17.41 21.51L17.41 21.51Q15.75 20.16 14.12 19.78L14.22 19.88L14.06 19.72Q13.08 19.58 10.30 19.54L10.31 19.55L10.26 19.50Q5.05 19.43 3.00 21.45L2.98 21.44L2.92 21.37Q1.37 23.03 1.49 26.72L1.43 26.66L1.51 26.75Q1.57 30.46 1.72 31.41L1.69 31.38L1.71 31.40Q2.87 37.58 10.60 37.58L10.52 37.50L10.61 37.59Q15.29 37.59 17.38 35.19L17.39 35.20L17.34 35.15Q19.20 32.94 19.43 28.18L19.38 28.13L19.52 28.27Q19.76 23.44 17.44 21.54ZM10.50 40.49L10.41 40.40L10.51 40.50Q3.99 40.65 1.02 38.29L0.90 38.16L1.03 38.29Q-1.06 36.13-1.17 31.06L-1.24 31.00L-1.23 31.00Q-1.24 30.50-1.39 27.23L-1.46 27.16L-1.31 27.31Q-1.43 24.71-1.40 23.64L-1.48 23.56L-1.41 23.63Q-1.42 20.61-0.01 18.90L0.08 18.99L0.07 18.99Q2.63 16.71 7.51 16.56L7.50 16.55L7.42 16.48Q9.21 16.44 10.09 16.48L10.15 16.54L10.08 16.46Q20.13 16.66 21.89 21.00L21.86 20.97L21.84 20.96Q22.74 23.07 22.59 25.82L22.49 25.71L22.47 25.70Q22.51 27.45 22.32 30.73L22.31 30.72L22.23 30.64Q22.04 33.45 21.13 35.51L21.13 35.51L21.26 35.64Q19.21 40.37 10.57 40.56ZM22.79 40.41L22.79 40.41L22.91 40.53Q24.20 38.66 24.32 35.58L24.26 35.52L24.34 35.60Q24.34 34.49 24.30 32.89L24.44 33.03L24.38 32.98Q24.30 32.17 24.26 30.34L24.37 30.45L24.24 30.32Q24.28 23.29 22.34 20.81L22.40 20.87L22.28 20.75Q21.89 19.74 20.78 18.64L20.85 18.71L20.78 18.64Q17.58 16.24 10.12 16.08L10.00 15.97L10.02 15.99Q2.68 15.92-0.36 18.51L-0.34 18.53L-0.29 18.58Q-1.77 20.41-1.77 23.34L-1.80 23.32L-1.80 23.31Q-1.81 24.60-1.66 25.94L-1.63 25.96L-1.69 25.90Q-1.71 26.95-1.67 28.40L-1.58 28.48L-1.57 28.49Q-1.48 32.39-1.33 33.57L-1.26 33.64L-1.24 33.66Q-0.89 36.56 0.44 38.35L0.29 38.20L0.32 38.23Q0.92 39.66 1.98 40.43L1.86 40.30L1.86 40.30Q5.06 42.58 12.82 42.77L12.95 42.90L12.86 42.81Q20.22 43.06 22.89 40.50ZM19.28 28.29L19.12 28.14L19.15 28.17Q18.89 32.66 16.99 34.76L17.14 34.91L17.10 34.87Q15.08 37.19 10.63 37.23L10.50 37.11L10.61 37.21Q6.27 37.25 4.14 35.35L4.09 35.30L4.13 35.34Q3.40 33.69 3.47 30.80L3.42 30.75L3.32 30.64Q3.53 26.14 5.55 23.97L5.47 23.89L5.57 23.99Q7.45 21.68 12.05 21.68L12.05 21.68L12.22 21.85Q16.28 21.72 18.38 23.59L18.46 23.67L18.36 23.57Q19.31 25.43 19.20 28.21Z"/><path fill="#57ea7b" d="M64.64 19.74L64.62 19.72L64.67 19.77Q62.67 19.87 61.72 20.02L61.65 19.95L61.70 20.00Q59.98 20.15 58.77 20.68L58.72 20.63L58.84 20.76Q55.20 22.07 55.09 26.75L55.08 26.74L55.09 26.75Q55.05 29.46 55.70 32.39L55.67 32.36L55.81 32.50Q56.64 36.48 60.25 37.66L60.14 37.55L60.30 37.71Q62.18 38.26 63.63 38.10L63.51 37.99L64.07 38.09L64.02 38.04Q64.29 38.12 64.48 38.16L64.33 38.01L64.43 38.11Q64.60 38.12 64.75 38.09L64.67 38.01L64.68 38.02Q67.40 37.84 68.77 37.27L68.60 37.10L65.07 33.61L65.02 33.56Q65.50 33.40 66.11 32.79L65.99 32.67L66.88 31.72L67.04 31.89Q68.76 33.84 70.74 35.89L70.78 35.93L70.75 35.90Q73.01 34.01 73.28 28.64L73.33 28.70L73.28 28.65Q73.53 27.91 73.53 27.00L73.36 26.83L73.44 26.91Q73.52 21.31 68.45 20.20L68.44 20.19L68.45 20.20Q67.05 19.79 64.54 19.64ZM77.37 41.76L77.24 41.63L77.23 41.62Q76.78 42.19 75.59 43.07L75.59 43.06L71.18 39.38L71.15 39.35Q68.62 40.51 64.35 40.54L64.36 40.55L64.43 40.62Q57.88 40.73 55.06 38.48L55.13 38.56L55.01 38.44Q53.26 36.68 52.80 33.71L52.90 33.81L52.76 33.67Q52.54 31.85 52.16 28.27L52.28 28.40L52.27 28.39Q52.30 27.69 52.18 25.94L52.09 25.85L52.17 25.93Q51.89 24.23 51.93 23.36L52.04 23.47L52.04 23.48Q52.03 20.30 53.78 18.74L53.86 18.82L53.96 18.92Q55.39 17.49 58.58 17.00L58.63 17.04L58.56 16.98Q61.01 16.57 63.90 16.64L64.05 16.79L64.02 16.76Q71.52 16.88 74.64 19.24L74.68 19.27L74.58 19.18Q76.65 21.21 76.39 26.12L76.55 26.28L76.49 26.22Q76.23 29.81 76.04 31.14L76.06 31.16L76.05 31.15Q75.48 35.72 73.16 38.04L73.23 38.12L73.04 37.93Q74.51 39.17 77.25 41.64ZM72.48 17.45L72.56 17.53L72.47 17.44Q70.48 16.75 63.98 16.26L64.01 16.30L64.05 16.34Q62.64 16.33 59.86 16.44L59.74 16.33L59.73 16.32Q55.67 16.71 53.43 18.69L53.30 18.56L53.43 18.70Q51.68 20.07 51.68 23.23L51.58 23.12L51.69 23.24Q51.68 24.07 51.83 25.78L51.76 25.71L51.88 25.83Q51.89 27.39 51.89 28.27L51.99 28.37L52.04 28.42Q52.02 30.00 52.40 33.58L52.56 33.74L52.49 33.66Q52.91 36.60 54.50 38.65L54.44 38.58L54.52 38.66Q54.84 39.48 56.06 40.63L55.96 40.52L56.00 40.57Q58.68 42.52 63.85 42.79L63.92 42.85L63.85 42.78Q64.34 42.93 66.74 43.04L66.58 42.89L66.65 42.95Q71.37 43.03 73.65 41.96L73.72 42.03L73.75 42.06Q74.63 42.75 79.35 46.32L79.32 46.30L79.32 46.30Q79.87 45.70 81.16 44.71L81.19 44.74L81.27 44.82Q80.45 44.20 79.66 43.51L79.67 43.52L77.97 42.02L77.95 41.84L78.10 42.00Q77.38 41.39 76.16 40.36L76.14 40.34L76.31 40.51Q78.22 38.00 78.22 33.47L78.11 33.37L78.05 33.31Q78.03 32.87 78.07 32.03L78.22 32.18L78.12 32.08Q78.20 31.28 78.20 30.86L78.11 30.78L78.22 30.88Q78.20 25.35 77.48 22.99L77.53 23.04L77.51 23.01Q77.14 21.73 76.26 20.67L76.28 20.68L76.25 20.65Q75.45 18.52 72.51 17.49ZM66.41 21.97L66.41 21.97L66.54 22.10Q70.50 21.91 72.33 23.51L72.32 23.50L72.29 23.46Q72.89 24.72 73.01 26.05L73.03 26.08L73.08 26.13Q73.23 27.45 73.15 28.82L73.03 28.70L73.10 28.77Q72.62 33.58 70.68 35.29L70.85 35.47L70.85 35.46Q69.39 34.01 66.88 31.27L67.04 31.43L67.04 31.43Q66.23 32.14 64.67 33.70L64.65 33.69L64.54 33.57Q65.27 34.34 66.41 35.52L66.24 35.35L66.31 35.54L66.26 35.49Q66.75 35.93 67.78 37.00L67.89 37.12L67.89 37.12Q66.81 37.29 64.49 37.60L64.62 37.72L64.04 37.68L63.54 37.60L63.52 37.61L63.62 37.72Q60.09 37.65 58.11 36.01L58.17 36.07L58.06 35.97Q57.13 33.96 57.16 30.84L57.20 30.88L57.08 30.76Q57.39 22.20 66.57 22.13Z"/></svg>